<svg xmlns="http://www.w3.org/2000/svg" viewBox="0 0 116.23 163.31"><defs><style>.cls-1{fill:#fff;}.cls-2{fill:#231f20;}</style></defs><g id="Layer_2" data-name="Layer 2"><g id="Layer_2-2" data-name="Layer 2"><line class="cls-1" x1="112.67" y1="134.93" x2="3.56" y2="134.93"/><rect class="cls-2" x="3.56" y="133.4" width="109.11" height="3.06"/><path class="cls-2" d="M17.6,163.07h-4l-3.12-6H8.33v3.24H10v2.76H3.4v-2.76H5.09v-10.2H3.4v-2.76h7.11a7.31,7.31,0,0,1,4.5,1.2,4.17,4.17,0,0,1,1.57,3.56,4.28,4.28,0,0,1-.82,2.68,4.94,4.94,0,0,1-2.18,1.6l2.13,3.92H17.6Zm-4.5-10.88a1.8,1.8,0,0,0-.7-1.64,5,5,0,0,0-2.47-.44H8.33v4.4H9.88a3.87,3.87,0,0,0,2.54-.61A2.17,2.17,0,0,0,13.1,152.19Z"/><path class="cls-2" d="M40.51,163.07H28.36v-2.76h1.7v-10.2h-1.7v-2.76h12l.49,4.59-2.76.25-.49-2.08H33.3v3.7h6.63v2.73H33.3v3.77h4.45l.48-2.08,2.76.25Z"/><path class="cls-2" d="M58.93,163.07H52.3v-2.76H54v-10.2H52.3v-2.76h6.63v2.76h-1.7v10.2h1.7Z"/><path class="cls-2" d="M85,157.12h-.78v5.95H81.73l-.32-1.64a5.27,5.27,0,0,1-1.85,1.36,6.2,6.2,0,0,1-2.65.52,6.52,6.52,0,0,1-5.26-2.3,8.46,8.46,0,0,1-2-5.68,8.65,8.65,0,0,1,2.06-5.8,7.48,7.48,0,0,1,6-2.42,10.31,10.31,0,0,1,3.47.55A6.24,6.24,0,0,1,83.61,149l.44,3.41-2.61.25L81,150.81a4.66,4.66,0,0,0-1.58-.63,7.76,7.76,0,0,0-1.76-.22,4.27,4.27,0,0,0-3.2,1.31,7,7,0,0,0-.07,7.91,4,4,0,0,0,3.1,1.28,3.63,3.63,0,0,0,2.54-.85,3,3,0,0,0,1-2.39v-.1H77.9v-2.73H85Z"/><path class="cls-2" d="M112.84,150.11h-1.7v13l-1.81,0-8.44-10h-.1v7.2H103v2.76h-6.9v-2.76h1.7v-10.2h-2v-2.76h4.28l7.93,9.33h.1v-6.57h-2.28v-2.76h7Z"/><path class="cls-2" d="M34.83,31.87,17.42,8.6,0,31.87V54.51L7.92,65.12,0,75.57V98.21l17.42,23.27L34.83,98.21V75.57L26.91,65l7.92-10.45ZM32.77,53.72l-7.12,9.66-7.12-9.66V32.19H16.31V54.51L32.77,76.36V97.58L17.42,118,2.06,97.58V76.36l7.13-9.5,7.12,9.5V97.89h2.22V75.57L2.06,53.72V32.66L17.42,12.08,32.77,32.66Z"/><polygon class="cls-2" points="18.53 53.72 18.53 32.19 16.31 32.19 16.31 54.51 32.77 76.36 32.77 97.58 17.42 118 2.06 97.58 2.06 76.36 9.19 66.86 16.31 76.36 16.31 97.89 18.53 97.89 18.53 75.57 2.06 53.72 2.06 32.66 17.42 12.08 32.77 32.66 32.77 53.72 25.65 63.38 18.53 53.72"/><path class="cls-2" d="M54,32.35V97.89h2.22V32.35Zm0,0V97.89h2.22V32.35ZM55.08,8.6,37.66,31.87V98.21l17.42,23.27L72.5,98.21V31.87Zm15.35,89L55.08,118,39.72,97.58V32.66L55.08,12.24,70.43,32.66ZM54,97.89h2.22V32.35H54Z"/><path class="cls-2" d="M55.08,12.24,39.72,32.66V97.58L55.08,118,70.43,97.58V32.66Zm1.11,85.65H54V32.35h2.22Z"/><path class="cls-2" d="M93.12,30.92,75.7,7.65V98.37l17.42,23.11,17.42-23.11V7.65Zm15.2,66.66L93.12,118,77.76,97.58V14L92,33V97.89h2.06V33.14L108.32,14Z"/><polygon class="cls-2" points="108.32 13.98 108.32 97.58 93.12 118 77.76 97.58 77.76 13.98 92.01 32.98 92.01 97.89 94.07 97.89 94.07 33.14 108.32 13.98"/><path class="cls-2" d="M40.53,24.23,23.11,1,5.7,24.23V46.86l7.91,10.61L5.7,67.92V90.56l17.41,23.27L40.53,90.56V67.92l-7.92-10.6,7.92-10.46ZM38.47,46.08l-7.13,9.65-7.12-9.65V24.55H22V46.86L38.47,68.71V89.93L23.11,110.36,7.75,89.93V68.71l7.13-9.49L22,68.71V90.25h2.22V67.92L7.75,46.08V25L23.11,4.43,38.47,25Z"/><polygon class="cls-1" points="24.22 46.08 24.22 24.55 22 24.55 22 46.87 38.47 68.71 38.47 89.93 23.11 110.36 7.75 89.93 7.75 68.71 14.88 59.22 22 68.71 22 90.25 24.22 90.25 24.22 67.92 7.75 46.08 7.75 25.02 23.11 4.43 38.47 25.02 38.47 46.08 31.34 55.73 24.22 46.08"/><path class="cls-2" d="M59.66,24.7V90.25h2.22V24.7Zm0,0V90.25h2.22V24.7ZM60.77,1,43.36,24.23V90.56l17.41,23.27L78.19,90.56V24.23Zm15.37,89L60.77,110.36,45.41,89.93V25L60.77,4.6,76.14,25Zm-16.48.32h2.22V24.7H59.66Z"/><path class="cls-1" d="M60.77,4.6,45.41,25V89.93l15.36,20.43L76.14,89.93V25Zm1.11,85.65H59.66V24.7h2.22Z"/><path class="cls-2" d="M98.82,23.28,81.4,0V90.72l17.42,23.11,17.41-23.11V0ZM114,89.93,98.82,110.36,83.46,89.93V6.33l14.25,19V90.25h2.05V25.49L114,6.33Z"/><polygon class="cls-1" points="114.01 6.33 114.01 89.93 98.82 110.36 83.46 89.93 83.46 6.33 97.71 25.34 97.71 90.25 99.76 90.25 99.76 25.49 114.01 6.33"/></g></g></svg>