<svg width="120" height="144" viewBox="0 0 120 144" fill="none" xmlns="http://www.w3.org/2000/svg">
<path d="M50.5829 22.9912C49.9518 23.1189 49.4342 23.5727 49.2214 24.1826L44.2291 37.5142H36.4003C36.3436 37.5142 36.2868 37.5142 36.2301 37.5142C35.5352 37.5852 34.9395 38.0461 34.6984 38.7056L29.7061 52.0373H21.8773C21.8205 52.0373 21.7638 52.0373 21.7071 52.0373C21.6503 52.0373 21.5936 52.0373 21.5369 52.0373C20.9058 52.1649 20.3881 52.6188 20.1754 53.2286L14.7292 67.7516C14.5236 68.3048 14.6087 68.9288 14.942 69.411C15.2823 69.9003 15.8355 70.1911 16.4311 70.1911H74.5232C74.58 70.1911 74.6367 70.1911 74.6934 70.1911H103.569C104.165 70.1911 104.718 69.9003 105.058 69.411C105.392 68.9288 105.477 68.3048 105.271 67.7516L99.8251 53.2286C99.5627 52.5124 98.8819 52.0373 98.1232 52.0373H90.2943L85.3021 38.7056C85.0397 37.9894 84.3589 37.5142 83.6001 37.5142H75.7713L70.779 24.1826C70.5166 23.4663 69.8359 22.9912 69.0771 22.9912H50.9233C50.8666 22.9912 50.8099 22.9912 50.7531 22.9912C50.6964 22.9912 50.6397 22.9912 50.5829 22.9912ZM52.1714 26.622H67.829L71.9136 37.5142H48.0868L52.1714 26.622ZM37.6484 41.145H53.306L57.3906 52.0373H33.5638L37.6484 41.145ZM57.1637 41.145H62.8367L60.0002 48.6902L57.1637 41.145ZM66.6944 41.145H82.3521L86.4367 52.0373H62.6098L66.6944 41.145ZM23.1253 55.668H38.783L42.8676 66.5603H19.0407L23.1253 55.668ZM42.6407 55.668H48.3137L45.4772 63.2132L42.6407 55.668ZM52.1714 55.668H67.829L71.9136 66.5603H48.0868L52.1714 55.668ZM71.6867 55.668H77.3598L74.5232 63.2132L71.6867 55.668ZM81.2175 55.668H96.8751L100.96 66.5603H77.1328L81.2175 55.668Z" fill="white"/>
<path fill-rule="evenodd" clip-rule="evenodd" d="M4.20644 76.5435C1.85506 76.8414 0 78.8818 0 81.3061V90.9061C0 93.5311 2.175 95.7061 4.8 95.7061H5.95313L18.7875 140.209C19.5188 142.74 21.7313 143.706 24 143.706H96C98.2688 143.706 100.481 142.74 101.213 140.209L114.047 95.7061H115.2C117.825 95.7061 120 93.5311 120 90.9061V81.3061C120 78.8818 118.145 76.8414 115.794 76.5435H4.20644ZM115.2 81.3061H4.8V90.9061H115.2V81.3061ZM109.05 95.7061H10.95L23.3918 138.84C23.3087 138.545 23.396 138.604 23.5541 138.712C23.6758 138.795 23.8396 138.906 24 138.906H96C96.1604 138.906 96.3242 138.795 96.4459 138.712C96.604 138.604 96.6913 138.545 96.6082 138.84L109.05 95.7061ZM33.6 105.306C33.6 101.359 36.8531 98.1061 40.8 98.1061C44.7469 98.1061 48 101.359 48 105.306V129.119C48 133.075 44.7469 136.319 40.8 136.319C36.8531 136.319 33.6 133.075 33.6 129.119V105.306ZM52.8 105.306C52.8 101.359 56.0438 98.1061 60 98.1061C63.9469 98.1061 67.2 101.359 67.2 105.306V129.119C67.2 133.075 63.9469 136.319 60 136.319C56.0531 136.319 52.8 133.075 52.8 129.119V105.306ZM72 105.306C72 101.359 75.2531 98.1061 79.2 98.1061C83.1469 98.1061 86.4 101.359 86.4 105.306V129.119C86.4 133.075 83.1469 136.319 79.2 136.319C75.2531 136.319 72 133.075 72 129.119V105.306ZM43.2 105.306C43.2 103.965 42.1406 102.906 40.8 102.906C39.4594 102.906 38.4 103.965 38.4 105.306V129.119C38.4 130.469 39.4594 131.519 40.8 131.519C42.1406 131.519 43.2 130.469 43.2 129.119V105.306ZM62.4 105.306C62.4 103.965 61.3406 102.906 60 102.906C58.65 102.906 57.6 103.965 57.6 105.306V129.119C57.6 130.469 58.6594 131.519 60 131.519C61.3406 131.519 62.4 130.469 62.4 129.119V105.306ZM81.6 105.306C81.6 103.965 80.5406 102.906 79.2 102.906C77.8594 102.906 76.8 103.965 76.8 105.306V129.119C76.8 130.469 77.8594 131.519 79.2 131.519C80.5406 131.519 81.6 130.469 81.6 129.119V105.306Z" fill="white"/>
<rect x="58.208" width="3.58416" height="13.9128" rx="1.79208" fill="white"/>
<rect x="80.9033" y="3.80237" width="3.58416" height="13.9128" rx="1.79208" transform="rotate(30 80.9033 3.80237)" fill="white"/>
<rect x="96.4585" y="16.8051" width="3.58416" height="13.9128" rx="1.79208" transform="rotate(45 96.4585 16.8051)" fill="white"/>
<rect width="3.58416" height="13.9128" rx="1.79208" transform="matrix(-0.707107 0.707107 0.707107 0.707107 23.542 16.8051)" fill="white"/>
<rect width="3.58416" height="3.66855" rx="1.79208" transform="matrix(-0.707107 0.707107 0.707107 0.707107 19.2612 12.5239)" fill="white"/>
<rect width="3.58416" height="3.66855" rx="1.79208" transform="matrix(-0.707107 0.707107 0.707107 0.707107 100.679 11.6766)" fill="white"/>
<rect width="3.58416" height="13.9128" rx="1.79208" transform="matrix(-0.866025 0.5 0.5 0.866025 39.0967 3.80237)" fill="white"/>
</svg>
