<svg width="246" height="262" viewBox="0 0 246 262" fill="none" xmlns="http://www.w3.org/2000/svg">
<path d="M32.7037 64.7644V67.2644V64.7644ZM240.204 94.7644V228.851H245.204V94.7644H240.204ZM212.704 256.351H32.7037V261.351H212.704V256.351ZM5.20374 228.851V94.7644H0.203735V228.851H5.20374ZM32.7037 67.2644L60.6326 67.2644V62.2644L32.7037 62.2644V67.2644ZM184.871 67.2644H212.704V62.2644H184.871V67.2644ZM32.7037 256.351C17.5159 256.351 5.20374 244.039 5.20374 228.851H0.203735C0.203735 246.801 14.7545 261.351 32.7037 261.351V256.351ZM240.204 228.851C240.204 244.039 227.892 256.351 212.704 256.351V261.351C230.653 261.351 245.204 246.801 245.204 228.851H240.204ZM245.204 94.7644C245.204 76.8152 230.653 62.2644 212.704 62.2644V67.2644C227.892 67.2644 240.204 79.5766 240.204 94.7644H245.204ZM5.20374 94.7644C5.20374 79.5766 17.5159 67.2644 32.7037 67.2644V62.2644C14.7545 62.2644 0.203735 76.8152 0.203735 94.7644H5.20374Z" fill="url(#paint0_linear)"/>
<circle cx="60.5958" cy="64.7644" r="2.5" fill="#48F272"/>
<circle cx="184.966" cy="64.7644" r="2.5" fill="#FD6461"/>
<path fill-rule="evenodd" clip-rule="evenodd" d="M137.602 70.8181C137.602 80.1405 130.692 87.4048 122.516 87.4048C114.339 87.4048 107.43 80.1405 107.43 70.8181C107.43 61.4956 114.339 54.2314 122.516 54.2314C130.692 54.2314 137.602 61.4956 137.602 70.8181ZM123.541 89.3719C125.803 89.2263 127.946 88.602 129.887 87.5909V92.2721C129.887 92.8244 130.334 93.2721 130.887 93.2721C131.439 93.2721 131.887 92.8244 131.887 92.2721V86.8429C131.887 86.6943 131.854 86.5533 131.796 86.4265C136.494 83.1144 139.602 77.3611 139.602 70.8181C139.602 64.3387 136.554 58.6337 131.933 55.307C131.951 55.2307 131.961 55.1509 131.961 55.0688V49.6396C131.961 49.0873 131.514 48.6396 130.961 48.6396C130.409 48.6396 129.961 49.0873 129.961 49.6396V54.0844C127.994 53.0465 125.816 52.4071 123.516 52.2627V49.5168C123.516 48.9645 123.068 48.5168 122.516 48.5168C121.963 48.5168 121.516 48.9645 121.516 49.5168V52.2627C119.261 52.4042 117.124 53.0214 115.187 54.0232V49.6396C115.187 49.0873 114.739 48.6396 114.187 48.6396C113.635 48.6396 113.187 49.0873 113.187 49.6396V55.0688C113.187 55.1251 113.191 55.1803 113.2 55.2341C108.522 58.55 105.43 64.2911 105.43 70.8181C105.43 77.3498 108.527 83.0946 113.211 86.4094C113.148 86.5405 113.112 86.6876 113.112 86.8429V92.2721C113.112 92.8244 113.56 93.2721 114.112 93.2721C114.664 93.2721 115.112 92.8244 115.112 92.2721V87.5741C117.085 88.6076 119.269 89.2409 121.574 89.377C121.564 89.4356 121.558 89.4959 121.558 89.5575V92.3949C121.558 92.9472 122.006 93.3949 122.558 93.3949C123.11 93.3949 123.558 92.9472 123.558 92.3949V89.5575C123.558 89.494 123.552 89.432 123.541 89.3719ZM160.944 76.6361C164.157 76.6361 166.762 74.0313 166.762 70.8181C166.762 67.6048 164.157 65 160.944 65C157.731 65 155.126 67.6048 155.126 70.8181C155.126 74.0313 157.731 76.6361 160.944 76.6361ZM160.944 78.6361C165.262 78.6361 168.762 75.1359 168.762 70.8181C168.762 66.5002 165.262 63 160.944 63C156.626 63 153.126 66.5002 153.126 70.8181C153.126 75.1359 156.626 78.6361 160.944 78.6361ZM89.9051 70.8181C89.9051 74.0313 87.3003 76.6361 84.087 76.6361C80.8738 76.6361 78.2689 74.0313 78.2689 70.8181C78.2689 67.6048 80.8738 65 84.087 65C87.3003 65 89.9051 67.6048 89.9051 70.8181ZM91.9051 70.8181C91.9051 75.1359 88.4049 78.6361 84.087 78.6361C79.7692 78.6361 76.2689 75.1359 76.2689 70.8181C76.2689 66.5002 79.7692 63 84.087 63C88.4049 63 91.9051 66.5002 91.9051 70.8181ZM97.3022 48.6396C97.8545 48.6396 98.3022 49.0873 98.3022 49.6396V55.4969C98.3022 56.0492 97.8545 56.4969 97.3022 56.4969C96.7499 56.4969 96.3022 56.0492 96.3022 55.4969V49.6396C96.3022 49.0873 96.7499 48.6396 97.3022 48.6396ZM146.771 92.2721C146.771 92.8244 147.219 93.2721 147.771 93.2721C148.324 93.2721 148.771 92.8244 148.771 92.2721V86.4147C148.771 85.8624 148.324 85.4147 147.771 85.4147C147.219 85.4147 146.771 85.8624 146.771 86.4147V92.2721ZM105.663 48.6396C106.215 48.6396 106.663 49.0873 106.663 49.6396V55.4969C106.663 56.0492 106.215 56.4969 105.663 56.4969C105.111 56.4969 104.663 56.0492 104.663 55.4969V49.6396C104.663 49.0873 105.111 48.6396 105.663 48.6396ZM138.41 92.2721C138.41 92.8244 138.858 93.2721 139.41 93.2721C139.963 93.2721 140.41 92.8244 140.41 92.2721V86.4147C140.41 85.8624 139.963 85.4147 139.41 85.4147C138.858 85.4147 138.41 85.8624 138.41 86.4147V92.2721ZM139.602 48.6396C140.154 48.6396 140.602 49.0873 140.602 49.6396V55.497C140.602 56.0493 140.154 56.497 139.602 56.497C139.049 56.497 138.602 56.0493 138.602 55.497V49.6396C138.602 49.0873 139.049 48.6396 139.602 48.6396ZM104.472 92.2721C104.472 92.8244 104.92 93.2721 105.472 93.2721C106.024 93.2721 106.472 92.8244 106.472 92.2721V86.4146C106.472 85.8624 106.024 85.4146 105.472 85.4146C104.92 85.4146 104.472 85.8624 104.472 86.4146V92.2721ZM147.814 48.6396C148.366 48.6396 148.814 49.0873 148.814 49.6396V55.497C148.814 56.0493 148.366 56.497 147.814 56.497C147.261 56.497 146.814 56.0493 146.814 55.497V49.6396C146.814 49.0873 147.261 48.6396 147.814 48.6396ZM96.2598 92.2721C96.2598 92.8244 96.7075 93.2721 97.2598 93.2721C97.8121 93.2721 98.2598 92.8244 98.2598 92.2721V86.4146C98.2598 85.8624 97.8121 85.4146 97.2598 85.4146C96.7075 85.4146 96.2598 85.8624 96.2598 86.4146V92.2721ZM77.9115 89.7719C77.9115 89.2196 78.3592 88.7719 78.9115 88.7719H90.4241C90.9764 88.7719 91.4241 89.2196 91.4241 89.7719C91.4241 90.3241 90.9764 90.7719 90.4241 90.7719H78.9115C78.3592 90.7719 77.9115 90.3241 77.9115 89.7719ZM78.9115 51.5683C78.3592 51.5683 77.9115 52.016 77.9115 52.5683C77.9115 53.1205 78.3592 53.5683 78.9115 53.5683H90.4241C90.9764 53.5683 91.4241 53.1205 91.4241 52.5683C91.4241 52.016 90.9764 51.5683 90.4241 51.5683H78.9115ZM153.589 52.5683C153.589 52.016 154.036 51.5683 154.589 51.5683H166.101C166.654 51.5683 167.101 52.016 167.101 52.5683C167.101 53.1205 166.654 53.5683 166.101 53.5683H154.589C154.036 53.5683 153.589 53.1205 153.589 52.5683ZM154.589 88.7719C154.036 88.7719 153.589 89.2196 153.589 89.7719C153.589 90.3241 154.036 90.7719 154.589 90.7719H166.101C166.654 90.7719 167.101 90.3241 167.101 89.7719C167.101 89.2196 166.654 88.7719 166.101 88.7719H154.589ZM97.2598 22.4141C100.894 22.4141 103.84 19.4681 103.84 15.834C103.84 12.2 100.894 9.25401 97.2598 9.25401C93.6258 9.25401 90.6798 12.2 90.6798 15.834C90.6798 19.4681 93.6258 22.4141 97.2598 22.4141ZM97.2598 24.4141C101.998 24.4141 105.84 20.5727 105.84 15.834C105.84 11.0954 101.998 7.25401 97.2598 7.25401C92.5212 7.25401 88.6798 11.0954 88.6798 15.834C88.6798 20.5727 92.5212 24.4141 97.2598 24.4141ZM154.394 15.834C154.394 19.4681 151.448 22.4141 147.814 22.4141C144.18 22.4141 141.234 19.4681 141.234 15.834C141.234 12.2 144.18 9.25401 147.814 9.25401C151.448 9.25401 154.394 12.2 154.394 15.834ZM156.394 15.834C156.394 20.5727 152.552 24.4141 147.814 24.4141C143.075 24.4141 139.234 20.5727 139.234 15.834C139.234 11.0954 143.075 7.25401 147.814 7.25401C152.552 7.25401 156.394 11.0954 156.394 15.834ZM122.307 18.8205C126.852 18.8205 130.537 15.1355 130.537 10.5898C130.537 6.04413 126.852 2.35913 122.307 2.35913C117.761 2.35913 114.076 6.04413 114.076 10.5898C114.076 15.1355 117.761 18.8205 122.307 18.8205ZM122.307 20.8205C127.957 20.8205 132.537 16.2401 132.537 10.5898C132.537 4.93956 127.957 0.359131 122.307 0.359131C116.656 0.359131 112.076 4.93956 112.076 10.5898C112.076 16.2401 116.656 20.8205 122.307 20.8205ZM139.447 42.5568V42.9859H105.129V42.5568C105.129 33.08 112.811 25.3977 122.288 25.3977C131.765 25.3977 139.447 33.08 139.447 42.5568ZM103.129 42.5568C103.129 31.9755 111.707 23.3977 122.288 23.3977C128.431 23.3977 133.898 26.2884 137.404 30.7837C140.108 28.5872 143.555 27.2708 147.31 27.2708C155.991 27.2708 163.028 34.3061 163.032 42.9859V42.9926V43.1845H169.359C172.12 43.1845 174.359 45.4231 174.359 48.1845V94.119C174.359 96.8804 172.12 99.119 169.359 99.119H76.0487C73.2873 99.119 71.0487 96.8805 71.0487 94.119V48.1845C71.0487 45.4231 73.2873 43.1845 76.0487 43.1845H81.5143V42.9926V42.9859C81.5179 34.3061 88.5554 27.2708 97.236 27.2708C100.806 27.2708 104.098 28.4606 106.737 30.4652C106.346 31.007 105.983 31.5701 105.65 32.1523C103.326 30.3463 100.407 29.2708 97.236 29.2708C89.66 29.2708 83.5179 35.4107 83.5143 42.9859H103.129L103.129 42.5568ZM141.447 42.9859V42.5568C141.447 38.8378 140.387 35.3662 138.554 32.4277C140.93 30.4561 143.982 29.2708 147.31 29.2708C154.886 29.2708 161.028 35.4107 161.032 42.9859L141.447 42.9859ZM169.359 45.1845H76.0487C74.3919 45.1845 73.0487 46.5277 73.0487 48.1845V94.119C73.0487 95.7759 74.3919 97.119 76.0487 97.119H169.359C171.016 97.119 172.359 95.7759 172.359 94.119V48.1845C172.359 46.5277 171.016 45.1845 169.359 45.1845Z" fill="white"/>
<path d="M37.3718 139.908C39.5318 139.908 41.3158 140.476 42.7238 141.612C44.1478 142.748 45.0678 144.284 45.4838 146.22H41.1398C40.8198 145.436 40.3238 144.82 39.6518 144.372C38.9958 143.924 38.2118 143.7 37.2998 143.7C36.0998 143.7 35.1318 144.14 34.3958 145.02C33.6598 145.9 33.2918 147.076 33.2918 148.548C33.2918 150.02 33.6598 151.196 34.3958 152.076C35.1318 152.94 36.0998 153.372 37.2998 153.372C38.2118 153.372 38.9958 153.148 39.6518 152.7C40.3238 152.252 40.8198 151.644 41.1398 150.876H45.4838C45.0678 152.796 44.1478 154.332 42.7238 155.484C41.3158 156.62 39.5318 157.188 37.3718 157.188C35.7238 157.188 34.2758 156.828 33.0278 156.108C31.7798 155.372 30.8118 154.348 30.1238 153.036C29.4518 151.724 29.1158 150.228 29.1158 148.548C29.1158 146.868 29.4518 145.372 30.1238 144.06C30.8118 142.748 31.7798 141.732 33.0278 141.012C34.2758 140.276 35.7238 139.908 37.3718 139.908ZM51.8878 146.172C52.3998 145.356 53.0558 144.708 53.8558 144.228C54.6718 143.748 55.5518 143.508 56.4958 143.508V147.9H55.3198C54.2318 147.9 53.3838 148.132 52.7758 148.596C52.1838 149.06 51.8878 149.844 51.8878 150.948V157.044H47.7838V143.652H51.8878V146.172ZM64.4775 143.484C65.8055 143.484 66.9895 143.764 68.0295 144.324C69.0855 144.868 69.9095 145.66 70.5015 146.7C71.1095 147.74 71.4135 148.956 71.4135 150.348C71.4135 151.74 71.1095 152.956 70.5015 153.996C69.9095 155.036 69.0855 155.836 68.0295 156.396C66.9895 156.94 65.8055 157.212 64.4775 157.212C63.1495 157.212 61.9575 156.94 60.9015 156.396C59.8455 155.836 59.0135 155.036 58.4055 153.996C57.8135 152.956 57.5175 151.74 57.5175 150.348C57.5175 148.956 57.8135 147.74 58.4055 146.7C59.0135 145.66 59.8455 144.868 60.9015 144.324C61.9575 143.764 63.1495 143.484 64.4775 143.484ZM64.4775 147.036C63.6935 147.036 63.0295 147.324 62.4855 147.9C61.9575 148.46 61.6935 149.276 61.6935 150.348C61.6935 151.42 61.9575 152.236 62.4855 152.796C63.0295 153.356 63.6935 153.636 64.4775 153.636C65.2615 153.636 65.9175 153.356 66.4455 152.796C66.9735 152.236 67.2375 151.42 67.2375 150.348C67.2375 149.276 66.9735 148.46 66.4455 147.9C65.9175 147.324 65.2615 147.036 64.4775 147.036ZM93.1256 143.652L89.6936 157.044H85.1096L82.6856 148.068L80.2376 157.044H75.6536L72.2216 143.652H76.3256L78.1016 153.3L80.5976 143.652H84.9656L87.5336 153.324L89.3096 143.652H93.1256ZM99.7 143.484C100.724 143.484 101.604 143.716 102.34 144.18C103.076 144.644 103.612 145.276 103.948 146.076V139.284H108.052V157.044H103.948V154.62C103.612 155.42 103.076 156.052 102.34 156.516C101.604 156.98 100.724 157.212 99.7 157.212C98.596 157.212 97.604 156.94 96.724 156.396C95.86 155.836 95.172 155.036 94.66 153.996C94.164 152.956 93.916 151.74 93.916 150.348C93.916 148.94 94.164 147.724 94.66 146.7C95.172 145.66 95.86 144.868 96.724 144.324C97.604 143.764 98.596 143.484 99.7 143.484ZM101.02 147.084C100.14 147.084 99.428 147.372 98.884 147.948C98.356 148.524 98.092 149.324 98.092 150.348C98.092 151.372 98.356 152.172 98.884 152.748C99.428 153.324 100.14 153.612 101.02 153.612C101.884 153.612 102.588 153.316 103.132 152.724C103.692 152.132 103.972 151.34 103.972 150.348C103.972 149.34 103.692 148.548 103.132 147.972C102.588 147.38 101.884 147.084 101.02 147.084ZM138.746 140.076L134.69 157.044H129.602L126.89 145.692L124.154 157.044H119.066L115.01 140.076H119.474L121.658 152.364L124.634 140.076H129.122L132.098 152.364L134.306 140.076H138.746ZM140.517 139.884C140.517 139.26 140.741 138.748 141.189 138.348C141.637 137.932 142.229 137.724 142.965 137.724C143.701 137.724 144.293 137.932 144.741 138.348C145.189 138.748 145.413 139.26 145.413 139.884C145.413 140.492 145.189 141.004 144.741 141.42C144.293 141.82 143.701 142.02 142.965 142.02C142.229 142.02 141.637 141.82 141.189 141.42C140.741 141.004 140.517 140.492 140.517 139.884ZM145.005 143.652V157.044H140.901V143.652H145.005ZM152.711 143.484C154.407 143.484 155.759 143.908 156.767 144.756C157.791 145.604 158.431 146.724 158.687 148.116H154.847C154.735 147.572 154.479 147.148 154.079 146.844C153.695 146.524 153.207 146.364 152.615 146.364C152.151 146.364 151.799 146.468 151.559 146.676C151.319 146.868 151.199 147.148 151.199 147.516C151.199 147.932 151.415 148.244 151.847 148.452C152.295 148.66 152.991 148.868 153.935 149.076C154.959 149.316 155.799 149.564 156.455 149.82C157.111 150.06 157.679 150.46 158.159 151.02C158.639 151.58 158.879 152.332 158.879 153.276C158.879 154.044 158.671 154.724 158.255 155.316C157.839 155.908 157.239 156.372 156.455 156.708C155.671 157.044 154.743 157.212 153.671 157.212C151.863 157.212 150.415 156.812 149.327 156.012C148.239 155.212 147.575 154.068 147.335 152.58H151.295C151.359 153.156 151.599 153.596 152.015 153.9C152.447 154.204 152.999 154.356 153.671 154.356C154.135 154.356 154.487 154.252 154.727 154.044C154.967 153.82 155.087 153.532 155.087 153.18C155.087 152.716 154.863 152.388 154.415 152.196C153.983 151.988 153.271 151.772 152.279 151.548C151.287 151.34 150.471 151.116 149.831 150.876C149.191 150.636 148.639 150.252 148.175 149.724C147.711 149.18 147.479 148.444 147.479 147.516C147.479 146.316 147.935 145.348 148.847 144.612C149.759 143.86 151.047 143.484 152.711 143.484ZM166.239 143.484C167.263 143.484 168.143 143.716 168.879 144.18C169.615 144.644 170.151 145.276 170.487 146.076V139.284H174.591V157.044H170.487V154.62C170.151 155.42 169.615 156.052 168.879 156.516C168.143 156.98 167.263 157.212 166.239 157.212C165.135 157.212 164.143 156.94 163.263 156.396C162.399 155.836 161.711 155.036 161.199 153.996C160.703 152.956 160.455 151.74 160.455 150.348C160.455 148.94 160.703 147.724 161.199 146.7C161.711 145.66 162.399 144.868 163.263 144.324C164.143 143.764 165.135 143.484 166.239 143.484ZM167.559 147.084C166.679 147.084 165.967 147.372 165.423 147.948C164.895 148.524 164.631 149.324 164.631 150.348C164.631 151.372 164.895 152.172 165.423 152.748C165.967 153.324 166.679 153.612 167.559 153.612C168.423 153.612 169.127 153.316 169.671 152.724C170.231 152.132 170.511 151.34 170.511 150.348C170.511 149.34 170.231 148.548 169.671 147.972C169.127 147.38 168.423 147.084 167.559 147.084ZM183.681 143.484C185.009 143.484 186.193 143.764 187.233 144.324C188.289 144.868 189.113 145.66 189.705 146.7C190.313 147.74 190.617 148.956 190.617 150.348C190.617 151.74 190.313 152.956 189.705 153.996C189.113 155.036 188.289 155.836 187.233 156.396C186.193 156.94 185.009 157.212 183.681 157.212C182.353 157.212 181.161 156.94 180.105 156.396C179.049 155.836 178.217 155.036 177.609 153.996C177.017 152.956 176.721 151.74 176.721 150.348C176.721 148.956 177.017 147.74 177.609 146.7C178.217 145.66 179.049 144.868 180.105 144.324C181.161 143.764 182.353 143.484 183.681 143.484ZM183.681 147.036C182.897 147.036 182.233 147.324 181.689 147.9C181.161 148.46 180.897 149.276 180.897 150.348C180.897 151.42 181.161 152.236 181.689 152.796C182.233 153.356 182.897 153.636 183.681 153.636C184.465 153.636 185.121 153.356 185.649 152.796C186.177 152.236 186.441 151.42 186.441 150.348C186.441 149.276 186.177 148.46 185.649 147.9C185.121 147.324 184.465 147.036 183.681 147.036ZM210.097 143.508C211.745 143.508 213.041 144.02 213.985 145.044C214.929 146.052 215.401 147.46 215.401 149.268V157.044H211.321V149.748C211.321 148.9 211.089 148.244 210.625 147.78C210.177 147.3 209.561 147.06 208.777 147.06C207.961 147.06 207.313 147.316 206.833 147.828C206.369 148.324 206.137 149.028 206.137 149.94V157.044H202.033V149.748C202.033 148.9 201.809 148.244 201.361 147.78C200.913 147.3 200.297 147.06 199.513 147.06C198.697 147.06 198.049 147.308 197.569 147.804C197.089 148.3 196.849 149.012 196.849 149.94V157.044H192.745V143.652H196.849V145.932C197.201 145.18 197.737 144.588 198.457 144.156C199.193 143.724 200.049 143.508 201.025 143.508C202.049 143.508 202.953 143.748 203.737 144.228C204.521 144.692 205.113 145.364 205.513 146.244C205.977 145.412 206.609 144.748 207.409 144.252C208.225 143.756 209.121 143.508 210.097 143.508Z" fill="white"/>
<path d="M24.1449 181.896C24.1449 182.28 24.0529 182.644 23.8689 182.988C23.6929 183.324 23.4169 183.6 23.0409 183.816C22.6649 184.024 22.1969 184.128 21.6369 184.128C21.0929 184.128 20.6089 184.028 20.1849 183.828C19.7609 183.628 19.4209 183.356 19.1649 183.012C18.9169 182.66 18.7729 182.268 18.7329 181.836H19.6209C19.6529 182.084 19.7449 182.332 19.8969 182.58C20.0489 182.828 20.2689 183.036 20.5569 183.204C20.8449 183.364 21.1929 183.444 21.6009 183.444C22.1369 183.444 22.5449 183.3 22.8249 183.012C23.1129 182.724 23.2569 182.36 23.2569 181.92C23.2569 181.544 23.1609 181.24 22.9689 181.008C22.7849 180.768 22.5529 180.584 22.2729 180.456C22.0009 180.328 21.6249 180.188 21.1449 180.036C20.6169 179.868 20.1889 179.708 19.8609 179.556C19.5409 179.396 19.2689 179.164 19.0449 178.86C18.8209 178.556 18.7089 178.152 18.7089 177.648C18.7089 177.008 18.9329 176.488 19.3809 176.088C19.8289 175.688 20.4449 175.488 21.2289 175.488C22.0289 175.488 22.6609 175.684 23.1249 176.076C23.5969 176.468 23.8769 176.956 23.9649 177.54H23.0649C22.9929 177.18 22.8009 176.86 22.4889 176.58C22.1849 176.3 21.7649 176.16 21.2289 176.16C20.7329 176.16 20.3369 176.288 20.0409 176.544C19.7449 176.8 19.5969 177.156 19.5969 177.612C19.5969 177.972 19.6889 178.264 19.8729 178.488C20.0569 178.712 20.2809 178.884 20.5449 179.004C20.8169 179.124 21.1849 179.26 21.6489 179.412C22.1849 179.58 22.6169 179.744 22.9449 179.904C23.2809 180.064 23.5649 180.304 23.7969 180.624C24.0289 180.944 24.1449 181.368 24.1449 181.896ZM28.6403 177.408C29.2643 177.408 29.8203 177.544 30.3083 177.816C30.8043 178.08 31.1923 178.468 31.4723 178.98C31.7523 179.484 31.8923 180.08 31.8923 180.768C31.8923 181.456 31.7523 182.052 31.4723 182.556C31.1923 183.06 30.8043 183.448 30.3083 183.72C29.8203 183.992 29.2643 184.128 28.6403 184.128C28.0163 184.128 27.4563 183.992 26.9603 183.72C26.4643 183.448 26.0723 183.06 25.7843 182.556C25.5043 182.044 25.3643 181.448 25.3643 180.768C25.3643 180.08 25.5043 179.484 25.7843 178.98C26.0723 178.468 26.4643 178.08 26.9603 177.816C27.4563 177.544 28.0163 177.408 28.6403 177.408ZM28.6403 178.14C28.2083 178.14 27.8083 178.236 27.4403 178.428C27.0723 178.62 26.7763 178.916 26.5523 179.316C26.3283 179.708 26.2163 180.192 26.2163 180.768C26.2163 181.344 26.3283 181.828 26.5523 182.22C26.7763 182.612 27.0723 182.904 27.4403 183.096C27.8083 183.288 28.2083 183.384 28.6403 183.384C29.0643 183.384 29.4563 183.288 29.8163 183.096C30.1843 182.904 30.4803 182.612 30.7043 182.22C30.9283 181.828 31.0403 181.344 31.0403 180.768C31.0403 180.192 30.9283 179.708 30.7043 179.316C30.4803 178.916 30.1843 178.62 29.8163 178.428C29.4563 178.236 29.0643 178.14 28.6403 178.14ZM33.687 175.584L36.411 183.06L39.159 175.584H40.083L36.939 184.044H35.895L32.763 175.584H33.687ZM41.7662 174.756C41.8382 175.148 41.8742 175.488 41.8742 175.776C41.8742 176.6 41.5102 177.012 40.7822 177.012V176.592C40.9822 176.592 41.1262 176.54 41.2142 176.436C41.3022 176.332 41.3462 176.176 41.3462 175.968V175.668H40.7942V174.756H41.7662ZM45.1875 177.408C45.8995 177.408 46.4715 177.596 46.9035 177.972C47.3355 178.348 47.5995 178.856 47.6955 179.496H46.8915C46.8435 179.072 46.6675 178.724 46.3635 178.452C46.0675 178.172 45.6675 178.032 45.1635 178.032C44.7315 178.032 44.3915 178.14 44.1435 178.356C43.9035 178.564 43.7835 178.844 43.7835 179.196C43.7835 179.46 43.8595 179.672 44.0115 179.832C44.1715 179.992 44.3675 180.116 44.5995 180.204C44.8315 180.284 45.1435 180.368 45.5355 180.456C46.0155 180.568 46.3995 180.684 46.6875 180.804C46.9835 180.916 47.2355 181.096 47.4435 181.344C47.6515 181.592 47.7555 181.928 47.7555 182.352C47.7555 182.872 47.5595 183.3 47.1675 183.636C46.7835 183.964 46.2715 184.128 45.6315 184.128C44.8795 184.128 44.2635 183.944 43.7835 183.576C43.3035 183.2 43.0195 182.688 42.9315 182.04H43.7475C43.7955 182.472 43.9835 182.824 44.3115 183.096C44.6395 183.368 45.0835 183.504 45.6435 183.504C46.0595 183.504 46.3835 183.396 46.6155 183.18C46.8475 182.964 46.9635 182.684 46.9635 182.34C46.9635 182.06 46.8835 181.836 46.7235 181.668C46.5635 181.5 46.3635 181.376 46.1235 181.296C45.8915 181.208 45.5715 181.116 45.1635 181.02C44.6915 180.908 44.3115 180.796 44.0235 180.684C43.7435 180.572 43.5035 180.4 43.3035 180.168C43.1035 179.928 43.0035 179.604 43.0035 179.196C43.0035 178.66 43.1995 178.228 43.5915 177.9C43.9835 177.572 44.5155 177.408 45.1875 177.408ZM55.9108 177.408C56.5108 177.408 57.0388 177.544 57.4948 177.816C57.9588 178.08 58.3188 178.468 58.5748 178.98C58.8388 179.484 58.9708 180.08 58.9708 180.768C58.9708 181.448 58.8388 182.044 58.5748 182.556C58.3188 183.06 57.9588 183.448 57.4948 183.72C57.0308 183.992 56.5028 184.128 55.9108 184.128C55.2388 184.128 54.6708 183.956 54.2068 183.612C53.7428 183.268 53.4228 182.812 53.2468 182.244V184.044H52.4068V175.164H53.2468V179.292C53.4228 178.724 53.7428 178.268 54.2068 177.924C54.6708 177.58 55.2388 177.408 55.9108 177.408ZM55.6828 178.152C55.2188 178.152 54.7988 178.26 54.4228 178.476C54.0548 178.692 53.7668 179 53.5588 179.4C53.3508 179.792 53.2468 180.248 53.2468 180.768C53.2468 181.288 53.3508 181.748 53.5588 182.148C53.7668 182.54 54.0548 182.844 54.4228 183.06C54.7988 183.276 55.2188 183.384 55.6828 183.384C56.4268 183.384 57.0188 183.152 57.4588 182.688C57.8988 182.216 58.1188 181.576 58.1188 180.768C58.1188 179.96 57.8988 179.324 57.4588 178.86C57.0188 178.388 56.4268 178.152 55.6828 178.152ZM63.241 177.408C63.905 177.408 64.469 177.58 64.933 177.924C65.405 178.268 65.729 178.724 65.905 179.292V177.492H66.733V184.044H65.905V182.244C65.729 182.812 65.405 183.268 64.933 183.612C64.469 183.956 63.905 184.128 63.241 184.128C62.649 184.128 62.117 183.992 61.645 183.72C61.181 183.448 60.817 183.06 60.553 182.556C60.297 182.044 60.169 181.448 60.169 180.768C60.169 180.08 60.297 179.484 60.553 178.98C60.817 178.468 61.181 178.08 61.645 177.816C62.109 177.544 62.641 177.408 63.241 177.408ZM63.457 178.152C62.721 178.152 62.129 178.388 61.681 178.86C61.241 179.324 61.021 179.96 61.021 180.768C61.021 181.576 61.241 182.216 61.681 182.688C62.129 183.152 62.721 183.384 63.457 183.384C63.921 183.384 64.337 183.276 64.705 183.06C65.081 182.844 65.373 182.54 65.581 182.148C65.797 181.748 65.905 181.288 65.905 180.768C65.905 180.248 65.797 179.792 65.581 179.4C65.373 179 65.081 178.692 64.705 178.476C64.337 178.26 63.921 178.152 63.457 178.152ZM70.5352 177.408C71.2472 177.408 71.8192 177.596 72.2512 177.972C72.6832 178.348 72.9472 178.856 73.0432 179.496H72.2392C72.1912 179.072 72.0152 178.724 71.7112 178.452C71.4152 178.172 71.0152 178.032 70.5112 178.032C70.0792 178.032 69.7392 178.14 69.4912 178.356C69.2512 178.564 69.1312 178.844 69.1312 179.196C69.1312 179.46 69.2072 179.672 69.3592 179.832C69.5192 179.992 69.7152 180.116 69.9472 180.204C70.1792 180.284 70.4912 180.368 70.8832 180.456C71.3632 180.568 71.7472 180.684 72.0352 180.804C72.3312 180.916 72.5832 181.096 72.7912 181.344C72.9992 181.592 73.1032 181.928 73.1032 182.352C73.1032 182.872 72.9072 183.3 72.5152 183.636C72.1312 183.964 71.6192 184.128 70.9792 184.128C70.2272 184.128 69.6112 183.944 69.1312 183.576C68.6512 183.2 68.3672 182.688 68.2792 182.04H69.0952C69.1432 182.472 69.3312 182.824 69.6592 183.096C69.9872 183.368 70.4312 183.504 70.9912 183.504C71.4072 183.504 71.7312 183.396 71.9632 183.18C72.1952 182.964 72.3112 182.684 72.3112 182.34C72.3112 182.06 72.2312 181.836 72.0712 181.668C71.9112 181.5 71.7112 181.376 71.4712 181.296C71.2392 181.208 70.9192 181.116 70.5112 181.02C70.0392 180.908 69.6592 180.796 69.3712 180.684C69.0912 180.572 68.8512 180.4 68.6512 180.168C68.4512 179.928 68.3512 179.604 68.3512 179.196C68.3512 178.66 68.5472 178.228 68.9392 177.9C69.3312 177.572 69.8632 177.408 70.5352 177.408ZM78.1412 184.044L75.4892 181.044V184.044H74.6372V175.164H75.4892V180.372L78.0932 177.492H79.1372L76.1252 180.732L79.2212 184.044H78.1412ZM83.0714 183.432C83.6634 183.432 84.1594 183.284 84.5594 182.988C84.9594 182.692 85.1994 182.292 85.2794 181.788H86.1674C86.0474 182.484 85.7154 183.048 85.1714 183.48C84.6274 183.912 83.9394 184.128 83.1074 184.128C82.4834 184.128 81.9274 183.996 81.4394 183.732C80.9594 183.46 80.5834 183.072 80.3114 182.568C80.0394 182.056 79.9034 181.456 79.9034 180.768C79.9034 180.08 80.0394 179.484 80.3114 178.98C80.5834 178.468 80.9594 178.08 81.4394 177.816C81.9274 177.544 82.4834 177.408 83.1074 177.408C83.7474 177.408 84.2994 177.544 84.7634 177.816C85.2354 178.08 85.5914 178.436 85.8314 178.884C86.0794 179.332 86.2034 179.82 86.2034 180.348C86.2034 180.572 86.1874 180.776 86.1554 180.96H80.7314C80.7394 181.512 80.8514 181.976 81.0674 182.352C81.2914 182.72 81.5794 182.992 81.9314 183.168C82.2834 183.344 82.6634 183.432 83.0714 183.432ZM83.1074 178.092C82.6834 178.092 82.2954 178.18 81.9434 178.356C81.5914 178.532 81.3034 178.804 81.0794 179.172C80.8634 179.532 80.7474 179.984 80.7314 180.528H85.3634C85.3954 179.992 85.3074 179.54 85.0994 179.172C84.8914 178.804 84.6114 178.532 84.2594 178.356C83.9074 178.18 83.5234 178.092 83.1074 178.092ZM90.6914 183.3V184.044H89.9114C89.2794 184.044 88.8074 183.896 88.4954 183.6C88.1834 183.296 88.0274 182.788 88.0274 182.076V178.224H87.0314V177.492H88.0274V175.836H88.8794V177.492H90.6794V178.224H88.8794V182.088C88.8794 182.552 88.9634 182.872 89.1314 183.048C89.2994 183.216 89.5954 183.3 90.0194 183.3H90.6914ZM94.9999 175.548C94.9999 175.372 95.0559 175.232 95.1679 175.128C95.2879 175.024 95.4399 174.972 95.6239 174.972C95.8079 174.972 95.9559 175.024 96.0679 175.128C96.1799 175.232 96.2359 175.372 96.2359 175.548C96.2359 175.716 96.1799 175.852 96.0679 175.956C95.9559 176.06 95.8079 176.112 95.6239 176.112C95.4399 176.112 95.2879 176.06 95.1679 175.956C95.0559 175.852 94.9999 175.716 94.9999 175.548ZM96.0439 177.492V184.044H95.1919V177.492H96.0439ZM99.8438 177.408C100.556 177.408 101.128 177.596 101.56 177.972C101.992 178.348 102.256 178.856 102.352 179.496H101.548C101.5 179.072 101.324 178.724 101.02 178.452C100.724 178.172 100.324 178.032 99.8198 178.032C99.3878 178.032 99.0478 178.14 98.7998 178.356C98.5598 178.564 98.4398 178.844 98.4398 179.196C98.4398 179.46 98.5158 179.672 98.6678 179.832C98.8278 179.992 99.0238 180.116 99.2558 180.204C99.4878 180.284 99.7998 180.368 100.192 180.456C100.672 180.568 101.056 180.684 101.344 180.804C101.64 180.916 101.892 181.096 102.1 181.344C102.308 181.592 102.412 181.928 102.412 182.352C102.412 182.872 102.216 183.3 101.824 183.636C101.44 183.964 100.928 184.128 100.288 184.128C99.5358 184.128 98.9198 183.944 98.4398 183.576C97.9598 183.2 97.6758 182.688 97.5878 182.04H98.4038C98.4518 182.472 98.6398 182.824 98.9678 183.096C99.2958 183.368 99.7398 183.504 100.3 183.504C100.716 183.504 101.04 183.396 101.272 183.18C101.504 182.964 101.62 182.684 101.62 182.34C101.62 182.06 101.54 181.836 101.38 181.668C101.22 181.5 101.02 181.376 100.78 181.296C100.548 181.208 100.228 181.116 99.8198 181.02C99.3478 180.908 98.9678 180.796 98.6798 180.684C98.3998 180.572 98.1598 180.4 97.9598 180.168C97.7598 179.928 97.6598 179.604 97.6598 179.196C97.6598 178.66 97.8558 178.228 98.2478 177.9C98.6398 177.572 99.1718 177.408 99.8438 177.408ZM110.039 183.3V184.044H109.259C108.627 184.044 108.155 183.896 107.843 183.6C107.531 183.296 107.375 182.788 107.375 182.076V178.224H106.379V177.492H107.375V175.836H108.227V177.492H110.027V178.224H108.227V182.088C108.227 182.552 108.311 182.872 108.479 183.048C108.647 183.216 108.943 183.3 109.367 183.3H110.039ZM114.698 177.372C115.458 177.372 116.074 177.616 116.546 178.104C117.026 178.584 117.266 179.292 117.266 180.228V184.044H116.438V180.288C116.438 179.576 116.258 179.032 115.898 178.656C115.538 178.272 115.046 178.08 114.422 178.08C113.766 178.08 113.242 178.292 112.85 178.716C112.466 179.132 112.274 179.748 112.274 180.564V184.044H111.422V175.164H112.274V179.1C112.442 178.54 112.746 178.112 113.186 177.816C113.626 177.52 114.13 177.372 114.698 177.372ZM122.004 177.408C122.628 177.408 123.184 177.544 123.672 177.816C124.168 178.08 124.556 178.468 124.836 178.98C125.116 179.484 125.256 180.08 125.256 180.768C125.256 181.456 125.116 182.052 124.836 182.556C124.556 183.06 124.168 183.448 123.672 183.72C123.184 183.992 122.628 184.128 122.004 184.128C121.38 184.128 120.82 183.992 120.324 183.72C119.828 183.448 119.436 183.06 119.148 182.556C118.868 182.044 118.728 181.448 118.728 180.768C118.728 180.08 118.868 179.484 119.148 178.98C119.436 178.468 119.828 178.08 120.324 177.816C120.82 177.544 121.38 177.408 122.004 177.408ZM122.004 178.14C121.572 178.14 121.172 178.236 120.804 178.428C120.436 178.62 120.14 178.916 119.916 179.316C119.692 179.708 119.58 180.192 119.58 180.768C119.58 181.344 119.692 181.828 119.916 182.22C120.14 182.612 120.436 182.904 120.804 183.096C121.172 183.288 121.572 183.384 122.004 183.384C122.428 183.384 122.82 183.288 123.18 183.096C123.548 182.904 123.844 182.612 124.068 182.22C124.292 181.828 124.404 181.344 124.404 180.768C124.404 180.192 124.292 179.708 124.068 179.316C123.844 178.916 123.548 178.62 123.18 178.428C122.82 178.236 122.428 178.14 122.004 178.14ZM132.414 177.492V184.044H131.574V182.424C131.406 182.992 131.102 183.424 130.662 183.72C130.222 184.016 129.718 184.164 129.15 184.164C128.382 184.164 127.758 183.924 127.278 183.444C126.806 182.956 126.57 182.244 126.57 181.308V177.492H127.41V181.236C127.41 181.956 127.59 182.508 127.95 182.892C128.31 183.268 128.802 183.456 129.426 183.456C130.082 183.456 130.602 183.248 130.986 182.832C131.378 182.408 131.574 181.788 131.574 180.972V177.492H132.414ZM137.011 177.408C137.675 177.408 138.239 177.58 138.703 177.924C139.175 178.268 139.499 178.724 139.675 179.292V177.492H140.503V184.2C140.503 184.808 140.375 185.34 140.119 185.796C139.863 186.26 139.507 186.616 139.051 186.864C138.595 187.12 138.075 187.248 137.491 187.248C136.635 187.248 135.931 187.04 135.379 186.624C134.835 186.216 134.479 185.66 134.311 184.956H135.151C135.295 185.436 135.559 185.816 135.943 186.096C136.335 186.376 136.835 186.516 137.443 186.516C137.859 186.516 138.235 186.424 138.571 186.24C138.915 186.064 139.183 185.8 139.375 185.448C139.575 185.096 139.675 184.68 139.675 184.2V182.244C139.499 182.812 139.175 183.268 138.703 183.612C138.239 183.956 137.675 184.128 137.011 184.128C136.419 184.128 135.887 183.992 135.415 183.72C134.951 183.448 134.587 183.06 134.323 182.556C134.067 182.044 133.939 181.448 133.939 180.768C133.939 180.08 134.067 179.484 134.323 178.98C134.587 178.468 134.951 178.08 135.415 177.816C135.879 177.544 136.411 177.408 137.011 177.408ZM137.227 178.152C136.491 178.152 135.899 178.388 135.451 178.86C135.011 179.324 134.791 179.96 134.791 180.768C134.791 181.576 135.011 182.216 135.451 182.688C135.899 183.152 136.491 183.384 137.227 183.384C137.691 183.384 138.107 183.276 138.475 183.06C138.851 182.844 139.143 182.54 139.351 182.148C139.567 181.748 139.675 181.288 139.675 180.768C139.675 180.248 139.567 179.792 139.351 179.4C139.143 179 138.851 178.692 138.475 178.476C138.107 178.26 137.691 178.152 137.227 178.152ZM145.601 177.372C146.361 177.372 146.977 177.616 147.449 178.104C147.929 178.584 148.169 179.292 148.169 180.228V184.044H147.341V180.288C147.341 179.576 147.161 179.032 146.801 178.656C146.441 178.272 145.949 178.08 145.325 178.08C144.669 178.08 144.145 178.292 143.753 178.716C143.369 179.132 143.177 179.748 143.177 180.564V184.044H142.325V175.164H143.177V179.1C143.345 178.54 143.649 178.112 144.089 177.816C144.529 177.52 145.033 177.372 145.601 177.372ZM152.918 183.3V184.044H152.138C151.506 184.044 151.034 183.896 150.722 183.6C150.41 183.296 150.254 182.788 150.254 182.076V178.224H149.258V177.492H150.254V175.836H151.106V177.492H152.906V178.224H151.106V182.088C151.106 182.552 151.19 182.872 151.358 183.048C151.526 183.216 151.822 183.3 152.246 183.3H152.918ZM157.061 175.752C156.453 175.744 156.025 175.856 155.777 176.088C155.537 176.312 155.417 176.692 155.417 177.228V177.492H157.061V178.236H155.417V184.044H154.577V178.236H153.605V177.492H154.577V177.168C154.577 176.432 154.777 175.88 155.177 175.512C155.577 175.144 156.205 174.976 157.061 175.008V175.752ZM163.973 177.492V184.044H163.133V182.424C162.965 182.992 162.661 183.424 162.221 183.72C161.781 184.016 161.277 184.164 160.709 184.164C159.941 184.164 159.317 183.924 158.837 183.444C158.365 182.956 158.129 182.244 158.129 181.308V177.492H158.969V181.236C158.969 181.956 159.149 182.508 159.509 182.892C159.869 183.268 160.361 183.456 160.985 183.456C161.641 183.456 162.161 183.248 162.545 182.832C162.937 182.408 163.133 181.788 163.133 180.972V177.492H163.973ZM166.661 175.164V184.044H165.809V175.164H166.661ZM169.333 175.164V184.044H168.481V175.164H169.333ZM171.333 177.492L173.613 182.952L175.713 177.492H176.649L172.797 187.14H171.837L173.157 183.972L170.397 177.492H171.333ZM183.725 177.408C184.557 177.408 185.245 177.628 185.789 178.068C186.341 178.508 186.677 179.092 186.797 179.82H185.921C185.833 179.3 185.589 178.892 185.189 178.596C184.789 178.292 184.297 178.14 183.713 178.14C183.289 178.14 182.897 178.236 182.537 178.428C182.185 178.62 181.901 178.916 181.685 179.316C181.477 179.708 181.373 180.192 181.373 180.768C181.373 181.344 181.477 181.832 181.685 182.232C181.901 182.624 182.185 182.916 182.537 183.108C182.897 183.3 183.289 183.396 183.713 183.396C184.297 183.396 184.789 183.248 185.189 182.952C185.589 182.648 185.833 182.236 185.921 181.716H186.797C186.677 182.444 186.341 183.028 185.789 183.468C185.245 183.908 184.557 184.128 183.725 184.128C183.101 184.128 182.545 183.996 182.057 183.732C181.577 183.46 181.201 183.072 180.929 182.568C180.657 182.056 180.521 181.456 180.521 180.768C180.521 180.08 180.657 179.484 180.929 178.98C181.201 178.468 181.577 178.08 182.057 177.816C182.545 177.544 183.101 177.408 183.725 177.408ZM193.961 177.492V184.044H193.121V182.424C192.953 182.992 192.649 183.424 192.209 183.72C191.769 184.016 191.265 184.164 190.697 184.164C189.929 184.164 189.305 183.924 188.825 183.444C188.353 182.956 188.117 182.244 188.117 181.308V177.492H188.957V181.236C188.957 181.956 189.137 182.508 189.497 182.892C189.857 183.268 190.349 183.456 190.973 183.456C191.629 183.456 192.149 183.248 192.533 182.832C192.925 182.408 193.121 181.788 193.121 180.972V177.492H193.961ZM196.649 178.848C196.841 178.376 197.149 178.012 197.573 177.756C197.997 177.5 198.513 177.372 199.121 177.372V178.284H198.845C198.213 178.284 197.689 178.456 197.273 178.8C196.857 179.136 196.649 179.688 196.649 180.456V184.044H195.797V177.492H196.649V178.848ZM202.999 177.408C203.663 177.408 204.227 177.58 204.691 177.924C205.163 178.268 205.487 178.724 205.663 179.292V177.492H206.491V184.044H205.663V182.244C205.487 182.812 205.163 183.268 204.691 183.612C204.227 183.956 203.663 184.128 202.999 184.128C202.407 184.128 201.875 183.992 201.403 183.72C200.939 183.448 200.575 183.06 200.311 182.556C200.055 182.044 199.927 181.448 199.927 180.768C199.927 180.08 200.055 179.484 200.311 178.98C200.575 178.468 200.939 178.08 201.403 177.816C201.867 177.544 202.399 177.408 202.999 177.408ZM203.215 178.152C202.479 178.152 201.887 178.388 201.439 178.86C200.999 179.324 200.779 179.96 200.779 180.768C200.779 181.576 200.999 182.216 201.439 182.688C201.887 183.152 202.479 183.384 203.215 183.384C203.679 183.384 204.095 183.276 204.463 183.06C204.839 182.844 205.131 182.54 205.339 182.148C205.555 181.748 205.663 181.288 205.663 180.768C205.663 180.248 205.555 179.792 205.339 179.4C205.131 179 204.839 178.692 204.463 178.476C204.095 178.26 203.679 178.152 203.215 178.152ZM211.289 183.3V184.044H210.509C209.877 184.044 209.405 183.896 209.093 183.6C208.781 183.296 208.625 182.788 208.625 182.076V178.224H207.629V177.492H208.625V175.836H209.477V177.492H211.277V178.224H209.477V182.088C209.477 182.552 209.561 182.872 209.729 183.048C209.897 183.216 210.193 183.3 210.617 183.3H211.289ZM215.528 183.432C216.12 183.432 216.616 183.284 217.016 182.988C217.416 182.692 217.656 182.292 217.736 181.788H218.624C218.504 182.484 218.172 183.048 217.628 183.48C217.084 183.912 216.396 184.128 215.564 184.128C214.94 184.128 214.384 183.996 213.896 183.732C213.416 183.46 213.04 183.072 212.768 182.568C212.496 182.056 212.36 181.456 212.36 180.768C212.36 180.08 212.496 179.484 212.768 178.98C213.04 178.468 213.416 178.08 213.896 177.816C214.384 177.544 214.94 177.408 215.564 177.408C216.204 177.408 216.756 177.544 217.22 177.816C217.692 178.08 218.048 178.436 218.288 178.884C218.536 179.332 218.66 179.82 218.66 180.348C218.66 180.572 218.644 180.776 218.612 180.96H213.188C213.196 181.512 213.308 181.976 213.524 182.352C213.748 182.72 214.036 182.992 214.388 183.168C214.74 183.344 215.12 183.432 215.528 183.432ZM215.564 178.092C215.14 178.092 214.752 178.18 214.4 178.356C214.048 178.532 213.76 178.804 213.536 179.172C213.32 179.532 213.204 179.984 213.188 180.528H217.82C217.852 179.992 217.764 179.54 217.556 179.172C217.348 178.804 217.068 178.532 216.716 178.356C216.364 178.18 215.98 178.092 215.564 178.092ZM222.932 177.408C223.596 177.408 224.16 177.58 224.624 177.924C225.096 178.268 225.416 178.724 225.584 179.292V175.164H226.424V184.044H225.584V182.244C225.416 182.812 225.096 183.268 224.624 183.612C224.16 183.956 223.596 184.128 222.932 184.128C222.34 184.128 221.808 183.992 221.336 183.72C220.872 183.448 220.508 183.06 220.244 182.556C219.988 182.044 219.86 181.448 219.86 180.768C219.86 180.08 219.988 179.484 220.244 178.98C220.508 178.468 220.872 178.08 221.336 177.816C221.8 177.544 222.332 177.408 222.932 177.408ZM223.148 178.152C222.412 178.152 221.82 178.388 221.372 178.86C220.932 179.324 220.712 179.96 220.712 180.768C220.712 181.576 220.932 182.216 221.372 182.688C221.82 183.152 222.412 183.384 223.148 183.384C223.612 183.384 224.028 183.276 224.396 183.06C224.772 182.844 225.064 182.54 225.272 182.148C225.488 181.748 225.596 181.288 225.596 180.768C225.596 180.248 225.488 179.792 225.272 179.4C225.064 179 224.772 178.692 224.396 178.476C224.028 178.26 223.612 178.152 223.148 178.152ZM49.5592 195.408C50.1592 195.408 50.6872 195.544 51.1432 195.816C51.6072 196.08 51.9672 196.468 52.2232 196.98C52.4872 197.484 52.6192 198.08 52.6192 198.768C52.6192 199.448 52.4872 200.044 52.2232 200.556C51.9672 201.06 51.6072 201.448 51.1432 201.72C50.6792 201.992 50.1512 202.128 49.5592 202.128C48.8872 202.128 48.3192 201.956 47.8552 201.612C47.3912 201.268 47.0712 200.812 46.8952 200.244V202.044H46.0552V193.164H46.8952V197.292C47.0712 196.724 47.3912 196.268 47.8552 195.924C48.3192 195.58 48.8872 195.408 49.5592 195.408ZM49.3312 196.152C48.8672 196.152 48.4472 196.26 48.0712 196.476C47.7032 196.692 47.4152 197 47.2072 197.4C46.9992 197.792 46.8952 198.248 46.8952 198.768C46.8952 199.288 46.9992 199.748 47.2072 200.148C47.4152 200.54 47.7032 200.844 48.0712 201.06C48.4472 201.276 48.8672 201.384 49.3312 201.384C50.0752 201.384 50.6672 201.152 51.1072 200.688C51.5472 200.216 51.7672 199.576 51.7672 198.768C51.7672 197.96 51.5472 197.324 51.1072 196.86C50.6672 196.388 50.0752 196.152 49.3312 196.152ZM54.3094 195.492L56.5894 200.952L58.6894 195.492H59.6254L55.7734 205.14H54.8134L56.1334 201.972L53.3734 195.492H54.3094ZM66.5691 195.408C67.2331 195.408 67.7971 195.58 68.2611 195.924C68.7331 196.268 69.0571 196.724 69.2331 197.292V195.492H70.0611V202.044H69.2331V200.244C69.0571 200.812 68.7331 201.268 68.2611 201.612C67.7971 201.956 67.2331 202.128 66.5691 202.128C65.9771 202.128 65.4451 201.992 64.9731 201.72C64.5091 201.448 64.1451 201.06 63.8811 200.556C63.6251 200.044 63.4971 199.448 63.4971 198.768C63.4971 198.08 63.6251 197.484 63.8811 196.98C64.1451 196.468 64.5091 196.08 64.9731 195.816C65.4371 195.544 65.9691 195.408 66.5691 195.408ZM66.7851 196.152C66.0491 196.152 65.4571 196.388 65.0091 196.86C64.5691 197.324 64.3491 197.96 64.3491 198.768C64.3491 199.576 64.5691 200.216 65.0091 200.688C65.4571 201.152 66.0491 201.384 66.7851 201.384C67.2491 201.384 67.6651 201.276 68.0331 201.06C68.4091 200.844 68.7011 200.54 68.9091 200.148C69.1251 199.748 69.2331 199.288 69.2331 198.768C69.2331 198.248 69.1251 197.792 68.9091 197.4C68.7011 197 68.4091 196.692 68.0331 196.476C67.6651 196.26 67.2491 196.152 66.7851 196.152ZM75.1593 195.372C75.9193 195.372 76.5353 195.616 77.0073 196.104C77.4873 196.584 77.7273 197.292 77.7273 198.228V202.044H76.8993V198.288C76.8993 197.576 76.7193 197.032 76.3593 196.656C75.9993 196.272 75.5073 196.08 74.8833 196.08C74.2273 196.08 73.7033 196.292 73.3113 196.716C72.9273 197.132 72.7353 197.748 72.7353 198.564V202.044H71.8833V195.492H72.7353V197.1C72.9033 196.54 73.2073 196.112 73.6473 195.816C74.0873 195.52 74.5913 195.372 75.1593 195.372ZM82.2605 195.408C82.9245 195.408 83.4885 195.58 83.9525 195.924C84.4245 196.268 84.7445 196.724 84.9125 197.292V193.164H85.7525V202.044H84.9125V200.244C84.7445 200.812 84.4245 201.268 83.9525 201.612C83.4885 201.956 82.9245 202.128 82.2605 202.128C81.6685 202.128 81.1365 201.992 80.6645 201.72C80.2005 201.448 79.8365 201.06 79.5725 200.556C79.3165 200.044 79.1885 199.448 79.1885 198.768C79.1885 198.08 79.3165 197.484 79.5725 196.98C79.8365 196.468 80.2005 196.08 80.6645 195.816C81.1285 195.544 81.6605 195.408 82.2605 195.408ZM82.4765 196.152C81.7405 196.152 81.1485 196.388 80.7005 196.86C80.2605 197.324 80.0405 197.96 80.0405 198.768C80.0405 199.576 80.2605 200.216 80.7005 200.688C81.1485 201.152 81.7405 201.384 82.4765 201.384C82.9405 201.384 83.3565 201.276 83.7245 201.06C84.1005 200.844 84.3925 200.54 84.6005 200.148C84.8165 199.748 84.9245 199.288 84.9245 198.768C84.9245 198.248 84.8165 197.792 84.6005 197.4C84.3925 197 84.1005 196.692 83.7245 196.476C83.3565 196.26 82.9405 196.152 82.4765 196.152ZM93.4519 193.752C92.8439 193.744 92.4159 193.856 92.1679 194.088C91.9279 194.312 91.8079 194.692 91.8079 195.228V195.492H93.4519V196.236H91.8079V202.044H90.9679V196.236H89.9959V195.492H90.9679V195.168C90.9679 194.432 91.1679 193.88 91.5679 193.512C91.9679 193.144 92.5959 192.976 93.4519 193.008V193.752ZM97.6755 195.408C98.2995 195.408 98.8555 195.544 99.3435 195.816C99.8395 196.08 100.227 196.468 100.507 196.98C100.787 197.484 100.927 198.08 100.927 198.768C100.927 199.456 100.787 200.052 100.507 200.556C100.227 201.06 99.8395 201.448 99.3435 201.72C98.8555 201.992 98.2995 202.128 97.6755 202.128C97.0515 202.128 96.4915 201.992 95.9955 201.72C95.4995 201.448 95.1075 201.06 94.8195 200.556C94.5395 200.044 94.3995 199.448 94.3995 198.768C94.3995 198.08 94.5395 197.484 94.8195 196.98C95.1075 196.468 95.4995 196.08 95.9955 195.816C96.4915 195.544 97.0515 195.408 97.6755 195.408ZM97.6755 196.14C97.2435 196.14 96.8435 196.236 96.4755 196.428C96.1075 196.62 95.8115 196.916 95.5875 197.316C95.3635 197.708 95.2515 198.192 95.2515 198.768C95.2515 199.344 95.3635 199.828 95.5875 200.22C95.8115 200.612 96.1075 200.904 96.4755 201.096C96.8435 201.288 97.2435 201.384 97.6755 201.384C98.0995 201.384 98.4915 201.288 98.8515 201.096C99.2195 200.904 99.5155 200.612 99.7395 200.22C99.9635 199.828 100.075 199.344 100.075 198.768C100.075 198.192 99.9635 197.708 99.7395 197.316C99.5155 196.916 99.2195 196.62 98.8515 196.428C98.4915 196.236 98.0995 196.14 97.6755 196.14ZM103.286 196.848C103.478 196.376 103.786 196.012 104.21 195.756C104.634 195.5 105.15 195.372 105.758 195.372V196.284H105.482C104.85 196.284 104.326 196.456 103.91 196.8C103.494 197.136 103.286 197.688 103.286 198.456V202.044H102.434V195.492H103.286V196.848ZM112.957 195.408C113.581 195.408 114.137 195.544 114.625 195.816C115.121 196.08 115.509 196.468 115.789 196.98C116.069 197.484 116.209 198.08 116.209 198.768C116.209 199.456 116.069 200.052 115.789 200.556C115.509 201.06 115.121 201.448 114.625 201.72C114.137 201.992 113.581 202.128 112.957 202.128C112.333 202.128 111.773 201.992 111.277 201.72C110.781 201.448 110.389 201.06 110.101 200.556C109.821 200.044 109.681 199.448 109.681 198.768C109.681 198.08 109.821 197.484 110.101 196.98C110.389 196.468 110.781 196.08 111.277 195.816C111.773 195.544 112.333 195.408 112.957 195.408ZM112.957 196.14C112.525 196.14 112.125 196.236 111.757 196.428C111.389 196.62 111.093 196.916 110.869 197.316C110.645 197.708 110.533 198.192 110.533 198.768C110.533 199.344 110.645 199.828 110.869 200.22C111.093 200.612 111.389 200.904 111.757 201.096C112.125 201.288 112.525 201.384 112.957 201.384C113.381 201.384 113.773 201.288 114.133 201.096C114.501 200.904 114.797 200.612 115.021 200.22C115.245 199.828 115.357 199.344 115.357 198.768C115.357 198.192 115.245 197.708 115.021 197.316C114.797 196.916 114.501 196.62 114.133 196.428C113.773 196.236 113.381 196.14 112.957 196.14ZM123.367 195.492V202.044H122.527V200.424C122.359 200.992 122.055 201.424 121.615 201.72C121.175 202.016 120.671 202.164 120.103 202.164C119.335 202.164 118.711 201.924 118.231 201.444C117.759 200.956 117.523 200.244 117.523 199.308V195.492H118.363V199.236C118.363 199.956 118.543 200.508 118.903 200.892C119.263 201.268 119.755 201.456 120.379 201.456C121.035 201.456 121.555 201.248 121.939 200.832C122.331 200.408 122.527 199.788 122.527 198.972V195.492H123.367ZM126.056 196.848C126.248 196.376 126.556 196.012 126.98 195.756C127.404 195.5 127.92 195.372 128.528 195.372V196.284H128.252C127.62 196.284 127.096 196.456 126.68 196.8C126.264 197.136 126.056 197.688 126.056 198.456V202.044H125.204V195.492H126.056V196.848ZM135.654 195.408C136.486 195.408 137.174 195.628 137.718 196.068C138.27 196.508 138.606 197.092 138.726 197.82H137.85C137.762 197.3 137.518 196.892 137.118 196.596C136.718 196.292 136.226 196.14 135.642 196.14C135.218 196.14 134.826 196.236 134.466 196.428C134.114 196.62 133.83 196.916 133.614 197.316C133.406 197.708 133.302 198.192 133.302 198.768C133.302 199.344 133.406 199.832 133.614 200.232C133.83 200.624 134.114 200.916 134.466 201.108C134.826 201.3 135.218 201.396 135.642 201.396C136.226 201.396 136.718 201.248 137.118 200.952C137.518 200.648 137.762 200.236 137.85 199.716H138.726C138.606 200.444 138.27 201.028 137.718 201.468C137.174 201.908 136.486 202.128 135.654 202.128C135.03 202.128 134.474 201.996 133.986 201.732C133.506 201.46 133.13 201.072 132.858 200.568C132.586 200.056 132.45 199.456 132.45 198.768C132.45 198.08 132.586 197.484 132.858 196.98C133.13 196.468 133.506 196.08 133.986 195.816C134.474 195.544 135.03 195.408 135.654 195.408ZM143.203 195.408C143.827 195.408 144.383 195.544 144.871 195.816C145.367 196.08 145.755 196.468 146.035 196.98C146.315 197.484 146.455 198.08 146.455 198.768C146.455 199.456 146.315 200.052 146.035 200.556C145.755 201.06 145.367 201.448 144.871 201.72C144.383 201.992 143.827 202.128 143.203 202.128C142.579 202.128 142.019 201.992 141.523 201.72C141.027 201.448 140.635 201.06 140.347 200.556C140.067 200.044 139.927 199.448 139.927 198.768C139.927 198.08 140.067 197.484 140.347 196.98C140.635 196.468 141.027 196.08 141.523 195.816C142.019 195.544 142.579 195.408 143.203 195.408ZM143.203 196.14C142.771 196.14 142.371 196.236 142.003 196.428C141.635 196.62 141.339 196.916 141.115 197.316C140.891 197.708 140.779 198.192 140.779 198.768C140.779 199.344 140.891 199.828 141.115 200.22C141.339 200.612 141.635 200.904 142.003 201.096C142.371 201.288 142.771 201.384 143.203 201.384C143.627 201.384 144.019 201.288 144.379 201.096C144.747 200.904 145.043 200.612 145.267 200.22C145.491 199.828 145.603 199.344 145.603 198.768C145.603 198.192 145.491 197.708 145.267 197.316C145.043 196.916 144.747 196.62 144.379 196.428C144.019 196.236 143.627 196.14 143.203 196.14ZM155.917 195.372C156.669 195.372 157.277 195.616 157.741 196.104C158.213 196.584 158.449 197.292 158.449 198.228V202.044H157.609V198.288C157.609 197.584 157.437 197.044 157.093 196.668C156.757 196.292 156.293 196.104 155.701 196.104C155.069 196.104 154.565 196.312 154.189 196.728C153.813 197.144 153.625 197.756 153.625 198.564V202.044H152.797V198.288C152.797 197.584 152.625 197.044 152.281 196.668C151.945 196.292 151.481 196.104 150.889 196.104C150.257 196.104 149.753 196.312 149.377 196.728C149.001 197.144 148.813 197.756 148.813 198.564V202.044H147.961V195.492H148.813V197.052C148.973 196.5 149.261 196.084 149.677 195.804C150.101 195.516 150.589 195.372 151.141 195.372C151.717 195.372 152.213 195.524 152.629 195.828C153.045 196.132 153.333 196.58 153.493 197.172C153.669 196.588 153.977 196.144 154.417 195.84C154.857 195.528 155.357 195.372 155.917 195.372ZM168.175 195.372C168.927 195.372 169.535 195.616 169.999 196.104C170.471 196.584 170.707 197.292 170.707 198.228V202.044H169.867V198.288C169.867 197.584 169.695 197.044 169.351 196.668C169.015 196.292 168.551 196.104 167.959 196.104C167.327 196.104 166.823 196.312 166.447 196.728C166.071 197.144 165.883 197.756 165.883 198.564V202.044H165.055V198.288C165.055 197.584 164.883 197.044 164.539 196.668C164.203 196.292 163.739 196.104 163.147 196.104C162.515 196.104 162.011 196.312 161.635 196.728C161.259 197.144 161.071 197.756 161.071 198.564V202.044H160.219V195.492H161.071V197.052C161.231 196.5 161.519 196.084 161.935 195.804C162.359 195.516 162.847 195.372 163.399 195.372C163.975 195.372 164.471 195.524 164.887 195.828C165.303 196.132 165.591 196.58 165.751 197.172C165.927 196.588 166.235 196.144 166.675 195.84C167.115 195.528 167.615 195.372 168.175 195.372ZM178.129 195.492V202.044H177.289V200.424C177.121 200.992 176.817 201.424 176.377 201.72C175.937 202.016 175.433 202.164 174.865 202.164C174.097 202.164 173.473 201.924 172.993 201.444C172.521 200.956 172.285 200.244 172.285 199.308V195.492H173.125V199.236C173.125 199.956 173.305 200.508 173.665 200.892C174.025 201.268 174.517 201.456 175.141 201.456C175.797 201.456 176.317 201.248 176.701 200.832C177.093 200.408 177.289 199.788 177.289 198.972V195.492H178.129ZM183.241 195.372C184.001 195.372 184.617 195.616 185.089 196.104C185.569 196.584 185.809 197.292 185.809 198.228V202.044H184.981V198.288C184.981 197.576 184.801 197.032 184.441 196.656C184.081 196.272 183.589 196.08 182.965 196.08C182.309 196.08 181.785 196.292 181.393 196.716C181.009 197.132 180.817 197.748 180.817 198.564V202.044H179.965V195.492H180.817V197.1C180.985 196.54 181.289 196.112 181.729 195.816C182.169 195.52 182.673 195.372 183.241 195.372ZM187.391 193.548C187.391 193.372 187.447 193.232 187.559 193.128C187.679 193.024 187.831 192.972 188.015 192.972C188.199 192.972 188.347 193.024 188.459 193.128C188.571 193.232 188.627 193.372 188.627 193.548C188.627 193.716 188.571 193.852 188.459 193.956C188.347 194.06 188.199 194.112 188.015 194.112C187.831 194.112 187.679 194.06 187.559 193.956C187.447 193.852 187.391 193.716 187.391 193.548ZM188.435 195.492V202.044H187.583V195.492H188.435ZM193.23 201.3V202.044H192.45C191.818 202.044 191.346 201.896 191.034 201.6C190.722 201.296 190.566 200.788 190.566 200.076V196.224H189.57V195.492H190.566V193.836H191.418V195.492H193.218V196.224H191.418V200.088C191.418 200.552 191.502 200.872 191.67 201.048C191.838 201.216 192.134 201.3 192.558 201.3H193.23ZM194.794 195.492L197.074 200.952L199.174 195.492H200.11L196.258 205.14H195.298L196.618 201.972L193.858 195.492H194.794Z" fill="white"/>
<defs>
<linearGradient id="paint0_linear" x1="214.713" y1="158.807" x2="25.6133" y2="158.995" gradientUnits="userSpaceOnUse">
<stop stop-color="#FF168A"/>
<stop offset="0.315399" stop-color="#FABA33"/>
<stop offset="0.573227" stop-color="#E9E031"/>
<stop offset="0.826995" stop-color="#45F273"/>
<stop offset="1" stop-color="#30FFE9"/>
</linearGradient>
</defs>
</svg>
