<svg width="344" height="349" viewBox="0 0 344 349" fill="none" xmlns="http://www.w3.org/2000/svg">
<g filter="url(#filter0_f)">
<path d="M52.0802 87.4791L52.0802 94.9791L52.0802 87.4791ZM314.58 117.479V296.872H329.58V117.479H314.58ZM292.08 319.372H52.0802V334.372H292.08V319.372ZM29.5802 296.872V117.479H14.5802V296.872H29.5802ZM52.0802 94.9791L94.4913 94.9791V79.9791L52.0802 79.9791L52.0802 94.9791ZM249.79 94.9792H292.08V79.9792H249.79V94.9792ZM52.0802 319.372C39.6538 319.372 29.5802 309.299 29.5802 296.872H14.5802C14.5802 317.583 31.3695 334.372 52.0802 334.372V319.372ZM314.58 296.872C314.58 309.299 304.507 319.372 292.08 319.372V334.372C312.791 334.372 329.58 317.583 329.58 296.872H314.58ZM329.58 117.479C329.58 96.7685 312.791 79.9792 292.08 79.9792V94.9792C304.507 94.9792 314.58 105.053 314.58 117.479H329.58ZM29.5802 117.479C29.5802 105.053 39.6538 94.9791 52.0802 94.9791L52.0802 79.9791C31.3695 79.9791 14.5802 96.7685 14.5802 117.479H29.5802Z" fill="url(#paint0_linear)"/>
</g>
<g filter="url(#filter1_f)">
<ellipse cx="94.4453" cy="87.4791" rx="3.125" ry="3.08358" fill="#48F272"/>
</g>
<g filter="url(#filter2_f)">
<ellipse cx="249.908" cy="87.4791" rx="3.125" ry="3.08358" fill="#FD6461"/>
</g>
<g filter="url(#filter3_f)">
<path d="M52.0802 86.2456L52.0802 83.2456L52.0802 86.2456ZM319.08 116.246V295.639H325.08V116.246H319.08ZM292.08 322.639H52.0802V328.639H292.08V322.639ZM25.0802 295.639V116.246H19.0802V295.639H25.0802ZM52.0802 89.2456L94.4913 89.2456V83.2456L52.0802 83.2456L52.0802 89.2456ZM249.79 89.2456H292.08V83.2456H249.79V89.2456ZM52.0802 322.639C37.1685 322.639 25.0802 310.551 25.0802 295.639H19.0802C19.0802 313.864 33.8548 328.639 52.0802 328.639V322.639ZM319.08 295.639C319.08 310.551 306.992 322.639 292.08 322.639V328.639C310.306 328.639 325.08 313.864 325.08 295.639H319.08ZM325.08 116.246C325.08 98.0202 310.306 83.2456 292.08 83.2456V89.2456C306.992 89.2456 319.08 101.334 319.08 116.246H325.08ZM25.0802 116.246C25.0802 101.334 37.1685 89.2456 52.0802 89.2456L52.0802 83.2456C33.8548 83.2456 19.0802 98.0202 19.0802 116.246H25.0802Z" fill="url(#paint1_linear)"/>
</g>
<g filter="url(#filter4_f)">
<ellipse cx="94.5061" cy="86.2457" rx="1.875" ry="1.85015" fill="#48F272"/>
</g>
<g filter="url(#filter5_f)">
<ellipse cx="249.78" cy="86.2457" rx="1.875" ry="1.85015" fill="#FD6461"/>
</g>
<path d="M52.0802 86.2456V85.2456V86.2456ZM321.08 116.246V295.639H323.08V116.246H321.08ZM292.08 324.639H52.0802V326.639H292.08V324.639ZM23.0802 295.639V116.246H21.0802V295.639H23.0802ZM52.0802 87.2456L94.4913 87.2456V85.2456L52.0802 85.2456V87.2456ZM249.79 87.2456H292.08V85.2456H249.79V87.2456ZM52.0802 324.639C36.0639 324.639 23.0802 311.655 23.0802 295.639H21.0802C21.0802 312.76 34.9594 326.639 52.0802 326.639V324.639ZM321.08 295.639C321.08 311.655 308.096 324.639 292.08 324.639V326.639C309.201 326.639 323.08 312.76 323.08 295.639H321.08ZM323.08 116.246C323.08 99.1248 309.201 85.2456 292.08 85.2456V87.2456C308.096 87.2456 321.08 100.229 321.08 116.246H323.08ZM23.0802 116.246C23.0802 100.229 36.0639 87.2456 52.0802 87.2456V85.2456C34.9594 85.2456 21.0802 99.1248 21.0802 116.246H23.0802Z" fill="white"/>
<circle cx="94.4453" cy="86.2456" r="1" fill="white"/>
<ellipse cx="249.908" cy="86.2456" rx="1.01343" ry="1" fill="white"/>
<path fill-rule="evenodd" clip-rule="evenodd" d="M186.978 91.6992C186.978 101.022 180.069 108.286 171.892 108.286C163.715 108.286 156.806 101.022 156.806 91.6992C156.806 82.3767 163.715 75.1125 171.892 75.1125C180.069 75.1125 186.978 82.3767 186.978 91.6992ZM172.917 110.253C175.179 110.107 177.322 109.483 179.263 108.472V113.153C179.263 113.705 179.711 114.153 180.263 114.153C180.815 114.153 181.263 113.705 181.263 113.153V107.724C181.263 107.575 181.231 107.434 181.173 107.308C185.87 103.996 188.978 98.2422 188.978 91.6992C188.978 85.2198 185.93 79.5148 181.309 76.1881C181.328 76.1118 181.338 76.032 181.338 75.9499V70.5207C181.338 69.9684 180.89 69.5207 180.338 69.5207C179.786 69.5207 179.338 69.9684 179.338 70.5207V74.9655C177.37 73.9276 175.192 73.2882 172.892 73.1438V70.3979C172.892 69.8456 172.444 69.3979 171.892 69.3979C171.34 69.3979 170.892 69.8456 170.892 70.3979V73.1438C168.637 73.2853 166.5 73.9025 164.563 74.9043V70.5207C164.563 69.9684 164.116 69.5207 163.563 69.5207C163.011 69.5207 162.563 69.9684 162.563 70.5207V75.9499C162.563 76.0062 162.568 76.0614 162.577 76.1152C157.899 79.4311 154.806 85.1722 154.806 91.6992C154.806 98.2309 157.903 103.976 162.587 107.29C162.524 107.422 162.489 107.569 162.489 107.724V113.153C162.489 113.705 162.936 114.153 163.489 114.153C164.041 114.153 164.489 113.705 164.489 113.153V108.455C166.462 109.489 168.645 110.122 170.951 110.258C170.94 110.317 170.934 110.377 170.934 110.439V113.276C170.934 113.828 171.382 114.276 171.934 114.276C172.487 114.276 172.934 113.828 172.934 113.276V110.439C172.934 110.375 172.928 110.313 172.917 110.253ZM210.32 97.5173C213.534 97.5173 216.138 94.9124 216.138 91.6992C216.138 88.4859 213.534 85.8811 210.32 85.8811C207.107 85.8811 204.502 88.4859 204.502 91.6992C204.502 94.9124 207.107 97.5173 210.32 97.5173ZM210.32 99.5173C214.638 99.5173 218.138 96.017 218.138 91.6992C218.138 87.3813 214.638 83.8811 210.32 83.8811C206.002 83.8811 202.502 87.3813 202.502 91.6992C202.502 96.017 206.002 99.5173 210.32 99.5173ZM139.282 91.6992C139.282 94.9124 136.677 97.5173 133.463 97.5173C130.25 97.5173 127.645 94.9124 127.645 91.6992C127.645 88.4859 130.25 85.8811 133.463 85.8811C136.677 85.8811 139.282 88.4859 139.282 91.6992ZM141.282 91.6992C141.282 96.017 137.781 99.5173 133.463 99.5173C129.146 99.5173 125.645 96.017 125.645 91.6992C125.645 87.3813 129.146 83.8811 133.463 83.8811C137.781 83.8811 141.282 87.3813 141.282 91.6992ZM146.679 69.5207C147.231 69.5207 147.679 69.9684 147.679 70.5207V76.378C147.679 76.9303 147.231 77.378 146.679 77.378C146.126 77.378 145.679 76.9303 145.679 76.378V70.5207C145.679 69.9684 146.126 69.5207 146.679 69.5207ZM196.148 113.153C196.148 113.705 196.596 114.153 197.148 114.153C197.7 114.153 198.148 113.705 198.148 113.153V107.296C198.148 106.744 197.7 106.296 197.148 106.296C196.596 106.296 196.148 106.744 196.148 107.296V113.153ZM155.04 69.5207C155.592 69.5207 156.04 69.9684 156.04 70.5207V76.378C156.04 76.9303 155.592 77.378 155.04 77.378C154.487 77.378 154.04 76.9303 154.04 76.378V70.5207C154.04 69.9684 154.487 69.5207 155.04 69.5207ZM187.787 113.153C187.787 113.705 188.234 114.153 188.787 114.153C189.339 114.153 189.787 113.705 189.787 113.153V107.296C189.787 106.744 189.339 106.296 188.787 106.296C188.234 106.296 187.787 106.744 187.787 107.296V113.153ZM188.978 69.5207C189.53 69.5207 189.978 69.9684 189.978 70.5207V76.3781C189.978 76.9304 189.53 77.3781 188.978 77.3781C188.426 77.3781 187.978 76.9304 187.978 76.3781V70.5207C187.978 69.9684 188.426 69.5207 188.978 69.5207ZM153.848 113.153C153.848 113.705 154.296 114.153 154.848 114.153C155.401 114.153 155.848 113.705 155.848 113.153V107.296C155.848 106.743 155.401 106.296 154.848 106.296C154.296 106.296 153.848 106.743 153.848 107.296V113.153ZM197.19 69.5207C197.742 69.5207 198.19 69.9684 198.19 70.5207V76.3781C198.19 76.9304 197.742 77.3781 197.19 77.3781C196.638 77.3781 196.19 76.9304 196.19 76.3781V70.5207C196.19 69.9684 196.638 69.5207 197.19 69.5207ZM145.636 113.153C145.636 113.705 146.084 114.153 146.636 114.153C147.189 114.153 147.636 113.705 147.636 113.153V107.296C147.636 106.743 147.189 106.296 146.636 106.296C146.084 106.296 145.636 106.743 145.636 107.296V113.153ZM127.288 110.653C127.288 110.101 127.736 109.653 128.288 109.653H139.801C140.353 109.653 140.801 110.101 140.801 110.653C140.801 111.205 140.353 111.653 139.801 111.653H128.288C127.736 111.653 127.288 111.205 127.288 110.653ZM128.288 72.4494C127.736 72.4494 127.288 72.8971 127.288 73.4494C127.288 74.0016 127.736 74.4494 128.288 74.4494H139.801C140.353 74.4494 140.801 74.0016 140.801 73.4494C140.801 72.8971 140.353 72.4494 139.801 72.4494H128.288ZM202.965 73.4494C202.965 72.8971 203.413 72.4494 203.965 72.4494H215.478C216.03 72.4494 216.478 72.8971 216.478 73.4494C216.478 74.0016 216.03 74.4494 215.478 74.4494H203.965C203.413 74.4494 202.965 74.0016 202.965 73.4494ZM203.965 109.653C203.413 109.653 202.965 110.101 202.965 110.653C202.965 111.205 203.413 111.653 203.965 111.653H215.478C216.03 111.653 216.478 111.205 216.478 110.653C216.478 110.101 216.03 109.653 215.478 109.653H203.965ZM146.636 43.2952C150.27 43.2952 153.216 40.3492 153.216 36.7151C153.216 33.0811 150.27 30.1351 146.636 30.1351C143.002 30.1351 140.056 33.0811 140.056 36.7151C140.056 40.3492 143.002 43.2952 146.636 43.2952ZM146.636 45.2952C151.375 45.2952 155.216 41.4538 155.216 36.7151C155.216 31.9765 151.375 28.1351 146.636 28.1351C141.898 28.1351 138.056 31.9765 138.056 36.7151C138.056 41.4538 141.898 45.2952 146.636 45.2952ZM203.77 36.7151C203.77 40.3492 200.824 43.2952 197.19 43.2952C193.556 43.2952 190.61 40.3492 190.61 36.7151C190.61 33.0811 193.556 30.1351 197.19 30.1351C200.824 30.1351 203.77 33.0811 203.77 36.7151ZM205.77 36.7151C205.77 41.4538 201.929 45.2952 197.19 45.2952C192.452 45.2952 188.61 41.4538 188.61 36.7151C188.61 31.9765 192.452 28.1351 197.19 28.1351C201.929 28.1351 205.77 31.9765 205.77 36.7151ZM171.683 39.7016C176.229 39.7016 179.914 36.0166 179.914 31.4709C179.914 26.9252 176.229 23.2402 171.683 23.2402C167.137 23.2402 163.452 26.9252 163.452 31.4709C163.452 36.0166 167.137 39.7016 171.683 39.7016ZM171.683 41.7016C177.333 41.7016 181.914 37.1212 181.914 31.4709C181.914 25.8207 177.333 21.2402 171.683 21.2402C166.033 21.2402 161.452 25.8207 161.452 31.4709C161.452 37.1212 166.033 41.7016 171.683 41.7016ZM188.824 63.4379V63.867H154.505V63.4379C154.505 53.9612 162.188 46.2788 171.664 46.2788C181.141 46.2788 188.824 53.9612 188.824 63.4379ZM152.505 63.4379C152.505 52.8566 161.083 44.2788 171.664 44.2788C177.807 44.2788 183.274 47.1695 186.781 51.6648C189.484 49.4683 192.932 48.1519 196.687 48.1519C205.367 48.1519 212.405 55.1872 212.408 63.867V63.8737V64.0656H218.735C221.497 64.0656 223.735 66.3042 223.735 69.0656V115C223.735 117.762 221.497 120 218.735 120H125.425C122.664 120 120.425 117.762 120.425 115V69.0656C120.425 66.3042 122.664 64.0656 125.425 64.0656H130.891V63.8737V63.867C130.894 55.1872 137.932 48.1519 146.612 48.1519C150.182 48.1519 153.474 49.3417 156.113 51.3463C155.723 51.8881 155.36 52.4512 155.026 53.0334C152.703 51.2274 149.783 50.1519 146.612 50.1519C139.036 50.1519 132.894 56.2918 132.891 63.867H152.505L152.505 63.4379ZM190.824 63.867V63.4379C190.824 59.7189 189.764 56.2474 187.93 53.3088C190.306 51.3372 193.358 50.1519 196.687 50.1519C204.263 50.1519 210.405 56.2918 210.408 63.867L190.824 63.867ZM218.735 66.0656H125.425C123.768 66.0656 122.425 67.4088 122.425 69.0656V115C122.425 116.657 123.768 118 125.425 118H218.735C220.392 118 221.735 116.657 221.735 115V69.0656C221.735 67.4088 220.392 66.0656 218.735 66.0656Z" fill="white"/>
<path d="M86.7962 159.813C88.8762 159.813 90.6042 160.341 91.9802 161.397C93.3562 162.453 94.2842 163.885 94.7642 165.693H91.8602C91.4602 164.669 90.8202 163.861 89.9402 163.269C89.0762 162.661 88.0122 162.357 86.7482 162.357C85.7402 162.357 84.8362 162.605 84.0362 163.101C83.2522 163.597 82.6282 164.309 82.1642 165.237C81.7162 166.149 81.4922 167.221 81.4922 168.453C81.4922 169.669 81.7162 170.741 82.1642 171.669C82.6282 172.581 83.2522 173.285 84.0362 173.781C84.8362 174.277 85.7402 174.525 86.7482 174.525C88.0122 174.525 89.0762 174.229 89.9402 173.637C90.8202 173.029 91.4602 172.221 91.8602 171.213H94.7642C94.2842 173.021 93.3562 174.453 91.9802 175.509C90.6042 176.549 88.8762 177.069 86.7962 177.069C85.1962 177.069 83.7802 176.709 82.5482 175.989C81.3162 175.253 80.3642 174.237 79.6922 172.941C79.0202 171.629 78.6842 170.133 78.6842 168.453C78.6842 166.773 79.0202 165.285 79.6922 163.989C80.3642 162.677 81.3162 161.653 82.5482 160.917C83.7802 160.181 85.1962 159.813 86.7962 159.813ZM100.23 166.293C100.678 165.429 101.318 164.749 102.15 164.253C102.982 163.741 103.942 163.485 105.03 163.485V166.461H104.214C103.014 166.461 102.046 166.757 101.31 167.349C100.59 167.925 100.23 168.885 100.23 170.229V176.925H97.494V163.701H100.23V166.293ZM113.128 163.533C114.408 163.533 115.56 163.805 116.584 164.349C117.608 164.893 118.408 165.677 118.984 166.701C119.56 167.725 119.848 168.925 119.848 170.301C119.848 171.693 119.56 172.901 118.984 173.925C118.408 174.949 117.608 175.733 116.584 176.277C115.56 176.821 114.408 177.093 113.128 177.093C111.848 177.093 110.696 176.821 109.672 176.277C108.664 175.733 107.864 174.949 107.272 173.925C106.696 172.885 106.408 171.677 106.408 170.301C106.408 168.925 106.696 167.725 107.272 166.701C107.864 165.677 108.664 164.893 109.672 164.349C110.696 163.805 111.848 163.533 113.128 163.533ZM113.128 165.909C112.424 165.909 111.776 166.069 111.184 166.389C110.592 166.709 110.112 167.205 109.744 167.877C109.392 168.533 109.216 169.341 109.216 170.301C109.216 171.277 109.392 172.093 109.744 172.749C110.112 173.405 110.592 173.893 111.184 174.213C111.776 174.533 112.424 174.693 113.128 174.693C113.832 174.693 114.48 174.533 115.072 174.213C115.664 173.893 116.136 173.405 116.488 172.749C116.856 172.093 117.04 171.277 117.04 170.301C117.04 169.341 116.856 168.533 116.488 167.877C116.136 167.205 115.664 166.709 115.072 166.389C114.48 166.069 113.832 165.909 113.128 165.909ZM141.006 163.701L137.334 176.925H134.31L131.046 166.701L127.734 176.925H124.734L121.062 163.701H123.822L126.342 174.405L129.654 163.701H132.534L135.894 174.405L138.414 163.701H141.006ZM148.173 163.533C149.373 163.533 150.397 163.829 151.245 164.421C152.093 165.013 152.685 165.797 153.021 166.773V159.165H155.781V176.925H153.021V173.853C152.685 174.829 152.093 175.613 151.245 176.205C150.397 176.797 149.373 177.093 148.173 177.093C147.021 177.093 145.989 176.821 145.077 176.277C144.181 175.733 143.477 174.949 142.965 173.925C142.453 172.901 142.197 171.693 142.197 170.301C142.197 168.925 142.453 167.725 142.965 166.701C143.477 165.677 144.181 164.893 145.077 164.349C145.989 163.805 147.021 163.533 148.173 163.533ZM149.013 165.933C147.797 165.933 146.821 166.325 146.085 167.109C145.365 167.877 145.005 168.941 145.005 170.301C145.005 171.661 145.365 172.733 146.085 173.517C146.821 174.285 147.797 174.669 149.013 174.669C149.781 174.669 150.469 174.493 151.077 174.141C151.685 173.773 152.165 173.261 152.517 172.605C152.869 171.949 153.045 171.181 153.045 170.301C153.045 169.437 152.869 168.677 152.517 168.021C152.165 167.349 151.685 166.837 151.077 166.485C150.469 166.117 149.781 165.933 149.013 165.933ZM186.145 159.981L181.921 176.925H178.561L174.985 163.821L171.409 176.925H168.049L163.825 159.981H166.825L169.753 173.757L173.473 159.981H176.497L180.217 173.757L183.145 159.981H186.145ZM188.212 159.861C188.212 159.397 188.372 159.013 188.692 158.709C189.012 158.405 189.436 158.253 189.964 158.253C190.492 158.253 190.916 158.405 191.236 158.709C191.572 159.013 191.74 159.397 191.74 159.861C191.74 160.325 191.572 160.701 191.236 160.989C190.916 161.277 190.492 161.421 189.964 161.421C189.436 161.421 189.012 161.277 188.692 160.989C188.372 160.701 188.212 160.325 188.212 159.861ZM191.332 163.701V176.925H188.596V163.701H191.332ZM198.986 163.533C200.538 163.533 201.778 163.933 202.706 164.733C203.65 165.517 204.226 166.573 204.434 167.901H201.842C201.73 167.181 201.418 166.605 200.906 166.173C200.41 165.725 199.746 165.501 198.914 165.501C198.226 165.501 197.69 165.669 197.306 166.005C196.938 166.325 196.754 166.765 196.754 167.325C196.754 167.741 196.89 168.077 197.162 168.333C197.434 168.589 197.77 168.789 198.17 168.933C198.586 169.077 199.17 169.237 199.922 169.413C200.914 169.637 201.714 169.869 202.322 170.109C202.946 170.349 203.474 170.733 203.906 171.261C204.354 171.773 204.578 172.477 204.578 173.373C204.578 174.477 204.154 175.373 203.306 176.061C202.474 176.749 201.346 177.093 199.922 177.093C198.274 177.093 196.938 176.709 195.914 175.941C194.906 175.173 194.298 174.101 194.09 172.725H196.754C196.834 173.445 197.154 174.029 197.714 174.477C198.274 174.925 199.01 175.149 199.922 175.149C200.578 175.149 201.09 174.981 201.458 174.645C201.842 174.293 202.034 173.853 202.034 173.325C202.034 172.861 201.89 172.493 201.602 172.221C201.314 171.949 200.954 171.741 200.522 171.597C200.09 171.437 199.498 171.277 198.746 171.117C197.786 170.893 197.002 170.669 196.394 170.445C195.802 170.221 195.29 169.861 194.858 169.365C194.442 168.853 194.234 168.165 194.234 167.301C194.234 166.181 194.65 165.277 195.482 164.589C196.33 163.885 197.498 163.533 198.986 163.533ZM212.626 163.533C213.826 163.533 214.85 163.829 215.698 164.421C216.546 165.013 217.138 165.797 217.474 166.773V159.165H220.234V176.925H217.474V173.853C217.138 174.829 216.546 175.613 215.698 176.205C214.85 176.797 213.826 177.093 212.626 177.093C211.474 177.093 210.442 176.821 209.53 176.277C208.634 175.733 207.93 174.949 207.418 173.925C206.906 172.901 206.65 171.693 206.65 170.301C206.65 168.925 206.906 167.725 207.418 166.701C207.93 165.677 208.634 164.893 209.53 164.349C210.442 163.805 211.474 163.533 212.626 163.533ZM213.466 165.933C212.25 165.933 211.274 166.325 210.538 167.109C209.818 167.877 209.458 168.941 209.458 170.301C209.458 171.661 209.818 172.733 210.538 173.517C211.274 174.285 212.25 174.669 213.466 174.669C214.234 174.669 214.922 174.493 215.53 174.141C216.138 173.773 216.618 173.261 216.97 172.605C217.322 171.949 217.498 171.181 217.498 170.301C217.498 169.437 217.322 168.677 216.97 168.021C216.618 167.349 216.138 166.837 215.53 166.485C214.922 166.117 214.234 165.933 213.466 165.933ZM229.565 163.533C230.845 163.533 231.997 163.805 233.021 164.349C234.045 164.893 234.845 165.677 235.421 166.701C235.997 167.725 236.285 168.925 236.285 170.301C236.285 171.693 235.997 172.901 235.421 173.925C234.845 174.949 234.045 175.733 233.021 176.277C231.997 176.821 230.845 177.093 229.565 177.093C228.285 177.093 227.133 176.821 226.109 176.277C225.101 175.733 224.301 174.949 223.709 173.925C223.133 172.885 222.845 171.677 222.845 170.301C222.845 168.925 223.133 167.725 223.709 166.701C224.301 165.677 225.101 164.893 226.109 164.349C227.133 163.805 228.285 163.533 229.565 163.533ZM229.565 165.909C228.861 165.909 228.213 166.069 227.621 166.389C227.029 166.709 226.549 167.205 226.181 167.877C225.829 168.533 225.653 169.341 225.653 170.301C225.653 171.277 225.829 172.093 226.181 172.749C226.549 173.405 227.029 173.893 227.621 174.213C228.213 174.533 228.861 174.693 229.565 174.693C230.269 174.693 230.917 174.533 231.509 174.213C232.101 173.893 232.573 173.405 232.925 172.749C233.293 172.093 233.477 171.277 233.477 170.301C233.477 169.341 233.293 168.533 232.925 167.877C232.573 167.205 232.101 166.709 231.509 166.389C230.917 166.069 230.269 165.909 229.565 165.909ZM255.452 163.485C257.02 163.485 258.268 163.981 259.196 164.973C260.14 165.965 260.612 167.381 260.612 169.221V176.925H257.876V169.509C257.876 168.357 257.588 167.469 257.012 166.845C256.436 166.205 255.644 165.885 254.636 165.885C253.564 165.885 252.708 166.229 252.068 166.917C251.444 167.589 251.132 168.581 251.132 169.893V176.925H248.396V169.509C248.396 168.357 248.108 167.469 247.532 166.845C246.956 166.205 246.164 165.885 245.156 165.885C244.084 165.885 243.228 166.229 242.588 166.917C241.964 167.589 241.652 168.581 241.652 169.893V176.925H238.916V163.701H241.652V166.461C241.988 165.501 242.548 164.765 243.332 164.253C244.116 163.741 245.036 163.485 246.092 163.485C247.196 163.485 248.148 163.757 248.948 164.301C249.764 164.845 250.356 165.629 250.724 166.653C251.108 165.661 251.724 164.885 252.572 164.325C253.42 163.765 254.38 163.485 255.452 163.485Z" fill="white"/>
<path d="M100.2 206.314C100.2 206.826 100.077 207.312 99.8316 207.77C99.5969 208.218 99.2289 208.586 98.7276 208.874C98.2263 209.152 97.6023 209.29 96.8556 209.29C96.1303 209.29 95.4849 209.157 94.9196 208.89C94.3543 208.624 93.9009 208.261 93.5596 207.802C93.2289 207.333 93.0369 206.81 92.9836 206.234H94.1676C94.2103 206.565 94.3329 206.896 94.5356 207.226C94.7383 207.557 95.0316 207.834 95.4156 208.058C95.7996 208.272 96.2636 208.378 96.8076 208.378C97.5223 208.378 98.0663 208.186 98.4396 207.802C98.8236 207.418 99.0156 206.933 99.0156 206.346C99.0156 205.845 98.8876 205.44 98.6316 205.13C98.3863 204.81 98.0769 204.565 97.7036 204.394C97.3409 204.224 96.8396 204.037 96.1996 203.834C95.4956 203.61 94.9249 203.397 94.4876 203.194C94.0609 202.981 93.6983 202.672 93.3996 202.266C93.1009 201.861 92.9516 201.322 92.9516 200.65C92.9516 199.797 93.2503 199.104 93.8476 198.57C94.4449 198.037 95.2663 197.77 96.3116 197.77C97.3783 197.77 98.2209 198.032 98.8396 198.554C99.4689 199.077 99.8423 199.728 99.9596 200.506H98.7596C98.6636 200.026 98.4076 199.6 97.9916 199.226C97.5863 198.853 97.0263 198.666 96.3116 198.666C95.6503 198.666 95.1223 198.837 94.7276 199.178C94.3329 199.52 94.1356 199.994 94.1356 200.602C94.1356 201.082 94.2583 201.472 94.5036 201.77C94.7489 202.069 95.0476 202.298 95.3996 202.458C95.7623 202.618 96.2529 202.8 96.8716 203.002C97.5863 203.226 98.1623 203.445 98.5996 203.658C99.0476 203.872 99.4263 204.192 99.7356 204.618C100.045 205.045 100.2 205.61 100.2 206.314ZM102.625 197.898L106.257 207.866L109.921 197.898H111.153L106.961 209.178H105.569L101.393 197.898H102.625ZM118.774 209.178L115.686 204.474H113.862V209.178H112.726V197.898H116.182C117.451 197.898 118.395 198.197 119.014 198.794C119.643 199.392 119.958 200.197 119.958 201.21C119.958 202.149 119.691 202.896 119.158 203.45C118.635 204.005 117.873 204.336 116.87 204.442L120.054 209.178H118.774ZM113.862 203.626H116.102C117.915 203.626 118.822 202.842 118.822 201.274C118.822 199.674 117.915 198.874 116.102 198.874H113.862V203.626ZM122.507 196.794C122.603 197.317 122.651 197.77 122.651 198.154C122.651 199.253 122.166 199.802 121.195 199.802V199.242C121.462 199.242 121.654 199.173 121.771 199.034C121.889 198.896 121.947 198.688 121.947 198.41V198.01H121.211V196.794H122.507ZM127.069 200.33C128.018 200.33 128.781 200.581 129.357 201.082C129.933 201.584 130.285 202.261 130.413 203.114H129.341C129.277 202.549 129.042 202.085 128.637 201.722C128.242 201.349 127.709 201.162 127.037 201.162C126.461 201.162 126.008 201.306 125.677 201.594C125.357 201.872 125.197 202.245 125.197 202.714C125.197 203.066 125.298 203.349 125.501 203.562C125.714 203.776 125.976 203.941 126.285 204.058C126.594 204.165 127.01 204.277 127.533 204.394C128.173 204.544 128.685 204.698 129.069 204.858C129.464 205.008 129.8 205.248 130.077 205.578C130.354 205.909 130.493 206.357 130.493 206.922C130.493 207.616 130.232 208.186 129.709 208.634C129.197 209.072 128.514 209.29 127.661 209.29C126.658 209.29 125.837 209.045 125.197 208.554C124.557 208.053 124.178 207.37 124.061 206.506H125.149C125.213 207.082 125.464 207.552 125.901 207.914C126.338 208.277 126.93 208.458 127.677 208.458C128.232 208.458 128.664 208.314 128.973 208.026C129.282 207.738 129.437 207.365 129.437 206.906C129.437 206.533 129.33 206.234 129.117 206.01C128.904 205.786 128.637 205.621 128.317 205.514C128.008 205.397 127.581 205.274 127.037 205.146C126.408 204.997 125.901 204.848 125.517 204.698C125.144 204.549 124.824 204.32 124.557 204.01C124.29 203.69 124.157 203.258 124.157 202.714C124.157 202 124.418 201.424 124.941 200.986C125.464 200.549 126.173 200.33 127.069 200.33ZM140.663 208.186V209.178H139.623C138.78 209.178 138.151 208.981 137.735 208.586C137.319 208.181 137.111 207.504 137.111 206.554V201.418H135.783V200.442H137.111V198.234H138.247V200.442H140.647V201.418H138.247V206.57C138.247 207.189 138.359 207.616 138.583 207.85C138.807 208.074 139.201 208.186 139.767 208.186H140.663ZM146.459 200.33C147.291 200.33 148.032 200.512 148.683 200.874C149.344 201.226 149.862 201.744 150.235 202.426C150.608 203.098 150.795 203.893 150.795 204.81C150.795 205.728 150.608 206.522 150.235 207.194C149.862 207.866 149.344 208.384 148.683 208.746C148.032 209.109 147.291 209.29 146.459 209.29C145.627 209.29 144.88 209.109 144.219 208.746C143.558 208.384 143.035 207.866 142.651 207.194C142.278 206.512 142.091 205.717 142.091 204.81C142.091 203.893 142.278 203.098 142.651 202.426C143.035 201.744 143.558 201.226 144.219 200.874C144.88 200.512 145.627 200.33 146.459 200.33ZM146.459 201.306C145.883 201.306 145.35 201.434 144.859 201.69C144.368 201.946 143.974 202.341 143.675 202.874C143.376 203.397 143.227 204.042 143.227 204.81C143.227 205.578 143.376 206.224 143.675 206.746C143.974 207.269 144.368 207.658 144.859 207.914C145.35 208.17 145.883 208.298 146.459 208.298C147.024 208.298 147.547 208.17 148.027 207.914C148.518 207.658 148.912 207.269 149.211 206.746C149.51 206.224 149.659 205.578 149.659 204.81C149.659 204.042 149.51 203.397 149.211 202.874C148.912 202.341 148.518 201.946 148.027 201.69C147.547 201.434 147.024 201.306 146.459 201.306ZM157.476 209.178L153.94 205.178V209.178H152.804V197.338H153.94V204.282L157.412 200.442H158.804L154.788 204.762L158.916 209.178H157.476ZM164.049 208.362C164.839 208.362 165.5 208.165 166.033 207.77C166.567 207.376 166.887 206.842 166.993 206.17H168.177C168.017 207.098 167.575 207.85 166.849 208.426C166.124 209.002 165.207 209.29 164.097 209.29C163.265 209.29 162.524 209.114 161.873 208.762C161.233 208.4 160.732 207.882 160.369 207.21C160.007 206.528 159.825 205.728 159.825 204.81C159.825 203.893 160.007 203.098 160.369 202.426C160.732 201.744 161.233 201.226 161.873 200.874C162.524 200.512 163.265 200.33 164.097 200.33C164.951 200.33 165.687 200.512 166.305 200.874C166.935 201.226 167.409 201.701 167.729 202.298C168.06 202.896 168.225 203.546 168.225 204.25C168.225 204.549 168.204 204.821 168.161 205.066H160.929C160.94 205.802 161.089 206.421 161.377 206.922C161.676 207.413 162.06 207.776 162.529 208.01C162.999 208.245 163.505 208.362 164.049 208.362ZM164.097 201.242C163.532 201.242 163.015 201.36 162.545 201.594C162.076 201.829 161.692 202.192 161.393 202.682C161.105 203.162 160.951 203.765 160.929 204.49H167.105C167.148 203.776 167.031 203.173 166.753 202.682C166.476 202.192 166.103 201.829 165.633 201.594C165.164 201.36 164.652 201.242 164.097 201.242ZM174.609 200.282C175.623 200.282 176.444 200.608 177.073 201.258C177.713 201.898 178.033 202.842 178.033 204.09V209.178H176.929V204.17C176.929 203.221 176.689 202.496 176.209 201.994C175.729 201.482 175.073 201.226 174.241 201.226C173.367 201.226 172.668 201.509 172.145 202.074C171.633 202.629 171.377 203.45 171.377 204.538V209.178H170.241V200.442H171.377V202.586C171.601 201.84 172.007 201.269 172.593 200.874C173.18 200.48 173.852 200.282 174.609 200.282ZM189.226 200.33C190.026 200.33 190.73 200.512 191.338 200.874C191.957 201.226 192.437 201.744 192.778 202.426C193.13 203.098 193.306 203.893 193.306 204.81C193.306 205.717 193.13 206.512 192.778 207.194C192.437 207.866 191.957 208.384 191.338 208.746C190.719 209.109 190.015 209.29 189.226 209.29C188.33 209.29 187.573 209.061 186.954 208.602C186.335 208.144 185.909 207.536 185.674 206.778V209.178H184.554V197.338H185.674V202.842C185.909 202.085 186.335 201.477 186.954 201.018C187.573 200.56 188.33 200.33 189.226 200.33ZM188.922 201.322C188.303 201.322 187.743 201.466 187.242 201.754C186.751 202.042 186.367 202.453 186.09 202.986C185.813 203.509 185.674 204.117 185.674 204.81C185.674 205.504 185.813 206.117 186.09 206.65C186.367 207.173 186.751 207.578 187.242 207.866C187.743 208.154 188.303 208.298 188.922 208.298C189.914 208.298 190.703 207.989 191.29 207.37C191.877 206.741 192.17 205.888 192.17 204.81C192.17 203.733 191.877 202.885 191.29 202.266C190.703 201.637 189.914 201.322 188.922 201.322ZM199 200.33C199.885 200.33 200.637 200.56 201.256 201.018C201.885 201.477 202.317 202.085 202.552 202.842V200.442H203.656V209.178H202.552V206.778C202.317 207.536 201.885 208.144 201.256 208.602C200.637 209.061 199.885 209.29 199 209.29C198.21 209.29 197.501 209.109 196.872 208.746C196.253 208.384 195.768 207.866 195.416 207.194C195.074 206.512 194.904 205.717 194.904 204.81C194.904 203.893 195.074 203.098 195.416 202.426C195.768 201.744 196.253 201.226 196.872 200.874C197.49 200.512 198.2 200.33 199 200.33ZM199.288 201.322C198.306 201.322 197.517 201.637 196.92 202.266C196.333 202.885 196.04 203.733 196.04 204.81C196.04 205.888 196.333 206.741 196.92 207.37C197.517 207.989 198.306 208.298 199.288 208.298C199.906 208.298 200.461 208.154 200.952 207.866C201.453 207.578 201.842 207.173 202.12 206.65C202.408 206.117 202.552 205.504 202.552 204.81C202.552 204.117 202.408 203.509 202.12 202.986C201.842 202.453 201.453 202.042 200.952 201.754C200.461 201.466 199.906 201.322 199.288 201.322ZM208.725 200.33C209.675 200.33 210.437 200.581 211.013 201.082C211.589 201.584 211.941 202.261 212.069 203.114H210.997C210.933 202.549 210.699 202.085 210.293 201.722C209.899 201.349 209.365 201.162 208.693 201.162C208.117 201.162 207.664 201.306 207.333 201.594C207.013 201.872 206.853 202.245 206.853 202.714C206.853 203.066 206.955 203.349 207.157 203.562C207.371 203.776 207.632 203.941 207.941 204.058C208.251 204.165 208.667 204.277 209.189 204.394C209.829 204.544 210.341 204.698 210.725 204.858C211.12 205.008 211.456 205.248 211.733 205.578C212.011 205.909 212.149 206.357 212.149 206.922C212.149 207.616 211.888 208.186 211.365 208.634C210.853 209.072 210.171 209.29 209.317 209.29C208.315 209.29 207.493 209.045 206.853 208.554C206.213 208.053 205.835 207.37 205.717 206.506H206.805C206.869 207.082 207.12 207.552 207.557 207.914C207.995 208.277 208.587 208.458 209.333 208.458C209.888 208.458 210.32 208.314 210.629 208.026C210.939 207.738 211.093 207.365 211.093 206.906C211.093 206.533 210.987 206.234 210.773 206.01C210.56 205.786 210.293 205.621 209.973 205.514C209.664 205.397 209.237 205.274 208.693 205.146C208.064 204.997 207.557 204.848 207.173 204.698C206.8 204.549 206.48 204.32 206.213 204.01C205.947 203.69 205.813 203.258 205.813 202.714C205.813 202 206.075 201.424 206.597 200.986C207.12 200.549 207.829 200.33 208.725 200.33ZM218.867 209.178L215.331 205.178V209.178H214.195V197.338H215.331V204.282L218.803 200.442H220.195L216.179 204.762L220.307 209.178H218.867ZM225.44 208.362C226.229 208.362 226.891 208.165 227.424 207.77C227.957 207.376 228.277 206.842 228.384 206.17H229.568C229.408 207.098 228.965 207.85 228.24 208.426C227.515 209.002 226.597 209.29 225.488 209.29C224.656 209.29 223.915 209.114 223.264 208.762C222.624 208.4 222.123 207.882 221.76 207.21C221.397 206.528 221.216 205.728 221.216 204.81C221.216 203.893 221.397 203.098 221.76 202.426C222.123 201.744 222.624 201.226 223.264 200.874C223.915 200.512 224.656 200.33 225.488 200.33C226.341 200.33 227.077 200.512 227.696 200.874C228.325 201.226 228.8 201.701 229.12 202.298C229.451 202.896 229.616 203.546 229.616 204.25C229.616 204.549 229.595 204.821 229.552 205.066H222.32C222.331 205.802 222.48 206.421 222.768 206.922C223.067 207.413 223.451 207.776 223.92 208.01C224.389 208.245 224.896 208.362 225.44 208.362ZM225.488 201.242C224.923 201.242 224.405 201.36 223.936 201.594C223.467 201.829 223.083 202.192 222.784 202.682C222.496 203.162 222.341 203.765 222.32 204.49H228.496C228.539 203.776 228.421 203.173 228.144 202.682C227.867 202.192 227.493 201.829 227.024 201.594C226.555 201.36 226.043 201.242 225.488 201.242ZM235.6 208.186V209.178H234.56C233.717 209.178 233.088 208.981 232.672 208.586C232.256 208.181 232.048 207.504 232.048 206.554V201.418H230.72V200.442H232.048V198.234H233.184V200.442H235.584V201.418H233.184V206.57C233.184 207.189 233.296 207.616 233.52 207.85C233.744 208.074 234.139 208.186 234.704 208.186H235.6ZM241.345 197.85C241.345 197.616 241.419 197.429 241.569 197.29C241.729 197.152 241.931 197.082 242.177 197.082C242.422 197.082 242.619 197.152 242.769 197.29C242.918 197.429 242.993 197.616 242.993 197.85C242.993 198.074 242.918 198.256 242.769 198.394C242.619 198.533 242.422 198.602 242.177 198.602C241.931 198.602 241.729 198.533 241.569 198.394C241.419 198.256 241.345 198.074 241.345 197.85ZM242.737 200.442V209.178H241.601V200.442H242.737ZM247.803 200.33C248.753 200.33 249.515 200.581 250.091 201.082C250.667 201.584 251.019 202.261 251.147 203.114H250.075C250.011 202.549 249.777 202.085 249.371 201.722C248.977 201.349 248.443 201.162 247.771 201.162C247.195 201.162 246.742 201.306 246.411 201.594C246.091 201.872 245.931 202.245 245.931 202.714C245.931 203.066 246.033 203.349 246.235 203.562C246.449 203.776 246.71 203.941 247.019 204.058C247.329 204.165 247.745 204.277 248.267 204.394C248.907 204.544 249.419 204.698 249.803 204.858C250.198 205.008 250.534 205.248 250.811 205.578C251.089 205.909 251.227 206.357 251.227 206.922C251.227 207.616 250.966 208.186 250.443 208.634C249.931 209.072 249.249 209.29 248.395 209.29C247.393 209.29 246.571 209.045 245.931 208.554C245.291 208.053 244.913 207.37 244.795 206.506H245.883C245.947 207.082 246.198 207.552 246.635 207.914C247.073 208.277 247.665 208.458 248.411 208.458C248.966 208.458 249.398 208.314 249.707 208.026C250.017 207.738 250.171 207.365 250.171 206.906C250.171 206.533 250.065 206.234 249.851 206.01C249.638 205.786 249.371 205.621 249.051 205.514C248.742 205.397 248.315 205.274 247.771 205.146C247.142 204.997 246.635 204.848 246.251 204.698C245.878 204.549 245.558 204.32 245.291 204.01C245.025 203.69 244.891 203.258 244.891 202.714C244.891 202 245.153 201.424 245.675 200.986C246.198 200.549 246.907 200.33 247.803 200.33ZM78.5532 232.186V233.178H77.5132C76.6705 233.178 76.0412 232.981 75.6252 232.586C75.2092 232.181 75.0012 231.504 75.0012 230.554V225.418H73.6732V224.442H75.0012V222.234H76.1372V224.442H78.5372V225.418H76.1372V230.57C76.1372 231.189 76.2492 231.616 76.4732 231.85C76.6972 232.074 77.0919 232.186 77.6572 232.186H78.5532ZM84.7657 224.282C85.779 224.282 86.6004 224.608 87.2297 225.258C87.8697 225.898 88.1897 226.842 88.1897 228.09V233.178H87.0857V228.17C87.0857 227.221 86.8457 226.496 86.3657 225.994C85.8857 225.482 85.2297 225.226 84.3977 225.226C83.523 225.226 82.8244 225.509 82.3017 226.074C81.7897 226.629 81.5337 227.45 81.5337 228.538V233.178H80.3977V221.338H81.5337V226.586C81.7577 225.84 82.163 225.269 82.7497 224.874C83.3364 224.48 84.0084 224.282 84.7657 224.282ZM94.506 224.33C95.338 224.33 96.0793 224.512 96.73 224.874C97.3913 225.226 97.9086 225.744 98.282 226.426C98.6553 227.098 98.842 227.893 98.842 228.81C98.842 229.728 98.6553 230.522 98.282 231.194C97.9086 231.866 97.3913 232.384 96.73 232.746C96.0793 233.109 95.338 233.29 94.506 233.29C93.674 233.29 92.9273 233.109 92.266 232.746C91.6046 232.384 91.082 231.866 90.698 231.194C90.3246 230.512 90.138 229.717 90.138 228.81C90.138 227.893 90.3246 227.098 90.698 226.426C91.082 225.744 91.6046 225.226 92.266 224.874C92.9273 224.512 93.674 224.33 94.506 224.33ZM94.506 225.306C93.93 225.306 93.3966 225.434 92.906 225.69C92.4153 225.946 92.0206 226.341 91.722 226.874C91.4233 227.397 91.274 228.042 91.274 228.81C91.274 229.578 91.4233 230.224 91.722 230.746C92.0206 231.269 92.4153 231.658 92.906 231.914C93.3966 232.17 93.93 232.298 94.506 232.298C95.0713 232.298 95.594 232.17 96.074 231.914C96.5646 231.658 96.9593 231.269 97.258 230.746C97.5566 230.224 97.706 229.578 97.706 228.81C97.706 228.042 97.5566 227.397 97.258 226.874C96.9593 226.341 96.5646 225.946 96.074 225.69C95.594 225.434 95.0713 225.306 94.506 225.306ZM108.387 224.442V233.178H107.267V231.018C107.043 231.776 106.638 232.352 106.051 232.746C105.464 233.141 104.792 233.338 104.035 233.338C103.011 233.338 102.179 233.018 101.539 232.378C100.91 231.728 100.595 230.778 100.595 229.53V224.442H101.715V229.434C101.715 230.394 101.955 231.13 102.435 231.642C102.915 232.144 103.571 232.394 104.403 232.394C105.278 232.394 105.971 232.117 106.483 231.562C107.006 230.997 107.267 230.17 107.267 229.082V224.442H108.387ZM114.515 224.33C115.401 224.33 116.153 224.56 116.771 225.018C117.401 225.477 117.833 226.085 118.067 226.842V224.442H119.171V233.386C119.171 234.197 119.001 234.906 118.659 235.514C118.318 236.133 117.843 236.608 117.235 236.938C116.627 237.28 115.934 237.45 115.155 237.45C114.014 237.45 113.075 237.173 112.339 236.618C111.614 236.074 111.139 235.333 110.915 234.394H112.035C112.227 235.034 112.579 235.541 113.091 235.914C113.614 236.288 114.281 236.474 115.091 236.474C115.646 236.474 116.147 236.352 116.595 236.106C117.054 235.872 117.411 235.52 117.667 235.05C117.934 234.581 118.067 234.026 118.067 233.386V230.778C117.833 231.536 117.401 232.144 116.771 232.602C116.153 233.061 115.401 233.29 114.515 233.29C113.726 233.29 113.017 233.109 112.387 232.746C111.769 232.384 111.283 231.866 110.931 231.194C110.59 230.512 110.419 229.717 110.419 228.81C110.419 227.893 110.59 227.098 110.931 226.426C111.283 225.744 111.769 225.226 112.387 224.874C113.006 224.512 113.715 224.33 114.515 224.33ZM114.803 225.322C113.822 225.322 113.033 225.637 112.435 226.266C111.849 226.885 111.555 227.733 111.555 228.81C111.555 229.888 111.849 230.741 112.435 231.37C113.033 231.989 113.822 232.298 114.803 232.298C115.422 232.298 115.977 232.154 116.467 231.866C116.969 231.578 117.358 231.173 117.635 230.65C117.923 230.117 118.067 229.504 118.067 228.81C118.067 228.117 117.923 227.509 117.635 226.986C117.358 226.453 116.969 226.042 116.467 225.754C115.977 225.466 115.422 225.322 114.803 225.322ZM125.969 224.282C126.982 224.282 127.804 224.608 128.433 225.258C129.073 225.898 129.393 226.842 129.393 228.09V233.178H128.289V228.17C128.289 227.221 128.049 226.496 127.569 225.994C127.089 225.482 126.433 225.226 125.601 225.226C124.726 225.226 124.028 225.509 123.505 226.074C122.993 226.629 122.737 227.45 122.737 228.538V233.178H121.601V221.338H122.737V226.586C122.961 225.84 123.366 225.269 123.953 224.874C124.54 224.48 125.212 224.282 125.969 224.282ZM135.725 232.186V233.178H134.685C133.842 233.178 133.213 232.981 132.797 232.586C132.381 232.181 132.173 231.504 132.173 230.554V225.418H130.845V224.442H132.173V222.234H133.309V224.442H135.709V225.418H133.309V230.57C133.309 231.189 133.421 231.616 133.645 231.85C133.869 232.074 134.264 232.186 134.829 232.186H135.725ZM141.25 222.122C140.439 222.112 139.868 222.261 139.538 222.57C139.218 222.869 139.058 223.376 139.058 224.09V224.442H141.25V225.434H139.058V233.178H137.938V225.434H136.642V224.442H137.938V224.01C137.938 223.029 138.204 222.293 138.738 221.802C139.271 221.312 140.108 221.088 141.25 221.13V222.122ZM150.465 224.442V233.178H149.345V231.018C149.121 231.776 148.716 232.352 148.129 232.746C147.542 233.141 146.87 233.338 146.113 233.338C145.089 233.338 144.257 233.018 143.617 232.378C142.988 231.728 142.673 230.778 142.673 229.53V224.442H143.793V229.434C143.793 230.394 144.033 231.13 144.513 231.642C144.993 232.144 145.649 232.394 146.481 232.394C147.356 232.394 148.049 232.117 148.561 231.562C149.084 230.997 149.345 230.17 149.345 229.082V224.442H150.465ZM154.049 221.338V233.178H152.913V221.338H154.049ZM157.612 221.338V233.178H156.476V221.338H157.612ZM160.278 224.442L163.318 231.722L166.118 224.442H167.366L162.23 237.306H160.95L162.71 233.082L159.03 224.442H160.278ZM176.801 224.33C177.91 224.33 178.827 224.624 179.553 225.21C180.289 225.797 180.737 226.576 180.897 227.546H179.729C179.611 226.853 179.286 226.309 178.753 225.914C178.219 225.509 177.563 225.306 176.785 225.306C176.219 225.306 175.697 225.434 175.217 225.69C174.747 225.946 174.369 226.341 174.081 226.874C173.803 227.397 173.665 228.042 173.665 228.81C173.665 229.578 173.803 230.229 174.081 230.762C174.369 231.285 174.747 231.674 175.217 231.93C175.697 232.186 176.219 232.314 176.785 232.314C177.563 232.314 178.219 232.117 178.753 231.722C179.286 231.317 179.611 230.768 179.729 230.074H180.897C180.737 231.045 180.289 231.824 179.553 232.41C178.827 232.997 177.91 233.29 176.801 233.29C175.969 233.29 175.227 233.114 174.577 232.762C173.937 232.4 173.435 231.882 173.073 231.21C172.71 230.528 172.529 229.728 172.529 228.81C172.529 227.893 172.71 227.098 173.073 226.426C173.435 225.744 173.937 225.226 174.577 224.874C175.227 224.512 175.969 224.33 176.801 224.33ZM190.449 224.442V233.178H189.329V231.018C189.105 231.776 188.7 232.352 188.113 232.746C187.527 233.141 186.855 233.338 186.097 233.338C185.073 233.338 184.241 233.018 183.601 232.378C182.972 231.728 182.657 230.778 182.657 229.53V224.442H183.777V229.434C183.777 230.394 184.017 231.13 184.497 231.642C184.977 232.144 185.633 232.394 186.465 232.394C187.34 232.394 188.033 232.117 188.545 231.562C189.068 230.997 189.329 230.17 189.329 229.082V224.442H190.449ZM194.034 226.25C194.29 225.621 194.7 225.136 195.266 224.794C195.831 224.453 196.519 224.282 197.33 224.282V225.498H196.962C196.119 225.498 195.42 225.728 194.866 226.186C194.311 226.634 194.034 227.37 194.034 228.394V233.178H192.898V224.442H194.034V226.25ZM202.5 224.33C203.385 224.33 204.137 224.56 204.756 225.018C205.385 225.477 205.817 226.085 206.052 226.842V224.442H207.156V233.178H206.052V230.778C205.817 231.536 205.385 232.144 204.756 232.602C204.137 233.061 203.385 233.29 202.5 233.29C201.71 233.29 201.001 233.109 200.372 232.746C199.753 232.384 199.268 231.866 198.916 231.194C198.574 230.512 198.404 229.717 198.404 228.81C198.404 227.893 198.574 227.098 198.916 226.426C199.268 225.744 199.753 225.226 200.372 224.874C200.99 224.512 201.7 224.33 202.5 224.33ZM202.788 225.322C201.806 225.322 201.017 225.637 200.42 226.266C199.833 226.885 199.54 227.733 199.54 228.81C199.54 229.888 199.833 230.741 200.42 231.37C201.017 231.989 201.806 232.298 202.788 232.298C203.406 232.298 203.961 232.154 204.452 231.866C204.953 231.578 205.342 231.173 205.62 230.65C205.908 230.117 206.052 229.504 206.052 228.81C206.052 228.117 205.908 227.509 205.62 226.986C205.342 226.453 204.953 226.042 204.452 225.754C203.961 225.466 203.406 225.322 202.788 225.322ZM213.553 232.186V233.178H212.513C211.671 233.178 211.041 232.981 210.625 232.586C210.209 232.181 210.001 231.504 210.001 230.554V225.418H208.673V224.442H210.001V222.234H211.137V224.442H213.537V225.418H211.137V230.57C211.137 231.189 211.249 231.616 211.473 231.85C211.697 232.074 212.092 232.186 212.657 232.186H213.553ZM219.206 232.362C219.995 232.362 220.656 232.165 221.19 231.77C221.723 231.376 222.043 230.842 222.15 230.17H223.334C223.174 231.098 222.731 231.85 222.006 232.426C221.28 233.002 220.363 233.29 219.254 233.29C218.422 233.29 217.68 233.114 217.03 232.762C216.39 232.4 215.888 231.882 215.526 231.21C215.163 230.528 214.982 229.728 214.982 228.81C214.982 227.893 215.163 227.098 215.526 226.426C215.888 225.744 216.39 225.226 217.03 224.874C217.68 224.512 218.422 224.33 219.254 224.33C220.107 224.33 220.843 224.512 221.462 224.874C222.091 225.226 222.566 225.701 222.886 226.298C223.216 226.896 223.382 227.546 223.382 228.25C223.382 228.549 223.36 228.821 223.318 229.066H216.086C216.096 229.802 216.246 230.421 216.534 230.922C216.832 231.413 217.216 231.776 217.686 232.01C218.155 232.245 218.662 232.362 219.206 232.362ZM219.254 225.242C218.688 225.242 218.171 225.36 217.702 225.594C217.232 225.829 216.848 226.192 216.55 226.682C216.262 227.162 216.107 227.765 216.086 228.49H222.262C222.304 227.776 222.187 227.173 221.91 226.682C221.632 226.192 221.259 225.829 220.79 225.594C220.32 225.36 219.808 225.242 219.254 225.242ZM229.078 224.33C229.963 224.33 230.715 224.56 231.334 225.018C231.963 225.477 232.39 226.085 232.614 226.842V221.338H233.734V233.178H232.614V230.778C232.39 231.536 231.963 232.144 231.334 232.602C230.715 233.061 229.963 233.29 229.078 233.29C228.288 233.29 227.579 233.109 226.95 232.746C226.331 232.384 225.846 231.866 225.494 231.194C225.152 230.512 224.982 229.717 224.982 228.81C224.982 227.893 225.152 227.098 225.494 226.426C225.846 225.744 226.331 225.226 226.95 224.874C227.568 224.512 228.278 224.33 229.078 224.33ZM229.366 225.322C228.384 225.322 227.595 225.637 226.998 226.266C226.411 226.885 226.118 227.733 226.118 228.81C226.118 229.888 226.411 230.741 226.998 231.37C227.595 231.989 228.384 232.298 229.366 232.298C229.984 232.298 230.539 232.154 231.03 231.866C231.531 231.578 231.92 231.173 232.198 230.65C232.486 230.117 232.63 229.504 232.63 228.81C232.63 228.117 232.486 227.509 232.198 226.986C231.92 226.453 231.531 226.042 231.03 225.754C230.539 225.466 229.984 225.322 229.366 225.322ZM244 224.33C244.885 224.33 245.637 224.56 246.256 225.018C246.885 225.477 247.317 226.085 247.552 226.842V224.442H248.656V233.178H247.552V230.778C247.317 231.536 246.885 232.144 246.256 232.602C245.637 233.061 244.885 233.29 244 233.29C243.21 233.29 242.501 233.109 241.872 232.746C241.253 232.384 240.768 231.866 240.416 231.194C240.074 230.512 239.904 229.717 239.904 228.81C239.904 227.893 240.074 227.098 240.416 226.426C240.768 225.744 241.253 225.226 241.872 224.874C242.49 224.512 243.2 224.33 244 224.33ZM244.288 225.322C243.306 225.322 242.517 225.637 241.92 226.266C241.333 226.885 241.04 227.733 241.04 228.81C241.04 229.888 241.333 230.741 241.92 231.37C242.517 231.989 243.306 232.298 244.288 232.298C244.906 232.298 245.461 232.154 245.952 231.866C246.453 231.578 246.842 231.173 247.12 230.65C247.408 230.117 247.552 229.504 247.552 228.81C247.552 228.117 247.408 227.509 247.12 226.986C246.842 226.453 246.453 226.042 245.952 225.754C245.461 225.466 244.906 225.322 244.288 225.322ZM255.453 224.282C256.467 224.282 257.288 224.608 257.917 225.258C258.557 225.898 258.877 226.842 258.877 228.09V233.178H257.773V228.17C257.773 227.221 257.533 226.496 257.053 225.994C256.573 225.482 255.917 225.226 255.085 225.226C254.211 225.226 253.512 225.509 252.989 226.074C252.477 226.629 252.221 227.45 252.221 228.538V233.178H251.085V224.442H252.221V226.586C252.445 225.84 252.851 225.269 253.437 224.874C254.024 224.48 254.696 224.282 255.453 224.282ZM264.921 224.33C265.807 224.33 266.559 224.56 267.177 225.018C267.807 225.477 268.233 226.085 268.457 226.842V221.338H269.577V233.178H268.457V230.778C268.233 231.536 267.807 232.144 267.177 232.602C266.559 233.061 265.807 233.29 264.921 233.29C264.132 233.29 263.423 233.109 262.793 232.746C262.175 232.384 261.689 231.866 261.337 231.194C260.996 230.512 260.825 229.717 260.825 228.81C260.825 227.893 260.996 227.098 261.337 226.426C261.689 225.744 262.175 225.226 262.793 224.874C263.412 224.512 264.121 224.33 264.921 224.33ZM265.209 225.322C264.228 225.322 263.439 225.637 262.841 226.266C262.255 226.885 261.961 227.733 261.961 228.81C261.961 229.888 262.255 230.741 262.841 231.37C263.439 231.989 264.228 232.298 265.209 232.298C265.828 232.298 266.383 232.154 266.873 231.866C267.375 231.578 267.764 231.173 268.041 230.65C268.329 230.117 268.473 229.504 268.473 228.81C268.473 228.117 268.329 227.509 268.041 226.986C267.764 226.453 267.375 226.042 266.873 225.754C266.383 225.466 265.828 225.322 265.209 225.322ZM81.9056 248.33C82.7056 248.33 83.4096 248.512 84.0176 248.874C84.6363 249.226 85.1163 249.744 85.4576 250.426C85.8096 251.098 85.9856 251.893 85.9856 252.81C85.9856 253.717 85.8096 254.512 85.4576 255.194C85.1163 255.866 84.6363 256.384 84.0176 256.746C83.399 257.109 82.695 257.29 81.9056 257.29C81.0096 257.29 80.2523 257.061 79.6336 256.602C79.015 256.144 78.5883 255.536 78.3536 254.778V257.178H77.2336V245.338H78.3536V250.842C78.5883 250.085 79.015 249.477 79.6336 249.018C80.2523 248.56 81.0096 248.33 81.9056 248.33ZM81.6016 249.322C80.983 249.322 80.423 249.466 79.9216 249.754C79.431 250.042 79.047 250.453 78.7696 250.986C78.4923 251.509 78.3536 252.117 78.3536 252.81C78.3536 253.504 78.4923 254.117 78.7696 254.65C79.047 255.173 79.431 255.578 79.9216 255.866C80.423 256.154 80.983 256.298 81.6016 256.298C82.5936 256.298 83.383 255.989 83.9696 255.37C84.5563 254.741 84.8496 253.888 84.8496 252.81C84.8496 251.733 84.5563 250.885 83.9696 250.266C83.383 249.637 82.5936 249.322 81.6016 249.322ZM91.6793 248.33C92.5646 248.33 93.3166 248.56 93.9353 249.018C94.5646 249.477 94.9966 250.085 95.2313 250.842V248.442H96.3353V257.178H95.2313V254.778C94.9966 255.536 94.5646 256.144 93.9353 256.602C93.3166 257.061 92.5646 257.29 91.6793 257.29C90.8899 257.29 90.1806 257.109 89.5513 256.746C88.9326 256.384 88.4473 255.866 88.0953 255.194C87.7539 254.512 87.5833 253.717 87.5833 252.81C87.5833 251.893 87.7539 251.098 88.0953 250.426C88.4473 249.744 88.9326 249.226 89.5513 248.874C90.1699 248.512 90.8793 248.33 91.6793 248.33ZM91.9673 249.322C90.9859 249.322 90.1966 249.637 89.5993 250.266C89.0126 250.885 88.7193 251.733 88.7193 252.81C88.7193 253.888 89.0126 254.741 89.5993 255.37C90.1966 255.989 90.9859 256.298 91.9673 256.298C92.5859 256.298 93.1406 256.154 93.6313 255.866C94.1326 255.578 94.5219 255.173 94.7993 254.65C95.0873 254.117 95.2313 253.504 95.2313 252.81C95.2313 252.117 95.0873 251.509 94.7993 250.986C94.5219 250.453 94.1326 250.042 93.6313 249.754C93.1406 249.466 92.5859 249.322 91.9673 249.322ZM99.9009 245.338V257.178H98.7649V245.338H99.9009ZM106.007 248.33C106.893 248.33 107.645 248.56 108.263 249.018C108.893 249.477 109.325 250.085 109.559 250.842V248.442H110.663V257.178H109.559V254.778C109.325 255.536 108.893 256.144 108.263 256.602C107.645 257.061 106.893 257.29 106.007 257.29C105.218 257.29 104.509 257.109 103.879 256.746C103.261 256.384 102.775 255.866 102.423 255.194C102.082 254.512 101.911 253.717 101.911 252.81C101.911 251.893 102.082 251.098 102.423 250.426C102.775 249.744 103.261 249.226 103.879 248.874C104.498 248.512 105.207 248.33 106.007 248.33ZM106.295 249.322C105.314 249.322 104.525 249.637 103.927 250.266C103.341 250.885 103.047 251.733 103.047 252.81C103.047 253.888 103.341 254.741 103.927 255.37C104.525 255.989 105.314 256.298 106.295 256.298C106.914 256.298 107.469 256.154 107.959 255.866C108.461 255.578 108.85 255.173 109.127 254.65C109.415 254.117 109.559 253.504 109.559 252.81C109.559 252.117 109.415 251.509 109.127 250.986C108.85 250.453 108.461 250.042 107.959 249.754C107.469 249.466 106.914 249.322 106.295 249.322ZM117.461 248.282C118.474 248.282 119.296 248.608 119.925 249.258C120.565 249.898 120.885 250.842 120.885 252.09V257.178H119.781V252.17C119.781 251.221 119.541 250.496 119.061 249.994C118.581 249.482 117.925 249.226 117.093 249.226C116.218 249.226 115.52 249.509 114.997 250.074C114.485 250.629 114.229 251.45 114.229 252.538V257.178H113.093V248.442H114.229V250.586C114.453 249.84 114.858 249.269 115.445 248.874C116.032 248.48 116.704 248.282 117.461 248.282ZM127.105 248.33C128.215 248.33 129.132 248.624 129.857 249.21C130.593 249.797 131.041 250.576 131.201 251.546H130.033C129.916 250.853 129.591 250.309 129.057 249.914C128.524 249.509 127.868 249.306 127.089 249.306C126.524 249.306 126.001 249.434 125.521 249.69C125.052 249.946 124.673 250.341 124.385 250.874C124.108 251.397 123.969 252.042 123.969 252.81C123.969 253.578 124.108 254.229 124.385 254.762C124.673 255.285 125.052 255.674 125.521 255.93C126.001 256.186 126.524 256.314 127.089 256.314C127.868 256.314 128.524 256.117 129.057 255.722C129.591 255.317 129.916 254.768 130.033 254.074H131.201C131.041 255.045 130.593 255.824 129.857 256.41C129.132 256.997 128.215 257.29 127.105 257.29C126.273 257.29 125.532 257.114 124.881 256.762C124.241 256.4 123.74 255.882 123.377 255.21C123.015 254.528 122.833 253.728 122.833 252.81C122.833 251.893 123.015 251.098 123.377 250.426C123.74 249.744 124.241 249.226 124.881 248.874C125.532 248.512 126.273 248.33 127.105 248.33ZM137.026 256.362C137.815 256.362 138.477 256.165 139.01 255.77C139.543 255.376 139.863 254.842 139.97 254.17H141.154C140.994 255.098 140.551 255.85 139.826 256.426C139.101 257.002 138.183 257.29 137.074 257.29C136.242 257.29 135.501 257.114 134.85 256.762C134.21 256.4 133.709 255.882 133.346 255.21C132.983 254.528 132.802 253.728 132.802 252.81C132.802 251.893 132.983 251.098 133.346 250.426C133.709 249.744 134.21 249.226 134.85 248.874C135.501 248.512 136.242 248.33 137.074 248.33C137.927 248.33 138.663 248.512 139.282 248.874C139.911 249.226 140.386 249.701 140.706 250.298C141.037 250.896 141.202 251.546 141.202 252.25C141.202 252.549 141.181 252.821 141.138 253.066H133.906C133.917 253.802 134.066 254.421 134.354 254.922C134.653 255.413 135.037 255.776 135.506 256.01C135.975 256.245 136.482 256.362 137.026 256.362ZM137.074 249.242C136.509 249.242 135.991 249.36 135.522 249.594C135.053 249.829 134.669 250.192 134.37 250.682C134.082 251.162 133.927 251.765 133.906 252.49H140.082C140.125 251.776 140.007 251.173 139.73 250.682C139.453 250.192 139.079 249.829 138.61 249.594C138.141 249.36 137.629 249.242 137.074 249.242ZM146.898 248.33C147.783 248.33 148.535 248.56 149.154 249.018C149.783 249.477 150.21 250.085 150.434 250.842V245.338H151.554V257.178H150.434V254.778C150.21 255.536 149.783 256.144 149.154 256.602C148.535 257.061 147.783 257.29 146.898 257.29C146.109 257.29 145.399 257.109 144.77 256.746C144.151 256.384 143.666 255.866 143.314 255.194C142.973 254.512 142.802 253.717 142.802 252.81C142.802 251.893 142.973 251.098 143.314 250.426C143.666 249.744 144.151 249.226 144.77 248.874C145.389 248.512 146.098 248.33 146.898 248.33ZM147.186 249.322C146.205 249.322 145.415 249.637 144.818 250.266C144.231 250.885 143.938 251.733 143.938 252.81C143.938 253.888 144.231 254.741 144.818 255.37C145.415 255.989 146.205 256.298 147.186 256.298C147.805 256.298 148.359 256.154 148.85 255.866C149.351 255.578 149.741 255.173 150.018 254.65C150.306 254.117 150.45 253.504 150.45 252.81C150.45 252.117 150.306 251.509 150.018 250.986C149.741 250.453 149.351 250.042 148.85 249.754C148.359 249.466 147.805 249.322 147.186 249.322ZM162.812 248.33C163.612 248.33 164.316 248.512 164.924 248.874C165.543 249.226 166.023 249.744 166.364 250.426C166.716 251.098 166.892 251.893 166.892 252.81C166.892 253.717 166.716 254.512 166.364 255.194C166.023 255.866 165.543 256.384 164.924 256.746C164.305 257.109 163.601 257.29 162.812 257.29C161.916 257.29 161.159 257.061 160.54 256.602C159.921 256.144 159.495 255.536 159.26 254.778V257.178H158.14V245.338H159.26V250.842C159.495 250.085 159.921 249.477 160.54 249.018C161.159 248.56 161.916 248.33 162.812 248.33ZM162.508 249.322C161.889 249.322 161.329 249.466 160.828 249.754C160.337 250.042 159.953 250.453 159.676 250.986C159.399 251.509 159.26 252.117 159.26 252.81C159.26 253.504 159.399 254.117 159.676 254.65C159.953 255.173 160.337 255.578 160.828 255.866C161.329 256.154 161.889 256.298 162.508 256.298C163.5 256.298 164.289 255.989 164.876 255.37C165.463 254.741 165.756 253.888 165.756 252.81C165.756 251.733 165.463 250.885 164.876 250.266C164.289 249.637 163.5 249.322 162.508 249.322ZM169.146 248.442L172.186 255.722L174.986 248.442H176.234L171.098 261.306H169.818L171.578 257.082L167.898 248.442H169.146ZM185.492 248.33C186.377 248.33 187.129 248.56 187.748 249.018C188.377 249.477 188.809 250.085 189.044 250.842V248.442H190.148V257.178H189.044V254.778C188.809 255.536 188.377 256.144 187.748 256.602C187.129 257.061 186.377 257.29 185.492 257.29C184.702 257.29 183.993 257.109 183.364 256.746C182.745 256.384 182.26 255.866 181.908 255.194C181.566 254.512 181.396 253.717 181.396 252.81C181.396 251.893 181.566 251.098 181.908 250.426C182.26 249.744 182.745 249.226 183.364 248.874C183.982 248.512 184.692 248.33 185.492 248.33ZM185.78 249.322C184.798 249.322 184.009 249.637 183.412 250.266C182.825 250.885 182.532 251.733 182.532 252.81C182.532 253.888 182.825 254.741 183.412 255.37C184.009 255.989 184.798 256.298 185.78 256.298C186.398 256.298 186.953 256.154 187.444 255.866C187.945 255.578 188.334 255.173 188.612 254.65C188.9 254.117 189.044 253.504 189.044 252.81C189.044 252.117 188.9 251.509 188.612 250.986C188.334 250.453 187.945 250.042 187.444 249.754C186.953 249.466 186.398 249.322 185.78 249.322ZM196.945 248.282C197.959 248.282 198.78 248.608 199.409 249.258C200.049 249.898 200.369 250.842 200.369 252.09V257.178H199.265V252.17C199.265 251.221 199.025 250.496 198.545 249.994C198.065 249.482 197.409 249.226 196.577 249.226C195.703 249.226 195.004 249.509 194.481 250.074C193.969 250.629 193.713 251.45 193.713 252.538V257.178H192.577V248.442H193.713V250.586C193.937 249.84 194.343 249.269 194.929 248.874C195.516 248.48 196.188 248.282 196.945 248.282ZM206.414 248.33C207.299 248.33 208.051 248.56 208.67 249.018C209.299 249.477 209.726 250.085 209.95 250.842V245.338H211.07V257.178H209.95V254.778C209.726 255.536 209.299 256.144 208.67 256.602C208.051 257.061 207.299 257.29 206.414 257.29C205.624 257.29 204.915 257.109 204.286 256.746C203.667 256.384 203.182 255.866 202.83 255.194C202.488 254.512 202.318 253.717 202.318 252.81C202.318 251.893 202.488 251.098 202.83 250.426C203.182 249.744 203.667 249.226 204.286 248.874C204.904 248.512 205.614 248.33 206.414 248.33ZM206.702 249.322C205.72 249.322 204.931 249.637 204.334 250.266C203.747 250.885 203.454 251.733 203.454 252.81C203.454 253.888 203.747 254.741 204.334 255.37C204.931 255.989 205.72 256.298 206.702 256.298C207.32 256.298 207.875 256.154 208.366 255.866C208.867 255.578 209.256 255.173 209.534 254.65C209.822 254.117 209.966 253.504 209.966 252.81C209.966 252.117 209.822 251.509 209.534 250.986C209.256 250.453 208.867 250.042 208.366 249.754C207.875 249.466 207.32 249.322 206.702 249.322ZM221.336 246.122C220.525 246.112 219.954 246.261 219.624 246.57C219.304 246.869 219.144 247.376 219.144 248.09V248.442H221.336V249.434H219.144V257.178H218.024V249.434H216.728V248.442H218.024V248.01C218.024 247.029 218.29 246.293 218.824 245.802C219.357 245.312 220.194 245.088 221.336 245.13V246.122ZM226.967 248.33C227.799 248.33 228.54 248.512 229.191 248.874C229.852 249.226 230.37 249.744 230.743 250.426C231.116 251.098 231.303 251.893 231.303 252.81C231.303 253.728 231.116 254.522 230.743 255.194C230.37 255.866 229.852 256.384 229.191 256.746C228.54 257.109 227.799 257.29 226.967 257.29C226.135 257.29 225.388 257.109 224.727 256.746C224.066 256.384 223.543 255.866 223.159 255.194C222.786 254.512 222.599 253.717 222.599 252.81C222.599 251.893 222.786 251.098 223.159 250.426C223.543 249.744 224.066 249.226 224.727 248.874C225.388 248.512 226.135 248.33 226.967 248.33ZM226.967 249.306C226.391 249.306 225.858 249.434 225.367 249.69C224.876 249.946 224.482 250.341 224.183 250.874C223.884 251.397 223.735 252.042 223.735 252.81C223.735 253.578 223.884 254.224 224.183 254.746C224.482 255.269 224.876 255.658 225.367 255.914C225.858 256.17 226.391 256.298 226.967 256.298C227.532 256.298 228.055 256.17 228.535 255.914C229.026 255.658 229.42 255.269 229.719 254.746C230.018 254.224 230.167 253.578 230.167 252.81C230.167 252.042 230.018 251.397 229.719 250.874C229.42 250.341 229.026 249.946 228.535 249.69C228.055 249.434 227.532 249.306 226.967 249.306ZM234.448 250.25C234.704 249.621 235.114 249.136 235.68 248.794C236.245 248.453 236.933 248.282 237.744 248.282V249.498H237.376C236.533 249.498 235.834 249.728 235.28 250.186C234.725 250.634 234.448 251.37 234.448 252.394V257.178H233.312V248.442H234.448V250.25ZM247.358 256.186V257.178H246.318C245.475 257.178 244.846 256.981 244.43 256.586C244.014 256.181 243.806 255.504 243.806 254.554V249.418H242.478V248.442H243.806V246.234H244.942V248.442H247.342V249.418H244.942V254.57C244.942 255.189 245.054 255.616 245.278 255.85C245.502 256.074 245.897 256.186 246.462 256.186H247.358ZM253.57 248.282C254.584 248.282 255.405 248.608 256.034 249.258C256.674 249.898 256.994 250.842 256.994 252.09V257.178H255.89V252.17C255.89 251.221 255.65 250.496 255.17 249.994C254.69 249.482 254.034 249.226 253.202 249.226C252.328 249.226 251.629 249.509 251.106 250.074C250.594 250.629 250.338 251.45 250.338 252.538V257.178H249.202V245.338H250.338V250.586C250.562 249.84 250.968 249.269 251.554 248.874C252.141 248.48 252.813 248.282 253.57 248.282ZM263.167 256.362C263.956 256.362 264.617 256.165 265.151 255.77C265.684 255.376 266.004 254.842 266.111 254.17H267.295C267.135 255.098 266.692 255.85 265.967 256.426C265.241 257.002 264.324 257.29 263.215 257.29C262.383 257.29 261.641 257.114 260.991 256.762C260.351 256.4 259.849 255.882 259.487 255.21C259.124 254.528 258.943 253.728 258.943 252.81C258.943 251.893 259.124 251.098 259.487 250.426C259.849 249.744 260.351 249.226 260.991 248.874C261.641 248.512 262.383 248.33 263.215 248.33C264.068 248.33 264.804 248.512 265.423 248.874C266.052 249.226 266.527 249.701 266.847 250.298C267.177 250.896 267.343 251.546 267.343 252.25C267.343 252.549 267.321 252.821 267.279 253.066H260.047C260.057 253.802 260.207 254.421 260.495 254.922C260.793 255.413 261.177 255.776 261.647 256.01C262.116 256.245 262.623 256.362 263.167 256.362ZM263.215 249.242C262.649 249.242 262.132 249.36 261.663 249.594C261.193 249.829 260.809 250.192 260.511 250.682C260.223 251.162 260.068 251.765 260.047 252.49H266.223C266.265 251.776 266.148 251.173 265.871 250.682C265.593 250.192 265.22 249.829 264.751 249.594C264.281 249.36 263.769 249.242 263.215 249.242ZM95.8402 278.314C95.8402 278.826 95.7175 279.312 95.4722 279.77C95.2375 280.218 94.8695 280.586 94.3682 280.874C93.8669 281.152 93.2429 281.29 92.4962 281.29C91.7709 281.29 91.1255 281.157 90.5602 280.89C89.9949 280.624 89.5415 280.261 89.2002 279.802C88.8695 279.333 88.6775 278.81 88.6242 278.234H89.8082C89.8509 278.565 89.9735 278.896 90.1762 279.226C90.3789 279.557 90.6722 279.834 91.0562 280.058C91.4402 280.272 91.9042 280.378 92.4482 280.378C93.1629 280.378 93.7069 280.186 94.0802 279.802C94.4642 279.418 94.6562 278.933 94.6562 278.346C94.6562 277.845 94.5282 277.44 94.2722 277.13C94.0269 276.81 93.7175 276.565 93.3442 276.394C92.9815 276.224 92.4802 276.037 91.8402 275.834C91.1362 275.61 90.5655 275.397 90.1282 275.194C89.7015 274.981 89.3389 274.672 89.0402 274.266C88.7415 273.861 88.5922 273.322 88.5922 272.65C88.5922 271.797 88.8909 271.104 89.4882 270.57C90.0855 270.037 90.9069 269.77 91.9522 269.77C93.0189 269.77 93.8615 270.032 94.4802 270.554C95.1095 271.077 95.4829 271.728 95.6002 272.506H94.4002C94.3042 272.026 94.0482 271.6 93.6322 271.226C93.2269 270.853 92.6669 270.666 91.9522 270.666C91.2909 270.666 90.7629 270.837 90.3682 271.178C89.9735 271.52 89.7762 271.994 89.7762 272.602C89.7762 273.082 89.8989 273.472 90.1442 273.77C90.3895 274.069 90.6882 274.298 91.0402 274.458C91.4029 274.618 91.8935 274.8 92.5122 275.002C93.2269 275.226 93.8029 275.445 94.2402 275.658C94.6882 275.872 95.0669 276.192 95.3762 276.618C95.6855 277.045 95.8402 277.61 95.8402 278.314ZM101.834 272.33C102.666 272.33 103.407 272.512 104.058 272.874C104.719 273.226 105.237 273.744 105.61 274.426C105.983 275.098 106.17 275.893 106.17 276.81C106.17 277.728 105.983 278.522 105.61 279.194C105.237 279.866 104.719 280.384 104.058 280.746C103.407 281.109 102.666 281.29 101.834 281.29C101.002 281.29 100.255 281.109 99.5941 280.746C98.9328 280.384 98.4101 279.866 98.0261 279.194C97.6528 278.512 97.4661 277.717 97.4661 276.81C97.4661 275.893 97.6528 275.098 98.0261 274.426C98.4101 273.744 98.9328 273.226 99.5941 272.874C100.255 272.512 101.002 272.33 101.834 272.33ZM101.834 273.306C101.258 273.306 100.725 273.434 100.234 273.69C99.7434 273.946 99.3488 274.341 99.0501 274.874C98.7514 275.397 98.6021 276.042 98.6021 276.81C98.6021 277.578 98.7514 278.224 99.0501 278.746C99.3488 279.269 99.7434 279.658 100.234 279.914C100.725 280.17 101.258 280.298 101.834 280.298C102.399 280.298 102.922 280.17 103.402 279.914C103.893 279.658 104.287 279.269 104.586 278.746C104.885 278.224 105.034 277.578 105.034 276.81C105.034 276.042 104.885 275.397 104.586 274.874C104.287 274.341 103.893 273.946 103.402 273.69C102.922 273.434 102.399 273.306 101.834 273.306ZM108.563 269.898L112.195 279.866L115.859 269.898H117.091L112.899 281.178H111.507L107.331 269.898H108.563ZM124.711 281.178L121.623 276.474H119.799V281.178H118.663V269.898H122.119C123.389 269.898 124.333 270.197 124.951 270.794C125.581 271.392 125.895 272.197 125.895 273.21C125.895 274.149 125.629 274.896 125.095 275.45C124.573 276.005 123.81 276.336 122.807 276.442L125.991 281.178H124.711ZM119.799 275.626H122.039C123.853 275.626 124.759 274.842 124.759 273.274C124.759 271.674 123.853 270.874 122.039 270.874H119.799V275.626ZM131.581 280.362C132.37 280.362 133.031 280.165 133.565 279.77C134.098 279.376 134.418 278.842 134.525 278.17H135.709C135.549 279.098 135.106 279.85 134.381 280.426C133.655 281.002 132.738 281.29 131.629 281.29C130.797 281.29 130.055 281.114 129.405 280.762C128.765 280.4 128.263 279.882 127.901 279.21C127.538 278.528 127.357 277.728 127.357 276.81C127.357 275.893 127.538 275.098 127.901 274.426C128.263 273.744 128.765 273.226 129.405 272.874C130.055 272.512 130.797 272.33 131.629 272.33C132.482 272.33 133.218 272.512 133.837 272.874C134.466 273.226 134.941 273.701 135.261 274.298C135.591 274.896 135.757 275.546 135.757 276.25C135.757 276.549 135.735 276.821 135.693 277.066H128.461C128.471 277.802 128.621 278.421 128.909 278.922C129.207 279.413 129.591 279.776 130.061 280.01C130.53 280.245 131.037 280.362 131.581 280.362ZM131.629 273.242C131.063 273.242 130.546 273.36 130.077 273.594C129.607 273.829 129.223 274.192 128.925 274.682C128.637 275.162 128.482 275.765 128.461 276.49H134.637C134.679 275.776 134.562 275.173 134.285 274.682C134.007 274.192 133.634 273.829 133.165 273.594C132.695 273.36 132.183 273.242 131.629 273.242ZM137.517 269.85C137.517 269.616 137.591 269.429 137.741 269.29C137.901 269.152 138.103 269.082 138.349 269.082C138.594 269.082 138.791 269.152 138.941 269.29C139.09 269.429 139.165 269.616 139.165 269.85C139.165 270.074 139.09 270.256 138.941 270.394C138.791 270.533 138.594 270.602 138.349 270.602C138.103 270.602 137.901 270.533 137.741 270.394C137.591 270.256 137.517 270.074 137.517 269.85ZM138.909 272.442V281.178H137.773V272.442H138.909ZM145.015 272.33C145.901 272.33 146.653 272.56 147.271 273.018C147.901 273.477 148.333 274.085 148.567 274.842V272.442H149.671V281.386C149.671 282.197 149.501 282.906 149.159 283.514C148.818 284.133 148.343 284.608 147.735 284.938C147.127 285.28 146.434 285.45 145.655 285.45C144.514 285.45 143.575 285.173 142.839 284.618C142.114 284.074 141.639 283.333 141.415 282.394H142.535C142.727 283.034 143.079 283.541 143.591 283.914C144.114 284.288 144.781 284.474 145.591 284.474C146.146 284.474 146.647 284.352 147.095 284.106C147.554 283.872 147.911 283.52 148.167 283.05C148.434 282.581 148.567 282.026 148.567 281.386V278.778C148.333 279.536 147.901 280.144 147.271 280.602C146.653 281.061 145.901 281.29 145.015 281.29C144.226 281.29 143.517 281.109 142.887 280.746C142.269 280.384 141.783 279.866 141.431 279.194C141.09 278.512 140.919 277.717 140.919 276.81C140.919 275.893 141.09 275.098 141.431 274.426C141.783 273.744 142.269 273.226 142.887 272.874C143.506 272.512 144.215 272.33 145.015 272.33ZM145.303 273.322C144.322 273.322 143.533 273.637 142.935 274.266C142.349 274.885 142.055 275.733 142.055 276.81C142.055 277.888 142.349 278.741 142.935 279.37C143.533 279.989 144.322 280.298 145.303 280.298C145.922 280.298 146.477 280.154 146.967 279.866C147.469 279.578 147.858 279.173 148.135 278.65C148.423 278.117 148.567 277.504 148.567 276.81C148.567 276.117 148.423 275.509 148.135 274.986C147.858 274.453 147.469 274.042 146.967 273.754C146.477 273.466 145.922 273.322 145.303 273.322ZM156.469 272.282C157.482 272.282 158.304 272.608 158.933 273.258C159.573 273.898 159.893 274.842 159.893 276.09V281.178H158.789V276.17C158.789 275.221 158.549 274.496 158.069 273.994C157.589 273.482 156.933 273.226 156.101 273.226C155.226 273.226 154.528 273.509 154.005 274.074C153.493 274.629 153.237 275.45 153.237 276.538V281.178H152.101V272.442H153.237V274.586C153.461 273.84 153.866 273.269 154.453 272.874C155.04 272.48 155.712 272.282 156.469 272.282ZM170.269 272.33C171.379 272.33 172.296 272.624 173.021 273.21C173.757 273.797 174.205 274.576 174.365 275.546H173.197C173.08 274.853 172.755 274.309 172.221 273.914C171.688 273.509 171.032 273.306 170.253 273.306C169.688 273.306 169.165 273.434 168.685 273.69C168.216 273.946 167.837 274.341 167.549 274.874C167.272 275.397 167.133 276.042 167.133 276.81C167.133 277.578 167.272 278.229 167.549 278.762C167.837 279.285 168.216 279.674 168.685 279.93C169.165 280.186 169.688 280.314 170.253 280.314C171.032 280.314 171.688 280.117 172.221 279.722C172.755 279.317 173.08 278.768 173.197 278.074H174.365C174.205 279.045 173.757 279.824 173.021 280.41C172.296 280.997 171.379 281.29 170.269 281.29C169.437 281.29 168.696 281.114 168.045 280.762C167.405 280.4 166.904 279.882 166.541 279.21C166.179 278.528 165.997 277.728 165.997 276.81C165.997 275.893 166.179 275.098 166.541 274.426C166.904 273.744 167.405 273.226 168.045 272.874C168.696 272.512 169.437 272.33 170.269 272.33ZM180.334 272.33C181.166 272.33 181.907 272.512 182.558 272.874C183.219 273.226 183.737 273.744 184.11 274.426C184.483 275.098 184.67 275.893 184.67 276.81C184.67 277.728 184.483 278.522 184.11 279.194C183.737 279.866 183.219 280.384 182.558 280.746C181.907 281.109 181.166 281.29 180.334 281.29C179.502 281.29 178.755 281.109 178.094 280.746C177.433 280.384 176.91 279.866 176.526 279.194C176.153 278.512 175.966 277.717 175.966 276.81C175.966 275.893 176.153 275.098 176.526 274.426C176.91 273.744 177.433 273.226 178.094 272.874C178.755 272.512 179.502 272.33 180.334 272.33ZM180.334 273.306C179.758 273.306 179.225 273.434 178.734 273.69C178.243 273.946 177.849 274.341 177.55 274.874C177.251 275.397 177.102 276.042 177.102 276.81C177.102 277.578 177.251 278.224 177.55 278.746C177.849 279.269 178.243 279.658 178.734 279.914C179.225 280.17 179.758 280.298 180.334 280.298C180.899 280.298 181.422 280.17 181.902 279.914C182.393 279.658 182.787 279.269 183.086 278.746C183.385 278.224 183.534 277.578 183.534 276.81C183.534 276.042 183.385 275.397 183.086 274.874C182.787 274.341 182.393 273.946 181.902 273.69C181.422 273.434 180.899 273.306 180.334 273.306ZM197.287 272.282C198.29 272.282 199.1 272.608 199.719 273.258C200.348 273.898 200.663 274.842 200.663 276.09V281.178H199.543V276.17C199.543 275.232 199.314 274.512 198.855 274.01C198.407 273.509 197.788 273.258 196.999 273.258C196.156 273.258 195.484 273.536 194.983 274.09C194.482 274.645 194.231 275.461 194.231 276.538V281.178H193.127V276.17C193.127 275.232 192.898 274.512 192.439 274.01C191.991 273.509 191.372 273.258 190.583 273.258C189.74 273.258 189.068 273.536 188.567 274.09C188.066 274.645 187.815 275.461 187.815 276.538V281.178H186.679V272.442H187.815V274.522C188.028 273.786 188.412 273.232 188.967 272.858C189.532 272.474 190.183 272.282 190.919 272.282C191.687 272.282 192.348 272.485 192.903 272.89C193.458 273.296 193.842 273.893 194.055 274.682C194.29 273.904 194.7 273.312 195.287 272.906C195.874 272.49 196.54 272.282 197.287 272.282ZM213.631 272.282C214.633 272.282 215.444 272.608 216.063 273.258C216.692 273.898 217.007 274.842 217.007 276.09V281.178H215.887V276.17C215.887 275.232 215.657 274.512 215.199 274.01C214.751 273.509 214.132 273.258 213.343 273.258C212.5 273.258 211.828 273.536 211.327 274.09C210.825 274.645 210.575 275.461 210.575 276.538V281.178H209.471V276.17C209.471 275.232 209.241 274.512 208.783 274.01C208.335 273.509 207.716 273.258 206.927 273.258C206.084 273.258 205.412 273.536 204.911 274.09C204.409 274.645 204.159 275.461 204.159 276.538V281.178H203.023V272.442H204.159V274.522C204.372 273.786 204.756 273.232 205.311 272.858C205.876 272.474 206.527 272.282 207.263 272.282C208.031 272.282 208.692 272.485 209.247 272.89C209.801 273.296 210.185 273.893 210.399 274.682C210.633 273.904 211.044 273.312 211.631 272.906C212.217 272.49 212.884 272.282 213.631 272.282ZM226.902 272.442V281.178H225.782V279.018C225.558 279.776 225.153 280.352 224.566 280.746C223.98 281.141 223.308 281.338 222.55 281.338C221.526 281.338 220.694 281.018 220.054 280.378C219.425 279.728 219.11 278.778 219.11 277.53V272.442H220.23V277.434C220.23 278.394 220.47 279.13 220.95 279.642C221.43 280.144 222.086 280.394 222.918 280.394C223.793 280.394 224.486 280.117 224.998 279.562C225.521 278.997 225.782 278.17 225.782 277.082V272.442H226.902ZM233.719 272.282C234.732 272.282 235.553 272.608 236.183 273.258C236.823 273.898 237.143 274.842 237.143 276.09V281.178H236.039V276.17C236.039 275.221 235.799 274.496 235.319 273.994C234.839 273.482 234.183 273.226 233.351 273.226C232.476 273.226 231.777 273.509 231.255 274.074C230.743 274.629 230.487 275.45 230.487 276.538V281.178H229.351V272.442H230.487V274.586C230.711 273.84 231.116 273.269 231.703 272.874C232.289 272.48 232.961 272.282 233.719 272.282ZM239.251 269.85C239.251 269.616 239.326 269.429 239.475 269.29C239.635 269.152 239.838 269.082 240.083 269.082C240.328 269.082 240.526 269.152 240.675 269.29C240.824 269.429 240.899 269.616 240.899 269.85C240.899 270.074 240.824 270.256 240.675 270.394C240.526 270.533 240.328 270.602 240.083 270.602C239.838 270.602 239.635 270.533 239.475 270.394C239.326 270.256 239.251 270.074 239.251 269.85ZM240.643 272.442V281.178H239.507V272.442H240.643ZM247.038 280.186V281.178H245.998C245.155 281.178 244.526 280.981 244.11 280.586C243.694 280.181 243.486 279.504 243.486 278.554V273.418H242.158V272.442H243.486V270.234H244.622V272.442H247.022V273.418H244.622V278.57C244.622 279.189 244.734 279.616 244.958 279.85C245.182 280.074 245.576 280.186 246.142 280.186H247.038ZM249.122 272.442L252.162 279.722L254.962 272.442H256.21L251.074 285.306H249.794L251.554 281.082L247.874 272.442H249.122Z" fill="white"/>
<defs>
<filter id="filter0_f" x="0.5802" y="65.9791" width="343" height="282.393" filterUnits="userSpaceOnUse" color-interpolation-filters="sRGB">
<feFlood flood-opacity="0" result="BackgroundImageFix"/>
<feBlend mode="normal" in="SourceGraphic" in2="BackgroundImageFix" result="shape"/>
<feGaussianBlur stdDeviation="7" result="effect1_foregroundBlur"/>
</filter>
<filter id="filter1_f" x="80.3203" y="73.3955" width="28.25" height="28.1672" filterUnits="userSpaceOnUse" color-interpolation-filters="sRGB">
<feFlood flood-opacity="0" result="BackgroundImageFix"/>
<feBlend mode="normal" in="SourceGraphic" in2="BackgroundImageFix" result="shape"/>
<feGaussianBlur stdDeviation="5.5" result="effect1_foregroundBlur"/>
</filter>
<filter id="filter2_f" x="235.783" y="73.3955" width="28.25" height="28.1672" filterUnits="userSpaceOnUse" color-interpolation-filters="sRGB">
<feFlood flood-opacity="0" result="BackgroundImageFix"/>
<feBlend mode="normal" in="SourceGraphic" in2="BackgroundImageFix" result="shape"/>
<feGaussianBlur stdDeviation="5.5" result="effect1_foregroundBlur"/>
</filter>
<filter id="filter3_f" x="13.0802" y="77.2456" width="318" height="257.393" filterUnits="userSpaceOnUse" color-interpolation-filters="sRGB">
<feFlood flood-opacity="0" result="BackgroundImageFix"/>
<feBlend mode="normal" in="SourceGraphic" in2="BackgroundImageFix" result="shape"/>
<feGaussianBlur stdDeviation="3" result="effect1_foregroundBlur"/>
</filter>
<filter id="filter4_f" x="88.6311" y="80.3955" width="11.75" height="11.7003" filterUnits="userSpaceOnUse" color-interpolation-filters="sRGB">
<feFlood flood-opacity="0" result="BackgroundImageFix"/>
<feBlend mode="normal" in="SourceGraphic" in2="BackgroundImageFix" result="shape"/>
<feGaussianBlur stdDeviation="2" result="effect1_foregroundBlur"/>
</filter>
<filter id="filter5_f" x="243.905" y="80.3955" width="11.75" height="11.7003" filterUnits="userSpaceOnUse" color-interpolation-filters="sRGB">
<feFlood flood-opacity="0" result="BackgroundImageFix"/>
<feBlend mode="normal" in="SourceGraphic" in2="BackgroundImageFix" result="shape"/>
<feGaussianBlur stdDeviation="2" result="effect1_foregroundBlur"/>
</filter>
<linearGradient id="paint0_linear" x1="287.092" y1="203.474" x2="50.7171" y2="203.713" gradientUnits="userSpaceOnUse">
<stop stop-color="#FF1640"/>
<stop offset="0.315399" stop-color="#FABA33"/>
<stop offset="0.573227" stop-color="#E9E031"/>
<stop offset="0.826995" stop-color="#45F273"/>
<stop offset="1" stop-color="#30FFE9"/>
</linearGradient>
<linearGradient id="paint1_linear" x1="287.092" y1="202.24" x2="50.7171" y2="202.479" gradientUnits="userSpaceOnUse">
<stop stop-color="#FF1640"/>
<stop offset="0.315399" stop-color="#FABA33"/>
<stop offset="0.573227" stop-color="#E9E031"/>
<stop offset="0.826995" stop-color="#45F273"/>
<stop offset="1" stop-color="#30FFE9"/>
</linearGradient>
</defs>
</svg>
