<svg width="344" height="349" viewBox="0 0 344 349" fill="none" xmlns="http://www.w3.org/2000/svg">
<g filter="url(#filter0_f)">
<path d="M52.0802 87.4791V94.9791V87.4791ZM314.58 117.479V296.872H329.58V117.479H314.58ZM292.08 319.372H52.0802V334.372H292.08V319.372ZM29.5802 296.872V117.479H14.5802V296.872H29.5802ZM52.0802 94.9791H94.4913V79.9791H52.0802V94.9791ZM249.79 94.9792H292.08V79.9792H249.79V94.9792ZM52.0802 319.372C39.6538 319.372 29.5802 309.299 29.5802 296.872H14.5802C14.5802 317.583 31.3695 334.372 52.0802 334.372V319.372ZM314.58 296.872C314.58 309.299 304.507 319.372 292.08 319.372V334.372C312.791 334.372 329.58 317.583 329.58 296.872H314.58ZM329.58 117.479C329.58 96.7685 312.791 79.9792 292.08 79.9792V94.9792C304.507 94.9792 314.58 105.053 314.58 117.479H329.58ZM29.5802 117.479C29.5802 105.053 39.6538 94.9791 52.0802 94.9791V79.9791C31.3695 79.9791 14.5802 96.7685 14.5802 117.479H29.5802Z" fill="url(#paint0_linear)"/>
</g>
<g filter="url(#filter1_f)">
<path d="M94.4453 90.5627C96.1712 90.5627 97.5703 89.1821 97.5703 87.4791C97.5703 85.7761 96.1712 84.3955 94.4453 84.3955C92.7194 84.3955 91.3203 85.7761 91.3203 87.4791C91.3203 89.1821 92.7194 90.5627 94.4453 90.5627Z" fill="#48F272"/>
</g>
<g filter="url(#filter2_f)">
<path d="M249.908 90.5627C251.634 90.5627 253.033 89.1821 253.033 87.4791C253.033 85.7761 251.634 84.3955 249.908 84.3955C248.182 84.3955 246.783 85.7761 246.783 87.4791C246.783 89.1821 248.182 90.5627 249.908 90.5627Z" fill="#FD6461"/>
</g>
<g filter="url(#filter3_f)">
<path d="M52.0802 86.2456V83.2456V86.2456ZM319.08 116.246V295.639H325.08V116.246H319.08ZM292.08 322.639H52.0802V328.639H292.08V322.639ZM25.0802 295.639V116.246H19.0802V295.639H25.0802ZM52.0802 89.2456H94.4913V83.2456H52.0802V89.2456ZM249.79 89.2456H292.08V83.2456H249.79V89.2456ZM52.0802 322.639C37.1685 322.639 25.0802 310.551 25.0802 295.639H19.0802C19.0802 313.864 33.8548 328.639 52.0802 328.639V322.639ZM319.08 295.639C319.08 310.551 306.992 322.639 292.08 322.639V328.639C310.306 328.639 325.08 313.864 325.08 295.639H319.08ZM325.08 116.246C325.08 98.0202 310.306 83.2456 292.08 83.2456V89.2456C306.992 89.2456 319.08 101.334 319.08 116.246H325.08ZM25.0802 116.246C25.0802 101.334 37.1685 89.2456 52.0802 89.2456V83.2456C33.8548 83.2456 19.0802 98.0202 19.0802 116.246H25.0802Z" fill="url(#paint1_linear)"/>
</g>
<g filter="url(#filter4_f)">
<path d="M94.5061 88.0958C95.5416 88.0958 96.3811 87.2675 96.3811 86.2457C96.3811 85.2239 95.5416 84.3956 94.5061 84.3956C93.4706 84.3956 92.6311 85.2239 92.6311 86.2457C92.6311 87.2675 93.4706 88.0958 94.5061 88.0958Z" fill="#48F272"/>
</g>
<g filter="url(#filter5_f)">
<path d="M249.78 88.0958C250.816 88.0958 251.655 87.2675 251.655 86.2457C251.655 85.2239 250.816 84.3956 249.78 84.3956C248.744 84.3956 247.905 85.2239 247.905 86.2457C247.905 87.2675 248.744 88.0958 249.78 88.0958Z" fill="#FD6461"/>
</g>
<path d="M52.0802 86.2456V85.2456V86.2456ZM321.08 116.246V295.639H323.08V116.246H321.08ZM292.08 324.639H52.0802V326.639H292.08V324.639ZM23.0802 295.639V116.246H21.0802V295.639H23.0802ZM52.0802 87.2456H94.4913V85.2456H52.0802V87.2456ZM249.79 87.2456H292.08V85.2456H249.79V87.2456ZM52.0802 324.639C36.0639 324.639 23.0802 311.655 23.0802 295.639H21.0802C21.0802 312.76 34.9594 326.639 52.0802 326.639V324.639ZM321.08 295.639C321.08 311.655 308.096 324.639 292.08 324.639V326.639C309.201 326.639 323.08 312.76 323.08 295.639H321.08ZM323.08 116.246C323.08 99.1248 309.201 85.2456 292.08 85.2456V87.2456C308.096 87.2456 321.08 100.229 321.08 116.246H323.08ZM23.0802 116.246C23.0802 100.229 36.0639 87.2456 52.0802 87.2456V85.2456C34.9594 85.2456 21.0802 99.1248 21.0802 116.246H23.0802Z" fill="white"/>
<path d="M94.4453 87.2456C94.9976 87.2456 95.4453 86.7979 95.4453 86.2456C95.4453 85.6933 94.9976 85.2456 94.4453 85.2456C93.893 85.2456 93.4453 85.6933 93.4453 86.2456C93.4453 86.7979 93.893 87.2456 94.4453 87.2456Z" fill="white"/>
<path d="M249.908 87.2456C250.468 87.2456 250.921 86.7979 250.921 86.2456C250.921 85.6933 250.468 85.2456 249.908 85.2456C249.348 85.2456 248.895 85.6933 248.895 86.2456C248.895 86.7979 249.348 87.2456 249.908 87.2456Z" fill="white"/>
<path fill-rule="evenodd" clip-rule="evenodd" d="M186.978 91.6992C186.978 101.022 180.069 108.286 171.892 108.286C163.715 108.286 156.806 101.022 156.806 91.6992C156.806 82.3767 163.715 75.1125 171.892 75.1125C180.069 75.1125 186.978 82.3767 186.978 91.6992ZM172.917 110.253C175.179 110.107 177.322 109.483 179.263 108.472V113.153C179.263 113.705 179.711 114.153 180.263 114.153C180.815 114.153 181.263 113.705 181.263 113.153V107.724C181.263 107.575 181.231 107.434 181.173 107.308C185.87 103.996 188.978 98.2422 188.978 91.6992C188.978 85.2198 185.93 79.5148 181.309 76.1881C181.328 76.1118 181.338 76.032 181.338 75.9499V70.5207C181.338 69.9684 180.89 69.5207 180.338 69.5207C179.786 69.5207 179.338 69.9684 179.338 70.5207V74.9655C177.37 73.9276 175.192 73.2882 172.892 73.1438V70.3979C172.892 69.8456 172.444 69.3979 171.892 69.3979C171.34 69.3979 170.892 69.8456 170.892 70.3979V73.1438C168.637 73.2853 166.5 73.9025 164.563 74.9043V70.5207C164.563 69.9684 164.116 69.5207 163.563 69.5207C163.011 69.5207 162.563 69.9684 162.563 70.5207V75.9499C162.563 76.0062 162.568 76.0614 162.577 76.1152C157.899 79.4311 154.806 85.1722 154.806 91.6992C154.806 98.2309 157.903 103.976 162.587 107.29C162.524 107.422 162.489 107.569 162.489 107.724V113.153C162.489 113.705 162.936 114.153 163.489 114.153C164.041 114.153 164.489 113.705 164.489 113.153V108.455C166.462 109.489 168.645 110.122 170.951 110.258C170.94 110.317 170.934 110.377 170.934 110.439V113.276C170.934 113.828 171.382 114.276 171.934 114.276C172.487 114.276 172.934 113.828 172.934 113.276V110.439C172.934 110.375 172.928 110.313 172.917 110.253ZM210.32 97.5173C213.534 97.5173 216.138 94.9124 216.138 91.6992C216.138 88.4859 213.534 85.8811 210.32 85.8811C207.107 85.8811 204.502 88.4859 204.502 91.6992C204.502 94.9124 207.107 97.5173 210.32 97.5173ZM210.32 99.5173C214.638 99.5173 218.138 96.017 218.138 91.6992C218.138 87.3813 214.638 83.8811 210.32 83.8811C206.002 83.8811 202.502 87.3813 202.502 91.6992C202.502 96.017 206.002 99.5173 210.32 99.5173ZM139.282 91.6992C139.282 94.9124 136.677 97.5173 133.463 97.5173C130.25 97.5173 127.645 94.9124 127.645 91.6992C127.645 88.4859 130.25 85.8811 133.463 85.8811C136.677 85.8811 139.282 88.4859 139.282 91.6992ZM141.282 91.6992C141.282 96.017 137.781 99.5173 133.463 99.5173C129.146 99.5173 125.645 96.017 125.645 91.6992C125.645 87.3813 129.146 83.8811 133.463 83.8811C137.781 83.8811 141.282 87.3813 141.282 91.6992ZM146.679 69.5207C147.231 69.5207 147.679 69.9684 147.679 70.5207V76.378C147.679 76.9303 147.231 77.378 146.679 77.378C146.126 77.378 145.679 76.9303 145.679 76.378V70.5207C145.679 69.9684 146.126 69.5207 146.679 69.5207ZM196.148 113.153C196.148 113.705 196.596 114.153 197.148 114.153C197.7 114.153 198.148 113.705 198.148 113.153V107.296C198.148 106.744 197.7 106.296 197.148 106.296C196.596 106.296 196.148 106.744 196.148 107.296V113.153ZM155.04 69.5207C155.592 69.5207 156.04 69.9684 156.04 70.5207V76.378C156.04 76.9303 155.592 77.378 155.04 77.378C154.487 77.378 154.04 76.9303 154.04 76.378V70.5207C154.04 69.9684 154.487 69.5207 155.04 69.5207ZM187.787 113.153C187.787 113.705 188.234 114.153 188.787 114.153C189.339 114.153 189.787 113.705 189.787 113.153V107.296C189.787 106.744 189.339 106.296 188.787 106.296C188.234 106.296 187.787 106.744 187.787 107.296V113.153ZM188.978 69.5207C189.53 69.5207 189.978 69.9684 189.978 70.5207V76.3781C189.978 76.9304 189.53 77.3781 188.978 77.3781C188.426 77.3781 187.978 76.9304 187.978 76.3781V70.5207C187.978 69.9684 188.426 69.5207 188.978 69.5207ZM153.848 113.153C153.848 113.705 154.296 114.153 154.848 114.153C155.401 114.153 155.848 113.705 155.848 113.153V107.296C155.848 106.743 155.401 106.296 154.848 106.296C154.296 106.296 153.848 106.743 153.848 107.296V113.153ZM197.19 69.5207C197.742 69.5207 198.19 69.9684 198.19 70.5207V76.3781C198.19 76.9304 197.742 77.3781 197.19 77.3781C196.638 77.3781 196.19 76.9304 196.19 76.3781V70.5207C196.19 69.9684 196.638 69.5207 197.19 69.5207ZM145.636 113.153C145.636 113.705 146.084 114.153 146.636 114.153C147.189 114.153 147.636 113.705 147.636 113.153V107.296C147.636 106.743 147.189 106.296 146.636 106.296C146.084 106.296 145.636 106.743 145.636 107.296V113.153ZM127.288 110.653C127.288 110.101 127.736 109.653 128.288 109.653H139.801C140.353 109.653 140.801 110.101 140.801 110.653C140.801 111.205 140.353 111.653 139.801 111.653H128.288C127.736 111.653 127.288 111.205 127.288 110.653ZM128.288 72.4494C127.736 72.4494 127.288 72.8971 127.288 73.4494C127.288 74.0016 127.736 74.4494 128.288 74.4494H139.801C140.353 74.4494 140.801 74.0016 140.801 73.4494C140.801 72.8971 140.353 72.4494 139.801 72.4494H128.288ZM202.965 73.4494C202.965 72.8971 203.413 72.4494 203.965 72.4494H215.478C216.03 72.4494 216.478 72.8971 216.478 73.4494C216.478 74.0016 216.03 74.4494 215.478 74.4494H203.965C203.413 74.4494 202.965 74.0016 202.965 73.4494ZM203.965 109.653C203.413 109.653 202.965 110.101 202.965 110.653C202.965 111.205 203.413 111.653 203.965 111.653H215.478C216.03 111.653 216.478 111.205 216.478 110.653C216.478 110.101 216.03 109.653 215.478 109.653H203.965ZM146.636 43.2952C150.27 43.2952 153.216 40.3492 153.216 36.7151C153.216 33.0811 150.27 30.1351 146.636 30.1351C143.002 30.1351 140.056 33.0811 140.056 36.7151C140.056 40.3492 143.002 43.2952 146.636 43.2952ZM146.636 45.2952C151.375 45.2952 155.216 41.4538 155.216 36.7151C155.216 31.9765 151.375 28.1351 146.636 28.1351C141.898 28.1351 138.056 31.9765 138.056 36.7151C138.056 41.4538 141.898 45.2952 146.636 45.2952ZM203.77 36.7151C203.77 40.3492 200.824 43.2952 197.19 43.2952C193.556 43.2952 190.61 40.3492 190.61 36.7151C190.61 33.0811 193.556 30.1351 197.19 30.1351C200.824 30.1351 203.77 33.0811 203.77 36.7151ZM205.77 36.7151C205.77 41.4538 201.929 45.2952 197.19 45.2952C192.452 45.2952 188.61 41.4538 188.61 36.7151C188.61 31.9765 192.452 28.1351 197.19 28.1351C201.929 28.1351 205.77 31.9765 205.77 36.7151ZM171.683 39.7016C176.229 39.7016 179.914 36.0166 179.914 31.4709C179.914 26.9252 176.229 23.2402 171.683 23.2402C167.137 23.2402 163.452 26.9252 163.452 31.4709C163.452 36.0166 167.137 39.7016 171.683 39.7016ZM171.683 41.7016C177.333 41.7016 181.914 37.1212 181.914 31.4709C181.914 25.8207 177.333 21.2402 171.683 21.2402C166.033 21.2402 161.452 25.8207 161.452 31.4709C161.452 37.1212 166.033 41.7016 171.683 41.7016ZM188.824 63.4379V63.867H154.505V63.4379C154.505 53.9612 162.188 46.2788 171.664 46.2788C181.141 46.2788 188.824 53.9612 188.824 63.4379ZM152.505 63.4379C152.505 52.8566 161.083 44.2788 171.664 44.2788C177.807 44.2788 183.274 47.1695 186.781 51.6648C189.484 49.4683 192.932 48.1519 196.687 48.1519C205.367 48.1519 212.405 55.1872 212.408 63.867V63.8737V64.0656H218.735C221.497 64.0656 223.735 66.3042 223.735 69.0656V115C223.735 117.762 221.497 120 218.735 120H125.425C122.664 120 120.425 117.762 120.425 115V69.0656C120.425 66.3042 122.664 64.0656 125.425 64.0656H130.891V63.8737V63.867C130.894 55.1872 137.932 48.1519 146.612 48.1519C150.182 48.1519 153.474 49.3417 156.113 51.3463C155.723 51.8881 155.36 52.4512 155.026 53.0334C152.703 51.2274 149.783 50.1519 146.612 50.1519C139.036 50.1519 132.894 56.2918 132.891 63.867H152.505V63.4379ZM190.824 63.867V63.4379C190.824 59.7189 189.764 56.2474 187.93 53.3088C190.306 51.3372 193.358 50.1519 196.687 50.1519C204.263 50.1519 210.405 56.2918 210.408 63.867H190.824ZM218.735 66.0656H125.425C123.768 66.0656 122.425 67.4088 122.425 69.0656V115C122.425 116.657 123.768 118 125.425 118H218.735C220.392 118 221.735 116.657 221.735 115V69.0656C221.735 67.4088 220.392 66.0656 218.735 66.0656Z" fill="white"/>
<path d="M86.7482 159.789C88.9082 159.789 90.6922 160.357 92.1002 161.493C93.5242 162.629 94.4442 164.165 94.8602 166.101H90.5162C90.1962 165.317 89.7002 164.701 89.0282 164.253C88.3722 163.805 87.5882 163.581 86.6762 163.581C85.4762 163.581 84.5082 164.021 83.7722 164.901C83.0362 165.781 82.6682 166.957 82.6682 168.429C82.6682 169.901 83.0362 171.077 83.7722 171.957C84.5082 172.821 85.4762 173.253 86.6762 173.253C87.5882 173.253 88.3722 173.029 89.0282 172.581C89.7002 172.133 90.1962 171.525 90.5162 170.757H94.8602C94.4442 172.677 93.5242 174.213 92.1002 175.365C90.6922 176.501 88.9082 177.069 86.7482 177.069C85.1002 177.069 83.6522 176.709 82.4042 175.989C81.1562 175.253 80.1882 174.229 79.5002 172.917C78.8282 171.605 78.4922 170.109 78.4922 168.429C78.4922 166.749 78.8282 165.253 79.5002 163.941C80.1882 162.629 81.1562 161.613 82.4042 160.893C83.6522 160.157 85.1002 159.789 86.7482 159.789ZM101.264 166.053C101.776 165.237 102.432 164.589 103.232 164.109C104.048 163.629 104.928 163.389 105.872 163.389V167.781H104.696C103.608 167.781 102.76 168.013 102.152 168.477C101.56 168.941 101.264 169.725 101.264 170.829V176.925H97.1603V163.533H101.264V166.053ZM113.854 163.365C115.182 163.365 116.366 163.645 117.406 164.205C118.462 164.749 119.286 165.541 119.878 166.581C120.486 167.621 120.79 168.837 120.79 170.229C120.79 171.621 120.486 172.837 119.878 173.877C119.286 174.917 118.462 175.717 117.406 176.277C116.366 176.821 115.182 177.093 113.854 177.093C112.526 177.093 111.334 176.821 110.278 176.277C109.222 175.717 108.39 174.917 107.782 173.877C107.19 172.837 106.894 171.621 106.894 170.229C106.894 168.837 107.19 167.621 107.782 166.581C108.39 165.541 109.222 164.749 110.278 164.205C111.334 163.645 112.526 163.365 113.854 163.365ZM113.854 166.917C113.07 166.917 112.406 167.205 111.862 167.781C111.334 168.341 111.07 169.157 111.07 170.229C111.07 171.301 111.334 172.117 111.862 172.677C112.406 173.237 113.07 173.517 113.854 173.517C114.638 173.517 115.294 173.237 115.822 172.677C116.35 172.117 116.614 171.301 116.614 170.229C116.614 169.157 116.35 168.341 115.822 167.781C115.294 167.205 114.638 166.917 113.854 166.917ZM142.502 163.533L139.07 176.925H134.486L132.062 167.949L129.614 176.925H125.03L121.598 163.533H125.702L127.478 173.181L129.974 163.533H134.342L136.91 173.205L138.686 163.533H142.502ZM149.076 163.365C150.1 163.365 150.98 163.597 151.716 164.061C152.452 164.525 152.988 165.157 153.324 165.957V159.165H157.428V176.925H153.324V174.501C152.988 175.301 152.452 175.933 151.716 176.397C150.98 176.861 150.1 177.093 149.076 177.093C147.972 177.093 146.98 176.821 146.1 176.277C145.236 175.717 144.548 174.917 144.036 173.877C143.54 172.837 143.292 171.621 143.292 170.229C143.292 168.821 143.54 167.605 144.036 166.581C144.548 165.541 145.236 164.749 146.1 164.205C146.98 163.645 147.972 163.365 149.076 163.365ZM150.396 166.965C149.516 166.965 148.804 167.253 148.26 167.829C147.732 168.405 147.468 169.205 147.468 170.229C147.468 171.253 147.732 172.053 148.26 172.629C148.804 173.205 149.516 173.493 150.396 173.493C151.26 173.493 151.964 173.197 152.508 172.605C153.068 172.013 153.348 171.221 153.348 170.229C153.348 169.221 153.068 168.429 152.508 167.853C151.964 167.261 151.26 166.965 150.396 166.965ZM188.123 159.957L184.067 176.925H178.979L176.267 165.573L173.531 176.925H168.443L164.387 159.957H168.851L171.035 172.245L174.011 159.957H178.499L181.475 172.245L183.683 159.957H188.123ZM189.893 159.765C189.893 159.141 190.117 158.629 190.565 158.229C191.013 157.813 191.605 157.605 192.341 157.605C193.077 157.605 193.669 157.813 194.117 158.229C194.565 158.629 194.789 159.141 194.789 159.765C194.789 160.373 194.565 160.885 194.117 161.301C193.669 161.701 193.077 161.901 192.341 161.901C191.605 161.901 191.013 161.701 190.565 161.301C190.117 160.885 189.893 160.373 189.893 159.765ZM194.381 163.533V176.925H190.277V163.533H194.381ZM202.087 163.365C203.783 163.365 205.135 163.789 206.143 164.637C207.167 165.485 207.807 166.605 208.063 167.997H204.223C204.111 167.453 203.855 167.029 203.455 166.725C203.071 166.405 202.583 166.245 201.991 166.245C201.527 166.245 201.175 166.349 200.935 166.557C200.695 166.749 200.575 167.029 200.575 167.397C200.575 167.813 200.791 168.125 201.223 168.333C201.671 168.541 202.367 168.749 203.311 168.957C204.335 169.197 205.175 169.445 205.831 169.701C206.487 169.941 207.055 170.341 207.535 170.901C208.015 171.461 208.255 172.213 208.255 173.157C208.255 173.925 208.047 174.605 207.631 175.197C207.215 175.789 206.615 176.253 205.831 176.589C205.047 176.925 204.119 177.093 203.047 177.093C201.239 177.093 199.791 176.693 198.703 175.893C197.615 175.093 196.951 173.949 196.711 172.461H200.671C200.735 173.037 200.975 173.477 201.391 173.781C201.823 174.085 202.375 174.237 203.047 174.237C203.511 174.237 203.863 174.133 204.103 173.925C204.343 173.701 204.463 173.413 204.463 173.061C204.463 172.597 204.239 172.269 203.791 172.077C203.359 171.869 202.647 171.653 201.655 171.429C200.663 171.221 199.847 170.997 199.207 170.757C198.567 170.517 198.015 170.133 197.551 169.605C197.087 169.061 196.855 168.325 196.855 167.397C196.855 166.197 197.311 165.229 198.223 164.493C199.135 163.741 200.423 163.365 202.087 163.365ZM215.615 163.365C216.639 163.365 217.519 163.597 218.255 164.061C218.991 164.525 219.527 165.157 219.863 165.957V159.165H223.967V176.925H219.863V174.501C219.527 175.301 218.991 175.933 218.255 176.397C217.519 176.861 216.639 177.093 215.615 177.093C214.511 177.093 213.519 176.821 212.639 176.277C211.775 175.717 211.087 174.917 210.575 173.877C210.079 172.837 209.831 171.621 209.831 170.229C209.831 168.821 210.079 167.605 210.575 166.581C211.087 165.541 211.775 164.749 212.639 164.205C213.519 163.645 214.511 163.365 215.615 163.365ZM216.935 166.965C216.055 166.965 215.343 167.253 214.799 167.829C214.271 168.405 214.007 169.205 214.007 170.229C214.007 171.253 214.271 172.053 214.799 172.629C215.343 173.205 216.055 173.493 216.935 173.493C217.799 173.493 218.503 173.197 219.047 172.605C219.607 172.013 219.887 171.221 219.887 170.229C219.887 169.221 219.607 168.429 219.047 167.853C218.503 167.261 217.799 166.965 216.935 166.965ZM233.057 163.365C234.385 163.365 235.569 163.645 236.609 164.205C237.665 164.749 238.489 165.541 239.081 166.581C239.689 167.621 239.993 168.837 239.993 170.229C239.993 171.621 239.689 172.837 239.081 173.877C238.489 174.917 237.665 175.717 236.609 176.277C235.569 176.821 234.385 177.093 233.057 177.093C231.729 177.093 230.537 176.821 229.481 176.277C228.425 175.717 227.593 174.917 226.985 173.877C226.393 172.837 226.097 171.621 226.097 170.229C226.097 168.837 226.393 167.621 226.985 166.581C227.593 165.541 228.425 164.749 229.481 164.205C230.537 163.645 231.729 163.365 233.057 163.365ZM233.057 166.917C232.273 166.917 231.609 167.205 231.065 167.781C230.537 168.341 230.273 169.157 230.273 170.229C230.273 171.301 230.537 172.117 231.065 172.677C231.609 173.237 232.273 173.517 233.057 173.517C233.841 173.517 234.497 173.237 235.025 172.677C235.553 172.117 235.817 171.301 235.817 170.229C235.817 169.157 235.553 168.341 235.025 167.781C234.497 167.205 233.841 166.917 233.057 166.917ZM259.473 163.389C261.121 163.389 262.417 163.901 263.361 164.925C264.305 165.933 264.777 167.341 264.777 169.149V176.925H260.697V169.629C260.697 168.781 260.465 168.125 260.001 167.661C259.553 167.181 258.937 166.941 258.153 166.941C257.337 166.941 256.689 167.197 256.209 167.709C255.745 168.205 255.513 168.909 255.513 169.821V176.925H251.409V169.629C251.409 168.781 251.185 168.125 250.737 167.661C250.289 167.181 249.673 166.941 248.889 166.941C248.073 166.941 247.425 167.189 246.945 167.685C246.465 168.181 246.225 168.893 246.225 169.821V176.925H242.121V163.533H246.225V165.813C246.577 165.061 247.113 164.469 247.833 164.037C248.569 163.605 249.425 163.389 250.401 163.389C251.425 163.389 252.329 163.629 253.113 164.109C253.897 164.573 254.489 165.245 254.889 166.125C255.353 165.293 255.985 164.629 256.785 164.133C257.601 163.637 258.497 163.389 259.473 163.389Z" fill="white"/>
<path d="M100.238 196.418V197.462H96.7455V209H95.4855V197.462H91.9755V196.418H100.238ZM106.907 198.992C107.651 198.992 108.317 199.148 108.905 199.46C109.505 199.772 109.973 200.252 110.309 200.9C110.657 201.536 110.831 202.316 110.831 203.24V209H109.589V203.384C109.589 202.316 109.319 201.5 108.779 200.936C108.251 200.372 107.525 200.09 106.601 200.09C105.653 200.09 104.897 200.39 104.333 200.99C103.769 201.59 103.487 202.472 103.487 203.636V209H102.227V195.68H103.487V200.846C103.799 200.258 104.255 199.802 104.855 199.478C105.467 199.154 106.151 198.992 106.907 198.992ZM122.51 203.582C122.51 204.014 122.498 204.344 122.474 204.572H114.32C114.356 205.316 114.536 205.952 114.86 206.48C115.184 207.008 115.61 207.41 116.138 207.686C116.666 207.95 117.242 208.082 117.866 208.082C118.682 208.082 119.366 207.884 119.918 207.488C120.482 207.092 120.854 206.558 121.034 205.886H122.366C122.126 206.846 121.61 207.632 120.818 208.244C120.038 208.844 119.054 209.144 117.866 209.144C116.942 209.144 116.114 208.94 115.382 208.532C114.65 208.112 114.074 207.524 113.654 206.768C113.246 206 113.042 205.106 113.042 204.086C113.042 203.066 113.246 202.172 113.654 201.404C114.062 200.636 114.632 200.048 115.364 199.64C116.096 199.232 116.93 199.028 117.866 199.028C118.802 199.028 119.618 199.232 120.314 199.64C121.022 200.048 121.562 200.6 121.934 201.296C122.318 201.98 122.51 202.742 122.51 203.582ZM121.232 203.546C121.244 202.814 121.094 202.19 120.782 201.674C120.482 201.158 120.068 200.768 119.54 200.504C119.012 200.24 118.436 200.108 117.812 200.108C116.876 200.108 116.078 200.408 115.418 201.008C114.758 201.608 114.392 202.454 114.32 203.546H121.232ZM133.57 209.126C132.742 209.126 132.01 208.982 131.374 208.694C130.75 208.406 130.258 208.004 129.898 207.488C129.538 206.972 129.346 206.396 129.322 205.76H130.654C130.714 206.372 130.984 206.912 131.464 207.38C131.944 207.836 132.646 208.064 133.57 208.064C134.422 208.064 135.094 207.848 135.586 207.416C136.09 206.972 136.342 206.414 136.342 205.742C136.342 205.202 136.204 204.77 135.928 204.446C135.652 204.11 135.31 203.864 134.902 203.708C134.494 203.54 133.93 203.36 133.21 203.168C132.37 202.94 131.704 202.718 131.212 202.502C130.72 202.286 130.3 201.95 129.952 201.494C129.604 201.038 129.43 200.42 129.43 199.64C129.43 198.992 129.598 198.416 129.934 197.912C130.27 197.396 130.744 196.994 131.356 196.706C131.968 196.418 132.67 196.274 133.462 196.274C134.626 196.274 135.562 196.562 136.27 197.138C136.99 197.702 137.404 198.434 137.512 199.334H136.144C136.06 198.818 135.778 198.362 135.298 197.966C134.818 197.558 134.17 197.354 133.354 197.354C132.598 197.354 131.968 197.558 131.464 197.966C130.96 198.362 130.708 198.908 130.708 199.604C130.708 200.132 130.846 200.558 131.122 200.882C131.398 201.206 131.74 201.452 132.148 201.62C132.568 201.788 133.132 201.968 133.84 202.16C134.656 202.388 135.316 202.616 135.82 202.844C136.324 203.06 136.75 203.396 137.098 203.852C137.446 204.308 137.62 204.92 137.62 205.688C137.62 206.276 137.464 206.834 137.152 207.362C136.84 207.89 136.378 208.316 135.766 208.64C135.154 208.964 134.422 209.126 133.57 209.126ZM145.707 209.126C144.543 209.126 143.487 208.856 142.539 208.316C141.591 207.764 140.841 207.002 140.289 206.03C139.749 205.046 139.479 203.936 139.479 202.7C139.479 201.464 139.749 200.36 140.289 199.388C140.841 198.404 141.591 197.642 142.539 197.102C143.487 196.55 144.543 196.274 145.707 196.274C146.883 196.274 147.945 196.55 148.893 197.102C149.841 197.642 150.585 198.404 151.125 199.388C151.665 200.36 151.935 201.464 151.935 202.7C151.935 203.936 151.665 205.046 151.125 206.03C150.585 207.002 149.841 207.764 148.893 208.316C147.945 208.856 146.883 209.126 145.707 209.126ZM145.707 208.028C146.643 208.028 147.483 207.812 148.227 207.38C148.971 206.948 149.559 206.33 149.991 205.526C150.423 204.71 150.639 203.768 150.639 202.7C150.639 201.632 150.423 200.696 149.991 199.892C149.559 199.088 148.971 198.47 148.227 198.038C147.483 197.606 146.643 197.39 145.707 197.39C144.771 197.39 143.931 197.606 143.187 198.038C142.443 198.47 141.855 199.088 141.423 199.892C140.991 200.696 140.775 201.632 140.775 202.7C140.775 203.768 140.991 204.71 141.423 205.526C141.855 206.33 142.443 206.948 143.187 207.38C143.931 207.812 144.771 208.028 145.707 208.028ZM164.213 196.418L159.443 209H158.003L153.233 196.418H154.601L158.723 207.632L162.881 196.418H164.213ZM172.287 201.35C172.611 200.666 173.109 200.108 173.781 199.676C174.465 199.244 175.269 199.028 176.193 199.028C177.093 199.028 177.897 199.238 178.605 199.658C179.313 200.066 179.865 200.654 180.261 201.422C180.669 202.178 180.873 203.06 180.873 204.068C180.873 205.076 180.669 205.964 180.261 206.732C179.865 207.5 179.307 208.094 178.587 208.514C177.879 208.934 177.081 209.144 176.193 209.144C175.257 209.144 174.447 208.934 173.763 208.514C173.091 208.082 172.599 207.524 172.287 206.84V209H171.045V195.68H172.287V201.35ZM179.595 204.068C179.595 203.252 179.433 202.55 179.109 201.962C178.797 201.362 178.365 200.906 177.813 200.594C177.261 200.282 176.637 200.126 175.941 200.126C175.269 200.126 174.651 200.288 174.087 200.612C173.535 200.936 173.097 201.398 172.773 201.998C172.449 202.598 172.287 203.294 172.287 204.086C172.287 204.878 172.449 205.574 172.773 206.174C173.097 206.774 173.535 207.236 174.087 207.56C174.651 207.884 175.269 208.046 175.941 208.046C176.637 208.046 177.261 207.89 177.813 207.578C178.365 207.254 178.797 206.792 179.109 206.192C179.433 205.58 179.595 204.872 179.595 204.068ZM182.616 204.068C182.616 203.06 182.814 202.178 183.21 201.422C183.618 200.654 184.176 200.066 184.884 199.658C185.604 199.238 186.414 199.028 187.314 199.028C188.25 199.028 189.054 199.244 189.726 199.676C190.41 200.108 190.902 200.66 191.202 201.332V199.172H192.462V209H191.202V206.822C190.89 207.494 190.392 208.052 189.708 208.496C189.036 208.928 188.232 209.144 187.296 209.144C186.408 209.144 185.604 208.934 184.884 208.514C184.176 208.094 183.618 207.5 183.21 206.732C182.814 205.964 182.616 205.076 182.616 204.068ZM191.202 204.086C191.202 203.294 191.04 202.598 190.716 201.998C190.392 201.398 189.948 200.936 189.384 200.612C188.832 200.288 188.22 200.126 187.548 200.126C186.852 200.126 186.228 200.282 185.676 200.594C185.124 200.906 184.686 201.362 184.362 201.962C184.05 202.55 183.894 203.252 183.894 204.068C183.894 204.872 184.05 205.58 184.362 206.192C184.686 206.792 185.124 207.254 185.676 207.578C186.228 207.89 186.852 208.046 187.548 208.046C188.22 208.046 188.832 207.884 189.384 207.56C189.948 207.236 190.392 206.774 190.716 206.174C191.04 205.574 191.202 204.878 191.202 204.086ZM198.722 209.144C197.594 209.144 196.67 208.886 195.95 208.37C195.242 207.842 194.846 207.128 194.762 206.228H196.058C196.118 206.78 196.376 207.23 196.832 207.578C197.3 207.914 197.924 208.082 198.704 208.082C199.388 208.082 199.922 207.92 200.306 207.596C200.702 207.272 200.9 206.87 200.9 206.39C200.9 206.054 200.792 205.778 200.576 205.562C200.36 205.346 200.084 205.178 199.748 205.058C199.424 204.926 198.98 204.788 198.416 204.644C197.684 204.452 197.09 204.26 196.634 204.068C196.178 203.876 195.788 203.594 195.464 203.222C195.152 202.838 194.996 202.328 194.996 201.692C194.996 201.212 195.14 200.768 195.428 200.36C195.716 199.952 196.124 199.628 196.652 199.388C197.18 199.148 197.78 199.028 198.452 199.028C199.508 199.028 200.36 199.298 201.008 199.838C201.656 200.366 202.004 201.098 202.052 202.034H200.792C200.756 201.458 200.528 200.996 200.108 200.648C199.7 200.288 199.136 200.108 198.416 200.108C197.78 200.108 197.264 200.258 196.868 200.558C196.472 200.858 196.274 201.23 196.274 201.674C196.274 202.058 196.388 202.376 196.616 202.628C196.856 202.868 197.15 203.06 197.498 203.204C197.846 203.336 198.314 203.486 198.902 203.654C199.61 203.846 200.174 204.032 200.594 204.212C201.014 204.392 201.374 204.656 201.674 205.004C201.974 205.352 202.13 205.814 202.142 206.39C202.142 206.918 201.998 207.392 201.71 207.812C201.422 208.22 201.02 208.544 200.504 208.784C199.988 209.024 199.394 209.144 198.722 209.144ZM209.824 209L205.774 204.59V209H204.514V195.68H205.774V203.564L209.734 199.172H211.498L206.836 204.068L211.534 209H209.824ZM222.055 203.582C222.055 204.014 222.043 204.344 222.019 204.572H213.865C213.901 205.316 214.081 205.952 214.405 206.48C214.729 207.008 215.155 207.41 215.683 207.686C216.211 207.95 216.787 208.082 217.411 208.082C218.227 208.082 218.911 207.884 219.463 207.488C220.027 207.092 220.399 206.558 220.579 205.886H221.911C221.671 206.846 221.155 207.632 220.363 208.244C219.583 208.844 218.599 209.144 217.411 209.144C216.487 209.144 215.659 208.94 214.927 208.532C214.195 208.112 213.619 207.524 213.199 206.768C212.791 206 212.587 205.106 212.587 204.086C212.587 203.066 212.791 202.172 213.199 201.404C213.607 200.636 214.177 200.048 214.909 199.64C215.641 199.232 216.475 199.028 217.411 199.028C218.347 199.028 219.163 199.232 219.859 199.64C220.567 200.048 221.107 200.6 221.479 201.296C221.863 201.98 222.055 202.742 222.055 203.582ZM220.777 203.546C220.789 202.814 220.639 202.19 220.327 201.674C220.027 201.158 219.613 200.768 219.085 200.504C218.557 200.24 217.981 200.108 217.357 200.108C216.421 200.108 215.623 200.408 214.963 201.008C214.303 201.608 213.937 202.454 213.865 203.546H220.777ZM225.998 200.234V206.336C225.998 206.936 226.112 207.35 226.34 207.578C226.568 207.806 226.97 207.92 227.546 207.92H228.698V209H227.348C226.46 209 225.8 208.796 225.368 208.388C224.936 207.968 224.72 207.284 224.72 206.336V200.234H223.352V199.172H224.72V196.706H225.998V199.172H228.698V200.234H225.998ZM236.345 197.318C236.093 197.318 235.877 197.228 235.697 197.048C235.517 196.868 235.427 196.646 235.427 196.382C235.427 196.118 235.517 195.902 235.697 195.734C235.877 195.554 236.093 195.464 236.345 195.464C236.597 195.464 236.813 195.554 236.993 195.734C237.173 195.902 237.263 196.118 237.263 196.382C237.263 196.646 237.173 196.868 236.993 197.048C236.813 197.228 236.597 197.318 236.345 197.318ZM236.975 199.172V209H235.715V199.172H236.975ZM243.213 209.144C242.085 209.144 241.161 208.886 240.441 208.37C239.733 207.842 239.337 207.128 239.253 206.228H240.549C240.609 206.78 240.867 207.23 241.323 207.578C241.791 207.914 242.415 208.082 243.195 208.082C243.879 208.082 244.413 207.92 244.797 207.596C245.193 207.272 245.391 206.87 245.391 206.39C245.391 206.054 245.283 205.778 245.067 205.562C244.851 205.346 244.575 205.178 244.239 205.058C243.915 204.926 243.471 204.788 242.907 204.644C242.175 204.452 241.581 204.26 241.125 204.068C240.669 203.876 240.279 203.594 239.955 203.222C239.643 202.838 239.487 202.328 239.487 201.692C239.487 201.212 239.631 200.768 239.919 200.36C240.207 199.952 240.615 199.628 241.143 199.388C241.671 199.148 242.271 199.028 242.943 199.028C243.999 199.028 244.851 199.298 245.499 199.838C246.147 200.366 246.495 201.098 246.543 202.034H245.283C245.247 201.458 245.019 200.996 244.599 200.648C244.191 200.288 243.627 200.108 242.907 200.108C242.271 200.108 241.755 200.258 241.359 200.558C240.963 200.858 240.765 201.23 240.765 201.674C240.765 202.058 240.879 202.376 241.107 202.628C241.347 202.868 241.641 203.06 241.989 203.204C242.337 203.336 242.805 203.486 243.393 203.654C244.101 203.846 244.665 204.032 245.085 204.212C245.505 204.392 245.865 204.656 246.165 205.004C246.465 205.352 246.621 205.814 246.633 206.39C246.633 206.918 246.489 207.392 246.201 207.812C245.913 208.22 245.511 208.544 244.995 208.784C244.479 209.024 243.885 209.144 243.213 209.144ZM61.3788 227.234V233.336C61.3788 233.936 61.4928 234.35 61.7208 234.578C61.9488 234.806 62.3508 234.92 62.9268 234.92H64.0788V236H62.7288C61.8408 236 61.1808 235.796 60.7488 235.388C60.3168 234.968 60.1008 234.284 60.1008 233.336V227.234H58.7328V226.172H60.1008V223.706H61.3788V226.172H64.0788V227.234H61.3788ZM70.8368 225.992C71.5808 225.992 72.2468 226.148 72.8348 226.46C73.4348 226.772 73.9028 227.252 74.2388 227.9C74.5868 228.536 74.7608 229.316 74.7608 230.24V236H73.5188V230.384C73.5188 229.316 73.2488 228.5 72.7088 227.936C72.1808 227.372 71.4548 227.09 70.5308 227.09C69.5828 227.09 68.8268 227.39 68.2628 227.99C67.6988 228.59 67.4168 229.472 67.4168 230.636V236H66.1568V222.68H67.4168V227.846C67.7288 227.258 68.1848 226.802 68.7848 226.478C69.3968 226.154 70.0808 225.992 70.8368 225.992ZM81.8494 236.144C80.9254 236.144 80.0914 235.94 79.3474 235.532C78.6154 235.112 78.0334 234.524 77.6014 233.768C77.1814 233 76.9714 232.106 76.9714 231.086C76.9714 230.066 77.1874 229.178 77.6194 228.422C78.0514 227.654 78.6394 227.066 79.3834 226.658C80.1274 226.238 80.9614 226.028 81.8854 226.028C82.8094 226.028 83.6434 226.238 84.3874 226.658C85.1434 227.066 85.7314 227.654 86.1514 228.422C86.5834 229.178 86.7994 230.066 86.7994 231.086C86.7994 232.094 86.5834 232.982 86.1514 233.75C85.7194 234.518 85.1254 235.112 84.3694 235.532C83.6134 235.94 82.7734 236.144 81.8494 236.144ZM81.8494 235.046C82.4974 235.046 83.0974 234.902 83.6494 234.614C84.2014 234.314 84.6454 233.87 84.9814 233.282C85.3294 232.682 85.5034 231.95 85.5034 231.086C85.5034 230.222 85.3354 229.496 84.9994 228.908C84.6634 228.308 84.2194 227.864 83.6674 227.576C83.1154 227.276 82.5154 227.126 81.8674 227.126C81.2194 227.126 80.6194 227.276 80.0674 227.576C79.5154 227.864 79.0714 228.308 78.7354 228.908C78.4114 229.496 78.2494 230.222 78.2494 231.086C78.2494 231.95 78.4114 232.682 78.7354 233.282C79.0714 233.87 79.5094 234.314 80.0494 234.614C80.6014 234.902 81.2014 235.046 81.8494 235.046ZM97.6103 226.172V236H96.3503V234.272C96.0623 234.884 95.6183 235.352 95.0183 235.676C94.4183 236 93.7463 236.162 93.0023 236.162C91.8263 236.162 90.8663 235.802 90.1223 235.082C89.3783 234.35 89.0063 233.294 89.0063 231.914V226.172H90.2483V231.77C90.2483 232.838 90.5123 233.654 91.0403 234.218C91.5803 234.782 92.3123 235.064 93.2363 235.064C94.1843 235.064 94.9403 234.764 95.5043 234.164C96.0683 233.564 96.3503 232.682 96.3503 231.518V226.172H97.6103ZM104.609 226.028C105.533 226.028 106.337 226.244 107.021 226.676C107.705 227.108 108.197 227.654 108.497 228.314V226.172H109.757V236.252C109.757 237.152 109.559 237.95 109.163 238.646C108.779 239.342 108.239 239.876 107.543 240.248C106.847 240.632 106.055 240.824 105.167 240.824C103.907 240.824 102.857 240.524 102.017 239.924C101.189 239.324 100.673 238.508 100.469 237.476H101.711C101.927 238.16 102.335 238.706 102.935 239.114C103.547 239.522 104.291 239.726 105.167 239.726C105.803 239.726 106.373 239.588 106.877 239.312C107.381 239.048 107.777 238.652 108.065 238.124C108.353 237.596 108.497 236.972 108.497 236.252V233.822C108.185 234.494 107.687 235.052 107.003 235.496C106.331 235.928 105.533 236.144 104.609 236.144C103.709 236.144 102.899 235.934 102.179 235.514C101.471 235.094 100.913 234.5 100.505 233.732C100.109 232.964 99.9109 232.076 99.9109 231.068C99.9109 230.06 100.109 229.178 100.505 228.422C100.913 227.654 101.471 227.066 102.179 226.658C102.899 226.238 103.709 226.028 104.609 226.028ZM108.497 231.086C108.497 230.294 108.335 229.598 108.011 228.998C107.687 228.398 107.243 227.936 106.679 227.612C106.127 227.288 105.515 227.126 104.843 227.126C104.147 227.126 103.523 227.282 102.971 227.594C102.419 227.906 101.981 228.362 101.657 228.962C101.345 229.55 101.189 230.252 101.189 231.068C101.189 231.872 101.345 232.58 101.657 233.192C101.981 233.792 102.419 234.254 102.971 234.578C103.523 234.89 104.147 235.046 104.843 235.046C105.515 235.046 106.127 234.884 106.679 234.56C107.243 234.236 107.687 233.774 108.011 233.174C108.335 232.574 108.497 231.878 108.497 231.086ZM117.313 225.992C118.057 225.992 118.723 226.148 119.311 226.46C119.911 226.772 120.379 227.252 120.715 227.9C121.063 228.536 121.237 229.316 121.237 230.24V236H119.995V230.384C119.995 229.316 119.725 228.5 119.185 227.936C118.657 227.372 117.931 227.09 117.007 227.09C116.059 227.09 115.303 227.39 114.739 227.99C114.175 228.59 113.893 229.472 113.893 230.636V236H112.633V222.68H113.893V227.846C114.205 227.258 114.661 226.802 115.261 226.478C115.873 226.154 116.557 225.992 117.313 225.992ZM125.662 227.234V233.336C125.662 233.936 125.776 234.35 126.004 234.578C126.232 234.806 126.634 234.92 127.21 234.92H128.362V236H127.012C126.124 236 125.464 235.796 125.032 235.388C124.6 234.968 124.384 234.284 124.384 233.336V227.234H123.016V226.172H124.384V223.706H125.662V226.172H128.362V227.234H125.662ZM134.31 227.234H132.024V236H130.764V227.234H129.396V226.172H130.764V225.488C130.764 224.42 131.034 223.634 131.574 223.13C132.126 222.626 133.014 222.374 134.238 222.374V223.454C133.422 223.454 132.846 223.61 132.51 223.922C132.186 224.234 132.024 224.756 132.024 225.488V226.172H134.31V227.234ZM144.808 226.172V236H143.548V234.272C143.26 234.884 142.816 235.352 142.216 235.676C141.616 236 140.944 236.162 140.2 236.162C139.024 236.162 138.064 235.802 137.32 235.082C136.576 234.35 136.204 233.294 136.204 231.914V226.172H137.446V231.77C137.446 232.838 137.71 233.654 138.238 234.218C138.778 234.782 139.51 235.064 140.434 235.064C141.382 235.064 142.138 234.764 142.702 234.164C143.266 233.564 143.548 232.682 143.548 231.518V226.172H144.808ZM148.944 222.68V236H147.684V222.68H148.944ZM153.057 222.68V236H151.797V222.68H153.057ZM164.011 226.172L158.179 240.626H156.865L158.773 235.946L154.741 226.172H156.127L159.475 234.56L162.715 226.172H164.011ZM170.083 231.086C170.083 230.066 170.287 229.178 170.695 228.422C171.103 227.654 171.667 227.066 172.387 226.658C173.107 226.238 173.929 226.028 174.853 226.028C176.065 226.028 177.061 226.328 177.841 226.928C178.633 227.528 179.143 228.344 179.371 229.376H178.021C177.853 228.668 177.487 228.116 176.923 227.72C176.371 227.312 175.681 227.108 174.853 227.108C174.193 227.108 173.599 227.258 173.071 227.558C172.543 227.858 172.123 228.308 171.811 228.908C171.511 229.496 171.361 230.222 171.361 231.086C171.361 231.95 171.511 232.682 171.811 233.282C172.123 233.882 172.543 234.332 173.071 234.632C173.599 234.932 174.193 235.082 174.853 235.082C175.681 235.082 176.371 234.884 176.923 234.488C177.487 234.08 177.853 233.516 178.021 232.796H179.371C179.143 233.804 178.633 234.614 177.841 235.226C177.049 235.838 176.053 236.144 174.853 236.144C173.929 236.144 173.107 235.94 172.387 235.532C171.667 235.112 171.103 234.524 170.695 233.768C170.287 233 170.083 232.106 170.083 231.086ZM190.212 226.172V236H188.952V234.272C188.664 234.884 188.22 235.352 187.62 235.676C187.02 236 186.348 236.162 185.604 236.162C184.428 236.162 183.468 235.802 182.724 235.082C181.98 234.35 181.608 233.294 181.608 231.914V226.172H182.85V231.77C182.85 232.838 183.114 233.654 183.642 234.218C184.182 234.782 184.914 235.064 185.838 235.064C186.786 235.064 187.542 234.764 188.106 234.164C188.67 233.564 188.952 232.682 188.952 231.518V226.172H190.212ZM194.348 227.918C194.624 227.306 195.044 226.832 195.608 226.496C196.184 226.16 196.886 225.992 197.714 225.992V227.306H197.372C196.46 227.306 195.728 227.552 195.176 228.044C194.624 228.536 194.348 229.358 194.348 230.51V236H193.088V226.172H194.348V227.918ZM199.034 231.068C199.034 230.06 199.232 229.178 199.628 228.422C200.036 227.654 200.594 227.066 201.302 226.658C202.022 226.238 202.832 226.028 203.732 226.028C204.668 226.028 205.472 226.244 206.144 226.676C206.828 227.108 207.32 227.66 207.62 228.332V226.172H208.88V236H207.62V233.822C207.308 234.494 206.81 235.052 206.126 235.496C205.454 235.928 204.65 236.144 203.714 236.144C202.826 236.144 202.022 235.934 201.302 235.514C200.594 235.094 200.036 234.5 199.628 233.732C199.232 232.964 199.034 232.076 199.034 231.068ZM207.62 231.086C207.62 230.294 207.458 229.598 207.134 228.998C206.81 228.398 206.366 227.936 205.802 227.612C205.25 227.288 204.638 227.126 203.966 227.126C203.27 227.126 202.646 227.282 202.094 227.594C201.542 227.906 201.104 228.362 200.78 228.962C200.468 229.55 200.312 230.252 200.312 231.068C200.312 231.872 200.468 232.58 200.78 233.192C201.104 233.792 201.542 234.254 202.094 234.578C202.646 234.89 203.27 235.046 203.966 235.046C204.638 235.046 205.25 234.884 205.802 234.56C206.366 234.236 206.81 233.774 207.134 233.174C207.458 232.574 207.62 231.878 207.62 231.086ZM213.394 227.234V233.336C213.394 233.936 213.508 234.35 213.736 234.578C213.964 234.806 214.366 234.92 214.942 234.92H216.094V236H214.744C213.856 236 213.196 235.796 212.764 235.388C212.332 234.968 212.116 234.284 212.116 233.336V227.234H210.748V226.172H212.116V223.706H213.394V226.172H216.094V227.234H213.394ZM227.064 230.582C227.064 231.014 227.052 231.344 227.028 231.572H218.874C218.91 232.316 219.09 232.952 219.414 233.48C219.738 234.008 220.164 234.41 220.692 234.686C221.22 234.95 221.796 235.082 222.42 235.082C223.236 235.082 223.92 234.884 224.472 234.488C225.036 234.092 225.408 233.558 225.588 232.886H226.92C226.68 233.846 226.164 234.632 225.372 235.244C224.592 235.844 223.608 236.144 222.42 236.144C221.496 236.144 220.668 235.94 219.936 235.532C219.204 235.112 218.628 234.524 218.208 233.768C217.8 233 217.596 232.106 217.596 231.086C217.596 230.066 217.8 229.172 218.208 228.404C218.616 227.636 219.186 227.048 219.918 226.64C220.65 226.232 221.484 226.028 222.42 226.028C223.356 226.028 224.172 226.232 224.868 226.64C225.576 227.048 226.116 227.6 226.488 228.296C226.872 228.98 227.064 229.742 227.064 230.582ZM225.786 230.546C225.798 229.814 225.648 229.19 225.336 228.674C225.036 228.158 224.622 227.768 224.094 227.504C223.566 227.24 222.99 227.108 222.366 227.108C221.43 227.108 220.632 227.408 219.972 228.008C219.312 228.608 218.946 229.454 218.874 230.546H225.786ZM228.794 231.068C228.794 230.06 228.998 229.178 229.406 228.422C229.814 227.654 230.372 227.066 231.08 226.658C231.8 226.238 232.61 226.028 233.51 226.028C234.374 226.028 235.154 226.238 235.85 226.658C236.546 227.078 237.056 227.624 237.38 228.296V222.68H238.64V236H237.38V233.804C237.08 234.488 236.588 235.052 235.904 235.496C235.22 235.928 234.416 236.144 233.492 236.144C232.592 236.144 231.782 235.934 231.062 235.514C230.354 235.094 229.796 234.5 229.388 233.732C228.992 232.964 228.794 232.076 228.794 231.068ZM237.38 231.086C237.38 230.294 237.218 229.598 236.894 228.998C236.57 228.398 236.126 227.936 235.562 227.612C235.01 227.288 234.398 227.126 233.726 227.126C233.03 227.126 232.406 227.282 231.854 227.594C231.302 227.906 230.864 228.362 230.54 228.962C230.228 229.55 230.072 230.252 230.072 231.068C230.072 231.872 230.228 232.58 230.54 233.192C230.864 233.792 231.302 234.254 231.854 234.578C232.406 234.89 233.03 235.046 233.726 235.046C234.398 235.046 235.01 234.884 235.562 234.56C236.126 234.236 236.57 233.774 236.894 233.174C237.218 232.574 237.38 231.878 237.38 231.086ZM245.88 231.068C245.88 230.06 246.078 229.178 246.474 228.422C246.882 227.654 247.44 227.066 248.148 226.658C248.868 226.238 249.678 226.028 250.578 226.028C251.514 226.028 252.318 226.244 252.99 226.676C253.674 227.108 254.166 227.66 254.466 228.332V226.172H255.726V236H254.466V233.822C254.154 234.494 253.656 235.052 252.972 235.496C252.3 235.928 251.496 236.144 250.56 236.144C249.672 236.144 248.868 235.934 248.148 235.514C247.44 235.094 246.882 234.5 246.474 233.732C246.078 232.964 245.88 232.076 245.88 231.068ZM254.466 231.086C254.466 230.294 254.304 229.598 253.98 228.998C253.656 228.398 253.212 227.936 252.648 227.612C252.096 227.288 251.484 227.126 250.812 227.126C250.116 227.126 249.492 227.282 248.94 227.594C248.388 227.906 247.95 228.362 247.626 228.962C247.314 229.55 247.158 230.252 247.158 231.068C247.158 231.872 247.314 232.58 247.626 233.192C247.95 233.792 248.388 234.254 248.94 234.578C249.492 234.89 250.116 235.046 250.812 235.046C251.484 235.046 252.096 234.884 252.648 234.56C253.212 234.236 253.656 233.774 253.98 233.174C254.304 232.574 254.466 231.878 254.466 231.086ZM263.21 225.992C264.386 225.992 265.346 226.358 266.09 227.09C266.834 227.81 267.206 228.86 267.206 230.24V236H265.964V230.384C265.964 229.316 265.694 228.5 265.154 227.936C264.626 227.372 263.9 227.09 262.976 227.09C262.028 227.09 261.272 227.39 260.708 227.99C260.144 228.59 259.862 229.472 259.862 230.636V236H258.602V226.172H259.862V227.846C260.174 227.246 260.624 226.79 261.212 226.478C261.8 226.154 262.466 225.992 263.21 225.992ZM269.417 231.068C269.417 230.06 269.621 229.178 270.029 228.422C270.437 227.654 270.995 227.066 271.703 226.658C272.423 226.238 273.233 226.028 274.133 226.028C274.997 226.028 275.777 226.238 276.473 226.658C277.169 227.078 277.679 227.624 278.003 228.296V222.68H279.263V236H278.003V233.804C277.703 234.488 277.211 235.052 276.527 235.496C275.843 235.928 275.039 236.144 274.115 236.144C273.215 236.144 272.405 235.934 271.685 235.514C270.977 235.094 270.419 234.5 270.011 233.732C269.615 232.964 269.417 232.076 269.417 231.068ZM278.003 231.086C278.003 230.294 277.841 229.598 277.517 228.998C277.193 228.398 276.749 227.936 276.185 227.612C275.633 227.288 275.021 227.126 274.349 227.126C273.653 227.126 273.029 227.282 272.477 227.594C271.925 227.906 271.487 228.362 271.163 228.962C270.851 229.55 270.695 230.252 270.695 231.068C270.695 231.872 270.851 232.58 271.163 233.192C271.487 233.792 271.925 234.254 272.477 234.578C273.029 234.89 273.653 235.046 274.349 235.046C275.021 235.046 275.633 234.884 276.185 234.56C276.749 234.236 277.193 233.774 277.517 233.174C277.841 232.574 278.003 231.878 278.003 231.086ZM63.8568 255.35C64.1808 254.666 64.6788 254.108 65.3508 253.676C66.0348 253.244 66.8388 253.028 67.7628 253.028C68.6628 253.028 69.4668 253.238 70.1748 253.658C70.8828 254.066 71.4348 254.654 71.8308 255.422C72.2388 256.178 72.4428 257.06 72.4428 258.068C72.4428 259.076 72.2388 259.964 71.8308 260.732C71.4348 261.5 70.8768 262.094 70.1568 262.514C69.4488 262.934 68.6508 263.144 67.7628 263.144C66.8268 263.144 66.0168 262.934 65.3328 262.514C64.6608 262.082 64.1688 261.524 63.8568 260.84V263H62.6148V249.68H63.8568V255.35ZM71.1648 258.068C71.1648 257.252 71.0028 256.55 70.6788 255.962C70.3668 255.362 69.9348 254.906 69.3828 254.594C68.8308 254.282 68.2068 254.126 67.5108 254.126C66.8388 254.126 66.2208 254.288 65.6568 254.612C65.1048 254.936 64.6668 255.398 64.3428 255.998C64.0188 256.598 63.8568 257.294 63.8568 258.086C63.8568 258.878 64.0188 259.574 64.3428 260.174C64.6668 260.774 65.1048 261.236 65.6568 261.56C66.2208 261.884 66.8388 262.046 67.5108 262.046C68.2068 262.046 68.8308 261.89 69.3828 261.578C69.9348 261.254 70.3668 260.792 70.6788 260.192C71.0028 259.58 71.1648 258.872 71.1648 258.068ZM74.1853 258.068C74.1853 257.06 74.3833 256.178 74.7793 255.422C75.1873 254.654 75.7453 254.066 76.4533 253.658C77.1733 253.238 77.9833 253.028 78.8833 253.028C79.8193 253.028 80.6233 253.244 81.2953 253.676C81.9793 254.108 82.4713 254.66 82.7713 255.332V253.172H84.0313V263H82.7713V260.822C82.4593 261.494 81.9613 262.052 81.2773 262.496C80.6053 262.928 79.8013 263.144 78.8653 263.144C77.9773 263.144 77.1733 262.934 76.4533 262.514C75.7453 262.094 75.1873 261.5 74.7793 260.732C74.3833 259.964 74.1853 259.076 74.1853 258.068ZM82.7713 258.086C82.7713 257.294 82.6093 256.598 82.2853 255.998C81.9613 255.398 81.5173 254.936 80.9533 254.612C80.4013 254.288 79.7893 254.126 79.1173 254.126C78.4213 254.126 77.7973 254.282 77.2453 254.594C76.6933 254.906 76.2553 255.362 75.9313 255.962C75.6193 256.55 75.4633 257.252 75.4633 258.068C75.4633 258.872 75.6193 259.58 75.9313 260.192C76.2553 260.792 76.6933 261.254 77.2453 261.578C77.7973 261.89 78.4213 262.046 79.1173 262.046C79.7893 262.046 80.4013 261.884 80.9533 261.56C81.5173 261.236 81.9613 260.774 82.2853 260.174C82.6093 259.574 82.7713 258.878 82.7713 258.086ZM88.1678 249.68V263H86.9078V249.68H88.1678ZM90.4451 258.068C90.4451 257.06 90.6431 256.178 91.0391 255.422C91.4471 254.654 92.0051 254.066 92.7131 253.658C93.4331 253.238 94.2431 253.028 95.1431 253.028C96.0791 253.028 96.8831 253.244 97.5551 253.676C98.2391 254.108 98.7311 254.66 99.0311 255.332V253.172H100.291V263H99.0311V260.822C98.7191 261.494 98.2211 262.052 97.5371 262.496C96.8651 262.928 96.0611 263.144 95.1251 263.144C94.2371 263.144 93.4331 262.934 92.7131 262.514C92.0051 262.094 91.4471 261.5 91.0391 260.732C90.6431 259.964 90.4451 259.076 90.4451 258.068ZM99.0311 258.086C99.0311 257.294 98.8691 256.598 98.5451 255.998C98.2211 255.398 97.7771 254.936 97.2131 254.612C96.6611 254.288 96.0491 254.126 95.3771 254.126C94.6811 254.126 94.0571 254.282 93.5051 254.594C92.9531 254.906 92.5151 255.362 92.1911 255.962C91.8791 256.55 91.7231 257.252 91.7231 258.068C91.7231 258.872 91.8791 259.58 92.1911 260.192C92.5151 260.792 92.9531 261.254 93.5051 261.578C94.0571 261.89 94.6811 262.046 95.3771 262.046C96.0491 262.046 96.6611 261.884 97.2131 261.56C97.7771 261.236 98.2211 260.774 98.5451 260.174C98.8691 259.574 99.0311 258.878 99.0311 258.086ZM107.776 252.992C108.952 252.992 109.912 253.358 110.656 254.09C111.4 254.81 111.772 255.86 111.772 257.24V263H110.53V257.384C110.53 256.316 110.26 255.5 109.72 254.936C109.192 254.372 108.466 254.09 107.542 254.09C106.594 254.09 105.838 254.39 105.274 254.99C104.71 255.59 104.428 256.472 104.428 257.636V263H103.168V253.172H104.428V254.846C104.74 254.246 105.19 253.79 105.778 253.478C106.366 253.154 107.032 252.992 107.776 252.992ZM113.982 258.086C113.982 257.066 114.186 256.178 114.594 255.422C115.002 254.654 115.566 254.066 116.286 253.658C117.006 253.238 117.828 253.028 118.752 253.028C119.964 253.028 120.96 253.328 121.74 253.928C122.532 254.528 123.042 255.344 123.27 256.376H121.92C121.752 255.668 121.386 255.116 120.822 254.72C120.27 254.312 119.58 254.108 118.752 254.108C118.092 254.108 117.498 254.258 116.97 254.558C116.442 254.858 116.022 255.308 115.71 255.908C115.41 256.496 115.26 257.222 115.26 258.086C115.26 258.95 115.41 259.682 115.71 260.282C116.022 260.882 116.442 261.332 116.97 261.632C117.498 261.932 118.092 262.082 118.752 262.082C119.58 262.082 120.27 261.884 120.822 261.488C121.386 261.08 121.752 260.516 121.92 259.796H123.27C123.042 260.804 122.532 261.614 121.74 262.226C120.948 262.838 119.952 263.144 118.752 263.144C117.828 263.144 117.006 262.94 116.286 262.532C115.566 262.112 115.002 261.524 114.594 260.768C114.186 260 113.982 259.106 113.982 258.086ZM134.489 257.582C134.489 258.014 134.477 258.344 134.453 258.572H126.299C126.335 259.316 126.515 259.952 126.839 260.48C127.163 261.008 127.589 261.41 128.117 261.686C128.645 261.95 129.221 262.082 129.845 262.082C130.661 262.082 131.345 261.884 131.897 261.488C132.461 261.092 132.833 260.558 133.013 259.886H134.345C134.105 260.846 133.589 261.632 132.797 262.244C132.017 262.844 131.033 263.144 129.845 263.144C128.921 263.144 128.093 262.94 127.361 262.532C126.629 262.112 126.053 261.524 125.633 260.768C125.225 260 125.021 259.106 125.021 258.086C125.021 257.066 125.225 256.172 125.633 255.404C126.041 254.636 126.611 254.048 127.343 253.64C128.075 253.232 128.909 253.028 129.845 253.028C130.781 253.028 131.597 253.232 132.293 253.64C133.001 254.048 133.541 254.6 133.913 255.296C134.297 255.98 134.489 256.742 134.489 257.582ZM133.211 257.546C133.223 256.814 133.073 256.19 132.761 255.674C132.461 255.158 132.047 254.768 131.519 254.504C130.991 254.24 130.415 254.108 129.791 254.108C128.855 254.108 128.057 254.408 127.397 255.008C126.737 255.608 126.371 256.454 126.299 257.546H133.211ZM136.218 258.068C136.218 257.06 136.422 256.178 136.83 255.422C137.238 254.654 137.796 254.066 138.504 253.658C139.224 253.238 140.034 253.028 140.934 253.028C141.798 253.028 142.578 253.238 143.274 253.658C143.97 254.078 144.48 254.624 144.804 255.296V249.68H146.064V263H144.804V260.804C144.504 261.488 144.012 262.052 143.328 262.496C142.644 262.928 141.84 263.144 140.916 263.144C140.016 263.144 139.206 262.934 138.486 262.514C137.778 262.094 137.22 261.5 136.812 260.732C136.416 259.964 136.218 259.076 136.218 258.068ZM144.804 258.086C144.804 257.294 144.642 256.598 144.318 255.998C143.994 255.398 143.55 254.936 142.986 254.612C142.434 254.288 141.822 254.126 141.15 254.126C140.454 254.126 139.83 254.282 139.278 254.594C138.726 254.906 138.288 255.362 137.964 255.962C137.652 256.55 137.496 257.252 137.496 258.068C137.496 258.872 137.652 259.58 137.964 260.192C138.288 260.792 138.726 261.254 139.278 261.578C139.83 261.89 140.454 262.046 141.15 262.046C141.822 262.046 142.434 261.884 142.986 261.56C143.55 261.236 143.994 260.774 144.318 260.174C144.642 259.574 144.804 258.878 144.804 258.086ZM155.122 255.35C155.446 254.666 155.944 254.108 156.616 253.676C157.3 253.244 158.104 253.028 159.028 253.028C159.928 253.028 160.732 253.238 161.44 253.658C162.148 254.066 162.7 254.654 163.096 255.422C163.504 256.178 163.708 257.06 163.708 258.068C163.708 259.076 163.504 259.964 163.096 260.732C162.7 261.5 162.142 262.094 161.422 262.514C160.714 262.934 159.916 263.144 159.028 263.144C158.092 263.144 157.282 262.934 156.598 262.514C155.926 262.082 155.434 261.524 155.122 260.84V263H153.88V249.68H155.122V255.35ZM162.43 258.068C162.43 257.252 162.268 256.55 161.944 255.962C161.632 255.362 161.2 254.906 160.648 254.594C160.096 254.282 159.472 254.126 158.776 254.126C158.104 254.126 157.486 254.288 156.922 254.612C156.37 254.936 155.932 255.398 155.608 255.998C155.284 256.598 155.122 257.294 155.122 258.086C155.122 258.878 155.284 259.574 155.608 260.174C155.932 260.774 156.37 261.236 156.922 261.56C157.486 261.884 158.104 262.046 158.776 262.046C159.472 262.046 160.096 261.89 160.648 261.578C161.2 261.254 161.632 260.792 161.944 260.192C162.268 259.58 162.43 258.872 162.43 258.068ZM174.127 253.172L168.295 267.626H166.981L168.889 262.946L164.857 253.172H166.243L169.591 261.56L172.831 253.172H174.127ZM180.199 258.068C180.199 257.06 180.397 256.178 180.793 255.422C181.201 254.654 181.759 254.066 182.467 253.658C183.187 253.238 183.997 253.028 184.897 253.028C185.833 253.028 186.637 253.244 187.309 253.676C187.993 254.108 188.485 254.66 188.785 255.332V253.172H190.045V263H188.785V260.822C188.473 261.494 187.975 262.052 187.291 262.496C186.619 262.928 185.815 263.144 184.879 263.144C183.991 263.144 183.187 262.934 182.467 262.514C181.759 262.094 181.201 261.5 180.793 260.732C180.397 259.964 180.199 259.076 180.199 258.068ZM188.785 258.086C188.785 257.294 188.623 256.598 188.299 255.998C187.975 255.398 187.531 254.936 186.967 254.612C186.415 254.288 185.803 254.126 185.131 254.126C184.435 254.126 183.811 254.282 183.259 254.594C182.707 254.906 182.269 255.362 181.945 255.962C181.633 256.55 181.477 257.252 181.477 258.068C181.477 258.872 181.633 259.58 181.945 260.192C182.269 260.792 182.707 261.254 183.259 261.578C183.811 261.89 184.435 262.046 185.131 262.046C185.803 262.046 186.415 261.884 186.967 261.56C187.531 261.236 187.975 260.774 188.299 260.174C188.623 259.574 188.785 258.878 188.785 258.086ZM197.529 252.992C198.705 252.992 199.665 253.358 200.409 254.09C201.153 254.81 201.525 255.86 201.525 257.24V263H200.283V257.384C200.283 256.316 200.013 255.5 199.473 254.936C198.945 254.372 198.219 254.09 197.295 254.09C196.347 254.09 195.591 254.39 195.027 254.99C194.463 255.59 194.181 256.472 194.181 257.636V263H192.921V253.172H194.181V254.846C194.493 254.246 194.943 253.79 195.531 253.478C196.119 253.154 196.785 252.992 197.529 252.992ZM203.736 258.068C203.736 257.06 203.94 256.178 204.348 255.422C204.756 254.654 205.314 254.066 206.022 253.658C206.742 253.238 207.552 253.028 208.452 253.028C209.316 253.028 210.096 253.238 210.792 253.658C211.488 254.078 211.998 254.624 212.322 255.296V249.68H213.582V263H212.322V260.804C212.022 261.488 211.53 262.052 210.846 262.496C210.162 262.928 209.358 263.144 208.434 263.144C207.534 263.144 206.724 262.934 206.004 262.514C205.296 262.094 204.738 261.5 204.33 260.732C203.934 259.964 203.736 259.076 203.736 258.068ZM212.322 258.086C212.322 257.294 212.16 256.598 211.836 255.998C211.512 255.398 211.068 254.936 210.504 254.612C209.952 254.288 209.34 254.126 208.668 254.126C207.972 254.126 207.348 254.282 206.796 254.594C206.244 254.906 205.806 255.362 205.482 255.962C205.17 256.55 205.014 257.252 205.014 258.068C205.014 258.872 205.17 259.58 205.482 260.192C205.806 260.792 206.244 261.254 206.796 261.578C207.348 261.89 207.972 262.046 208.668 262.046C209.34 262.046 209.952 261.884 210.504 261.56C211.068 261.236 211.512 260.774 211.836 260.174C212.16 259.574 212.322 258.878 212.322 258.086ZM225.268 254.234H222.982V263H221.722V254.234H220.354V253.172H221.722V252.488C221.722 251.42 221.992 250.634 222.532 250.13C223.084 249.626 223.972 249.374 225.196 249.374V250.454C224.38 250.454 223.804 250.61 223.468 250.922C223.144 251.234 222.982 251.756 222.982 252.488V253.172H225.268V254.234ZM231.554 263.144C230.63 263.144 229.796 262.94 229.052 262.532C228.32 262.112 227.738 261.524 227.306 260.768C226.886 260 226.676 259.106 226.676 258.086C226.676 257.066 226.892 256.178 227.324 255.422C227.756 254.654 228.344 254.066 229.088 253.658C229.832 253.238 230.666 253.028 231.59 253.028C232.514 253.028 233.348 253.238 234.092 253.658C234.848 254.066 235.436 254.654 235.856 255.422C236.288 256.178 236.504 257.066 236.504 258.086C236.504 259.094 236.288 259.982 235.856 260.75C235.424 261.518 234.83 262.112 234.074 262.532C233.318 262.94 232.478 263.144 231.554 263.144ZM231.554 262.046C232.202 262.046 232.802 261.902 233.354 261.614C233.906 261.314 234.35 260.87 234.686 260.282C235.034 259.682 235.208 258.95 235.208 258.086C235.208 257.222 235.04 256.496 234.704 255.908C234.368 255.308 233.924 254.864 233.372 254.576C232.82 254.276 232.22 254.126 231.572 254.126C230.924 254.126 230.324 254.276 229.772 254.576C229.22 254.864 228.776 255.308 228.44 255.908C228.116 256.496 227.954 257.222 227.954 258.086C227.954 258.95 228.116 259.682 228.44 260.282C228.776 260.87 229.214 261.314 229.754 261.614C230.306 261.902 230.906 262.046 231.554 262.046ZM240.06 254.918C240.336 254.306 240.756 253.832 241.32 253.496C241.896 253.16 242.598 252.992 243.426 252.992V254.306H243.084C242.172 254.306 241.44 254.552 240.888 255.044C240.336 255.536 240.06 256.358 240.06 257.51V263H238.8V253.172H240.06V254.918ZM251.899 254.234V260.336C251.899 260.936 252.013 261.35 252.241 261.578C252.469 261.806 252.871 261.92 253.447 261.92H254.599V263H253.249C252.361 263 251.701 262.796 251.269 262.388C250.837 261.968 250.621 261.284 250.621 260.336V254.234H249.253V253.172H250.621V250.706H251.899V253.172H254.599V254.234H251.899ZM261.357 252.992C262.101 252.992 262.767 253.148 263.355 253.46C263.955 253.772 264.423 254.252 264.759 254.9C265.107 255.536 265.281 256.316 265.281 257.24V263H264.039V257.384C264.039 256.316 263.769 255.5 263.229 254.936C262.701 254.372 261.975 254.09 261.051 254.09C260.103 254.09 259.347 254.39 258.783 254.99C258.219 255.59 257.937 256.472 257.937 257.636V263H256.677V249.68H257.937V254.846C258.249 254.258 258.705 253.802 259.305 253.478C259.917 253.154 260.601 252.992 261.357 252.992ZM276.96 257.582C276.96 258.014 276.948 258.344 276.924 258.572H268.77C268.806 259.316 268.986 259.952 269.31 260.48C269.634 261.008 270.06 261.41 270.588 261.686C271.116 261.95 271.692 262.082 272.316 262.082C273.132 262.082 273.816 261.884 274.368 261.488C274.932 261.092 275.304 260.558 275.484 259.886H276.816C276.576 260.846 276.06 261.632 275.268 262.244C274.488 262.844 273.504 263.144 272.316 263.144C271.392 263.144 270.564 262.94 269.832 262.532C269.1 262.112 268.524 261.524 268.104 260.768C267.696 260 267.492 259.106 267.492 258.086C267.492 257.066 267.696 256.172 268.104 255.404C268.512 254.636 269.082 254.048 269.814 253.64C270.546 253.232 271.38 253.028 272.316 253.028C273.252 253.028 274.068 253.232 274.764 253.64C275.472 254.048 276.012 254.6 276.384 255.296C276.768 255.98 276.96 256.742 276.96 257.582ZM275.682 257.546C275.694 256.814 275.544 256.19 275.232 255.674C274.932 255.158 274.518 254.768 273.99 254.504C273.462 254.24 272.886 254.108 272.262 254.108C271.326 254.108 270.528 254.408 269.868 255.008C269.208 255.608 268.842 256.454 268.77 257.546H275.682ZM82.4972 290.126C81.6692 290.126 80.9372 289.982 80.3012 289.694C79.6772 289.406 79.1852 289.004 78.8252 288.488C78.4652 287.972 78.2732 287.396 78.2492 286.76H79.5812C79.6412 287.372 79.9112 287.912 80.3912 288.38C80.8712 288.836 81.5732 289.064 82.4972 289.064C83.3492 289.064 84.0212 288.848 84.5132 288.416C85.0172 287.972 85.2692 287.414 85.2692 286.742C85.2692 286.202 85.1312 285.77 84.8552 285.446C84.5792 285.11 84.2372 284.864 83.8292 284.708C83.4212 284.54 82.8572 284.36 82.1372 284.168C81.2972 283.94 80.6312 283.718 80.1392 283.502C79.6472 283.286 79.2272 282.95 78.8792 282.494C78.5312 282.038 78.3572 281.42 78.3572 280.64C78.3572 279.992 78.5252 279.416 78.8612 278.912C79.1972 278.396 79.6712 277.994 80.2832 277.706C80.8952 277.418 81.5972 277.274 82.3892 277.274C83.5532 277.274 84.4892 277.562 85.1972 278.138C85.9172 278.702 86.3312 279.434 86.4392 280.334H85.0712C84.9872 279.818 84.7052 279.362 84.2252 278.966C83.7452 278.558 83.0972 278.354 82.2812 278.354C81.5252 278.354 80.8952 278.558 80.3912 278.966C79.8872 279.362 79.6352 279.908 79.6352 280.604C79.6352 281.132 79.7732 281.558 80.0492 281.882C80.3252 282.206 80.6672 282.452 81.0752 282.62C81.4952 282.788 82.0592 282.968 82.7672 283.16C83.5832 283.388 84.2432 283.616 84.7472 283.844C85.2512 284.06 85.6772 284.396 86.0252 284.852C86.3732 285.308 86.5472 285.92 86.5472 286.688C86.5472 287.276 86.3912 287.834 86.0792 288.362C85.7672 288.89 85.3052 289.316 84.6932 289.64C84.0812 289.964 83.3492 290.126 82.4972 290.126ZM93.284 290.144C92.36 290.144 91.526 289.94 90.782 289.532C90.05 289.112 89.468 288.524 89.036 287.768C88.616 287 88.406 286.106 88.406 285.086C88.406 284.066 88.622 283.178 89.054 282.422C89.486 281.654 90.074 281.066 90.818 280.658C91.562 280.238 92.396 280.028 93.32 280.028C94.244 280.028 95.078 280.238 95.822 280.658C96.578 281.066 97.166 281.654 97.586 282.422C98.018 283.178 98.234 284.066 98.234 285.086C98.234 286.094 98.018 286.982 97.586 287.75C97.154 288.518 96.56 289.112 95.804 289.532C95.048 289.94 94.208 290.144 93.284 290.144ZM93.284 289.046C93.932 289.046 94.532 288.902 95.084 288.614C95.636 288.314 96.08 287.87 96.416 287.282C96.764 286.682 96.938 285.95 96.938 285.086C96.938 284.222 96.77 283.496 96.434 282.908C96.098 282.308 95.654 281.864 95.102 281.576C94.55 281.276 93.95 281.126 93.302 281.126C92.654 281.126 92.054 281.276 91.502 281.576C90.95 281.864 90.506 282.308 90.17 282.908C89.846 283.496 89.684 284.222 89.684 285.086C89.684 285.95 89.846 286.682 90.17 287.282C90.506 287.87 90.944 288.314 91.484 288.614C92.036 288.902 92.636 289.046 93.284 289.046ZM104.023 288.776L107.335 280.172H108.667L104.725 290H103.303L99.3608 280.172H100.711L104.023 288.776ZM111.635 281.918C111.911 281.306 112.331 280.832 112.895 280.496C113.471 280.16 114.173 279.992 115.001 279.992V281.306H114.659C113.747 281.306 113.015 281.552 112.463 282.044C111.911 282.536 111.635 283.358 111.635 284.51V290H110.375V280.172H111.635V281.918ZM125.788 284.582C125.788 285.014 125.776 285.344 125.752 285.572H117.598C117.634 286.316 117.814 286.952 118.138 287.48C118.462 288.008 118.888 288.41 119.416 288.686C119.944 288.95 120.52 289.082 121.144 289.082C121.96 289.082 122.644 288.884 123.196 288.488C123.76 288.092 124.132 287.558 124.312 286.886H125.644C125.404 287.846 124.888 288.632 124.096 289.244C123.316 289.844 122.332 290.144 121.144 290.144C120.22 290.144 119.392 289.94 118.66 289.532C117.928 289.112 117.352 288.524 116.932 287.768C116.524 287 116.32 286.106 116.32 285.086C116.32 284.066 116.524 283.172 116.932 282.404C117.34 281.636 117.91 281.048 118.642 280.64C119.374 280.232 120.208 280.028 121.144 280.028C122.08 280.028 122.896 280.232 123.592 280.64C124.3 281.048 124.84 281.6 125.212 282.296C125.596 282.98 125.788 283.742 125.788 284.582ZM124.51 284.546C124.522 283.814 124.372 283.19 124.06 282.674C123.76 282.158 123.346 281.768 122.818 281.504C122.29 281.24 121.714 281.108 121.09 281.108C120.154 281.108 119.356 281.408 118.696 282.008C118.036 282.608 117.67 283.454 117.598 284.546H124.51ZM128.723 278.318C128.471 278.318 128.255 278.228 128.075 278.048C127.895 277.868 127.805 277.646 127.805 277.382C127.805 277.118 127.895 276.902 128.075 276.734C128.255 276.554 128.471 276.464 128.723 276.464C128.975 276.464 129.191 276.554 129.371 276.734C129.551 276.902 129.641 277.118 129.641 277.382C129.641 277.646 129.551 277.868 129.371 278.048C129.191 278.228 128.975 278.318 128.723 278.318ZM129.353 280.172V290H128.093V280.172H129.353ZM136.329 280.028C137.253 280.028 138.057 280.244 138.741 280.676C139.425 281.108 139.917 281.654 140.217 282.314V280.172H141.477V290.252C141.477 291.152 141.279 291.95 140.883 292.646C140.499 293.342 139.959 293.876 139.263 294.248C138.567 294.632 137.775 294.824 136.887 294.824C135.627 294.824 134.577 294.524 133.737 293.924C132.909 293.324 132.393 292.508 132.189 291.476H133.431C133.647 292.16 134.055 292.706 134.655 293.114C135.267 293.522 136.011 293.726 136.887 293.726C137.523 293.726 138.093 293.588 138.597 293.312C139.101 293.048 139.497 292.652 139.785 292.124C140.073 291.596 140.217 290.972 140.217 290.252V287.822C139.905 288.494 139.407 289.052 138.723 289.496C138.051 289.928 137.253 290.144 136.329 290.144C135.429 290.144 134.619 289.934 133.899 289.514C133.191 289.094 132.633 288.5 132.225 287.732C131.829 286.964 131.631 286.076 131.631 285.068C131.631 284.06 131.829 283.178 132.225 282.422C132.633 281.654 133.191 281.066 133.899 280.658C134.619 280.238 135.429 280.028 136.329 280.028ZM140.217 285.086C140.217 284.294 140.055 283.598 139.731 282.998C139.407 282.398 138.963 281.936 138.399 281.612C137.847 281.288 137.235 281.126 136.563 281.126C135.867 281.126 135.243 281.282 134.691 281.594C134.139 281.906 133.701 282.362 133.377 282.962C133.065 283.55 132.909 284.252 132.909 285.068C132.909 285.872 133.065 286.58 133.377 287.192C133.701 287.792 134.139 288.254 134.691 288.578C135.243 288.89 135.867 289.046 136.563 289.046C137.235 289.046 137.847 288.884 138.399 288.56C138.963 288.236 139.407 287.774 139.731 287.174C140.055 286.574 140.217 285.878 140.217 285.086ZM148.961 279.992C150.137 279.992 151.097 280.358 151.841 281.09C152.585 281.81 152.957 282.86 152.957 284.24V290H151.715V284.384C151.715 283.316 151.445 282.5 150.905 281.936C150.377 281.372 149.651 281.09 148.727 281.09C147.779 281.09 147.023 281.39 146.459 281.99C145.895 282.59 145.613 283.472 145.613 284.636V290H144.353V280.172H145.613V281.846C145.925 281.246 146.375 280.79 146.963 280.478C147.551 280.154 148.217 279.992 148.961 279.992ZM160.107 285.086C160.107 284.066 160.311 283.178 160.719 282.422C161.127 281.654 161.691 281.066 162.411 280.658C163.131 280.238 163.953 280.028 164.877 280.028C166.089 280.028 167.085 280.328 167.865 280.928C168.657 281.528 169.167 282.344 169.395 283.376H168.045C167.877 282.668 167.511 282.116 166.947 281.72C166.395 281.312 165.705 281.108 164.877 281.108C164.217 281.108 163.623 281.258 163.095 281.558C162.567 281.858 162.147 282.308 161.835 282.908C161.535 283.496 161.385 284.222 161.385 285.086C161.385 285.95 161.535 286.682 161.835 287.282C162.147 287.882 162.567 288.332 163.095 288.632C163.623 288.932 164.217 289.082 164.877 289.082C165.705 289.082 166.395 288.884 166.947 288.488C167.511 288.08 167.877 287.516 168.045 286.796H169.395C169.167 287.804 168.657 288.614 167.865 289.226C167.073 289.838 166.077 290.144 164.877 290.144C163.953 290.144 163.131 289.94 162.411 289.532C161.691 289.112 161.127 288.524 160.719 287.768C160.311 287 160.107 286.106 160.107 285.086ZM176.024 290.144C175.1 290.144 174.266 289.94 173.522 289.532C172.79 289.112 172.208 288.524 171.776 287.768C171.356 287 171.146 286.106 171.146 285.086C171.146 284.066 171.362 283.178 171.794 282.422C172.226 281.654 172.814 281.066 173.558 280.658C174.302 280.238 175.136 280.028 176.06 280.028C176.984 280.028 177.818 280.238 178.562 280.658C179.318 281.066 179.906 281.654 180.326 282.422C180.758 283.178 180.974 284.066 180.974 285.086C180.974 286.094 180.758 286.982 180.326 287.75C179.894 288.518 179.3 289.112 178.544 289.532C177.788 289.94 176.948 290.144 176.024 290.144ZM176.024 289.046C176.672 289.046 177.272 288.902 177.824 288.614C178.376 288.314 178.82 287.87 179.156 287.282C179.504 286.682 179.678 285.95 179.678 285.086C179.678 284.222 179.51 283.496 179.174 282.908C178.838 282.308 178.394 281.864 177.842 281.576C177.29 281.276 176.69 281.126 176.042 281.126C175.394 281.126 174.794 281.276 174.242 281.576C173.69 281.864 173.246 282.308 172.91 282.908C172.586 283.496 172.424 284.222 172.424 285.086C172.424 285.95 172.586 286.682 172.91 287.282C173.246 287.87 173.684 288.314 174.224 288.614C174.776 288.902 175.376 289.046 176.024 289.046ZM194.971 279.992C196.123 279.992 197.059 280.358 197.779 281.09C198.511 281.81 198.877 282.86 198.877 284.24V290H197.635V284.384C197.635 283.316 197.377 282.5 196.861 281.936C196.345 281.372 195.643 281.09 194.755 281.09C193.831 281.09 193.093 281.396 192.541 282.008C191.989 282.62 191.713 283.508 191.713 284.672V290H190.471V284.384C190.471 283.316 190.213 282.5 189.697 281.936C189.181 281.372 188.473 281.09 187.573 281.09C186.649 281.09 185.911 281.396 185.359 282.008C184.807 282.62 184.531 283.508 184.531 284.672V290H183.271V280.172H184.531V281.864C184.843 281.252 185.287 280.79 185.863 280.478C186.439 280.154 187.081 279.992 187.789 279.992C188.641 279.992 189.385 280.196 190.021 280.604C190.669 281.012 191.137 281.612 191.425 282.404C191.689 281.624 192.139 281.03 192.775 280.622C193.423 280.202 194.155 279.992 194.971 279.992ZM213.375 279.992C214.527 279.992 215.463 280.358 216.183 281.09C216.915 281.81 217.281 282.86 217.281 284.24V290H216.039V284.384C216.039 283.316 215.781 282.5 215.265 281.936C214.749 281.372 214.047 281.09 213.159 281.09C212.235 281.09 211.497 281.396 210.945 282.008C210.393 282.62 210.117 283.508 210.117 284.672V290H208.875V284.384C208.875 283.316 208.617 282.5 208.101 281.936C207.585 281.372 206.877 281.09 205.977 281.09C205.053 281.09 204.315 281.396 203.763 282.008C203.211 282.62 202.935 283.508 202.935 284.672V290H201.675V280.172H202.935V281.864C203.247 281.252 203.691 280.79 204.267 280.478C204.843 280.154 205.485 279.992 206.193 279.992C207.045 279.992 207.789 280.196 208.425 280.604C209.073 281.012 209.541 281.612 209.829 282.404C210.093 281.624 210.543 281.03 211.179 280.622C211.827 280.202 212.559 279.992 213.375 279.992ZM228.594 280.172V290H227.334V288.272C227.046 288.884 226.602 289.352 226.002 289.676C225.402 290 224.73 290.162 223.986 290.162C222.81 290.162 221.85 289.802 221.106 289.082C220.362 288.35 219.99 287.294 219.99 285.914V280.172H221.232V285.77C221.232 286.838 221.496 287.654 222.024 288.218C222.564 288.782 223.296 289.064 224.22 289.064C225.168 289.064 225.924 288.764 226.488 288.164C227.052 287.564 227.334 286.682 227.334 285.518V280.172H228.594ZM236.078 279.992C237.254 279.992 238.214 280.358 238.958 281.09C239.702 281.81 240.074 282.86 240.074 284.24V290H238.832V284.384C238.832 283.316 238.562 282.5 238.022 281.936C237.494 281.372 236.768 281.09 235.844 281.09C234.896 281.09 234.14 281.39 233.576 281.99C233.012 282.59 232.73 283.472 232.73 284.636V290H231.47V280.172H232.73V281.846C233.042 281.246 233.492 280.79 234.08 280.478C234.668 280.154 235.334 279.992 236.078 279.992ZM243.491 278.318C243.239 278.318 243.023 278.228 242.843 278.048C242.663 277.868 242.573 277.646 242.573 277.382C242.573 277.118 242.663 276.902 242.843 276.734C243.023 276.554 243.239 276.464 243.491 276.464C243.743 276.464 243.959 276.554 244.139 276.734C244.319 276.902 244.409 277.118 244.409 277.382C244.409 277.646 244.319 277.868 244.139 278.048C243.959 278.228 243.743 278.318 243.491 278.318ZM244.121 280.172V290H242.861V280.172H244.121ZM248.612 281.234V287.336C248.612 287.936 248.726 288.35 248.954 288.578C249.182 288.806 249.584 288.92 250.16 288.92H251.312V290H249.962C249.074 290 248.414 289.796 247.982 289.388C247.55 288.968 247.334 288.284 247.334 287.336V281.234H245.966V280.172H247.334V277.706H248.612V280.172H251.312V281.234H248.612ZM261.49 280.172L255.658 294.626H254.344L256.252 289.946L252.22 280.172H253.606L256.954 288.56L260.194 280.172H261.49Z" fill="white"/>
<defs>
<filter id="filter0_f" x="0.5802" y="65.9791" width="343" height="282.393" filterUnits="userSpaceOnUse" color-interpolation-filters="sRGB">
<feFlood flood-opacity="0" result="BackgroundImageFix"/>
<feBlend mode="normal" in="SourceGraphic" in2="BackgroundImageFix" result="shape"/>
<feGaussianBlur stdDeviation="7" result="effect1_foregroundBlur"/>
</filter>
<filter id="filter1_f" x="80.3203" y="73.3955" width="28.25" height="28.1672" filterUnits="userSpaceOnUse" color-interpolation-filters="sRGB">
<feFlood flood-opacity="0" result="BackgroundImageFix"/>
<feBlend mode="normal" in="SourceGraphic" in2="BackgroundImageFix" result="shape"/>
<feGaussianBlur stdDeviation="5.5" result="effect1_foregroundBlur"/>
</filter>
<filter id="filter2_f" x="235.783" y="73.3955" width="28.25" height="28.1672" filterUnits="userSpaceOnUse" color-interpolation-filters="sRGB">
<feFlood flood-opacity="0" result="BackgroundImageFix"/>
<feBlend mode="normal" in="SourceGraphic" in2="BackgroundImageFix" result="shape"/>
<feGaussianBlur stdDeviation="5.5" result="effect1_foregroundBlur"/>
</filter>
<filter id="filter3_f" x="13.0802" y="77.2456" width="318" height="257.393" filterUnits="userSpaceOnUse" color-interpolation-filters="sRGB">
<feFlood flood-opacity="0" result="BackgroundImageFix"/>
<feBlend mode="normal" in="SourceGraphic" in2="BackgroundImageFix" result="shape"/>
<feGaussianBlur stdDeviation="3" result="effect1_foregroundBlur"/>
</filter>
<filter id="filter4_f" x="88.6311" y="80.3956" width="11.75" height="11.7003" filterUnits="userSpaceOnUse" color-interpolation-filters="sRGB">
<feFlood flood-opacity="0" result="BackgroundImageFix"/>
<feBlend mode="normal" in="SourceGraphic" in2="BackgroundImageFix" result="shape"/>
<feGaussianBlur stdDeviation="2" result="effect1_foregroundBlur"/>
</filter>
<filter id="filter5_f" x="243.905" y="80.3956" width="11.75" height="11.7003" filterUnits="userSpaceOnUse" color-interpolation-filters="sRGB">
<feFlood flood-opacity="0" result="BackgroundImageFix"/>
<feBlend mode="normal" in="SourceGraphic" in2="BackgroundImageFix" result="shape"/>
<feGaussianBlur stdDeviation="2" result="effect1_foregroundBlur"/>
</filter>
<linearGradient id="paint0_linear" x1="287.092" y1="203.474" x2="50.7171" y2="203.713" gradientUnits="userSpaceOnUse">
<stop stop-color="#FF168A"/>
<stop offset="0.315399" stop-color="#FABA33"/>
<stop offset="0.573227" stop-color="#E9E031"/>
<stop offset="0.826995" stop-color="#45F273"/>
<stop offset="1" stop-color="#30FFE9"/>
</linearGradient>
<linearGradient id="paint1_linear" x1="287.092" y1="202.24" x2="50.7171" y2="202.479" gradientUnits="userSpaceOnUse">
<stop stop-color="#FF168A"/>
<stop offset="0.315399" stop-color="#FABA33"/>
<stop offset="0.573227" stop-color="#E9E031"/>
<stop offset="0.826995" stop-color="#45F273"/>
<stop offset="1" stop-color="#30FFE9"/>
</linearGradient>
</defs>
</svg>
