<svg width="344" height="349" viewBox="0 0 344 349" fill="none" xmlns="http://www.w3.org/2000/svg">
<g filter="url(#filter0_f)">
<path d="M51.9181 84.5139L51.9181 77.0139L51.9181 84.5139ZM314.418 114.514V297.123H329.418V114.514H314.418ZM291.918 319.623H51.9181V334.623H291.918V319.623ZM29.4181 297.123V114.514H14.4181V297.123H29.4181ZM51.9181 92.0139L94.3291 92.0139V77.0139L51.9181 77.0139L51.9181 92.0139ZM249.628 92.0139H291.918V77.0139H249.628V92.0139ZM51.9181 319.623C39.4917 319.623 29.4181 309.549 29.4181 297.123H14.4181C14.4181 317.833 31.2074 334.623 51.9181 334.623V319.623ZM314.418 297.123C314.418 309.549 304.344 319.623 291.918 319.623V334.623C312.629 334.623 329.418 317.833 329.418 297.123H314.418ZM329.418 114.514C329.418 93.8033 312.629 77.0139 291.918 77.0139V92.0139C304.344 92.0139 314.418 102.088 314.418 114.514H329.418ZM29.4181 114.514C29.4181 102.088 39.4917 92.0139 51.9181 92.0139L51.9181 77.0139C31.2074 77.0139 14.4181 93.8033 14.4181 114.514H29.4181Z" fill="url(#paint0_linear)"/>
</g>
<g filter="url(#filter1_f)">
<circle cx="94.2837" cy="84.5138" r="3.12549" fill="#48F272"/>
</g>
<g filter="url(#filter2_f)">
<circle cx="249.746" cy="84.5138" r="3.12549" fill="#FD6461"/>
</g>
<g filter="url(#filter3_f)">
<path d="M51.9181 83.2636L51.9181 80.2636L51.9181 83.2636ZM318.918 113.264V295.872H324.918V113.264H318.918ZM291.918 322.872H51.9181V328.872H291.918V322.872ZM24.9181 295.872V113.264H18.9181V295.872H24.9181ZM51.9181 86.2636L94.3291 86.2635V80.2635L51.9181 80.2636L51.9181 86.2636ZM249.628 86.2636H291.918V80.2636H249.628V86.2636ZM51.9181 322.872C37.0064 322.872 24.9181 310.784 24.9181 295.872H18.9181C18.9181 314.098 33.6927 328.872 51.9181 328.872V322.872ZM318.918 295.872C318.918 310.784 306.83 322.872 291.918 322.872V328.872C310.143 328.872 324.918 314.098 324.918 295.872H318.918ZM324.918 113.264C324.918 95.0382 310.143 80.2636 291.918 80.2636V86.2636C306.83 86.2636 318.918 98.3519 318.918 113.264H324.918ZM24.9181 113.264C24.9181 98.3519 37.0064 86.2636 51.9181 86.2636L51.9181 80.2636C33.6927 80.2636 18.9181 95.0382 18.9181 113.264H24.9181Z" fill="url(#paint1_linear)"/>
</g>
<g filter="url(#filter4_f)">
<circle cx="94.3443" cy="83.2636" r="1.8753" fill="#48F272"/>
</g>
<g filter="url(#filter5_f)">
<circle cx="249.618" cy="83.2636" r="1.8753" fill="#FD6461"/>
</g>
<path d="M51.9181 83.2637V82.2637V83.2637ZM320.918 113.264V295.872H322.918V113.264H320.918ZM291.918 324.872H51.9181V326.872H291.918V324.872ZM22.9181 295.872V113.264H20.9181V295.872H22.9181ZM51.9181 84.2637L94.3291 84.2637V82.2637L51.9181 82.2637V84.2637ZM249.628 84.2637H291.918V82.2637H249.628V84.2637ZM51.9181 324.872C35.9018 324.872 22.9181 311.889 22.9181 295.872H20.9181C20.9181 312.993 34.7973 326.872 51.9181 326.872V324.872ZM320.918 295.872C320.918 311.889 307.934 324.872 291.918 324.872V326.872C309.039 326.872 322.918 312.993 322.918 295.872H320.918ZM322.918 113.264C322.918 96.1429 309.039 82.2637 291.918 82.2637V84.2637C307.934 84.2637 320.918 97.2474 320.918 113.264H322.918ZM22.9181 113.264C22.9181 97.2474 35.9018 84.2637 51.9181 84.2637V82.2637C34.7973 82.2637 20.9181 96.1429 20.9181 113.264H22.9181Z" fill="white"/>
<circle cx="94.3442" cy="83.2637" r="1" fill="white"/>
<circle cx="249.618" cy="83.2637" r="1" fill="white"/>
<path fill-rule="evenodd" clip-rule="evenodd" d="M218.016 62.5555C217.509 62.0472 217.195 61.3456 217.195 60.5706C217.195 59.0189 218.453 57.761 220.005 57.761C221.557 57.761 222.815 59.0189 222.815 60.5706C222.815 62.1224 221.557 63.3803 220.005 63.3803C219.951 63.3803 219.898 63.3788 219.845 63.3758L193.125 113.672C193.262 114.003 193.338 114.365 193.338 114.746C193.338 116.298 192.08 117.555 190.528 117.555C188.977 117.555 187.719 116.298 187.719 114.746C187.719 114.476 187.757 114.216 187.827 113.969L151.721 63.7347C151.286 64.0115 150.769 64.1718 150.215 64.1718C149.964 64.1718 149.72 64.1389 149.489 64.077L124.383 114.289C124.843 114.789 125.124 115.457 125.124 116.19C125.124 117.742 123.866 119 122.314 119C120.762 119 119.505 117.742 119.505 116.19C119.505 114.639 120.762 113.381 122.314 113.381C122.409 113.381 122.502 113.385 122.594 113.394L147.851 62.8807C147.569 62.4428 147.406 61.9216 147.406 61.3622C147.406 59.8105 148.663 58.5525 150.215 58.5525C151.767 58.5525 153.025 59.8105 153.025 61.3622C153.025 61.5916 152.997 61.8145 152.946 62.0279C152.997 62.0894 153.048 62.1536 153.096 62.2205L189.106 112.322C189.523 112.077 190.009 111.936 190.528 111.936C190.93 111.936 191.312 112.02 191.657 112.172L218.016 62.5555ZM161.585 40.9399L150.265 14.8599C150.065 14.4199 149.825 14.0999 149.265 14.0999C148.705 14.0999 148.465 14.4199 148.265 14.8599L136.945 40.9399C136.905 41.0599 136.865 41.2199 136.865 41.3799C136.865 41.8999 137.305 42.3799 137.865 42.3799C138.305 42.3799 138.665 42.0599 138.825 41.7399L142.225 33.9399H156.305L159.705 41.7399C159.865 42.0599 160.225 42.3799 160.665 42.3799C161.225 42.3799 161.665 41.8999 161.665 41.3799C161.665 41.2199 161.625 41.0599 161.585 40.9399ZM142.945 32.2199L149.265 17.6599L155.585 32.2199H142.945ZM173.882 14.2199H166.562C165.922 14.2199 165.482 14.6599 165.482 15.2999V41.2999C165.482 41.8599 165.922 42.3399 166.522 42.3399C167.082 42.3399 167.522 41.8599 167.522 41.2999V31.3399H173.882C180.122 31.3399 183.962 28.1399 183.962 22.6999C183.962 17.6599 180.122 14.2199 173.882 14.2199ZM173.882 29.5399H167.522V16.0199H173.882C178.962 16.0199 181.962 18.6199 181.962 22.6999C181.962 27.1799 178.962 29.5399 173.882 29.5399ZM205.766 14.1399C205.446 14.1399 205.126 14.2999 204.926 14.6199L196.246 27.1799L187.566 14.6199C187.366 14.2999 187.046 14.1399 186.726 14.1399C186.166 14.1399 185.766 14.5399 185.766 15.0199C185.766 15.2199 185.846 15.4599 186.006 15.6999L195.206 28.9799V41.2999C195.206 41.8199 195.646 42.3399 196.246 42.3399C196.846 42.3399 197.286 41.8199 197.286 41.2999V28.9799L206.486 15.6999C206.646 15.4599 206.726 15.2199 206.726 15.0199C206.726 14.5399 206.326 14.1399 205.766 14.1399Z" fill="white"/>
<path d="M80.3595 167.429C80.3595 169.141 80.0075 170.637 79.3035 171.917C78.6155 173.181 77.5995 174.165 76.2555 174.869C74.9275 175.573 73.3355 175.925 71.4795 175.925H65.8155V158.981H71.4795C73.3355 158.981 74.9275 159.333 76.2555 160.037C77.5995 160.725 78.6155 161.701 79.3035 162.965C80.0075 164.229 80.3595 165.717 80.3595 167.429ZM71.2635 173.453C73.2955 173.453 74.8555 172.925 75.9435 171.869C77.0315 170.813 77.5755 169.333 77.5755 167.429C77.5755 165.525 77.0315 164.045 75.9435 162.989C74.8555 161.933 73.2955 161.405 71.2635 161.405H68.5515V173.453H71.2635ZM84.6724 162.701L88.6324 172.421L92.3044 162.701H95.3524L87.3604 182.213H84.3124L87.1684 175.613L81.6004 162.701H84.6724ZM104.543 162.485C106.079 162.485 107.311 162.981 108.239 163.973C109.167 164.965 109.631 166.381 109.631 168.221V175.925H106.895V168.509C106.895 167.325 106.591 166.413 105.983 165.773C105.375 165.117 104.543 164.789 103.487 164.789C102.399 164.789 101.527 165.141 100.871 165.845C100.215 166.533 99.8875 167.549 99.8875 168.893V175.925H97.1515V162.701H99.8875V165.605C100.239 164.613 100.831 163.845 101.663 163.301C102.495 162.757 103.455 162.485 104.543 162.485ZM118.135 162.533C119.335 162.533 120.359 162.829 121.207 163.421C122.055 164.013 122.655 164.797 123.007 165.773V162.701H125.743V175.925H123.007V172.853C122.655 173.829 122.055 174.613 121.207 175.205C120.359 175.797 119.335 176.093 118.135 176.093C116.983 176.093 115.951 175.821 115.039 175.277C114.143 174.733 113.439 173.949 112.927 172.925C112.415 171.901 112.159 170.693 112.159 169.301C112.159 167.925 112.415 166.725 112.927 165.701C113.439 164.677 114.143 163.893 115.039 163.349C115.951 162.805 116.983 162.533 118.135 162.533ZM118.975 164.933C117.759 164.933 116.783 165.325 116.047 166.109C115.327 166.877 114.967 167.941 114.967 169.301C114.967 170.661 115.327 171.733 116.047 172.517C116.783 173.285 117.759 173.669 118.975 173.669C119.743 173.669 120.431 173.493 121.039 173.141C121.647 172.773 122.127 172.261 122.479 171.605C122.831 170.949 123.007 170.181 123.007 169.301C123.007 168.437 122.831 167.677 122.479 167.021C122.127 166.349 121.647 165.837 121.039 165.485C120.431 165.117 119.743 164.933 118.975 164.933ZM145.562 162.485C147.13 162.485 148.378 162.981 149.306 163.973C150.25 164.965 150.722 166.381 150.722 168.221V175.925H147.986V168.509C147.986 167.357 147.698 166.469 147.122 165.845C146.546 165.205 145.754 164.885 144.746 164.885C143.674 164.885 142.818 165.229 142.178 165.917C141.554 166.589 141.242 167.581 141.242 168.893V175.925H138.506V168.509C138.506 167.357 138.218 166.469 137.642 165.845C137.066 165.205 136.274 164.885 135.266 164.885C134.194 164.885 133.338 165.229 132.698 165.917C132.074 166.589 131.762 167.581 131.762 168.893V175.925H129.026V162.701H131.762V165.461C132.098 164.501 132.658 163.765 133.442 163.253C134.226 162.741 135.146 162.485 136.202 162.485C137.306 162.485 138.258 162.757 139.058 163.301C139.874 163.845 140.466 164.629 140.834 165.653C141.218 164.661 141.834 163.885 142.682 163.325C143.53 162.765 144.49 162.485 145.562 162.485ZM153.533 158.861C153.533 158.397 153.693 158.013 154.013 157.709C154.333 157.405 154.757 157.253 155.285 157.253C155.813 157.253 156.237 157.405 156.557 157.709C156.893 158.013 157.061 158.397 157.061 158.861C157.061 159.325 156.893 159.701 156.557 159.989C156.237 160.277 155.813 160.421 155.285 160.421C154.757 160.421 154.333 160.277 154.013 159.989C153.693 159.701 153.533 159.325 153.533 158.861ZM156.653 162.701V175.925H153.917V162.701H156.653ZM165.844 162.533C167.556 162.533 168.972 162.989 170.092 163.901C171.212 164.797 171.908 166.021 172.18 167.573H169.276C169.116 166.741 168.724 166.093 168.1 165.629C167.492 165.149 166.724 164.909 165.796 164.909C164.74 164.909 163.86 165.285 163.156 166.037C162.452 166.773 162.1 167.861 162.1 169.301C162.1 170.741 162.452 171.837 163.156 172.589C163.86 173.341 164.74 173.717 165.796 173.717C166.724 173.717 167.492 173.477 168.1 172.997C168.724 172.517 169.116 171.861 169.276 171.029H172.18C171.908 172.581 171.212 173.813 170.092 174.725C168.972 175.637 167.556 176.093 165.844 176.093C164.564 176.093 163.428 175.821 162.436 175.277C161.46 174.733 160.692 173.949 160.132 172.925C159.572 171.901 159.292 170.693 159.292 169.301C159.292 167.925 159.572 166.725 160.132 165.701C160.692 164.677 161.46 163.893 162.436 163.349C163.428 162.805 164.564 162.533 165.844 162.533ZM183.184 158.981V175.925H180.448V158.981H183.184ZM193.887 162.485C195.423 162.485 196.655 162.981 197.583 163.973C198.511 164.965 198.975 166.381 198.975 168.221V175.925H196.239V168.509C196.239 167.325 195.935 166.413 195.327 165.773C194.719 165.117 193.887 164.789 192.831 164.789C191.743 164.789 190.871 165.141 190.215 165.845C189.559 166.533 189.231 167.549 189.231 168.893V175.925H186.495V162.701H189.231V165.605C189.583 164.613 190.175 163.845 191.007 163.301C191.839 162.757 192.799 162.485 193.887 162.485ZM208.823 173.549V175.925H207.143C205.735 175.925 204.663 175.589 203.927 174.917C203.207 174.229 202.847 173.093 202.847 171.509V165.029H200.951V162.701H202.847V159.413H205.607V162.701H208.799V165.029H205.607V171.557C205.607 172.309 205.743 172.829 206.015 173.117C206.303 173.405 206.799 173.549 207.503 173.549H208.823ZM223.674 168.677C223.674 169.125 223.642 169.517 223.578 169.853H213.402C213.45 171.213 213.826 172.221 214.53 172.877C215.234 173.533 216.106 173.861 217.146 173.861C218.058 173.861 218.826 173.629 219.45 173.165C220.09 172.701 220.482 172.085 220.626 171.317H223.554C223.378 172.245 223.01 173.069 222.45 173.789C221.89 174.509 221.162 175.077 220.266 175.493C219.37 175.893 218.37 176.093 217.266 176.093C215.986 176.093 214.85 175.821 213.858 175.277C212.882 174.733 212.114 173.949 211.554 172.925C210.994 171.901 210.714 170.693 210.714 169.301C210.714 167.925 210.994 166.725 211.554 165.701C212.114 164.677 212.882 163.893 213.858 163.349C214.85 162.805 215.986 162.533 217.266 162.533C218.562 162.533 219.69 162.805 220.65 163.349C221.626 163.877 222.37 164.613 222.882 165.557C223.41 166.485 223.674 167.525 223.674 168.677ZM220.914 168.605C220.946 167.741 220.794 167.021 220.458 166.445C220.138 165.853 219.69 165.421 219.114 165.149C218.554 164.861 217.938 164.717 217.266 164.717C216.194 164.717 215.298 165.045 214.578 165.701C213.858 166.357 213.466 167.325 213.402 168.605H220.914ZM229.052 165.293C229.5 164.429 230.14 163.749 230.972 163.253C231.804 162.741 232.764 162.485 233.852 162.485V165.461H233.036C231.836 165.461 230.868 165.757 230.132 166.349C229.412 166.925 229.052 167.885 229.052 169.229V175.925H226.316V162.701H229.052V165.293ZM248.189 168.677C248.189 169.125 248.157 169.517 248.093 169.853H237.917C237.965 171.213 238.341 172.221 239.045 172.877C239.749 173.533 240.621 173.861 241.661 173.861C242.573 173.861 243.341 173.629 243.965 173.165C244.605 172.701 244.997 172.085 245.141 171.317H248.069C247.893 172.245 247.525 173.069 246.965 173.789C246.405 174.509 245.677 175.077 244.781 175.493C243.885 175.893 242.885 176.093 241.781 176.093C240.501 176.093 239.365 175.821 238.373 175.277C237.397 174.733 236.629 173.949 236.069 172.925C235.509 171.901 235.229 170.693 235.229 169.301C235.229 167.925 235.509 166.725 236.069 165.701C236.629 164.677 237.397 163.893 238.373 163.349C239.365 162.805 240.501 162.533 241.781 162.533C243.077 162.533 244.205 162.805 245.165 163.349C246.141 163.877 246.885 164.613 247.397 165.557C247.925 166.485 248.189 167.525 248.189 168.677ZM245.429 168.605C245.461 167.741 245.309 167.021 244.973 166.445C244.653 165.853 244.205 165.421 243.629 165.149C243.069 164.861 242.453 164.717 241.781 164.717C240.709 164.717 239.813 165.045 239.093 165.701C238.373 166.357 237.981 167.325 237.917 168.605H245.429ZM255.175 162.533C256.727 162.533 257.967 162.933 258.895 163.733C259.839 164.517 260.415 165.573 260.623 166.901H258.031C257.919 166.181 257.607 165.605 257.095 165.173C256.599 164.725 255.935 164.501 255.103 164.501C254.415 164.501 253.879 164.669 253.495 165.005C253.127 165.325 252.943 165.765 252.943 166.325C252.943 166.741 253.079 167.077 253.351 167.333C253.623 167.589 253.959 167.789 254.359 167.933C254.775 168.077 255.359 168.237 256.111 168.413C257.103 168.637 257.903 168.869 258.511 169.109C259.135 169.349 259.663 169.733 260.095 170.261C260.543 170.773 260.767 171.477 260.767 172.373C260.767 173.477 260.343 174.373 259.495 175.061C258.663 175.749 257.535 176.093 256.111 176.093C254.463 176.093 253.127 175.709 252.103 174.941C251.095 174.173 250.487 173.101 250.279 171.725H252.943C253.023 172.445 253.343 173.029 253.903 173.477C254.463 173.925 255.199 174.149 256.111 174.149C256.767 174.149 257.279 173.981 257.647 173.645C258.031 173.293 258.223 172.853 258.223 172.325C258.223 171.861 258.079 171.493 257.791 171.221C257.503 170.949 257.143 170.741 256.711 170.597C256.279 170.437 255.687 170.277 254.935 170.117C253.975 169.893 253.191 169.669 252.583 169.445C251.991 169.221 251.479 168.861 251.047 168.365C250.631 167.853 250.423 167.165 250.423 166.301C250.423 165.181 250.839 164.277 251.671 163.589C252.519 162.885 253.687 162.533 255.175 162.533ZM270.159 173.549V175.925H268.479C267.071 175.925 265.999 175.589 265.263 174.917C264.543 174.229 264.183 173.093 264.183 171.509V165.029H262.287V162.701H264.183V159.413H266.943V162.701H270.135V165.029H266.943V171.557C266.943 172.309 267.079 172.829 267.351 173.117C267.639 173.405 268.135 173.549 268.839 173.549H270.159Z" fill="white"/>
<path d="M44.8873 207.282H48.9833V208.178H43.7513V196.898H44.8873V207.282ZM50.2609 196.85C50.2609 196.616 50.3356 196.429 50.4849 196.29C50.6449 196.152 50.8476 196.082 51.0929 196.082C51.3382 196.082 51.5356 196.152 51.6849 196.29C51.8342 196.429 51.9089 196.616 51.9089 196.85C51.9089 197.074 51.8342 197.256 51.6849 197.394C51.5356 197.533 51.3382 197.602 51.0929 197.602C50.8476 197.602 50.6449 197.533 50.4849 197.394C50.3356 197.256 50.2609 197.074 50.2609 196.85ZM51.6529 199.442V208.178H50.5169V199.442H51.6529ZM57.8234 199.346C58.6874 199.346 59.4181 199.56 60.0154 199.986C60.6234 200.413 61.0554 200.994 61.3114 201.73V199.442H62.4154V212.306H61.3114V205.842C61.0554 206.589 60.6234 207.186 60.0154 207.634C59.4074 208.072 58.6767 208.29 57.8234 208.29C57.0234 208.29 56.3087 208.109 55.6794 207.746C55.0501 207.373 54.5541 206.85 54.1914 206.178C53.8394 205.506 53.6634 204.722 53.6634 203.826C53.6634 202.93 53.8394 202.146 54.1914 201.474C54.5541 200.792 55.0501 200.269 55.6794 199.906C56.3087 199.533 57.0234 199.346 57.8234 199.346ZM58.0474 200.322C57.0767 200.322 56.2927 200.637 55.6954 201.266C55.0981 201.885 54.7994 202.738 54.7994 203.826C54.7994 204.914 55.0981 205.768 55.6954 206.386C56.2927 206.994 57.0767 207.298 58.0474 207.298C58.6554 207.298 59.2047 207.16 59.6954 206.882C60.1967 206.594 60.5914 206.189 60.8794 205.666C61.1674 205.133 61.3114 204.514 61.3114 203.81C61.3114 203.106 61.1674 202.493 60.8794 201.97C60.5914 201.437 60.1967 201.032 59.6954 200.754C59.2047 200.466 58.6554 200.322 58.0474 200.322ZM72.381 199.442V208.178H71.261V206.018C71.037 206.776 70.6317 207.352 70.045 207.746C69.4584 208.141 68.7864 208.338 68.029 208.338C67.005 208.338 66.173 208.018 65.533 207.378C64.9037 206.728 64.589 205.778 64.589 204.53V199.442H65.709V204.434C65.709 205.394 65.949 206.13 66.429 206.642C66.909 207.144 67.565 207.394 68.397 207.394C69.2717 207.394 69.965 207.117 70.477 206.562C70.9997 205.997 71.261 205.17 71.261 204.082V199.442H72.381ZM74.5734 196.85C74.5734 196.616 74.6481 196.429 74.7974 196.29C74.9574 196.152 75.1601 196.082 75.4054 196.082C75.6507 196.082 75.8481 196.152 75.9974 196.29C76.1467 196.429 76.2214 196.616 76.2214 196.85C76.2214 197.074 76.1467 197.256 75.9974 197.394C75.8481 197.533 75.6507 197.602 75.4054 197.602C75.1601 197.602 74.9574 197.533 74.7974 197.394C74.6481 197.256 74.5734 197.074 74.5734 196.85ZM75.9654 199.442V208.178H74.8294V199.442H75.9654ZM82.0719 199.33C82.9572 199.33 83.7092 199.56 84.3279 200.018C84.9572 200.477 85.3839 201.085 85.6079 201.842V196.338H86.7279V208.178H85.6079V205.778C85.3839 206.536 84.9572 207.144 84.3279 207.602C83.7092 208.061 82.9572 208.29 82.0719 208.29C81.2826 208.29 80.5732 208.109 79.9439 207.746C79.3252 207.384 78.8399 206.866 78.4879 206.194C78.1466 205.512 77.9759 204.717 77.9759 203.81C77.9759 202.893 78.1466 202.098 78.4879 201.426C78.8399 200.744 79.3252 200.226 79.9439 199.874C80.5626 199.512 81.2719 199.33 82.0719 199.33ZM82.3599 200.322C81.3786 200.322 80.5892 200.637 79.9919 201.266C79.4052 201.885 79.1119 202.733 79.1119 203.81C79.1119 204.888 79.4052 205.741 79.9919 206.37C80.5892 206.989 81.3786 207.298 82.3599 207.298C82.9786 207.298 83.5332 207.154 84.0239 206.866C84.5252 206.578 84.9146 206.173 85.1919 205.65C85.4799 205.117 85.6239 204.504 85.6239 203.81C85.6239 203.117 85.4799 202.509 85.1919 201.986C84.9146 201.453 84.5252 201.042 84.0239 200.754C83.5332 200.466 82.9786 200.322 82.3599 200.322ZM88.9015 196.85C88.9015 196.616 88.9762 196.429 89.1255 196.29C89.2855 196.152 89.4882 196.082 89.7335 196.082C89.9789 196.082 90.1762 196.152 90.3255 196.29C90.4749 196.429 90.5495 196.616 90.5495 196.85C90.5495 197.074 90.4749 197.256 90.3255 197.394C90.1762 197.533 89.9789 197.602 89.7335 197.602C89.4882 197.602 89.2855 197.533 89.1255 197.394C88.9762 197.256 88.9015 197.074 88.9015 196.85ZM90.2935 199.442V208.178H89.1575V199.442H90.2935ZM96.688 207.186V208.178H95.648C94.8054 208.178 94.176 207.981 93.76 207.586C93.344 207.181 93.136 206.504 93.136 205.554V200.418H91.808V199.442H93.136V197.234H94.272V199.442H96.672V200.418H94.272V205.57C94.272 206.189 94.384 206.616 94.608 206.85C94.832 207.074 95.2267 207.186 95.792 207.186H96.688ZM98.7725 199.442L101.813 206.722L104.613 199.442H105.861L100.725 212.306H99.4445L101.205 208.082L97.5245 199.442H98.7725ZM116.111 199.33C116.911 199.33 117.615 199.512 118.223 199.874C118.841 200.226 119.321 200.744 119.663 201.426C120.015 202.098 120.191 202.893 120.191 203.81C120.191 204.717 120.015 205.512 119.663 206.194C119.321 206.866 118.841 207.384 118.223 207.746C117.604 208.109 116.9 208.29 116.111 208.29C115.215 208.29 114.457 208.061 113.839 207.602C113.22 207.144 112.793 206.536 112.559 205.778V212.306H111.439V199.442H112.559V201.842C112.793 201.085 113.22 200.477 113.839 200.018C114.457 199.56 115.215 199.33 116.111 199.33ZM115.807 200.322C115.188 200.322 114.628 200.466 114.127 200.754C113.636 201.042 113.252 201.453 112.975 201.986C112.697 202.509 112.559 203.117 112.559 203.81C112.559 204.504 112.697 205.117 112.975 205.65C113.252 206.173 113.636 206.578 114.127 206.866C114.628 207.154 115.188 207.298 115.807 207.298C116.799 207.298 117.588 206.989 118.175 206.37C118.761 205.741 119.055 204.888 119.055 203.81C119.055 202.733 118.761 201.885 118.175 201.266C117.588 200.637 116.799 200.322 115.807 200.322ZM126.156 199.33C126.988 199.33 127.73 199.512 128.38 199.874C129.042 200.226 129.559 200.744 129.932 201.426C130.306 202.098 130.492 202.893 130.492 203.81C130.492 204.728 130.306 205.522 129.932 206.194C129.559 206.866 129.042 207.384 128.38 207.746C127.73 208.109 126.988 208.29 126.156 208.29C125.324 208.29 124.578 208.109 123.916 207.746C123.255 207.384 122.732 206.866 122.348 206.194C121.975 205.512 121.788 204.717 121.788 203.81C121.788 202.893 121.975 202.098 122.348 201.426C122.732 200.744 123.255 200.226 123.916 199.874C124.578 199.512 125.324 199.33 126.156 199.33ZM126.156 200.306C125.58 200.306 125.047 200.434 124.556 200.69C124.066 200.946 123.671 201.341 123.372 201.874C123.074 202.397 122.924 203.042 122.924 203.81C122.924 204.578 123.074 205.224 123.372 205.746C123.671 206.269 124.066 206.658 124.556 206.914C125.047 207.17 125.58 207.298 126.156 207.298C126.722 207.298 127.244 207.17 127.724 206.914C128.215 206.658 128.61 206.269 128.908 205.746C129.207 205.224 129.356 204.578 129.356 203.81C129.356 203.042 129.207 202.397 128.908 201.874C128.61 201.341 128.215 200.946 127.724 200.69C127.244 200.434 126.722 200.306 126.156 200.306ZM136.453 199.33C137.285 199.33 138.027 199.512 138.677 199.874C139.339 200.226 139.856 200.744 140.229 201.426C140.603 202.098 140.789 202.893 140.789 203.81C140.789 204.728 140.603 205.522 140.229 206.194C139.856 206.866 139.339 207.384 138.677 207.746C138.027 208.109 137.285 208.29 136.453 208.29C135.621 208.29 134.875 208.109 134.213 207.746C133.552 207.384 133.029 206.866 132.645 206.194C132.272 205.512 132.085 204.717 132.085 203.81C132.085 202.893 132.272 202.098 132.645 201.426C133.029 200.744 133.552 200.226 134.213 199.874C134.875 199.512 135.621 199.33 136.453 199.33ZM136.453 200.306C135.877 200.306 135.344 200.434 134.853 200.69C134.363 200.946 133.968 201.341 133.669 201.874C133.371 202.397 133.221 203.042 133.221 203.81C133.221 204.578 133.371 205.224 133.669 205.746C133.968 206.269 134.363 206.658 134.853 206.914C135.344 207.17 135.877 207.298 136.453 207.298C137.019 207.298 137.541 207.17 138.021 206.914C138.512 206.658 138.907 206.269 139.205 205.746C139.504 205.224 139.653 204.578 139.653 203.81C139.653 203.042 139.504 202.397 139.205 201.874C138.907 201.341 138.512 200.946 138.021 200.69C137.541 200.434 137.019 200.306 136.453 200.306ZM143.934 196.338V208.178H142.798V196.338H143.934ZM150.261 196.85C150.261 196.616 150.336 196.429 150.485 196.29C150.645 196.152 150.848 196.082 151.093 196.082C151.338 196.082 151.536 196.152 151.685 196.29C151.834 196.429 151.909 196.616 151.909 196.85C151.909 197.074 151.834 197.256 151.685 197.394C151.536 197.533 151.338 197.602 151.093 197.602C150.848 197.602 150.645 197.533 150.485 197.394C150.336 197.256 150.261 197.074 150.261 196.85ZM151.653 199.442V208.178H150.517V199.442H151.653ZM158.447 199.282C159.461 199.282 160.282 199.608 160.911 200.258C161.551 200.898 161.871 201.842 161.871 203.09V208.178H160.767V203.17C160.767 202.221 160.527 201.496 160.047 200.994C159.567 200.482 158.911 200.226 158.079 200.226C157.205 200.226 156.506 200.509 155.983 201.074C155.471 201.629 155.215 202.45 155.215 203.538V208.178H154.079V199.442H155.215V201.586C155.439 200.84 155.845 200.269 156.431 199.874C157.018 199.48 157.69 199.282 158.447 199.282ZM168.204 207.186V208.178H167.164C166.321 208.178 165.692 207.981 165.276 207.586C164.86 207.181 164.652 206.504 164.652 205.554V200.418H163.324V199.442H164.652V197.234H165.788V199.442H168.188V200.418H165.788V205.57C165.788 206.189 165.9 206.616 166.124 206.85C166.348 207.074 166.742 207.186 167.308 207.186H168.204ZM173.856 207.362C174.645 207.362 175.307 207.165 175.84 206.77C176.373 206.376 176.693 205.842 176.8 205.17H177.984C177.824 206.098 177.381 206.85 176.656 207.426C175.931 208.002 175.013 208.29 173.904 208.29C173.072 208.29 172.331 208.114 171.68 207.762C171.04 207.4 170.539 206.882 170.176 206.21C169.813 205.528 169.632 204.728 169.632 203.81C169.632 202.893 169.813 202.098 170.176 201.426C170.539 200.744 171.04 200.226 171.68 199.874C172.331 199.512 173.072 199.33 173.904 199.33C174.757 199.33 175.493 199.512 176.112 199.874C176.741 200.226 177.216 200.701 177.536 201.298C177.867 201.896 178.032 202.546 178.032 203.25C178.032 203.549 178.011 203.821 177.968 204.066H170.736C170.747 204.802 170.896 205.421 171.184 205.922C171.483 206.413 171.867 206.776 172.336 207.01C172.805 207.245 173.312 207.362 173.856 207.362ZM173.904 200.242C173.339 200.242 172.821 200.36 172.352 200.594C171.883 200.829 171.499 201.192 171.2 201.682C170.912 202.162 170.757 202.765 170.736 203.49H176.912C176.955 202.776 176.837 202.173 176.56 201.682C176.283 201.192 175.909 200.829 175.44 200.594C174.971 200.36 174.459 200.242 173.904 200.242ZM181.184 201.25C181.44 200.621 181.851 200.136 182.416 199.794C182.981 199.453 183.669 199.282 184.48 199.282V200.498H184.112C183.269 200.498 182.571 200.728 182.016 201.186C181.461 201.634 181.184 202.37 181.184 203.394V208.178H180.048V199.442H181.184V201.25ZM189.778 207.362C190.567 207.362 191.229 207.165 191.762 206.77C192.295 206.376 192.615 205.842 192.722 205.17H193.906C193.746 206.098 193.303 206.85 192.578 207.426C191.853 208.002 190.935 208.29 189.826 208.29C188.994 208.29 188.253 208.114 187.602 207.762C186.962 207.4 186.461 206.882 186.098 206.21C185.735 205.528 185.554 204.728 185.554 203.81C185.554 202.893 185.735 202.098 186.098 201.426C186.461 200.744 186.962 200.226 187.602 199.874C188.253 199.512 188.994 199.33 189.826 199.33C190.679 199.33 191.415 199.512 192.034 199.874C192.663 200.226 193.138 200.701 193.458 201.298C193.789 201.896 193.954 202.546 193.954 203.25C193.954 203.549 193.933 203.821 193.89 204.066H186.658C186.669 204.802 186.818 205.421 187.106 205.922C187.405 206.413 187.789 206.776 188.258 207.01C188.727 207.245 189.234 207.362 189.778 207.362ZM189.826 200.242C189.261 200.242 188.743 200.36 188.274 200.594C187.805 200.829 187.421 201.192 187.122 201.682C186.834 202.162 186.679 202.765 186.658 203.49H192.834C192.877 202.776 192.759 202.173 192.482 201.682C192.205 201.192 191.831 200.829 191.362 200.594C190.893 200.36 190.381 200.242 189.826 200.242ZM198.61 199.33C199.559 199.33 200.322 199.581 200.898 200.082C201.474 200.584 201.826 201.261 201.954 202.114H200.882C200.818 201.549 200.583 201.085 200.178 200.722C199.783 200.349 199.25 200.162 198.578 200.162C198.002 200.162 197.549 200.306 197.218 200.594C196.898 200.872 196.738 201.245 196.738 201.714C196.738 202.066 196.839 202.349 197.042 202.562C197.255 202.776 197.517 202.941 197.826 203.058C198.135 203.165 198.551 203.277 199.074 203.394C199.714 203.544 200.226 203.698 200.61 203.858C201.005 204.008 201.341 204.248 201.618 204.578C201.895 204.909 202.034 205.357 202.034 205.922C202.034 206.616 201.773 207.186 201.25 207.634C200.738 208.072 200.055 208.29 199.202 208.29C198.199 208.29 197.378 208.045 196.738 207.554C196.098 207.053 195.719 206.37 195.602 205.506H196.69C196.754 206.082 197.005 206.552 197.442 206.914C197.879 207.277 198.471 207.458 199.218 207.458C199.773 207.458 200.205 207.314 200.514 207.026C200.823 206.738 200.978 206.365 200.978 205.906C200.978 205.533 200.871 205.234 200.658 205.01C200.445 204.786 200.178 204.621 199.858 204.514C199.549 204.397 199.122 204.274 198.578 204.146C197.949 203.997 197.442 203.848 197.058 203.698C196.685 203.549 196.365 203.32 196.098 203.01C195.831 202.69 195.698 202.258 195.698 201.714C195.698 201 195.959 200.424 196.482 199.986C197.005 199.549 197.714 199.33 198.61 199.33ZM208.047 207.186V208.178H207.007C206.165 208.178 205.535 207.981 205.119 207.586C204.703 207.181 204.495 206.504 204.495 205.554V200.418H203.167V199.442H204.495V197.234H205.631V199.442H208.031V200.418H205.631V205.57C205.631 206.189 205.743 206.616 205.967 206.85C206.191 207.074 206.586 207.186 207.151 207.186H208.047ZM215.184 201.25C215.44 200.621 215.851 200.136 216.416 199.794C216.981 199.453 217.669 199.282 218.48 199.282V200.498H218.112C217.269 200.498 216.571 200.728 216.016 201.186C215.461 201.634 215.184 202.37 215.184 203.394V208.178H214.048V199.442H215.184V201.25ZM223.65 199.33C224.535 199.33 225.287 199.56 225.906 200.018C226.535 200.477 226.967 201.085 227.202 201.842V199.442H228.306V208.178H227.202V205.778C226.967 206.536 226.535 207.144 225.906 207.602C225.287 208.061 224.535 208.29 223.65 208.29C222.861 208.29 222.151 208.109 221.522 207.746C220.903 207.384 220.418 206.866 220.066 206.194C219.725 205.512 219.554 204.717 219.554 203.81C219.554 202.893 219.725 202.098 220.066 201.426C220.418 200.744 220.903 200.226 221.522 199.874C222.141 199.512 222.85 199.33 223.65 199.33ZM223.938 200.322C222.957 200.322 222.167 200.637 221.57 201.266C220.983 201.885 220.69 202.733 220.69 203.81C220.69 204.888 220.983 205.741 221.57 206.37C222.167 206.989 222.957 207.298 223.938 207.298C224.557 207.298 225.111 207.154 225.602 206.866C226.103 206.578 226.493 206.173 226.77 205.65C227.058 205.117 227.202 204.504 227.202 203.81C227.202 203.117 227.058 202.509 226.77 201.986C226.493 201.453 226.103 201.042 225.602 200.754C225.111 200.466 224.557 200.322 223.938 200.322ZM234.704 207.186V208.178H233.664C232.821 208.178 232.192 207.981 231.776 207.586C231.36 207.181 231.152 206.504 231.152 205.554V200.418H229.824V199.442H231.152V197.234H232.288V199.442H234.688V200.418H232.288V205.57C232.288 206.189 232.4 206.616 232.624 206.85C232.848 207.074 233.242 207.186 233.808 207.186H234.704ZM240.356 207.362C241.145 207.362 241.807 207.165 242.34 206.77C242.873 206.376 243.193 205.842 243.3 205.17H244.484C244.324 206.098 243.881 206.85 243.156 207.426C242.431 208.002 241.513 208.29 240.404 208.29C239.572 208.29 238.831 208.114 238.18 207.762C237.54 207.4 237.039 206.882 236.676 206.21C236.313 205.528 236.132 204.728 236.132 203.81C236.132 202.893 236.313 202.098 236.676 201.426C237.039 200.744 237.54 200.226 238.18 199.874C238.831 199.512 239.572 199.33 240.404 199.33C241.257 199.33 241.993 199.512 242.612 199.874C243.241 200.226 243.716 200.701 244.036 201.298C244.367 201.896 244.532 202.546 244.532 203.25C244.532 203.549 244.511 203.821 244.468 204.066H237.236C237.247 204.802 237.396 205.421 237.684 205.922C237.983 206.413 238.367 206.776 238.836 207.01C239.305 207.245 239.812 207.362 240.356 207.362ZM240.404 200.242C239.839 200.242 239.321 200.36 238.852 200.594C238.383 200.829 237.999 201.192 237.7 201.682C237.412 202.162 237.257 202.765 237.236 203.49H243.412C243.455 202.776 243.337 202.173 243.06 201.682C242.783 201.192 242.409 200.829 241.94 200.594C241.471 200.36 240.959 200.242 240.404 200.242ZM249.188 199.33C250.137 199.33 250.9 199.581 251.476 200.082C252.052 200.584 252.404 201.261 252.532 202.114H251.46C251.396 201.549 251.161 201.085 250.756 200.722C250.361 200.349 249.828 200.162 249.156 200.162C248.58 200.162 248.127 200.306 247.796 200.594C247.476 200.872 247.316 201.245 247.316 201.714C247.316 202.066 247.417 202.349 247.62 202.562C247.833 202.776 248.095 202.941 248.404 203.058C248.713 203.165 249.129 203.277 249.652 203.394C250.292 203.544 250.804 203.698 251.188 203.858C251.583 204.008 251.919 204.248 252.196 204.578C252.473 204.909 252.612 205.357 252.612 205.922C252.612 206.616 252.351 207.186 251.828 207.634C251.316 208.072 250.633 208.29 249.78 208.29C248.777 208.29 247.956 208.045 247.316 207.554C246.676 207.053 246.297 206.37 246.18 205.506H247.268C247.332 206.082 247.583 206.552 248.02 206.914C248.457 207.277 249.049 207.458 249.796 207.458C250.351 207.458 250.783 207.314 251.092 207.026C251.401 206.738 251.556 206.365 251.556 205.906C251.556 205.533 251.449 205.234 251.236 205.01C251.023 204.786 250.756 204.621 250.436 204.514C250.127 204.397 249.7 204.274 249.156 204.146C248.527 203.997 248.02 203.848 247.636 203.698C247.263 203.549 246.943 203.32 246.676 203.01C246.409 202.69 246.276 202.258 246.276 201.714C246.276 201 246.537 200.424 247.06 199.986C247.583 199.549 248.292 199.33 249.188 199.33ZM270.622 199.442L268.046 208.178H266.862L264.238 200.754L261.582 208.178H260.414L257.838 199.442H258.974L261.054 207.01L263.678 199.442H264.83L267.47 207.01L269.534 199.442H270.622ZM271.808 196.85C271.808 196.616 271.882 196.429 272.032 196.29C272.192 196.152 272.394 196.082 272.64 196.082C272.885 196.082 273.082 196.152 273.232 196.29C273.381 196.429 273.456 196.616 273.456 196.85C273.456 197.074 273.381 197.256 273.232 197.394C273.082 197.533 272.885 197.602 272.64 197.602C272.394 197.602 272.192 197.533 272.032 197.394C271.882 197.256 271.808 197.074 271.808 196.85ZM273.2 199.442V208.178H272.064V199.442H273.2ZM276.762 196.338V208.178H275.626V196.338H276.762ZM280.325 196.338V208.178H279.189V196.338H280.325ZM291.58 199.33C292.38 199.33 293.084 199.512 293.692 199.874C294.31 200.226 294.79 200.744 295.132 201.426C295.484 202.098 295.66 202.893 295.66 203.81C295.66 204.717 295.484 205.512 295.132 206.194C294.79 206.866 294.31 207.384 293.692 207.746C293.073 208.109 292.369 208.29 291.58 208.29C290.684 208.29 289.926 208.061 289.308 207.602C288.689 207.144 288.262 206.536 288.028 205.778V208.178H286.908V196.338H288.028V201.842C288.262 201.085 288.689 200.477 289.308 200.018C289.926 199.56 290.684 199.33 291.58 199.33ZM291.276 200.322C290.657 200.322 290.097 200.466 289.596 200.754C289.105 201.042 288.721 201.453 288.444 201.986C288.166 202.509 288.028 203.117 288.028 203.81C288.028 204.504 288.166 205.117 288.444 205.65C288.721 206.173 289.105 206.578 289.596 206.866C290.097 207.154 290.657 207.298 291.276 207.298C292.268 207.298 293.057 206.989 293.644 206.37C294.23 205.741 294.524 204.888 294.524 203.81C294.524 202.733 294.23 201.885 293.644 201.266C293.057 200.637 292.268 200.322 291.276 200.322ZM301.481 207.362C302.27 207.362 302.932 207.165 303.465 206.77C303.998 206.376 304.318 205.842 304.425 205.17H305.609C305.449 206.098 305.006 206.85 304.281 207.426C303.556 208.002 302.638 208.29 301.529 208.29C300.697 208.29 299.956 208.114 299.305 207.762C298.665 207.4 298.164 206.882 297.801 206.21C297.438 205.528 297.257 204.728 297.257 203.81C297.257 202.893 297.438 202.098 297.801 201.426C298.164 200.744 298.665 200.226 299.305 199.874C299.956 199.512 300.697 199.33 301.529 199.33C302.382 199.33 303.118 199.512 303.737 199.874C304.366 200.226 304.841 200.701 305.161 201.298C305.492 201.896 305.657 202.546 305.657 203.25C305.657 203.549 305.636 203.821 305.593 204.066H298.361C298.372 204.802 298.521 205.421 298.809 205.922C299.108 206.413 299.492 206.776 299.961 207.01C300.43 207.245 300.937 207.362 301.481 207.362ZM301.529 200.242C300.964 200.242 300.446 200.36 299.977 200.594C299.508 200.829 299.124 201.192 298.825 201.682C298.537 202.162 298.382 202.765 298.361 203.49H304.537C304.58 202.776 304.462 202.173 304.185 201.682C303.908 201.192 303.534 200.829 303.065 200.594C302.596 200.36 302.084 200.242 301.529 200.242ZM71.1891 223.33C72.0744 223.33 72.8264 223.56 73.4451 224.018C74.0744 224.477 74.5011 225.085 74.7251 225.842V220.338H75.8451V232.178H74.7251V229.778C74.5011 230.536 74.0744 231.144 73.4451 231.602C72.8264 232.061 72.0744 232.29 71.1891 232.29C70.3998 232.29 69.6904 232.109 69.0611 231.746C68.4424 231.384 67.9571 230.866 67.6051 230.194C67.2638 229.512 67.0931 228.717 67.0931 227.81C67.0931 226.893 67.2638 226.098 67.6051 225.426C67.9571 224.744 68.4424 224.226 69.0611 223.874C69.6798 223.512 70.3891 223.33 71.1891 223.33ZM71.4771 224.322C70.4958 224.322 69.7064 224.637 69.1091 225.266C68.5224 225.885 68.2291 226.733 68.2291 227.81C68.2291 228.888 68.5224 229.741 69.1091 230.37C69.7064 230.989 70.4958 231.298 71.4771 231.298C72.0958 231.298 72.6504 231.154 73.1411 230.866C73.6424 230.578 74.0318 230.173 74.3091 229.65C74.5971 229.117 74.7411 228.504 74.7411 227.81C74.7411 227.117 74.5971 226.509 74.3091 225.986C74.0318 225.453 73.6424 225.042 73.1411 224.754C72.6504 224.466 72.0958 224.322 71.4771 224.322ZM78.5147 223.442L81.5547 230.722L84.3547 223.442H85.6027L80.4667 236.306H79.1867L80.9467 232.082L77.2667 223.442H78.5147ZM91.3927 223.282C92.406 223.282 93.2274 223.608 93.8567 224.258C94.4967 224.898 94.8167 225.842 94.8167 227.09V232.178H93.7127V227.17C93.7127 226.221 93.4727 225.496 92.9927 224.994C92.5127 224.482 91.8567 224.226 91.0247 224.226C90.15 224.226 89.4514 224.509 88.9287 225.074C88.4167 225.629 88.1607 226.45 88.1607 227.538V232.178H87.0247V223.442H88.1607V225.586C88.3847 224.84 88.79 224.269 89.3767 223.874C89.9634 223.48 90.6354 223.282 91.3927 223.282ZM100.861 223.33C101.746 223.33 102.498 223.56 103.117 224.018C103.746 224.477 104.178 225.085 104.413 225.842V223.442H105.517V232.178H104.413V229.778C104.178 230.536 103.746 231.144 103.117 231.602C102.498 232.061 101.746 232.29 100.861 232.29C100.072 232.29 99.3623 232.109 98.733 231.746C98.1143 231.384 97.629 230.866 97.277 230.194C96.9356 229.512 96.765 228.717 96.765 227.81C96.765 226.893 96.9356 226.098 97.277 225.426C97.629 224.744 98.1143 224.226 98.733 223.874C99.3516 223.512 100.061 223.33 100.861 223.33ZM101.149 224.322C100.168 224.322 99.3783 224.637 98.781 225.266C98.1943 225.885 97.901 226.733 97.901 227.81C97.901 228.888 98.1943 229.741 98.781 230.37C99.3783 230.989 100.168 231.298 101.149 231.298C101.768 231.298 102.322 231.154 102.813 230.866C103.314 230.578 103.704 230.173 103.981 229.65C104.269 229.117 104.413 228.504 104.413 227.81C104.413 227.117 104.269 226.509 103.981 225.986C103.704 225.453 103.314 225.042 102.813 224.754C102.322 224.466 101.768 224.322 101.149 224.322ZM118.555 223.282C119.557 223.282 120.368 223.608 120.987 224.258C121.616 224.898 121.931 225.842 121.931 227.09V232.178H120.811V227.17C120.811 226.232 120.581 225.512 120.123 225.01C119.675 224.509 119.056 224.258 118.267 224.258C117.424 224.258 116.752 224.536 116.251 225.09C115.749 225.645 115.499 226.461 115.499 227.538V232.178H114.395V227.17C114.395 226.232 114.165 225.512 113.707 225.01C113.259 224.509 112.64 224.258 111.851 224.258C111.008 224.258 110.336 224.536 109.835 225.09C109.333 225.645 109.083 226.461 109.083 227.538V232.178H107.947V223.442H109.083V225.522C109.296 224.786 109.68 224.232 110.235 223.858C110.8 223.474 111.451 223.282 112.187 223.282C112.955 223.282 113.616 223.485 114.171 223.89C114.725 224.296 115.109 224.893 115.323 225.682C115.557 224.904 115.968 224.312 116.555 223.906C117.141 223.49 117.808 223.282 118.555 223.282ZM124.034 220.85C124.034 220.616 124.109 220.429 124.258 220.29C124.418 220.152 124.621 220.082 124.866 220.082C125.112 220.082 125.309 220.152 125.458 220.29C125.608 220.429 125.682 220.616 125.682 220.85C125.682 221.074 125.608 221.256 125.458 221.394C125.309 221.533 125.112 221.602 124.866 221.602C124.621 221.602 124.418 221.533 124.258 221.394C124.109 221.256 124.034 221.074 124.034 220.85ZM125.426 223.442V232.178H124.29V223.442H125.426ZM131.709 223.33C132.818 223.33 133.736 223.624 134.461 224.21C135.197 224.797 135.645 225.576 135.805 226.546H134.637C134.52 225.853 134.194 225.309 133.661 224.914C133.128 224.509 132.472 224.306 131.693 224.306C131.128 224.306 130.605 224.434 130.125 224.69C129.656 224.946 129.277 225.341 128.989 225.874C128.712 226.397 128.573 227.042 128.573 227.81C128.573 228.578 128.712 229.229 128.989 229.762C129.277 230.285 129.656 230.674 130.125 230.93C130.605 231.186 131.128 231.314 131.693 231.314C132.472 231.314 133.128 231.117 133.661 230.722C134.194 230.317 134.52 229.768 134.637 229.074H135.805C135.645 230.045 135.197 230.824 134.461 231.41C133.736 231.997 132.818 232.29 131.709 232.29C130.877 232.29 130.136 232.114 129.485 231.762C128.845 231.4 128.344 230.882 127.981 230.21C127.618 229.528 127.437 228.728 127.437 227.81C127.437 226.893 127.618 226.098 127.981 225.426C128.344 224.744 128.845 224.226 129.485 223.874C130.136 223.512 130.877 223.33 131.709 223.33ZM145.946 231.186V232.178H144.906C144.063 232.178 143.434 231.981 143.018 231.586C142.602 231.181 142.394 230.504 142.394 229.554V224.418H141.066V223.442H142.394V221.234H143.53V223.442H145.93V224.418H143.53V229.57C143.53 230.189 143.642 230.616 143.866 230.85C144.09 231.074 144.485 231.186 145.05 231.186H145.946ZM151.742 223.33C152.574 223.33 153.316 223.512 153.966 223.874C154.628 224.226 155.145 224.744 155.518 225.426C155.892 226.098 156.078 226.893 156.078 227.81C156.078 228.728 155.892 229.522 155.518 230.194C155.145 230.866 154.628 231.384 153.966 231.746C153.316 232.109 152.574 232.29 151.742 232.29C150.91 232.29 150.164 232.109 149.502 231.746C148.841 231.384 148.318 230.866 147.934 230.194C147.561 229.512 147.374 228.717 147.374 227.81C147.374 226.893 147.561 226.098 147.934 225.426C148.318 224.744 148.841 224.226 149.502 223.874C150.164 223.512 150.91 223.33 151.742 223.33ZM151.742 224.306C151.166 224.306 150.633 224.434 150.142 224.69C149.652 224.946 149.257 225.341 148.958 225.874C148.66 226.397 148.51 227.042 148.51 227.81C148.51 228.578 148.66 229.224 148.958 229.746C149.257 230.269 149.652 230.658 150.142 230.914C150.633 231.17 151.166 231.298 151.742 231.298C152.308 231.298 152.83 231.17 153.31 230.914C153.801 230.658 154.196 230.269 154.494 229.746C154.793 229.224 154.942 228.578 154.942 227.81C154.942 227.042 154.793 226.397 154.494 225.874C154.196 225.341 153.801 224.946 153.31 224.69C152.83 224.434 152.308 224.306 151.742 224.306ZM161.987 220.85C161.987 220.616 162.062 220.429 162.211 220.29C162.371 220.152 162.574 220.082 162.819 220.082C163.065 220.082 163.262 220.152 163.411 220.29C163.561 220.429 163.635 220.616 163.635 220.85C163.635 221.074 163.561 221.256 163.411 221.394C163.262 221.533 163.065 221.602 162.819 221.602C162.574 221.602 162.371 221.533 162.211 221.394C162.062 221.256 161.987 221.074 161.987 220.85ZM163.379 223.442V232.178H162.243V223.442H163.379ZM170.174 223.282C171.187 223.282 172.009 223.608 172.638 224.258C173.278 224.898 173.598 225.842 173.598 227.09V232.178H172.494V227.17C172.494 226.221 172.254 225.496 171.774 224.994C171.294 224.482 170.638 224.226 169.806 224.226C168.931 224.226 168.233 224.509 167.71 225.074C167.198 225.629 166.942 226.45 166.942 227.538V232.178H165.806V223.442H166.942V225.586C167.166 224.84 167.571 224.269 168.158 223.874C168.745 223.48 169.417 223.282 170.174 223.282ZM179.818 223.33C180.928 223.33 181.845 223.624 182.57 224.21C183.306 224.797 183.754 225.576 183.914 226.546H182.746C182.629 225.853 182.304 225.309 181.77 224.914C181.237 224.509 180.581 224.306 179.802 224.306C179.237 224.306 178.714 224.434 178.234 224.69C177.765 224.946 177.386 225.341 177.098 225.874C176.821 226.397 176.682 227.042 176.682 227.81C176.682 228.578 176.821 229.229 177.098 229.762C177.386 230.285 177.765 230.674 178.234 230.93C178.714 231.186 179.237 231.314 179.802 231.314C180.581 231.314 181.237 231.117 181.77 230.722C182.304 230.317 182.629 229.768 182.746 229.074H183.914C183.754 230.045 183.306 230.824 182.57 231.41C181.845 231.997 180.928 232.29 179.818 232.29C178.986 232.29 178.245 232.114 177.594 231.762C176.954 231.4 176.453 230.882 176.09 230.21C175.728 229.528 175.546 228.728 175.546 227.81C175.546 226.893 175.728 226.098 176.09 225.426C176.453 224.744 176.954 224.226 177.594 223.874C178.245 223.512 178.986 223.33 179.818 223.33ZM189.739 231.362C190.528 231.362 191.19 231.165 191.723 230.77C192.256 230.376 192.576 229.842 192.683 229.17H193.867C193.707 230.098 193.264 230.85 192.539 231.426C191.814 232.002 190.896 232.29 189.787 232.29C188.955 232.29 188.214 232.114 187.563 231.762C186.923 231.4 186.422 230.882 186.059 230.21C185.696 229.528 185.515 228.728 185.515 227.81C185.515 226.893 185.696 226.098 186.059 225.426C186.422 224.744 186.923 224.226 187.563 223.874C188.214 223.512 188.955 223.33 189.787 223.33C190.64 223.33 191.376 223.512 191.995 223.874C192.624 224.226 193.099 224.701 193.419 225.298C193.75 225.896 193.915 226.546 193.915 227.25C193.915 227.549 193.894 227.821 193.851 228.066H186.619C186.63 228.802 186.779 229.421 187.067 229.922C187.366 230.413 187.75 230.776 188.219 231.01C188.688 231.245 189.195 231.362 189.739 231.362ZM189.787 224.242C189.222 224.242 188.704 224.36 188.235 224.594C187.766 224.829 187.382 225.192 187.083 225.682C186.795 226.162 186.64 226.765 186.619 227.49H192.795C192.838 226.776 192.72 226.173 192.443 225.682C192.166 225.192 191.792 224.829 191.323 224.594C190.854 224.36 190.342 224.242 189.787 224.242ZM200.299 223.282C201.312 223.282 202.134 223.608 202.763 224.258C203.403 224.898 203.723 225.842 203.723 227.09V232.178H202.619V227.17C202.619 226.221 202.379 225.496 201.899 224.994C201.419 224.482 200.763 224.226 199.931 224.226C199.056 224.226 198.358 224.509 197.835 225.074C197.323 225.629 197.067 226.45 197.067 227.538V232.178H195.931V223.442H197.067V225.586C197.291 224.84 197.696 224.269 198.283 223.874C198.87 223.48 199.542 223.282 200.299 223.282ZM210.055 231.186V232.178H209.015C208.173 232.178 207.543 231.981 207.127 231.586C206.711 231.181 206.503 230.504 206.503 229.554V224.418H205.175V223.442H206.503V221.234H207.639V223.442H210.039V224.418H207.639V229.57C207.639 230.189 207.751 230.616 207.975 230.85C208.199 231.074 208.594 231.186 209.159 231.186H210.055ZM211.644 220.85C211.644 220.616 211.718 220.429 211.868 220.29C212.028 220.152 212.23 220.082 212.476 220.082C212.721 220.082 212.918 220.152 213.068 220.29C213.217 220.429 213.292 220.616 213.292 220.85C213.292 221.074 213.217 221.256 213.068 221.394C212.918 221.533 212.721 221.602 212.476 221.602C212.23 221.602 212.028 221.533 211.868 221.394C211.718 221.256 211.644 221.074 211.644 220.85ZM213.036 223.442V232.178H211.9V223.442H213.036ZM218.694 230.914L221.622 223.442H222.838L219.318 232.178H218.038L214.518 223.442H215.734L218.694 230.914ZM224.066 220.85C224.066 220.616 224.14 220.429 224.29 220.29C224.45 220.152 224.652 220.082 224.898 220.082C225.143 220.082 225.34 220.152 225.49 220.29C225.639 220.429 225.714 220.616 225.714 220.85C225.714 221.074 225.639 221.256 225.49 221.394C225.34 221.533 225.143 221.602 224.898 221.602C224.652 221.602 224.45 221.533 224.29 221.394C224.14 221.256 224.066 221.074 224.066 220.85ZM225.458 223.442V232.178H224.322V223.442H225.458ZM228.332 231.218H233.18V232.178H227.116V231.266L231.756 224.386H227.244V223.442H233.02V224.354L228.332 231.218ZM238.645 231.362C239.435 231.362 240.096 231.165 240.629 230.77C241.163 230.376 241.483 229.842 241.589 229.17H242.773C242.613 230.098 242.171 230.85 241.445 231.426C240.72 232.002 239.803 232.29 238.693 232.29C237.861 232.29 237.12 232.114 236.469 231.762C235.829 231.4 235.328 230.882 234.965 230.21C234.603 229.528 234.421 228.728 234.421 227.81C234.421 226.893 234.603 226.098 234.965 225.426C235.328 224.744 235.829 224.226 236.469 223.874C237.12 223.512 237.861 223.33 238.693 223.33C239.547 223.33 240.283 223.512 240.901 223.874C241.531 224.226 242.005 224.701 242.325 225.298C242.656 225.896 242.821 226.546 242.821 227.25C242.821 227.549 242.8 227.821 242.757 228.066H235.525C235.536 228.802 235.685 229.421 235.973 229.922C236.272 230.413 236.656 230.776 237.125 231.01C237.595 231.245 238.101 231.362 238.645 231.362ZM238.693 224.242C238.128 224.242 237.611 224.36 237.141 224.594C236.672 224.829 236.288 225.192 235.989 225.682C235.701 226.162 235.547 226.765 235.525 227.49H241.701C241.744 226.776 241.627 226.173 241.349 225.682C241.072 225.192 240.699 224.829 240.229 224.594C239.76 224.36 239.248 224.242 238.693 224.242ZM253.665 223.33C254.465 223.33 255.169 223.512 255.777 223.874C256.396 224.226 256.876 224.744 257.217 225.426C257.569 226.098 257.745 226.893 257.745 227.81C257.745 228.717 257.569 229.512 257.217 230.194C256.876 230.866 256.396 231.384 255.777 231.746C255.159 232.109 254.455 232.29 253.665 232.29C252.769 232.29 252.012 232.061 251.393 231.602C250.775 231.144 250.348 230.536 250.113 229.778V236.306H248.993V223.442H250.113V225.842C250.348 225.085 250.775 224.477 251.393 224.018C252.012 223.56 252.769 223.33 253.665 223.33ZM253.361 224.322C252.743 224.322 252.183 224.466 251.681 224.754C251.191 225.042 250.807 225.453 250.529 225.986C250.252 226.509 250.113 227.117 250.113 227.81C250.113 228.504 250.252 229.117 250.529 229.65C250.807 230.173 251.191 230.578 251.681 230.866C252.183 231.154 252.743 231.298 253.361 231.298C254.353 231.298 255.143 230.989 255.729 230.37C256.316 229.741 256.609 228.888 256.609 227.81C256.609 226.733 256.316 225.885 255.729 225.266C255.143 224.637 254.353 224.322 253.361 224.322ZM263.711 223.33C264.543 223.33 265.284 223.512 265.935 223.874C266.596 224.226 267.114 224.744 267.487 225.426C267.86 226.098 268.047 226.893 268.047 227.81C268.047 228.728 267.86 229.522 267.487 230.194C267.114 230.866 266.596 231.384 265.935 231.746C265.284 232.109 264.543 232.29 263.711 232.29C262.879 232.29 262.132 232.109 261.471 231.746C260.81 231.384 260.287 230.866 259.903 230.194C259.53 229.512 259.343 228.717 259.343 227.81C259.343 226.893 259.53 226.098 259.903 225.426C260.287 224.744 260.81 224.226 261.471 223.874C262.132 223.512 262.879 223.33 263.711 223.33ZM263.711 224.306C263.135 224.306 262.602 224.434 262.111 224.69C261.62 224.946 261.226 225.341 260.927 225.874C260.628 226.397 260.479 227.042 260.479 227.81C260.479 228.578 260.628 229.224 260.927 229.746C261.226 230.269 261.62 230.658 262.111 230.914C262.602 231.17 263.135 231.298 263.711 231.298C264.276 231.298 264.799 231.17 265.279 230.914C265.77 230.658 266.164 230.269 266.463 229.746C266.762 229.224 266.911 228.578 266.911 227.81C266.911 227.042 266.762 226.397 266.463 225.874C266.164 225.341 265.77 224.946 265.279 224.69C264.799 224.434 264.276 224.306 263.711 224.306ZM274.008 223.33C274.84 223.33 275.581 223.512 276.232 223.874C276.893 224.226 277.411 224.744 277.784 225.426C278.157 226.098 278.344 226.893 278.344 227.81C278.344 228.728 278.157 229.522 277.784 230.194C277.411 230.866 276.893 231.384 276.232 231.746C275.581 232.109 274.84 232.29 274.008 232.29C273.176 232.29 272.429 232.109 271.768 231.746C271.107 231.384 270.584 230.866 270.2 230.194C269.827 229.512 269.64 228.717 269.64 227.81C269.64 226.893 269.827 226.098 270.2 225.426C270.584 224.744 271.107 224.226 271.768 223.874C272.429 223.512 273.176 223.33 274.008 223.33ZM274.008 224.306C273.432 224.306 272.899 224.434 272.408 224.69C271.917 224.946 271.523 225.341 271.224 225.874C270.925 226.397 270.776 227.042 270.776 227.81C270.776 228.578 270.925 229.224 271.224 229.746C271.523 230.269 271.917 230.658 272.408 230.914C272.899 231.17 273.432 231.298 274.008 231.298C274.573 231.298 275.096 231.17 275.576 230.914C276.067 230.658 276.461 230.269 276.76 229.746C277.059 229.224 277.208 228.578 277.208 227.81C277.208 227.042 277.059 226.397 276.76 225.874C276.461 225.341 276.067 224.946 275.576 224.69C275.096 224.434 274.573 224.306 274.008 224.306ZM281.489 220.338V232.178H280.353V220.338H281.489ZM61.4342 249.25C61.6902 248.621 62.1008 248.136 62.6662 247.794C63.2315 247.453 63.9195 247.282 64.7302 247.282V248.498H64.3622C63.5195 248.498 62.8208 248.728 62.2662 249.186C61.7115 249.634 61.4342 250.37 61.4342 251.394V256.178H60.2982V247.442H61.4342V249.25ZM70.028 255.362C70.8174 255.362 71.4787 255.165 72.012 254.77C72.5454 254.376 72.8654 253.842 72.972 253.17H74.156C73.996 254.098 73.5534 254.85 72.828 255.426C72.1027 256.002 71.1854 256.29 70.076 256.29C69.244 256.29 68.5027 256.114 67.852 255.762C67.212 255.4 66.7107 254.882 66.348 254.21C65.9854 253.528 65.804 252.728 65.804 251.81C65.804 250.893 65.9854 250.098 66.348 249.426C66.7107 248.744 67.212 248.226 67.852 247.874C68.5027 247.512 69.244 247.33 70.076 247.33C70.9294 247.33 71.6654 247.512 72.284 247.874C72.9134 248.226 73.388 248.701 73.708 249.298C74.0387 249.896 74.204 250.546 74.204 251.25C74.204 251.549 74.1827 251.821 74.14 252.066H66.908C66.9187 252.802 67.068 253.421 67.356 253.922C67.6547 254.413 68.0387 254.776 68.508 255.01C68.9774 255.245 69.484 255.362 70.028 255.362ZM70.076 248.242C69.5107 248.242 68.9934 248.36 68.524 248.594C68.0547 248.829 67.6707 249.192 67.372 249.682C67.084 250.162 66.9294 250.765 66.908 251.49H73.084C73.1267 250.776 73.0094 250.173 72.732 249.682C72.4547 249.192 72.0814 248.829 71.612 248.594C71.1427 248.36 70.6307 248.242 70.076 248.242ZM80.892 247.33C81.692 247.33 82.396 247.512 83.004 247.874C83.6227 248.226 84.1027 248.744 84.444 249.426C84.796 250.098 84.972 250.893 84.972 251.81C84.972 252.717 84.796 253.512 84.444 254.194C84.1027 254.866 83.6227 255.384 83.004 255.746C82.3854 256.109 81.6814 256.29 80.892 256.29C79.996 256.29 79.2387 256.061 78.62 255.602C78.0014 255.144 77.5747 254.536 77.34 253.778V256.178H76.22V244.338H77.34V249.842C77.5747 249.085 78.0014 248.477 78.62 248.018C79.2387 247.56 79.996 247.33 80.892 247.33ZM80.588 248.322C79.9694 248.322 79.4094 248.466 78.908 248.754C78.4174 249.042 78.0334 249.453 77.756 249.986C77.4787 250.509 77.34 251.117 77.34 251.81C77.34 252.504 77.4787 253.117 77.756 253.65C78.0334 254.173 78.4174 254.578 78.908 254.866C79.4094 255.154 79.9694 255.298 80.588 255.298C81.58 255.298 82.3694 254.989 82.956 254.37C83.5427 253.741 83.836 252.888 83.836 251.81C83.836 250.733 83.5427 249.885 82.956 249.266C82.3694 248.637 81.58 248.322 80.588 248.322ZM90.6657 247.33C91.551 247.33 92.303 247.56 92.9217 248.018C93.551 248.477 93.983 249.085 94.2177 249.842V247.442H95.3217V256.178H94.2177V253.778C93.983 254.536 93.551 255.144 92.9217 255.602C92.303 256.061 91.551 256.29 90.6657 256.29C89.8763 256.29 89.167 256.109 88.5377 255.746C87.919 255.384 87.4337 254.866 87.0817 254.194C86.7403 253.512 86.5697 252.717 86.5697 251.81C86.5697 250.893 86.7403 250.098 87.0817 249.426C87.4337 248.744 87.919 248.226 88.5377 247.874C89.1563 247.512 89.8657 247.33 90.6657 247.33ZM90.9537 248.322C89.9723 248.322 89.183 248.637 88.5857 249.266C87.999 249.885 87.7057 250.733 87.7057 251.81C87.7057 252.888 87.999 253.741 88.5857 254.37C89.183 254.989 89.9723 255.298 90.9537 255.298C91.5723 255.298 92.127 255.154 92.6177 254.866C93.119 254.578 93.5083 254.173 93.7857 253.65C94.0737 253.117 94.2177 252.504 94.2177 251.81C94.2177 251.117 94.0737 250.509 93.7857 249.986C93.5083 249.453 93.119 249.042 92.6177 248.754C92.127 248.466 91.5723 248.322 90.9537 248.322ZM98.8873 244.338V256.178H97.7513V244.338H98.8873ZM104.994 247.33C105.879 247.33 106.631 247.56 107.25 248.018C107.879 248.477 108.311 249.085 108.546 249.842V247.442H109.65V256.178H108.546V253.778C108.311 254.536 107.879 255.144 107.25 255.602C106.631 256.061 105.879 256.29 104.994 256.29C104.204 256.29 103.495 256.109 102.866 255.746C102.247 255.384 101.762 254.866 101.41 254.194C101.068 253.512 100.898 252.717 100.898 251.81C100.898 250.893 101.068 250.098 101.41 249.426C101.762 248.744 102.247 248.226 102.866 247.874C103.484 247.512 104.194 247.33 104.994 247.33ZM105.282 248.322C104.3 248.322 103.511 248.637 102.914 249.266C102.327 249.885 102.034 250.733 102.034 251.81C102.034 252.888 102.327 253.741 102.914 254.37C103.511 254.989 104.3 255.298 105.282 255.298C105.9 255.298 106.455 255.154 106.946 254.866C107.447 254.578 107.836 254.173 108.114 253.65C108.402 253.117 108.546 252.504 108.546 251.81C108.546 251.117 108.402 250.509 108.114 249.986C107.836 249.453 107.447 249.042 106.946 248.754C106.455 248.466 105.9 248.322 105.282 248.322ZM116.447 247.282C117.461 247.282 118.282 247.608 118.911 248.258C119.551 248.898 119.871 249.842 119.871 251.09V256.178H118.767V251.17C118.767 250.221 118.527 249.496 118.047 248.994C117.567 248.482 116.911 248.226 116.079 248.226C115.205 248.226 114.506 248.509 113.983 249.074C113.471 249.629 113.215 250.45 113.215 251.538V256.178H112.079V247.442H113.215V249.586C113.439 248.84 113.845 248.269 114.431 247.874C115.018 247.48 115.69 247.282 116.447 247.282ZM126.092 247.33C127.201 247.33 128.118 247.624 128.844 248.21C129.58 248.797 130.028 249.576 130.188 250.546H129.02C128.902 249.853 128.577 249.309 128.044 248.914C127.51 248.509 126.854 248.306 126.076 248.306C125.51 248.306 124.988 248.434 124.508 248.69C124.038 248.946 123.66 249.341 123.372 249.874C123.094 250.397 122.956 251.042 122.956 251.81C122.956 252.578 123.094 253.229 123.372 253.762C123.66 254.285 124.038 254.674 124.508 254.93C124.988 255.186 125.51 255.314 126.076 255.314C126.854 255.314 127.51 255.117 128.044 254.722C128.577 254.317 128.902 253.768 129.02 253.074H130.188C130.028 254.045 129.58 254.824 128.844 255.41C128.118 255.997 127.201 256.29 126.092 256.29C125.26 256.29 124.518 256.114 123.868 255.762C123.228 255.4 122.726 254.882 122.364 254.21C122.001 253.528 121.82 252.728 121.82 251.81C121.82 250.893 122.001 250.098 122.364 249.426C122.726 248.744 123.228 248.226 123.868 247.874C124.518 247.512 125.26 247.33 126.092 247.33ZM131.948 244.85C131.948 244.616 132.023 244.429 132.172 244.29C132.332 244.152 132.535 244.082 132.78 244.082C133.026 244.082 133.223 244.152 133.372 244.29C133.522 244.429 133.596 244.616 133.596 244.85C133.596 245.074 133.522 245.256 133.372 245.394C133.223 245.533 133.026 245.602 132.78 245.602C132.535 245.602 132.332 245.533 132.172 245.394C132.023 245.256 131.948 245.074 131.948 244.85ZM133.34 247.442V256.178H132.204V247.442H133.34ZM140.135 247.282C141.148 247.282 141.97 247.608 142.599 248.258C143.239 248.898 143.559 249.842 143.559 251.09V256.178H142.455V251.17C142.455 250.221 142.215 249.496 141.735 248.994C141.255 248.482 140.599 248.226 139.767 248.226C138.892 248.226 138.194 248.509 137.671 249.074C137.159 249.629 136.903 250.45 136.903 251.538V256.178H135.767V247.442H136.903V249.586C137.127 248.84 137.532 248.269 138.119 247.874C138.706 247.48 139.378 247.282 140.135 247.282ZM149.603 247.33C150.488 247.33 151.24 247.56 151.859 248.018C152.488 248.477 152.92 249.085 153.155 249.842V247.442H154.259V256.386C154.259 257.197 154.088 257.906 153.747 258.514C153.406 259.133 152.931 259.608 152.323 259.938C151.715 260.28 151.022 260.45 150.243 260.45C149.102 260.45 148.163 260.173 147.427 259.618C146.702 259.074 146.227 258.333 146.003 257.394H147.123C147.315 258.034 147.667 258.541 148.179 258.914C148.702 259.288 149.368 259.474 150.179 259.474C150.734 259.474 151.235 259.352 151.683 259.106C152.142 258.872 152.499 258.52 152.755 258.05C153.022 257.581 153.155 257.026 153.155 256.386V253.778C152.92 254.536 152.488 255.144 151.859 255.602C151.24 256.061 150.488 256.29 149.603 256.29C148.814 256.29 148.104 256.109 147.475 255.746C146.856 255.384 146.371 254.866 146.019 254.194C145.678 253.512 145.507 252.717 145.507 251.81C145.507 250.893 145.678 250.098 146.019 249.426C146.371 248.744 146.856 248.226 147.475 247.874C148.094 247.512 148.803 247.33 149.603 247.33ZM149.891 248.322C148.91 248.322 148.12 248.637 147.523 249.266C146.936 249.885 146.643 250.733 146.643 251.81C146.643 252.888 146.936 253.741 147.523 254.37C148.12 254.989 148.91 255.298 149.891 255.298C150.51 255.298 151.064 255.154 151.555 254.866C152.056 254.578 152.446 254.173 152.723 253.65C153.011 253.117 153.155 252.504 153.155 251.81C153.155 251.117 153.011 250.509 152.723 249.986C152.446 249.453 152.056 249.042 151.555 248.754C151.064 248.466 150.51 248.322 149.891 248.322ZM160.589 244.85C160.589 244.616 160.664 244.429 160.813 244.29C160.973 244.152 161.176 244.082 161.421 244.082C161.666 244.082 161.864 244.152 162.013 244.29C162.162 244.429 162.237 244.616 162.237 244.85C162.237 245.074 162.162 245.256 162.013 245.394C161.864 245.533 161.666 245.602 161.421 245.602C161.176 245.602 160.973 245.533 160.813 245.394C160.664 245.256 160.589 245.074 160.589 244.85ZM161.981 247.442V256.178H160.845V247.442H161.981ZM168.776 247.282C169.789 247.282 170.61 247.608 171.24 248.258C171.88 248.898 172.2 249.842 172.2 251.09V256.178H171.096V251.17C171.096 250.221 170.856 249.496 170.376 248.994C169.896 248.482 169.24 248.226 168.408 248.226C167.533 248.226 166.834 248.509 166.312 249.074C165.8 249.629 165.544 250.45 165.544 251.538V256.178H164.408V247.442H165.544V249.586C165.768 248.84 166.173 248.269 166.76 247.874C167.346 247.48 168.018 247.282 168.776 247.282ZM179.856 244.338V256.178H178.72V244.338H179.856ZM182.027 244.85C182.027 244.616 182.101 244.429 182.251 244.29C182.411 244.152 182.613 244.082 182.859 244.082C183.104 244.082 183.301 244.152 183.451 244.29C183.6 244.429 183.675 244.616 183.675 244.85C183.675 245.074 183.6 245.256 183.451 245.394C183.301 245.533 183.104 245.602 182.859 245.602C182.613 245.602 182.411 245.533 182.251 245.394C182.101 245.256 182.027 245.074 182.027 244.85ZM183.419 247.442V256.178H182.283V247.442H183.419ZM190.213 247.282C191.226 247.282 192.048 247.608 192.677 248.258C193.317 248.898 193.637 249.842 193.637 251.09V256.178H192.533V251.17C192.533 250.221 192.293 249.496 191.813 248.994C191.333 248.482 190.677 248.226 189.845 248.226C188.97 248.226 188.272 248.509 187.749 249.074C187.237 249.629 186.981 250.45 186.981 251.538V256.178H185.845V247.442H186.981V249.586C187.205 248.84 187.61 248.269 188.197 247.874C188.784 247.48 189.456 247.282 190.213 247.282ZM199.809 255.362C200.599 255.362 201.26 255.165 201.793 254.77C202.327 254.376 202.647 253.842 202.753 253.17H203.937C203.777 254.098 203.335 254.85 202.609 255.426C201.884 256.002 200.967 256.29 199.857 256.29C199.025 256.29 198.284 256.114 197.633 255.762C196.993 255.4 196.492 254.882 196.129 254.21C195.767 253.528 195.585 252.728 195.585 251.81C195.585 250.893 195.767 250.098 196.129 249.426C196.492 248.744 196.993 248.226 197.633 247.874C198.284 247.512 199.025 247.33 199.857 247.33C200.711 247.33 201.447 247.512 202.065 247.874C202.695 248.226 203.169 248.701 203.489 249.298C203.82 249.896 203.985 250.546 203.985 251.25C203.985 251.549 203.964 251.821 203.921 252.066H196.689C196.7 252.802 196.849 253.421 197.137 253.922C197.436 254.413 197.82 254.776 198.289 255.01C198.759 255.245 199.265 255.362 199.809 255.362ZM199.857 248.242C199.292 248.242 198.775 248.36 198.305 248.594C197.836 248.829 197.452 249.192 197.153 249.682C196.865 250.162 196.711 250.765 196.689 251.49H202.865C202.908 250.776 202.791 250.173 202.513 249.682C202.236 249.192 201.863 248.829 201.393 248.594C200.924 248.36 200.412 248.242 199.857 248.242ZM221.966 247.442L219.39 256.178H218.206L215.582 248.754L212.926 256.178H211.758L209.182 247.442H210.318L212.398 255.01L215.022 247.442H216.174L218.814 255.01L220.878 247.442H221.966ZM223.152 244.85C223.152 244.616 223.226 244.429 223.376 244.29C223.536 244.152 223.738 244.082 223.984 244.082C224.229 244.082 224.426 244.152 224.576 244.29C224.725 244.429 224.8 244.616 224.8 244.85C224.8 245.074 224.725 245.256 224.576 245.394C224.426 245.533 224.229 245.602 223.984 245.602C223.738 245.602 223.536 245.533 223.376 245.394C223.226 245.256 223.152 245.074 223.152 244.85ZM224.544 247.442V256.178H223.408V247.442H224.544ZM230.938 255.186V256.178H229.898C229.055 256.178 228.426 255.981 228.01 255.586C227.594 255.181 227.386 254.504 227.386 253.554V248.418H226.058V247.442H227.386V245.234H228.522V247.442H230.922V248.418H228.522V253.57C228.522 254.189 228.634 254.616 228.858 254.85C229.082 255.074 229.477 255.186 230.042 255.186H230.938ZM237.151 247.282C238.164 247.282 238.985 247.608 239.615 248.258C240.255 248.898 240.575 249.842 240.575 251.09V256.178H239.471V251.17C239.471 250.221 239.231 249.496 238.751 248.994C238.271 248.482 237.615 248.226 236.783 248.226C235.908 248.226 235.209 248.509 234.687 249.074C234.175 249.629 233.919 250.45 233.919 251.538V256.178H232.783V244.338H233.919V249.586C234.143 248.84 234.548 248.269 235.135 247.874C235.721 247.48 236.393 247.282 237.151 247.282ZM253.143 256.178L250.055 251.474H248.231V256.178H247.095V244.898H250.551C251.82 244.898 252.764 245.197 253.383 245.794C254.012 246.392 254.327 247.197 254.327 248.21C254.327 249.149 254.06 249.896 253.527 250.45C253.004 251.005 252.242 251.336 251.239 251.442L254.423 256.178H253.143ZM248.231 250.626H250.471C252.284 250.626 253.191 249.842 253.191 248.274C253.191 246.674 252.284 245.874 250.471 245.874H248.231V250.626ZM257.34 245.81V250.066H261.74V250.946H257.34V255.25H262.22V256.178H256.204V244.898H262.22V245.81H257.34ZM265.309 244.898V256.178H264.173V244.898H265.309ZM272.824 244.802C274.104 244.802 275.186 245.122 276.072 245.762C276.957 246.402 277.565 247.272 277.896 248.37H276.728C276.44 247.613 275.949 247 275.256 246.53C274.573 246.061 273.762 245.826 272.824 245.826C272.013 245.826 271.277 246.018 270.616 246.402C269.965 246.786 269.453 247.336 269.08 248.05C268.706 248.765 268.52 249.597 268.52 250.546C268.52 251.517 268.706 252.36 269.08 253.074C269.464 253.789 269.986 254.338 270.648 254.722C271.32 255.106 272.082 255.298 272.936 255.298C273.693 255.298 274.386 255.133 275.016 254.802C275.645 254.461 276.152 253.97 276.536 253.33C276.93 252.69 277.16 251.938 277.224 251.074H272.536V250.226H278.2V251.218C278.125 252.178 277.853 253.042 277.384 253.81C276.925 254.578 276.301 255.186 275.512 255.634C274.733 256.072 273.842 256.29 272.84 256.29C271.773 256.29 270.824 256.05 269.992 255.57C269.16 255.08 268.514 254.397 268.056 253.522C267.597 252.648 267.368 251.656 267.368 250.546C267.368 249.437 267.597 248.445 268.056 247.57C268.514 246.696 269.154 246.018 269.976 245.538C270.808 245.048 271.757 244.802 272.824 244.802ZM288.699 256.178H287.563L281.387 246.754V256.178H280.251V244.914H281.387L287.563 254.354V244.914H288.699V256.178ZM154.218 278.914L157.146 271.442H158.362L154.842 280.178H153.562L150.042 271.442H151.258L154.218 278.914ZM163.797 271.33C164.629 271.33 165.37 271.512 166.021 271.874C166.682 272.226 167.2 272.744 167.573 273.426C167.946 274.098 168.133 274.893 168.133 275.81C168.133 276.728 167.946 277.522 167.573 278.194C167.2 278.866 166.682 279.384 166.021 279.746C165.37 280.109 164.629 280.29 163.797 280.29C162.965 280.29 162.218 280.109 161.557 279.746C160.896 279.384 160.373 278.866 159.989 278.194C159.616 277.512 159.429 276.717 159.429 275.81C159.429 274.893 159.616 274.098 159.989 273.426C160.373 272.744 160.896 272.226 161.557 271.874C162.218 271.512 162.965 271.33 163.797 271.33ZM163.797 272.306C163.221 272.306 162.688 272.434 162.197 272.69C161.706 272.946 161.312 273.341 161.013 273.874C160.714 274.397 160.565 275.042 160.565 275.81C160.565 276.578 160.714 277.224 161.013 277.746C161.312 278.269 161.706 278.658 162.197 278.914C162.688 279.17 163.221 279.298 163.797 279.298C164.362 279.298 164.885 279.17 165.365 278.914C165.856 278.658 166.25 278.269 166.549 277.746C166.848 277.224 166.997 276.578 166.997 275.81C166.997 275.042 166.848 274.397 166.549 273.874C166.25 273.341 165.856 272.946 165.365 272.69C164.885 272.434 164.362 272.306 163.797 272.306ZM174.11 279.186V280.178H173.07C172.227 280.178 171.598 279.981 171.182 279.586C170.766 279.181 170.558 278.504 170.558 277.554V272.418H169.23V271.442H170.558V269.234H171.694V271.442H174.094V272.418H171.694V277.57C171.694 278.189 171.806 278.616 172.03 278.85C172.254 279.074 172.649 279.186 173.214 279.186H174.11ZM175.698 268.85C175.698 268.616 175.773 268.429 175.922 268.29C176.082 268.152 176.285 268.082 176.53 268.082C176.776 268.082 176.973 268.152 177.122 268.29C177.272 268.429 177.346 268.616 177.346 268.85C177.346 269.074 177.272 269.256 177.122 269.394C176.973 269.533 176.776 269.602 176.53 269.602C176.285 269.602 176.082 269.533 175.922 269.394C175.773 269.256 175.698 269.074 175.698 268.85ZM177.09 271.442V280.178H175.954V271.442H177.09ZM183.885 271.282C184.898 271.282 185.72 271.608 186.349 272.258C186.989 272.898 187.309 273.842 187.309 275.09V280.178H186.205V275.17C186.205 274.221 185.965 273.496 185.485 272.994C185.005 272.482 184.349 272.226 183.517 272.226C182.642 272.226 181.944 272.509 181.421 273.074C180.909 273.629 180.653 274.45 180.653 275.538V280.178H179.517V271.442H180.653V273.586C180.877 272.84 181.282 272.269 181.869 271.874C182.456 271.48 183.128 271.282 183.885 271.282ZM193.353 271.33C194.238 271.33 194.99 271.56 195.609 272.018C196.238 272.477 196.67 273.085 196.905 273.842V271.442H198.009V280.386C198.009 281.197 197.838 281.906 197.497 282.514C197.156 283.133 196.681 283.608 196.073 283.938C195.465 284.28 194.772 284.45 193.993 284.45C192.852 284.45 191.913 284.173 191.177 283.618C190.452 283.074 189.977 282.333 189.753 281.394H190.873C191.065 282.034 191.417 282.541 191.929 282.914C192.452 283.288 193.118 283.474 193.929 283.474C194.484 283.474 194.985 283.352 195.433 283.106C195.892 282.872 196.249 282.52 196.505 282.05C196.772 281.581 196.905 281.026 196.905 280.386V277.778C196.67 278.536 196.238 279.144 195.609 279.602C194.99 280.061 194.238 280.29 193.353 280.29C192.564 280.29 191.854 280.109 191.225 279.746C190.606 279.384 190.121 278.866 189.769 278.194C189.428 277.512 189.257 276.717 189.257 275.81C189.257 274.893 189.428 274.098 189.769 273.426C190.121 272.744 190.606 272.226 191.225 271.874C191.844 271.512 192.553 271.33 193.353 271.33ZM193.641 272.322C192.66 272.322 191.87 272.637 191.273 273.266C190.686 273.885 190.393 274.733 190.393 275.81C190.393 276.888 190.686 277.741 191.273 278.37C191.87 278.989 192.66 279.298 193.641 279.298C194.26 279.298 194.814 279.154 195.305 278.866C195.806 278.578 196.196 278.173 196.473 277.65C196.761 277.117 196.905 276.504 196.905 275.81C196.905 275.117 196.761 274.509 196.473 273.986C196.196 273.453 195.806 273.042 195.305 272.754C194.814 272.466 194.26 272.322 193.641 272.322Z" fill="white"/>
<defs>
<filter id="filter0_f" x="0.418091" y="63.0139" width="343" height="285.609" filterUnits="userSpaceOnUse" color-interpolation-filters="sRGB">
<feFlood flood-opacity="0" result="BackgroundImageFix"/>
<feBlend mode="normal" in="SourceGraphic" in2="BackgroundImageFix" result="shape"/>
<feGaussianBlur stdDeviation="7" result="effect1_foregroundBlur"/>
</filter>
<filter id="filter1_f" x="80.1582" y="70.3883" width="28.251" height="28.251" filterUnits="userSpaceOnUse" color-interpolation-filters="sRGB">
<feFlood flood-opacity="0" result="BackgroundImageFix"/>
<feBlend mode="normal" in="SourceGraphic" in2="BackgroundImageFix" result="shape"/>
<feGaussianBlur stdDeviation="5.5" result="effect1_foregroundBlur"/>
</filter>
<filter id="filter2_f" x="235.621" y="70.3883" width="28.251" height="28.251" filterUnits="userSpaceOnUse" color-interpolation-filters="sRGB">
<feFlood flood-opacity="0" result="BackgroundImageFix"/>
<feBlend mode="normal" in="SourceGraphic" in2="BackgroundImageFix" result="shape"/>
<feGaussianBlur stdDeviation="5.5" result="effect1_foregroundBlur"/>
</filter>
<filter id="filter3_f" x="12.9181" y="74.2635" width="318" height="260.609" filterUnits="userSpaceOnUse" color-interpolation-filters="sRGB">
<feFlood flood-opacity="0" result="BackgroundImageFix"/>
<feBlend mode="normal" in="SourceGraphic" in2="BackgroundImageFix" result="shape"/>
<feGaussianBlur stdDeviation="3" result="effect1_foregroundBlur"/>
</filter>
<filter id="filter4_f" x="88.469" y="77.3883" width="11.7506" height="11.7506" filterUnits="userSpaceOnUse" color-interpolation-filters="sRGB">
<feFlood flood-opacity="0" result="BackgroundImageFix"/>
<feBlend mode="normal" in="SourceGraphic" in2="BackgroundImageFix" result="shape"/>
<feGaussianBlur stdDeviation="2" result="effect1_foregroundBlur"/>
</filter>
<filter id="filter5_f" x="243.743" y="77.3883" width="11.7506" height="11.7506" filterUnits="userSpaceOnUse" color-interpolation-filters="sRGB">
<feFlood flood-opacity="0" result="BackgroundImageFix"/>
<feBlend mode="normal" in="SourceGraphic" in2="BackgroundImageFix" result="shape"/>
<feGaussianBlur stdDeviation="2" result="effect1_foregroundBlur"/>
</filter>
<linearGradient id="paint0_linear" x1="286.93" y1="202.067" x2="50.555" y2="202.302" gradientUnits="userSpaceOnUse">
<stop stop-color="#FF1640"/>
<stop offset="0.315399" stop-color="#FABA33"/>
<stop offset="0.573227" stop-color="#E9E031"/>
<stop offset="0.826995" stop-color="#45F273"/>
<stop offset="1" stop-color="#30FFE9"/>
</linearGradient>
<linearGradient id="paint1_linear" x1="286.93" y1="200.816" x2="50.555" y2="201.052" gradientUnits="userSpaceOnUse">
<stop stop-color="#FF1640"/>
<stop offset="0.315399" stop-color="#FABA33"/>
<stop offset="0.573227" stop-color="#E9E031"/>
<stop offset="0.826995" stop-color="#45F273"/>
<stop offset="1" stop-color="#30FFE9"/>
</linearGradient>
</defs>
</svg>
