<svg width="246" height="273" viewBox="0 0 246 273" fill="none" xmlns="http://www.w3.org/2000/svg">
<path d="M33.2958 76.3967V78.8967V76.3967ZM240.796 106.397V240.484H245.796V106.397H240.796ZM213.296 267.984H33.2958V272.984H213.296V267.984ZM5.79578 240.484V106.397H0.795776V240.484H5.79578ZM33.2958 78.8967L61.2246 78.8967V73.8967L33.2958 73.8967V78.8967ZM185.463 78.8967H213.296V73.8967H185.463V78.8967ZM33.2958 267.984C18.1079 267.984 5.79578 255.671 5.79578 240.484H0.795776C0.795776 258.433 15.3465 272.984 33.2958 272.984V267.984ZM240.796 240.484C240.796 255.671 228.484 267.984 213.296 267.984V272.984C231.245 272.984 245.796 258.433 245.796 240.484H240.796ZM245.796 106.397C245.796 88.4475 231.245 73.8967 213.296 73.8967V78.8967C228.484 78.8967 240.796 91.2089 240.796 106.397H245.796ZM5.79578 106.397C5.79578 91.2089 18.1079 78.8967 33.2958 78.8967V73.8967C15.3465 73.8967 0.795776 88.4475 0.795776 106.397H5.79578Z" fill="url(#paint0_linear)"/>
<circle cx="61.1878" cy="76.3967" r="2.5" fill="#48F272"/>
<circle cx="185.558" cy="76.3967" r="2.5" fill="#FD6461"/>
<path fill-rule="evenodd" clip-rule="evenodd" d="M171.721 48.9376C171.213 48.4293 170.9 47.7276 170.9 46.9527C170.9 45.401 172.158 44.143 173.709 44.143C175.261 44.143 176.519 45.401 176.519 46.9527C176.519 48.5044 175.261 49.7624 173.709 49.7624C173.656 49.7624 173.603 49.7609 173.55 49.7579L146.83 100.054C146.967 100.385 147.043 100.747 147.043 101.128C147.043 102.68 145.785 103.938 144.233 103.938C142.681 103.938 141.423 102.68 141.423 101.128C141.423 100.859 141.461 100.598 141.532 100.352L105.426 50.1168C104.99 50.3936 104.474 50.5539 103.92 50.5539C103.669 50.5539 103.425 50.521 103.193 50.4591L78.0874 100.671C78.5475 101.171 78.8284 101.839 78.8284 102.572C78.8284 104.124 77.5705 105.382 76.0188 105.382C74.467 105.382 73.2091 104.124 73.2091 102.572C73.2091 101.021 74.467 99.7628 76.0188 99.7628C76.1132 99.7628 76.2066 99.7675 76.2987 99.7766L101.555 49.2628C101.274 48.8249 101.11 48.3037 101.11 47.7443C101.11 46.1925 102.368 44.9346 103.92 44.9346C105.472 44.9346 106.729 46.1925 106.729 47.7443C106.729 47.9736 106.702 48.1966 106.65 48.41C106.702 48.4715 106.752 48.5357 106.8 48.6026L142.811 98.7042C143.228 98.4589 143.714 98.3182 144.233 98.3182C144.635 98.3182 145.016 98.4025 145.362 98.5543L171.721 48.9376ZM115.289 27.3219L103.969 1.24193C103.769 0.801932 103.529 0.481934 102.969 0.481934C102.409 0.481934 102.169 0.801932 101.969 1.24193L90.6493 27.3219C90.6093 27.4419 90.5693 27.6019 90.5693 27.7619C90.5693 28.2819 91.0093 28.7619 91.5693 28.7619C92.0093 28.7619 92.3693 28.4419 92.5293 28.1219L95.9293 20.3219H110.009L113.409 28.1219C113.569 28.4419 113.929 28.7619 114.369 28.7619C114.929 28.7619 115.369 28.2819 115.369 27.7619C115.369 27.6019 115.329 27.4419 115.289 27.3219ZM96.6493 18.6019L102.969 4.04193L109.289 18.6019H96.6493ZM127.587 0.601932H120.267C119.627 0.601932 119.187 1.04193 119.187 1.68193V27.6819C119.187 28.2419 119.627 28.7219 120.227 28.7219C120.787 28.7219 121.227 28.2419 121.227 27.6819V17.7219H127.587C133.827 17.7219 137.667 14.5219 137.667 9.08193C137.667 4.04193 133.827 0.601932 127.587 0.601932ZM127.587 15.9219H121.227V2.40193H127.587C132.667 2.40193 135.667 5.00193 135.667 9.08193C135.667 13.5619 132.667 15.9219 127.587 15.9219ZM159.471 0.521933C159.151 0.521933 158.831 0.681933 158.631 1.00193L149.951 13.5619L141.271 1.00193C141.071 0.681933 140.751 0.521933 140.431 0.521933C139.871 0.521933 139.471 0.921933 139.471 1.40193C139.471 1.60193 139.551 1.84193 139.711 2.08193L148.911 15.3619V27.6819C148.911 28.2019 149.351 28.7219 149.951 28.7219C150.551 28.7219 150.991 28.2019 150.991 27.6819V15.3619L160.191 2.08193C160.351 1.84193 160.431 1.60193 160.431 1.40193C160.431 0.921933 160.031 0.521933 159.471 0.521933Z" fill="white"/>
<path d="M34.5441 160.157C34.5441 161.821 34.1841 163.301 33.4641 164.597C32.7601 165.877 31.7361 166.877 30.3921 167.597C29.0641 168.317 27.4961 168.677 25.6881 168.677H19.2801V151.709H25.6881C27.5121 151.709 29.0881 152.061 30.4161 152.765C31.7441 153.469 32.7601 154.461 33.4641 155.741C34.1841 157.021 34.5441 158.493 34.5441 160.157ZM25.3281 165.005C26.9281 165.005 28.1681 164.581 29.0481 163.733C29.9441 162.885 30.3921 161.693 30.3921 160.157C30.3921 158.621 29.9441 157.429 29.0481 156.581C28.1681 155.733 26.9281 155.309 25.3281 155.309H23.3841V165.005H25.3281ZM39.9777 155.285L43.1937 163.493L46.1937 155.285H50.7297L42.3777 175.061H37.8657L41.0097 168.173L35.3937 155.285H39.9777ZM60.5886 155.141C62.1246 155.141 63.3406 155.653 64.2366 156.677C65.1486 157.701 65.6046 159.109 65.6046 160.901V168.677H61.5006V161.381C61.5006 160.485 61.2606 159.789 60.7806 159.293C60.3166 158.781 59.6926 158.525 58.9086 158.525C58.0766 158.525 57.4126 158.789 56.9166 159.317C56.4366 159.845 56.1966 160.597 56.1966 161.573V168.677H52.0926V155.285H56.1966V157.733C56.5806 156.933 57.1486 156.301 57.9006 155.837C58.6686 155.373 59.5646 155.141 60.5886 155.141ZM73.3994 155.117C74.4234 155.117 75.3034 155.349 76.0394 155.813C76.7754 156.277 77.3194 156.909 77.6714 157.709V155.285H81.7514V168.677H77.6714V166.253C77.3194 167.053 76.7754 167.685 76.0394 168.149C75.3034 168.613 74.4234 168.845 73.3994 168.845C72.2954 168.845 71.3034 168.573 70.4234 168.029C69.5594 167.469 68.8714 166.669 68.3594 165.629C67.8634 164.589 67.6154 163.373 67.6154 161.981C67.6154 160.573 67.8634 159.357 68.3594 158.333C68.8714 157.293 69.5594 156.501 70.4234 155.957C71.3034 155.397 72.2954 155.117 73.3994 155.117ZM74.7194 158.717C73.8394 158.717 73.1274 159.005 72.5834 159.581C72.0554 160.157 71.7914 160.957 71.7914 161.981C71.7914 163.005 72.0554 163.805 72.5834 164.381C73.1274 164.957 73.8394 165.245 74.7194 165.245C75.5834 165.245 76.2874 164.949 76.8314 164.357C77.3914 163.765 77.6714 162.973 77.6714 161.981C77.6714 160.973 77.3914 160.181 76.8314 159.605C76.2874 159.013 75.5834 158.717 74.7194 158.717ZM101.929 155.141C103.577 155.141 104.873 155.653 105.817 156.677C106.761 157.685 107.233 159.093 107.233 160.901V168.677H103.153V161.381C103.153 160.533 102.921 159.877 102.457 159.413C102.009 158.933 101.393 158.693 100.609 158.693C99.793 158.693 99.145 158.949 98.665 159.461C98.201 159.957 97.969 160.661 97.969 161.573V168.677H93.865V161.381C93.865 160.533 93.641 159.877 93.193 159.413C92.745 158.933 92.129 158.693 91.345 158.693C90.529 158.693 89.881 158.941 89.401 159.437C88.921 159.933 88.681 160.645 88.681 161.573V168.677H84.577V155.285H88.681V157.565C89.033 156.813 89.569 156.221 90.289 155.789C91.025 155.357 91.881 155.141 92.857 155.141C93.881 155.141 94.785 155.381 95.569 155.861C96.353 156.325 96.945 156.997 97.345 157.877C97.809 157.045 98.441 156.381 99.241 155.885C100.057 155.389 100.953 155.141 101.929 155.141ZM109.576 151.517C109.576 150.893 109.8 150.381 110.248 149.981C110.696 149.565 111.288 149.357 112.024 149.357C112.76 149.357 113.352 149.565 113.8 149.981C114.248 150.381 114.472 150.893 114.472 151.517C114.472 152.125 114.248 152.637 113.8 153.053C113.352 153.453 112.76 153.653 112.024 153.653C111.288 153.653 110.696 153.453 110.248 153.053C109.8 152.637 109.576 152.125 109.576 151.517ZM114.064 155.285V168.677H109.96V155.285H114.064ZM122.945 155.117C124.673 155.117 126.121 155.597 127.289 156.557C128.457 157.501 129.193 158.805 129.497 160.469H125.153C125.025 159.893 124.761 159.445 124.361 159.125C123.961 158.805 123.457 158.645 122.849 158.645C122.129 158.645 121.537 158.933 121.073 159.509C120.609 160.069 120.377 160.893 120.377 161.981C120.377 163.069 120.609 163.901 121.073 164.477C121.537 165.037 122.129 165.317 122.849 165.317C123.457 165.317 123.961 165.157 124.361 164.837C124.761 164.517 125.025 164.069 125.153 163.493H129.497C129.193 165.157 128.457 166.469 127.289 167.429C126.121 168.373 124.673 168.845 122.945 168.845C121.633 168.845 120.465 168.573 119.441 168.029C118.433 167.469 117.641 166.669 117.065 165.629C116.489 164.589 116.201 163.373 116.201 161.981C116.201 160.573 116.481 159.357 117.041 158.333C117.617 157.293 118.417 156.501 119.441 155.957C120.465 155.397 121.633 155.117 122.945 155.117ZM140.548 151.709V168.677H136.444V151.709H140.548ZM151.878 155.141C153.414 155.141 154.63 155.653 155.526 156.677C156.438 157.701 156.894 159.109 156.894 160.901V168.677H152.79V161.381C152.79 160.485 152.55 159.789 152.07 159.293C151.606 158.781 150.982 158.525 150.198 158.525C149.366 158.525 148.702 158.789 148.206 159.317C147.726 159.845 147.486 160.597 147.486 161.573V168.677H143.382V155.285H147.486V157.733C147.87 156.933 148.438 156.301 149.19 155.837C149.958 155.373 150.854 155.141 151.878 155.141ZM167.184 165.149V168.677H165.336C163.768 168.677 162.544 168.293 161.664 167.525C160.8 166.741 160.368 165.453 160.368 163.661V158.741H158.568V155.285H160.368V151.997H164.472V155.285H167.16V158.741H164.472V163.733C164.472 164.261 164.576 164.629 164.784 164.837C165.008 165.045 165.376 165.149 165.888 165.149H167.184ZM182.211 161.621C182.211 161.957 182.171 162.325 182.091 162.725H172.803C172.851 163.733 173.107 164.461 173.571 164.909C174.035 165.341 174.627 165.557 175.347 165.557C175.955 165.557 176.459 165.405 176.859 165.101C177.259 164.797 177.523 164.405 177.651 163.925H181.995C181.819 164.869 181.435 165.717 180.843 166.469C180.251 167.205 179.499 167.789 178.587 168.221C177.675 168.637 176.659 168.845 175.539 168.845C174.227 168.845 173.059 168.573 172.035 168.029C171.027 167.469 170.235 166.669 169.659 165.629C169.083 164.589 168.795 163.373 168.795 161.981C168.795 160.573 169.075 159.357 169.635 158.333C170.211 157.293 171.011 156.501 172.035 155.957C173.059 155.397 174.227 155.117 175.539 155.117C176.867 155.117 178.035 155.389 179.043 155.933C180.051 156.477 180.827 157.245 181.371 158.237C181.931 159.213 182.211 160.341 182.211 161.621ZM178.059 160.997C178.075 160.117 177.835 159.461 177.339 159.029C176.859 158.581 176.259 158.357 175.539 158.357C174.787 158.357 174.163 158.581 173.667 159.029C173.171 159.477 172.891 160.133 172.827 160.997H178.059ZM188.454 157.805C188.966 156.989 189.622 156.341 190.422 155.861C191.238 155.381 192.118 155.141 193.062 155.141V159.533H191.886C190.798 159.533 189.95 159.765 189.342 160.229C188.75 160.693 188.454 161.477 188.454 162.581V168.677H184.35V155.285H188.454V157.805ZM207.5 161.621C207.5 161.957 207.46 162.325 207.38 162.725H198.092C198.14 163.733 198.396 164.461 198.86 164.909C199.324 165.341 199.916 165.557 200.636 165.557C201.244 165.557 201.748 165.405 202.148 165.101C202.548 164.797 202.812 164.405 202.94 163.925H207.284C207.108 164.869 206.724 165.717 206.132 166.469C205.54 167.205 204.788 167.789 203.876 168.221C202.964 168.637 201.948 168.845 200.828 168.845C199.516 168.845 198.348 168.573 197.324 168.029C196.316 167.469 195.524 166.669 194.948 165.629C194.372 164.589 194.084 163.373 194.084 161.981C194.084 160.573 194.364 159.357 194.924 158.333C195.5 157.293 196.3 156.501 197.324 155.957C198.348 155.397 199.516 155.117 200.828 155.117C202.156 155.117 203.324 155.389 204.332 155.933C205.34 156.477 206.116 157.245 206.66 158.237C207.22 159.213 207.5 160.341 207.5 161.621ZM203.348 160.997C203.364 160.117 203.124 159.461 202.628 159.029C202.148 158.581 201.548 158.357 200.828 158.357C200.076 158.357 199.452 158.581 198.956 159.029C198.46 159.477 198.18 160.133 198.116 160.997H203.348ZM214.512 155.117C216.208 155.117 217.56 155.541 218.568 156.389C219.592 157.237 220.232 158.357 220.488 159.749H216.648C216.536 159.205 216.28 158.781 215.88 158.477C215.496 158.157 215.008 157.997 214.416 157.997C213.952 157.997 213.6 158.101 213.36 158.309C213.12 158.501 213 158.781 213 159.149C213 159.565 213.216 159.877 213.648 160.085C214.096 160.293 214.792 160.501 215.736 160.709C216.76 160.949 217.6 161.197 218.256 161.453C218.912 161.693 219.48 162.093 219.96 162.653C220.44 163.213 220.68 163.965 220.68 164.909C220.68 165.677 220.472 166.357 220.056 166.949C219.64 167.541 219.04 168.005 218.256 168.341C217.472 168.677 216.544 168.845 215.472 168.845C213.664 168.845 212.216 168.445 211.128 167.645C210.04 166.845 209.376 165.701 209.136 164.213H213.096C213.16 164.789 213.4 165.229 213.816 165.533C214.248 165.837 214.8 165.989 215.472 165.989C215.936 165.989 216.288 165.885 216.528 165.677C216.768 165.453 216.888 165.165 216.888 164.813C216.888 164.349 216.664 164.021 216.216 163.829C215.784 163.621 215.072 163.405 214.08 163.181C213.088 162.973 212.272 162.749 211.632 162.509C210.992 162.269 210.44 161.885 209.976 161.357C209.512 160.813 209.28 160.077 209.28 159.149C209.28 157.949 209.736 156.981 210.648 156.245C211.56 155.493 212.848 155.117 214.512 155.117ZM230.536 165.149V168.677H228.688C227.12 168.677 225.896 168.293 225.016 167.525C224.152 166.741 223.72 165.453 223.72 163.661V158.741H221.92V155.285H223.72V151.997H227.824V155.285H230.512V158.741H227.824V163.733C227.824 164.261 227.928 164.629 228.136 164.837C228.36 165.045 228.728 165.149 229.24 165.149H230.536Z" fill="white"/>
<path d="M26.0891 195.005H29.1611V195.677H25.2371V187.217H26.0891V195.005ZM30.1193 187.181C30.1193 187.005 30.1753 186.865 30.2873 186.761C30.4073 186.657 30.5593 186.605 30.7433 186.605C30.9273 186.605 31.0753 186.657 31.1873 186.761C31.2993 186.865 31.3553 187.005 31.3553 187.181C31.3553 187.349 31.2993 187.485 31.1873 187.589C31.0753 187.693 30.9273 187.745 30.7433 187.745C30.5593 187.745 30.4073 187.693 30.2873 187.589C30.1753 187.485 30.1193 187.349 30.1193 187.181ZM31.1633 189.125V195.677H30.3113V189.125H31.1633ZM35.7912 189.053C36.4392 189.053 36.9872 189.213 37.4352 189.533C37.8912 189.853 38.2152 190.289 38.4072 190.841V189.125H39.2352V198.773H38.4072V193.925C38.2152 194.485 37.8912 194.933 37.4352 195.269C36.9792 195.597 36.4312 195.761 35.7912 195.761C35.1912 195.761 34.6552 195.625 34.1832 195.353C33.7112 195.073 33.3392 194.681 33.0672 194.177C32.8032 193.673 32.6712 193.085 32.6712 192.413C32.6712 191.741 32.8032 191.153 33.0672 190.649C33.3392 190.137 33.7112 189.745 34.1832 189.473C34.6552 189.193 35.1912 189.053 35.7912 189.053ZM35.9592 189.785C35.2312 189.785 34.6432 190.021 34.1952 190.493C33.7472 190.957 33.5232 191.597 33.5232 192.413C33.5232 193.229 33.7472 193.869 34.1952 194.333C34.6432 194.789 35.2312 195.017 35.9592 195.017C36.4152 195.017 36.8272 194.913 37.1952 194.705C37.5712 194.489 37.8672 194.185 38.0832 193.793C38.2992 193.393 38.4072 192.929 38.4072 192.401C38.4072 191.873 38.2992 191.413 38.0832 191.021C37.8672 190.621 37.5712 190.317 37.1952 190.109C36.8272 189.893 36.4152 189.785 35.9592 189.785ZM46.7094 189.125V195.677H45.8694V194.057C45.7014 194.625 45.3974 195.057 44.9574 195.353C44.5174 195.649 44.0134 195.797 43.4454 195.797C42.6774 195.797 42.0534 195.557 41.5734 195.077C41.1014 194.589 40.8654 193.877 40.8654 192.941V189.125H41.7054V192.869C41.7054 193.589 41.8854 194.141 42.2454 194.525C42.6054 194.901 43.0974 195.089 43.7214 195.089C44.3774 195.089 44.8974 194.881 45.2814 194.465C45.6734 194.041 45.8694 193.421 45.8694 192.605V189.125H46.7094ZM48.3537 187.181C48.3537 187.005 48.4097 186.865 48.5217 186.761C48.6417 186.657 48.7937 186.605 48.9777 186.605C49.1617 186.605 49.3097 186.657 49.4217 186.761C49.5337 186.865 49.5897 187.005 49.5897 187.181C49.5897 187.349 49.5337 187.485 49.4217 187.589C49.3097 187.693 49.1617 187.745 48.9777 187.745C48.7937 187.745 48.6417 187.693 48.5217 187.589C48.4097 187.485 48.3537 187.349 48.3537 187.181ZM49.3977 189.125V195.677H48.5457V189.125H49.3977ZM53.9775 189.041C54.6415 189.041 55.2055 189.213 55.6695 189.557C56.1415 189.901 56.4615 190.357 56.6295 190.925V186.797H57.4695V195.677H56.6295V193.877C56.4615 194.445 56.1415 194.901 55.6695 195.245C55.2055 195.589 54.6415 195.761 53.9775 195.761C53.3855 195.761 52.8535 195.625 52.3815 195.353C51.9175 195.081 51.5535 194.693 51.2895 194.189C51.0335 193.677 50.9055 193.081 50.9055 192.401C50.9055 191.713 51.0335 191.117 51.2895 190.613C51.5535 190.101 51.9175 189.713 52.3815 189.449C52.8455 189.177 53.3775 189.041 53.9775 189.041ZM54.1935 189.785C53.4575 189.785 52.8655 190.021 52.4175 190.493C51.9775 190.957 51.7575 191.593 51.7575 192.401C51.7575 193.209 51.9775 193.849 52.4175 194.321C52.8655 194.785 53.4575 195.017 54.1935 195.017C54.6575 195.017 55.0735 194.909 55.4415 194.693C55.8175 194.477 56.1095 194.173 56.3175 193.781C56.5335 193.381 56.6415 192.921 56.6415 192.401C56.6415 191.881 56.5335 191.425 56.3175 191.033C56.1095 190.633 55.8175 190.325 55.4415 190.109C55.0735 189.893 54.6575 189.785 54.1935 189.785ZM59.0997 187.181C59.0997 187.005 59.1557 186.865 59.2677 186.761C59.3877 186.657 59.5397 186.605 59.7237 186.605C59.9077 186.605 60.0557 186.657 60.1677 186.761C60.2797 186.865 60.3357 187.005 60.3357 187.181C60.3357 187.349 60.2797 187.485 60.1677 187.589C60.0557 187.693 59.9077 187.745 59.7237 187.745C59.5397 187.745 59.3877 187.693 59.2677 187.589C59.1557 187.485 59.0997 187.349 59.0997 187.181ZM60.1437 189.125V195.677H59.2917V189.125H60.1437ZM64.9396 194.933V195.677H64.1596C63.5276 195.677 63.0556 195.529 62.7436 195.233C62.4316 194.929 62.2756 194.421 62.2756 193.709V189.857H61.2796V189.125H62.2756V187.469H63.1276V189.125H64.9276V189.857H63.1276V193.721C63.1276 194.185 63.2116 194.505 63.3796 194.681C63.5476 194.849 63.8436 194.933 64.2676 194.933H64.9396ZM66.503 189.125L68.783 194.585L70.883 189.125H71.819L67.967 198.773H67.007L68.327 195.605L65.567 189.125H66.503ZM79.5067 189.041C80.1067 189.041 80.6347 189.177 81.0907 189.449C81.5547 189.713 81.9147 190.101 82.1707 190.613C82.4347 191.117 82.5667 191.713 82.5667 192.401C82.5667 193.081 82.4347 193.677 82.1707 194.189C81.9147 194.693 81.5547 195.081 81.0907 195.353C80.6267 195.625 80.0987 195.761 79.5067 195.761C78.8347 195.761 78.2667 195.589 77.8027 195.245C77.3387 194.901 77.0187 194.445 76.8427 193.877V198.773H76.0027V189.125H76.8427V190.925C77.0187 190.357 77.3387 189.901 77.8027 189.557C78.2667 189.213 78.8347 189.041 79.5067 189.041ZM79.2787 189.785C78.8147 189.785 78.3947 189.893 78.0187 190.109C77.6507 190.325 77.3627 190.633 77.1547 191.033C76.9467 191.425 76.8427 191.881 76.8427 192.401C76.8427 192.921 76.9467 193.381 77.1547 193.781C77.3627 194.173 77.6507 194.477 78.0187 194.693C78.3947 194.909 78.8147 195.017 79.2787 195.017C80.0227 195.017 80.6147 194.785 81.0547 194.321C81.4947 193.849 81.7147 193.209 81.7147 192.401C81.7147 191.593 81.4947 190.957 81.0547 190.493C80.6147 190.021 80.0227 189.785 79.2787 189.785ZM87.0409 189.041C87.6649 189.041 88.2209 189.177 88.7089 189.449C89.2049 189.713 89.5929 190.101 89.8729 190.613C90.1529 191.117 90.2929 191.713 90.2929 192.401C90.2929 193.089 90.1529 193.685 89.8729 194.189C89.5929 194.693 89.2049 195.081 88.7089 195.353C88.2209 195.625 87.6649 195.761 87.0409 195.761C86.4169 195.761 85.8569 195.625 85.3609 195.353C84.8649 195.081 84.4729 194.693 84.1849 194.189C83.9049 193.677 83.7649 193.081 83.7649 192.401C83.7649 191.713 83.9049 191.117 84.1849 190.613C84.4729 190.101 84.8649 189.713 85.3609 189.449C85.8569 189.177 86.4169 189.041 87.0409 189.041ZM87.0409 189.773C86.6089 189.773 86.2089 189.869 85.8409 190.061C85.4729 190.253 85.1769 190.549 84.9529 190.949C84.7289 191.341 84.6169 191.825 84.6169 192.401C84.6169 192.977 84.7289 193.461 84.9529 193.853C85.1769 194.245 85.4729 194.537 85.8409 194.729C86.2089 194.921 86.6089 195.017 87.0409 195.017C87.4649 195.017 87.8569 194.921 88.2169 194.729C88.5849 194.537 88.8809 194.245 89.1049 193.853C89.3289 193.461 89.4409 192.977 89.4409 192.401C89.4409 191.825 89.3289 191.341 89.1049 190.949C88.8809 190.549 88.5849 190.253 88.2169 190.061C87.8569 189.869 87.4649 189.773 87.0409 189.773ZM94.7636 189.041C95.3876 189.041 95.9436 189.177 96.4316 189.449C96.9276 189.713 97.3156 190.101 97.5956 190.613C97.8756 191.117 98.0156 191.713 98.0156 192.401C98.0156 193.089 97.8756 193.685 97.5956 194.189C97.3156 194.693 96.9276 195.081 96.4316 195.353C95.9436 195.625 95.3876 195.761 94.7636 195.761C94.1396 195.761 93.5796 195.625 93.0836 195.353C92.5876 195.081 92.1956 194.693 91.9076 194.189C91.6276 193.677 91.4876 193.081 91.4876 192.401C91.4876 191.713 91.6276 191.117 91.9076 190.613C92.1956 190.101 92.5876 189.713 93.0836 189.449C93.5796 189.177 94.1396 189.041 94.7636 189.041ZM94.7636 189.773C94.3316 189.773 93.9316 189.869 93.5636 190.061C93.1956 190.253 92.8996 190.549 92.6756 190.949C92.4516 191.341 92.3396 191.825 92.3396 192.401C92.3396 192.977 92.4516 193.461 92.6756 193.853C92.8996 194.245 93.1956 194.537 93.5636 194.729C93.9316 194.921 94.3316 195.017 94.7636 195.017C95.1876 195.017 95.5796 194.921 95.9396 194.729C96.3076 194.537 96.6036 194.245 96.8276 193.853C97.0516 193.461 97.1636 192.977 97.1636 192.401C97.1636 191.825 97.0516 191.341 96.8276 190.949C96.6036 190.549 96.3076 190.253 95.9396 190.061C95.5796 189.869 95.1876 189.773 94.7636 189.773ZM100.374 186.797V195.677H99.5222V186.797H100.374ZM105.119 187.181C105.119 187.005 105.175 186.865 105.287 186.761C105.407 186.657 105.559 186.605 105.743 186.605C105.927 186.605 106.075 186.657 106.187 186.761C106.299 186.865 106.355 187.005 106.355 187.181C106.355 187.349 106.299 187.485 106.187 187.589C106.075 187.693 105.927 187.745 105.743 187.745C105.559 187.745 105.407 187.693 105.287 187.589C105.175 187.485 105.119 187.349 105.119 187.181ZM106.163 189.125V195.677H105.311V189.125H106.163ZM111.259 189.005C112.019 189.005 112.635 189.249 113.107 189.737C113.587 190.217 113.827 190.925 113.827 191.861V195.677H112.999V191.921C112.999 191.209 112.819 190.665 112.459 190.289C112.099 189.905 111.607 189.713 110.983 189.713C110.327 189.713 109.803 189.925 109.411 190.349C109.027 190.765 108.835 191.381 108.835 192.197V195.677H107.983V189.125H108.835V190.733C109.003 190.173 109.307 189.745 109.747 189.449C110.187 189.153 110.691 189.005 111.259 189.005ZM118.576 194.933V195.677H117.796C117.164 195.677 116.692 195.529 116.38 195.233C116.068 194.929 115.912 194.421 115.912 193.709V189.857H114.916V189.125H115.912V187.469H116.764V189.125H118.564V189.857H116.764V193.721C116.764 194.185 116.848 194.505 117.016 194.681C117.184 194.849 117.48 194.933 117.904 194.933H118.576ZM122.816 195.065C123.408 195.065 123.904 194.917 124.304 194.621C124.704 194.325 124.944 193.925 125.024 193.421H125.912C125.792 194.117 125.46 194.681 124.916 195.113C124.372 195.545 123.684 195.761 122.852 195.761C122.228 195.761 121.672 195.629 121.184 195.365C120.704 195.093 120.328 194.705 120.056 194.201C119.784 193.689 119.648 193.089 119.648 192.401C119.648 191.713 119.784 191.117 120.056 190.613C120.328 190.101 120.704 189.713 121.184 189.449C121.672 189.177 122.228 189.041 122.852 189.041C123.492 189.041 124.044 189.177 124.508 189.449C124.98 189.713 125.336 190.069 125.576 190.517C125.824 190.965 125.948 191.453 125.948 191.981C125.948 192.205 125.932 192.409 125.9 192.593H120.476C120.484 193.145 120.596 193.609 120.812 193.985C121.036 194.353 121.324 194.625 121.676 194.801C122.028 194.977 122.408 195.065 122.816 195.065ZM122.852 189.725C122.428 189.725 122.04 189.813 121.688 189.989C121.336 190.165 121.048 190.437 120.824 190.805C120.608 191.165 120.492 191.617 120.476 192.161H125.108C125.14 191.625 125.052 191.173 124.844 190.805C124.636 190.437 124.356 190.165 124.004 189.989C123.652 189.813 123.268 189.725 122.852 189.725ZM128.312 190.481C128.504 190.009 128.812 189.645 129.236 189.389C129.66 189.133 130.176 189.005 130.784 189.005V189.917H130.508C129.876 189.917 129.352 190.089 128.936 190.433C128.52 190.769 128.312 191.321 128.312 192.089V195.677H127.46V189.125H128.312V190.481ZM134.757 195.065C135.349 195.065 135.845 194.917 136.245 194.621C136.645 194.325 136.885 193.925 136.965 193.421H137.853C137.733 194.117 137.401 194.681 136.857 195.113C136.313 195.545 135.625 195.761 134.793 195.761C134.169 195.761 133.613 195.629 133.125 195.365C132.645 195.093 132.269 194.705 131.997 194.201C131.725 193.689 131.589 193.089 131.589 192.401C131.589 191.713 131.725 191.117 131.997 190.613C132.269 190.101 132.645 189.713 133.125 189.449C133.613 189.177 134.169 189.041 134.793 189.041C135.433 189.041 135.985 189.177 136.449 189.449C136.921 189.713 137.277 190.069 137.517 190.517C137.765 190.965 137.889 191.453 137.889 191.981C137.889 192.205 137.873 192.409 137.841 192.593H132.417C132.425 193.145 132.537 193.609 132.753 193.985C132.977 194.353 133.265 194.625 133.617 194.801C133.969 194.977 134.349 195.065 134.757 195.065ZM134.793 189.725C134.369 189.725 133.981 189.813 133.629 189.989C133.277 190.165 132.989 190.437 132.765 190.805C132.549 191.165 132.433 191.617 132.417 192.161H137.049C137.081 191.625 136.993 191.173 136.785 190.805C136.577 190.437 136.297 190.165 135.945 189.989C135.593 189.813 135.209 189.725 134.793 189.725ZM141.381 189.041C142.093 189.041 142.665 189.229 143.097 189.605C143.529 189.981 143.793 190.489 143.889 191.129H143.085C143.037 190.705 142.861 190.357 142.557 190.085C142.261 189.805 141.861 189.665 141.357 189.665C140.925 189.665 140.585 189.773 140.337 189.989C140.097 190.197 139.977 190.477 139.977 190.829C139.977 191.093 140.053 191.305 140.205 191.465C140.365 191.625 140.561 191.749 140.793 191.837C141.025 191.917 141.337 192.001 141.729 192.089C142.209 192.201 142.593 192.317 142.881 192.437C143.177 192.549 143.429 192.729 143.637 192.977C143.845 193.225 143.949 193.561 143.949 193.985C143.949 194.505 143.753 194.933 143.361 195.269C142.977 195.597 142.465 195.761 141.825 195.761C141.073 195.761 140.457 195.577 139.977 195.209C139.497 194.833 139.213 194.321 139.125 193.673H139.941C139.989 194.105 140.177 194.457 140.505 194.729C140.833 195.001 141.277 195.137 141.837 195.137C142.253 195.137 142.577 195.029 142.809 194.813C143.041 194.597 143.157 194.317 143.157 193.973C143.157 193.693 143.077 193.469 142.917 193.301C142.757 193.133 142.557 193.009 142.317 192.929C142.085 192.841 141.765 192.749 141.357 192.653C140.885 192.541 140.505 192.429 140.217 192.317C139.937 192.205 139.697 192.033 139.497 191.801C139.297 191.561 139.197 191.237 139.197 190.829C139.197 190.293 139.393 189.861 139.785 189.533C140.177 189.205 140.709 189.041 141.381 189.041ZM148.459 194.933V195.677H147.679C147.047 195.677 146.575 195.529 146.263 195.233C145.951 194.929 145.795 194.421 145.795 193.709V189.857H144.799V189.125H145.795V187.469H146.647V189.125H148.447V189.857H146.647V193.721C146.647 194.185 146.731 194.505 146.899 194.681C147.067 194.849 147.363 194.933 147.787 194.933H148.459ZM153.812 190.481C154.004 190.009 154.312 189.645 154.736 189.389C155.16 189.133 155.676 189.005 156.284 189.005V189.917H156.008C155.376 189.917 154.852 190.089 154.436 190.433C154.02 190.769 153.812 191.321 153.812 192.089V195.677H152.96V189.125H153.812V190.481ZM160.161 189.041C160.825 189.041 161.389 189.213 161.853 189.557C162.325 189.901 162.649 190.357 162.825 190.925V189.125H163.653V195.677H162.825V193.877C162.649 194.445 162.325 194.901 161.853 195.245C161.389 195.589 160.825 195.761 160.161 195.761C159.569 195.761 159.037 195.625 158.565 195.353C158.101 195.081 157.737 194.693 157.473 194.189C157.217 193.677 157.089 193.081 157.089 192.401C157.089 191.713 157.217 191.117 157.473 190.613C157.737 190.101 158.101 189.713 158.565 189.449C159.029 189.177 159.561 189.041 160.161 189.041ZM160.377 189.785C159.641 189.785 159.049 190.021 158.601 190.493C158.161 190.957 157.941 191.593 157.941 192.401C157.941 193.209 158.161 193.849 158.601 194.321C159.049 194.785 159.641 195.017 160.377 195.017C160.841 195.017 161.257 194.909 161.625 194.693C162.001 194.477 162.293 194.173 162.501 193.781C162.717 193.381 162.825 192.921 162.825 192.401C162.825 191.881 162.717 191.425 162.501 191.033C162.293 190.633 162.001 190.325 161.625 190.109C161.257 189.893 160.841 189.785 160.377 189.785ZM168.451 194.933V195.677H167.671C167.039 195.677 166.567 195.529 166.255 195.233C165.943 194.929 165.787 194.421 165.787 193.709V189.857H164.791V189.125H165.787V187.469H166.639V189.125H168.439V189.857H166.639V193.721C166.639 194.185 166.723 194.505 166.891 194.681C167.059 194.849 167.355 194.933 167.779 194.933H168.451ZM172.691 195.065C173.283 195.065 173.779 194.917 174.179 194.621C174.579 194.325 174.819 193.925 174.899 193.421H175.787C175.667 194.117 175.335 194.681 174.791 195.113C174.247 195.545 173.559 195.761 172.727 195.761C172.103 195.761 171.547 195.629 171.059 195.365C170.579 195.093 170.203 194.705 169.931 194.201C169.659 193.689 169.523 193.089 169.523 192.401C169.523 191.713 169.659 191.117 169.931 190.613C170.203 190.101 170.579 189.713 171.059 189.449C171.547 189.177 172.103 189.041 172.727 189.041C173.367 189.041 173.919 189.177 174.383 189.449C174.855 189.713 175.211 190.069 175.451 190.517C175.699 190.965 175.823 191.453 175.823 191.981C175.823 192.205 175.807 192.409 175.775 192.593H170.351C170.359 193.145 170.471 193.609 170.687 193.985C170.911 194.353 171.199 194.625 171.551 194.801C171.903 194.977 172.283 195.065 172.691 195.065ZM172.727 189.725C172.303 189.725 171.915 189.813 171.563 189.989C171.211 190.165 170.923 190.437 170.699 190.805C170.483 191.165 170.367 191.617 170.351 192.161H174.983C175.015 191.625 174.927 191.173 174.719 190.805C174.511 190.437 174.231 190.165 173.879 189.989C173.527 189.813 173.143 189.725 172.727 189.725ZM179.315 189.041C180.027 189.041 180.599 189.229 181.031 189.605C181.463 189.981 181.727 190.489 181.823 191.129H181.019C180.971 190.705 180.795 190.357 180.491 190.085C180.195 189.805 179.795 189.665 179.291 189.665C178.859 189.665 178.519 189.773 178.271 189.989C178.031 190.197 177.911 190.477 177.911 190.829C177.911 191.093 177.987 191.305 178.139 191.465C178.299 191.625 178.495 191.749 178.727 191.837C178.959 191.917 179.271 192.001 179.663 192.089C180.143 192.201 180.527 192.317 180.815 192.437C181.111 192.549 181.363 192.729 181.571 192.977C181.779 193.225 181.883 193.561 181.883 193.985C181.883 194.505 181.687 194.933 181.295 195.269C180.911 195.597 180.399 195.761 179.759 195.761C179.007 195.761 178.391 195.577 177.911 195.209C177.431 194.833 177.147 194.321 177.059 193.673H177.875C177.923 194.105 178.111 194.457 178.439 194.729C178.767 195.001 179.211 195.137 179.771 195.137C180.187 195.137 180.511 195.029 180.743 194.813C180.975 194.597 181.091 194.317 181.091 193.973C181.091 193.693 181.011 193.469 180.851 193.301C180.691 193.133 180.491 193.009 180.251 192.929C180.019 192.841 179.699 192.749 179.291 192.653C178.819 192.541 178.439 192.429 178.151 192.317C177.871 192.205 177.631 192.033 177.431 191.801C177.231 191.561 177.131 191.237 177.131 190.829C177.131 190.293 177.327 189.861 177.719 189.533C178.111 189.205 178.643 189.041 179.315 189.041ZM195.39 189.125L193.458 195.677H192.57L190.602 190.109L188.61 195.677H187.734L185.802 189.125H186.654L188.214 194.801L190.182 189.125H191.046L193.026 194.801L194.574 189.125H195.39ZM196.279 187.181C196.279 187.005 196.335 186.865 196.447 186.761C196.567 186.657 196.719 186.605 196.903 186.605C197.087 186.605 197.235 186.657 197.347 186.761C197.459 186.865 197.515 187.005 197.515 187.181C197.515 187.349 197.459 187.485 197.347 187.589C197.235 187.693 197.087 187.745 196.903 187.745C196.719 187.745 196.567 187.693 196.447 187.589C196.335 187.485 196.279 187.349 196.279 187.181ZM197.323 189.125V195.677H196.471V189.125H197.323ZM199.995 186.797V195.677H199.143V186.797H199.995ZM202.667 186.797V195.677H201.815V186.797H202.667ZM211.108 189.041C211.708 189.041 212.236 189.177 212.692 189.449C213.156 189.713 213.516 190.101 213.772 190.613C214.036 191.117 214.168 191.713 214.168 192.401C214.168 193.081 214.036 193.677 213.772 194.189C213.516 194.693 213.156 195.081 212.692 195.353C212.228 195.625 211.7 195.761 211.108 195.761C210.436 195.761 209.868 195.589 209.404 195.245C208.94 194.901 208.62 194.445 208.444 193.877V195.677H207.604V186.797H208.444V190.925C208.62 190.357 208.94 189.901 209.404 189.557C209.868 189.213 210.436 189.041 211.108 189.041ZM210.88 189.785C210.416 189.785 209.996 189.893 209.62 190.109C209.252 190.325 208.964 190.633 208.756 191.033C208.548 191.425 208.444 191.881 208.444 192.401C208.444 192.921 208.548 193.381 208.756 193.781C208.964 194.173 209.252 194.477 209.62 194.693C209.996 194.909 210.416 195.017 210.88 195.017C211.624 195.017 212.216 194.785 212.656 194.321C213.096 193.849 213.316 193.209 213.316 192.401C213.316 191.593 213.096 190.957 212.656 190.493C212.216 190.021 211.624 189.785 210.88 189.785ZM218.534 195.065C219.126 195.065 219.622 194.917 220.022 194.621C220.422 194.325 220.662 193.925 220.742 193.421H221.63C221.51 194.117 221.178 194.681 220.634 195.113C220.09 195.545 219.402 195.761 218.57 195.761C217.946 195.761 217.39 195.629 216.902 195.365C216.422 195.093 216.046 194.705 215.774 194.201C215.502 193.689 215.366 193.089 215.366 192.401C215.366 191.713 215.502 191.117 215.774 190.613C216.046 190.101 216.422 189.713 216.902 189.449C217.39 189.177 217.946 189.041 218.57 189.041C219.21 189.041 219.762 189.177 220.226 189.449C220.698 189.713 221.054 190.069 221.294 190.517C221.542 190.965 221.666 191.453 221.666 191.981C221.666 192.205 221.65 192.409 221.618 192.593H216.194C216.202 193.145 216.314 193.609 216.53 193.985C216.754 194.353 217.042 194.625 217.394 194.801C217.746 194.977 218.126 195.065 218.534 195.065ZM218.57 189.725C218.146 189.725 217.758 189.813 217.406 189.989C217.054 190.165 216.766 190.437 216.542 190.805C216.326 191.165 216.21 191.617 216.194 192.161H220.826C220.858 191.625 220.77 191.173 220.562 190.805C220.354 190.437 220.074 190.165 219.722 189.989C219.37 189.813 218.986 189.725 218.57 189.725ZM45.3818 207.041C46.0458 207.041 46.6098 207.213 47.0738 207.557C47.5458 207.901 47.8658 208.357 48.0338 208.925V204.797H48.8738V213.677H48.0338V211.877C47.8658 212.445 47.5458 212.901 47.0738 213.245C46.6098 213.589 46.0458 213.761 45.3818 213.761C44.7898 213.761 44.2578 213.625 43.7858 213.353C43.3218 213.081 42.9578 212.693 42.6938 212.189C42.4378 211.677 42.3098 211.081 42.3098 210.401C42.3098 209.713 42.4378 209.117 42.6938 208.613C42.9578 208.101 43.3218 207.713 43.7858 207.449C44.2498 207.177 44.7818 207.041 45.3818 207.041ZM45.5978 207.785C44.8618 207.785 44.2698 208.021 43.8218 208.493C43.3818 208.957 43.1618 209.593 43.1618 210.401C43.1618 211.209 43.3818 211.849 43.8218 212.321C44.2698 212.785 44.8618 213.017 45.5978 213.017C46.0618 213.017 46.4778 212.909 46.8458 212.693C47.2218 212.477 47.5138 212.173 47.7218 211.781C47.9378 211.381 48.0458 210.921 48.0458 210.401C48.0458 209.881 47.9378 209.425 47.7218 209.033C47.5138 208.633 47.2218 208.325 46.8458 208.109C46.4778 207.893 46.0618 207.785 45.5978 207.785ZM50.876 207.125L53.156 212.585L55.256 207.125H56.192L52.34 216.773H51.38L52.7 213.605L49.94 207.125H50.876ZM60.5345 207.005C61.2945 207.005 61.9105 207.249 62.3825 207.737C62.8625 208.217 63.1025 208.925 63.1025 209.861V213.677H62.2745V209.921C62.2745 209.209 62.0945 208.665 61.7345 208.289C61.3745 207.905 60.8825 207.713 60.2585 207.713C59.6025 207.713 59.0785 207.925 58.6865 208.349C58.3025 208.765 58.1105 209.381 58.1105 210.197V213.677H57.2585V207.125H58.1105V208.733C58.2785 208.173 58.5825 207.745 59.0225 207.449C59.4625 207.153 59.9665 207.005 60.5345 207.005ZM67.6357 207.041C68.2997 207.041 68.8637 207.213 69.3277 207.557C69.7997 207.901 70.1237 208.357 70.2997 208.925V207.125H71.1277V213.677H70.2997V211.877C70.1237 212.445 69.7997 212.901 69.3277 213.245C68.8637 213.589 68.2997 213.761 67.6357 213.761C67.0437 213.761 66.5117 213.625 66.0397 213.353C65.5757 213.081 65.2117 212.693 64.9477 212.189C64.6917 211.677 64.5637 211.081 64.5637 210.401C64.5637 209.713 64.6917 209.117 64.9477 208.613C65.2117 208.101 65.5757 207.713 66.0397 207.449C66.5037 207.177 67.0357 207.041 67.6357 207.041ZM67.8517 207.785C67.1157 207.785 66.5237 208.021 66.0757 208.493C65.6357 208.957 65.4157 209.593 65.4157 210.401C65.4157 211.209 65.6357 211.849 66.0757 212.321C66.5237 212.785 67.1157 213.017 67.8517 213.017C68.3157 213.017 68.7317 212.909 69.0997 212.693C69.4757 212.477 69.7677 212.173 69.9757 211.781C70.1917 211.381 70.2997 210.921 70.2997 210.401C70.2997 209.881 70.1917 209.425 69.9757 209.033C69.7677 208.633 69.4757 208.325 69.0997 208.109C68.7317 207.893 68.3157 207.785 67.8517 207.785ZM80.9059 207.005C81.6579 207.005 82.2659 207.249 82.7299 207.737C83.2019 208.217 83.4379 208.925 83.4379 209.861V213.677H82.5979V209.921C82.5979 209.217 82.4259 208.677 82.0819 208.301C81.7459 207.925 81.2819 207.737 80.6899 207.737C80.0579 207.737 79.5539 207.945 79.1779 208.361C78.8019 208.777 78.6139 209.389 78.6139 210.197V213.677H77.7859V209.921C77.7859 209.217 77.6139 208.677 77.2699 208.301C76.9339 207.925 76.4699 207.737 75.8779 207.737C75.2459 207.737 74.7419 207.945 74.3659 208.361C73.9899 208.777 73.8019 209.389 73.8019 210.197V213.677H72.9499V207.125H73.8019V208.685C73.9619 208.133 74.2499 207.717 74.6659 207.437C75.0899 207.149 75.5779 207.005 76.1299 207.005C76.7059 207.005 77.2019 207.157 77.6179 207.461C78.0339 207.765 78.3219 208.213 78.4819 208.805C78.6579 208.221 78.9659 207.777 79.4059 207.473C79.8459 207.161 80.3459 207.005 80.9059 207.005ZM85.0158 205.181C85.0158 205.005 85.0718 204.865 85.1838 204.761C85.3038 204.657 85.4558 204.605 85.6398 204.605C85.8238 204.605 85.9718 204.657 86.0838 204.761C86.1958 204.865 86.2518 205.005 86.2518 205.181C86.2518 205.349 86.1958 205.485 86.0838 205.589C85.9718 205.693 85.8238 205.745 85.6398 205.745C85.4558 205.745 85.3038 205.693 85.1838 205.589C85.0718 205.485 85.0158 205.349 85.0158 205.181ZM86.0598 207.125V213.677H85.2078V207.125H86.0598ZM90.7716 207.041C91.6036 207.041 92.2916 207.261 92.8356 207.701C93.3876 208.141 93.7236 208.725 93.8436 209.453H92.9676C92.8796 208.933 92.6356 208.525 92.2356 208.229C91.8356 207.925 91.3436 207.773 90.7596 207.773C90.3356 207.773 89.9436 207.869 89.5836 208.061C89.2316 208.253 88.9476 208.549 88.7316 208.949C88.5236 209.341 88.4196 209.825 88.4196 210.401C88.4196 210.977 88.5236 211.465 88.7316 211.865C88.9476 212.257 89.2316 212.549 89.5836 212.741C89.9436 212.933 90.3356 213.029 90.7596 213.029C91.3436 213.029 91.8356 212.881 92.2356 212.585C92.6356 212.281 92.8796 211.869 92.9676 211.349H93.8436C93.7236 212.077 93.3876 212.661 92.8356 213.101C92.2916 213.541 91.6036 213.761 90.7716 213.761C90.1476 213.761 89.5916 213.629 89.1036 213.365C88.6236 213.093 88.2476 212.705 87.9756 212.201C87.7036 211.689 87.5676 211.089 87.5676 210.401C87.5676 209.713 87.7036 209.117 87.9756 208.613C88.2476 208.101 88.6236 207.713 89.1036 207.449C89.5916 207.177 90.1476 207.041 90.7716 207.041ZM101.449 212.933V213.677H100.669C100.037 213.677 99.5654 213.529 99.2534 213.233C98.9414 212.929 98.7854 212.421 98.7854 211.709V207.857H97.7894V207.125H98.7854V205.469H99.6374V207.125H101.437V207.857H99.6374V211.721C99.6374 212.185 99.7214 212.505 99.8894 212.681C100.057 212.849 100.353 212.933 100.777 212.933H101.449ZM105.797 207.041C106.421 207.041 106.977 207.177 107.465 207.449C107.961 207.713 108.349 208.101 108.629 208.613C108.909 209.117 109.049 209.713 109.049 210.401C109.049 211.089 108.909 211.685 108.629 212.189C108.349 212.693 107.961 213.081 107.465 213.353C106.977 213.625 106.421 213.761 105.797 213.761C105.173 213.761 104.613 213.625 104.117 213.353C103.621 213.081 103.229 212.693 102.941 212.189C102.661 211.677 102.521 211.081 102.521 210.401C102.521 209.713 102.661 209.117 102.941 208.613C103.229 208.101 103.621 207.713 104.117 207.449C104.613 207.177 105.173 207.041 105.797 207.041ZM105.797 207.773C105.365 207.773 104.965 207.869 104.597 208.061C104.229 208.253 103.933 208.549 103.709 208.949C103.485 209.341 103.373 209.825 103.373 210.401C103.373 210.977 103.485 211.461 103.709 211.853C103.933 212.245 104.229 212.537 104.597 212.729C104.965 212.921 105.365 213.017 105.797 213.017C106.221 213.017 106.613 212.921 106.973 212.729C107.341 212.537 107.637 212.245 107.861 211.853C108.085 211.461 108.197 210.977 108.197 210.401C108.197 209.825 108.085 209.341 107.861 208.949C107.637 208.549 107.341 208.253 106.973 208.061C106.613 207.869 106.221 207.773 105.797 207.773ZM113.481 205.181C113.481 205.005 113.537 204.865 113.649 204.761C113.769 204.657 113.921 204.605 114.105 204.605C114.289 204.605 114.437 204.657 114.549 204.761C114.661 204.865 114.717 205.005 114.717 205.181C114.717 205.349 114.661 205.485 114.549 205.589C114.437 205.693 114.289 205.745 114.105 205.745C113.921 205.745 113.769 205.693 113.649 205.589C113.537 205.485 113.481 205.349 113.481 205.181ZM114.525 207.125V213.677H113.673V207.125H114.525ZM119.62 207.005C120.38 207.005 120.996 207.249 121.468 207.737C121.948 208.217 122.188 208.925 122.188 209.861V213.677H121.36V209.921C121.36 209.209 121.18 208.665 120.82 208.289C120.46 207.905 119.968 207.713 119.344 207.713C118.688 207.713 118.164 207.925 117.772 208.349C117.388 208.765 117.196 209.381 117.196 210.197V213.677H116.344V207.125H117.196V208.733C117.364 208.173 117.668 207.745 118.108 207.449C118.548 207.153 119.052 207.005 119.62 207.005ZM126.854 207.041C127.686 207.041 128.374 207.261 128.918 207.701C129.47 208.141 129.806 208.725 129.926 209.453H129.05C128.962 208.933 128.718 208.525 128.318 208.229C127.918 207.925 127.426 207.773 126.842 207.773C126.418 207.773 126.026 207.869 125.666 208.061C125.314 208.253 125.03 208.549 124.814 208.949C124.606 209.341 124.502 209.825 124.502 210.401C124.502 210.977 124.606 211.465 124.814 211.865C125.03 212.257 125.314 212.549 125.666 212.741C126.026 212.933 126.418 213.029 126.842 213.029C127.426 213.029 127.918 212.881 128.318 212.585C128.718 212.281 128.962 211.869 129.05 211.349H129.926C129.806 212.077 129.47 212.661 128.918 213.101C128.374 213.541 127.686 213.761 126.854 213.761C126.23 213.761 125.674 213.629 125.186 213.365C124.706 213.093 124.33 212.705 124.058 212.201C123.786 211.689 123.65 211.089 123.65 210.401C123.65 209.713 123.786 209.117 124.058 208.613C124.33 208.101 124.706 207.713 125.186 207.449C125.674 207.177 126.23 207.041 126.854 207.041ZM134.294 213.065C134.886 213.065 135.382 212.917 135.782 212.621C136.182 212.325 136.422 211.925 136.502 211.421H137.39C137.27 212.117 136.938 212.681 136.394 213.113C135.85 213.545 135.162 213.761 134.33 213.761C133.706 213.761 133.15 213.629 132.662 213.365C132.182 213.093 131.806 212.705 131.534 212.201C131.262 211.689 131.126 211.089 131.126 210.401C131.126 209.713 131.262 209.117 131.534 208.613C131.806 208.101 132.182 207.713 132.662 207.449C133.15 207.177 133.706 207.041 134.33 207.041C134.97 207.041 135.522 207.177 135.986 207.449C136.458 207.713 136.814 208.069 137.054 208.517C137.302 208.965 137.426 209.453 137.426 209.981C137.426 210.205 137.41 210.409 137.378 210.593H131.954C131.962 211.145 132.074 211.609 132.29 211.985C132.514 212.353 132.802 212.625 133.154 212.801C133.506 212.977 133.886 213.065 134.294 213.065ZM134.33 207.725C133.906 207.725 133.518 207.813 133.166 207.989C132.814 208.165 132.526 208.437 132.302 208.805C132.086 209.165 131.97 209.617 131.954 210.161H136.586C136.618 209.625 136.53 209.173 136.322 208.805C136.114 208.437 135.834 208.165 135.482 207.989C135.13 207.813 134.746 207.725 134.33 207.725ZM142.214 207.005C142.974 207.005 143.59 207.249 144.062 207.737C144.542 208.217 144.782 208.925 144.782 209.861V213.677H143.954V209.921C143.954 209.209 143.774 208.665 143.414 208.289C143.054 207.905 142.562 207.713 141.938 207.713C141.282 207.713 140.758 207.925 140.366 208.349C139.982 208.765 139.79 209.381 139.79 210.197V213.677H138.938V207.125H139.79V208.733C139.958 208.173 140.262 207.745 140.702 207.449C141.142 207.153 141.646 207.005 142.214 207.005ZM149.531 212.933V213.677H148.751C148.119 213.677 147.647 213.529 147.335 213.233C147.023 212.929 146.867 212.421 146.867 211.709V207.857H145.871V207.125H146.867V205.469H147.719V207.125H149.519V207.857H147.719V211.721C147.719 212.185 147.803 212.505 147.971 212.681C148.139 212.849 148.435 212.933 148.859 212.933H149.531ZM150.723 205.181C150.723 205.005 150.779 204.865 150.891 204.761C151.011 204.657 151.163 204.605 151.347 204.605C151.531 204.605 151.679 204.657 151.791 204.761C151.903 204.865 151.959 205.005 151.959 205.181C151.959 205.349 151.903 205.485 151.791 205.589C151.679 205.693 151.531 205.745 151.347 205.745C151.163 205.745 151.011 205.693 150.891 205.589C150.779 205.485 150.723 205.349 150.723 205.181ZM151.767 207.125V213.677H150.915V207.125H151.767ZM156.011 212.729L158.207 207.125H159.119L156.479 213.677H155.519L152.879 207.125H153.791L156.011 212.729ZM160.039 205.181C160.039 205.005 160.095 204.865 160.207 204.761C160.327 204.657 160.479 204.605 160.663 204.605C160.847 204.605 160.995 204.657 161.107 204.761C161.219 204.865 161.275 205.005 161.275 205.181C161.275 205.349 161.219 205.485 161.107 205.589C160.995 205.693 160.847 205.745 160.663 205.745C160.479 205.745 160.327 205.693 160.207 205.589C160.095 205.485 160.039 205.349 160.039 205.181ZM161.083 207.125V213.677H160.231V207.125H161.083ZM164.883 207.041C165.595 207.041 166.167 207.229 166.599 207.605C167.031 207.981 167.295 208.489 167.391 209.129H166.587C166.539 208.705 166.363 208.357 166.059 208.085C165.763 207.805 165.363 207.665 164.859 207.665C164.427 207.665 164.087 207.773 163.839 207.989C163.599 208.197 163.479 208.477 163.479 208.829C163.479 209.093 163.555 209.305 163.707 209.465C163.867 209.625 164.063 209.749 164.295 209.837C164.527 209.917 164.839 210.001 165.231 210.089C165.711 210.201 166.095 210.317 166.383 210.437C166.679 210.549 166.931 210.729 167.139 210.977C167.347 211.225 167.451 211.561 167.451 211.985C167.451 212.505 167.255 212.933 166.863 213.269C166.479 213.597 165.967 213.761 165.327 213.761C164.575 213.761 163.959 213.577 163.479 213.209C162.999 212.833 162.715 212.321 162.627 211.673H163.443C163.491 212.105 163.679 212.457 164.007 212.729C164.335 213.001 164.779 213.137 165.339 213.137C165.755 213.137 166.079 213.029 166.311 212.813C166.543 212.597 166.659 212.317 166.659 211.973C166.659 211.693 166.579 211.469 166.419 211.301C166.259 211.133 166.059 211.009 165.819 210.929C165.587 210.841 165.267 210.749 164.859 210.653C164.387 210.541 164.007 210.429 163.719 210.317C163.439 210.205 163.199 210.033 162.999 209.801C162.799 209.561 162.699 209.237 162.699 208.829C162.699 208.293 162.895 207.861 163.287 207.533C163.679 207.205 164.211 207.041 164.883 207.041ZM171.841 213.065C172.433 213.065 172.929 212.917 173.329 212.621C173.729 212.325 173.969 211.925 174.049 211.421H174.937C174.817 212.117 174.485 212.681 173.941 213.113C173.397 213.545 172.709 213.761 171.877 213.761C171.253 213.761 170.697 213.629 170.209 213.365C169.729 213.093 169.353 212.705 169.081 212.201C168.809 211.689 168.673 211.089 168.673 210.401C168.673 209.713 168.809 209.117 169.081 208.613C169.353 208.101 169.729 207.713 170.209 207.449C170.697 207.177 171.253 207.041 171.877 207.041C172.517 207.041 173.069 207.177 173.533 207.449C174.005 207.713 174.361 208.069 174.601 208.517C174.849 208.965 174.973 209.453 174.973 209.981C174.973 210.205 174.957 210.409 174.925 210.593H169.501C169.509 211.145 169.621 211.609 169.837 211.985C170.061 212.353 170.349 212.625 170.701 212.801C171.053 212.977 171.433 213.065 171.841 213.065ZM171.877 207.725C171.453 207.725 171.065 207.813 170.713 207.989C170.361 208.165 170.073 208.437 169.849 208.805C169.633 209.165 169.517 209.617 169.501 210.161H174.133C174.165 209.625 174.077 209.173 173.869 208.805C173.661 208.437 173.381 208.165 173.029 207.989C172.677 207.813 172.293 207.725 171.877 207.725ZM183.106 207.041C183.706 207.041 184.234 207.177 184.69 207.449C185.154 207.713 185.514 208.101 185.77 208.613C186.034 209.117 186.166 209.713 186.166 210.401C186.166 211.081 186.034 211.677 185.77 212.189C185.514 212.693 185.154 213.081 184.69 213.353C184.226 213.625 183.698 213.761 183.106 213.761C182.434 213.761 181.866 213.589 181.402 213.245C180.938 212.901 180.618 212.445 180.442 211.877V216.773H179.602V207.125H180.442V208.925C180.618 208.357 180.938 207.901 181.402 207.557C181.866 207.213 182.434 207.041 183.106 207.041ZM182.878 207.785C182.414 207.785 181.994 207.893 181.618 208.109C181.25 208.325 180.962 208.633 180.754 209.033C180.546 209.425 180.442 209.881 180.442 210.401C180.442 210.921 180.546 211.381 180.754 211.781C180.962 212.173 181.25 212.477 181.618 212.693C181.994 212.909 182.414 213.017 182.878 213.017C183.622 213.017 184.214 212.785 184.654 212.321C185.094 211.849 185.314 211.209 185.314 210.401C185.314 209.593 185.094 208.957 184.654 208.493C184.214 208.021 183.622 207.785 182.878 207.785ZM190.641 207.041C191.265 207.041 191.821 207.177 192.309 207.449C192.805 207.713 193.193 208.101 193.473 208.613C193.753 209.117 193.893 209.713 193.893 210.401C193.893 211.089 193.753 211.685 193.473 212.189C193.193 212.693 192.805 213.081 192.309 213.353C191.821 213.625 191.265 213.761 190.641 213.761C190.017 213.761 189.457 213.625 188.961 213.353C188.465 213.081 188.073 212.693 187.785 212.189C187.505 211.677 187.365 211.081 187.365 210.401C187.365 209.713 187.505 209.117 187.785 208.613C188.073 208.101 188.465 207.713 188.961 207.449C189.457 207.177 190.017 207.041 190.641 207.041ZM190.641 207.773C190.209 207.773 189.809 207.869 189.441 208.061C189.073 208.253 188.777 208.549 188.553 208.949C188.329 209.341 188.217 209.825 188.217 210.401C188.217 210.977 188.329 211.461 188.553 211.853C188.777 212.245 189.073 212.537 189.441 212.729C189.809 212.921 190.209 213.017 190.641 213.017C191.065 213.017 191.457 212.921 191.817 212.729C192.185 212.537 192.481 212.245 192.705 211.853C192.929 211.461 193.041 210.977 193.041 210.401C193.041 209.825 192.929 209.341 192.705 208.949C192.481 208.549 192.185 208.253 191.817 208.061C191.457 207.869 191.065 207.773 190.641 207.773ZM198.363 207.041C198.987 207.041 199.543 207.177 200.031 207.449C200.527 207.713 200.915 208.101 201.195 208.613C201.475 209.117 201.615 209.713 201.615 210.401C201.615 211.089 201.475 211.685 201.195 212.189C200.915 212.693 200.527 213.081 200.031 213.353C199.543 213.625 198.987 213.761 198.363 213.761C197.739 213.761 197.179 213.625 196.683 213.353C196.187 213.081 195.795 212.693 195.507 212.189C195.227 211.677 195.087 211.081 195.087 210.401C195.087 209.713 195.227 209.117 195.507 208.613C195.795 208.101 196.187 207.713 196.683 207.449C197.179 207.177 197.739 207.041 198.363 207.041ZM198.363 207.773C197.931 207.773 197.531 207.869 197.163 208.061C196.795 208.253 196.499 208.549 196.275 208.949C196.051 209.341 195.939 209.825 195.939 210.401C195.939 210.977 196.051 211.461 196.275 211.853C196.499 212.245 196.795 212.537 197.163 212.729C197.531 212.921 197.931 213.017 198.363 213.017C198.787 213.017 199.179 212.921 199.539 212.729C199.907 212.537 200.203 212.245 200.427 211.853C200.651 211.461 200.763 210.977 200.763 210.401C200.763 209.825 200.651 209.341 200.427 208.949C200.203 208.549 199.907 208.253 199.539 208.061C199.179 207.869 198.787 207.773 198.363 207.773ZM203.974 204.797V213.677H203.122V204.797H203.974ZM18.3957 226.481C18.5877 226.009 18.8957 225.645 19.3197 225.389C19.7437 225.133 20.2597 225.005 20.8677 225.005V225.917H20.5917C19.9597 225.917 19.4357 226.089 19.0197 226.433C18.6037 226.769 18.3957 227.321 18.3957 228.089V231.677H17.5437V225.125H18.3957V226.481ZM24.8411 231.065C25.4331 231.065 25.9291 230.917 26.3291 230.621C26.7291 230.325 26.9691 229.925 27.0491 229.421H27.9371C27.8171 230.117 27.4851 230.681 26.9411 231.113C26.3971 231.545 25.7091 231.761 24.8771 231.761C24.2531 231.761 23.6971 231.629 23.2091 231.365C22.7291 231.093 22.3531 230.705 22.0811 230.201C21.8091 229.689 21.6731 229.089 21.6731 228.401C21.6731 227.713 21.8091 227.117 22.0811 226.613C22.3531 226.101 22.7291 225.713 23.2091 225.449C23.6971 225.177 24.2531 225.041 24.8771 225.041C25.5171 225.041 26.0691 225.177 26.5331 225.449C27.0051 225.713 27.3611 226.069 27.6011 226.517C27.8491 226.965 27.9731 227.453 27.9731 227.981C27.9731 228.205 27.9571 228.409 27.9251 228.593H22.5011C22.5091 229.145 22.6211 229.609 22.8371 229.985C23.0611 230.353 23.3491 230.625 23.7011 230.801C24.0531 230.977 24.4331 231.065 24.8411 231.065ZM24.8771 225.725C24.4531 225.725 24.0651 225.813 23.7131 225.989C23.3611 226.165 23.0731 226.437 22.8491 226.805C22.6331 227.165 22.5171 227.617 22.5011 228.161H27.1331C27.1651 227.625 27.0771 227.173 26.8691 226.805C26.6611 226.437 26.3811 226.165 26.0291 225.989C25.6771 225.813 25.2931 225.725 24.8771 225.725ZM32.9891 225.041C33.5891 225.041 34.1171 225.177 34.5731 225.449C35.0371 225.713 35.3971 226.101 35.6531 226.613C35.9171 227.117 36.0491 227.713 36.0491 228.401C36.0491 229.081 35.9171 229.677 35.6531 230.189C35.3971 230.693 35.0371 231.081 34.5731 231.353C34.1091 231.625 33.5811 231.761 32.9891 231.761C32.3171 231.761 31.7491 231.589 31.2851 231.245C30.8211 230.901 30.5011 230.445 30.3251 229.877V231.677H29.4851V222.797H30.3251V226.925C30.5011 226.357 30.8211 225.901 31.2851 225.557C31.7491 225.213 32.3171 225.041 32.9891 225.041ZM32.7611 225.785C32.2971 225.785 31.8771 225.893 31.5011 226.109C31.1331 226.325 30.8451 226.633 30.6371 227.033C30.4291 227.425 30.3251 227.881 30.3251 228.401C30.3251 228.921 30.4291 229.381 30.6371 229.781C30.8451 230.173 31.1331 230.477 31.5011 230.693C31.8771 230.909 32.2971 231.017 32.7611 231.017C33.5051 231.017 34.0971 230.785 34.5371 230.321C34.9771 229.849 35.1971 229.209 35.1971 228.401C35.1971 227.593 34.9771 226.957 34.5371 226.493C34.0971 226.021 33.5051 225.785 32.7611 225.785ZM40.3193 225.041C40.9833 225.041 41.5473 225.213 42.0113 225.557C42.4833 225.901 42.8073 226.357 42.9833 226.925V225.125H43.8113V231.677H42.9833V229.877C42.8073 230.445 42.4833 230.901 42.0113 231.245C41.5473 231.589 40.9833 231.761 40.3193 231.761C39.7273 231.761 39.1953 231.625 38.7233 231.353C38.2593 231.081 37.8953 230.693 37.6313 230.189C37.3753 229.677 37.2473 229.081 37.2473 228.401C37.2473 227.713 37.3753 227.117 37.6313 226.613C37.8953 226.101 38.2593 225.713 38.7233 225.449C39.1873 225.177 39.7193 225.041 40.3193 225.041ZM40.5353 225.785C39.7993 225.785 39.2073 226.021 38.7593 226.493C38.3193 226.957 38.0993 227.593 38.0993 228.401C38.0993 229.209 38.3193 229.849 38.7593 230.321C39.2073 230.785 39.7993 231.017 40.5353 231.017C40.9993 231.017 41.4153 230.909 41.7833 230.693C42.1593 230.477 42.4513 230.173 42.6593 229.781C42.8753 229.381 42.9833 228.921 42.9833 228.401C42.9833 227.881 42.8753 227.425 42.6593 227.033C42.4513 226.633 42.1593 226.325 41.7833 226.109C41.4153 225.893 40.9993 225.785 40.5353 225.785ZM46.4855 222.797V231.677H45.6335V222.797H46.4855ZM51.0654 225.041C51.7294 225.041 52.2934 225.213 52.7574 225.557C53.2294 225.901 53.5534 226.357 53.7294 226.925V225.125H54.5574V231.677H53.7294V229.877C53.5534 230.445 53.2294 230.901 52.7574 231.245C52.2934 231.589 51.7294 231.761 51.0654 231.761C50.4734 231.761 49.9414 231.625 49.4694 231.353C49.0054 231.081 48.6414 230.693 48.3774 230.189C48.1214 229.677 47.9934 229.081 47.9934 228.401C47.9934 227.713 48.1214 227.117 48.3774 226.613C48.6414 226.101 49.0054 225.713 49.4694 225.449C49.9334 225.177 50.4654 225.041 51.0654 225.041ZM51.2814 225.785C50.5454 225.785 49.9534 226.021 49.5054 226.493C49.0654 226.957 48.8454 227.593 48.8454 228.401C48.8454 229.209 49.0654 229.849 49.5054 230.321C49.9534 230.785 50.5454 231.017 51.2814 231.017C51.7454 231.017 52.1614 230.909 52.5294 230.693C52.9054 230.477 53.1974 230.173 53.4054 229.781C53.6214 229.381 53.7294 228.921 53.7294 228.401C53.7294 227.881 53.6214 227.425 53.4054 227.033C53.1974 226.633 52.9054 226.325 52.5294 226.109C52.1614 225.893 51.7454 225.785 51.2814 225.785ZM59.6556 225.005C60.4156 225.005 61.0316 225.249 61.5036 225.737C61.9836 226.217 62.2236 226.925 62.2236 227.861V231.677H61.3956V227.921C61.3956 227.209 61.2156 226.665 60.8556 226.289C60.4956 225.905 60.0036 225.713 59.3796 225.713C58.7236 225.713 58.1996 225.925 57.8076 226.349C57.4236 226.765 57.2316 227.381 57.2316 228.197V231.677H56.3796V225.125H57.2316V226.733C57.3996 226.173 57.7036 225.745 58.1436 225.449C58.5836 225.153 59.0876 225.005 59.6556 225.005ZM66.8888 225.041C67.7208 225.041 68.4088 225.261 68.9528 225.701C69.5048 226.141 69.8408 226.725 69.9608 227.453H69.0848C68.9968 226.933 68.7528 226.525 68.3528 226.229C67.9528 225.925 67.4608 225.773 66.8768 225.773C66.4528 225.773 66.0608 225.869 65.7008 226.061C65.3488 226.253 65.0648 226.549 64.8488 226.949C64.6408 227.341 64.5368 227.825 64.5368 228.401C64.5368 228.977 64.6408 229.465 64.8488 229.865C65.0648 230.257 65.3488 230.549 65.7008 230.741C66.0608 230.933 66.4528 231.029 66.8768 231.029C67.4608 231.029 67.9528 230.881 68.3528 230.585C68.7528 230.281 68.9968 229.869 69.0848 229.349H69.9608C69.8408 230.077 69.5048 230.661 68.9528 231.101C68.4088 231.541 67.7208 231.761 66.8888 231.761C66.2648 231.761 65.7088 231.629 65.2208 231.365C64.7408 231.093 64.3648 230.705 64.0928 230.201C63.8208 229.689 63.6848 229.089 63.6848 228.401C63.6848 227.713 63.8208 227.117 64.0928 226.613C64.3648 226.101 64.7408 225.713 65.2208 225.449C65.7088 225.177 66.2648 225.041 66.8888 225.041ZM71.2814 223.181C71.2814 223.005 71.3374 222.865 71.4494 222.761C71.5694 222.657 71.7214 222.605 71.9054 222.605C72.0894 222.605 72.2374 222.657 72.3494 222.761C72.4614 222.865 72.5174 223.005 72.5174 223.181C72.5174 223.349 72.4614 223.485 72.3494 223.589C72.2374 223.693 72.0894 223.745 71.9054 223.745C71.7214 223.745 71.5694 223.693 71.4494 223.589C71.3374 223.485 71.2814 223.349 71.2814 223.181ZM72.3254 225.125V231.677H71.4734V225.125H72.3254ZM77.4213 225.005C78.1813 225.005 78.7973 225.249 79.2693 225.737C79.7493 226.217 79.9893 226.925 79.9893 227.861V231.677H79.1613V227.921C79.1613 227.209 78.9813 226.665 78.6213 226.289C78.2613 225.905 77.7693 225.713 77.1453 225.713C76.4893 225.713 75.9653 225.925 75.5733 226.349C75.1893 226.765 74.9973 227.381 74.9973 228.197V231.677H74.1453V225.125H74.9973V226.733C75.1653 226.173 75.4693 225.745 75.9093 225.449C76.3493 225.153 76.8533 225.005 77.4213 225.005ZM84.5224 225.041C85.1864 225.041 85.7504 225.213 86.2144 225.557C86.6864 225.901 87.0104 226.357 87.1864 226.925V225.125H88.0144V231.833C88.0144 232.441 87.8864 232.973 87.6304 233.429C87.3744 233.893 87.0184 234.249 86.5624 234.497C86.1064 234.753 85.5864 234.881 85.0024 234.881C84.1464 234.881 83.4424 234.673 82.8904 234.257C82.3464 233.849 81.9904 233.293 81.8224 232.589H82.6624C82.8064 233.069 83.0704 233.449 83.4544 233.729C83.8464 234.009 84.3464 234.149 84.9544 234.149C85.3704 234.149 85.7464 234.057 86.0824 233.873C86.4264 233.697 86.6944 233.433 86.8864 233.081C87.0864 232.729 87.1864 232.313 87.1864 231.833V229.877C87.0104 230.445 86.6864 230.901 86.2144 231.245C85.7504 231.589 85.1864 231.761 84.5224 231.761C83.9304 231.761 83.3984 231.625 82.9264 231.353C82.4624 231.081 82.0984 230.693 81.8344 230.189C81.5784 229.677 81.4504 229.081 81.4504 228.401C81.4504 227.713 81.5784 227.117 81.8344 226.613C82.0984 226.101 82.4624 225.713 82.9264 225.449C83.3904 225.177 83.9224 225.041 84.5224 225.041ZM84.7384 225.785C84.0024 225.785 83.4104 226.021 82.9624 226.493C82.5224 226.957 82.3024 227.593 82.3024 228.401C82.3024 229.209 82.5224 229.849 82.9624 230.321C83.4104 230.785 84.0024 231.017 84.7384 231.017C85.2024 231.017 85.6184 230.909 85.9864 230.693C86.3624 230.477 86.6544 230.173 86.8624 229.781C87.0784 229.381 87.1864 228.921 87.1864 228.401C87.1864 227.881 87.0784 227.425 86.8624 227.033C86.6544 226.633 86.3624 226.325 85.9864 226.109C85.6184 225.893 85.2024 225.785 84.7384 225.785ZM92.7619 223.181C92.7619 223.005 92.8179 222.865 92.9299 222.761C93.0499 222.657 93.2019 222.605 93.3859 222.605C93.5699 222.605 93.7179 222.657 93.8299 222.761C93.9419 222.865 93.9979 223.005 93.9979 223.181C93.9979 223.349 93.9419 223.485 93.8299 223.589C93.7179 223.693 93.5699 223.745 93.3859 223.745C93.2019 223.745 93.0499 223.693 92.9299 223.589C92.8179 223.485 92.7619 223.349 92.7619 223.181ZM93.8059 225.125V231.677H92.9539V225.125H93.8059ZM98.9017 225.005C99.6617 225.005 100.278 225.249 100.75 225.737C101.23 226.217 101.47 226.925 101.47 227.861V231.677H100.642V227.921C100.642 227.209 100.462 226.665 100.102 226.289C99.7417 225.905 99.2497 225.713 98.6257 225.713C97.9697 225.713 97.4457 225.925 97.0537 226.349C96.6697 226.765 96.4777 227.381 96.4777 228.197V231.677H95.6257V225.125H96.4777V226.733C96.6457 226.173 96.9497 225.745 97.3897 225.449C97.8297 225.153 98.3337 225.005 98.9017 225.005ZM107.212 222.797V231.677H106.36V222.797H107.212ZM108.84 223.181C108.84 223.005 108.896 222.865 109.008 222.761C109.128 222.657 109.28 222.605 109.464 222.605C109.648 222.605 109.796 222.657 109.908 222.761C110.02 222.865 110.076 223.005 110.076 223.181C110.076 223.349 110.02 223.485 109.908 223.589C109.796 223.693 109.648 223.745 109.464 223.745C109.28 223.745 109.128 223.693 109.008 223.589C108.896 223.485 108.84 223.349 108.84 223.181ZM109.884 225.125V231.677H109.032V225.125H109.884ZM114.98 225.005C115.74 225.005 116.356 225.249 116.828 225.737C117.308 226.217 117.548 226.925 117.548 227.861V231.677H116.72V227.921C116.72 227.209 116.54 226.665 116.18 226.289C115.82 225.905 115.328 225.713 114.704 225.713C114.048 225.713 113.524 225.925 113.132 226.349C112.748 226.765 112.556 227.381 112.556 228.197V231.677H111.704V225.125H112.556V226.733C112.724 226.173 113.028 225.745 113.468 225.449C113.908 225.153 114.412 225.005 114.98 225.005ZM122.177 231.065C122.769 231.065 123.265 230.917 123.665 230.621C124.065 230.325 124.305 229.925 124.385 229.421H125.273C125.153 230.117 124.821 230.681 124.277 231.113C123.733 231.545 123.045 231.761 122.213 231.761C121.589 231.761 121.033 231.629 120.545 231.365C120.065 231.093 119.689 230.705 119.417 230.201C119.145 229.689 119.009 229.089 119.009 228.401C119.009 227.713 119.145 227.117 119.417 226.613C119.689 226.101 120.065 225.713 120.545 225.449C121.033 225.177 121.589 225.041 122.213 225.041C122.853 225.041 123.405 225.177 123.869 225.449C124.341 225.713 124.697 226.069 124.937 226.517C125.185 226.965 125.309 227.453 125.309 227.981C125.309 228.205 125.293 228.409 125.261 228.593H119.837C119.845 229.145 119.957 229.609 120.173 229.985C120.397 230.353 120.685 230.625 121.037 230.801C121.389 230.977 121.769 231.065 122.177 231.065ZM122.213 225.725C121.789 225.725 121.401 225.813 121.049 225.989C120.697 226.165 120.409 226.437 120.185 226.805C119.969 227.165 119.853 227.617 119.837 228.161H124.469C124.501 227.625 124.413 227.173 124.205 226.805C123.997 226.437 123.717 226.165 123.365 225.989C123.013 225.813 122.629 225.725 122.213 225.725ZM138.794 225.125L136.862 231.677H135.974L134.006 226.109L132.014 231.677H131.138L129.206 225.125H130.058L131.618 230.801L133.586 225.125H134.45L136.43 230.801L137.978 225.125H138.794ZM139.684 223.181C139.684 223.005 139.74 222.865 139.852 222.761C139.972 222.657 140.124 222.605 140.308 222.605C140.492 222.605 140.64 222.657 140.752 222.761C140.864 222.865 140.92 223.005 140.92 223.181C140.92 223.349 140.864 223.485 140.752 223.589C140.64 223.693 140.492 223.745 140.308 223.745C140.124 223.745 139.972 223.693 139.852 223.589C139.74 223.485 139.684 223.349 139.684 223.181ZM140.728 225.125V231.677H139.876V225.125H140.728ZM145.524 230.933V231.677H144.744C144.112 231.677 143.64 231.529 143.328 231.233C143.016 230.929 142.86 230.421 142.86 229.709V225.857H141.864V225.125H142.86V223.469H143.712V225.125H145.512V225.857H143.712V229.721C143.712 230.185 143.796 230.505 143.964 230.681C144.132 230.849 144.428 230.933 144.852 230.933H145.524ZM150.183 225.005C150.943 225.005 151.559 225.249 152.031 225.737C152.511 226.217 152.751 226.925 152.751 227.861V231.677H151.923V227.921C151.923 227.209 151.743 226.665 151.383 226.289C151.023 225.905 150.531 225.713 149.907 225.713C149.251 225.713 148.727 225.925 148.335 226.349C147.951 226.765 147.759 227.381 147.759 228.197V231.677H146.907V222.797H147.759V226.733C147.927 226.173 148.231 225.745 148.671 225.449C149.111 225.153 149.615 225.005 150.183 225.005ZM162.177 231.677L159.861 228.149H158.493V231.677H157.641V223.217H160.233C161.185 223.217 161.893 223.441 162.357 223.889C162.829 224.337 163.065 224.941 163.065 225.701C163.065 226.405 162.865 226.965 162.465 227.381C162.073 227.797 161.501 228.045 160.749 228.125L163.137 231.677H162.177ZM158.493 227.513H160.173C161.533 227.513 162.213 226.925 162.213 225.749C162.213 224.549 161.533 223.949 160.173 223.949H158.493V227.513ZM165.325 223.901V227.093H168.625V227.753H165.325V230.981H168.985V231.677H164.473V223.217H168.985V223.901H165.325ZM171.302 223.217V231.677H170.45V223.217H171.302ZM176.938 223.145C177.898 223.145 178.71 223.385 179.374 223.865C180.038 224.345 180.494 224.997 180.742 225.821H179.866C179.65 225.253 179.282 224.793 178.762 224.441C178.25 224.089 177.642 223.913 176.938 223.913C176.33 223.913 175.778 224.057 175.282 224.345C174.794 224.633 174.41 225.045 174.13 225.581C173.85 226.117 173.71 226.741 173.71 227.453C173.71 228.181 173.85 228.813 174.13 229.349C174.418 229.885 174.81 230.297 175.306 230.585C175.81 230.873 176.382 231.017 177.022 231.017C177.59 231.017 178.11 230.893 178.582 230.645C179.054 230.389 179.434 230.021 179.722 229.541C180.018 229.061 180.19 228.497 180.238 227.849H176.722V227.213H180.97V227.957C180.914 228.677 180.71 229.325 180.358 229.901C180.014 230.477 179.546 230.933 178.954 231.269C178.37 231.597 177.702 231.761 176.95 231.761C176.15 231.761 175.438 231.581 174.814 231.221C174.19 230.853 173.706 230.341 173.362 229.685C173.018 229.029 172.846 228.285 172.846 227.453C172.846 226.621 173.018 225.877 173.362 225.221C173.706 224.565 174.186 224.057 174.802 223.697C175.426 223.329 176.138 223.145 176.938 223.145ZM188.845 231.677H187.993L183.361 224.609V231.677H182.509V223.229H183.361L187.993 230.309V223.229H188.845V231.677ZM196.206 230.729L198.402 225.125H199.314L196.674 231.677H195.714L193.074 225.125H193.986L196.206 230.729ZM203.391 225.041C204.015 225.041 204.571 225.177 205.059 225.449C205.555 225.713 205.943 226.101 206.223 226.613C206.503 227.117 206.643 227.713 206.643 228.401C206.643 229.089 206.503 229.685 206.223 230.189C205.943 230.693 205.555 231.081 205.059 231.353C204.571 231.625 204.015 231.761 203.391 231.761C202.767 231.761 202.207 231.625 201.711 231.353C201.215 231.081 200.823 230.693 200.535 230.189C200.255 229.677 200.115 229.081 200.115 228.401C200.115 227.713 200.255 227.117 200.535 226.613C200.823 226.101 201.215 225.713 201.711 225.449C202.207 225.177 202.767 225.041 203.391 225.041ZM203.391 225.773C202.959 225.773 202.559 225.869 202.191 226.061C201.823 226.253 201.527 226.549 201.303 226.949C201.079 227.341 200.967 227.825 200.967 228.401C200.967 228.977 201.079 229.461 201.303 229.853C201.527 230.245 201.823 230.537 202.191 230.729C202.559 230.921 202.959 231.017 203.391 231.017C203.815 231.017 204.207 230.921 204.567 230.729C204.935 230.537 205.231 230.245 205.455 229.853C205.679 229.461 205.791 228.977 205.791 228.401C205.791 227.825 205.679 227.341 205.455 226.949C205.231 226.549 204.935 226.253 204.567 226.061C204.207 225.869 203.815 225.773 203.391 225.773ZM211.125 230.933V231.677H210.345C209.713 231.677 209.241 231.529 208.929 231.233C208.617 230.929 208.461 230.421 208.461 229.709V225.857H207.465V225.125H208.461V223.469H209.313V225.125H211.113V225.857H209.313V229.721C209.313 230.185 209.397 230.505 209.565 230.681C209.733 230.849 210.029 230.933 210.453 230.933H211.125ZM212.317 223.181C212.317 223.005 212.373 222.865 212.485 222.761C212.605 222.657 212.757 222.605 212.941 222.605C213.125 222.605 213.273 222.657 213.385 222.761C213.497 222.865 213.553 223.005 213.553 223.181C213.553 223.349 213.497 223.485 213.385 223.589C213.273 223.693 213.125 223.745 212.941 223.745C212.757 223.745 212.605 223.693 212.485 223.589C212.373 223.485 212.317 223.349 212.317 223.181ZM213.361 225.125V231.677H212.509V225.125H213.361ZM218.456 225.005C219.216 225.005 219.832 225.249 220.304 225.737C220.784 226.217 221.024 226.925 221.024 227.861V231.677H220.196V227.921C220.196 227.209 220.016 226.665 219.656 226.289C219.296 225.905 218.804 225.713 218.18 225.713C217.524 225.713 217 225.925 216.608 226.349C216.224 226.765 216.032 227.381 216.032 228.197V231.677H215.18V225.125H216.032V226.733C216.2 226.173 216.504 225.745 216.944 225.449C217.384 225.153 217.888 225.005 218.456 225.005ZM225.558 225.041C226.222 225.041 226.786 225.213 227.25 225.557C227.722 225.901 228.046 226.357 228.222 226.925V225.125H229.05V231.833C229.05 232.441 228.922 232.973 228.666 233.429C228.41 233.893 228.054 234.249 227.598 234.497C227.142 234.753 226.622 234.881 226.038 234.881C225.182 234.881 224.478 234.673 223.926 234.257C223.382 233.849 223.026 233.293 222.858 232.589H223.698C223.842 233.069 224.106 233.449 224.49 233.729C224.882 234.009 225.382 234.149 225.99 234.149C226.406 234.149 226.782 234.057 227.118 233.873C227.462 233.697 227.73 233.433 227.922 233.081C228.122 232.729 228.222 232.313 228.222 231.833V229.877C228.046 230.445 227.722 230.901 227.25 231.245C226.786 231.589 226.222 231.761 225.558 231.761C224.966 231.761 224.434 231.625 223.962 231.353C223.498 231.081 223.134 230.693 222.87 230.189C222.614 229.677 222.486 229.081 222.486 228.401C222.486 227.713 222.614 227.117 222.87 226.613C223.134 226.101 223.498 225.713 223.962 225.449C224.426 225.177 224.958 225.041 225.558 225.041ZM225.774 225.785C225.038 225.785 224.446 226.021 223.998 226.493C223.558 226.957 223.338 227.593 223.338 228.401C223.338 229.209 223.558 229.849 223.998 230.321C224.446 230.785 225.038 231.017 225.774 231.017C226.238 231.017 226.654 230.909 227.022 230.693C227.398 230.477 227.69 230.173 227.898 229.781C228.114 229.381 228.222 228.921 228.222 228.401C228.222 227.881 228.114 227.425 227.898 227.033C227.69 226.633 227.398 226.325 227.022 226.109C226.654 225.893 226.238 225.785 225.774 225.785Z" fill="white"/>
<defs>
<linearGradient id="paint0_linear" x1="215.305" y1="170.439" x2="26.2053" y2="170.628" gradientUnits="userSpaceOnUse">
<stop stop-color="#FF168A"/>
<stop offset="0.315399" stop-color="#FABA33"/>
<stop offset="0.573227" stop-color="#E9E031"/>
<stop offset="0.826995" stop-color="#45F273"/>
<stop offset="1" stop-color="#30FFE9"/>
</linearGradient>
</defs>
</svg>
