<svg width="344" height="349" viewBox="0 0 344 349" fill="none" xmlns="http://www.w3.org/2000/svg">
<g filter="url(#filter0_f)">
<path d="M51.9181 84.5139L51.9181 77.0139L51.9181 84.5139ZM314.418 114.514V297.123H329.418V114.514H314.418ZM291.918 319.623H51.9181V334.623H291.918V319.623ZM29.4181 297.123V114.514H14.4181V297.123H29.4181ZM51.9181 92.0139L94.3292 92.0139L94.3291 77.0139L51.9181 77.0139L51.9181 92.0139ZM249.628 92.0139H291.918V77.0139H249.628V92.0139ZM51.9181 319.623C39.4917 319.623 29.4181 309.549 29.4181 297.123H14.4181C14.4181 317.833 31.2074 334.623 51.9181 334.623V319.623ZM314.418 297.123C314.418 309.549 304.344 319.623 291.918 319.623V334.623C312.629 334.623 329.418 317.833 329.418 297.123H314.418ZM329.418 114.514C329.418 93.8033 312.629 77.0139 291.918 77.0139V92.0139C304.344 92.0139 314.418 102.088 314.418 114.514H329.418ZM29.4181 114.514C29.4181 102.088 39.4917 92.0139 51.9181 92.0139L51.9181 77.0139C31.2074 77.0139 14.4181 93.8033 14.4181 114.514H29.4181Z" fill="url(#paint0_linear)"/>
</g>
<g filter="url(#filter1_f)">
<circle cx="94.2837" cy="84.5138" r="3.12549" fill="#48F272"/>
</g>
<g filter="url(#filter2_f)">
<circle cx="249.746" cy="84.5138" r="3.12549" fill="#FD6461"/>
</g>
<g filter="url(#filter3_f)">
<path d="M51.9181 83.2636L51.9181 80.2636L51.9181 83.2636ZM318.918 113.264V295.872H324.918V113.264H318.918ZM291.918 322.872H51.9181V328.872H291.918V322.872ZM24.9181 295.872V113.264H18.9181V295.872H24.9181ZM51.9181 86.2636L94.3291 86.2635L94.3291 80.2635L51.9181 80.2636L51.9181 86.2636ZM249.628 86.2636H291.918V80.2636H249.628V86.2636ZM51.9181 322.872C37.0064 322.872 24.9181 310.784 24.9181 295.872H18.9181C18.9181 314.098 33.6927 328.872 51.9181 328.872V322.872ZM318.918 295.872C318.918 310.784 306.83 322.872 291.918 322.872V328.872C310.143 328.872 324.918 314.098 324.918 295.872H318.918ZM324.918 113.264C324.918 95.0382 310.143 80.2636 291.918 80.2636V86.2636C306.83 86.2636 318.918 98.3519 318.918 113.264H324.918ZM24.9181 113.264C24.9181 98.3519 37.0064 86.2636 51.9181 86.2636L51.9181 80.2636C33.6927 80.2636 18.9181 95.0382 18.9181 113.264H24.9181Z" fill="url(#paint1_linear)"/>
</g>
<g filter="url(#filter4_f)">
<circle cx="94.3443" cy="83.2636" r="1.8753" fill="#48F272"/>
</g>
<g filter="url(#filter5_f)">
<circle cx="249.618" cy="83.2636" r="1.8753" fill="#FD6461"/>
</g>
<path d="M51.9181 83.2637L51.9181 82.2637L51.9181 83.2637ZM320.918 113.264V295.872H322.918V113.264H320.918ZM291.918 324.872H51.9181V326.872H291.918V324.872ZM22.9181 295.872V113.264H20.9181V295.872H22.9181ZM51.9181 84.2637L94.3291 84.2637L94.3291 82.2637L51.9181 82.2637L51.9181 84.2637ZM249.628 84.2637H291.918V82.2637H249.628V84.2637ZM51.9181 324.872C35.9018 324.872 22.9181 311.889 22.9181 295.872H20.9181C20.9181 312.993 34.7973 326.872 51.9181 326.872V324.872ZM320.918 295.872C320.918 311.889 307.934 324.872 291.918 324.872V326.872C309.039 326.872 322.918 312.993 322.918 295.872H320.918ZM322.918 113.264C322.918 96.1429 309.039 82.2637 291.918 82.2637V84.2637C307.934 84.2637 320.918 97.2474 320.918 113.264H322.918ZM22.9181 113.264C22.9181 97.2474 35.9018 84.2637 51.9181 84.2637L51.9181 82.2637C34.7973 82.2637 20.9181 96.1429 20.9181 113.264H22.9181Z" fill="white"/>
<circle cx="94.3442" cy="83.2637" r="1" fill="white"/>
<circle cx="249.618" cy="83.2637" r="1" fill="white"/>
<path fill-rule="evenodd" clip-rule="evenodd" d="M218.016 62.5555C217.509 62.0472 217.195 61.3456 217.195 60.5706C217.195 59.0189 218.453 57.761 220.005 57.761C221.557 57.761 222.815 59.0189 222.815 60.5706C222.815 62.1224 221.557 63.3803 220.005 63.3803C219.951 63.3803 219.898 63.3788 219.845 63.3758L193.125 113.672C193.262 114.003 193.338 114.365 193.338 114.746C193.338 116.298 192.08 117.555 190.528 117.555C188.977 117.555 187.719 116.298 187.719 114.746C187.719 114.476 187.757 114.216 187.827 113.969L151.721 63.7347C151.286 64.0115 150.769 64.1718 150.215 64.1718C149.964 64.1718 149.72 64.1389 149.489 64.077L124.383 114.289C124.843 114.789 125.124 115.457 125.124 116.19C125.124 117.742 123.866 119 122.314 119C120.762 119 119.505 117.742 119.505 116.19C119.505 114.639 120.762 113.381 122.314 113.381C122.409 113.381 122.502 113.385 122.594 113.394L147.851 62.8807C147.569 62.4428 147.406 61.9216 147.406 61.3622C147.406 59.8105 148.663 58.5525 150.215 58.5525C151.767 58.5525 153.025 59.8105 153.025 61.3622C153.025 61.5916 152.997 61.8145 152.946 62.0279C152.997 62.0894 153.048 62.1536 153.096 62.2205L189.106 112.322C189.523 112.077 190.009 111.936 190.528 111.936C190.93 111.936 191.312 112.02 191.657 112.172L218.016 62.5555ZM161.585 40.9399L150.265 14.8599C150.065 14.4199 149.825 14.0999 149.265 14.0999C148.705 14.0999 148.465 14.4199 148.265 14.8599L136.945 40.9399C136.905 41.0599 136.865 41.2199 136.865 41.3799C136.865 41.8999 137.305 42.3799 137.865 42.3799C138.305 42.3799 138.665 42.0599 138.825 41.7399L142.225 33.9399H156.305L159.705 41.7399C159.865 42.0599 160.225 42.3799 160.665 42.3799C161.225 42.3799 161.665 41.8999 161.665 41.3799C161.665 41.2199 161.625 41.0599 161.585 40.9399ZM142.945 32.2199L149.265 17.6599L155.585 32.2199H142.945ZM173.882 14.2199H166.562C165.922 14.2199 165.482 14.6599 165.482 15.2999V41.2999C165.482 41.8599 165.922 42.3399 166.522 42.3399C167.082 42.3399 167.522 41.8599 167.522 41.2999V31.3399H173.882C180.122 31.3399 183.962 28.1399 183.962 22.6999C183.962 17.6599 180.122 14.2199 173.882 14.2199ZM173.882 29.5399H167.522V16.0199H173.882C178.962 16.0199 181.962 18.6199 181.962 22.6999C181.962 27.1799 178.962 29.5399 173.882 29.5399ZM205.766 14.1399C205.446 14.1399 205.126 14.2999 204.926 14.6199L196.246 27.1799L187.566 14.6199C187.366 14.2999 187.046 14.1399 186.726 14.1399C186.166 14.1399 185.766 14.5399 185.766 15.0199C185.766 15.2199 185.846 15.4599 186.006 15.6999L195.206 28.9799V41.2999C195.206 41.8199 195.646 42.3399 196.246 42.3399C196.846 42.3399 197.286 41.8199 197.286 41.2999V28.9799L206.486 15.6999C206.646 15.4599 206.726 15.2199 206.726 15.0199C206.726 14.5399 206.326 14.1399 205.766 14.1399Z" fill="white"/>
<path d="M80.8395 167.405C80.8395 169.069 80.4795 170.549 79.7595 171.845C79.0555 173.125 78.0315 174.125 76.6875 174.845C75.3595 175.565 73.7915 175.925 71.9835 175.925H65.5755V158.957H71.9835C73.8075 158.957 75.3835 159.309 76.7115 160.013C78.0395 160.717 79.0555 161.709 79.7595 162.989C80.4795 164.269 80.8395 165.741 80.8395 167.405ZM71.6235 172.253C73.2235 172.253 74.4635 171.829 75.3435 170.981C76.2395 170.133 76.6875 168.941 76.6875 167.405C76.6875 165.869 76.2395 164.677 75.3435 163.829C74.4635 162.981 73.2235 162.557 71.6235 162.557H69.6795V172.253H71.6235ZM86.2731 162.533L89.4891 170.741L92.4891 162.533H97.0251L88.6731 182.309H84.1611L87.3051 175.421L81.6891 162.533H86.2731ZM106.884 162.389C108.42 162.389 109.636 162.901 110.532 163.925C111.444 164.949 111.9 166.357 111.9 168.149V175.925H107.796V168.629C107.796 167.733 107.556 167.037 107.076 166.541C106.612 166.029 105.988 165.773 105.204 165.773C104.372 165.773 103.708 166.037 103.212 166.565C102.732 167.093 102.492 167.845 102.492 168.821V175.925H98.388V162.533H102.492V164.981C102.876 164.181 103.444 163.549 104.196 163.085C104.964 162.621 105.86 162.389 106.884 162.389ZM119.695 162.365C120.719 162.365 121.599 162.597 122.335 163.061C123.071 163.525 123.615 164.157 123.967 164.957V162.533H128.047V175.925H123.967V173.501C123.615 174.301 123.071 174.933 122.335 175.397C121.599 175.861 120.719 176.093 119.695 176.093C118.591 176.093 117.599 175.821 116.719 175.277C115.855 174.717 115.167 173.917 114.655 172.877C114.159 171.837 113.911 170.621 113.911 169.229C113.911 167.821 114.159 166.605 114.655 165.581C115.167 164.541 115.855 163.749 116.719 163.205C117.599 162.645 118.591 162.365 119.695 162.365ZM121.015 165.965C120.135 165.965 119.423 166.253 118.879 166.829C118.351 167.405 118.087 168.205 118.087 169.229C118.087 170.253 118.351 171.053 118.879 171.629C119.423 172.205 120.135 172.493 121.015 172.493C121.879 172.493 122.583 172.197 123.127 171.605C123.687 171.013 123.967 170.221 123.967 169.229C123.967 168.221 123.687 167.429 123.127 166.853C122.583 166.261 121.879 165.965 121.015 165.965ZM148.224 162.389C149.872 162.389 151.168 162.901 152.112 163.925C153.056 164.933 153.528 166.341 153.528 168.149V175.925H149.448V168.629C149.448 167.781 149.216 167.125 148.752 166.661C148.304 166.181 147.688 165.941 146.904 165.941C146.088 165.941 145.44 166.197 144.96 166.709C144.496 167.205 144.264 167.909 144.264 168.821V175.925H140.16V168.629C140.16 167.781 139.936 167.125 139.488 166.661C139.04 166.181 138.424 165.941 137.64 165.941C136.824 165.941 136.176 166.189 135.696 166.685C135.216 167.181 134.976 167.893 134.976 168.821V175.925H130.872V162.533H134.976V164.813C135.328 164.061 135.864 163.469 136.584 163.037C137.32 162.605 138.176 162.389 139.152 162.389C140.176 162.389 141.08 162.629 141.864 163.109C142.648 163.573 143.24 164.245 143.64 165.125C144.104 164.293 144.736 163.629 145.536 163.133C146.352 162.637 147.248 162.389 148.224 162.389ZM155.871 158.765C155.871 158.141 156.095 157.629 156.543 157.229C156.991 156.813 157.583 156.605 158.319 156.605C159.055 156.605 159.647 156.813 160.095 157.229C160.543 157.629 160.767 158.141 160.767 158.765C160.767 159.373 160.543 159.885 160.095 160.301C159.647 160.701 159.055 160.901 158.319 160.901C157.583 160.901 156.991 160.701 156.543 160.301C156.095 159.885 155.871 159.373 155.871 158.765ZM160.359 162.533V175.925H156.255V162.533H160.359ZM169.241 162.365C170.969 162.365 172.417 162.845 173.585 163.805C174.753 164.749 175.489 166.053 175.793 167.717H171.449C171.321 167.141 171.057 166.693 170.657 166.373C170.257 166.053 169.753 165.893 169.145 165.893C168.425 165.893 167.833 166.181 167.369 166.757C166.905 167.317 166.673 168.141 166.673 169.229C166.673 170.317 166.905 171.149 167.369 171.725C167.833 172.285 168.425 172.565 169.145 172.565C169.753 172.565 170.257 172.405 170.657 172.085C171.057 171.765 171.321 171.317 171.449 170.741H175.793C175.489 172.405 174.753 173.717 173.585 174.677C172.417 175.621 170.969 176.093 169.241 176.093C167.929 176.093 166.761 175.821 165.737 175.277C164.729 174.717 163.937 173.917 163.361 172.877C162.785 171.837 162.497 170.621 162.497 169.229C162.497 167.821 162.777 166.605 163.337 165.581C163.913 164.541 164.713 163.749 165.737 163.205C166.761 162.645 167.929 162.365 169.241 162.365ZM186.844 158.957V175.925H182.74V158.957H186.844ZM198.173 162.389C199.709 162.389 200.925 162.901 201.821 163.925C202.733 164.949 203.189 166.357 203.189 168.149V175.925H199.085V168.629C199.085 167.733 198.845 167.037 198.365 166.541C197.901 166.029 197.277 165.773 196.493 165.773C195.661 165.773 194.997 166.037 194.501 166.565C194.021 167.093 193.781 167.845 193.781 168.821V175.925H189.677V162.533H193.781V164.981C194.165 164.181 194.733 163.549 195.485 163.085C196.253 162.621 197.149 162.389 198.173 162.389ZM213.48 172.397V175.925H211.632C210.064 175.925 208.84 175.541 207.96 174.773C207.096 173.989 206.664 172.701 206.664 170.909V165.989H204.864V162.533H206.664V159.245H210.768V162.533H213.456V165.989H210.768V170.981C210.768 171.509 210.872 171.877 211.08 172.085C211.304 172.293 211.672 172.397 212.184 172.397H213.48ZM228.506 168.869C228.506 169.205 228.466 169.573 228.386 169.973H219.098C219.146 170.981 219.402 171.709 219.866 172.157C220.33 172.589 220.922 172.805 221.642 172.805C222.25 172.805 222.754 172.653 223.154 172.349C223.554 172.045 223.818 171.653 223.946 171.173H228.29C228.114 172.117 227.73 172.965 227.138 173.717C226.546 174.453 225.794 175.037 224.882 175.469C223.97 175.885 222.954 176.093 221.834 176.093C220.522 176.093 219.354 175.821 218.33 175.277C217.322 174.717 216.53 173.917 215.954 172.877C215.378 171.837 215.09 170.621 215.09 169.229C215.09 167.821 215.37 166.605 215.93 165.581C216.506 164.541 217.306 163.749 218.33 163.205C219.354 162.645 220.522 162.365 221.834 162.365C223.162 162.365 224.33 162.637 225.338 163.181C226.346 163.725 227.122 164.493 227.666 165.485C228.226 166.461 228.506 167.589 228.506 168.869ZM224.354 168.245C224.37 167.365 224.13 166.709 223.634 166.277C223.154 165.829 222.554 165.605 221.834 165.605C221.082 165.605 220.458 165.829 219.962 166.277C219.466 166.725 219.186 167.381 219.122 168.245H224.354ZM234.75 165.053C235.262 164.237 235.918 163.589 236.718 163.109C237.534 162.629 238.414 162.389 239.358 162.389V166.781H238.182C237.094 166.781 236.246 167.013 235.638 167.477C235.046 167.941 234.75 168.725 234.75 169.829V175.925H230.646V162.533H234.75V165.053ZM253.796 168.869C253.796 169.205 253.756 169.573 253.676 169.973H244.388C244.436 170.981 244.692 171.709 245.156 172.157C245.62 172.589 246.212 172.805 246.932 172.805C247.54 172.805 248.044 172.653 248.444 172.349C248.844 172.045 249.108 171.653 249.236 171.173H253.58C253.404 172.117 253.02 172.965 252.428 173.717C251.836 174.453 251.084 175.037 250.172 175.469C249.26 175.885 248.244 176.093 247.124 176.093C245.812 176.093 244.644 175.821 243.62 175.277C242.612 174.717 241.82 173.917 241.244 172.877C240.668 171.837 240.38 170.621 240.38 169.229C240.38 167.821 240.66 166.605 241.22 165.581C241.796 164.541 242.596 163.749 243.62 163.205C244.644 162.645 245.812 162.365 247.124 162.365C248.452 162.365 249.62 162.637 250.628 163.181C251.636 163.725 252.412 164.493 252.956 165.485C253.516 166.461 253.796 167.589 253.796 168.869ZM249.644 168.245C249.66 167.365 249.42 166.709 248.924 166.277C248.444 165.829 247.844 165.605 247.124 165.605C246.372 165.605 245.748 165.829 245.252 166.277C244.756 166.725 244.476 167.381 244.412 168.245H249.644ZM260.807 162.365C262.503 162.365 263.855 162.789 264.863 163.637C265.887 164.485 266.527 165.605 266.783 166.997H262.943C262.831 166.453 262.575 166.029 262.175 165.725C261.791 165.405 261.303 165.245 260.711 165.245C260.247 165.245 259.895 165.349 259.655 165.557C259.415 165.749 259.295 166.029 259.295 166.397C259.295 166.813 259.511 167.125 259.943 167.333C260.391 167.541 261.087 167.749 262.031 167.957C263.055 168.197 263.895 168.445 264.551 168.701C265.207 168.941 265.775 169.341 266.255 169.901C266.735 170.461 266.975 171.213 266.975 172.157C266.975 172.925 266.767 173.605 266.351 174.197C265.935 174.789 265.335 175.253 264.551 175.589C263.767 175.925 262.839 176.093 261.767 176.093C259.959 176.093 258.511 175.693 257.423 174.893C256.335 174.093 255.671 172.949 255.431 171.461H259.391C259.455 172.037 259.695 172.477 260.111 172.781C260.543 173.085 261.095 173.237 261.767 173.237C262.231 173.237 262.583 173.133 262.823 172.925C263.063 172.701 263.183 172.413 263.183 172.061C263.183 171.597 262.959 171.269 262.511 171.077C262.079 170.869 261.367 170.653 260.375 170.429C259.383 170.221 258.567 169.997 257.927 169.757C257.287 169.517 256.735 169.133 256.271 168.605C255.807 168.061 255.575 167.325 255.575 166.397C255.575 165.197 256.031 164.229 256.943 163.493C257.855 162.741 259.143 162.365 260.807 162.365ZM276.831 172.397V175.925H274.983C273.415 175.925 272.191 175.541 271.311 174.773C270.447 173.989 270.015 172.701 270.015 170.909V165.989H268.215V162.533H270.015V159.245H274.119V162.533H276.807V165.989H274.119V170.981C274.119 171.509 274.223 171.877 274.431 172.085C274.655 172.293 275.023 172.397 275.535 172.397H276.831Z" fill="white"/>
<path d="M44.8873 207.282H48.9833V208.178H43.7513V196.898H44.8873V207.282ZM50.2609 196.85C50.2609 196.616 50.3356 196.429 50.4849 196.29C50.6449 196.152 50.8476 196.082 51.0929 196.082C51.3382 196.082 51.5356 196.152 51.6849 196.29C51.8342 196.429 51.9089 196.616 51.9089 196.85C51.9089 197.074 51.8342 197.256 51.6849 197.394C51.5356 197.533 51.3382 197.602 51.0929 197.602C50.8476 197.602 50.6449 197.533 50.4849 197.394C50.3356 197.256 50.2609 197.074 50.2609 196.85ZM51.6529 199.442V208.178H50.5169V199.442H51.6529ZM57.8234 199.346C58.6874 199.346 59.4181 199.56 60.0154 199.986C60.6234 200.413 61.0554 200.994 61.3114 201.73V199.442H62.4154V212.306H61.3114V205.842C61.0554 206.589 60.6234 207.186 60.0154 207.634C59.4074 208.072 58.6767 208.29 57.8234 208.29C57.0234 208.29 56.3087 208.109 55.6794 207.746C55.0501 207.373 54.5541 206.85 54.1914 206.178C53.8394 205.506 53.6634 204.722 53.6634 203.826C53.6634 202.93 53.8394 202.146 54.1914 201.474C54.5541 200.792 55.0501 200.269 55.6794 199.906C56.3087 199.533 57.0234 199.346 57.8234 199.346ZM58.0474 200.322C57.0767 200.322 56.2927 200.637 55.6954 201.266C55.0981 201.885 54.7994 202.738 54.7994 203.826C54.7994 204.914 55.0981 205.768 55.6954 206.386C56.2927 206.994 57.0767 207.298 58.0474 207.298C58.6554 207.298 59.2047 207.16 59.6954 206.882C60.1967 206.594 60.5914 206.189 60.8794 205.666C61.1674 205.133 61.3114 204.514 61.3114 203.81C61.3114 203.106 61.1674 202.493 60.8794 201.97C60.5914 201.437 60.1967 201.032 59.6954 200.754C59.2047 200.466 58.6554 200.322 58.0474 200.322ZM72.381 199.442V208.178H71.261V206.018C71.037 206.776 70.6317 207.352 70.045 207.746C69.4584 208.141 68.7864 208.338 68.029 208.338C67.005 208.338 66.173 208.018 65.533 207.378C64.9037 206.728 64.589 205.778 64.589 204.53V199.442H65.709V204.434C65.709 205.394 65.949 206.13 66.429 206.642C66.909 207.144 67.565 207.394 68.397 207.394C69.2717 207.394 69.965 207.117 70.477 206.562C70.9997 205.997 71.261 205.17 71.261 204.082V199.442H72.381ZM74.5734 196.85C74.5734 196.616 74.6481 196.429 74.7974 196.29C74.9574 196.152 75.1601 196.082 75.4054 196.082C75.6507 196.082 75.8481 196.152 75.9974 196.29C76.1467 196.429 76.2214 196.616 76.2214 196.85C76.2214 197.074 76.1467 197.256 75.9974 197.394C75.8481 197.533 75.6507 197.602 75.4054 197.602C75.1601 197.602 74.9574 197.533 74.7974 197.394C74.6481 197.256 74.5734 197.074 74.5734 196.85ZM75.9654 199.442V208.178H74.8294V199.442H75.9654ZM82.0719 199.33C82.9572 199.33 83.7092 199.56 84.3279 200.018C84.9572 200.477 85.3839 201.085 85.6079 201.842V196.338H86.7279V208.178H85.6079V205.778C85.3839 206.536 84.9572 207.144 84.3279 207.602C83.7092 208.061 82.9572 208.29 82.0719 208.29C81.2826 208.29 80.5732 208.109 79.9439 207.746C79.3252 207.384 78.8399 206.866 78.4879 206.194C78.1466 205.512 77.9759 204.717 77.9759 203.81C77.9759 202.893 78.1466 202.098 78.4879 201.426C78.8399 200.744 79.3252 200.226 79.9439 199.874C80.5626 199.512 81.2719 199.33 82.0719 199.33ZM82.3599 200.322C81.3786 200.322 80.5892 200.637 79.9919 201.266C79.4052 201.885 79.1119 202.733 79.1119 203.81C79.1119 204.888 79.4052 205.741 79.9919 206.37C80.5892 206.989 81.3786 207.298 82.3599 207.298C82.9786 207.298 83.5332 207.154 84.0239 206.866C84.5252 206.578 84.9146 206.173 85.1919 205.65C85.4799 205.117 85.6239 204.504 85.6239 203.81C85.6239 203.117 85.4799 202.509 85.1919 201.986C84.9146 201.453 84.5252 201.042 84.0239 200.754C83.5332 200.466 82.9786 200.322 82.3599 200.322ZM88.9015 196.85C88.9015 196.616 88.9762 196.429 89.1255 196.29C89.2855 196.152 89.4882 196.082 89.7335 196.082C89.9789 196.082 90.1762 196.152 90.3255 196.29C90.4749 196.429 90.5495 196.616 90.5495 196.85C90.5495 197.074 90.4749 197.256 90.3255 197.394C90.1762 197.533 89.9789 197.602 89.7335 197.602C89.4882 197.602 89.2855 197.533 89.1255 197.394C88.9762 197.256 88.9015 197.074 88.9015 196.85ZM90.2935 199.442V208.178H89.1575V199.442H90.2935ZM96.688 207.186V208.178H95.648C94.8054 208.178 94.176 207.981 93.76 207.586C93.344 207.181 93.136 206.504 93.136 205.554V200.418H91.808V199.442H93.136V197.234H94.272V199.442H96.672V200.418H94.272V205.57C94.272 206.189 94.384 206.616 94.608 206.85C94.832 207.074 95.2267 207.186 95.792 207.186H96.688ZM98.7725 199.442L101.813 206.722L104.613 199.442H105.861L100.725 212.306H99.4445L101.205 208.082L97.5245 199.442H98.7725ZM116.111 199.33C116.911 199.33 117.615 199.512 118.223 199.874C118.841 200.226 119.321 200.744 119.663 201.426C120.015 202.098 120.191 202.893 120.191 203.81C120.191 204.717 120.015 205.512 119.663 206.194C119.321 206.866 118.841 207.384 118.223 207.746C117.604 208.109 116.9 208.29 116.111 208.29C115.215 208.29 114.457 208.061 113.839 207.602C113.22 207.144 112.793 206.536 112.559 205.778V212.306H111.439V199.442H112.559V201.842C112.793 201.085 113.22 200.477 113.839 200.018C114.457 199.56 115.215 199.33 116.111 199.33ZM115.807 200.322C115.188 200.322 114.628 200.466 114.127 200.754C113.636 201.042 113.252 201.453 112.975 201.986C112.697 202.509 112.559 203.117 112.559 203.81C112.559 204.504 112.697 205.117 112.975 205.65C113.252 206.173 113.636 206.578 114.127 206.866C114.628 207.154 115.188 207.298 115.807 207.298C116.799 207.298 117.588 206.989 118.175 206.37C118.761 205.741 119.055 204.888 119.055 203.81C119.055 202.733 118.761 201.885 118.175 201.266C117.588 200.637 116.799 200.322 115.807 200.322ZM126.156 199.33C126.988 199.33 127.73 199.512 128.38 199.874C129.042 200.226 129.559 200.744 129.932 201.426C130.306 202.098 130.492 202.893 130.492 203.81C130.492 204.728 130.306 205.522 129.932 206.194C129.559 206.866 129.042 207.384 128.38 207.746C127.73 208.109 126.988 208.29 126.156 208.29C125.324 208.29 124.578 208.109 123.916 207.746C123.255 207.384 122.732 206.866 122.348 206.194C121.975 205.512 121.788 204.717 121.788 203.81C121.788 202.893 121.975 202.098 122.348 201.426C122.732 200.744 123.255 200.226 123.916 199.874C124.578 199.512 125.324 199.33 126.156 199.33ZM126.156 200.306C125.58 200.306 125.047 200.434 124.556 200.69C124.066 200.946 123.671 201.341 123.372 201.874C123.074 202.397 122.924 203.042 122.924 203.81C122.924 204.578 123.074 205.224 123.372 205.746C123.671 206.269 124.066 206.658 124.556 206.914C125.047 207.17 125.58 207.298 126.156 207.298C126.722 207.298 127.244 207.17 127.724 206.914C128.215 206.658 128.61 206.269 128.908 205.746C129.207 205.224 129.356 204.578 129.356 203.81C129.356 203.042 129.207 202.397 128.908 201.874C128.61 201.341 128.215 200.946 127.724 200.69C127.244 200.434 126.722 200.306 126.156 200.306ZM136.453 199.33C137.285 199.33 138.027 199.512 138.677 199.874C139.339 200.226 139.856 200.744 140.229 201.426C140.603 202.098 140.789 202.893 140.789 203.81C140.789 204.728 140.603 205.522 140.229 206.194C139.856 206.866 139.339 207.384 138.677 207.746C138.027 208.109 137.285 208.29 136.453 208.29C135.621 208.29 134.875 208.109 134.213 207.746C133.552 207.384 133.029 206.866 132.645 206.194C132.272 205.512 132.085 204.717 132.085 203.81C132.085 202.893 132.272 202.098 132.645 201.426C133.029 200.744 133.552 200.226 134.213 199.874C134.875 199.512 135.621 199.33 136.453 199.33ZM136.453 200.306C135.877 200.306 135.344 200.434 134.853 200.69C134.363 200.946 133.968 201.341 133.669 201.874C133.371 202.397 133.221 203.042 133.221 203.81C133.221 204.578 133.371 205.224 133.669 205.746C133.968 206.269 134.363 206.658 134.853 206.914C135.344 207.17 135.877 207.298 136.453 207.298C137.019 207.298 137.541 207.17 138.021 206.914C138.512 206.658 138.907 206.269 139.205 205.746C139.504 205.224 139.653 204.578 139.653 203.81C139.653 203.042 139.504 202.397 139.205 201.874C138.907 201.341 138.512 200.946 138.021 200.69C137.541 200.434 137.019 200.306 136.453 200.306ZM143.934 196.338V208.178H142.798V196.338H143.934ZM150.261 196.85C150.261 196.616 150.336 196.429 150.485 196.29C150.645 196.152 150.848 196.082 151.093 196.082C151.338 196.082 151.536 196.152 151.685 196.29C151.834 196.429 151.909 196.616 151.909 196.85C151.909 197.074 151.834 197.256 151.685 197.394C151.536 197.533 151.338 197.602 151.093 197.602C150.848 197.602 150.645 197.533 150.485 197.394C150.336 197.256 150.261 197.074 150.261 196.85ZM151.653 199.442V208.178H150.517V199.442H151.653ZM158.447 199.282C159.461 199.282 160.282 199.608 160.911 200.258C161.551 200.898 161.871 201.842 161.871 203.09V208.178H160.767V203.17C160.767 202.221 160.527 201.496 160.047 200.994C159.567 200.482 158.911 200.226 158.079 200.226C157.205 200.226 156.506 200.509 155.983 201.074C155.471 201.629 155.215 202.45 155.215 203.538V208.178H154.079V199.442H155.215V201.586C155.439 200.84 155.845 200.269 156.431 199.874C157.018 199.48 157.69 199.282 158.447 199.282ZM168.204 207.186V208.178H167.164C166.321 208.178 165.692 207.981 165.276 207.586C164.86 207.181 164.652 206.504 164.652 205.554V200.418H163.324V199.442H164.652V197.234H165.788V199.442H168.188V200.418H165.788V205.57C165.788 206.189 165.9 206.616 166.124 206.85C166.348 207.074 166.742 207.186 167.308 207.186H168.204ZM173.856 207.362C174.645 207.362 175.307 207.165 175.84 206.77C176.373 206.376 176.693 205.842 176.8 205.17H177.984C177.824 206.098 177.381 206.85 176.656 207.426C175.931 208.002 175.013 208.29 173.904 208.29C173.072 208.29 172.331 208.114 171.68 207.762C171.04 207.4 170.539 206.882 170.176 206.21C169.813 205.528 169.632 204.728 169.632 203.81C169.632 202.893 169.813 202.098 170.176 201.426C170.539 200.744 171.04 200.226 171.68 199.874C172.331 199.512 173.072 199.33 173.904 199.33C174.757 199.33 175.493 199.512 176.112 199.874C176.741 200.226 177.216 200.701 177.536 201.298C177.867 201.896 178.032 202.546 178.032 203.25C178.032 203.549 178.011 203.821 177.968 204.066H170.736C170.747 204.802 170.896 205.421 171.184 205.922C171.483 206.413 171.867 206.776 172.336 207.01C172.805 207.245 173.312 207.362 173.856 207.362ZM173.904 200.242C173.339 200.242 172.821 200.36 172.352 200.594C171.883 200.829 171.499 201.192 171.2 201.682C170.912 202.162 170.757 202.765 170.736 203.49H176.912C176.955 202.776 176.837 202.173 176.56 201.682C176.283 201.192 175.909 200.829 175.44 200.594C174.971 200.36 174.459 200.242 173.904 200.242ZM181.184 201.25C181.44 200.621 181.851 200.136 182.416 199.794C182.981 199.453 183.669 199.282 184.48 199.282V200.498H184.112C183.269 200.498 182.571 200.728 182.016 201.186C181.461 201.634 181.184 202.37 181.184 203.394V208.178H180.048V199.442H181.184V201.25ZM189.778 207.362C190.567 207.362 191.229 207.165 191.762 206.77C192.295 206.376 192.615 205.842 192.722 205.17H193.906C193.746 206.098 193.303 206.85 192.578 207.426C191.853 208.002 190.935 208.29 189.826 208.29C188.994 208.29 188.253 208.114 187.602 207.762C186.962 207.4 186.461 206.882 186.098 206.21C185.735 205.528 185.554 204.728 185.554 203.81C185.554 202.893 185.735 202.098 186.098 201.426C186.461 200.744 186.962 200.226 187.602 199.874C188.253 199.512 188.994 199.33 189.826 199.33C190.679 199.33 191.415 199.512 192.034 199.874C192.663 200.226 193.138 200.701 193.458 201.298C193.789 201.896 193.954 202.546 193.954 203.25C193.954 203.549 193.933 203.821 193.89 204.066H186.658C186.669 204.802 186.818 205.421 187.106 205.922C187.405 206.413 187.789 206.776 188.258 207.01C188.727 207.245 189.234 207.362 189.778 207.362ZM189.826 200.242C189.261 200.242 188.743 200.36 188.274 200.594C187.805 200.829 187.421 201.192 187.122 201.682C186.834 202.162 186.679 202.765 186.658 203.49H192.834C192.877 202.776 192.759 202.173 192.482 201.682C192.205 201.192 191.831 200.829 191.362 200.594C190.893 200.36 190.381 200.242 189.826 200.242ZM198.61 199.33C199.559 199.33 200.322 199.581 200.898 200.082C201.474 200.584 201.826 201.261 201.954 202.114H200.882C200.818 201.549 200.583 201.085 200.178 200.722C199.783 200.349 199.25 200.162 198.578 200.162C198.002 200.162 197.549 200.306 197.218 200.594C196.898 200.872 196.738 201.245 196.738 201.714C196.738 202.066 196.839 202.349 197.042 202.562C197.255 202.776 197.517 202.941 197.826 203.058C198.135 203.165 198.551 203.277 199.074 203.394C199.714 203.544 200.226 203.698 200.61 203.858C201.005 204.008 201.341 204.248 201.618 204.578C201.895 204.909 202.034 205.357 202.034 205.922C202.034 206.616 201.773 207.186 201.25 207.634C200.738 208.072 200.055 208.29 199.202 208.29C198.199 208.29 197.378 208.045 196.738 207.554C196.098 207.053 195.719 206.37 195.602 205.506H196.69C196.754 206.082 197.005 206.552 197.442 206.914C197.879 207.277 198.471 207.458 199.218 207.458C199.773 207.458 200.205 207.314 200.514 207.026C200.823 206.738 200.978 206.365 200.978 205.906C200.978 205.533 200.871 205.234 200.658 205.01C200.445 204.786 200.178 204.621 199.858 204.514C199.549 204.397 199.122 204.274 198.578 204.146C197.949 203.997 197.442 203.848 197.058 203.698C196.685 203.549 196.365 203.32 196.098 203.01C195.831 202.69 195.698 202.258 195.698 201.714C195.698 201 195.959 200.424 196.482 199.986C197.005 199.549 197.714 199.33 198.61 199.33ZM208.047 207.186V208.178H207.007C206.165 208.178 205.535 207.981 205.119 207.586C204.703 207.181 204.495 206.504 204.495 205.554V200.418H203.167V199.442H204.495V197.234H205.631V199.442H208.031V200.418H205.631V205.57C205.631 206.189 205.743 206.616 205.967 206.85C206.191 207.074 206.586 207.186 207.151 207.186H208.047ZM215.184 201.25C215.44 200.621 215.851 200.136 216.416 199.794C216.981 199.453 217.669 199.282 218.48 199.282V200.498H218.112C217.269 200.498 216.571 200.728 216.016 201.186C215.461 201.634 215.184 202.37 215.184 203.394V208.178H214.048V199.442H215.184V201.25ZM223.65 199.33C224.535 199.33 225.287 199.56 225.906 200.018C226.535 200.477 226.967 201.085 227.202 201.842V199.442H228.306V208.178H227.202V205.778C226.967 206.536 226.535 207.144 225.906 207.602C225.287 208.061 224.535 208.29 223.65 208.29C222.861 208.29 222.151 208.109 221.522 207.746C220.903 207.384 220.418 206.866 220.066 206.194C219.725 205.512 219.554 204.717 219.554 203.81C219.554 202.893 219.725 202.098 220.066 201.426C220.418 200.744 220.903 200.226 221.522 199.874C222.141 199.512 222.85 199.33 223.65 199.33ZM223.938 200.322C222.957 200.322 222.167 200.637 221.57 201.266C220.983 201.885 220.69 202.733 220.69 203.81C220.69 204.888 220.983 205.741 221.57 206.37C222.167 206.989 222.957 207.298 223.938 207.298C224.557 207.298 225.111 207.154 225.602 206.866C226.103 206.578 226.493 206.173 226.77 205.65C227.058 205.117 227.202 204.504 227.202 203.81C227.202 203.117 227.058 202.509 226.77 201.986C226.493 201.453 226.103 201.042 225.602 200.754C225.111 200.466 224.557 200.322 223.938 200.322ZM234.704 207.186V208.178H233.664C232.821 208.178 232.192 207.981 231.776 207.586C231.36 207.181 231.152 206.504 231.152 205.554V200.418H229.824V199.442H231.152V197.234H232.288V199.442H234.688V200.418H232.288V205.57C232.288 206.189 232.4 206.616 232.624 206.85C232.848 207.074 233.242 207.186 233.808 207.186H234.704ZM240.356 207.362C241.145 207.362 241.807 207.165 242.34 206.77C242.873 206.376 243.193 205.842 243.3 205.17H244.484C244.324 206.098 243.881 206.85 243.156 207.426C242.431 208.002 241.513 208.29 240.404 208.29C239.572 208.29 238.831 208.114 238.18 207.762C237.54 207.4 237.039 206.882 236.676 206.21C236.313 205.528 236.132 204.728 236.132 203.81C236.132 202.893 236.313 202.098 236.676 201.426C237.039 200.744 237.54 200.226 238.18 199.874C238.831 199.512 239.572 199.33 240.404 199.33C241.257 199.33 241.993 199.512 242.612 199.874C243.241 200.226 243.716 200.701 244.036 201.298C244.367 201.896 244.532 202.546 244.532 203.25C244.532 203.549 244.511 203.821 244.468 204.066H237.236C237.247 204.802 237.396 205.421 237.684 205.922C237.983 206.413 238.367 206.776 238.836 207.01C239.305 207.245 239.812 207.362 240.356 207.362ZM240.404 200.242C239.839 200.242 239.321 200.36 238.852 200.594C238.383 200.829 237.999 201.192 237.7 201.682C237.412 202.162 237.257 202.765 237.236 203.49H243.412C243.455 202.776 243.337 202.173 243.06 201.682C242.783 201.192 242.409 200.829 241.94 200.594C241.471 200.36 240.959 200.242 240.404 200.242ZM249.188 199.33C250.137 199.33 250.9 199.581 251.476 200.082C252.052 200.584 252.404 201.261 252.532 202.114H251.46C251.396 201.549 251.161 201.085 250.756 200.722C250.361 200.349 249.828 200.162 249.156 200.162C248.58 200.162 248.127 200.306 247.796 200.594C247.476 200.872 247.316 201.245 247.316 201.714C247.316 202.066 247.417 202.349 247.62 202.562C247.833 202.776 248.095 202.941 248.404 203.058C248.713 203.165 249.129 203.277 249.652 203.394C250.292 203.544 250.804 203.698 251.188 203.858C251.583 204.008 251.919 204.248 252.196 204.578C252.473 204.909 252.612 205.357 252.612 205.922C252.612 206.616 252.351 207.186 251.828 207.634C251.316 208.072 250.633 208.29 249.78 208.29C248.777 208.29 247.956 208.045 247.316 207.554C246.676 207.053 246.297 206.37 246.18 205.506H247.268C247.332 206.082 247.583 206.552 248.02 206.914C248.457 207.277 249.049 207.458 249.796 207.458C250.351 207.458 250.783 207.314 251.092 207.026C251.401 206.738 251.556 206.365 251.556 205.906C251.556 205.533 251.449 205.234 251.236 205.01C251.023 204.786 250.756 204.621 250.436 204.514C250.127 204.397 249.7 204.274 249.156 204.146C248.527 203.997 248.02 203.848 247.636 203.698C247.263 203.549 246.943 203.32 246.676 203.01C246.409 202.69 246.276 202.258 246.276 201.714C246.276 201 246.537 200.424 247.06 199.986C247.583 199.549 248.292 199.33 249.188 199.33ZM270.622 199.442L268.046 208.178H266.862L264.238 200.754L261.582 208.178H260.414L257.838 199.442H258.974L261.054 207.01L263.678 199.442H264.83L267.47 207.01L269.534 199.442H270.622ZM271.808 196.85C271.808 196.616 271.882 196.429 272.032 196.29C272.192 196.152 272.394 196.082 272.64 196.082C272.885 196.082 273.082 196.152 273.232 196.29C273.381 196.429 273.456 196.616 273.456 196.85C273.456 197.074 273.381 197.256 273.232 197.394C273.082 197.533 272.885 197.602 272.64 197.602C272.394 197.602 272.192 197.533 272.032 197.394C271.882 197.256 271.808 197.074 271.808 196.85ZM273.2 199.442V208.178H272.064V199.442H273.2ZM276.762 196.338V208.178H275.626V196.338H276.762ZM280.325 196.338V208.178H279.189V196.338H280.325ZM291.58 199.33C292.38 199.33 293.084 199.512 293.692 199.874C294.31 200.226 294.79 200.744 295.132 201.426C295.484 202.098 295.66 202.893 295.66 203.81C295.66 204.717 295.484 205.512 295.132 206.194C294.79 206.866 294.31 207.384 293.692 207.746C293.073 208.109 292.369 208.29 291.58 208.29C290.684 208.29 289.926 208.061 289.308 207.602C288.689 207.144 288.262 206.536 288.028 205.778V208.178H286.908V196.338H288.028V201.842C288.262 201.085 288.689 200.477 289.308 200.018C289.926 199.56 290.684 199.33 291.58 199.33ZM291.276 200.322C290.657 200.322 290.097 200.466 289.596 200.754C289.105 201.042 288.721 201.453 288.444 201.986C288.166 202.509 288.028 203.117 288.028 203.81C288.028 204.504 288.166 205.117 288.444 205.65C288.721 206.173 289.105 206.578 289.596 206.866C290.097 207.154 290.657 207.298 291.276 207.298C292.268 207.298 293.057 206.989 293.644 206.37C294.23 205.741 294.524 204.888 294.524 203.81C294.524 202.733 294.23 201.885 293.644 201.266C293.057 200.637 292.268 200.322 291.276 200.322ZM301.481 207.362C302.27 207.362 302.932 207.165 303.465 206.77C303.998 206.376 304.318 205.842 304.425 205.17H305.609C305.449 206.098 305.006 206.85 304.281 207.426C303.556 208.002 302.638 208.29 301.529 208.29C300.697 208.29 299.956 208.114 299.305 207.762C298.665 207.4 298.164 206.882 297.801 206.21C297.438 205.528 297.257 204.728 297.257 203.81C297.257 202.893 297.438 202.098 297.801 201.426C298.164 200.744 298.665 200.226 299.305 199.874C299.956 199.512 300.697 199.33 301.529 199.33C302.382 199.33 303.118 199.512 303.737 199.874C304.366 200.226 304.841 200.701 305.161 201.298C305.492 201.896 305.657 202.546 305.657 203.25C305.657 203.549 305.636 203.821 305.593 204.066H298.361C298.372 204.802 298.521 205.421 298.809 205.922C299.108 206.413 299.492 206.776 299.961 207.01C300.43 207.245 300.937 207.362 301.481 207.362ZM301.529 200.242C300.964 200.242 300.446 200.36 299.977 200.594C299.508 200.829 299.124 201.192 298.825 201.682C298.537 202.162 298.382 202.765 298.361 203.49H304.537C304.58 202.776 304.462 202.173 304.185 201.682C303.908 201.192 303.534 200.829 303.065 200.594C302.596 200.36 302.084 200.242 301.529 200.242ZM70.611 223.33C71.4963 223.33 72.2483 223.56 72.867 224.018C73.4963 224.477 73.923 225.085 74.147 225.842V220.338H75.267V232.178H74.147V229.778C73.923 230.536 73.4963 231.144 72.867 231.602C72.2483 232.061 71.4963 232.29 70.611 232.29C69.8216 232.29 69.1123 232.109 68.483 231.746C67.8643 231.384 67.379 230.866 67.027 230.194C66.6856 229.512 66.515 228.717 66.515 227.81C66.515 226.893 66.6856 226.098 67.027 225.426C67.379 224.744 67.8643 224.226 68.483 223.874C69.1016 223.512 69.811 223.33 70.611 223.33ZM70.899 224.322C69.9176 224.322 69.1283 224.637 68.531 225.266C67.9443 225.885 67.651 226.733 67.651 227.81C67.651 228.888 67.9443 229.741 68.531 230.37C69.1283 230.989 69.9176 231.298 70.899 231.298C71.5176 231.298 72.0723 231.154 72.563 230.866C73.0643 230.578 73.4536 230.173 73.731 229.65C74.019 229.117 74.163 228.504 74.163 227.81C74.163 227.117 74.019 226.509 73.731 225.986C73.4536 225.453 73.0643 225.042 72.563 224.754C72.0723 224.466 71.5176 224.322 70.899 224.322ZM77.9366 223.442L80.9766 230.722L83.7766 223.442H85.0246L79.8886 236.306H78.6086L80.3686 232.082L76.6886 223.442H77.9366ZM90.8146 223.282C91.8279 223.282 92.6493 223.608 93.2786 224.258C93.9186 224.898 94.2386 225.842 94.2386 227.09V232.178H93.1346V227.17C93.1346 226.221 92.8946 225.496 92.4146 224.994C91.9346 224.482 91.2786 224.226 90.4466 224.226C89.5719 224.226 88.8733 224.509 88.3506 225.074C87.8386 225.629 87.5826 226.45 87.5826 227.538V232.178H86.4466V223.442H87.5826V225.586C87.8066 224.84 88.2119 224.269 88.7986 223.874C89.3853 223.48 90.0573 223.282 90.8146 223.282ZM100.283 223.33C101.168 223.33 101.92 223.56 102.539 224.018C103.168 224.477 103.6 225.085 103.835 225.842V223.442H104.939V232.178H103.835V229.778C103.6 230.536 103.168 231.144 102.539 231.602C101.92 232.061 101.168 232.29 100.283 232.29C99.4935 232.29 98.7842 232.109 98.1548 231.746C97.5362 231.384 97.0508 230.866 96.6988 230.194C96.3575 229.512 96.1868 228.717 96.1868 227.81C96.1868 226.893 96.3575 226.098 96.6988 225.426C97.0508 224.744 97.5362 224.226 98.1548 223.874C98.7735 223.512 99.4828 223.33 100.283 223.33ZM100.571 224.322C99.5895 224.322 98.8002 224.637 98.2028 225.266C97.6162 225.885 97.3228 226.733 97.3228 227.81C97.3228 228.888 97.6162 229.741 98.2028 230.37C98.8002 230.989 99.5895 231.298 100.571 231.298C101.19 231.298 101.744 231.154 102.235 230.866C102.736 230.578 103.126 230.173 103.403 229.65C103.691 229.117 103.835 228.504 103.835 227.81C103.835 227.117 103.691 226.509 103.403 225.986C103.126 225.453 102.736 225.042 102.235 224.754C101.744 224.466 101.19 224.322 100.571 224.322ZM117.976 223.282C118.979 223.282 119.79 223.608 120.408 224.258C121.038 224.898 121.352 225.842 121.352 227.09V232.178H120.232V227.17C120.232 226.232 120.003 225.512 119.544 225.01C119.096 224.509 118.478 224.258 117.688 224.258C116.846 224.258 116.174 224.536 115.672 225.09C115.171 225.645 114.92 226.461 114.92 227.538V232.178H113.816V227.17C113.816 226.232 113.587 225.512 113.128 225.01C112.68 224.509 112.062 224.258 111.272 224.258C110.43 224.258 109.758 224.536 109.256 225.09C108.755 225.645 108.504 226.461 108.504 227.538V232.178H107.368V223.442H108.504V225.522C108.718 224.786 109.102 224.232 109.656 223.858C110.222 223.474 110.872 223.282 111.608 223.282C112.376 223.282 113.038 223.485 113.592 223.89C114.147 224.296 114.531 224.893 114.744 225.682C114.979 224.904 115.39 224.312 115.976 223.906C116.563 223.49 117.23 223.282 117.976 223.282ZM123.456 220.85C123.456 220.616 123.531 220.429 123.68 220.29C123.84 220.152 124.043 220.082 124.288 220.082C124.534 220.082 124.731 220.152 124.88 220.29C125.03 220.429 125.104 220.616 125.104 220.85C125.104 221.074 125.03 221.256 124.88 221.394C124.731 221.533 124.534 221.602 124.288 221.602C124.043 221.602 123.84 221.533 123.68 221.394C123.531 221.256 123.456 221.074 123.456 220.85ZM124.848 223.442V232.178H123.712V223.442H124.848ZM131.131 223.33C132.24 223.33 133.157 223.624 133.883 224.21C134.619 224.797 135.067 225.576 135.227 226.546H134.059C133.941 225.853 133.616 225.309 133.083 224.914C132.549 224.509 131.893 224.306 131.115 224.306C130.549 224.306 130.027 224.434 129.547 224.69C129.077 224.946 128.699 225.341 128.411 225.874C128.133 226.397 127.995 227.042 127.995 227.81C127.995 228.578 128.133 229.229 128.411 229.762C128.699 230.285 129.077 230.674 129.547 230.93C130.027 231.186 130.549 231.314 131.115 231.314C131.893 231.314 132.549 231.117 133.083 230.722C133.616 230.317 133.941 229.768 134.059 229.074H135.227C135.067 230.045 134.619 230.824 133.883 231.41C133.157 231.997 132.24 232.29 131.131 232.29C130.299 232.29 129.557 232.114 128.907 231.762C128.267 231.4 127.765 230.882 127.403 230.21C127.04 229.528 126.859 228.728 126.859 227.81C126.859 226.893 127.04 226.098 127.403 225.426C127.765 224.744 128.267 224.226 128.907 223.874C129.557 223.512 130.299 223.33 131.131 223.33ZM145.368 231.186V232.178H144.328C143.485 232.178 142.856 231.981 142.44 231.586C142.024 231.181 141.816 230.504 141.816 229.554V224.418H140.488V223.442H141.816V221.234H142.952V223.442H145.352V224.418H142.952V229.57C142.952 230.189 143.064 230.616 143.288 230.85C143.512 231.074 143.906 231.186 144.472 231.186H145.368ZM151.164 223.33C151.996 223.33 152.738 223.512 153.388 223.874C154.05 224.226 154.567 224.744 154.94 225.426C155.314 226.098 155.5 226.893 155.5 227.81C155.5 228.728 155.314 229.522 154.94 230.194C154.567 230.866 154.05 231.384 153.388 231.746C152.738 232.109 151.996 232.29 151.164 232.29C150.332 232.29 149.586 232.109 148.924 231.746C148.263 231.384 147.74 230.866 147.356 230.194C146.983 229.512 146.796 228.717 146.796 227.81C146.796 226.893 146.983 226.098 147.356 225.426C147.74 224.744 148.263 224.226 148.924 223.874C149.586 223.512 150.332 223.33 151.164 223.33ZM151.164 224.306C150.588 224.306 150.055 224.434 149.564 224.69C149.074 224.946 148.679 225.341 148.38 225.874C148.082 226.397 147.932 227.042 147.932 227.81C147.932 228.578 148.082 229.224 148.38 229.746C148.679 230.269 149.074 230.658 149.564 230.914C150.055 231.17 150.588 231.298 151.164 231.298C151.73 231.298 152.252 231.17 152.732 230.914C153.223 230.658 153.618 230.269 153.916 229.746C154.215 229.224 154.364 228.578 154.364 227.81C154.364 227.042 154.215 226.397 153.916 225.874C153.618 225.341 153.223 224.946 152.732 224.69C152.252 224.434 151.73 224.306 151.164 224.306ZM161.409 220.85C161.409 220.616 161.484 220.429 161.633 220.29C161.793 220.152 161.996 220.082 162.241 220.082C162.487 220.082 162.684 220.152 162.833 220.29C162.983 220.429 163.057 220.616 163.057 220.85C163.057 221.074 162.983 221.256 162.833 221.394C162.684 221.533 162.487 221.602 162.241 221.602C161.996 221.602 161.793 221.533 161.633 221.394C161.484 221.256 161.409 221.074 161.409 220.85ZM162.801 223.442V232.178H161.665V223.442H162.801ZM169.596 223.282C170.609 223.282 171.431 223.608 172.06 224.258C172.7 224.898 173.02 225.842 173.02 227.09V232.178H171.916V227.17C171.916 226.221 171.676 225.496 171.196 224.994C170.716 224.482 170.06 224.226 169.228 224.226C168.353 224.226 167.655 224.509 167.132 225.074C166.62 225.629 166.364 226.45 166.364 227.538V232.178H165.228V223.442H166.364V225.586C166.588 224.84 166.993 224.269 167.58 223.874C168.167 223.48 168.839 223.282 169.596 223.282ZM179.24 223.33C180.349 223.33 181.267 223.624 181.992 224.21C182.728 224.797 183.176 225.576 183.336 226.546H182.168C182.051 225.853 181.725 225.309 181.192 224.914C180.659 224.509 180.003 224.306 179.224 224.306C178.659 224.306 178.136 224.434 177.656 224.69C177.187 224.946 176.808 225.341 176.52 225.874C176.243 226.397 176.104 227.042 176.104 227.81C176.104 228.578 176.243 229.229 176.52 229.762C176.808 230.285 177.187 230.674 177.656 230.93C178.136 231.186 178.659 231.314 179.224 231.314C180.003 231.314 180.659 231.117 181.192 230.722C181.725 230.317 182.051 229.768 182.168 229.074H183.336C183.176 230.045 182.728 230.824 181.992 231.41C181.267 231.997 180.349 232.29 179.24 232.29C178.408 232.29 177.667 232.114 177.016 231.762C176.376 231.4 175.875 230.882 175.512 230.21C175.149 229.528 174.968 228.728 174.968 227.81C174.968 226.893 175.149 226.098 175.512 225.426C175.875 224.744 176.376 224.226 177.016 223.874C177.667 223.512 178.408 223.33 179.24 223.33ZM189.161 231.362C189.95 231.362 190.612 231.165 191.145 230.77C191.678 230.376 191.998 229.842 192.105 229.17H193.289C193.129 230.098 192.686 230.85 191.961 231.426C191.236 232.002 190.318 232.29 189.209 232.29C188.377 232.29 187.636 232.114 186.985 231.762C186.345 231.4 185.844 230.882 185.481 230.21C185.118 229.528 184.937 228.728 184.937 227.81C184.937 226.893 185.118 226.098 185.481 225.426C185.844 224.744 186.345 224.226 186.985 223.874C187.636 223.512 188.377 223.33 189.209 223.33C190.062 223.33 190.798 223.512 191.417 223.874C192.046 224.226 192.521 224.701 192.841 225.298C193.172 225.896 193.337 226.546 193.337 227.25C193.337 227.549 193.316 227.821 193.273 228.066H186.041C186.052 228.802 186.201 229.421 186.489 229.922C186.788 230.413 187.172 230.776 187.641 231.01C188.11 231.245 188.617 231.362 189.161 231.362ZM189.209 224.242C188.644 224.242 188.126 224.36 187.657 224.594C187.188 224.829 186.804 225.192 186.505 225.682C186.217 226.162 186.062 226.765 186.041 227.49H192.217C192.26 226.776 192.142 226.173 191.865 225.682C191.588 225.192 191.214 224.829 190.745 224.594C190.276 224.36 189.764 224.242 189.209 224.242ZM199.721 223.282C200.734 223.282 201.556 223.608 202.185 224.258C202.825 224.898 203.145 225.842 203.145 227.09V232.178H202.041V227.17C202.041 226.221 201.801 225.496 201.321 224.994C200.841 224.482 200.185 224.226 199.353 224.226C198.478 224.226 197.78 224.509 197.257 225.074C196.745 225.629 196.489 226.45 196.489 227.538V232.178H195.353V223.442H196.489V225.586C196.713 224.84 197.118 224.269 197.705 223.874C198.292 223.48 198.964 223.282 199.721 223.282ZM209.477 231.186V232.178H208.437C207.594 232.178 206.965 231.981 206.549 231.586C206.133 231.181 205.925 230.504 205.925 229.554V224.418H204.597V223.442H205.925V221.234H207.061V223.442H209.461V224.418H207.061V229.57C207.061 230.189 207.173 230.616 207.397 230.85C207.621 231.074 208.016 231.186 208.581 231.186H209.477ZM211.066 220.85C211.066 220.616 211.14 220.429 211.29 220.29C211.45 220.152 211.652 220.082 211.898 220.082C212.143 220.082 212.34 220.152 212.49 220.29C212.639 220.429 212.714 220.616 212.714 220.85C212.714 221.074 212.639 221.256 212.49 221.394C212.34 221.533 212.143 221.602 211.898 221.602C211.652 221.602 211.45 221.533 211.29 221.394C211.14 221.256 211.066 221.074 211.066 220.85ZM212.458 223.442V232.178H211.322V223.442H212.458ZM218.116 230.914L221.044 223.442H222.26L218.74 232.178H217.46L213.94 223.442H215.156L218.116 230.914ZM223.487 220.85C223.487 220.616 223.562 220.429 223.711 220.29C223.871 220.152 224.074 220.082 224.319 220.082C224.565 220.082 224.762 220.152 224.911 220.29C225.061 220.429 225.135 220.616 225.135 220.85C225.135 221.074 225.061 221.256 224.911 221.394C224.762 221.533 224.565 221.602 224.319 221.602C224.074 221.602 223.871 221.533 223.711 221.394C223.562 221.256 223.487 221.074 223.487 220.85ZM224.879 223.442V232.178H223.743V223.442H224.879ZM229.946 223.33C230.895 223.33 231.658 223.581 232.234 224.082C232.81 224.584 233.162 225.261 233.29 226.114H232.218C232.154 225.549 231.919 225.085 231.514 224.722C231.119 224.349 230.586 224.162 229.914 224.162C229.338 224.162 228.885 224.306 228.554 224.594C228.234 224.872 228.074 225.245 228.074 225.714C228.074 226.066 228.175 226.349 228.378 226.562C228.591 226.776 228.853 226.941 229.162 227.058C229.471 227.165 229.887 227.277 230.41 227.394C231.05 227.544 231.562 227.698 231.946 227.858C232.341 228.008 232.677 228.248 232.954 228.578C233.231 228.909 233.37 229.357 233.37 229.922C233.37 230.616 233.109 231.186 232.586 231.634C232.074 232.072 231.391 232.29 230.538 232.29C229.535 232.29 228.714 232.045 228.074 231.554C227.434 231.053 227.055 230.37 226.938 229.506H228.026C228.09 230.082 228.341 230.552 228.778 230.914C229.215 231.277 229.807 231.458 230.554 231.458C231.109 231.458 231.541 231.314 231.85 231.026C232.159 230.738 232.314 230.365 232.314 229.906C232.314 229.533 232.207 229.234 231.994 229.01C231.781 228.786 231.514 228.621 231.194 228.514C230.885 228.397 230.458 228.274 229.914 228.146C229.285 227.997 228.778 227.848 228.394 227.698C228.021 227.549 227.701 227.32 227.434 227.01C227.167 226.69 227.034 226.258 227.034 225.714C227.034 225 227.295 224.424 227.818 223.986C228.341 223.549 229.05 223.33 229.946 223.33ZM239.223 231.362C240.013 231.362 240.674 231.165 241.207 230.77C241.741 230.376 242.061 229.842 242.167 229.17H243.351C243.191 230.098 242.749 230.85 242.023 231.426C241.298 232.002 240.381 232.29 239.271 232.29C238.439 232.29 237.698 232.114 237.047 231.762C236.407 231.4 235.906 230.882 235.543 230.21C235.181 229.528 234.999 228.728 234.999 227.81C234.999 226.893 235.181 226.098 235.543 225.426C235.906 224.744 236.407 224.226 237.047 223.874C237.698 223.512 238.439 223.33 239.271 223.33C240.125 223.33 240.861 223.512 241.479 223.874C242.109 224.226 242.583 224.701 242.903 225.298C243.234 225.896 243.399 226.546 243.399 227.25C243.399 227.549 243.378 227.821 243.335 228.066H236.103C236.114 228.802 236.263 229.421 236.551 229.922C236.85 230.413 237.234 230.776 237.703 231.01C238.173 231.245 238.679 231.362 239.223 231.362ZM239.271 224.242C238.706 224.242 238.189 224.36 237.719 224.594C237.25 224.829 236.866 225.192 236.567 225.682C236.279 226.162 236.125 226.765 236.103 227.49H242.279C242.322 226.776 242.205 226.173 241.927 225.682C241.65 225.192 241.277 224.829 240.807 224.594C240.338 224.36 239.826 224.242 239.271 224.242ZM254.244 223.33C255.044 223.33 255.748 223.512 256.356 223.874C256.974 224.226 257.454 224.744 257.796 225.426C258.148 226.098 258.324 226.893 258.324 227.81C258.324 228.717 258.148 229.512 257.796 230.194C257.454 230.866 256.974 231.384 256.356 231.746C255.737 232.109 255.033 232.29 254.244 232.29C253.348 232.29 252.59 232.061 251.972 231.602C251.353 231.144 250.926 230.536 250.692 229.778V236.306H249.572V223.442H250.692V225.842C250.926 225.085 251.353 224.477 251.972 224.018C252.59 223.56 253.348 223.33 254.244 223.33ZM253.94 224.322C253.321 224.322 252.761 224.466 252.26 224.754C251.769 225.042 251.385 225.453 251.108 225.986C250.83 226.509 250.692 227.117 250.692 227.81C250.692 228.504 250.83 229.117 251.108 229.65C251.385 230.173 251.769 230.578 252.26 230.866C252.761 231.154 253.321 231.298 253.94 231.298C254.932 231.298 255.721 230.989 256.308 230.37C256.894 229.741 257.188 228.888 257.188 227.81C257.188 226.733 256.894 225.885 256.308 225.266C255.721 224.637 254.932 224.322 253.94 224.322ZM264.289 223.33C265.121 223.33 265.863 223.512 266.513 223.874C267.175 224.226 267.692 224.744 268.065 225.426C268.439 226.098 268.625 226.893 268.625 227.81C268.625 228.728 268.439 229.522 268.065 230.194C267.692 230.866 267.175 231.384 266.513 231.746C265.863 232.109 265.121 232.29 264.289 232.29C263.457 232.29 262.711 232.109 262.049 231.746C261.388 231.384 260.865 230.866 260.481 230.194C260.108 229.512 259.921 228.717 259.921 227.81C259.921 226.893 260.108 226.098 260.481 225.426C260.865 224.744 261.388 224.226 262.049 223.874C262.711 223.512 263.457 223.33 264.289 223.33ZM264.289 224.306C263.713 224.306 263.18 224.434 262.689 224.69C262.199 224.946 261.804 225.341 261.505 225.874C261.207 226.397 261.057 227.042 261.057 227.81C261.057 228.578 261.207 229.224 261.505 229.746C261.804 230.269 262.199 230.658 262.689 230.914C263.18 231.17 263.713 231.298 264.289 231.298C264.855 231.298 265.377 231.17 265.857 230.914C266.348 230.658 266.743 230.269 267.041 229.746C267.34 229.224 267.489 228.578 267.489 227.81C267.489 227.042 267.34 226.397 267.041 225.874C266.743 225.341 266.348 224.946 265.857 224.69C265.377 224.434 264.855 224.306 264.289 224.306ZM274.586 223.33C275.418 223.33 276.159 223.512 276.81 223.874C277.471 224.226 277.989 224.744 278.362 225.426C278.735 226.098 278.922 226.893 278.922 227.81C278.922 228.728 278.735 229.522 278.362 230.194C277.989 230.866 277.471 231.384 276.81 231.746C276.159 232.109 275.418 232.29 274.586 232.29C273.754 232.29 273.007 232.109 272.346 231.746C271.685 231.384 271.162 230.866 270.778 230.194C270.405 229.512 270.218 228.717 270.218 227.81C270.218 226.893 270.405 226.098 270.778 225.426C271.162 224.744 271.685 224.226 272.346 223.874C273.007 223.512 273.754 223.33 274.586 223.33ZM274.586 224.306C274.01 224.306 273.477 224.434 272.986 224.69C272.495 224.946 272.101 225.341 271.802 225.874C271.503 226.397 271.354 227.042 271.354 227.81C271.354 228.578 271.503 229.224 271.802 229.746C272.101 230.269 272.495 230.658 272.986 230.914C273.477 231.17 274.01 231.298 274.586 231.298C275.151 231.298 275.674 231.17 276.154 230.914C276.645 230.658 277.039 230.269 277.338 229.746C277.637 229.224 277.786 228.578 277.786 227.81C277.786 227.042 277.637 226.397 277.338 225.874C277.039 225.341 276.645 224.946 276.154 224.69C275.674 224.434 275.151 224.306 274.586 224.306ZM282.067 220.338V232.178H280.931V220.338H282.067ZM61.4342 249.25C61.6902 248.621 62.1008 248.136 62.6662 247.794C63.2315 247.453 63.9195 247.282 64.7302 247.282V248.498H64.3622C63.5195 248.498 62.8208 248.728 62.2662 249.186C61.7115 249.634 61.4342 250.37 61.4342 251.394V256.178H60.2982V247.442H61.4342V249.25ZM70.028 255.362C70.8174 255.362 71.4787 255.165 72.012 254.77C72.5454 254.376 72.8654 253.842 72.972 253.17H74.156C73.996 254.098 73.5534 254.85 72.828 255.426C72.1027 256.002 71.1854 256.29 70.076 256.29C69.244 256.29 68.5027 256.114 67.852 255.762C67.212 255.4 66.7107 254.882 66.348 254.21C65.9854 253.528 65.804 252.728 65.804 251.81C65.804 250.893 65.9854 250.098 66.348 249.426C66.7107 248.744 67.212 248.226 67.852 247.874C68.5027 247.512 69.244 247.33 70.076 247.33C70.9294 247.33 71.6654 247.512 72.284 247.874C72.9134 248.226 73.388 248.701 73.708 249.298C74.0387 249.896 74.204 250.546 74.204 251.25C74.204 251.549 74.1827 251.821 74.14 252.066H66.908C66.9187 252.802 67.068 253.421 67.356 253.922C67.6547 254.413 68.0387 254.776 68.508 255.01C68.9774 255.245 69.484 255.362 70.028 255.362ZM70.076 248.242C69.5107 248.242 68.9934 248.36 68.524 248.594C68.0547 248.829 67.6707 249.192 67.372 249.682C67.084 250.162 66.9294 250.765 66.908 251.49H73.084C73.1267 250.776 73.0094 250.173 72.732 249.682C72.4547 249.192 72.0814 248.829 71.612 248.594C71.1427 248.36 70.6307 248.242 70.076 248.242ZM80.892 247.33C81.692 247.33 82.396 247.512 83.004 247.874C83.6227 248.226 84.1027 248.744 84.444 249.426C84.796 250.098 84.972 250.893 84.972 251.81C84.972 252.717 84.796 253.512 84.444 254.194C84.1027 254.866 83.6227 255.384 83.004 255.746C82.3854 256.109 81.6814 256.29 80.892 256.29C79.996 256.29 79.2387 256.061 78.62 255.602C78.0014 255.144 77.5747 254.536 77.34 253.778V256.178H76.22V244.338H77.34V249.842C77.5747 249.085 78.0014 248.477 78.62 248.018C79.2387 247.56 79.996 247.33 80.892 247.33ZM80.588 248.322C79.9694 248.322 79.4094 248.466 78.908 248.754C78.4174 249.042 78.0334 249.453 77.756 249.986C77.4787 250.509 77.34 251.117 77.34 251.81C77.34 252.504 77.4787 253.117 77.756 253.65C78.0334 254.173 78.4174 254.578 78.908 254.866C79.4094 255.154 79.9694 255.298 80.588 255.298C81.58 255.298 82.3694 254.989 82.956 254.37C83.5427 253.741 83.836 252.888 83.836 251.81C83.836 250.733 83.5427 249.885 82.956 249.266C82.3694 248.637 81.58 248.322 80.588 248.322ZM90.6657 247.33C91.551 247.33 92.303 247.56 92.9217 248.018C93.551 248.477 93.983 249.085 94.2177 249.842V247.442H95.3217V256.178H94.2177V253.778C93.983 254.536 93.551 255.144 92.9217 255.602C92.303 256.061 91.551 256.29 90.6657 256.29C89.8763 256.29 89.167 256.109 88.5377 255.746C87.919 255.384 87.4337 254.866 87.0817 254.194C86.7403 253.512 86.5697 252.717 86.5697 251.81C86.5697 250.893 86.7403 250.098 87.0817 249.426C87.4337 248.744 87.919 248.226 88.5377 247.874C89.1563 247.512 89.8657 247.33 90.6657 247.33ZM90.9537 248.322C89.9723 248.322 89.183 248.637 88.5857 249.266C87.999 249.885 87.7057 250.733 87.7057 251.81C87.7057 252.888 87.999 253.741 88.5857 254.37C89.183 254.989 89.9723 255.298 90.9537 255.298C91.5723 255.298 92.127 255.154 92.6177 254.866C93.119 254.578 93.5083 254.173 93.7857 253.65C94.0737 253.117 94.2177 252.504 94.2177 251.81C94.2177 251.117 94.0737 250.509 93.7857 249.986C93.5083 249.453 93.119 249.042 92.6177 248.754C92.127 248.466 91.5723 248.322 90.9537 248.322ZM98.8873 244.338V256.178H97.7513V244.338H98.8873ZM104.994 247.33C105.879 247.33 106.631 247.56 107.25 248.018C107.879 248.477 108.311 249.085 108.546 249.842V247.442H109.65V256.178H108.546V253.778C108.311 254.536 107.879 255.144 107.25 255.602C106.631 256.061 105.879 256.29 104.994 256.29C104.204 256.29 103.495 256.109 102.866 255.746C102.247 255.384 101.762 254.866 101.41 254.194C101.068 253.512 100.898 252.717 100.898 251.81C100.898 250.893 101.068 250.098 101.41 249.426C101.762 248.744 102.247 248.226 102.866 247.874C103.484 247.512 104.194 247.33 104.994 247.33ZM105.282 248.322C104.3 248.322 103.511 248.637 102.914 249.266C102.327 249.885 102.034 250.733 102.034 251.81C102.034 252.888 102.327 253.741 102.914 254.37C103.511 254.989 104.3 255.298 105.282 255.298C105.9 255.298 106.455 255.154 106.946 254.866C107.447 254.578 107.836 254.173 108.114 253.65C108.402 253.117 108.546 252.504 108.546 251.81C108.546 251.117 108.402 250.509 108.114 249.986C107.836 249.453 107.447 249.042 106.946 248.754C106.455 248.466 105.9 248.322 105.282 248.322ZM116.447 247.282C117.461 247.282 118.282 247.608 118.911 248.258C119.551 248.898 119.871 249.842 119.871 251.09V256.178H118.767V251.17C118.767 250.221 118.527 249.496 118.047 248.994C117.567 248.482 116.911 248.226 116.079 248.226C115.205 248.226 114.506 248.509 113.983 249.074C113.471 249.629 113.215 250.45 113.215 251.538V256.178H112.079V247.442H113.215V249.586C113.439 248.84 113.845 248.269 114.431 247.874C115.018 247.48 115.69 247.282 116.447 247.282ZM126.092 247.33C127.201 247.33 128.118 247.624 128.844 248.21C129.58 248.797 130.028 249.576 130.188 250.546H129.02C128.902 249.853 128.577 249.309 128.044 248.914C127.51 248.509 126.854 248.306 126.076 248.306C125.51 248.306 124.988 248.434 124.508 248.69C124.038 248.946 123.66 249.341 123.372 249.874C123.094 250.397 122.956 251.042 122.956 251.81C122.956 252.578 123.094 253.229 123.372 253.762C123.66 254.285 124.038 254.674 124.508 254.93C124.988 255.186 125.51 255.314 126.076 255.314C126.854 255.314 127.51 255.117 128.044 254.722C128.577 254.317 128.902 253.768 129.02 253.074H130.188C130.028 254.045 129.58 254.824 128.844 255.41C128.118 255.997 127.201 256.29 126.092 256.29C125.26 256.29 124.518 256.114 123.868 255.762C123.228 255.4 122.726 254.882 122.364 254.21C122.001 253.528 121.82 252.728 121.82 251.81C121.82 250.893 122.001 250.098 122.364 249.426C122.726 248.744 123.228 248.226 123.868 247.874C124.518 247.512 125.26 247.33 126.092 247.33ZM131.948 244.85C131.948 244.616 132.023 244.429 132.172 244.29C132.332 244.152 132.535 244.082 132.78 244.082C133.026 244.082 133.223 244.152 133.372 244.29C133.522 244.429 133.596 244.616 133.596 244.85C133.596 245.074 133.522 245.256 133.372 245.394C133.223 245.533 133.026 245.602 132.78 245.602C132.535 245.602 132.332 245.533 132.172 245.394C132.023 245.256 131.948 245.074 131.948 244.85ZM133.34 247.442V256.178H132.204V247.442H133.34ZM140.135 247.282C141.148 247.282 141.97 247.608 142.599 248.258C143.239 248.898 143.559 249.842 143.559 251.09V256.178H142.455V251.17C142.455 250.221 142.215 249.496 141.735 248.994C141.255 248.482 140.599 248.226 139.767 248.226C138.892 248.226 138.194 248.509 137.671 249.074C137.159 249.629 136.903 250.45 136.903 251.538V256.178H135.767V247.442H136.903V249.586C137.127 248.84 137.532 248.269 138.119 247.874C138.706 247.48 139.378 247.282 140.135 247.282ZM149.603 247.33C150.488 247.33 151.24 247.56 151.859 248.018C152.488 248.477 152.92 249.085 153.155 249.842V247.442H154.259V256.386C154.259 257.197 154.088 257.906 153.747 258.514C153.406 259.133 152.931 259.608 152.323 259.938C151.715 260.28 151.022 260.45 150.243 260.45C149.102 260.45 148.163 260.173 147.427 259.618C146.702 259.074 146.227 258.333 146.003 257.394H147.123C147.315 258.034 147.667 258.541 148.179 258.914C148.702 259.288 149.368 259.474 150.179 259.474C150.734 259.474 151.235 259.352 151.683 259.106C152.142 258.872 152.499 258.52 152.755 258.05C153.022 257.581 153.155 257.026 153.155 256.386V253.778C152.92 254.536 152.488 255.144 151.859 255.602C151.24 256.061 150.488 256.29 149.603 256.29C148.814 256.29 148.104 256.109 147.475 255.746C146.856 255.384 146.371 254.866 146.019 254.194C145.678 253.512 145.507 252.717 145.507 251.81C145.507 250.893 145.678 250.098 146.019 249.426C146.371 248.744 146.856 248.226 147.475 247.874C148.094 247.512 148.803 247.33 149.603 247.33ZM149.891 248.322C148.91 248.322 148.12 248.637 147.523 249.266C146.936 249.885 146.643 250.733 146.643 251.81C146.643 252.888 146.936 253.741 147.523 254.37C148.12 254.989 148.91 255.298 149.891 255.298C150.51 255.298 151.064 255.154 151.555 254.866C152.056 254.578 152.446 254.173 152.723 253.65C153.011 253.117 153.155 252.504 153.155 251.81C153.155 251.117 153.011 250.509 152.723 249.986C152.446 249.453 152.056 249.042 151.555 248.754C151.064 248.466 150.51 248.322 149.891 248.322ZM160.589 244.85C160.589 244.616 160.664 244.429 160.813 244.29C160.973 244.152 161.176 244.082 161.421 244.082C161.666 244.082 161.864 244.152 162.013 244.29C162.162 244.429 162.237 244.616 162.237 244.85C162.237 245.074 162.162 245.256 162.013 245.394C161.864 245.533 161.666 245.602 161.421 245.602C161.176 245.602 160.973 245.533 160.813 245.394C160.664 245.256 160.589 245.074 160.589 244.85ZM161.981 247.442V256.178H160.845V247.442H161.981ZM168.776 247.282C169.789 247.282 170.61 247.608 171.24 248.258C171.88 248.898 172.2 249.842 172.2 251.09V256.178H171.096V251.17C171.096 250.221 170.856 249.496 170.376 248.994C169.896 248.482 169.24 248.226 168.408 248.226C167.533 248.226 166.834 248.509 166.312 249.074C165.8 249.629 165.544 250.45 165.544 251.538V256.178H164.408V247.442H165.544V249.586C165.768 248.84 166.173 248.269 166.76 247.874C167.346 247.48 168.018 247.282 168.776 247.282ZM179.856 244.338V256.178H178.72V244.338H179.856ZM182.027 244.85C182.027 244.616 182.101 244.429 182.251 244.29C182.411 244.152 182.613 244.082 182.859 244.082C183.104 244.082 183.301 244.152 183.451 244.29C183.6 244.429 183.675 244.616 183.675 244.85C183.675 245.074 183.6 245.256 183.451 245.394C183.301 245.533 183.104 245.602 182.859 245.602C182.613 245.602 182.411 245.533 182.251 245.394C182.101 245.256 182.027 245.074 182.027 244.85ZM183.419 247.442V256.178H182.283V247.442H183.419ZM190.213 247.282C191.226 247.282 192.048 247.608 192.677 248.258C193.317 248.898 193.637 249.842 193.637 251.09V256.178H192.533V251.17C192.533 250.221 192.293 249.496 191.813 248.994C191.333 248.482 190.677 248.226 189.845 248.226C188.97 248.226 188.272 248.509 187.749 249.074C187.237 249.629 186.981 250.45 186.981 251.538V256.178H185.845V247.442H186.981V249.586C187.205 248.84 187.61 248.269 188.197 247.874C188.784 247.48 189.456 247.282 190.213 247.282ZM199.809 255.362C200.599 255.362 201.26 255.165 201.793 254.77C202.327 254.376 202.647 253.842 202.753 253.17H203.937C203.777 254.098 203.335 254.85 202.609 255.426C201.884 256.002 200.967 256.29 199.857 256.29C199.025 256.29 198.284 256.114 197.633 255.762C196.993 255.4 196.492 254.882 196.129 254.21C195.767 253.528 195.585 252.728 195.585 251.81C195.585 250.893 195.767 250.098 196.129 249.426C196.492 248.744 196.993 248.226 197.633 247.874C198.284 247.512 199.025 247.33 199.857 247.33C200.711 247.33 201.447 247.512 202.065 247.874C202.695 248.226 203.169 248.701 203.489 249.298C203.82 249.896 203.985 250.546 203.985 251.25C203.985 251.549 203.964 251.821 203.921 252.066H196.689C196.7 252.802 196.849 253.421 197.137 253.922C197.436 254.413 197.82 254.776 198.289 255.01C198.759 255.245 199.265 255.362 199.809 255.362ZM199.857 248.242C199.292 248.242 198.775 248.36 198.305 248.594C197.836 248.829 197.452 249.192 197.153 249.682C196.865 250.162 196.711 250.765 196.689 251.49H202.865C202.908 250.776 202.791 250.173 202.513 249.682C202.236 249.192 201.863 248.829 201.393 248.594C200.924 248.36 200.412 248.242 199.857 248.242ZM221.966 247.442L219.39 256.178H218.206L215.582 248.754L212.926 256.178H211.758L209.182 247.442H210.318L212.398 255.01L215.022 247.442H216.174L218.814 255.01L220.878 247.442H221.966ZM223.152 244.85C223.152 244.616 223.226 244.429 223.376 244.29C223.536 244.152 223.738 244.082 223.984 244.082C224.229 244.082 224.426 244.152 224.576 244.29C224.725 244.429 224.8 244.616 224.8 244.85C224.8 245.074 224.725 245.256 224.576 245.394C224.426 245.533 224.229 245.602 223.984 245.602C223.738 245.602 223.536 245.533 223.376 245.394C223.226 245.256 223.152 245.074 223.152 244.85ZM224.544 247.442V256.178H223.408V247.442H224.544ZM230.938 255.186V256.178H229.898C229.055 256.178 228.426 255.981 228.01 255.586C227.594 255.181 227.386 254.504 227.386 253.554V248.418H226.058V247.442H227.386V245.234H228.522V247.442H230.922V248.418H228.522V253.57C228.522 254.189 228.634 254.616 228.858 254.85C229.082 255.074 229.477 255.186 230.042 255.186H230.938ZM237.151 247.282C238.164 247.282 238.985 247.608 239.615 248.258C240.255 248.898 240.575 249.842 240.575 251.09V256.178H239.471V251.17C239.471 250.221 239.231 249.496 238.751 248.994C238.271 248.482 237.615 248.226 236.783 248.226C235.908 248.226 235.209 248.509 234.687 249.074C234.175 249.629 233.919 250.45 233.919 251.538V256.178H232.783V244.338H233.919V249.586C234.143 248.84 234.548 248.269 235.135 247.874C235.721 247.48 236.393 247.282 237.151 247.282ZM253.143 256.178L250.055 251.474H248.231V256.178H247.095V244.898H250.551C251.82 244.898 252.764 245.197 253.383 245.794C254.012 246.392 254.327 247.197 254.327 248.21C254.327 249.149 254.06 249.896 253.527 250.45C253.004 251.005 252.242 251.336 251.239 251.442L254.423 256.178H253.143ZM248.231 250.626H250.471C252.284 250.626 253.191 249.842 253.191 248.274C253.191 246.674 252.284 245.874 250.471 245.874H248.231V250.626ZM257.34 245.81V250.066H261.74V250.946H257.34V255.25H262.22V256.178H256.204V244.898H262.22V245.81H257.34ZM265.309 244.898V256.178H264.173V244.898H265.309ZM272.824 244.802C274.104 244.802 275.186 245.122 276.072 245.762C276.957 246.402 277.565 247.272 277.896 248.37H276.728C276.44 247.613 275.949 247 275.256 246.53C274.573 246.061 273.762 245.826 272.824 245.826C272.013 245.826 271.277 246.018 270.616 246.402C269.965 246.786 269.453 247.336 269.08 248.05C268.706 248.765 268.52 249.597 268.52 250.546C268.52 251.517 268.706 252.36 269.08 253.074C269.464 253.789 269.986 254.338 270.648 254.722C271.32 255.106 272.082 255.298 272.936 255.298C273.693 255.298 274.386 255.133 275.016 254.802C275.645 254.461 276.152 253.97 276.536 253.33C276.93 252.69 277.16 251.938 277.224 251.074H272.536V250.226H278.2V251.218C278.125 252.178 277.853 253.042 277.384 253.81C276.925 254.578 276.301 255.186 275.512 255.634C274.733 256.072 273.842 256.29 272.84 256.29C271.773 256.29 270.824 256.05 269.992 255.57C269.16 255.08 268.514 254.397 268.056 253.522C267.597 252.648 267.368 251.656 267.368 250.546C267.368 249.437 267.597 248.445 268.056 247.57C268.514 246.696 269.154 246.018 269.976 245.538C270.808 245.048 271.757 244.802 272.824 244.802ZM288.699 256.178H287.563L281.387 246.754V256.178H280.251V244.914H281.387L287.563 254.354V244.914H288.699V256.178ZM154.218 278.914L157.146 271.442H158.362L154.842 280.178H153.562L150.042 271.442H151.258L154.218 278.914ZM163.797 271.33C164.629 271.33 165.37 271.512 166.021 271.874C166.682 272.226 167.2 272.744 167.573 273.426C167.946 274.098 168.133 274.893 168.133 275.81C168.133 276.728 167.946 277.522 167.573 278.194C167.2 278.866 166.682 279.384 166.021 279.746C165.37 280.109 164.629 280.29 163.797 280.29C162.965 280.29 162.218 280.109 161.557 279.746C160.896 279.384 160.373 278.866 159.989 278.194C159.616 277.512 159.429 276.717 159.429 275.81C159.429 274.893 159.616 274.098 159.989 273.426C160.373 272.744 160.896 272.226 161.557 271.874C162.218 271.512 162.965 271.33 163.797 271.33ZM163.797 272.306C163.221 272.306 162.688 272.434 162.197 272.69C161.706 272.946 161.312 273.341 161.013 273.874C160.714 274.397 160.565 275.042 160.565 275.81C160.565 276.578 160.714 277.224 161.013 277.746C161.312 278.269 161.706 278.658 162.197 278.914C162.688 279.17 163.221 279.298 163.797 279.298C164.362 279.298 164.885 279.17 165.365 278.914C165.856 278.658 166.25 278.269 166.549 277.746C166.848 277.224 166.997 276.578 166.997 275.81C166.997 275.042 166.848 274.397 166.549 273.874C166.25 273.341 165.856 272.946 165.365 272.69C164.885 272.434 164.362 272.306 163.797 272.306ZM174.11 279.186V280.178H173.07C172.227 280.178 171.598 279.981 171.182 279.586C170.766 279.181 170.558 278.504 170.558 277.554V272.418H169.23V271.442H170.558V269.234H171.694V271.442H174.094V272.418H171.694V277.57C171.694 278.189 171.806 278.616 172.03 278.85C172.254 279.074 172.649 279.186 173.214 279.186H174.11ZM175.698 268.85C175.698 268.616 175.773 268.429 175.922 268.29C176.082 268.152 176.285 268.082 176.53 268.082C176.776 268.082 176.973 268.152 177.122 268.29C177.272 268.429 177.346 268.616 177.346 268.85C177.346 269.074 177.272 269.256 177.122 269.394C176.973 269.533 176.776 269.602 176.53 269.602C176.285 269.602 176.082 269.533 175.922 269.394C175.773 269.256 175.698 269.074 175.698 268.85ZM177.09 271.442V280.178H175.954V271.442H177.09ZM183.885 271.282C184.898 271.282 185.72 271.608 186.349 272.258C186.989 272.898 187.309 273.842 187.309 275.09V280.178H186.205V275.17C186.205 274.221 185.965 273.496 185.485 272.994C185.005 272.482 184.349 272.226 183.517 272.226C182.642 272.226 181.944 272.509 181.421 273.074C180.909 273.629 180.653 274.45 180.653 275.538V280.178H179.517V271.442H180.653V273.586C180.877 272.84 181.282 272.269 181.869 271.874C182.456 271.48 183.128 271.282 183.885 271.282ZM193.353 271.33C194.238 271.33 194.99 271.56 195.609 272.018C196.238 272.477 196.67 273.085 196.905 273.842V271.442H198.009V280.386C198.009 281.197 197.838 281.906 197.497 282.514C197.156 283.133 196.681 283.608 196.073 283.938C195.465 284.28 194.772 284.45 193.993 284.45C192.852 284.45 191.913 284.173 191.177 283.618C190.452 283.074 189.977 282.333 189.753 281.394H190.873C191.065 282.034 191.417 282.541 191.929 282.914C192.452 283.288 193.118 283.474 193.929 283.474C194.484 283.474 194.985 283.352 195.433 283.106C195.892 282.872 196.249 282.52 196.505 282.05C196.772 281.581 196.905 281.026 196.905 280.386V277.778C196.67 278.536 196.238 279.144 195.609 279.602C194.99 280.061 194.238 280.29 193.353 280.29C192.564 280.29 191.854 280.109 191.225 279.746C190.606 279.384 190.121 278.866 189.769 278.194C189.428 277.512 189.257 276.717 189.257 275.81C189.257 274.893 189.428 274.098 189.769 273.426C190.121 272.744 190.606 272.226 191.225 271.874C191.844 271.512 192.553 271.33 193.353 271.33ZM193.641 272.322C192.66 272.322 191.87 272.637 191.273 273.266C190.686 273.885 190.393 274.733 190.393 275.81C190.393 276.888 190.686 277.741 191.273 278.37C191.87 278.989 192.66 279.298 193.641 279.298C194.26 279.298 194.814 279.154 195.305 278.866C195.806 278.578 196.196 278.173 196.473 277.65C196.761 277.117 196.905 276.504 196.905 275.81C196.905 275.117 196.761 274.509 196.473 273.986C196.196 273.453 195.806 273.042 195.305 272.754C194.814 272.466 194.26 272.322 193.641 272.322Z" fill="white"/>
<defs>
<filter id="filter0_f" x="0.418091" y="63.0139" width="343" height="285.609" filterUnits="userSpaceOnUse" color-interpolation-filters="sRGB">
<feFlood flood-opacity="0" result="BackgroundImageFix"/>
<feBlend mode="normal" in="SourceGraphic" in2="BackgroundImageFix" result="shape"/>
<feGaussianBlur stdDeviation="7" result="effect1_foregroundBlur"/>
</filter>
<filter id="filter1_f" x="80.1582" y="70.3883" width="28.251" height="28.251" filterUnits="userSpaceOnUse" color-interpolation-filters="sRGB">
<feFlood flood-opacity="0" result="BackgroundImageFix"/>
<feBlend mode="normal" in="SourceGraphic" in2="BackgroundImageFix" result="shape"/>
<feGaussianBlur stdDeviation="5.5" result="effect1_foregroundBlur"/>
</filter>
<filter id="filter2_f" x="235.621" y="70.3883" width="28.251" height="28.251" filterUnits="userSpaceOnUse" color-interpolation-filters="sRGB">
<feFlood flood-opacity="0" result="BackgroundImageFix"/>
<feBlend mode="normal" in="SourceGraphic" in2="BackgroundImageFix" result="shape"/>
<feGaussianBlur stdDeviation="5.5" result="effect1_foregroundBlur"/>
</filter>
<filter id="filter3_f" x="12.9181" y="74.2635" width="318" height="260.609" filterUnits="userSpaceOnUse" color-interpolation-filters="sRGB">
<feFlood flood-opacity="0" result="BackgroundImageFix"/>
<feBlend mode="normal" in="SourceGraphic" in2="BackgroundImageFix" result="shape"/>
<feGaussianBlur stdDeviation="3" result="effect1_foregroundBlur"/>
</filter>
<filter id="filter4_f" x="88.469" y="77.3883" width="11.7506" height="11.7506" filterUnits="userSpaceOnUse" color-interpolation-filters="sRGB">
<feFlood flood-opacity="0" result="BackgroundImageFix"/>
<feBlend mode="normal" in="SourceGraphic" in2="BackgroundImageFix" result="shape"/>
<feGaussianBlur stdDeviation="2" result="effect1_foregroundBlur"/>
</filter>
<filter id="filter5_f" x="243.743" y="77.3883" width="11.7506" height="11.7506" filterUnits="userSpaceOnUse" color-interpolation-filters="sRGB">
<feFlood flood-opacity="0" result="BackgroundImageFix"/>
<feBlend mode="normal" in="SourceGraphic" in2="BackgroundImageFix" result="shape"/>
<feGaussianBlur stdDeviation="2" result="effect1_foregroundBlur"/>
</filter>
<linearGradient id="paint0_linear" x1="286.93" y1="202.067" x2="50.555" y2="202.302" gradientUnits="userSpaceOnUse">
<stop stop-color="#FF168A"/>
<stop offset="0.315399" stop-color="#FABA33"/>
<stop offset="0.573227" stop-color="#E9E031"/>
<stop offset="0.826995" stop-color="#45F273"/>
<stop offset="1" stop-color="#30FFE9"/>
</linearGradient>
<linearGradient id="paint1_linear" x1="286.93" y1="200.816" x2="50.555" y2="201.052" gradientUnits="userSpaceOnUse">
<stop stop-color="#FF168A"/>
<stop offset="0.315399" stop-color="#FABA33"/>
<stop offset="0.573227" stop-color="#E9E031"/>
<stop offset="0.826995" stop-color="#45F273"/>
<stop offset="1" stop-color="#30FFE9"/>
</linearGradient>
</defs>
</svg>
