<svg width="227" height="227" viewBox="0 0 227 227" fill="none" xmlns="http://www.w3.org/2000/svg">
<g filter="url(#filter0_f)">
<path d="M66.5267 158.003H65.2841L64.4054 158.881L15.6318 207.655V26.2655C15.6318 20.5118 20.3519 15.7917 26.1056 15.7917H201.264C207.018 15.7917 211.738 20.5118 211.738 26.2655V147.529C211.738 153.283 207.018 158.003 201.264 158.003H66.5267Z" stroke="url(#paint0_linear)" stroke-width="6"/>
</g>
<g filter="url(#filter1_f)">
<path d="M66.5267 159.503H65.9054L65.4661 159.942L14.1318 211.276V26.2655C14.1318 19.6834 19.5234 14.2917 26.1056 14.2917H201.264C207.846 14.2917 213.238 19.6834 213.238 26.2655V147.529C213.238 154.111 207.846 159.503 201.264 159.503H66.5267Z" stroke="url(#paint1_linear)" stroke-width="3"/>
</g>
<path d="M66.5267 160.503H66.3196L66.1732 160.649L13.1318 213.691V26.2655C13.1318 19.1311 18.9712 13.2917 26.1056 13.2917H201.264C208.398 13.2917 214.238 19.1311 214.238 26.2655V147.529C214.238 154.663 208.398 160.503 201.264 160.503H66.5267Z" stroke="white"/>
<path d="M82.6446 71.0044H83.6446V70.0044H82.6446V71.0044ZM82.6446 77.5324V78.5324H83.6446V77.5324H82.6446ZM68.7246 77.5324V76.5324H67.7246V77.5324H68.7246ZM68.7246 84.9724H67.7246V85.9724H68.7246V84.9724ZM79.4766 84.9724H80.4766V83.9724H79.4766V84.9724ZM79.4766 91.2124V92.2124H80.4766V91.2124H79.4766ZM68.7246 91.2124V90.2124H67.7246V91.2124H68.7246ZM68.7246 104.94V105.94H69.7246V104.94H68.7246ZM60.5166 104.94H59.5166V105.94H60.5166V104.94ZM60.5166 71.0044V70.0044H59.5166V71.0044H60.5166ZM81.6446 71.0044V77.5324H83.6446V71.0044H81.6446ZM82.6446 76.5324H68.7246V78.5324H82.6446V76.5324ZM67.7246 77.5324V84.9724H69.7246V77.5324H67.7246ZM68.7246 85.9724H79.4766V83.9724H68.7246V85.9724ZM78.4766 84.9724V91.2124H80.4766V84.9724H78.4766ZM79.4766 90.2124H68.7246V92.2124H79.4766V90.2124ZM67.7246 91.2124V104.94H69.7246V91.2124H67.7246ZM68.7246 103.94H60.5166V105.94H68.7246V103.94ZM61.5166 104.94V71.0044H59.5166V104.94H61.5166ZM60.5166 72.0044H82.6446V70.0044H60.5166V72.0044ZM114.124 98.7484L115.071 98.4256L114.84 97.7484H114.124V98.7484ZM101.404 98.7484V97.7484H100.689L100.458 98.4256L101.404 98.7484ZM99.2923 104.94V105.94H100.008L100.239 105.263L99.2923 104.94ZM90.6523 104.94L89.7141 104.594L89.2175 105.94H90.6523V104.94ZM103.084 71.2444V70.2444H102.387L102.146 70.8983L103.084 71.2444ZM112.54 71.2444L113.479 70.8983L113.237 70.2444H112.54V71.2444ZM124.972 104.94V105.94H126.407L125.911 104.594L124.972 104.94ZM116.236 104.94L115.29 105.263L115.521 105.94H116.236V104.94ZM112.012 92.5084V93.5084H113.407L112.96 92.1878L112.012 92.5084ZM107.788 80.0284L108.736 79.7078L107.794 76.925L106.842 79.7046L107.788 80.0284ZM103.516 92.5084L102.57 92.1846L102.117 93.5084H103.516V92.5084ZM114.124 97.7484H101.404V99.7484H114.124V97.7484ZM100.458 98.4256L98.3459 104.618L100.239 105.263L102.351 99.0713L100.458 98.4256ZM99.2923 103.94H90.6523V105.94H99.2923V103.94ZM91.5905 105.287L104.023 71.5906L102.146 70.8983L89.7141 104.594L91.5905 105.287ZM103.084 72.2444H112.54V70.2444H103.084V72.2444ZM111.602 71.5906L124.034 105.287L125.911 104.594L113.479 70.8983L111.602 71.5906ZM124.972 103.94H116.236V105.94H124.972V103.94ZM117.183 104.618L115.071 98.4256L113.178 99.0713L115.29 105.263L117.183 104.618ZM112.96 92.1878L108.736 79.7078L106.841 80.349L111.065 92.829L112.96 92.1878ZM106.842 79.7046L102.57 92.1846L104.462 92.8323L108.734 80.3523L106.842 79.7046ZM103.516 93.5084H112.012V91.5084H103.516V93.5084ZM158.643 110.892L157.837 111.485L158.137 111.892H158.643V110.892ZM154.227 104.892L155.032 104.3L154.655 103.787L154.031 103.912L154.227 104.892ZM141.843 103.068L141.341 103.933L141.347 103.937L141.354 103.941L141.843 103.068ZM135.651 96.8284L134.781 97.3212L134.785 97.3291L135.651 96.8284ZM135.651 78.9244L134.785 78.4238L134.783 78.4271L135.651 78.9244ZM141.843 72.7324L142.337 73.602L142.34 73.6L141.843 72.7324ZM159.219 72.7324L158.717 73.5974L158.723 73.601L158.73 73.6046L159.219 72.7324ZM165.411 78.9244L164.541 79.4172L164.543 79.4217L165.411 78.9244ZM165.843 95.9164L164.948 95.4692L164.944 95.4787L165.843 95.9164ZM160.899 101.916L160.303 101.114L159.448 101.748L160.135 102.562L160.899 101.916ZM168.483 110.892V111.892H170.637L169.247 110.247L168.483 110.892ZM144.099 94.9564L143.352 95.6217L143.359 95.6291L144.099 94.9564ZM156.915 94.9564L156.175 94.2838L156.915 94.9564ZM156.915 80.7484L156.168 81.4137L156.175 81.4211L156.915 80.7484ZM144.099 80.7484L143.359 80.0758L143.358 80.0764L144.099 80.7484ZM159.448 110.3L155.032 104.3L153.421 105.485L157.837 111.485L159.448 110.3ZM154.031 103.912C152.809 104.156 151.643 104.276 150.531 104.276V106.276C151.787 106.276 153.085 106.141 154.423 105.873L154.031 103.912ZM150.531 104.276C147.525 104.276 144.799 103.58 142.332 102.196L141.354 103.941C144.135 105.501 147.201 106.276 150.531 106.276V104.276ZM142.345 102.203C139.907 100.789 137.967 98.8365 136.516 96.3278L134.785 97.3291C136.406 100.132 138.594 102.34 141.341 103.933L142.345 102.203ZM136.521 96.3357C135.11 93.8433 134.395 91.0238 134.395 87.8524H132.395C132.395 91.3371 133.184 94.5015 134.781 97.3212L136.521 96.3357ZM134.395 87.8524C134.395 84.6809 135.11 81.8795 136.518 79.4217L134.783 78.4271C133.184 81.2174 132.395 84.3679 132.395 87.8524H134.395ZM136.516 79.4251C137.966 76.9182 139.904 74.9836 142.337 73.602L141.349 71.8629C138.598 73.4253 136.407 75.6187 134.785 78.4238L136.516 79.4251ZM142.34 73.6C144.805 72.187 147.529 71.4764 150.531 71.4764V69.4764C147.197 69.4764 144.128 70.2699 141.346 71.8648L142.34 73.6ZM150.531 71.4764C153.567 71.4764 156.288 72.1878 158.717 73.5974L159.721 71.8675C156.966 70.269 153.895 69.4764 150.531 69.4764V71.4764ZM158.73 73.6046C161.192 74.9859 163.125 76.9176 164.541 79.4172L166.281 78.4317C164.688 75.6192 162.494 73.423 159.708 71.8603L158.73 73.6046ZM164.543 79.4217C165.952 81.8795 166.667 84.6809 166.667 87.8524H168.667C168.667 84.3679 167.878 81.2174 166.278 78.4271L164.543 79.4217ZM166.667 87.8524C166.667 90.6543 166.089 93.1873 164.948 95.4692L166.737 96.3636C168.028 93.7815 168.667 90.9386 168.667 87.8524H166.667ZM164.944 95.4787C163.828 97.7707 162.282 99.6439 160.303 101.114L161.495 102.719C163.739 101.053 165.49 98.9262 166.742 96.3542L164.944 95.4787ZM160.135 102.562L167.719 111.538L169.247 110.247L161.663 101.271L160.135 102.562ZM168.483 109.892H158.643V111.892H168.483V109.892ZM140.747 87.8524C140.747 91.0071 141.582 93.6342 143.352 95.6216L144.845 94.2912C143.48 92.7587 142.747 90.6498 142.747 87.8524H140.747ZM143.359 95.6291C145.174 97.6258 147.602 98.5964 150.531 98.5964V96.5964C148.084 96.5964 146.224 95.807 144.839 94.2838L143.359 95.6291ZM150.531 98.5964C153.432 98.5964 155.842 97.6231 157.655 95.6291L156.175 94.2838C154.788 95.8097 152.942 96.5964 150.531 96.5964V98.5964ZM157.655 95.6291C159.461 93.642 160.315 91.0122 160.315 87.8524H158.315C158.315 90.6447 157.568 92.7509 156.175 94.2838L157.655 95.6291ZM160.315 87.8524C160.315 84.6927 159.461 82.0629 157.655 80.0758L156.175 81.4211C157.568 82.954 158.315 85.0602 158.315 87.8524H160.315ZM157.661 80.0832C155.876 78.0792 153.46 77.1084 150.531 77.1084V79.1084C152.978 79.1084 154.818 79.8976 156.168 81.4136L157.661 80.0832ZM150.531 77.1084C147.602 77.1084 145.174 78.079 143.359 80.0758L144.839 81.4211C146.224 79.8978 148.084 79.1084 150.531 79.1084V77.1084ZM143.358 80.0764C141.579 82.0367 140.747 84.67 140.747 87.8524H142.747C142.747 85.0189 143.482 82.9161 144.839 81.4204L143.358 80.0764Z" fill="white"/>
<defs>
<filter id="filter0_f" x="0.631836" y="0.791748" width="226.106" height="226.106" filterUnits="userSpaceOnUse" color-interpolation-filters="sRGB">
<feFlood flood-opacity="0" result="BackgroundImageFix"/>
<feBlend mode="normal" in="SourceGraphic" in2="BackgroundImageFix" result="shape"/>
<feGaussianBlur stdDeviation="6" result="effect1_foregroundBlur"/>
</filter>
<filter id="filter1_f" x="6.63184" y="6.79175" width="214.106" height="214.106" filterUnits="userSpaceOnUse" color-interpolation-filters="sRGB">
<feFlood flood-opacity="0" result="BackgroundImageFix"/>
<feBlend mode="normal" in="SourceGraphic" in2="BackgroundImageFix" result="shape"/>
<feGaussianBlur stdDeviation="3" result="effect1_foregroundBlur"/>
</filter>
<linearGradient id="paint0_linear" x1="191.166" y1="110.719" x2="31.9241" y2="110.848" gradientUnits="userSpaceOnUse">
<stop stop-color="#FF1640"/>
<stop offset="0.315399" stop-color="#FABA33"/>
<stop offset="0.573227" stop-color="#E9E031"/>
<stop offset="0.826995" stop-color="#45F273"/>
<stop offset="1" stop-color="#30FFE9"/>
</linearGradient>
<linearGradient id="paint1_linear" x1="191.166" y1="110.719" x2="31.9241" y2="110.848" gradientUnits="userSpaceOnUse">
<stop stop-color="#FF1640"/>
<stop offset="0.315399" stop-color="#FABA33"/>
<stop offset="0.573227" stop-color="#E9E031"/>
<stop offset="0.826995" stop-color="#45F273"/>
<stop offset="1" stop-color="#30FFE9"/>
</linearGradient>
</defs>
</svg>
