<svg width="246" height="265" viewBox="0 0 246 265" fill="none" xmlns="http://www.w3.org/2000/svg">
<path d="M32.9997 67.7644V70.2644V67.7644ZM240.5 97.7644V231.851H245.5V97.7644H240.5ZM213 259.351H32.9998V264.351H213V259.351ZM5.49976 231.851V97.7644H0.499756V231.851H5.49976ZM32.9997 70.2644L60.9286 70.2644V65.2644L32.9997 65.2644V70.2644ZM185.167 70.2644H213V65.2644H185.167V70.2644ZM32.9998 259.351C17.8119 259.351 5.49976 247.039 5.49976 231.851H0.499756C0.499756 249.801 15.0505 264.351 32.9998 264.351V259.351ZM240.5 231.851C240.5 247.039 228.188 259.351 213 259.351V264.351C230.949 264.351 245.5 249.801 245.5 231.851H240.5ZM245.5 97.7644C245.5 79.8152 230.949 65.2644 213 65.2644V70.2644C228.188 70.2644 240.5 82.5766 240.5 97.7644H245.5ZM5.49976 97.7644C5.49976 82.5766 17.8119 70.2644 32.9997 70.2644V65.2644C15.0505 65.2644 0.499756 79.8152 0.499756 97.7644H5.49976Z" fill="url(#paint0_linear)"/>
<circle cx="60.8918" cy="67.7644" r="2.5" fill="#48F272"/>
<circle cx="185.262" cy="67.7644" r="2.5" fill="#FD6461"/>
<path d="M34.0198 154.092V160.044H29.9158V143.076H36.5638C38.5798 143.076 40.1158 143.58 41.1718 144.588C42.2278 145.58 42.7558 146.924 42.7558 148.62C42.7558 149.676 42.5158 150.62 42.0358 151.452C41.5718 152.268 40.8758 152.916 39.9478 153.396C39.0198 153.86 37.8918 154.092 36.5638 154.092H34.0198ZM36.1078 150.804C37.7558 150.804 38.5798 150.076 38.5798 148.62C38.5798 147.132 37.7558 146.388 36.1078 146.388H34.0198V150.804H36.1078ZM49.8631 146.484C50.8871 146.484 51.7671 146.716 52.5031 147.18C53.2391 147.644 53.7831 148.276 54.1351 149.076V146.652H58.2151V160.044H54.1351V157.62C53.7831 158.42 53.2391 159.052 52.5031 159.516C51.7671 159.98 50.8871 160.212 49.8631 160.212C48.7591 160.212 47.7671 159.94 46.8871 159.396C46.0231 158.836 45.3351 158.036 44.8231 156.996C44.3271 155.956 44.0791 154.74 44.0791 153.348C44.0791 151.94 44.3271 150.724 44.8231 149.7C45.3351 148.66 46.0231 147.868 46.8871 147.324C47.7671 146.764 48.7591 146.484 49.8631 146.484ZM51.1831 150.084C50.3031 150.084 49.5911 150.372 49.0471 150.948C48.5191 151.524 48.2551 152.324 48.2551 153.348C48.2551 154.372 48.5191 155.172 49.0471 155.748C49.5911 156.324 50.3031 156.612 51.1831 156.612C52.0471 156.612 52.7511 156.316 53.2951 155.724C53.8551 155.132 54.1351 154.34 54.1351 153.348C54.1351 152.34 53.8551 151.548 53.2951 150.972C52.7511 150.38 52.0471 150.084 51.1831 150.084ZM65.9128 146.484C67.6088 146.484 68.9608 146.908 69.9688 147.756C70.9928 148.604 71.6328 149.724 71.8888 151.116H68.0488C67.9368 150.572 67.6808 150.148 67.2808 149.844C66.8968 149.524 66.4088 149.364 65.8168 149.364C65.3528 149.364 65.0008 149.468 64.7608 149.676C64.5208 149.868 64.4008 150.148 64.4008 150.516C64.4008 150.932 64.6168 151.244 65.0488 151.452C65.4968 151.66 66.1928 151.868 67.1368 152.076C68.1608 152.316 69.0008 152.564 69.6568 152.82C70.3128 153.06 70.8808 153.46 71.3608 154.02C71.8408 154.58 72.0808 155.332 72.0808 156.276C72.0808 157.044 71.8728 157.724 71.4568 158.316C71.0408 158.908 70.4408 159.372 69.6568 159.708C68.8728 160.044 67.9448 160.212 66.8728 160.212C65.0648 160.212 63.6168 159.812 62.5288 159.012C61.4408 158.212 60.7768 157.068 60.5368 155.58H64.4968C64.5608 156.156 64.8008 156.596 65.2168 156.9C65.6488 157.204 66.2008 157.356 66.8728 157.356C67.3368 157.356 67.6888 157.252 67.9288 157.044C68.1688 156.82 68.2888 156.532 68.2888 156.18C68.2888 155.716 68.0648 155.388 67.6168 155.196C67.1848 154.988 66.4728 154.772 65.4808 154.548C64.4888 154.34 63.6728 154.116 63.0328 153.876C62.3928 153.636 61.8408 153.252 61.3768 152.724C60.9128 152.18 60.6808 151.444 60.6808 150.516C60.6808 149.316 61.1368 148.348 62.0488 147.612C62.9608 146.86 64.2488 146.484 65.9128 146.484ZM79.2253 146.484C80.9213 146.484 82.2733 146.908 83.2813 147.756C84.3053 148.604 84.9453 149.724 85.2013 151.116H81.3613C81.2493 150.572 80.9933 150.148 80.5933 149.844C80.2093 149.524 79.7213 149.364 79.1293 149.364C78.6653 149.364 78.3133 149.468 78.0733 149.676C77.8333 149.868 77.7133 150.148 77.7133 150.516C77.7133 150.932 77.9293 151.244 78.3613 151.452C78.8093 151.66 79.5053 151.868 80.4493 152.076C81.4733 152.316 82.3133 152.564 82.9693 152.82C83.6253 153.06 84.1933 153.46 84.6733 154.02C85.1533 154.58 85.3933 155.332 85.3933 156.276C85.3933 157.044 85.1853 157.724 84.7693 158.316C84.3533 158.908 83.7533 159.372 82.9693 159.708C82.1853 160.044 81.2573 160.212 80.1853 160.212C78.3773 160.212 76.9293 159.812 75.8413 159.012C74.7533 158.212 74.0893 157.068 73.8493 155.58H77.8093C77.8733 156.156 78.1133 156.596 78.5293 156.9C78.9613 157.204 79.5133 157.356 80.1853 157.356C80.6493 157.356 81.0013 157.252 81.2413 157.044C81.4813 156.82 81.6013 156.532 81.6013 156.18C81.6013 155.716 81.3773 155.388 80.9293 155.196C80.4973 154.988 79.7853 154.772 78.7933 154.548C77.8013 154.34 76.9853 154.116 76.3453 153.876C75.7053 153.636 75.1533 153.252 74.6893 152.724C74.2253 152.18 73.9933 151.444 73.9933 150.516C73.9933 149.316 74.4493 148.348 75.3613 147.612C76.2733 146.86 77.5613 146.484 79.2253 146.484ZM87.2818 142.884C87.2818 142.26 87.5058 141.748 87.9538 141.348C88.4018 140.932 88.9938 140.724 89.7298 140.724C90.4658 140.724 91.0578 140.932 91.5058 141.348C91.9538 141.748 92.1778 142.26 92.1778 142.884C92.1778 143.492 91.9538 144.004 91.5058 144.42C91.0578 144.82 90.4658 145.02 89.7298 145.02C88.9938 145.02 88.4018 144.82 87.9538 144.42C87.5058 144.004 87.2818 143.492 87.2818 142.884ZM91.7698 146.652V160.044H87.6658V146.652H91.7698ZM100.795 156.036L103.699 146.652H108.067L103.315 160.044H98.2273L93.4753 146.652H97.8433L100.795 156.036ZM122.487 152.988C122.487 153.324 122.447 153.692 122.367 154.092H113.079C113.127 155.1 113.383 155.828 113.847 156.276C114.311 156.708 114.903 156.924 115.623 156.924C116.231 156.924 116.735 156.772 117.135 156.468C117.535 156.164 117.799 155.772 117.927 155.292H122.271C122.095 156.236 121.711 157.084 121.119 157.836C120.527 158.572 119.775 159.156 118.863 159.588C117.951 160.004 116.935 160.212 115.815 160.212C114.503 160.212 113.335 159.94 112.311 159.396C111.303 158.836 110.511 158.036 109.935 156.996C109.359 155.956 109.071 154.74 109.071 153.348C109.071 151.94 109.351 150.724 109.911 149.7C110.487 148.66 111.287 147.868 112.311 147.324C113.335 146.764 114.503 146.484 115.815 146.484C117.143 146.484 118.311 146.756 119.319 147.3C120.327 147.844 121.103 148.612 121.647 149.604C122.207 150.58 122.487 151.708 122.487 152.988ZM118.335 152.364C118.351 151.484 118.111 150.828 117.615 150.396C117.135 149.948 116.535 149.724 115.815 149.724C115.063 149.724 114.439 149.948 113.943 150.396C113.447 150.844 113.167 151.5 113.103 152.364H118.335ZM132.599 143.076L136.751 155.844L140.903 143.076H145.295L139.391 160.044H134.087L128.207 143.076H132.599ZM153.133 146.484C154.461 146.484 155.645 146.764 156.685 147.324C157.741 147.868 158.565 148.66 159.157 149.7C159.765 150.74 160.069 151.956 160.069 153.348C160.069 154.74 159.765 155.956 159.157 156.996C158.565 158.036 157.741 158.836 156.685 159.396C155.645 159.94 154.461 160.212 153.133 160.212C151.805 160.212 150.613 159.94 149.557 159.396C148.501 158.836 147.669 158.036 147.061 156.996C146.469 155.956 146.173 154.74 146.173 153.348C146.173 151.956 146.469 150.74 147.061 149.7C147.669 148.66 148.501 147.868 149.557 147.324C150.613 146.764 151.805 146.484 153.133 146.484ZM153.133 150.036C152.349 150.036 151.685 150.324 151.141 150.9C150.613 151.46 150.349 152.276 150.349 153.348C150.349 154.42 150.613 155.236 151.141 155.796C151.685 156.356 152.349 156.636 153.133 156.636C153.917 156.636 154.573 156.356 155.101 155.796C155.629 155.236 155.893 154.42 155.893 153.348C155.893 152.276 155.629 151.46 155.101 150.9C154.573 150.324 153.917 150.036 153.133 150.036ZM169.781 156.516V160.044H167.933C166.365 160.044 165.141 159.66 164.261 158.892C163.397 158.108 162.965 156.82 162.965 155.028V150.108H161.165V146.652H162.965V143.364H167.069V146.652H169.757V150.108H167.069V155.1C167.069 155.628 167.173 155.996 167.381 156.204C167.605 156.412 167.973 156.516 168.485 156.516H169.781ZM171.704 142.884C171.704 142.26 171.928 141.748 172.376 141.348C172.824 140.932 173.416 140.724 174.152 140.724C174.888 140.724 175.48 140.932 175.928 141.348C176.376 141.748 176.6 142.26 176.6 142.884C176.6 143.492 176.376 144.004 175.928 144.42C175.48 144.82 174.888 145.02 174.152 145.02C173.416 145.02 172.824 144.82 172.376 144.42C171.928 144.004 171.704 143.492 171.704 142.884ZM176.192 146.652V160.044H172.088V146.652H176.192ZM187.521 146.508C189.057 146.508 190.273 147.02 191.169 148.044C192.081 149.068 192.537 150.476 192.537 152.268V160.044H188.433V152.748C188.433 151.852 188.193 151.156 187.713 150.66C187.249 150.148 186.625 149.892 185.841 149.892C185.009 149.892 184.345 150.156 183.849 150.684C183.369 151.212 183.129 151.964 183.129 152.94V160.044H179.025V146.652H183.129V149.1C183.513 148.3 184.081 147.668 184.833 147.204C185.601 146.74 186.497 146.508 187.521 146.508ZM200.332 146.484C201.356 146.484 202.236 146.716 202.972 147.18C203.708 147.644 204.252 148.276 204.604 149.076V146.652H208.684V159.972C208.684 161.22 208.444 162.34 207.964 163.332C207.484 164.34 206.748 165.14 205.756 165.732C204.764 166.324 203.532 166.62 202.06 166.62C200.044 166.62 198.428 166.14 197.212 165.18C196.012 164.236 195.292 162.948 195.052 161.316H199.108C199.236 161.86 199.524 162.284 199.972 162.588C200.436 162.892 201.036 163.044 201.772 163.044C202.62 163.044 203.3 162.796 203.812 162.3C204.34 161.82 204.604 161.044 204.604 159.972V157.62C204.252 158.42 203.708 159.052 202.972 159.516C202.236 159.98 201.356 160.212 200.332 160.212C199.228 160.212 198.236 159.94 197.356 159.396C196.492 158.836 195.804 158.036 195.292 156.996C194.796 155.956 194.548 154.74 194.548 153.348C194.548 151.94 194.796 150.724 195.292 149.7C195.804 148.66 196.492 147.868 197.356 147.324C198.236 146.764 199.228 146.484 200.332 146.484ZM201.652 150.084C200.772 150.084 200.06 150.372 199.516 150.948C198.988 151.524 198.724 152.324 198.724 153.348C198.724 154.372 198.988 155.172 199.516 155.748C200.06 156.324 200.772 156.612 201.652 156.612C202.516 156.612 203.22 156.316 203.764 155.724C204.324 155.132 204.604 154.34 204.604 153.348C204.604 152.34 204.324 151.548 203.764 150.972C203.22 150.38 202.516 150.084 201.652 150.084Z" fill="white"/>
<path d="M24.0952 184.896C24.0952 185.28 24.0032 185.644 23.8192 185.988C23.6432 186.324 23.3672 186.6 22.9912 186.816C22.6152 187.024 22.1472 187.128 21.5872 187.128C21.0432 187.128 20.5592 187.028 20.1352 186.828C19.7112 186.628 19.3712 186.356 19.1152 186.012C18.8672 185.66 18.7232 185.268 18.6832 184.836H19.5712C19.6032 185.084 19.6952 185.332 19.8472 185.58C19.9992 185.828 20.2192 186.036 20.5072 186.204C20.7952 186.364 21.1432 186.444 21.5512 186.444C22.0872 186.444 22.4952 186.3 22.7752 186.012C23.0632 185.724 23.2072 185.36 23.2072 184.92C23.2072 184.544 23.1112 184.24 22.9192 184.008C22.7352 183.768 22.5032 183.584 22.2232 183.456C21.9512 183.328 21.5752 183.188 21.0952 183.036C20.5672 182.868 20.1392 182.708 19.8112 182.556C19.4912 182.396 19.2192 182.164 18.9952 181.86C18.7712 181.556 18.6592 181.152 18.6592 180.648C18.6592 180.008 18.8832 179.488 19.3312 179.088C19.7792 178.688 20.3952 178.488 21.1792 178.488C21.9792 178.488 22.6112 178.684 23.0752 179.076C23.5472 179.468 23.8272 179.956 23.9152 180.54H23.0152C22.9432 180.18 22.7512 179.86 22.4392 179.58C22.1352 179.3 21.7152 179.16 21.1792 179.16C20.6832 179.16 20.2872 179.288 19.9912 179.544C19.6952 179.8 19.5472 180.156 19.5472 180.612C19.5472 180.972 19.6392 181.264 19.8232 181.488C20.0072 181.712 20.2312 181.884 20.4952 182.004C20.7672 182.124 21.1352 182.26 21.5992 182.412C22.1352 182.58 22.5672 182.744 22.8952 182.904C23.2312 183.064 23.5152 183.304 23.7472 183.624C23.9792 183.944 24.0952 184.368 24.0952 184.896ZM28.9026 180.372C29.6626 180.372 30.2786 180.616 30.7506 181.104C31.2306 181.584 31.4706 182.292 31.4706 183.228V187.044H30.6426V183.288C30.6426 182.576 30.4626 182.032 30.1026 181.656C29.7426 181.272 29.2506 181.08 28.6266 181.08C27.9706 181.08 27.4466 181.292 27.0546 181.716C26.6706 182.132 26.4786 182.748 26.4786 183.564V187.044H25.6266V180.492H26.4786V182.1C26.6466 181.54 26.9506 181.112 27.3906 180.816C27.8306 180.52 28.3346 180.372 28.9026 180.372ZM36.0038 180.408C36.6678 180.408 37.2318 180.58 37.6958 180.924C38.1678 181.268 38.4918 181.724 38.6678 182.292V180.492H39.4958V187.044H38.6678V185.244C38.4918 185.812 38.1678 186.268 37.6958 186.612C37.2318 186.956 36.6678 187.128 36.0038 187.128C35.4118 187.128 34.8798 186.992 34.4078 186.72C33.9438 186.448 33.5798 186.06 33.3158 185.556C33.0598 185.044 32.9318 184.448 32.9318 183.768C32.9318 183.08 33.0598 182.484 33.3158 181.98C33.5798 181.468 33.9438 181.08 34.4078 180.816C34.8718 180.544 35.4038 180.408 36.0038 180.408ZM36.2198 181.152C35.4838 181.152 34.8918 181.388 34.4438 181.86C34.0038 182.324 33.7838 182.96 33.7838 183.768C33.7838 184.576 34.0038 185.216 34.4438 185.688C34.8918 186.152 35.4838 186.384 36.2198 186.384C36.6838 186.384 37.0998 186.276 37.4678 186.06C37.8438 185.844 38.1358 185.54 38.3438 185.148C38.5598 184.748 38.6678 184.288 38.6678 183.768C38.6678 183.248 38.5598 182.792 38.3438 182.4C38.1358 182 37.8438 181.692 37.4678 181.476C37.0998 181.26 36.6838 181.152 36.2198 181.152ZM44.822 180.408C45.422 180.408 45.95 180.544 46.406 180.816C46.87 181.08 47.23 181.468 47.486 181.98C47.75 182.484 47.882 183.08 47.882 183.768C47.882 184.448 47.75 185.044 47.486 185.556C47.23 186.06 46.87 186.448 46.406 186.72C45.942 186.992 45.414 187.128 44.822 187.128C44.15 187.128 43.582 186.956 43.118 186.612C42.654 186.268 42.334 185.812 42.158 185.244V190.14H41.318V180.492H42.158V182.292C42.334 181.724 42.654 181.268 43.118 180.924C43.582 180.58 44.15 180.408 44.822 180.408ZM44.594 181.152C44.13 181.152 43.71 181.26 43.334 181.476C42.966 181.692 42.678 182 42.47 182.4C42.262 182.792 42.158 183.248 42.158 183.768C42.158 184.288 42.262 184.748 42.47 185.148C42.678 185.54 42.966 185.844 43.334 186.06C43.71 186.276 44.13 186.384 44.594 186.384C45.338 186.384 45.93 186.152 46.37 185.688C46.81 185.216 47.03 184.576 47.03 183.768C47.03 182.96 46.81 182.324 46.37 181.86C45.93 181.388 45.338 181.152 44.594 181.152ZM51.3722 180.408C52.0842 180.408 52.6562 180.596 53.0882 180.972C53.5202 181.348 53.7842 181.856 53.8802 182.496H53.0762C53.0282 182.072 52.8522 181.724 52.5482 181.452C52.2522 181.172 51.8522 181.032 51.3482 181.032C50.9162 181.032 50.5762 181.14 50.3282 181.356C50.0882 181.564 49.9682 181.844 49.9682 182.196C49.9682 182.46 50.0442 182.672 50.1962 182.832C50.3562 182.992 50.5522 183.116 50.7842 183.204C51.0162 183.284 51.3282 183.368 51.7202 183.456C52.2002 183.568 52.5842 183.684 52.8722 183.804C53.1682 183.916 53.4202 184.096 53.6282 184.344C53.8362 184.592 53.9402 184.928 53.9402 185.352C53.9402 185.872 53.7442 186.3 53.3522 186.636C52.9682 186.964 52.4562 187.128 51.8162 187.128C51.0642 187.128 50.4482 186.944 49.9682 186.576C49.4882 186.2 49.2042 185.688 49.1162 185.04H49.9322C49.9802 185.472 50.1682 185.824 50.4962 186.096C50.8242 186.368 51.2682 186.504 51.8282 186.504C52.2442 186.504 52.5682 186.396 52.8002 186.18C53.0322 185.964 53.1482 185.684 53.1482 185.34C53.1482 185.06 53.0682 184.836 52.9082 184.668C52.7482 184.5 52.5482 184.376 52.3082 184.296C52.0762 184.208 51.7562 184.116 51.3482 184.02C50.8762 183.908 50.4962 183.796 50.2082 183.684C49.9282 183.572 49.6882 183.4 49.4882 183.168C49.2882 182.928 49.1882 182.604 49.1882 182.196C49.1882 181.66 49.3842 181.228 49.7762 180.9C50.1682 180.572 50.7002 180.408 51.3722 180.408ZM58.7502 180.372C59.5102 180.372 60.1262 180.616 60.5982 181.104C61.0782 181.584 61.3182 182.292 61.3182 183.228V187.044H60.4902V183.288C60.4902 182.576 60.3102 182.032 59.9502 181.656C59.5902 181.272 59.0982 181.08 58.4742 181.08C57.8182 181.08 57.2942 181.292 56.9022 181.716C56.5182 182.132 56.3262 182.748 56.3262 183.564V187.044H55.4742V178.164H56.3262V182.1C56.4942 181.54 56.7982 181.112 57.2382 180.816C57.6782 180.52 58.1822 180.372 58.7502 180.372ZM66.0554 180.408C66.6794 180.408 67.2354 180.544 67.7234 180.816C68.2194 181.08 68.6074 181.468 68.8874 181.98C69.1674 182.484 69.3074 183.08 69.3074 183.768C69.3074 184.456 69.1674 185.052 68.8874 185.556C68.6074 186.06 68.2194 186.448 67.7234 186.72C67.2354 186.992 66.6794 187.128 66.0554 187.128C65.4314 187.128 64.8714 186.992 64.3754 186.72C63.8794 186.448 63.4874 186.06 63.1994 185.556C62.9194 185.044 62.7794 184.448 62.7794 183.768C62.7794 183.08 62.9194 182.484 63.1994 181.98C63.4874 181.468 63.8794 181.08 64.3754 180.816C64.8714 180.544 65.4314 180.408 66.0554 180.408ZM66.0554 181.14C65.6234 181.14 65.2234 181.236 64.8554 181.428C64.4874 181.62 64.1914 181.916 63.9674 182.316C63.7434 182.708 63.6314 183.192 63.6314 183.768C63.6314 184.344 63.7434 184.828 63.9674 185.22C64.1914 185.612 64.4874 185.904 64.8554 186.096C65.2234 186.288 65.6234 186.384 66.0554 186.384C66.4794 186.384 66.8714 186.288 67.2314 186.096C67.5994 185.904 67.8954 185.612 68.1194 185.22C68.3434 184.828 68.4554 184.344 68.4554 183.768C68.4554 183.192 68.3434 182.708 68.1194 182.316C67.8954 181.916 67.5994 181.62 67.2314 181.428C66.8714 181.236 66.4794 181.14 66.0554 181.14ZM73.7901 186.3V187.044H73.0101C72.3781 187.044 71.9061 186.896 71.5941 186.6C71.2821 186.296 71.1261 185.788 71.1261 185.076V181.224H70.1301V180.492H71.1261V178.836H71.9781V180.492H73.7781V181.224H71.9781V185.088C71.9781 185.552 72.0621 185.872 72.2301 186.048C72.3981 186.216 72.6941 186.3 73.1181 186.3H73.7901ZM77.1535 180.408C77.8655 180.408 78.4375 180.596 78.8695 180.972C79.3015 181.348 79.5655 181.856 79.6615 182.496H78.8575C78.8095 182.072 78.6335 181.724 78.3295 181.452C78.0335 181.172 77.6335 181.032 77.1295 181.032C76.6975 181.032 76.3575 181.14 76.1095 181.356C75.8695 181.564 75.7495 181.844 75.7495 182.196C75.7495 182.46 75.8255 182.672 75.9775 182.832C76.1375 182.992 76.3335 183.116 76.5655 183.204C76.7975 183.284 77.1095 183.368 77.5015 183.456C77.9815 183.568 78.3655 183.684 78.6535 183.804C78.9495 183.916 79.2015 184.096 79.4095 184.344C79.6175 184.592 79.7215 184.928 79.7215 185.352C79.7215 185.872 79.5255 186.3 79.1335 186.636C78.7495 186.964 78.2375 187.128 77.5975 187.128C76.8455 187.128 76.2295 186.944 75.7495 186.576C75.2695 186.2 74.9855 185.688 74.8975 185.04H75.7135C75.7615 185.472 75.9495 185.824 76.2775 186.096C76.6055 186.368 77.0495 186.504 77.6095 186.504C78.0255 186.504 78.3495 186.396 78.5815 186.18C78.8135 185.964 78.9295 185.684 78.9295 185.34C78.9295 185.06 78.8495 184.836 78.6895 184.668C78.5295 184.5 78.3295 184.376 78.0895 184.296C77.8575 184.208 77.5375 184.116 77.1295 184.02C76.6575 183.908 76.2775 183.796 75.9895 183.684C75.7095 183.572 75.4695 183.4 75.2695 183.168C75.0695 182.928 74.9695 182.604 74.9695 182.196C74.9695 181.66 75.1655 181.228 75.5575 180.9C75.9495 180.572 76.4815 180.408 77.1535 180.408ZM87.3367 180.408C87.9607 180.408 88.5167 180.544 89.0047 180.816C89.5007 181.08 89.8887 181.468 90.1687 181.98C90.4487 182.484 90.5887 183.08 90.5887 183.768C90.5887 184.456 90.4487 185.052 90.1687 185.556C89.8887 186.06 89.5007 186.448 89.0047 186.72C88.5167 186.992 87.9607 187.128 87.3367 187.128C86.7127 187.128 86.1527 186.992 85.6567 186.72C85.1607 186.448 84.7687 186.06 84.4807 185.556C84.2007 185.044 84.0607 184.448 84.0607 183.768C84.0607 183.08 84.2007 182.484 84.4807 181.98C84.7687 181.468 85.1607 181.08 85.6567 180.816C86.1527 180.544 86.7127 180.408 87.3367 180.408ZM87.3367 181.14C86.9047 181.14 86.5047 181.236 86.1367 181.428C85.7687 181.62 85.4727 181.916 85.2487 182.316C85.0247 182.708 84.9127 183.192 84.9127 183.768C84.9127 184.344 85.0247 184.828 85.2487 185.22C85.4727 185.612 85.7687 185.904 86.1367 186.096C86.5047 186.288 86.9047 186.384 87.3367 186.384C87.7607 186.384 88.1527 186.288 88.5127 186.096C88.8807 185.904 89.1767 185.612 89.4007 185.22C89.6247 184.828 89.7367 184.344 89.7367 183.768C89.7367 183.192 89.6247 182.708 89.4007 182.316C89.1767 181.916 88.8807 181.62 88.5127 181.428C88.1527 181.236 87.7607 181.14 87.3367 181.14ZM94.8553 178.752C94.2473 178.744 93.8193 178.856 93.5713 179.088C93.3313 179.312 93.2113 179.692 93.2113 180.228V180.492H94.8553V181.236H93.2113V187.044H92.3713V181.236H91.3993V180.492H92.3713V180.168C92.3713 179.432 92.5713 178.88 92.9713 178.512C93.3713 178.144 93.9993 177.976 94.8553 178.008V178.752ZM103.768 187.044L101.452 183.516H100.084V187.044H99.2321V178.584H101.824C102.776 178.584 103.484 178.808 103.948 179.256C104.42 179.704 104.656 180.308 104.656 181.068C104.656 181.772 104.456 182.332 104.056 182.748C103.664 183.164 103.092 183.412 102.34 183.492L104.728 187.044H103.768ZM100.084 182.88H101.764C103.124 182.88 103.804 182.292 103.804 181.116C103.804 179.916 103.124 179.316 101.764 179.316H100.084V182.88ZM106.916 179.268V182.46H110.216V183.12H106.916V186.348H110.576V187.044H106.064V178.584H110.576V179.268H106.916ZM112.893 178.584V187.044H112.041V178.584H112.893ZM118.529 178.512C119.489 178.512 120.301 178.752 120.965 179.232C121.629 179.712 122.085 180.364 122.333 181.188H121.457C121.241 180.62 120.873 180.16 120.353 179.808C119.841 179.456 119.233 179.28 118.529 179.28C117.921 179.28 117.369 179.424 116.873 179.712C116.385 180 116.001 180.412 115.721 180.948C115.441 181.484 115.301 182.108 115.301 182.82C115.301 183.548 115.441 184.18 115.721 184.716C116.009 185.252 116.401 185.664 116.897 185.952C117.401 186.24 117.973 186.384 118.613 186.384C119.181 186.384 119.701 186.26 120.173 186.012C120.645 185.756 121.025 185.388 121.313 184.908C121.609 184.428 121.781 183.864 121.829 183.216H118.313V182.58H122.561V183.324C122.505 184.044 122.301 184.692 121.949 185.268C121.605 185.844 121.137 186.3 120.545 186.636C119.961 186.964 119.293 187.128 118.541 187.128C117.741 187.128 117.029 186.948 116.405 186.588C115.781 186.22 115.297 185.708 114.953 185.052C114.609 184.396 114.437 183.652 114.437 182.82C114.437 181.988 114.609 181.244 114.953 180.588C115.297 179.932 115.777 179.424 116.393 179.064C117.017 178.696 117.729 178.512 118.529 178.512ZM130.435 187.044H129.583L124.951 179.976V187.044H124.099V178.596H124.951L129.583 185.676V178.596H130.435V187.044ZM138.649 180.372C139.409 180.372 140.025 180.616 140.497 181.104C140.977 181.584 141.217 182.292 141.217 183.228V187.044H140.389V183.288C140.389 182.576 140.209 182.032 139.849 181.656C139.489 181.272 138.997 181.08 138.373 181.08C137.717 181.08 137.193 181.292 136.801 181.716C136.417 182.132 136.225 182.748 136.225 183.564V187.044H135.373V178.164H136.225V182.1C136.393 181.54 136.697 181.112 137.137 180.816C137.577 180.52 138.081 180.372 138.649 180.372ZM145.954 180.408C146.578 180.408 147.134 180.544 147.622 180.816C148.118 181.08 148.506 181.468 148.786 181.98C149.066 182.484 149.206 183.08 149.206 183.768C149.206 184.456 149.066 185.052 148.786 185.556C148.506 186.06 148.118 186.448 147.622 186.72C147.134 186.992 146.578 187.128 145.954 187.128C145.33 187.128 144.77 186.992 144.274 186.72C143.778 186.448 143.386 186.06 143.098 185.556C142.818 185.044 142.678 184.448 142.678 183.768C142.678 183.08 142.818 182.484 143.098 181.98C143.386 181.468 143.778 181.08 144.274 180.816C144.77 180.544 145.33 180.408 145.954 180.408ZM145.954 181.14C145.522 181.14 145.122 181.236 144.754 181.428C144.386 181.62 144.09 181.916 143.866 182.316C143.642 182.708 143.53 183.192 143.53 183.768C143.53 184.344 143.642 184.828 143.866 185.22C144.09 185.612 144.386 185.904 144.754 186.096C145.122 186.288 145.522 186.384 145.954 186.384C146.378 186.384 146.77 186.288 147.13 186.096C147.498 185.904 147.794 185.612 148.018 185.22C148.242 184.828 148.354 184.344 148.354 183.768C148.354 183.192 148.242 182.708 148.018 182.316C147.794 181.916 147.498 181.62 147.13 181.428C146.77 181.236 146.378 181.14 145.954 181.14ZM151.565 178.164V187.044H150.713V178.164H151.565ZM156.144 180.408C156.808 180.408 157.372 180.58 157.836 180.924C158.308 181.268 158.628 181.724 158.796 182.292V178.164H159.636V187.044H158.796V185.244C158.628 185.812 158.308 186.268 157.836 186.612C157.372 186.956 156.808 187.128 156.144 187.128C155.552 187.128 155.02 186.992 154.548 186.72C154.084 186.448 153.72 186.06 153.456 185.556C153.2 185.044 153.072 184.448 153.072 183.768C153.072 183.08 153.2 182.484 153.456 181.98C153.72 181.468 154.084 181.08 154.548 180.816C155.012 180.544 155.544 180.408 156.144 180.408ZM156.36 181.152C155.624 181.152 155.032 181.388 154.584 181.86C154.144 182.324 153.924 182.96 153.924 183.768C153.924 184.576 154.144 185.216 154.584 185.688C155.032 186.152 155.624 186.384 156.36 186.384C156.824 186.384 157.24 186.276 157.608 186.06C157.984 185.844 158.276 185.54 158.484 185.148C158.7 184.748 158.808 184.288 158.808 183.768C158.808 183.248 158.7 182.792 158.484 182.4C158.276 182 157.984 181.692 157.608 181.476C157.24 181.26 156.824 181.152 156.36 181.152ZM164.315 186.432C164.907 186.432 165.403 186.284 165.803 185.988C166.203 185.692 166.443 185.292 166.523 184.788H167.411C167.291 185.484 166.959 186.048 166.415 186.48C165.871 186.912 165.183 187.128 164.351 187.128C163.727 187.128 163.171 186.996 162.683 186.732C162.203 186.46 161.827 186.072 161.555 185.568C161.283 185.056 161.147 184.456 161.147 183.768C161.147 183.08 161.283 182.484 161.555 181.98C161.827 181.468 162.203 181.08 162.683 180.816C163.171 180.544 163.727 180.408 164.351 180.408C164.991 180.408 165.543 180.544 166.007 180.816C166.479 181.08 166.835 181.436 167.075 181.884C167.323 182.332 167.447 182.82 167.447 183.348C167.447 183.572 167.431 183.776 167.399 183.96H161.975C161.983 184.512 162.095 184.976 162.311 185.352C162.535 185.72 162.823 185.992 163.175 186.168C163.527 186.344 163.907 186.432 164.315 186.432ZM164.351 181.092C163.927 181.092 163.539 181.18 163.187 181.356C162.835 181.532 162.547 181.804 162.323 182.172C162.107 182.532 161.991 182.984 161.975 183.528H166.607C166.639 182.992 166.551 182.54 166.343 182.172C166.135 181.804 165.855 181.532 165.503 181.356C165.151 181.18 164.767 181.092 164.351 181.092ZM169.811 181.848C170.003 181.376 170.311 181.012 170.735 180.756C171.159 180.5 171.675 180.372 172.283 180.372V181.284H172.007C171.375 181.284 170.851 181.456 170.435 181.8C170.019 182.136 169.811 182.688 169.811 183.456V187.044H168.959V180.492H169.811V181.848ZM175.38 180.408C176.092 180.408 176.664 180.596 177.096 180.972C177.528 181.348 177.792 181.856 177.888 182.496H177.084C177.036 182.072 176.86 181.724 176.556 181.452C176.26 181.172 175.86 181.032 175.356 181.032C174.924 181.032 174.584 181.14 174.336 181.356C174.096 181.564 173.976 181.844 173.976 182.196C173.976 182.46 174.052 182.672 174.204 182.832C174.364 182.992 174.56 183.116 174.792 183.204C175.024 183.284 175.336 183.368 175.728 183.456C176.208 183.568 176.592 183.684 176.88 183.804C177.176 183.916 177.428 184.096 177.636 184.344C177.844 184.592 177.948 184.928 177.948 185.352C177.948 185.872 177.752 186.3 177.36 186.636C176.976 186.964 176.464 187.128 175.824 187.128C175.072 187.128 174.456 186.944 173.976 186.576C173.496 186.2 173.212 185.688 173.124 185.04H173.94C173.988 185.472 174.176 185.824 174.504 186.096C174.832 186.368 175.276 186.504 175.836 186.504C176.252 186.504 176.576 186.396 176.808 186.18C177.04 185.964 177.156 185.684 177.156 185.34C177.156 185.06 177.076 184.836 176.916 184.668C176.756 184.5 176.556 184.376 176.316 184.296C176.084 184.208 175.764 184.116 175.356 184.02C174.884 183.908 174.504 183.796 174.216 183.684C173.936 183.572 173.696 183.4 173.496 183.168C173.296 182.928 173.196 182.604 173.196 182.196C173.196 181.66 173.392 181.228 173.784 180.9C174.176 180.572 174.708 180.408 175.38 180.408ZM179.986 177.756C180.058 178.148 180.094 178.488 180.094 178.776C180.094 179.6 179.73 180.012 179.002 180.012V179.592C179.202 179.592 179.346 179.54 179.434 179.436C179.522 179.332 179.566 179.176 179.566 178.968V178.668H179.014V177.756H179.986ZM187.305 180.408C187.969 180.408 188.533 180.58 188.997 180.924C189.469 181.268 189.789 181.724 189.957 182.292V178.164H190.797V187.044H189.957V185.244C189.789 185.812 189.469 186.268 188.997 186.612C188.533 186.956 187.969 187.128 187.305 187.128C186.713 187.128 186.181 186.992 185.709 186.72C185.245 186.448 184.881 186.06 184.617 185.556C184.361 185.044 184.233 184.448 184.233 183.768C184.233 183.08 184.361 182.484 184.617 181.98C184.881 181.468 185.245 181.08 185.709 180.816C186.173 180.544 186.705 180.408 187.305 180.408ZM187.521 181.152C186.785 181.152 186.193 181.388 185.745 181.86C185.305 182.324 185.085 182.96 185.085 183.768C185.085 184.576 185.305 185.216 185.745 185.688C186.193 186.152 186.785 186.384 187.521 186.384C187.985 186.384 188.401 186.276 188.769 186.06C189.145 185.844 189.437 185.54 189.645 185.148C189.861 184.748 189.969 184.288 189.969 183.768C189.969 183.248 189.861 182.792 189.645 182.4C189.437 182 189.145 181.692 188.769 181.476C188.401 181.26 187.985 181.152 187.521 181.152ZM195.475 186.432C196.067 186.432 196.563 186.284 196.963 185.988C197.363 185.692 197.603 185.292 197.683 184.788H198.571C198.451 185.484 198.119 186.048 197.575 186.48C197.031 186.912 196.343 187.128 195.511 187.128C194.887 187.128 194.331 186.996 193.843 186.732C193.363 186.46 192.987 186.072 192.715 185.568C192.443 185.056 192.307 184.456 192.307 183.768C192.307 183.08 192.443 182.484 192.715 181.98C192.987 181.468 193.363 181.08 193.843 180.816C194.331 180.544 194.887 180.408 195.511 180.408C196.151 180.408 196.703 180.544 197.167 180.816C197.639 181.08 197.995 181.436 198.235 181.884C198.483 182.332 198.607 182.82 198.607 183.348C198.607 183.572 198.591 183.776 198.559 183.96H193.135C193.143 184.512 193.255 184.976 193.471 185.352C193.695 185.72 193.983 185.992 194.335 186.168C194.687 186.344 195.067 186.432 195.475 186.432ZM195.511 181.092C195.087 181.092 194.699 181.18 194.347 181.356C193.995 181.532 193.707 181.804 193.483 182.172C193.267 182.532 193.151 182.984 193.135 183.528H197.767C197.799 182.992 197.711 182.54 197.503 182.172C197.295 181.804 197.015 181.532 196.663 181.356C196.311 181.18 195.927 181.092 195.511 181.092ZM202.099 180.408C202.811 180.408 203.383 180.596 203.815 180.972C204.247 181.348 204.511 181.856 204.607 182.496H203.803C203.755 182.072 203.579 181.724 203.275 181.452C202.979 181.172 202.579 181.032 202.075 181.032C201.643 181.032 201.303 181.14 201.055 181.356C200.815 181.564 200.695 181.844 200.695 182.196C200.695 182.46 200.771 182.672 200.923 182.832C201.083 182.992 201.279 183.116 201.511 183.204C201.743 183.284 202.055 183.368 202.447 183.456C202.927 183.568 203.311 183.684 203.599 183.804C203.895 183.916 204.147 184.096 204.355 184.344C204.563 184.592 204.667 184.928 204.667 185.352C204.667 185.872 204.471 186.3 204.079 186.636C203.695 186.964 203.183 187.128 202.543 187.128C201.791 187.128 201.175 186.944 200.695 186.576C200.215 186.2 199.931 185.688 199.843 185.04H200.659C200.707 185.472 200.895 185.824 201.223 186.096C201.551 186.368 201.995 186.504 202.555 186.504C202.971 186.504 203.295 186.396 203.527 186.18C203.759 185.964 203.875 185.684 203.875 185.34C203.875 185.06 203.795 184.836 203.635 184.668C203.475 184.5 203.275 184.376 203.035 184.296C202.803 184.208 202.483 184.116 202.075 184.02C201.603 183.908 201.223 183.796 200.935 183.684C200.655 183.572 200.415 183.4 200.215 183.168C200.015 182.928 199.915 182.604 199.915 182.196C199.915 181.66 200.111 181.228 200.503 180.9C200.895 180.572 201.427 180.408 202.099 180.408ZM206.009 178.548C206.009 178.372 206.065 178.232 206.177 178.128C206.297 178.024 206.449 177.972 206.633 177.972C206.817 177.972 206.965 178.024 207.077 178.128C207.189 178.232 207.245 178.372 207.245 178.548C207.245 178.716 207.189 178.852 207.077 178.956C206.965 179.06 206.817 179.112 206.633 179.112C206.449 179.112 206.297 179.06 206.177 178.956C206.065 178.852 206.009 178.716 206.009 178.548ZM207.053 180.492V187.044H206.201V180.492H207.053ZM209.725 181.848C209.917 181.376 210.225 181.012 210.649 180.756C211.073 180.5 211.589 180.372 212.197 180.372V181.284H211.921C211.289 181.284 210.765 181.456 210.349 181.8C209.933 182.136 209.725 182.688 209.725 183.456V187.044H208.873V180.492H209.725V181.848ZM216.17 186.432C216.762 186.432 217.258 186.284 217.658 185.988C218.058 185.692 218.298 185.292 218.378 184.788H219.266C219.146 185.484 218.814 186.048 218.27 186.48C217.726 186.912 217.038 187.128 216.206 187.128C215.582 187.128 215.026 186.996 214.538 186.732C214.058 186.46 213.682 186.072 213.41 185.568C213.138 185.056 213.002 184.456 213.002 183.768C213.002 183.08 213.138 182.484 213.41 181.98C213.682 181.468 214.058 181.08 214.538 180.816C215.026 180.544 215.582 180.408 216.206 180.408C216.846 180.408 217.398 180.544 217.862 180.816C218.334 181.08 218.69 181.436 218.93 181.884C219.178 182.332 219.302 182.82 219.302 183.348C219.302 183.572 219.286 183.776 219.254 183.96H213.83C213.838 184.512 213.95 184.976 214.166 185.352C214.39 185.72 214.678 185.992 215.03 186.168C215.382 186.344 215.762 186.432 216.17 186.432ZM216.206 181.092C215.782 181.092 215.394 181.18 215.042 181.356C214.69 181.532 214.402 181.804 214.178 182.172C213.962 182.532 213.846 182.984 213.83 183.528H218.462C218.494 182.992 218.406 182.54 218.198 182.172C217.99 181.804 217.71 181.532 217.358 181.356C217.006 181.18 216.622 181.092 216.206 181.092ZM223.574 180.408C224.238 180.408 224.802 180.58 225.266 180.924C225.738 181.268 226.058 181.724 226.226 182.292V178.164H227.066V187.044H226.226V185.244C226.058 185.812 225.738 186.268 225.266 186.612C224.802 186.956 224.238 187.128 223.574 187.128C222.982 187.128 222.45 186.992 221.978 186.72C221.514 186.448 221.15 186.06 220.886 185.556C220.63 185.044 220.502 184.448 220.502 183.768C220.502 183.08 220.63 182.484 220.886 181.98C221.15 181.468 221.514 181.08 221.978 180.816C222.442 180.544 222.974 180.408 223.574 180.408ZM223.79 181.152C223.054 181.152 222.462 181.388 222.014 181.86C221.574 182.324 221.354 182.96 221.354 183.768C221.354 184.576 221.574 185.216 222.014 185.688C222.462 186.152 223.054 186.384 223.79 186.384C224.254 186.384 224.67 186.276 225.038 186.06C225.414 185.844 225.706 185.54 225.914 185.148C226.13 184.748 226.238 184.288 226.238 183.768C226.238 183.248 226.13 182.792 225.914 182.4C225.706 182 225.414 181.692 225.038 181.476C224.67 181.26 224.254 181.152 223.79 181.152ZM25.2224 198.408C25.8224 198.408 26.3504 198.544 26.8064 198.816C27.2704 199.08 27.6304 199.468 27.8864 199.98C28.1504 200.484 28.2824 201.08 28.2824 201.768C28.2824 202.448 28.1504 203.044 27.8864 203.556C27.6304 204.06 27.2704 204.448 26.8064 204.72C26.3424 204.992 25.8144 205.128 25.2224 205.128C24.5504 205.128 23.9824 204.956 23.5184 204.612C23.0544 204.268 22.7344 203.812 22.5584 203.244V205.044H21.7184V196.164H22.5584V200.292C22.7344 199.724 23.0544 199.268 23.5184 198.924C23.9824 198.58 24.5504 198.408 25.2224 198.408ZM24.9944 199.152C24.5304 199.152 24.1104 199.26 23.7344 199.476C23.3664 199.692 23.0784 200 22.8704 200.4C22.6624 200.792 22.5584 201.248 22.5584 201.768C22.5584 202.288 22.6624 202.748 22.8704 203.148C23.0784 203.54 23.3664 203.844 23.7344 204.06C24.1104 204.276 24.5304 204.384 24.9944 204.384C25.7384 204.384 26.3304 204.152 26.7704 203.688C27.2104 203.216 27.4304 202.576 27.4304 201.768C27.4304 200.96 27.2104 200.324 26.7704 199.86C26.3304 199.388 25.7384 199.152 24.9944 199.152ZM32.5526 198.408C33.2166 198.408 33.7806 198.58 34.2446 198.924C34.7166 199.268 35.0406 199.724 35.2166 200.292V198.492H36.0446V205.044H35.2166V203.244C35.0406 203.812 34.7166 204.268 34.2446 204.612C33.7806 204.956 33.2166 205.128 32.5526 205.128C31.9606 205.128 31.4286 204.992 30.9566 204.72C30.4926 204.448 30.1286 204.06 29.8646 203.556C29.6086 203.044 29.4806 202.448 29.4806 201.768C29.4806 201.08 29.6086 200.484 29.8646 199.98C30.1286 199.468 30.4926 199.08 30.9566 198.816C31.4206 198.544 31.9526 198.408 32.5526 198.408ZM32.7686 199.152C32.0326 199.152 31.4406 199.388 30.9926 199.86C30.5526 200.324 30.3326 200.96 30.3326 201.768C30.3326 202.576 30.5526 203.216 30.9926 203.688C31.4406 204.152 32.0326 204.384 32.7686 204.384C33.2326 204.384 33.6486 204.276 34.0166 204.06C34.3926 203.844 34.6846 203.54 34.8926 203.148C35.1086 202.748 35.2166 202.288 35.2166 201.768C35.2166 201.248 35.1086 200.792 34.8926 200.4C34.6846 200 34.3926 199.692 34.0166 199.476C33.6486 199.26 33.2326 199.152 32.7686 199.152ZM39.8468 198.408C40.5588 198.408 41.1308 198.596 41.5628 198.972C41.9948 199.348 42.2588 199.856 42.3548 200.496H41.5508C41.5028 200.072 41.3268 199.724 41.0228 199.452C40.7268 199.172 40.3268 199.032 39.8228 199.032C39.3908 199.032 39.0508 199.14 38.8028 199.356C38.5628 199.564 38.4428 199.844 38.4428 200.196C38.4428 200.46 38.5188 200.672 38.6708 200.832C38.8308 200.992 39.0268 201.116 39.2588 201.204C39.4908 201.284 39.8028 201.368 40.1948 201.456C40.6748 201.568 41.0588 201.684 41.3468 201.804C41.6428 201.916 41.8948 202.096 42.1028 202.344C42.3108 202.592 42.4148 202.928 42.4148 203.352C42.4148 203.872 42.2188 204.3 41.8268 204.636C41.4428 204.964 40.9308 205.128 40.2908 205.128C39.5388 205.128 38.9228 204.944 38.4428 204.576C37.9628 204.2 37.6788 203.688 37.5908 203.04H38.4068C38.4548 203.472 38.6428 203.824 38.9708 204.096C39.2988 204.368 39.7428 204.504 40.3028 204.504C40.7188 204.504 41.0428 204.396 41.2748 204.18C41.5068 203.964 41.6228 203.684 41.6228 203.34C41.6228 203.06 41.5428 202.836 41.3828 202.668C41.2228 202.5 41.0228 202.376 40.7828 202.296C40.5508 202.208 40.2308 202.116 39.8228 202.02C39.3508 201.908 38.9708 201.796 38.6828 201.684C38.4028 201.572 38.1628 201.4 37.9628 201.168C37.7628 200.928 37.6628 200.604 37.6628 200.196C37.6628 199.66 37.8588 199.228 38.2508 198.9C38.6428 198.572 39.1748 198.408 39.8468 198.408ZM47.4529 205.044L44.8008 202.044V205.044H43.9489V196.164H44.8008V201.372L47.4049 198.492H48.4489L45.4369 201.732L48.5329 205.044H47.4529ZM52.383 204.432C52.975 204.432 53.471 204.284 53.871 203.988C54.271 203.692 54.511 203.292 54.591 202.788H55.479C55.359 203.484 55.027 204.048 54.483 204.48C53.939 204.912 53.251 205.128 52.419 205.128C51.795 205.128 51.239 204.996 50.751 204.732C50.271 204.46 49.895 204.072 49.623 203.568C49.351 203.056 49.215 202.456 49.215 201.768C49.215 201.08 49.351 200.484 49.623 199.98C49.895 199.468 50.271 199.08 50.751 198.816C51.239 198.544 51.795 198.408 52.419 198.408C53.059 198.408 53.611 198.544 54.075 198.816C54.547 199.08 54.903 199.436 55.143 199.884C55.391 200.332 55.515 200.82 55.515 201.348C55.515 201.572 55.499 201.776 55.467 201.96H50.043C50.051 202.512 50.163 202.976 50.379 203.352C50.603 203.72 50.891 203.992 51.243 204.168C51.595 204.344 51.975 204.432 52.383 204.432ZM52.419 199.092C51.995 199.092 51.607 199.18 51.255 199.356C50.903 199.532 50.615 199.804 50.391 200.172C50.175 200.532 50.059 200.984 50.043 201.528H54.675C54.707 200.992 54.619 200.54 54.411 200.172C54.203 199.804 53.923 199.532 53.571 199.356C53.219 199.18 52.835 199.092 52.419 199.092ZM60.003 204.3V205.044H59.223C58.591 205.044 58.119 204.896 57.807 204.6C57.495 204.296 57.339 203.788 57.339 203.076V199.224H56.343V198.492H57.339V196.836H58.191V198.492H59.991V199.224H58.191V203.088C58.191 203.552 58.275 203.872 58.443 204.048C58.611 204.216 58.907 204.3 59.331 204.3H60.003ZM67.3955 198.408C68.2275 198.408 68.9155 198.628 69.4595 199.068C70.0115 199.508 70.3475 200.092 70.4675 200.82H69.5915C69.5035 200.3 69.2595 199.892 68.8595 199.596C68.4595 199.292 67.9675 199.14 67.3835 199.14C66.9595 199.14 66.5675 199.236 66.2075 199.428C65.8555 199.62 65.5715 199.916 65.3555 200.316C65.1475 200.708 65.0435 201.192 65.0435 201.768C65.0435 202.344 65.1475 202.832 65.3555 203.232C65.5715 203.624 65.8555 203.916 66.2075 204.108C66.5675 204.3 66.9595 204.396 67.3835 204.396C67.9675 204.396 68.4595 204.248 68.8595 203.952C69.2595 203.648 69.5035 203.236 69.5915 202.716H70.4675C70.3475 203.444 70.0115 204.028 69.4595 204.468C68.9155 204.908 68.2275 205.128 67.3955 205.128C66.7715 205.128 66.2155 204.996 65.7275 204.732C65.2475 204.46 64.8715 204.072 64.5995 203.568C64.3275 203.056 64.1915 202.456 64.1915 201.768C64.1915 201.08 64.3275 200.484 64.5995 199.98C64.8715 199.468 65.2475 199.08 65.7275 198.816C66.2155 198.544 66.7715 198.408 67.3955 198.408ZM74.9441 198.408C75.5681 198.408 76.1241 198.544 76.6121 198.816C77.1081 199.08 77.4961 199.468 77.7761 199.98C78.0561 200.484 78.1961 201.08 78.1961 201.768C78.1961 202.456 78.0561 203.052 77.7761 203.556C77.4961 204.06 77.1081 204.448 76.6121 204.72C76.1241 204.992 75.5681 205.128 74.9441 205.128C74.3201 205.128 73.7601 204.992 73.2641 204.72C72.7681 204.448 72.3761 204.06 72.0881 203.556C71.8081 203.044 71.6681 202.448 71.6681 201.768C71.6681 201.08 71.8081 200.484 72.0881 199.98C72.3761 199.468 72.7681 199.08 73.2641 198.816C73.7601 198.544 74.3201 198.408 74.9441 198.408ZM74.9441 199.14C74.5121 199.14 74.1121 199.236 73.7441 199.428C73.3761 199.62 73.0801 199.916 72.8561 200.316C72.6321 200.708 72.5201 201.192 72.5201 201.768C72.5201 202.344 72.6321 202.828 72.8561 203.22C73.0801 203.612 73.3761 203.904 73.7441 204.096C74.1121 204.288 74.5121 204.384 74.9441 204.384C75.3681 204.384 75.7601 204.288 76.1201 204.096C76.4881 203.904 76.7841 203.612 77.0081 203.22C77.2321 202.828 77.3441 202.344 77.3441 201.768C77.3441 201.192 77.2321 200.708 77.0081 200.316C76.7841 199.916 76.4881 199.62 76.1201 199.428C75.7601 199.236 75.3681 199.14 74.9441 199.14ZM87.6588 198.372C88.4108 198.372 89.0188 198.616 89.4828 199.104C89.9548 199.584 90.1908 200.292 90.1908 201.228V205.044H89.3508V201.288C89.3508 200.584 89.1788 200.044 88.8348 199.668C88.4988 199.292 88.0348 199.104 87.4428 199.104C86.8108 199.104 86.3068 199.312 85.9308 199.728C85.5548 200.144 85.3668 200.756 85.3668 201.564V205.044H84.5388V201.288C84.5388 200.584 84.3668 200.044 84.0228 199.668C83.6868 199.292 83.2228 199.104 82.6308 199.104C81.9988 199.104 81.4948 199.312 81.1188 199.728C80.7428 200.144 80.5548 200.756 80.5548 201.564V205.044H79.7028V198.492H80.5548V200.052C80.7148 199.5 81.0028 199.084 81.4188 198.804C81.8428 198.516 82.3308 198.372 82.8828 198.372C83.4588 198.372 83.9548 198.524 84.3708 198.828C84.7868 199.132 85.0748 199.58 85.2348 200.172C85.4108 199.588 85.7188 199.144 86.1588 198.84C86.5988 198.528 87.0988 198.372 87.6588 198.372ZM95.4646 198.408C96.0646 198.408 96.5926 198.544 97.0486 198.816C97.5126 199.08 97.8726 199.468 98.1286 199.98C98.3926 200.484 98.5246 201.08 98.5246 201.768C98.5246 202.448 98.3926 203.044 98.1286 203.556C97.8726 204.06 97.5126 204.448 97.0486 204.72C96.5846 204.992 96.0566 205.128 95.4646 205.128C94.7926 205.128 94.2246 204.956 93.7606 204.612C93.2966 204.268 92.9766 203.812 92.8006 203.244V208.14H91.9606V198.492H92.8006V200.292C92.9766 199.724 93.2966 199.268 93.7606 198.924C94.2246 198.58 94.7926 198.408 95.4646 198.408ZM95.2366 199.152C94.7726 199.152 94.3526 199.26 93.9766 199.476C93.6086 199.692 93.3206 200 93.1126 200.4C92.9046 200.792 92.8006 201.248 92.8006 201.768C92.8006 202.288 92.9046 202.748 93.1126 203.148C93.3206 203.54 93.6086 203.844 93.9766 204.06C94.3526 204.276 94.7726 204.384 95.2366 204.384C95.9806 204.384 96.5726 204.152 97.0126 203.688C97.4526 203.216 97.6726 202.576 97.6726 201.768C97.6726 200.96 97.4526 200.324 97.0126 199.86C96.5726 199.388 95.9806 199.152 95.2366 199.152ZM102.999 198.408C103.623 198.408 104.179 198.544 104.667 198.816C105.163 199.08 105.551 199.468 105.831 199.98C106.111 200.484 106.251 201.08 106.251 201.768C106.251 202.456 106.111 203.052 105.831 203.556C105.551 204.06 105.163 204.448 104.667 204.72C104.179 204.992 103.623 205.128 102.999 205.128C102.375 205.128 101.815 204.992 101.319 204.72C100.823 204.448 100.431 204.06 100.143 203.556C99.8628 203.044 99.7228 202.448 99.7228 201.768C99.7228 201.08 99.8628 200.484 100.143 199.98C100.431 199.468 100.823 199.08 101.319 198.816C101.815 198.544 102.375 198.408 102.999 198.408ZM102.999 199.14C102.567 199.14 102.167 199.236 101.799 199.428C101.431 199.62 101.135 199.916 100.911 200.316C100.687 200.708 100.575 201.192 100.575 201.768C100.575 202.344 100.687 202.828 100.911 203.22C101.135 203.612 101.431 203.904 101.799 204.096C102.167 204.288 102.567 204.384 102.999 204.384C103.423 204.384 103.815 204.288 104.175 204.096C104.543 203.904 104.839 203.612 105.063 203.22C105.287 202.828 105.399 202.344 105.399 201.768C105.399 201.192 105.287 200.708 105.063 200.316C104.839 199.916 104.543 199.62 104.175 199.428C103.815 199.236 103.423 199.14 102.999 199.14ZM109.737 198.408C110.449 198.408 111.021 198.596 111.453 198.972C111.885 199.348 112.149 199.856 112.245 200.496H111.441C111.393 200.072 111.217 199.724 110.913 199.452C110.617 199.172 110.217 199.032 109.713 199.032C109.281 199.032 108.941 199.14 108.693 199.356C108.453 199.564 108.333 199.844 108.333 200.196C108.333 200.46 108.409 200.672 108.561 200.832C108.721 200.992 108.917 201.116 109.149 201.204C109.381 201.284 109.693 201.368 110.085 201.456C110.565 201.568 110.949 201.684 111.237 201.804C111.533 201.916 111.785 202.096 111.993 202.344C112.201 202.592 112.305 202.928 112.305 203.352C112.305 203.872 112.109 204.3 111.717 204.636C111.333 204.964 110.821 205.128 110.181 205.128C109.429 205.128 108.813 204.944 108.333 204.576C107.853 204.2 107.569 203.688 107.481 203.04H108.297C108.345 203.472 108.533 203.824 108.861 204.096C109.189 204.368 109.633 204.504 110.193 204.504C110.609 204.504 110.933 204.396 111.165 204.18C111.397 203.964 111.513 203.684 111.513 203.34C111.513 203.06 111.433 202.836 111.273 202.668C111.113 202.5 110.913 202.376 110.673 202.296C110.441 202.208 110.121 202.116 109.713 202.02C109.241 201.908 108.861 201.796 108.573 201.684C108.293 201.572 108.053 201.4 107.853 201.168C107.653 200.928 107.553 200.604 107.553 200.196C107.553 199.66 107.749 199.228 108.141 198.9C108.533 198.572 109.065 198.408 109.737 198.408ZM113.647 196.548C113.647 196.372 113.703 196.232 113.815 196.128C113.935 196.024 114.087 195.972 114.271 195.972C114.455 195.972 114.603 196.024 114.715 196.128C114.827 196.232 114.883 196.372 114.883 196.548C114.883 196.716 114.827 196.852 114.715 196.956C114.603 197.06 114.455 197.112 114.271 197.112C114.087 197.112 113.935 197.06 113.815 196.956C113.703 196.852 113.647 196.716 113.647 196.548ZM114.691 198.492V205.044H113.839V198.492H114.691ZM119.487 204.3V205.044H118.707C118.075 205.044 117.603 204.896 117.291 204.6C116.979 204.296 116.823 203.788 116.823 203.076V199.224H115.827V198.492H116.823V196.836H117.675V198.492H119.475V199.224H117.675V203.088C117.675 203.552 117.759 203.872 117.927 204.048C118.095 204.216 118.391 204.3 118.815 204.3H119.487ZM120.679 196.548C120.679 196.372 120.735 196.232 120.847 196.128C120.967 196.024 121.119 195.972 121.303 195.972C121.487 195.972 121.635 196.024 121.747 196.128C121.859 196.232 121.915 196.372 121.915 196.548C121.915 196.716 121.859 196.852 121.747 196.956C121.635 197.06 121.487 197.112 121.303 197.112C121.119 197.112 120.967 197.06 120.847 196.956C120.735 196.852 120.679 196.716 120.679 196.548ZM121.723 198.492V205.044H120.871V198.492H121.723ZM126.507 198.408C127.131 198.408 127.687 198.544 128.175 198.816C128.671 199.08 129.059 199.468 129.339 199.98C129.619 200.484 129.759 201.08 129.759 201.768C129.759 202.456 129.619 203.052 129.339 203.556C129.059 204.06 128.671 204.448 128.175 204.72C127.687 204.992 127.131 205.128 126.507 205.128C125.883 205.128 125.323 204.992 124.827 204.72C124.331 204.448 123.939 204.06 123.651 203.556C123.371 203.044 123.231 202.448 123.231 201.768C123.231 201.08 123.371 200.484 123.651 199.98C123.939 199.468 124.331 199.08 124.827 198.816C125.323 198.544 125.883 198.408 126.507 198.408ZM126.507 199.14C126.075 199.14 125.675 199.236 125.307 199.428C124.939 199.62 124.643 199.916 124.419 200.316C124.195 200.708 124.083 201.192 124.083 201.768C124.083 202.344 124.195 202.828 124.419 203.22C124.643 203.612 124.939 203.904 125.307 204.096C125.675 204.288 126.075 204.384 126.507 204.384C126.931 204.384 127.323 204.288 127.683 204.096C128.051 203.904 128.347 203.612 128.571 203.22C128.795 202.828 128.907 202.344 128.907 201.768C128.907 201.192 128.795 200.708 128.571 200.316C128.347 199.916 128.051 199.62 127.683 199.428C127.323 199.236 126.931 199.14 126.507 199.14ZM134.541 198.372C135.301 198.372 135.917 198.616 136.389 199.104C136.869 199.584 137.109 200.292 137.109 201.228V205.044H136.281V201.288C136.281 200.576 136.101 200.032 135.741 199.656C135.381 199.272 134.889 199.08 134.265 199.08C133.609 199.08 133.085 199.292 132.693 199.716C132.309 200.132 132.117 200.748 132.117 201.564V205.044H131.265V198.492H132.117V200.1C132.285 199.54 132.589 199.112 133.029 198.816C133.469 198.52 133.973 198.372 134.541 198.372ZM150.856 198.492L148.924 205.044H148.036L146.068 199.476L144.076 205.044H143.2L141.268 198.492H142.12L143.68 204.168L145.648 198.492H146.512L148.492 204.168L150.04 198.492H150.856ZM151.745 196.548C151.745 196.372 151.801 196.232 151.913 196.128C152.033 196.024 152.185 195.972 152.369 195.972C152.553 195.972 152.701 196.024 152.813 196.128C152.925 196.232 152.981 196.372 152.981 196.548C152.981 196.716 152.925 196.852 152.813 196.956C152.701 197.06 152.553 197.112 152.369 197.112C152.185 197.112 152.033 197.06 151.913 196.956C151.801 196.852 151.745 196.716 151.745 196.548ZM152.789 198.492V205.044H151.937V198.492H152.789ZM155.461 196.164V205.044H154.609V196.164H155.461ZM158.133 196.164V205.044H157.281V196.164H158.133ZM166.574 198.408C167.174 198.408 167.702 198.544 168.158 198.816C168.622 199.08 168.982 199.468 169.238 199.98C169.502 200.484 169.634 201.08 169.634 201.768C169.634 202.448 169.502 203.044 169.238 203.556C168.982 204.06 168.622 204.448 168.158 204.72C167.694 204.992 167.166 205.128 166.574 205.128C165.902 205.128 165.334 204.956 164.87 204.612C164.406 204.268 164.086 203.812 163.91 203.244V205.044H163.07V196.164H163.91V200.292C164.086 199.724 164.406 199.268 164.87 198.924C165.334 198.58 165.902 198.408 166.574 198.408ZM166.346 199.152C165.882 199.152 165.462 199.26 165.086 199.476C164.718 199.692 164.43 200 164.222 200.4C164.014 200.792 163.91 201.248 163.91 201.768C163.91 202.288 164.014 202.748 164.222 203.148C164.43 203.54 164.718 203.844 165.086 204.06C165.462 204.276 165.882 204.384 166.346 204.384C167.09 204.384 167.682 204.152 168.122 203.688C168.562 203.216 168.782 202.576 168.782 201.768C168.782 200.96 168.562 200.324 168.122 199.86C167.682 199.388 167.09 199.152 166.346 199.152ZM174 204.432C174.592 204.432 175.088 204.284 175.488 203.988C175.888 203.692 176.128 203.292 176.208 202.788H177.096C176.976 203.484 176.644 204.048 176.1 204.48C175.556 204.912 174.868 205.128 174.036 205.128C173.412 205.128 172.856 204.996 172.368 204.732C171.888 204.46 171.512 204.072 171.24 203.568C170.968 203.056 170.832 202.456 170.832 201.768C170.832 201.08 170.968 200.484 171.24 199.98C171.512 199.468 171.888 199.08 172.368 198.816C172.856 198.544 173.412 198.408 174.036 198.408C174.676 198.408 175.228 198.544 175.692 198.816C176.164 199.08 176.52 199.436 176.76 199.884C177.008 200.332 177.132 200.82 177.132 201.348C177.132 201.572 177.116 201.776 177.084 201.96H171.66C171.668 202.512 171.78 202.976 171.996 203.352C172.22 203.72 172.508 203.992 172.86 204.168C173.212 204.344 173.592 204.432 174 204.432ZM174.036 199.092C173.612 199.092 173.224 199.18 172.872 199.356C172.52 199.532 172.232 199.804 172.008 200.172C171.792 200.532 171.676 200.984 171.66 201.528H176.292C176.324 200.992 176.236 200.54 176.028 200.172C175.82 199.804 175.54 199.532 175.188 199.356C174.836 199.18 174.452 199.092 174.036 199.092ZM187.413 198.492V205.044H186.573V203.424C186.405 203.992 186.101 204.424 185.661 204.72C185.221 205.016 184.717 205.164 184.149 205.164C183.381 205.164 182.757 204.924 182.277 204.444C181.805 203.956 181.569 203.244 181.569 202.308V198.492H182.409V202.236C182.409 202.956 182.589 203.508 182.949 203.892C183.309 204.268 183.801 204.456 184.425 204.456C185.081 204.456 185.601 204.248 185.985 203.832C186.377 203.408 186.573 202.788 186.573 201.972V198.492H187.413ZM191.23 198.408C191.942 198.408 192.514 198.596 192.946 198.972C193.378 199.348 193.642 199.856 193.738 200.496H192.934C192.886 200.072 192.71 199.724 192.406 199.452C192.11 199.172 191.71 199.032 191.206 199.032C190.774 199.032 190.434 199.14 190.186 199.356C189.946 199.564 189.826 199.844 189.826 200.196C189.826 200.46 189.902 200.672 190.054 200.832C190.214 200.992 190.41 201.116 190.642 201.204C190.874 201.284 191.186 201.368 191.578 201.456C192.058 201.568 192.442 201.684 192.73 201.804C193.026 201.916 193.278 202.096 193.486 202.344C193.694 202.592 193.798 202.928 193.798 203.352C193.798 203.872 193.602 204.3 193.21 204.636C192.826 204.964 192.314 205.128 191.674 205.128C190.922 205.128 190.306 204.944 189.826 204.576C189.346 204.2 189.062 203.688 188.974 203.04H189.79C189.838 203.472 190.026 203.824 190.354 204.096C190.682 204.368 191.126 204.504 191.686 204.504C192.102 204.504 192.426 204.396 192.658 204.18C192.89 203.964 193.006 203.684 193.006 203.34C193.006 203.06 192.926 202.836 192.766 202.668C192.606 202.5 192.406 202.376 192.166 202.296C191.934 202.208 191.614 202.116 191.206 202.02C190.734 201.908 190.354 201.796 190.066 201.684C189.786 201.572 189.546 201.4 189.346 201.168C189.146 200.928 189.046 200.604 189.046 200.196C189.046 199.66 189.242 199.228 189.634 198.9C190.026 198.572 190.558 198.408 191.23 198.408ZM198.188 204.432C198.78 204.432 199.276 204.284 199.676 203.988C200.076 203.692 200.316 203.292 200.396 202.788H201.284C201.164 203.484 200.832 204.048 200.288 204.48C199.744 204.912 199.056 205.128 198.224 205.128C197.6 205.128 197.044 204.996 196.556 204.732C196.076 204.46 195.7 204.072 195.428 203.568C195.156 203.056 195.02 202.456 195.02 201.768C195.02 201.08 195.156 200.484 195.428 199.98C195.7 199.468 196.076 199.08 196.556 198.816C197.044 198.544 197.6 198.408 198.224 198.408C198.864 198.408 199.416 198.544 199.88 198.816C200.352 199.08 200.708 199.436 200.948 199.884C201.196 200.332 201.32 200.82 201.32 201.348C201.32 201.572 201.304 201.776 201.272 201.96H195.848C195.856 202.512 195.968 202.976 196.184 203.352C196.408 203.72 196.696 203.992 197.048 204.168C197.4 204.344 197.78 204.432 198.188 204.432ZM198.224 199.092C197.8 199.092 197.412 199.18 197.06 199.356C196.708 199.532 196.42 199.804 196.196 200.172C195.98 200.532 195.864 200.984 195.848 201.528H200.48C200.512 200.992 200.424 200.54 200.216 200.172C200.008 199.804 199.728 199.532 199.376 199.356C199.024 199.18 198.64 199.092 198.224 199.092ZM205.592 198.408C206.256 198.408 206.82 198.58 207.284 198.924C207.756 199.268 208.076 199.724 208.244 200.292V196.164H209.084V205.044H208.244V203.244C208.076 203.812 207.756 204.268 207.284 204.612C206.82 204.956 206.256 205.128 205.592 205.128C205 205.128 204.468 204.992 203.996 204.72C203.532 204.448 203.168 204.06 202.904 203.556C202.648 203.044 202.52 202.448 202.52 201.768C202.52 201.08 202.648 200.484 202.904 199.98C203.168 199.468 203.532 199.08 203.996 198.816C204.46 198.544 204.992 198.408 205.592 198.408ZM205.808 199.152C205.072 199.152 204.48 199.388 204.032 199.86C203.592 200.324 203.372 200.96 203.372 201.768C203.372 202.576 203.592 203.216 204.032 203.688C204.48 204.152 205.072 204.384 205.808 204.384C206.272 204.384 206.688 204.276 207.056 204.06C207.432 203.844 207.724 203.54 207.932 203.148C208.148 202.748 208.256 202.288 208.256 201.768C208.256 201.248 208.148 200.792 207.932 200.4C207.724 200 207.432 199.692 207.056 199.476C206.688 199.26 206.272 199.152 205.808 199.152ZM216.999 204.3V205.044H216.219C215.587 205.044 215.115 204.896 214.803 204.6C214.491 204.296 214.335 203.788 214.335 203.076V199.224H213.339V198.492H214.335V196.836H215.187V198.492H216.987V199.224H215.187V203.088C215.187 203.552 215.271 203.872 215.439 204.048C215.607 204.216 215.903 204.3 216.327 204.3H216.999ZM221.346 198.408C221.97 198.408 222.526 198.544 223.014 198.816C223.51 199.08 223.898 199.468 224.178 199.98C224.458 200.484 224.598 201.08 224.598 201.768C224.598 202.456 224.458 203.052 224.178 203.556C223.898 204.06 223.51 204.448 223.014 204.72C222.526 204.992 221.97 205.128 221.346 205.128C220.722 205.128 220.162 204.992 219.666 204.72C219.17 204.448 218.778 204.06 218.49 203.556C218.21 203.044 218.07 202.448 218.07 201.768C218.07 201.08 218.21 200.484 218.49 199.98C218.778 199.468 219.17 199.08 219.666 198.816C220.162 198.544 220.722 198.408 221.346 198.408ZM221.346 199.14C220.914 199.14 220.514 199.236 220.146 199.428C219.778 199.62 219.482 199.916 219.258 200.316C219.034 200.708 218.922 201.192 218.922 201.768C218.922 202.344 219.034 202.828 219.258 203.22C219.482 203.612 219.778 203.904 220.146 204.096C220.514 204.288 220.914 204.384 221.346 204.384C221.77 204.384 222.162 204.288 222.522 204.096C222.89 203.904 223.186 203.612 223.41 203.22C223.634 202.828 223.746 202.344 223.746 201.768C223.746 201.192 223.634 200.708 223.41 200.316C223.186 199.916 222.89 199.62 222.522 199.428C222.162 199.236 221.77 199.14 221.346 199.14ZM28.1872 216.408C28.7872 216.408 29.3152 216.544 29.7712 216.816C30.2352 217.08 30.5952 217.468 30.8512 217.98C31.1152 218.484 31.2472 219.08 31.2472 219.768C31.2472 220.448 31.1152 221.044 30.8512 221.556C30.5952 222.06 30.2352 222.448 29.7712 222.72C29.3072 222.992 28.7792 223.128 28.1872 223.128C27.5152 223.128 26.9472 222.956 26.4832 222.612C26.0192 222.268 25.6992 221.812 25.5232 221.244V226.14H24.6832V216.492H25.5232V218.292C25.6992 217.724 26.0192 217.268 26.4832 216.924C26.9472 216.58 27.5152 216.408 28.1872 216.408ZM27.9592 217.152C27.4952 217.152 27.0752 217.26 26.6992 217.476C26.3312 217.692 26.0432 218 25.8352 218.4C25.6272 218.792 25.5232 219.248 25.5232 219.768C25.5232 220.288 25.6272 220.748 25.8352 221.148C26.0432 221.54 26.3312 221.844 26.6992 222.06C27.0752 222.276 27.4952 222.384 27.9592 222.384C28.7032 222.384 29.2952 222.152 29.7352 221.688C30.1752 221.216 30.3952 220.576 30.3952 219.768C30.3952 218.96 30.1752 218.324 29.7352 217.86C29.2952 217.388 28.7032 217.152 27.9592 217.152ZM35.6134 222.432C36.2054 222.432 36.7014 222.284 37.1014 221.988C37.5014 221.692 37.7414 221.292 37.8214 220.788H38.7094C38.5894 221.484 38.2574 222.048 37.7134 222.48C37.1694 222.912 36.4814 223.128 35.6494 223.128C35.0254 223.128 34.4694 222.996 33.9814 222.732C33.5014 222.46 33.1254 222.072 32.8534 221.568C32.5814 221.056 32.4454 220.456 32.4454 219.768C32.4454 219.08 32.5814 218.484 32.8534 217.98C33.1254 217.468 33.5014 217.08 33.9814 216.816C34.4694 216.544 35.0254 216.408 35.6494 216.408C36.2894 216.408 36.8414 216.544 37.3054 216.816C37.7774 217.08 38.1334 217.436 38.3734 217.884C38.6214 218.332 38.7454 218.82 38.7454 219.348C38.7454 219.572 38.7294 219.776 38.6974 219.96H33.2734C33.2814 220.512 33.3934 220.976 33.6094 221.352C33.8334 221.72 34.1214 221.992 34.4734 222.168C34.8254 222.344 35.2054 222.432 35.6134 222.432ZM35.6494 217.092C35.2254 217.092 34.8374 217.18 34.4854 217.356C34.1334 217.532 33.8454 217.804 33.6214 218.172C33.4054 218.532 33.2894 218.984 33.2734 219.528H37.9054C37.9374 218.992 37.8494 218.54 37.6414 218.172C37.4334 217.804 37.1534 217.532 36.8014 217.356C36.4494 217.18 36.0654 217.092 35.6494 217.092ZM41.1094 217.848C41.3014 217.376 41.6094 217.012 42.0334 216.756C42.4574 216.5 42.9734 216.372 43.5814 216.372V217.284H43.3054C42.6734 217.284 42.1494 217.456 41.7334 217.8C41.3174 218.136 41.1094 218.688 41.1094 219.456V223.044H40.2574V216.492H41.1094V217.848ZM44.5069 214.548C44.5069 214.372 44.5628 214.232 44.6748 214.128C44.7948 214.024 44.9469 213.972 45.1309 213.972C45.3149 213.972 45.4629 214.024 45.5749 214.128C45.6869 214.232 45.7429 214.372 45.7429 214.548C45.7429 214.716 45.6869 214.852 45.5749 214.956C45.4629 215.06 45.3149 215.112 45.1309 215.112C44.9469 215.112 44.7948 215.06 44.6748 214.956C44.5628 214.852 44.5069 214.716 44.5069 214.548ZM45.5508 216.492V223.044H44.6989V216.492H45.5508ZM50.3347 216.408C50.9587 216.408 51.5147 216.544 52.0027 216.816C52.4987 217.08 52.8867 217.468 53.1667 217.98C53.4467 218.484 53.5867 219.08 53.5867 219.768C53.5867 220.456 53.4467 221.052 53.1667 221.556C52.8867 222.06 52.4987 222.448 52.0027 222.72C51.5147 222.992 50.9587 223.128 50.3347 223.128C49.7107 223.128 49.1507 222.992 48.6547 222.72C48.1587 222.448 47.7667 222.06 47.4787 221.556C47.1987 221.044 47.0587 220.448 47.0587 219.768C47.0587 219.08 47.1987 218.484 47.4787 217.98C47.7667 217.468 48.1587 217.08 48.6547 216.816C49.1507 216.544 49.7107 216.408 50.3347 216.408ZM50.3347 217.14C49.9027 217.14 49.5027 217.236 49.1347 217.428C48.7667 217.62 48.4707 217.916 48.2467 218.316C48.0227 218.708 47.9107 219.192 47.9107 219.768C47.9107 220.344 48.0227 220.828 48.2467 221.22C48.4707 221.612 48.7667 221.904 49.1347 222.096C49.5027 222.288 49.9027 222.384 50.3347 222.384C50.7587 222.384 51.1507 222.288 51.5107 222.096C51.8787 221.904 52.1747 221.612 52.3987 221.22C52.6227 220.828 52.7347 220.344 52.7347 219.768C52.7347 219.192 52.6227 218.708 52.3987 218.316C52.1747 217.916 51.8787 217.62 51.5107 217.428C51.1507 217.236 50.7587 217.14 50.3347 217.14ZM57.8534 216.408C58.5174 216.408 59.0814 216.58 59.5454 216.924C60.0174 217.268 60.3374 217.724 60.5054 218.292V214.164H61.3454V223.044H60.5054V221.244C60.3374 221.812 60.0174 222.268 59.5454 222.612C59.0814 222.956 58.5174 223.128 57.8534 223.128C57.2614 223.128 56.7294 222.992 56.2574 222.72C55.7934 222.448 55.4294 222.06 55.1654 221.556C54.9094 221.044 54.7814 220.448 54.7814 219.768C54.7814 219.08 54.9094 218.484 55.1654 217.98C55.4294 217.468 55.7934 217.08 56.2574 216.816C56.7214 216.544 57.2534 216.408 57.8534 216.408ZM58.0694 217.152C57.3334 217.152 56.7414 217.388 56.2934 217.86C55.8534 218.324 55.6334 218.96 55.6334 219.768C55.6334 220.576 55.8534 221.216 56.2934 221.688C56.7414 222.152 57.3334 222.384 58.0694 222.384C58.5334 222.384 58.9494 222.276 59.3174 222.06C59.6934 221.844 59.9854 221.54 60.1934 221.148C60.4094 220.748 60.5174 220.288 60.5174 219.768C60.5174 219.248 60.4094 218.792 60.1934 218.4C59.9854 218 59.6934 217.692 59.3174 217.476C58.9494 217.26 58.5334 217.152 58.0694 217.152ZM62.9756 214.548C62.9756 214.372 63.0316 214.232 63.1436 214.128C63.2636 214.024 63.4156 213.972 63.5996 213.972C63.7836 213.972 63.9316 214.024 64.0436 214.128C64.1556 214.232 64.2116 214.372 64.2116 214.548C64.2116 214.716 64.1556 214.852 64.0436 214.956C63.9316 215.06 63.7836 215.112 63.5996 215.112C63.4156 215.112 63.2636 215.06 63.1436 214.956C63.0316 214.852 62.9756 214.716 62.9756 214.548ZM64.0196 216.492V223.044H63.1676V216.492H64.0196ZM68.7315 216.408C69.5635 216.408 70.2515 216.628 70.7955 217.068C71.3475 217.508 71.6835 218.092 71.8035 218.82H70.9275C70.8395 218.3 70.5955 217.892 70.1955 217.596C69.7955 217.292 69.3035 217.14 68.7195 217.14C68.2955 217.14 67.9035 217.236 67.5435 217.428C67.1915 217.62 66.9075 217.916 66.6915 218.316C66.4835 218.708 66.3795 219.192 66.3795 219.768C66.3795 220.344 66.4835 220.832 66.6915 221.232C66.9075 221.624 67.1915 221.916 67.5435 222.108C67.9035 222.3 68.2955 222.396 68.7195 222.396C69.3035 222.396 69.7955 222.248 70.1955 221.952C70.5955 221.648 70.8395 221.236 70.9275 220.716H71.8035C71.6835 221.444 71.3475 222.028 70.7955 222.468C70.2515 222.908 69.5635 223.128 68.7315 223.128C68.1075 223.128 67.5515 222.996 67.0635 222.732C66.5835 222.46 66.2075 222.072 65.9355 221.568C65.6635 221.056 65.5275 220.456 65.5275 219.768C65.5275 219.08 65.6635 218.484 65.9355 217.98C66.2075 217.468 66.5835 217.08 67.0635 216.816C67.5515 216.544 68.1075 216.408 68.7315 216.408ZM76.076 216.408C76.74 216.408 77.304 216.58 77.768 216.924C78.24 217.268 78.564 217.724 78.74 218.292V216.492H79.568V223.044H78.74V221.244C78.564 221.812 78.24 222.268 77.768 222.612C77.304 222.956 76.74 223.128 76.076 223.128C75.484 223.128 74.952 222.992 74.48 222.72C74.016 222.448 73.652 222.06 73.388 221.556C73.132 221.044 73.004 220.448 73.004 219.768C73.004 219.08 73.132 218.484 73.388 217.98C73.652 217.468 74.016 217.08 74.48 216.816C74.944 216.544 75.476 216.408 76.076 216.408ZM76.292 217.152C75.556 217.152 74.964 217.388 74.516 217.86C74.076 218.324 73.856 218.96 73.856 219.768C73.856 220.576 74.076 221.216 74.516 221.688C74.964 222.152 75.556 222.384 76.292 222.384C76.756 222.384 77.172 222.276 77.54 222.06C77.916 221.844 78.208 221.54 78.416 221.148C78.632 220.748 78.74 220.288 78.74 219.768C78.74 219.248 78.632 218.792 78.416 218.4C78.208 218 77.916 217.692 77.54 217.476C77.172 217.26 76.756 217.152 76.292 217.152ZM82.2423 214.164V223.044H81.3903V214.164H82.2423ZM84.9141 214.164V223.044H84.0621V214.164H84.9141ZM86.914 216.492L89.194 221.952L91.294 216.492H92.23L88.378 226.14H87.418L88.738 222.972L85.978 216.492H86.914ZM99.1737 216.408C99.8377 216.408 100.402 216.58 100.866 216.924C101.338 217.268 101.662 217.724 101.838 218.292V216.492H102.666V223.044H101.838V221.244C101.662 221.812 101.338 222.268 100.866 222.612C100.402 222.956 99.8377 223.128 99.1737 223.128C98.5817 223.128 98.0497 222.992 97.5777 222.72C97.1137 222.448 96.7497 222.06 96.4857 221.556C96.2297 221.044 96.1017 220.448 96.1017 219.768C96.1017 219.08 96.2297 218.484 96.4857 217.98C96.7497 217.468 97.1137 217.08 97.5777 216.816C98.0417 216.544 98.5737 216.408 99.1737 216.408ZM99.3897 217.152C98.6537 217.152 98.0617 217.388 97.6137 217.86C97.1737 218.324 96.9537 218.96 96.9537 219.768C96.9537 220.576 97.1737 221.216 97.6137 221.688C98.0617 222.152 98.6537 222.384 99.3897 222.384C99.8537 222.384 100.27 222.276 100.638 222.06C101.014 221.844 101.306 221.54 101.514 221.148C101.73 220.748 101.838 220.288 101.838 219.768C101.838 219.248 101.73 218.792 101.514 218.4C101.306 218 101.014 217.692 100.638 217.476C100.27 217.26 99.8537 217.152 99.3897 217.152ZM107.248 216.408C107.912 216.408 108.476 216.58 108.94 216.924C109.412 217.268 109.732 217.724 109.9 218.292V214.164H110.74V223.044H109.9V221.244C109.732 221.812 109.412 222.268 108.94 222.612C108.476 222.956 107.912 223.128 107.248 223.128C106.656 223.128 106.124 222.992 105.652 222.72C105.188 222.448 104.824 222.06 104.56 221.556C104.304 221.044 104.176 220.448 104.176 219.768C104.176 219.08 104.304 218.484 104.56 217.98C104.824 217.468 105.188 217.08 105.652 216.816C106.116 216.544 106.648 216.408 107.248 216.408ZM107.464 217.152C106.728 217.152 106.136 217.388 105.688 217.86C105.248 218.324 105.028 218.96 105.028 219.768C105.028 220.576 105.248 221.216 105.688 221.688C106.136 222.152 106.728 222.384 107.464 222.384C107.928 222.384 108.344 222.276 108.712 222.06C109.088 221.844 109.38 221.54 109.588 221.148C109.804 220.748 109.912 220.288 109.912 219.768C109.912 219.248 109.804 218.792 109.588 218.4C109.38 218 109.088 217.692 108.712 217.476C108.344 217.26 107.928 217.152 107.464 217.152ZM113.078 215.112C112.894 215.112 112.742 215.06 112.622 214.956C112.51 214.852 112.454 214.716 112.454 214.548C112.454 214.372 112.51 214.232 112.622 214.128C112.742 214.024 112.894 213.972 113.078 213.972C113.262 213.972 113.41 214.024 113.522 214.128C113.634 214.232 113.69 214.372 113.69 214.548C113.69 214.716 113.634 214.852 113.522 214.956C113.41 215.06 113.262 215.112 113.078 215.112ZM111.326 225.396H111.782C112.086 225.396 112.306 225.328 112.442 225.192C112.586 225.056 112.658 224.82 112.658 224.484V216.492H113.498V224.532C113.498 225.604 112.954 226.14 111.866 226.14H111.326V225.396ZM120.98 216.492V223.044H120.14V221.424C119.972 221.992 119.668 222.424 119.228 222.72C118.788 223.016 118.284 223.164 117.716 223.164C116.948 223.164 116.324 222.924 115.844 222.444C115.372 221.956 115.136 221.244 115.136 220.308V216.492H115.976V220.236C115.976 220.956 116.156 221.508 116.516 221.892C116.876 222.268 117.368 222.456 117.992 222.456C118.648 222.456 119.168 222.248 119.552 221.832C119.944 221.408 120.14 220.788 120.14 219.972V216.492H120.98ZM124.796 216.408C125.508 216.408 126.08 216.596 126.512 216.972C126.944 217.348 127.208 217.856 127.304 218.496H126.5C126.452 218.072 126.276 217.724 125.972 217.452C125.676 217.172 125.276 217.032 124.772 217.032C124.34 217.032 124 217.14 123.752 217.356C123.512 217.564 123.392 217.844 123.392 218.196C123.392 218.46 123.468 218.672 123.62 218.832C123.78 218.992 123.976 219.116 124.208 219.204C124.44 219.284 124.752 219.368 125.144 219.456C125.624 219.568 126.008 219.684 126.296 219.804C126.592 219.916 126.844 220.096 127.052 220.344C127.26 220.592 127.364 220.928 127.364 221.352C127.364 221.872 127.168 222.3 126.776 222.636C126.392 222.964 125.88 223.128 125.24 223.128C124.488 223.128 123.872 222.944 123.392 222.576C122.912 222.2 122.628 221.688 122.54 221.04H123.356C123.404 221.472 123.592 221.824 123.92 222.096C124.248 222.368 124.692 222.504 125.252 222.504C125.668 222.504 125.992 222.396 126.224 222.18C126.456 221.964 126.572 221.684 126.572 221.34C126.572 221.06 126.492 220.836 126.332 220.668C126.172 220.5 125.972 220.376 125.732 220.296C125.5 220.208 125.18 220.116 124.772 220.02C124.3 219.908 123.92 219.796 123.632 219.684C123.352 219.572 123.112 219.4 122.912 219.168C122.712 218.928 122.612 218.604 122.612 218.196C122.612 217.66 122.808 217.228 123.2 216.9C123.592 216.572 124.124 216.408 124.796 216.408ZM131.874 222.3V223.044H131.094C130.462 223.044 129.99 222.896 129.678 222.6C129.366 222.296 129.21 221.788 129.21 221.076V217.224H128.214V216.492H129.21V214.836H130.062V216.492H131.862V217.224H130.062V221.088C130.062 221.552 130.146 221.872 130.314 222.048C130.482 222.216 130.778 222.3 131.202 222.3H131.874ZM139.351 222.3V223.044H138.571C137.939 223.044 137.467 222.896 137.155 222.6C136.843 222.296 136.687 221.788 136.687 221.076V217.224H135.691V216.492H136.687V214.836H137.539V216.492H139.339V217.224H137.539V221.088C137.539 221.552 137.623 221.872 137.791 222.048C137.959 222.216 138.255 222.3 138.679 222.3H139.351ZM144.01 216.372C144.77 216.372 145.386 216.616 145.858 217.104C146.338 217.584 146.578 218.292 146.578 219.228V223.044H145.75V219.288C145.75 218.576 145.57 218.032 145.21 217.656C144.85 217.272 144.358 217.08 143.734 217.08C143.078 217.08 142.554 217.292 142.162 217.716C141.778 218.132 141.586 218.748 141.586 219.564V223.044H140.734V214.164H141.586V218.1C141.754 217.54 142.058 217.112 142.498 216.816C142.938 216.52 143.442 216.372 144.01 216.372ZM151.207 222.432C151.799 222.432 152.295 222.284 152.695 221.988C153.095 221.692 153.335 221.292 153.415 220.788H154.303C154.183 221.484 153.851 222.048 153.307 222.48C152.763 222.912 152.075 223.128 151.243 223.128C150.619 223.128 150.063 222.996 149.575 222.732C149.095 222.46 148.719 222.072 148.447 221.568C148.175 221.056 148.039 220.456 148.039 219.768C148.039 219.08 148.175 218.484 148.447 217.98C148.719 217.468 149.095 217.08 149.575 216.816C150.063 216.544 150.619 216.408 151.243 216.408C151.883 216.408 152.435 216.544 152.899 216.816C153.371 217.08 153.727 217.436 153.967 217.884C154.215 218.332 154.339 218.82 154.339 219.348C154.339 219.572 154.323 219.776 154.291 219.96H148.867C148.875 220.512 148.987 220.976 149.203 221.352C149.427 221.72 149.715 221.992 150.067 222.168C150.419 222.344 150.799 222.432 151.207 222.432ZM151.243 217.092C150.819 217.092 150.431 217.18 150.079 217.356C149.727 217.532 149.439 217.804 149.215 218.172C148.999 218.532 148.883 218.984 148.867 219.528H153.499C153.531 218.992 153.443 218.54 153.235 218.172C153.027 217.804 152.747 217.532 152.395 217.356C152.043 217.18 151.659 217.092 151.243 217.092ZM164.128 220.896C164.128 221.28 164.036 221.644 163.852 221.988C163.676 222.324 163.4 222.6 163.024 222.816C162.648 223.024 162.18 223.128 161.62 223.128C161.076 223.128 160.592 223.028 160.168 222.828C159.744 222.628 159.404 222.356 159.148 222.012C158.9 221.66 158.756 221.268 158.716 220.836H159.604C159.636 221.084 159.728 221.332 159.88 221.58C160.032 221.828 160.252 222.036 160.54 222.204C160.828 222.364 161.176 222.444 161.584 222.444C162.12 222.444 162.528 222.3 162.808 222.012C163.096 221.724 163.24 221.36 163.24 220.92C163.24 220.544 163.144 220.24 162.952 220.008C162.768 219.768 162.536 219.584 162.256 219.456C161.984 219.328 161.608 219.188 161.128 219.036C160.6 218.868 160.172 218.708 159.844 218.556C159.524 218.396 159.252 218.164 159.028 217.86C158.804 217.556 158.692 217.152 158.692 216.648C158.692 216.008 158.916 215.488 159.364 215.088C159.812 214.688 160.428 214.488 161.212 214.488C162.012 214.488 162.644 214.684 163.108 215.076C163.58 215.468 163.86 215.956 163.948 216.54H163.048C162.976 216.18 162.784 215.86 162.472 215.58C162.168 215.3 161.748 215.16 161.212 215.16C160.716 215.16 160.32 215.288 160.024 215.544C159.728 215.8 159.58 216.156 159.58 216.612C159.58 216.972 159.672 217.264 159.856 217.488C160.04 217.712 160.264 217.884 160.528 218.004C160.8 218.124 161.168 218.26 161.632 218.412C162.168 218.58 162.6 218.744 162.928 218.904C163.264 219.064 163.548 219.304 163.78 219.624C164.012 219.944 164.128 220.368 164.128 220.896ZM165.948 214.584L168.672 222.06L171.42 214.584H172.344L169.2 223.044H168.156L165.024 214.584H165.948ZM178.059 223.044L175.743 219.516H174.375V223.044H173.523V214.584H176.115C177.067 214.584 177.775 214.808 178.239 215.256C178.711 215.704 178.947 216.308 178.947 217.068C178.947 217.772 178.747 218.332 178.347 218.748C177.955 219.164 177.383 219.412 176.631 219.492L179.019 223.044H178.059ZM174.375 218.88H176.055C177.415 218.88 178.095 218.292 178.095 217.116C178.095 215.916 177.415 215.316 176.055 215.316H174.375V218.88ZM186.976 216.408C187.576 216.408 188.104 216.544 188.56 216.816C189.024 217.08 189.384 217.468 189.64 217.98C189.904 218.484 190.036 219.08 190.036 219.768C190.036 220.448 189.904 221.044 189.64 221.556C189.384 222.06 189.024 222.448 188.56 222.72C188.096 222.992 187.568 223.128 186.976 223.128C186.304 223.128 185.736 222.956 185.272 222.612C184.808 222.268 184.488 221.812 184.312 221.244V223.044H183.472V214.164H184.312V218.292C184.488 217.724 184.808 217.268 185.272 216.924C185.736 216.58 186.304 216.408 186.976 216.408ZM186.748 217.152C186.284 217.152 185.864 217.26 185.488 217.476C185.12 217.692 184.832 218 184.624 218.4C184.416 218.792 184.312 219.248 184.312 219.768C184.312 220.288 184.416 220.748 184.624 221.148C184.832 221.54 185.12 221.844 185.488 222.06C185.864 222.276 186.284 222.384 186.748 222.384C187.492 222.384 188.084 222.152 188.524 221.688C188.964 221.216 189.184 220.576 189.184 219.768C189.184 218.96 188.964 218.324 188.524 217.86C188.084 217.388 187.492 217.152 186.748 217.152ZM194.307 216.408C194.971 216.408 195.535 216.58 195.999 216.924C196.471 217.268 196.795 217.724 196.971 218.292V216.492H197.799V223.044H196.971V221.244C196.795 221.812 196.471 222.268 195.999 222.612C195.535 222.956 194.971 223.128 194.307 223.128C193.715 223.128 193.183 222.992 192.711 222.72C192.247 222.448 191.883 222.06 191.619 221.556C191.363 221.044 191.235 220.448 191.235 219.768C191.235 219.08 191.363 218.484 191.619 217.98C191.883 217.468 192.247 217.08 192.711 216.816C193.175 216.544 193.707 216.408 194.307 216.408ZM194.523 217.152C193.787 217.152 193.195 217.388 192.747 217.86C192.307 218.324 192.087 218.96 192.087 219.768C192.087 220.576 192.307 221.216 192.747 221.688C193.195 222.152 193.787 222.384 194.523 222.384C194.987 222.384 195.403 222.276 195.771 222.06C196.147 221.844 196.439 221.54 196.647 221.148C196.863 220.748 196.971 220.288 196.971 219.768C196.971 219.248 196.863 218.792 196.647 218.4C196.439 218 196.147 217.692 195.771 217.476C195.403 217.26 194.987 217.152 194.523 217.152ZM201.601 216.408C202.313 216.408 202.885 216.596 203.317 216.972C203.749 217.348 204.013 217.856 204.109 218.496H203.305C203.257 218.072 203.081 217.724 202.777 217.452C202.481 217.172 202.081 217.032 201.577 217.032C201.145 217.032 200.805 217.14 200.557 217.356C200.317 217.564 200.197 217.844 200.197 218.196C200.197 218.46 200.273 218.672 200.425 218.832C200.585 218.992 200.781 219.116 201.013 219.204C201.245 219.284 201.557 219.368 201.949 219.456C202.429 219.568 202.813 219.684 203.101 219.804C203.397 219.916 203.649 220.096 203.857 220.344C204.065 220.592 204.169 220.928 204.169 221.352C204.169 221.872 203.973 222.3 203.581 222.636C203.197 222.964 202.685 223.128 202.045 223.128C201.293 223.128 200.677 222.944 200.197 222.576C199.717 222.2 199.433 221.688 199.345 221.04H200.161C200.209 221.472 200.397 221.824 200.725 222.096C201.053 222.368 201.497 222.504 202.057 222.504C202.473 222.504 202.797 222.396 203.029 222.18C203.261 221.964 203.377 221.684 203.377 221.34C203.377 221.06 203.297 220.836 203.137 220.668C202.977 220.5 202.777 220.376 202.537 220.296C202.305 220.208 201.985 220.116 201.577 220.02C201.105 219.908 200.725 219.796 200.437 219.684C200.157 219.572 199.917 219.4 199.717 219.168C199.517 218.928 199.417 218.604 199.417 218.196C199.417 217.66 199.613 217.228 200.005 216.9C200.397 216.572 200.929 216.408 201.601 216.408ZM209.207 223.044L206.555 220.044V223.044H205.703V214.164H206.555V219.372L209.159 216.492H210.203L207.191 219.732L210.287 223.044H209.207ZM214.137 222.432C214.729 222.432 215.225 222.284 215.625 221.988C216.025 221.692 216.265 221.292 216.345 220.788H217.233C217.113 221.484 216.781 222.048 216.237 222.48C215.693 222.912 215.005 223.128 214.173 223.128C213.549 223.128 212.993 222.996 212.505 222.732C212.025 222.46 211.649 222.072 211.377 221.568C211.105 221.056 210.969 220.456 210.969 219.768C210.969 219.08 211.105 218.484 211.377 217.98C211.649 217.468 212.025 217.08 212.505 216.816C212.993 216.544 213.549 216.408 214.173 216.408C214.813 216.408 215.365 216.544 215.829 216.816C216.301 217.08 216.657 217.436 216.897 217.884C217.145 218.332 217.269 218.82 217.269 219.348C217.269 219.572 217.253 219.776 217.221 219.96H211.797C211.805 220.512 211.917 220.976 212.133 221.352C212.357 221.72 212.645 221.992 212.997 222.168C213.349 222.344 213.729 222.432 214.137 222.432ZM214.173 217.092C213.749 217.092 213.361 217.18 213.009 217.356C212.657 217.532 212.369 217.804 212.145 218.172C211.929 218.532 211.813 218.984 211.797 219.528H216.429C216.461 218.992 216.373 218.54 216.165 218.172C215.957 217.804 215.677 217.532 215.325 217.356C214.973 217.18 214.589 217.092 214.173 217.092ZM221.757 222.3V223.044H220.977C220.345 223.044 219.873 222.896 219.561 222.6C219.249 222.296 219.093 221.788 219.093 221.076V217.224H218.097V216.492H219.093V214.836H219.945V216.492H221.745V217.224H219.945V221.088C219.945 221.552 220.029 221.872 220.197 222.048C220.365 222.216 220.661 222.3 221.085 222.3H221.757Z" fill="white"/>
<path fill-rule="evenodd" clip-rule="evenodd" d="M59.7142 80.6942H71.3152V6.72681C71.3152 3.4131 74.0015 0.726807 77.3152 0.726807H168.635C171.949 0.726807 174.635 3.4131 174.635 6.72681V80.6942H186.285C191.808 80.6942 196.285 85.1714 196.285 90.6942V92.1191C196.285 97.6419 191.808 102.119 186.285 102.119H59.7142C54.1913 102.119 49.7142 97.6419 49.7142 92.1191V90.6942C49.7142 85.1714 54.1913 80.6942 59.7142 80.6942ZM59.7142 82.6942H71.3152V100.119V100.119H59.7142C55.2959 100.119 51.7142 96.5374 51.7142 92.1191V90.6942C51.7142 86.276 55.2959 82.6942 59.7142 82.6942ZM186.285 100.119H174.635V100.119V82.6942H186.285C190.704 82.6942 194.285 86.276 194.285 90.6942V92.1191C194.285 96.5374 190.704 100.119 186.285 100.119ZM168.635 2.72681H77.3152C75.106 2.72681 73.3152 4.51767 73.3152 6.72681V100.119H172.635V6.72681C172.635 4.51767 170.844 2.72681 168.635 2.72681ZM150.348 56.2499C150.453 56.1824 150.576 56.1455 150.701 56.1434C150.829 56.1417 150.955 56.1763 151.064 56.2433C151.173 56.3104 151.261 56.407 151.317 56.522L160.717 71.2942L160.738 71.3258L160.741 71.3311L160.745 71.3377C160.756 71.3557 160.767 71.3742 160.776 71.3931L160.778 71.3971L160.779 71.3984L160.784 71.4088L160.789 71.4213L160.793 71.4305L160.798 71.4433L160.804 71.4591L160.809 71.4736C160.815 71.4901 160.82 71.5068 160.824 71.5237V71.5264C160.826 71.535 160.828 71.5437 160.83 71.5525C160.832 71.5626 160.834 71.5729 160.836 71.5831L160.837 71.5897V71.591C160.838 71.5987 160.839 71.6065 160.84 71.6142L160.841 71.6332C160.842 71.6464 160.843 71.6596 160.844 71.6728C160.844 71.6935 160.844 71.7142 160.842 71.7348V71.7401C160.842 71.7482 160.841 71.7562 160.84 71.7642L160.838 71.7807L160.836 71.7915C160.834 71.8019 160.833 71.8123 160.831 71.8226C160.829 71.8329 160.826 71.8433 160.824 71.8536L160.823 71.8575L160.821 71.8601C160.817 71.8757 160.813 71.8911 160.808 71.9063L160.803 71.9222L160.798 71.9367C160.791 71.9528 160.784 71.9686 160.776 71.9842V71.9855C160.772 71.9949 160.766 72.0042 160.761 72.0134C160.756 72.0223 160.75 72.031 160.745 72.0396L160.743 72.0435L160.742 72.0449C160.731 72.0635 160.718 72.0815 160.705 72.0989C160.695 72.1118 160.685 72.1243 160.674 72.1364C160.67 72.1411 160.666 72.1458 160.662 72.1504C160.654 72.1588 160.646 72.1669 160.638 72.1749C160.632 72.1805 160.627 72.1859 160.621 72.1913L160.613 72.1979L160.61 72.2005L160.6 72.2088L160.589 72.2167C160.583 72.2215 160.576 72.2262 160.569 72.2309L160.56 72.2388L160.547 72.248C160.533 72.2578 160.518 72.2671 160.503 72.2757L160.489 72.2836L151.126 77.6347C151.007 77.7276 150.86 77.7778 150.708 77.7774C150.557 77.7769 150.411 77.7257 150.292 77.6321L140.921 72.277L140.92 72.2757L140.909 72.2704L140.908 72.2691C140.87 72.2463 140.834 72.2198 140.801 72.19L140.8 72.1887C140.784 72.1736 140.768 72.1577 140.754 72.1412C140.745 72.1317 140.737 72.122 140.73 72.1121C140.723 72.1044 140.716 72.0965 140.71 72.0884C140.708 72.0862 140.707 72.084 140.705 72.0818C140.702 72.0773 140.699 72.0727 140.696 72.0682L140.687 72.0557C140.682 72.0482 140.678 72.0406 140.673 72.033V72.0317C140.671 72.0282 140.669 72.0247 140.667 72.0212C140.664 72.017 140.662 72.0128 140.66 72.0085L140.652 71.9938C140.648 71.9871 140.645 71.9804 140.641 71.9736V71.9723C140.632 71.952 140.624 71.9314 140.616 71.9103V71.909L140.611 71.8905C140.601 71.8582 140.593 71.8251 140.587 71.7915L140.585 71.7784C140.582 71.7565 140.58 71.7345 140.579 71.7124V71.7111C140.578 71.666 140.581 71.6209 140.589 71.5765C140.596 71.5319 140.608 71.4881 140.624 71.4459C140.629 71.4333 140.634 71.4208 140.64 71.4085C140.643 71.4007 140.647 71.3929 140.651 71.3852L140.652 71.3839C140.665 71.3593 140.679 71.3355 140.694 71.3126L150.103 56.526C150.158 56.4131 150.242 56.3175 150.348 56.2499ZM150.036 67.1898V59.1488L143 70.2044L150.036 67.1898ZM158.423 70.2044L151.387 59.1488V67.1898L158.423 70.2044ZM150.036 75.9275V68.6595L142.769 71.7757L150.036 75.9275ZM158.654 71.7757L151.387 68.6595V75.9275L158.654 71.7757ZM159.833 74.4789C159.937 74.4195 160.054 74.3885 160.174 74.3892C160.298 74.39 160.42 74.4254 160.526 74.4914C160.632 74.5573 160.718 74.6513 160.774 74.7629C160.829 74.8746 160.853 74.9994 160.842 75.1237C160.831 75.248 160.786 75.3669 160.712 75.4671L151.299 88.2418C151.24 88.3457 151.154 88.4321 151.051 88.4922C150.947 88.5522 150.83 88.5838 150.711 88.5837C150.591 88.5835 150.474 88.5517 150.37 88.4914C150.267 88.4311 150.182 88.3445 150.123 88.2405L140.711 75.4671C140.636 75.3656 140.591 75.2452 140.581 75.1194C140.571 74.9937 140.597 74.8677 140.655 74.7557C140.713 74.6436 140.801 74.55 140.909 74.4855C141.018 74.421 141.142 74.3881 141.268 74.3906C141.381 74.3926 141.492 74.423 141.59 74.4789L150.712 79.6915L159.833 74.4789ZM150.036 80.863L143.696 77.2389L150.036 85.8447V80.863ZM151.387 85.8447L157.728 77.2389L151.387 80.863V85.8447ZM102.018 14.2634C92.8078 14.2634 85.3261 21.7451 85.3261 30.955C85.3261 40.165 92.8078 47.6467 102.018 47.6467C111.228 47.6467 118.709 40.165 118.709 30.955C118.709 21.7451 111.228 14.2634 102.018 14.2634ZM102.018 15.7148C110.443 15.7148 117.258 22.5295 117.258 30.955C117.258 39.3806 110.443 46.1952 102.018 46.1952C93.5922 46.1952 86.7776 39.3806 86.7776 30.955C86.7776 22.5295 93.5922 15.7148 102.018 15.7148ZM99.1149 20.0692V22.2463H95.4863V39.6637H99.1149V41.8409H100.566V39.6637H102.018V41.8409H103.469V39.6566C105.137 39.6094 109.13 39.142 109.13 34.7282C109.13 31.6802 106.517 30.665 105.428 30.5199V30.4476C105.936 30.3024 108.477 29.5039 108.477 26.5284C108.477 22.8167 104.962 22.3272 103.469 22.2619V20.0692H102.018V22.2463H100.566V20.0692H99.1149ZM97.156 23.6255H102.888C105.501 23.6255 106.807 24.7141 106.807 26.8913C106.807 27.3267 106.736 27.6893 106.59 28.0521C106.445 28.415 106.155 28.7059 105.865 28.9961C105.502 29.2864 105.138 29.503 104.63 29.6482C104.122 29.7933 103.541 29.8664 102.888 29.8664H97.156V23.6255ZM97.156 31.3179H102.888C104.34 31.3179 105.502 31.6076 106.3 32.1882C107.098 32.7688 107.461 33.6396 107.461 34.7282C107.461 35.4539 107.316 36.0348 107.098 36.4702C106.808 36.9057 106.517 37.2685 106.082 37.5588C105.646 37.8491 105.211 38.0674 104.63 38.14C104.122 38.2126 103.541 38.2846 102.888 38.2846H97.156V31.3179ZM101.311 61.426L94.9467 67.7899C94.5562 68.1805 94.5562 68.8136 94.9467 69.2042C95.3372 69.5947 95.9704 69.5947 96.3609 69.2042L101.018 64.5473V87.9673C101.018 88.5196 101.465 88.9673 102.018 88.9673C102.57 88.9673 103.018 88.5196 103.018 87.9673V64.5473L107.675 69.2042C108.065 69.5947 108.698 69.5947 109.089 69.2042C109.479 68.8136 109.479 68.1805 109.089 67.7899L102.725 61.426C102.334 61.0355 101.701 61.0355 101.311 61.426ZM157.783 35.7996L151.419 42.1636C151.028 42.5541 150.395 42.5541 150.005 42.1636L143.641 35.7996C143.25 35.4091 143.25 34.7759 143.641 34.3854C144.031 33.9949 144.664 33.9949 145.055 34.3854L149.712 39.0423V15.6223C149.712 15.07 150.16 14.6223 150.712 14.6223C151.264 14.6223 151.712 15.07 151.712 15.6223V39.0423L156.369 34.3854C156.759 33.9949 157.392 33.9949 157.783 34.3854C158.173 34.7759 158.173 35.4091 157.783 35.7996Z" fill="white"/>
<defs>
<linearGradient id="paint0_linear" x1="215.009" y1="161.807" x2="25.9093" y2="161.995" gradientUnits="userSpaceOnUse">
<stop stop-color="#FF168A"/>
<stop offset="0.315399" stop-color="#FABA33"/>
<stop offset="0.573227" stop-color="#E9E031"/>
<stop offset="0.826995" stop-color="#45F273"/>
<stop offset="1" stop-color="#30FFE9"/>
</linearGradient>
</defs>
</svg>
