<svg width="344" height="349" viewBox="0 0 344 349" fill="none" xmlns="http://www.w3.org/2000/svg">
<g filter="url(#filter0_f)">
<path d="M51.7418 84.2638L51.7418 76.7638L51.7418 84.2638ZM314.242 114.264V296.872H329.242V114.264H314.242ZM291.742 319.372H51.7418V334.372H291.742V319.372ZM29.2418 296.872V114.264H14.2418V296.872H29.2418ZM51.7418 91.7638L94.1529 91.7638V76.7638L51.7418 76.7638L51.7418 91.7638ZM249.451 91.7638H291.742V76.7638H249.451V91.7638ZM51.7418 319.372C39.3154 319.372 29.2418 309.299 29.2418 296.872H14.2418C14.2418 317.583 31.0312 334.372 51.7418 334.372V319.372ZM314.242 296.872C314.242 309.299 304.168 319.372 291.742 319.372V334.372C312.453 334.372 329.242 317.583 329.242 296.872H314.242ZM329.242 114.264C329.242 93.5531 312.453 76.7638 291.742 76.7638V91.7638C304.168 91.7638 314.242 101.837 314.242 114.264H329.242ZM29.2418 114.264C29.2418 101.837 39.3154 91.7638 51.7418 91.7638L51.7418 76.7638C31.0311 76.7638 14.2418 93.5532 14.2418 114.264H29.2418Z" fill="url(#paint0_linear)"/>
</g>
<g filter="url(#filter1_f)">
<circle cx="94.1069" cy="84.2637" r="3.125" fill="#48F272"/>
</g>
<g filter="url(#filter2_f)">
<circle cx="249.57" cy="84.2637" r="3.125" fill="#FD6461"/>
</g>
<g filter="url(#filter3_f)">
<path d="M51.7418 83.0137L51.7418 80.0137L51.7418 83.0137ZM318.742 113.014V295.622H324.742V113.014H318.742ZM291.742 322.622H51.7418V328.622H291.742V322.622ZM24.7418 295.622V113.014H18.7418V295.622H24.7418ZM51.7418 86.0137L94.1529 86.0137V80.0137L51.7418 80.0137L51.7418 86.0137ZM249.451 86.0137H291.742V80.0137H249.451V86.0137ZM51.7418 322.622C36.8301 322.622 24.7418 310.534 24.7418 295.622H18.7418C18.7418 313.848 33.5164 328.622 51.7418 328.622V322.622ZM318.742 295.622C318.742 310.534 306.654 322.622 291.742 322.622V328.622C309.967 328.622 324.742 313.848 324.742 295.622H318.742ZM324.742 113.014C324.742 94.7883 309.967 80.0137 291.742 80.0137V86.0137C306.654 86.0137 318.742 98.102 318.742 113.014H324.742ZM24.7418 113.014C24.7418 98.102 36.8301 86.0137 51.7418 86.0137L51.7418 80.0137C33.5164 80.0137 18.7418 94.7883 18.7418 113.014H24.7418Z" fill="url(#paint1_linear)"/>
</g>
<g filter="url(#filter4_f)">
<circle cx="94.1677" cy="83.0137" r="1.875" fill="#48F272"/>
</g>
<g filter="url(#filter5_f)">
<circle cx="249.442" cy="83.0137" r="1.875" fill="#FD6461"/>
</g>
<path d="M51.7418 83.0137V82.0137V83.0137ZM320.742 113.014V295.622H322.742V113.014H320.742ZM291.742 324.622H51.7418V326.622H291.742V324.622ZM22.7418 295.622V113.014H20.7418V295.622H22.7418ZM51.7418 84.0137L94.1529 84.0137V82.0137L51.7418 82.0137V84.0137ZM249.451 84.0137H291.742V82.0137H249.451V84.0137ZM51.7418 324.622C35.7256 324.622 22.7418 311.639 22.7418 295.622H20.7418C20.7418 312.743 34.621 326.622 51.7418 326.622V324.622ZM320.742 295.622C320.742 311.639 307.758 324.622 291.742 324.622V326.622C308.863 326.622 322.742 312.743 322.742 295.622H320.742ZM322.742 113.014C322.742 95.8929 308.863 82.0137 291.742 82.0137V84.0137C307.758 84.0137 320.742 96.9974 320.742 113.014H322.742ZM22.7418 113.014C22.7418 96.9974 35.7256 84.0137 51.7418 84.0137V82.0137C34.621 82.0137 20.7418 95.8929 20.7418 113.014H22.7418Z" fill="white"/>
<circle cx="94.1677" cy="83.0137" r="1" fill="white"/>
<circle cx="249.57" cy="83.0137" r="1" fill="white"/>
<path d="M58.2618 159.957V176.925H54.1578V159.957H58.2618ZM69.5913 163.389C71.1273 163.389 72.3433 163.901 73.2393 164.925C74.1513 165.949 74.6073 167.357 74.6073 169.149V176.925H70.5033V169.629C70.5033 168.733 70.2633 168.037 69.7833 167.541C69.3193 167.029 68.6953 166.773 67.9113 166.773C67.0793 166.773 66.4153 167.037 65.9193 167.565C65.4393 168.093 65.1993 168.845 65.1993 169.821V176.925H61.0953V163.533H65.1993V165.981C65.5833 165.181 66.1513 164.549 66.9033 164.085C67.6713 163.621 68.5673 163.389 69.5913 163.389ZM83.3621 163.365C85.0901 163.365 86.5381 163.845 87.7061 164.805C88.8741 165.749 89.6101 167.053 89.9141 168.717H85.5701C85.4421 168.141 85.1781 167.693 84.7781 167.373C84.3781 167.053 83.8741 166.893 83.2661 166.893C82.5461 166.893 81.9541 167.181 81.4901 167.757C81.0261 168.317 80.7941 169.141 80.7941 170.229C80.7941 171.317 81.0261 172.149 81.4901 172.725C81.9541 173.285 82.5461 173.565 83.2661 173.565C83.8741 173.565 84.3781 173.405 84.7781 173.085C85.1781 172.765 85.4421 172.317 85.5701 171.741H89.9141C89.6101 173.405 88.8741 174.717 87.7061 175.677C86.5381 176.621 85.0901 177.093 83.3621 177.093C82.0501 177.093 80.8821 176.821 79.8581 176.277C78.8501 175.717 78.0581 174.917 77.4821 173.877C76.9061 172.837 76.6181 171.621 76.6181 170.229C76.6181 168.821 76.8981 167.605 77.4581 166.581C78.0341 165.541 78.8341 164.749 79.8581 164.205C80.8821 163.645 82.0501 163.365 83.3621 163.365ZM104.776 169.869C104.776 170.205 104.736 170.573 104.656 170.973H95.3683C95.4163 171.981 95.6723 172.709 96.1363 173.157C96.6003 173.589 97.1923 173.805 97.9123 173.805C98.5203 173.805 99.0243 173.653 99.4243 173.349C99.8243 173.045 100.088 172.653 100.216 172.173H104.56C104.384 173.117 104 173.965 103.408 174.717C102.816 175.453 102.064 176.037 101.152 176.469C100.24 176.885 99.2243 177.093 98.1043 177.093C96.7923 177.093 95.6243 176.821 94.6003 176.277C93.5923 175.717 92.8003 174.917 92.2243 173.877C91.6483 172.837 91.3603 171.621 91.3603 170.229C91.3603 168.821 91.6403 167.605 92.2003 166.581C92.7763 165.541 93.5763 164.749 94.6003 164.205C95.6243 163.645 96.7923 163.365 98.1043 163.365C99.4323 163.365 100.6 163.637 101.608 164.181C102.616 164.725 103.392 165.493 103.936 166.485C104.496 167.461 104.776 168.589 104.776 169.869ZM100.624 169.245C100.64 168.365 100.4 167.709 99.9043 167.277C99.4243 166.829 98.8243 166.605 98.1043 166.605C97.3523 166.605 96.7283 166.829 96.2323 167.277C95.7363 167.725 95.4563 168.381 95.3923 169.245H100.624ZM115.412 163.389C116.948 163.389 118.164 163.901 119.06 164.925C119.972 165.949 120.428 167.357 120.428 169.149V176.925H116.324V169.629C116.324 168.733 116.084 168.037 115.604 167.541C115.14 167.029 114.516 166.773 113.732 166.773C112.9 166.773 112.236 167.037 111.74 167.565C111.26 168.093 111.02 168.845 111.02 169.821V176.925H106.916V163.533H111.02V165.981C111.404 165.181 111.972 164.549 112.724 164.085C113.492 163.621 114.388 163.389 115.412 163.389ZM130.718 173.397V176.925H128.87C127.302 176.925 126.078 176.541 125.198 175.773C124.334 174.989 123.902 173.701 123.902 171.909V166.989H122.102V163.533H123.902V160.245H128.006V163.533H130.694V166.989H128.006V171.981C128.006 172.509 128.11 172.877 128.318 173.085C128.542 173.293 128.91 173.397 129.422 173.397H130.718ZM132.641 159.765C132.641 159.141 132.865 158.629 133.313 158.229C133.761 157.813 134.353 157.605 135.089 157.605C135.825 157.605 136.417 157.813 136.865 158.229C137.313 158.629 137.537 159.141 137.537 159.765C137.537 160.373 137.313 160.885 136.865 161.301C136.417 161.701 135.825 161.901 135.089 161.901C134.353 161.901 133.761 161.701 133.313 161.301C132.865 160.885 132.641 160.373 132.641 159.765ZM137.129 163.533V176.925H133.025V163.533H137.129ZM146.155 172.917L149.059 163.533H153.427L148.675 176.925H143.587L138.835 163.533H143.203L146.155 172.917ZM154.743 159.765C154.743 159.141 154.967 158.629 155.415 158.229C155.863 157.813 156.455 157.605 157.191 157.605C157.927 157.605 158.519 157.813 158.967 158.229C159.415 158.629 159.639 159.141 159.639 159.765C159.639 160.373 159.415 160.885 158.967 161.301C158.519 161.701 157.927 161.901 157.191 161.901C156.455 161.901 155.863 161.701 155.415 161.301C154.967 160.885 154.743 160.373 154.743 159.765ZM159.231 163.533V176.925H155.127V163.533H159.231ZM165.688 173.493H171.88V176.925H161.2V173.685L166.96 166.941H161.296V163.533H171.64V166.773L165.688 173.493ZM186.55 169.869C186.55 170.205 186.51 170.573 186.43 170.973H177.142C177.19 171.981 177.446 172.709 177.91 173.157C178.374 173.589 178.966 173.805 179.686 173.805C180.294 173.805 180.798 173.653 181.198 173.349C181.598 173.045 181.862 172.653 181.99 172.173H186.334C186.158 173.117 185.774 173.965 185.182 174.717C184.59 175.453 183.838 176.037 182.926 176.469C182.014 176.885 180.998 177.093 179.878 177.093C178.566 177.093 177.398 176.821 176.374 176.277C175.366 175.717 174.574 174.917 173.998 173.877C173.422 172.837 173.134 171.621 173.134 170.229C173.134 168.821 173.414 167.605 173.974 166.581C174.55 165.541 175.35 164.749 176.374 164.205C177.398 163.645 178.566 163.365 179.878 163.365C181.206 163.365 182.374 163.637 183.382 164.181C184.39 164.725 185.166 165.493 185.71 166.485C186.27 167.461 186.55 168.589 186.55 169.869ZM182.398 169.245C182.414 168.365 182.174 167.709 181.678 167.277C181.198 166.829 180.598 166.605 179.878 166.605C179.126 166.605 178.502 166.829 178.006 167.277C177.51 167.725 177.23 168.381 177.166 169.245H182.398ZM193.777 163.365C194.801 163.365 195.681 163.597 196.417 164.061C197.153 164.525 197.689 165.157 198.025 165.957V159.165H202.129V176.925H198.025V174.501C197.689 175.301 197.153 175.933 196.417 176.397C195.681 176.861 194.801 177.093 193.777 177.093C192.673 177.093 191.681 176.821 190.801 176.277C189.937 175.717 189.249 174.917 188.737 173.877C188.241 172.837 187.993 171.621 187.993 170.229C187.993 168.821 188.241 167.605 188.737 166.581C189.249 165.541 189.937 164.749 190.801 164.205C191.681 163.645 192.673 163.365 193.777 163.365ZM195.097 166.965C194.217 166.965 193.505 167.253 192.961 167.829C192.433 168.405 192.169 169.205 192.169 170.229C192.169 171.253 192.433 172.053 192.961 172.629C193.505 173.205 194.217 173.493 195.097 173.493C195.961 173.493 196.665 173.197 197.209 172.605C197.769 172.013 198.049 171.221 198.049 170.229C198.049 169.221 197.769 168.429 197.209 167.853C196.665 167.261 195.961 166.965 195.097 166.965ZM212.927 159.957L217.079 172.725L221.231 159.957H225.623L219.719 176.925H214.415L208.535 159.957H212.927ZM233.461 163.365C234.789 163.365 235.973 163.645 237.013 164.205C238.069 164.749 238.893 165.541 239.485 166.581C240.093 167.621 240.397 168.837 240.397 170.229C240.397 171.621 240.093 172.837 239.485 173.877C238.893 174.917 238.069 175.717 237.013 176.277C235.973 176.821 234.789 177.093 233.461 177.093C232.133 177.093 230.941 176.821 229.885 176.277C228.829 175.717 227.997 174.917 227.389 173.877C226.797 172.837 226.501 171.621 226.501 170.229C226.501 168.837 226.797 167.621 227.389 166.581C227.997 165.541 228.829 164.749 229.885 164.205C230.941 163.645 232.133 163.365 233.461 163.365ZM233.461 166.917C232.677 166.917 232.013 167.205 231.469 167.781C230.941 168.341 230.677 169.157 230.677 170.229C230.677 171.301 230.941 172.117 231.469 172.677C232.013 173.237 232.677 173.517 233.461 173.517C234.245 173.517 234.901 173.237 235.429 172.677C235.957 172.117 236.221 171.301 236.221 170.229C236.221 169.157 235.957 168.341 235.429 167.781C234.901 167.205 234.245 166.917 233.461 166.917ZM250.109 173.397V176.925H248.261C246.693 176.925 245.469 176.541 244.589 175.773C243.725 174.989 243.293 173.701 243.293 171.909V166.989H241.493V163.533H243.293V160.245H247.397V163.533H250.085V166.989H247.397V171.981C247.397 172.509 247.501 172.877 247.709 173.085C247.933 173.293 248.301 173.397 248.813 173.397H250.109ZM252.032 159.765C252.032 159.141 252.256 158.629 252.704 158.229C253.152 157.813 253.744 157.605 254.48 157.605C255.216 157.605 255.808 157.813 256.256 158.229C256.704 158.629 256.928 159.141 256.928 159.765C256.928 160.373 256.704 160.885 256.256 161.301C255.808 161.701 255.216 161.901 254.48 161.901C253.744 161.901 253.152 161.701 252.704 161.301C252.256 160.885 252.032 160.373 252.032 159.765ZM256.52 163.533V176.925H252.416V163.533H256.52ZM267.849 163.389C269.385 163.389 270.601 163.901 271.497 164.925C272.409 165.949 272.865 167.357 272.865 169.149V176.925H268.761V169.629C268.761 168.733 268.521 168.037 268.041 167.541C267.577 167.029 266.953 166.773 266.169 166.773C265.337 166.773 264.673 167.037 264.177 167.565C263.697 168.093 263.457 168.845 263.457 169.821V176.925H259.353V163.533H263.457V165.981C263.841 165.181 264.409 164.549 265.161 164.085C265.929 163.621 266.825 163.389 267.849 163.389ZM280.66 163.365C281.684 163.365 282.564 163.597 283.3 164.061C284.036 164.525 284.58 165.157 284.932 165.957V163.533H289.012V176.853C289.012 178.101 288.772 179.221 288.292 180.213C287.812 181.221 287.076 182.021 286.084 182.613C285.092 183.205 283.86 183.501 282.388 183.501C280.372 183.501 278.756 183.021 277.54 182.061C276.34 181.117 275.62 179.829 275.38 178.197H279.436C279.564 178.741 279.852 179.165 280.3 179.469C280.764 179.773 281.364 179.925 282.1 179.925C282.948 179.925 283.628 179.677 284.14 179.181C284.668 178.701 284.932 177.925 284.932 176.853V174.501C284.58 175.301 284.036 175.933 283.3 176.397C282.564 176.861 281.684 177.093 280.66 177.093C279.556 177.093 278.564 176.821 277.684 176.277C276.82 175.717 276.132 174.917 275.62 173.877C275.124 172.837 274.876 171.621 274.876 170.229C274.876 168.821 275.124 167.605 275.62 166.581C276.132 165.541 276.82 164.749 277.684 164.205C278.564 163.645 279.556 163.365 280.66 163.365ZM281.98 166.965C281.1 166.965 280.388 167.253 279.844 167.829C279.316 168.405 279.052 169.205 279.052 170.229C279.052 171.253 279.316 172.053 279.844 172.629C280.388 173.205 281.1 173.493 281.98 173.493C282.844 173.493 283.548 173.197 284.092 172.605C284.652 172.013 284.932 171.221 284.932 170.229C284.932 169.221 284.652 168.429 284.092 167.853C283.548 167.261 282.844 166.965 281.98 166.965Z" fill="white"/>
<path d="M55.1522 197.786C56.5069 197.786 57.6269 198.117 58.5122 198.778C59.3975 199.429 60.0215 200.33 60.3842 201.482H59.2002C58.9015 200.672 58.4055 200.026 57.7122 199.546C57.0189 199.066 56.1602 198.826 55.1362 198.826C54.3575 198.826 53.6482 199.018 53.0082 199.402C52.3789 199.786 51.8829 200.336 51.5202 201.05C51.1575 201.765 50.9762 202.597 50.9762 203.546C50.9762 204.496 51.1575 205.328 51.5202 206.042C51.8829 206.746 52.3789 207.29 53.0082 207.674C53.6482 208.058 54.3575 208.25 55.1362 208.25C56.1602 208.25 57.0189 208.01 57.7122 207.53C58.4055 207.05 58.9015 206.405 59.2002 205.594H60.3842C60.0215 206.746 59.3975 207.653 58.5122 208.314C57.6269 208.965 56.5069 209.29 55.1522 209.29C54.1175 209.29 53.1949 209.045 52.3842 208.554C51.5735 208.064 50.9442 207.386 50.4962 206.522C50.0482 205.648 49.8242 204.656 49.8242 203.546C49.8242 202.426 50.0482 201.429 50.4962 200.554C50.9442 199.68 51.5735 199.002 52.3842 198.522C53.1949 198.032 54.1175 197.786 55.1522 197.786ZM66.3786 200.33C67.2106 200.33 67.9519 200.512 68.6026 200.874C69.2639 201.226 69.7812 201.744 70.1546 202.426C70.5279 203.098 70.7146 203.893 70.7146 204.81C70.7146 205.728 70.5279 206.522 70.1546 207.194C69.7812 207.866 69.2639 208.384 68.6026 208.746C67.9519 209.109 67.2106 209.29 66.3786 209.29C65.5466 209.29 64.7999 209.109 64.1386 208.746C63.4772 208.384 62.9546 207.866 62.5706 207.194C62.1972 206.512 62.0106 205.717 62.0106 204.81C62.0106 203.893 62.1972 203.098 62.5706 202.426C62.9546 201.744 63.4772 201.226 64.1386 200.874C64.7999 200.512 65.5466 200.33 66.3786 200.33ZM66.3786 201.306C65.8026 201.306 65.2692 201.434 64.7786 201.69C64.2879 201.946 63.8932 202.341 63.5946 202.874C63.2959 203.397 63.1466 204.042 63.1466 204.81C63.1466 205.578 63.2959 206.224 63.5946 206.746C63.8932 207.269 64.2879 207.658 64.7786 207.914C65.2692 208.17 65.8026 208.298 66.3786 208.298C66.9439 208.298 67.4666 208.17 67.9466 207.914C68.4372 207.658 68.8319 207.269 69.1306 206.746C69.4292 206.224 69.5786 205.578 69.5786 204.81C69.5786 204.042 69.4292 203.397 69.1306 202.874C68.8319 202.341 68.4372 201.946 67.9466 201.69C67.4666 201.434 66.9439 201.306 66.3786 201.306ZM83.3314 200.282C84.3341 200.282 85.1448 200.608 85.7634 201.258C86.3928 201.898 86.7074 202.842 86.7074 204.09V209.178H85.5874V204.17C85.5874 203.232 85.3581 202.512 84.8994 202.01C84.4514 201.509 83.8328 201.258 83.0434 201.258C82.2008 201.258 81.5288 201.536 81.0274 202.09C80.5261 202.645 80.2754 203.461 80.2754 204.538V209.178H79.1714V204.17C79.1714 203.232 78.9421 202.512 78.4834 202.01C78.0354 201.509 77.4168 201.258 76.6274 201.258C75.7848 201.258 75.1128 201.536 74.6114 202.09C74.1101 202.645 73.8594 203.461 73.8594 204.538V209.178H72.7234V200.442H73.8594V202.522C74.0728 201.786 74.4568 201.232 75.0114 200.858C75.5768 200.474 76.2274 200.282 76.9634 200.282C77.7314 200.282 78.3928 200.485 78.9474 200.89C79.5021 201.296 79.8861 201.893 80.0994 202.682C80.3341 201.904 80.7448 201.312 81.3314 200.906C81.9181 200.49 82.5848 200.282 83.3314 200.282ZM99.6752 200.282C100.678 200.282 101.489 200.608 102.107 201.258C102.737 201.898 103.051 202.842 103.051 204.09V209.178H101.931V204.17C101.931 203.232 101.702 202.512 101.243 202.01C100.795 201.509 100.177 201.258 99.3872 201.258C98.5445 201.258 97.8725 201.536 97.3712 202.09C96.8699 202.645 96.6192 203.461 96.6192 204.538V209.178H95.5152V204.17C95.5152 203.232 95.2859 202.512 94.8272 202.01C94.3792 201.509 93.7605 201.258 92.9712 201.258C92.1285 201.258 91.4565 201.536 90.9552 202.09C90.4539 202.645 90.2032 203.461 90.2032 204.538V209.178H89.0672V200.442H90.2032V202.522C90.4165 201.786 90.8005 201.232 91.3552 200.858C91.9205 200.474 92.5712 200.282 93.3072 200.282C94.0752 200.282 94.7365 200.485 95.2912 200.89C95.8459 201.296 96.2299 201.893 96.4432 202.682C96.6779 201.904 97.0885 201.312 97.6752 200.906C98.2619 200.49 98.9285 200.282 99.6752 200.282ZM112.947 200.442V209.178H111.827V207.018C111.603 207.776 111.198 208.352 110.611 208.746C110.024 209.141 109.352 209.338 108.595 209.338C107.571 209.338 106.739 209.018 106.099 208.378C105.47 207.728 105.155 206.778 105.155 205.53V200.442H106.275V205.434C106.275 206.394 106.515 207.13 106.995 207.642C107.475 208.144 108.131 208.394 108.963 208.394C109.838 208.394 110.531 208.117 111.043 207.562C111.566 206.997 111.827 206.17 111.827 205.082V200.442H112.947ZM119.763 200.282C120.777 200.282 121.598 200.608 122.227 201.258C122.867 201.898 123.187 202.842 123.187 204.09V209.178H122.083V204.17C122.083 203.221 121.843 202.496 121.363 201.994C120.883 201.482 120.227 201.226 119.395 201.226C118.521 201.226 117.822 201.509 117.299 202.074C116.787 202.629 116.531 203.45 116.531 204.538V209.178H115.395V200.442H116.531V202.586C116.755 201.84 117.161 201.269 117.747 200.874C118.334 200.48 119.006 200.282 119.763 200.282ZM125.296 197.85C125.296 197.616 125.37 197.429 125.52 197.29C125.68 197.152 125.882 197.082 126.128 197.082C126.373 197.082 126.57 197.152 126.72 197.29C126.869 197.429 126.944 197.616 126.944 197.85C126.944 198.074 126.869 198.256 126.72 198.394C126.57 198.533 126.373 198.602 126.128 198.602C125.882 198.602 125.68 198.533 125.52 198.394C125.37 198.256 125.296 198.074 125.296 197.85ZM126.688 200.442V209.178H125.552V200.442H126.688ZM133.082 208.186V209.178H132.042C131.199 209.178 130.57 208.981 130.154 208.586C129.738 208.181 129.53 207.504 129.53 206.554V201.418H128.202V200.442H129.53V198.234H130.666V200.442H133.066V201.418H130.666V206.57C130.666 207.189 130.778 207.616 131.002 207.85C131.226 208.074 131.621 208.186 132.186 208.186H133.082ZM135.167 200.442L138.207 207.722L141.007 200.442H142.255L137.119 213.306H135.839L137.599 209.082L133.919 200.442H135.167ZM152.505 200.33C153.305 200.33 154.009 200.512 154.617 200.874C155.235 201.226 155.715 201.744 156.057 202.426C156.409 203.098 156.585 203.893 156.585 204.81C156.585 205.717 156.409 206.512 156.057 207.194C155.715 207.866 155.235 208.384 154.617 208.746C153.998 209.109 153.294 209.29 152.505 209.29C151.609 209.29 150.851 209.061 150.233 208.602C149.614 208.144 149.187 207.536 148.953 206.778V213.306H147.833V200.442H148.953V202.842C149.187 202.085 149.614 201.477 150.233 201.018C150.851 200.56 151.609 200.33 152.505 200.33ZM152.201 201.322C151.582 201.322 151.022 201.466 150.521 201.754C150.03 202.042 149.646 202.453 149.369 202.986C149.091 203.509 148.953 204.117 148.953 204.81C148.953 205.504 149.091 206.117 149.369 206.65C149.646 207.173 150.03 207.578 150.521 207.866C151.022 208.154 151.582 208.298 152.201 208.298C153.193 208.298 153.982 207.989 154.569 207.37C155.155 206.741 155.449 205.888 155.449 204.81C155.449 203.733 155.155 202.885 154.569 202.266C153.982 201.637 153.193 201.322 152.201 201.322ZM162.278 200.33C163.164 200.33 163.916 200.56 164.534 201.018C165.164 201.477 165.596 202.085 165.83 202.842V200.442H166.934V209.178H165.83V206.778C165.596 207.536 165.164 208.144 164.534 208.602C163.916 209.061 163.164 209.29 162.278 209.29C161.489 209.29 160.78 209.109 160.15 208.746C159.532 208.384 159.046 207.866 158.694 207.194C158.353 206.512 158.182 205.717 158.182 204.81C158.182 203.893 158.353 203.098 158.694 202.426C159.046 201.744 159.532 201.226 160.15 200.874C160.769 200.512 161.478 200.33 162.278 200.33ZM162.566 201.322C161.585 201.322 160.796 201.637 160.198 202.266C159.612 202.885 159.318 203.733 159.318 204.81C159.318 205.888 159.612 206.741 160.198 207.37C160.796 207.989 161.585 208.298 162.566 208.298C163.185 208.298 163.74 208.154 164.23 207.866C164.732 207.578 165.121 207.173 165.398 206.65C165.686 206.117 165.83 205.504 165.83 204.81C165.83 204.117 165.686 203.509 165.398 202.986C165.121 202.453 164.732 202.042 164.23 201.754C163.74 201.466 163.185 201.322 162.566 201.322ZM170.5 202.25C170.756 201.621 171.167 201.136 171.732 200.794C172.297 200.453 172.985 200.282 173.796 200.282V201.498H173.428C172.585 201.498 171.887 201.728 171.332 202.186C170.777 202.634 170.5 203.37 170.5 204.394V209.178H169.364V200.442H170.5V202.25ZM179.254 208.186V209.178H178.214C177.371 209.178 176.742 208.981 176.326 208.586C175.91 208.181 175.702 207.504 175.702 206.554V201.418H174.374V200.442H175.702V198.234H176.838V200.442H179.238V201.418H176.838V206.57C176.838 207.189 176.95 207.616 177.174 207.85C177.398 208.074 177.793 208.186 178.358 208.186H179.254ZM180.842 197.85C180.842 197.616 180.917 197.429 181.066 197.29C181.226 197.152 181.429 197.082 181.674 197.082C181.92 197.082 182.117 197.152 182.266 197.29C182.416 197.429 182.49 197.616 182.49 197.85C182.49 198.074 182.416 198.256 182.266 198.394C182.117 198.533 181.92 198.602 181.674 198.602C181.429 198.602 181.226 198.533 181.066 198.394C180.917 198.256 180.842 198.074 180.842 197.85ZM182.234 200.442V209.178H181.098V200.442H182.234ZM188.517 200.33C189.626 200.33 190.544 200.624 191.269 201.21C192.005 201.797 192.453 202.576 192.613 203.546H191.445C191.328 202.853 191.002 202.309 190.469 201.914C189.936 201.509 189.28 201.306 188.501 201.306C187.936 201.306 187.413 201.434 186.933 201.69C186.464 201.946 186.085 202.341 185.797 202.874C185.52 203.397 185.381 204.042 185.381 204.81C185.381 205.578 185.52 206.229 185.797 206.762C186.085 207.285 186.464 207.674 186.933 207.93C187.413 208.186 187.936 208.314 188.501 208.314C189.28 208.314 189.936 208.117 190.469 207.722C191.002 207.317 191.328 206.768 191.445 206.074H192.613C192.453 207.045 192.005 207.824 191.269 208.41C190.544 208.997 189.626 209.29 188.517 209.29C187.685 209.29 186.944 209.114 186.293 208.762C185.653 208.4 185.152 207.882 184.789 207.21C184.426 206.528 184.245 205.728 184.245 204.81C184.245 203.893 184.426 203.098 184.789 202.426C185.152 201.744 185.653 201.226 186.293 200.874C186.944 200.512 187.685 200.33 188.517 200.33ZM194.374 197.85C194.374 197.616 194.448 197.429 194.598 197.29C194.758 197.152 194.96 197.082 195.206 197.082C195.451 197.082 195.648 197.152 195.798 197.29C195.947 197.429 196.022 197.616 196.022 197.85C196.022 198.074 195.947 198.256 195.798 198.394C195.648 198.533 195.451 198.602 195.206 198.602C194.96 198.602 194.758 198.533 194.598 198.394C194.448 198.256 194.374 198.074 194.374 197.85ZM195.766 200.442V209.178H194.63V200.442H195.766ZM202.864 200.33C203.664 200.33 204.368 200.512 204.976 200.874C205.595 201.226 206.075 201.744 206.416 202.426C206.768 203.098 206.944 203.893 206.944 204.81C206.944 205.717 206.768 206.512 206.416 207.194C206.075 207.866 205.595 208.384 204.976 208.746C204.358 209.109 203.654 209.29 202.864 209.29C201.968 209.29 201.211 209.061 200.592 208.602C199.974 208.144 199.547 207.536 199.312 206.778V213.306H198.192V200.442H199.312V202.842C199.547 202.085 199.974 201.477 200.592 201.018C201.211 200.56 201.968 200.33 202.864 200.33ZM202.56 201.322C201.942 201.322 201.382 201.466 200.88 201.754C200.39 202.042 200.006 202.453 199.728 202.986C199.451 203.509 199.312 204.117 199.312 204.81C199.312 205.504 199.451 206.117 199.728 206.65C200.006 207.173 200.39 207.578 200.88 207.866C201.382 208.154 201.942 208.298 202.56 208.298C203.552 208.298 204.342 207.989 204.928 207.37C205.515 206.741 205.808 205.888 205.808 204.81C205.808 203.733 205.515 202.885 204.928 202.266C204.342 201.637 203.552 201.322 202.56 201.322ZM212.638 200.33C213.523 200.33 214.275 200.56 214.894 201.018C215.523 201.477 215.955 202.085 216.19 202.842V200.442H217.294V209.178H216.19V206.778C215.955 207.536 215.523 208.144 214.894 208.602C214.275 209.061 213.523 209.29 212.638 209.29C211.848 209.29 211.139 209.109 210.51 208.746C209.891 208.384 209.406 207.866 209.054 207.194C208.712 206.512 208.542 205.717 208.542 204.81C208.542 203.893 208.712 203.098 209.054 202.426C209.406 201.744 209.891 201.226 210.51 200.874C211.128 200.512 211.838 200.33 212.638 200.33ZM212.926 201.322C211.944 201.322 211.155 201.637 210.558 202.266C209.971 202.885 209.678 203.733 209.678 204.81C209.678 205.888 209.971 206.741 210.558 207.37C211.155 207.989 211.944 208.298 212.926 208.298C213.544 208.298 214.099 208.154 214.59 207.866C215.091 207.578 215.48 207.173 215.758 206.65C216.046 206.117 216.19 205.504 216.19 204.81C216.19 204.117 216.046 203.509 215.758 202.986C215.48 202.453 215.091 202.042 214.59 201.754C214.099 201.466 213.544 201.322 212.926 201.322ZM223.691 208.186V209.178H222.651C221.809 209.178 221.179 208.981 220.763 208.586C220.347 208.181 220.139 207.504 220.139 206.554V201.418H218.811V200.442H220.139V198.234H221.275V200.442H223.675V201.418H221.275V206.57C221.275 207.189 221.387 207.616 221.611 207.85C221.835 208.074 222.23 208.186 222.795 208.186H223.691ZM225.28 197.85C225.28 197.616 225.355 197.429 225.504 197.29C225.664 197.152 225.867 197.082 226.112 197.082C226.357 197.082 226.555 197.152 226.704 197.29C226.853 197.429 226.928 197.616 226.928 197.85C226.928 198.074 226.853 198.256 226.704 198.394C226.555 198.533 226.357 198.602 226.112 198.602C225.867 198.602 225.664 198.533 225.504 198.394C225.355 198.256 225.28 198.074 225.28 197.85ZM226.672 200.442V209.178H225.536V200.442H226.672ZM233.05 200.33C233.882 200.33 234.624 200.512 235.274 200.874C235.936 201.226 236.453 201.744 236.826 202.426C237.2 203.098 237.386 203.893 237.386 204.81C237.386 205.728 237.2 206.522 236.826 207.194C236.453 207.866 235.936 208.384 235.274 208.746C234.624 209.109 233.882 209.29 233.05 209.29C232.218 209.29 231.472 209.109 230.81 208.746C230.149 208.384 229.626 207.866 229.242 207.194C228.869 206.512 228.682 205.717 228.682 204.81C228.682 203.893 228.869 203.098 229.242 202.426C229.626 201.744 230.149 201.226 230.81 200.874C231.472 200.512 232.218 200.33 233.05 200.33ZM233.05 201.306C232.474 201.306 231.941 201.434 231.45 201.69C230.96 201.946 230.565 202.341 230.266 202.874C229.968 203.397 229.818 204.042 229.818 204.81C229.818 205.578 229.968 206.224 230.266 206.746C230.565 207.269 230.96 207.658 231.45 207.914C231.941 208.17 232.474 208.298 233.05 208.298C233.616 208.298 234.138 208.17 234.618 207.914C235.109 207.658 235.504 207.269 235.802 206.746C236.101 206.224 236.25 205.578 236.25 204.81C236.25 204.042 236.101 203.397 235.802 202.874C235.504 202.341 235.109 201.946 234.618 201.69C234.138 201.434 233.616 201.306 233.05 201.306ZM243.763 200.282C244.777 200.282 245.598 200.608 246.227 201.258C246.867 201.898 247.187 202.842 247.187 204.09V209.178H246.083V204.17C246.083 203.221 245.843 202.496 245.363 201.994C244.883 201.482 244.227 201.226 243.395 201.226C242.521 201.226 241.822 201.509 241.299 202.074C240.787 202.629 240.531 203.45 240.531 204.538V209.178H239.395V200.442H240.531V202.586C240.755 201.84 241.161 201.269 241.747 200.874C242.334 200.48 243.006 200.282 243.763 200.282ZM253.452 197.85C253.452 197.616 253.526 197.429 253.676 197.29C253.836 197.152 254.038 197.082 254.284 197.082C254.529 197.082 254.726 197.152 254.876 197.29C255.025 197.429 255.1 197.616 255.1 197.85C255.1 198.074 255.025 198.256 254.876 198.394C254.726 198.533 254.529 198.602 254.284 198.602C254.038 198.602 253.836 198.533 253.676 198.394C253.526 198.256 253.452 198.074 253.452 197.85ZM254.844 200.442V209.178H253.708V200.442H254.844ZM259.91 200.33C260.86 200.33 261.622 200.581 262.198 201.082C262.774 201.584 263.126 202.261 263.254 203.114H262.182C262.118 202.549 261.884 202.085 261.478 201.722C261.084 201.349 260.55 201.162 259.878 201.162C259.302 201.162 258.849 201.306 258.518 201.594C258.198 201.872 258.038 202.245 258.038 202.714C258.038 203.066 258.14 203.349 258.342 203.562C258.556 203.776 258.817 203.941 259.126 204.058C259.436 204.165 259.852 204.277 260.374 204.394C261.014 204.544 261.526 204.698 261.91 204.858C262.305 205.008 262.641 205.248 262.918 205.578C263.196 205.909 263.334 206.357 263.334 206.922C263.334 207.616 263.073 208.186 262.55 208.634C262.038 209.072 261.356 209.29 260.502 209.29C259.5 209.29 258.678 209.045 258.038 208.554C257.398 208.053 257.02 207.37 256.902 206.506H257.99C258.054 207.082 258.305 207.552 258.742 207.914C259.18 208.277 259.772 208.458 260.518 208.458C261.073 208.458 261.505 208.314 261.814 208.026C262.124 207.738 262.278 207.365 262.278 206.906C262.278 206.533 262.172 206.234 261.958 206.01C261.745 205.786 261.478 205.621 261.158 205.514C260.849 205.397 260.422 205.274 259.878 205.146C259.249 204.997 258.742 204.848 258.358 204.698C257.985 204.549 257.665 204.32 257.398 204.01C257.132 203.69 256.998 203.258 256.998 202.714C256.998 202 257.26 201.424 257.782 200.986C258.305 200.549 259.014 200.33 259.91 200.33ZM274.208 209.178L270.672 205.178V209.178H269.536V197.338H270.672V204.282L274.144 200.442H275.536L271.52 204.762L275.648 209.178H274.208ZM280.781 208.362C281.571 208.362 282.232 208.165 282.765 207.77C283.299 207.376 283.619 206.842 283.725 206.17H284.909C284.749 207.098 284.307 207.85 283.581 208.426C282.856 209.002 281.939 209.29 280.829 209.29C279.997 209.29 279.256 209.114 278.605 208.762C277.965 208.4 277.464 207.882 277.101 207.21C276.739 206.528 276.557 205.728 276.557 204.81C276.557 203.893 276.739 203.098 277.101 202.426C277.464 201.744 277.965 201.226 278.605 200.874C279.256 200.512 279.997 200.33 280.829 200.33C281.683 200.33 282.419 200.512 283.037 200.874C283.667 201.226 284.141 201.701 284.461 202.298C284.792 202.896 284.957 203.546 284.957 204.25C284.957 204.549 284.936 204.821 284.893 205.066H277.661C277.672 205.802 277.821 206.421 278.109 206.922C278.408 207.413 278.792 207.776 279.261 208.01C279.731 208.245 280.237 208.362 280.781 208.362ZM280.829 201.242C280.264 201.242 279.747 201.36 279.277 201.594C278.808 201.829 278.424 202.192 278.125 202.682C277.837 203.162 277.683 203.765 277.661 204.49H283.837C283.88 203.776 283.763 203.173 283.485 202.682C283.208 202.192 282.835 201.829 282.365 201.594C281.896 201.36 281.384 201.242 280.829 201.242ZM287.213 200.442L290.253 207.722L293.053 200.442H294.301L289.165 213.306H287.885L289.645 209.082L285.965 200.442H287.213ZM47.6847 224.33C48.57 224.33 49.322 224.56 49.9407 225.018C50.57 225.477 51.002 226.085 51.2367 226.842V224.442H52.3407V233.178H51.2367V230.778C51.002 231.536 50.57 232.144 49.9407 232.602C49.322 233.061 48.57 233.29 47.6847 233.29C46.8954 233.29 46.186 233.109 45.5567 232.746C44.938 232.384 44.4527 231.866 44.1007 231.194C43.7594 230.512 43.5887 229.717 43.5887 228.81C43.5887 227.893 43.7594 227.098 44.1007 226.426C44.4527 225.744 44.938 225.226 45.5567 224.874C46.1754 224.512 46.8847 224.33 47.6847 224.33ZM47.9727 225.322C46.9914 225.322 46.202 225.637 45.6047 226.266C45.018 226.885 44.7247 227.733 44.7247 228.81C44.7247 229.888 45.018 230.741 45.6047 231.37C46.202 231.989 46.9914 232.298 47.9727 232.298C48.5914 232.298 49.146 232.154 49.6367 231.866C50.138 231.578 50.5274 231.173 50.8047 230.65C51.0927 230.117 51.2367 229.504 51.2367 228.81C51.2367 228.117 51.0927 227.509 50.8047 226.986C50.5274 226.453 50.138 226.042 49.6367 225.754C49.146 225.466 48.5914 225.322 47.9727 225.322ZM59.1383 224.282C60.1517 224.282 60.973 224.608 61.6023 225.258C62.2423 225.898 62.5623 226.842 62.5623 228.09V233.178H61.4583V228.17C61.4583 227.221 61.2183 226.496 60.7383 225.994C60.2583 225.482 59.6023 225.226 58.7703 225.226C57.8957 225.226 57.197 225.509 56.6743 226.074C56.1623 226.629 55.9063 227.45 55.9063 228.538V233.178H54.7703V224.442H55.9063V226.586C56.1303 225.84 56.5357 225.269 57.1223 224.874C57.709 224.48 58.381 224.282 59.1383 224.282ZM68.6066 224.33C69.4919 224.33 70.2439 224.56 70.8626 225.018C71.4919 225.477 71.9186 226.085 72.1426 226.842V221.338H73.2626V233.178H72.1426V230.778C71.9186 231.536 71.4919 232.144 70.8626 232.602C70.2439 233.061 69.4919 233.29 68.6066 233.29C67.8172 233.29 67.1079 233.109 66.4786 232.746C65.8599 232.384 65.3746 231.866 65.0226 231.194C64.6812 230.512 64.5106 229.717 64.5106 228.81C64.5106 227.893 64.6812 227.098 65.0226 226.426C65.3746 225.744 65.8599 225.226 66.4786 224.874C67.0972 224.512 67.8066 224.33 68.6066 224.33ZM68.8946 225.322C67.9132 225.322 67.1239 225.637 66.5266 226.266C65.9399 226.885 65.6466 227.733 65.6466 228.81C65.6466 229.888 65.9399 230.741 66.5266 231.37C67.1239 231.989 67.9132 232.298 68.8946 232.298C69.5132 232.298 70.0679 232.154 70.5586 231.866C71.0599 231.578 71.4492 231.173 71.7266 230.65C72.0146 230.117 72.1586 229.504 72.1586 228.81C72.1586 228.117 72.0146 227.509 71.7266 226.986C71.4492 226.453 71.0599 226.042 70.5586 225.754C70.0679 225.466 69.5132 225.322 68.8946 225.322ZM91.6564 224.442L89.0804 233.178H87.8964L85.2724 225.754L82.6164 233.178H81.4484L78.8724 224.442H80.0084L82.0884 232.01L84.7124 224.442H85.8644L88.5044 232.01L90.5684 224.442H91.6564ZM92.8424 221.85C92.8424 221.616 92.9171 221.429 93.0664 221.29C93.2264 221.152 93.4291 221.082 93.6744 221.082C93.9198 221.082 94.1171 221.152 94.2664 221.29C94.4158 221.429 94.4904 221.616 94.4904 221.85C94.4904 222.074 94.4158 222.256 94.2664 222.394C94.1171 222.533 93.9198 222.602 93.6744 222.602C93.4291 222.602 93.2264 222.533 93.0664 222.394C92.9171 222.256 92.8424 222.074 92.8424 221.85ZM94.2344 224.442V233.178H93.0984V224.442H94.2344ZM97.7969 221.338V233.178H96.6609V221.338H97.7969ZM101.359 221.338V233.178H100.223V221.338H101.359ZM112.614 224.33C113.414 224.33 114.118 224.512 114.726 224.874C115.345 225.226 115.825 225.744 116.166 226.426C116.518 227.098 116.694 227.893 116.694 228.81C116.694 229.717 116.518 230.512 116.166 231.194C115.825 231.866 115.345 232.384 114.726 232.746C114.108 233.109 113.404 233.29 112.614 233.29C111.718 233.29 110.961 233.061 110.342 232.602C109.724 232.144 109.297 231.536 109.062 230.778V233.178H107.942V221.338H109.062V226.842C109.297 226.085 109.724 225.477 110.342 225.018C110.961 224.56 111.718 224.33 112.614 224.33ZM112.31 225.322C111.692 225.322 111.132 225.466 110.63 225.754C110.14 226.042 109.756 226.453 109.478 226.986C109.201 227.509 109.062 228.117 109.062 228.81C109.062 229.504 109.201 230.117 109.478 230.65C109.756 231.173 110.14 231.578 110.63 231.866C111.132 232.154 111.692 232.298 112.31 232.298C113.302 232.298 114.092 231.989 114.678 231.37C115.265 230.741 115.558 229.888 115.558 228.81C115.558 227.733 115.265 226.885 114.678 226.266C114.092 225.637 113.302 225.322 112.31 225.322ZM122.516 232.362C123.305 232.362 123.966 232.165 124.5 231.77C125.033 231.376 125.353 230.842 125.46 230.17H126.644C126.484 231.098 126.041 231.85 125.316 232.426C124.59 233.002 123.673 233.29 122.564 233.29C121.732 233.29 120.99 233.114 120.34 232.762C119.7 232.4 119.198 231.882 118.836 231.21C118.473 230.528 118.292 229.728 118.292 228.81C118.292 227.893 118.473 227.098 118.836 226.426C119.198 225.744 119.7 225.226 120.34 224.874C120.99 224.512 121.732 224.33 122.564 224.33C123.417 224.33 124.153 224.512 124.772 224.874C125.401 225.226 125.876 225.701 126.196 226.298C126.526 226.896 126.692 227.546 126.692 228.25C126.692 228.549 126.67 228.821 126.628 229.066H119.396C119.406 229.802 119.556 230.421 119.844 230.922C120.142 231.413 120.526 231.776 120.996 232.01C121.465 232.245 121.972 232.362 122.516 232.362ZM122.564 225.242C121.998 225.242 121.481 225.36 121.012 225.594C120.542 225.829 120.158 226.192 119.86 226.682C119.572 227.162 119.417 227.765 119.396 228.49H125.572C125.614 227.776 125.497 227.173 125.22 226.682C124.942 226.192 124.569 225.829 124.1 225.594C123.63 225.36 123.118 225.242 122.564 225.242ZM134 226.25C134.256 225.621 134.667 225.136 135.232 224.794C135.797 224.453 136.485 224.282 137.296 224.282V225.498H136.928C136.085 225.498 135.387 225.728 134.832 226.186C134.277 226.634 134 227.37 134 228.394V233.178H132.864V224.442H134V226.25ZM142.594 232.362C143.383 232.362 144.045 232.165 144.578 231.77C145.111 231.376 145.431 230.842 145.538 230.17H146.722C146.562 231.098 146.119 231.85 145.394 232.426C144.669 233.002 143.751 233.29 142.642 233.29C141.81 233.29 141.069 233.114 140.418 232.762C139.778 232.4 139.277 231.882 138.914 231.21C138.551 230.528 138.37 229.728 138.37 228.81C138.37 227.893 138.551 227.098 138.914 226.426C139.277 225.744 139.778 225.226 140.418 224.874C141.069 224.512 141.81 224.33 142.642 224.33C143.495 224.33 144.231 224.512 144.85 224.874C145.479 225.226 145.954 225.701 146.274 226.298C146.605 226.896 146.77 227.546 146.77 228.25C146.77 228.549 146.749 228.821 146.706 229.066H139.474C139.485 229.802 139.634 230.421 139.922 230.922C140.221 231.413 140.605 231.776 141.074 232.01C141.543 232.245 142.05 232.362 142.594 232.362ZM142.642 225.242C142.077 225.242 141.559 225.36 141.09 225.594C140.621 225.829 140.237 226.192 139.938 226.682C139.65 227.162 139.495 227.765 139.474 228.49H145.65C145.693 227.776 145.575 227.173 145.298 226.682C145.021 226.192 144.647 225.829 144.178 225.594C143.709 225.36 143.197 225.242 142.642 225.242ZM160.594 224.442L158.018 233.178H156.834L154.21 225.754L151.554 233.178H150.386L147.81 224.442H148.946L151.026 232.01L153.65 224.442H154.802L157.442 232.01L159.506 224.442H160.594ZM165.716 224.33C166.601 224.33 167.353 224.56 167.972 225.018C168.601 225.477 169.033 226.085 169.268 226.842V224.442H170.372V233.178H169.268V230.778C169.033 231.536 168.601 232.144 167.972 232.602C167.353 233.061 166.601 233.29 165.716 233.29C164.927 233.29 164.217 233.109 163.588 232.746C162.969 232.384 162.484 231.866 162.132 231.194C161.791 230.512 161.62 229.717 161.62 228.81C161.62 227.893 161.791 227.098 162.132 226.426C162.484 225.744 162.969 225.226 163.588 224.874C164.207 224.512 164.916 224.33 165.716 224.33ZM166.004 225.322C165.023 225.322 164.233 225.637 163.636 226.266C163.049 226.885 162.756 227.733 162.756 228.81C162.756 229.888 163.049 230.741 163.636 231.37C164.233 231.989 165.023 232.298 166.004 232.298C166.623 232.298 167.177 232.154 167.668 231.866C168.169 231.578 168.559 231.173 168.836 230.65C169.124 230.117 169.268 229.504 169.268 228.81C169.268 228.117 169.124 227.509 168.836 226.986C168.559 226.453 168.169 226.042 167.668 225.754C167.177 225.466 166.623 225.322 166.004 225.322ZM173.938 226.25C174.194 225.621 174.604 225.136 175.17 224.794C175.735 224.453 176.423 224.282 177.234 224.282V225.498H176.866C176.023 225.498 175.324 225.728 174.77 226.186C174.215 226.634 173.938 227.37 173.938 228.394V233.178H172.802V224.442H173.938V226.25ZM182.403 224.33C183.289 224.33 184.041 224.56 184.659 225.018C185.289 225.477 185.715 226.085 185.939 226.842V221.338H187.059V233.178H185.939V230.778C185.715 231.536 185.289 232.144 184.659 232.602C184.041 233.061 183.289 233.29 182.403 233.29C181.614 233.29 180.905 233.109 180.275 232.746C179.657 232.384 179.171 231.866 178.819 231.194C178.478 230.512 178.307 229.717 178.307 228.81C178.307 227.893 178.478 227.098 178.819 226.426C179.171 225.744 179.657 225.226 180.275 224.874C180.894 224.512 181.603 224.33 182.403 224.33ZM182.691 225.322C181.71 225.322 180.921 225.637 180.323 226.266C179.737 226.885 179.443 227.733 179.443 228.81C179.443 229.888 179.737 230.741 180.323 231.37C180.921 231.989 181.71 232.298 182.691 232.298C183.31 232.298 183.865 232.154 184.355 231.866C184.857 231.578 185.246 231.173 185.523 230.65C185.811 230.117 185.955 229.504 185.955 228.81C185.955 228.117 185.811 227.509 185.523 226.986C185.246 226.453 184.857 226.042 184.355 225.754C183.865 225.466 183.31 225.322 182.691 225.322ZM193.297 232.362C194.086 232.362 194.748 232.165 195.281 231.77C195.814 231.376 196.134 230.842 196.241 230.17H197.425C197.265 231.098 196.822 231.85 196.097 232.426C195.372 233.002 194.454 233.29 193.345 233.29C192.513 233.29 191.772 233.114 191.121 232.762C190.481 232.4 189.98 231.882 189.617 231.21C189.254 230.528 189.073 229.728 189.073 228.81C189.073 227.893 189.254 227.098 189.617 226.426C189.98 225.744 190.481 225.226 191.121 224.874C191.772 224.512 192.513 224.33 193.345 224.33C194.198 224.33 194.934 224.512 195.553 224.874C196.182 225.226 196.657 225.701 196.977 226.298C197.308 226.896 197.473 227.546 197.473 228.25C197.473 228.549 197.452 228.821 197.409 229.066H190.177C190.188 229.802 190.337 230.421 190.625 230.922C190.924 231.413 191.308 231.776 191.777 232.01C192.246 232.245 192.753 232.362 193.297 232.362ZM193.345 225.242C192.78 225.242 192.262 225.36 191.793 225.594C191.324 225.829 190.94 226.192 190.641 226.682C190.353 227.162 190.198 227.765 190.177 228.49H196.353C196.396 227.776 196.278 227.173 196.001 226.682C195.724 226.192 195.35 225.829 194.881 225.594C194.412 225.36 193.9 225.242 193.345 225.242ZM203.169 224.33C204.054 224.33 204.806 224.56 205.425 225.018C206.054 225.477 206.481 226.085 206.705 226.842V221.338H207.825V233.178H206.705V230.778C206.481 231.536 206.054 232.144 205.425 232.602C204.806 233.061 204.054 233.29 203.169 233.29C202.38 233.29 201.67 233.109 201.041 232.746C200.422 232.384 199.937 231.866 199.585 231.194C199.244 230.512 199.073 229.717 199.073 228.81C199.073 227.893 199.244 227.098 199.585 226.426C199.937 225.744 200.422 225.226 201.041 224.874C201.66 224.512 202.369 224.33 203.169 224.33ZM203.457 225.322C202.476 225.322 201.686 225.637 201.089 226.266C200.502 226.885 200.209 227.733 200.209 228.81C200.209 229.888 200.502 230.741 201.089 231.37C201.686 231.989 202.476 232.298 203.457 232.298C204.076 232.298 204.63 232.154 205.121 231.866C205.622 231.578 206.012 231.173 206.289 230.65C206.577 230.117 206.721 229.504 206.721 228.81C206.721 228.117 206.577 227.509 206.289 226.986C206.012 226.453 205.622 226.042 205.121 225.754C204.63 225.466 204.076 225.322 203.457 225.322ZM226.219 224.442L223.643 233.178H222.459L219.835 225.754L217.179 233.178H216.011L213.435 224.442H214.571L216.651 232.01L219.275 224.442H220.427L223.067 232.01L225.131 224.442H226.219ZM227.405 221.85C227.405 221.616 227.48 221.429 227.629 221.29C227.789 221.152 227.992 221.082 228.237 221.082C228.482 221.082 228.68 221.152 228.829 221.29C228.978 221.429 229.053 221.616 229.053 221.85C229.053 222.074 228.978 222.256 228.829 222.394C228.68 222.533 228.482 222.602 228.237 222.602C227.992 222.602 227.789 222.533 227.629 222.394C227.48 222.256 227.405 222.074 227.405 221.85ZM228.797 224.442V233.178H227.661V224.442H228.797ZM235.191 232.186V233.178H234.151C233.309 233.178 232.679 232.981 232.263 232.586C231.847 232.181 231.639 231.504 231.639 230.554V225.418H230.311V224.442H231.639V222.234H232.775V224.442H235.175V225.418H232.775V230.57C232.775 231.189 232.887 231.616 233.111 231.85C233.335 232.074 233.73 232.186 234.295 232.186H235.191ZM241.404 224.282C242.417 224.282 243.239 224.608 243.868 225.258C244.508 225.898 244.828 226.842 244.828 228.09V233.178H243.724V228.17C243.724 227.221 243.484 226.496 243.004 225.994C242.524 225.482 241.868 225.226 241.036 225.226C240.161 225.226 239.463 225.509 238.94 226.074C238.428 226.629 238.172 227.45 238.172 228.538V233.178H237.036V221.338H238.172V226.586C238.396 225.84 238.801 225.269 239.388 224.874C239.975 224.48 240.647 224.282 241.404 224.282ZM255.716 224.282C256.73 224.282 257.551 224.608 258.18 225.258C258.82 225.898 259.14 226.842 259.14 228.09V233.178H258.036V228.17C258.036 227.221 257.796 226.496 257.316 225.994C256.836 225.482 256.18 225.226 255.348 225.226C254.474 225.226 253.775 225.509 253.252 226.074C252.74 226.629 252.484 227.45 252.484 228.538V233.178H251.348V221.338H252.484V226.586C252.708 225.84 253.114 225.269 253.7 224.874C254.287 224.48 254.959 224.282 255.716 224.282ZM261.249 221.85C261.249 221.616 261.323 221.429 261.473 221.29C261.633 221.152 261.835 221.082 262.081 221.082C262.326 221.082 262.523 221.152 262.673 221.29C262.822 221.429 262.897 221.616 262.897 221.85C262.897 222.074 262.822 222.256 262.673 222.394C262.523 222.533 262.326 222.602 262.081 222.602C261.835 222.602 261.633 222.533 261.473 222.394C261.323 222.256 261.249 222.074 261.249 221.85ZM262.641 224.442V233.178H261.505V224.442H262.641ZM268.747 224.33C269.633 224.33 270.385 224.56 271.003 225.018C271.633 225.477 272.065 226.085 272.299 226.842V224.442H273.403V233.386C273.403 234.197 273.233 234.906 272.891 235.514C272.55 236.133 272.075 236.608 271.467 236.938C270.859 237.28 270.166 237.45 269.387 237.45C268.246 237.45 267.307 237.173 266.571 236.618C265.846 236.074 265.371 235.333 265.147 234.394H266.267C266.459 235.034 266.811 235.541 267.323 235.914C267.846 236.288 268.513 236.474 269.323 236.474C269.878 236.474 270.379 236.352 270.827 236.106C271.286 235.872 271.643 235.52 271.899 235.05C272.166 234.581 272.299 234.026 272.299 233.386V230.778C272.065 231.536 271.633 232.144 271.003 232.602C270.385 233.061 269.633 233.29 268.747 233.29C267.958 233.29 267.249 233.109 266.619 232.746C266.001 232.384 265.515 231.866 265.163 231.194C264.822 230.512 264.651 229.717 264.651 228.81C264.651 227.893 264.822 227.098 265.163 226.426C265.515 225.744 266.001 225.226 266.619 224.874C267.238 224.512 267.947 224.33 268.747 224.33ZM269.035 225.322C268.054 225.322 267.265 225.637 266.667 226.266C266.081 226.885 265.787 227.733 265.787 228.81C265.787 229.888 266.081 230.741 266.667 231.37C267.265 231.989 268.054 232.298 269.035 232.298C269.654 232.298 270.209 232.154 270.699 231.866C271.201 231.578 271.59 231.173 271.867 230.65C272.155 230.117 272.299 229.504 272.299 228.81C272.299 228.117 272.155 227.509 271.867 226.986C271.59 226.453 271.201 226.042 270.699 225.754C270.209 225.466 269.654 225.322 269.035 225.322ZM280.201 224.282C281.214 224.282 282.035 224.608 282.665 225.258C283.305 225.898 283.625 226.842 283.625 228.09V233.178H282.521V228.17C282.521 227.221 282.281 226.496 281.801 225.994C281.321 225.482 280.665 225.226 279.833 225.226C278.958 225.226 278.259 225.509 277.737 226.074C277.225 226.629 276.969 227.45 276.969 228.538V233.178H275.833V221.338H276.969V226.586C277.193 225.84 277.598 225.269 278.185 224.874C278.771 224.48 279.443 224.282 280.201 224.282ZM289.797 232.362C290.586 232.362 291.248 232.165 291.781 231.77C292.314 231.376 292.634 230.842 292.741 230.17H293.925C293.765 231.098 293.322 231.85 292.597 232.426C291.872 233.002 290.954 233.29 289.845 233.29C289.013 233.29 288.272 233.114 287.621 232.762C286.981 232.4 286.48 231.882 286.117 231.21C285.754 230.528 285.573 229.728 285.573 228.81C285.573 227.893 285.754 227.098 286.117 226.426C286.48 225.744 286.981 225.226 287.621 224.874C288.272 224.512 289.013 224.33 289.845 224.33C290.698 224.33 291.434 224.512 292.053 224.874C292.682 225.226 293.157 225.701 293.477 226.298C293.808 226.896 293.973 227.546 293.973 228.25C293.973 228.549 293.952 228.821 293.909 229.066H286.677C286.688 229.802 286.837 230.421 287.125 230.922C287.424 231.413 287.808 231.776 288.277 232.01C288.746 232.245 289.253 232.362 289.797 232.362ZM289.845 225.242C289.28 225.242 288.762 225.36 288.293 225.594C287.824 225.829 287.44 226.192 287.141 226.682C286.853 227.162 286.698 227.765 286.677 228.49H292.853C292.896 227.776 292.778 227.173 292.501 226.682C292.224 226.192 291.85 225.829 291.381 225.594C290.912 225.36 290.4 225.242 289.845 225.242ZM297.125 226.25C297.381 225.621 297.792 225.136 298.357 224.794C298.922 224.453 299.61 224.282 300.421 224.282V225.498H300.053C299.21 225.498 298.512 225.728 297.957 226.186C297.402 226.634 297.125 227.37 297.125 228.394V233.178H295.989V224.442H297.125V226.25ZM63.962 254.426H58.826L57.802 257.178H56.602L60.762 246.154H62.026L66.186 257.178H64.97L63.962 254.426ZM63.626 253.53L61.402 247.45L59.146 253.53H63.626ZM68.8829 252.474V257.178H67.7469V245.898H71.1229C72.3922 245.898 73.3362 246.192 73.9549 246.778C74.5842 247.365 74.8989 248.17 74.8989 249.194C74.8989 250.24 74.5736 251.05 73.9229 251.626C73.2829 252.192 72.3496 252.474 71.1229 252.474H68.8829ZM71.0269 251.514C71.9976 251.514 72.6962 251.317 73.1229 250.922C73.5496 250.517 73.7629 249.941 73.7629 249.194C73.7629 248.426 73.5496 247.845 73.1229 247.45C72.6962 247.045 71.9976 246.842 71.0269 246.842H68.8829V251.514H71.0269ZM84.2368 245.898L80.6048 252.778V257.178H79.4688V252.778L75.8208 245.898H77.1168L80.0288 251.578L82.9408 245.898H84.2368ZM90.2056 248.442L93.2456 255.722L96.0456 248.442H97.2936L92.1576 261.306H90.8776L92.6376 257.082L88.9576 248.442H90.2056ZM98.4596 245.85C98.4596 245.616 98.5343 245.429 98.6836 245.29C98.8436 245.152 99.0463 245.082 99.2916 245.082C99.537 245.082 99.7343 245.152 99.8836 245.29C100.033 245.429 100.108 245.616 100.108 245.85C100.108 246.074 100.033 246.256 99.8836 246.394C99.7343 246.533 99.537 246.602 99.2916 246.602C99.0463 246.602 98.8436 246.533 98.6836 246.394C98.5343 246.256 98.4596 246.074 98.4596 245.85ZM99.8516 248.442V257.178H98.7156V248.442H99.8516ZM106.086 256.362C106.875 256.362 107.537 256.165 108.07 255.77C108.603 255.376 108.923 254.842 109.03 254.17H110.214C110.054 255.098 109.611 255.85 108.886 256.426C108.161 257.002 107.243 257.29 106.134 257.29C105.302 257.29 104.561 257.114 103.91 256.762C103.27 256.4 102.769 255.882 102.406 255.21C102.043 254.528 101.862 253.728 101.862 252.81C101.862 251.893 102.043 251.098 102.406 250.426C102.769 249.744 103.27 249.226 103.91 248.874C104.561 248.512 105.302 248.33 106.134 248.33C106.987 248.33 107.723 248.512 108.342 248.874C108.971 249.226 109.446 249.701 109.766 250.298C110.097 250.896 110.262 251.546 110.262 252.25C110.262 252.549 110.241 252.821 110.198 253.066H102.966C102.977 253.802 103.126 254.421 103.414 254.922C103.713 255.413 104.097 255.776 104.566 256.01C105.035 256.245 105.542 256.362 106.086 256.362ZM106.134 249.242C105.569 249.242 105.051 249.36 104.582 249.594C104.113 249.829 103.729 250.192 103.43 250.682C103.142 251.162 102.987 251.765 102.966 252.49H109.142C109.185 251.776 109.067 251.173 108.79 250.682C108.513 250.192 108.139 249.829 107.67 249.594C107.201 249.36 106.689 249.242 106.134 249.242ZM113.414 245.338V257.178H112.278V245.338H113.414ZM119.521 248.33C120.406 248.33 121.158 248.56 121.777 249.018C122.406 249.477 122.833 250.085 123.057 250.842V245.338H124.177V257.178H123.057V254.778C122.833 255.536 122.406 256.144 121.777 256.602C121.158 257.061 120.406 257.29 119.521 257.29C118.731 257.29 118.022 257.109 117.393 256.746C116.774 256.384 116.289 255.866 115.937 255.194C115.595 254.512 115.425 253.717 115.425 252.81C115.425 251.893 115.595 251.098 115.937 250.426C116.289 249.744 116.774 249.226 117.393 248.874C118.011 248.512 118.721 248.33 119.521 248.33ZM119.809 249.322C118.827 249.322 118.038 249.637 117.441 250.266C116.854 250.885 116.561 251.733 116.561 252.81C116.561 253.888 116.854 254.741 117.441 255.37C118.038 255.989 118.827 256.298 119.809 256.298C120.427 256.298 120.982 256.154 121.473 255.866C121.974 255.578 122.363 255.173 122.641 254.65C122.929 254.117 123.073 253.504 123.073 252.81C123.073 252.117 122.929 251.509 122.641 250.986C122.363 250.453 121.974 250.042 121.473 249.754C120.982 249.466 120.427 249.322 119.809 249.322ZM129.246 248.33C130.196 248.33 130.958 248.581 131.534 249.082C132.11 249.584 132.462 250.261 132.59 251.114H131.518C131.454 250.549 131.22 250.085 130.814 249.722C130.42 249.349 129.886 249.162 129.214 249.162C128.638 249.162 128.185 249.306 127.854 249.594C127.534 249.872 127.374 250.245 127.374 250.714C127.374 251.066 127.476 251.349 127.678 251.562C127.892 251.776 128.153 251.941 128.462 252.058C128.772 252.165 129.188 252.277 129.71 252.394C130.35 252.544 130.862 252.698 131.246 252.858C131.641 253.008 131.977 253.248 132.254 253.578C132.532 253.909 132.67 254.357 132.67 254.922C132.67 255.616 132.409 256.186 131.886 256.634C131.374 257.072 130.692 257.29 129.838 257.29C128.836 257.29 128.014 257.045 127.374 256.554C126.734 256.053 126.356 255.37 126.238 254.506H127.326C127.39 255.082 127.641 255.552 128.078 255.914C128.516 256.277 129.108 256.458 129.854 256.458C130.409 256.458 130.841 256.314 131.15 256.026C131.46 255.738 131.614 255.365 131.614 254.906C131.614 254.533 131.508 254.234 131.294 254.01C131.081 253.786 130.814 253.621 130.494 253.514C130.185 253.397 129.758 253.274 129.214 253.146C128.585 252.997 128.078 252.848 127.694 252.698C127.321 252.549 127.001 252.32 126.734 252.01C126.468 251.69 126.334 251.258 126.334 250.714C126.334 250 126.596 249.424 127.118 248.986C127.641 248.549 128.35 248.33 129.246 248.33ZM142.552 246.122C141.741 246.112 141.171 246.261 140.84 246.57C140.52 246.869 140.36 247.376 140.36 248.09V248.442H142.552V249.434H140.36V257.178H139.24V249.434H137.944V248.442H139.24V248.01C139.24 247.029 139.507 246.293 140.04 245.802C140.573 245.312 141.411 245.088 142.552 245.13V246.122ZM145.367 250.25C145.623 249.621 146.034 249.136 146.599 248.794C147.165 248.453 147.853 248.282 148.663 248.282V249.498H148.295C147.453 249.498 146.754 249.728 146.199 250.186C145.645 250.634 145.367 251.37 145.367 252.394V257.178H144.231V248.442H145.367V250.25ZM154.105 248.33C154.937 248.33 155.678 248.512 156.329 248.874C156.99 249.226 157.508 249.744 157.881 250.426C158.254 251.098 158.441 251.893 158.441 252.81C158.441 253.728 158.254 254.522 157.881 255.194C157.508 255.866 156.99 256.384 156.329 256.746C155.678 257.109 154.937 257.29 154.105 257.29C153.273 257.29 152.526 257.109 151.865 256.746C151.204 256.384 150.681 255.866 150.297 255.194C149.924 254.512 149.737 253.717 149.737 252.81C149.737 251.893 149.924 251.098 150.297 250.426C150.681 249.744 151.204 249.226 151.865 248.874C152.526 248.512 153.273 248.33 154.105 248.33ZM154.105 249.306C153.529 249.306 152.996 249.434 152.505 249.69C152.014 249.946 151.62 250.341 151.321 250.874C151.022 251.397 150.873 252.042 150.873 252.81C150.873 253.578 151.022 254.224 151.321 254.746C151.62 255.269 152.014 255.658 152.505 255.914C152.996 256.17 153.529 256.298 154.105 256.298C154.67 256.298 155.193 256.17 155.673 255.914C156.164 255.658 156.558 255.269 156.857 254.746C157.156 254.224 157.305 253.578 157.305 252.81C157.305 252.042 157.156 251.397 156.857 250.874C156.558 250.341 156.164 249.946 155.673 249.69C155.193 249.434 154.67 249.306 154.105 249.306ZM171.058 248.282C172.061 248.282 172.871 248.608 173.49 249.258C174.119 249.898 174.434 250.842 174.434 252.09V257.178H173.314V252.17C173.314 251.232 173.085 250.512 172.626 250.01C172.178 249.509 171.559 249.258 170.77 249.258C169.927 249.258 169.255 249.536 168.754 250.09C168.253 250.645 168.002 251.461 168.002 252.538V257.178H166.898V252.17C166.898 251.232 166.669 250.512 166.21 250.01C165.762 249.509 165.143 249.258 164.354 249.258C163.511 249.258 162.839 249.536 162.338 250.09C161.837 250.645 161.586 251.461 161.586 252.538V257.178H160.45V248.442H161.586V250.522C161.799 249.786 162.183 249.232 162.738 248.858C163.303 248.474 163.954 248.282 164.69 248.282C165.458 248.282 166.119 248.485 166.674 248.89C167.229 249.296 167.613 249.893 167.826 250.682C168.061 249.904 168.471 249.312 169.058 248.906C169.645 248.49 170.311 248.282 171.058 248.282ZM182.086 245.338V257.178H180.95V245.338H182.086ZM184.257 245.85C184.257 245.616 184.331 245.429 184.481 245.29C184.641 245.152 184.843 245.082 185.089 245.082C185.334 245.082 185.531 245.152 185.681 245.29C185.83 245.429 185.905 245.616 185.905 245.85C185.905 246.074 185.83 246.256 185.681 246.394C185.531 246.533 185.334 246.602 185.089 246.602C184.843 246.602 184.641 246.533 184.481 246.394C184.331 246.256 184.257 246.074 184.257 245.85ZM185.649 248.442V257.178H184.513V248.442H185.649ZM191.819 248.346C192.683 248.346 193.414 248.56 194.011 248.986C194.619 249.413 195.051 249.994 195.307 250.73V248.442H196.411V261.306H195.307V254.842C195.051 255.589 194.619 256.186 194.011 256.634C193.403 257.072 192.672 257.29 191.819 257.29C191.019 257.29 190.304 257.109 189.675 256.746C189.046 256.373 188.55 255.85 188.187 255.178C187.835 254.506 187.659 253.722 187.659 252.826C187.659 251.93 187.835 251.146 188.187 250.474C188.55 249.792 189.046 249.269 189.675 248.906C190.304 248.533 191.019 248.346 191.819 248.346ZM192.043 249.322C191.072 249.322 190.288 249.637 189.691 250.266C189.094 250.885 188.795 251.738 188.795 252.826C188.795 253.914 189.094 254.768 189.691 255.386C190.288 255.994 191.072 256.298 192.043 256.298C192.651 256.298 193.2 256.16 193.691 255.882C194.192 255.594 194.587 255.189 194.875 254.666C195.163 254.133 195.307 253.514 195.307 252.81C195.307 252.106 195.163 251.493 194.875 250.97C194.587 250.437 194.192 250.032 193.691 249.754C193.2 249.466 192.651 249.322 192.043 249.322ZM206.377 248.442V257.178H205.257V255.018C205.033 255.776 204.627 256.352 204.041 256.746C203.454 257.141 202.782 257.338 202.025 257.338C201.001 257.338 200.169 257.018 199.529 256.378C198.899 255.728 198.585 254.778 198.585 253.53V248.442H199.705V253.434C199.705 254.394 199.945 255.13 200.425 255.642C200.905 256.144 201.561 256.394 202.393 256.394C203.267 256.394 203.961 256.117 204.473 255.562C204.995 254.997 205.257 254.17 205.257 253.082V248.442H206.377ZM208.569 245.85C208.569 245.616 208.644 245.429 208.793 245.29C208.953 245.152 209.156 245.082 209.401 245.082C209.646 245.082 209.844 245.152 209.993 245.29C210.142 245.429 210.217 245.616 210.217 245.85C210.217 246.074 210.142 246.256 209.993 246.394C209.844 246.533 209.646 246.602 209.401 246.602C209.156 246.602 208.953 246.533 208.793 246.394C208.644 246.256 208.569 246.074 208.569 245.85ZM209.961 248.442V257.178H208.825V248.442H209.961ZM216.068 248.33C216.953 248.33 217.705 248.56 218.324 249.018C218.953 249.477 219.38 250.085 219.604 250.842V245.338H220.724V257.178H219.604V254.778C219.38 255.536 218.953 256.144 218.324 256.602C217.705 257.061 216.953 257.29 216.068 257.29C215.278 257.29 214.569 257.109 213.94 256.746C213.321 256.384 212.836 255.866 212.484 255.194C212.142 254.512 211.972 253.717 211.972 252.81C211.972 251.893 212.142 251.098 212.484 250.426C212.836 249.744 213.321 249.226 213.94 248.874C214.558 248.512 215.268 248.33 216.068 248.33ZM216.356 249.322C215.374 249.322 214.585 249.637 213.988 250.266C213.401 250.885 213.108 251.733 213.108 252.81C213.108 253.888 213.401 254.741 213.988 255.37C214.585 255.989 215.374 256.298 216.356 256.298C216.974 256.298 217.529 256.154 218.02 255.866C218.521 255.578 218.91 255.173 219.188 254.65C219.476 254.117 219.62 253.504 219.62 252.81C219.62 252.117 219.476 251.509 219.188 250.986C218.91 250.453 218.521 250.042 218.02 249.754C217.529 249.466 216.974 249.322 216.356 249.322ZM222.897 245.85C222.897 245.616 222.972 245.429 223.121 245.29C223.281 245.152 223.484 245.082 223.729 245.082C223.974 245.082 224.172 245.152 224.321 245.29C224.47 245.429 224.545 245.616 224.545 245.85C224.545 246.074 224.47 246.256 224.321 246.394C224.172 246.533 223.974 246.602 223.729 246.602C223.484 246.602 223.281 246.533 223.121 246.394C222.972 246.256 222.897 246.074 222.897 245.85ZM224.289 248.442V257.178H223.153V248.442H224.289ZM230.684 256.186V257.178H229.644C228.801 257.178 228.172 256.981 227.756 256.586C227.34 256.181 227.132 255.504 227.132 254.554V249.418H225.804V248.442H227.132V246.234H228.268V248.442H230.668V249.418H228.268V254.57C228.268 255.189 228.38 255.616 228.604 255.85C228.828 256.074 229.222 256.186 229.788 256.186H230.684ZM232.768 248.442L235.808 255.722L238.608 248.442H239.856L234.72 261.306H233.44L235.2 257.082L231.52 248.442H232.768ZM250.106 248.33C250.906 248.33 251.61 248.512 252.218 248.874C252.837 249.226 253.317 249.744 253.658 250.426C254.01 251.098 254.186 251.893 254.186 252.81C254.186 253.717 254.01 254.512 253.658 255.194C253.317 255.866 252.837 256.384 252.218 256.746C251.6 257.109 250.896 257.29 250.106 257.29C249.21 257.29 248.453 257.061 247.834 256.602C247.216 256.144 246.789 255.536 246.554 254.778V261.306H245.434V248.442H246.554V250.842C246.789 250.085 247.216 249.477 247.834 249.018C248.453 248.56 249.21 248.33 250.106 248.33ZM249.802 249.322C249.184 249.322 248.624 249.466 248.122 249.754C247.632 250.042 247.248 250.453 246.97 250.986C246.693 251.509 246.554 252.117 246.554 252.81C246.554 253.504 246.693 254.117 246.97 254.65C247.248 255.173 247.632 255.578 248.122 255.866C248.624 256.154 249.184 256.298 249.802 256.298C250.794 256.298 251.584 255.989 252.17 255.37C252.757 254.741 253.05 253.888 253.05 252.81C253.05 251.733 252.757 250.885 252.17 250.266C251.584 249.637 250.794 249.322 249.802 249.322ZM260.152 248.33C260.984 248.33 261.725 248.512 262.376 248.874C263.037 249.226 263.555 249.744 263.928 250.426C264.301 251.098 264.488 251.893 264.488 252.81C264.488 253.728 264.301 254.522 263.928 255.194C263.555 255.866 263.037 256.384 262.376 256.746C261.725 257.109 260.984 257.29 260.152 257.29C259.32 257.29 258.573 257.109 257.912 256.746C257.251 256.384 256.728 255.866 256.344 255.194C255.971 254.512 255.784 253.717 255.784 252.81C255.784 251.893 255.971 251.098 256.344 250.426C256.728 249.744 257.251 249.226 257.912 248.874C258.573 248.512 259.32 248.33 260.152 248.33ZM260.152 249.306C259.576 249.306 259.043 249.434 258.552 249.69C258.061 249.946 257.667 250.341 257.368 250.874C257.069 251.397 256.92 252.042 256.92 252.81C256.92 253.578 257.069 254.224 257.368 254.746C257.667 255.269 258.061 255.658 258.552 255.914C259.043 256.17 259.576 256.298 260.152 256.298C260.717 256.298 261.24 256.17 261.72 255.914C262.211 255.658 262.605 255.269 262.904 254.746C263.203 254.224 263.352 253.578 263.352 252.81C263.352 252.042 263.203 251.397 262.904 250.874C262.605 250.341 262.211 249.946 261.72 249.69C261.24 249.434 260.717 249.306 260.152 249.306ZM270.449 248.33C271.281 248.33 272.022 248.512 272.673 248.874C273.334 249.226 273.852 249.744 274.225 250.426C274.598 251.098 274.785 251.893 274.785 252.81C274.785 253.728 274.598 254.522 274.225 255.194C273.852 255.866 273.334 256.384 272.673 256.746C272.022 257.109 271.281 257.29 270.449 257.29C269.617 257.29 268.87 257.109 268.209 256.746C267.548 256.384 267.025 255.866 266.641 255.194C266.268 254.512 266.081 253.717 266.081 252.81C266.081 251.893 266.268 251.098 266.641 250.426C267.025 249.744 267.548 249.226 268.209 248.874C268.87 248.512 269.617 248.33 270.449 248.33ZM270.449 249.306C269.873 249.306 269.34 249.434 268.849 249.69C268.358 249.946 267.964 250.341 267.665 250.874C267.366 251.397 267.217 252.042 267.217 252.81C267.217 253.578 267.366 254.224 267.665 254.746C267.964 255.269 268.358 255.658 268.849 255.914C269.34 256.17 269.873 256.298 270.449 256.298C271.014 256.298 271.537 256.17 272.017 255.914C272.508 255.658 272.902 255.269 273.201 254.746C273.5 254.224 273.649 253.578 273.649 252.81C273.649 252.042 273.5 251.397 273.201 250.874C272.902 250.341 272.508 249.946 272.017 249.69C271.537 249.434 271.014 249.306 270.449 249.306ZM277.93 245.338V257.178H276.794V245.338H277.93ZM282.996 248.33C283.946 248.33 284.708 248.581 285.284 249.082C285.86 249.584 286.212 250.261 286.34 251.114H285.268C285.204 250.549 284.97 250.085 284.564 249.722C284.17 249.349 283.636 249.162 282.964 249.162C282.388 249.162 281.935 249.306 281.604 249.594C281.284 249.872 281.124 250.245 281.124 250.714C281.124 251.066 281.226 251.349 281.428 251.562C281.642 251.776 281.903 251.941 282.212 252.058C282.522 252.165 282.938 252.277 283.46 252.394C284.1 252.544 284.612 252.698 284.996 252.858C285.391 253.008 285.727 253.248 286.004 253.578C286.282 253.909 286.42 254.357 286.42 254.922C286.42 255.616 286.159 256.186 285.636 256.634C285.124 257.072 284.442 257.29 283.588 257.29C282.586 257.29 281.764 257.045 281.124 256.554C280.484 256.053 280.106 255.37 279.988 254.506H281.076C281.14 255.082 281.391 255.552 281.828 255.914C282.266 256.277 282.858 256.458 283.604 256.458C284.159 256.458 284.591 256.314 284.9 256.026C285.21 255.738 285.364 255.365 285.364 254.906C285.364 254.533 285.258 254.234 285.044 254.01C284.831 253.786 284.564 253.621 284.244 253.514C283.935 253.397 283.508 253.274 282.964 253.146C282.335 252.997 281.828 252.848 281.444 252.698C281.071 252.549 280.751 252.32 280.484 252.01C280.218 251.69 280.084 251.258 280.084 250.714C280.084 250 280.346 249.424 280.868 248.986C281.391 248.549 282.1 248.33 282.996 248.33Z" fill="white"/>
<path fill-rule="evenodd" clip-rule="evenodd" d="M202.565 18.6079H126.057C122.744 18.6079 120.057 21.2942 120.057 24.6079V98.5753H108.456C102.933 98.5753 98.4563 103.052 98.4563 108.575V110C98.4563 115.523 102.933 120 108.456 120H235.027C240.55 120 245.027 115.523 245.027 110V108.575C245.027 103.052 240.55 98.5753 235.027 98.5753H223.377V48.5831C222.702 48.5045 222.035 48.3983 221.377 48.2656V118H122.057V24.6079C122.057 22.3988 123.848 20.6079 126.057 20.6079H202.166C202.271 19.9316 202.405 19.2645 202.565 18.6079ZM120.057 100.575H108.456C104.038 100.575 100.456 104.157 100.456 108.575V110C100.456 114.418 104.038 118 108.456 118L120.057 118V100.575ZM223.377 118H235.027C239.446 118 243.027 114.418 243.027 110V108.575C243.027 104.157 239.446 100.575 235.027 100.575H223.377V118ZM199.443 74.0245C199.318 74.0266 199.196 74.0635 199.09 74.131C199.027 74.1715 198.971 74.222 198.925 74.2804C198.894 74.3193 198.867 74.3618 198.845 74.4071L189.436 89.1937C189.421 89.2166 189.407 89.2404 189.394 89.265L189.393 89.2664C189.389 89.274 189.385 89.2817 189.382 89.2896L189.371 89.3142L189.366 89.327C189.35 89.3693 189.338 89.413 189.331 89.4576C189.323 89.5021 189.32 89.5471 189.322 89.5922V89.5935C189.322 89.6156 189.324 89.6376 189.327 89.6594L189.329 89.6726C189.333 89.6917 189.336 89.7106 189.341 89.7292C189.345 89.7435 189.349 89.7577 189.353 89.7716L189.359 89.79V89.7914C189.362 89.801 189.365 89.8105 189.369 89.8201C189.374 89.8313 189.378 89.8424 189.384 89.8534V89.8547L189.394 89.8749L189.402 89.8896L189.409 89.9023L189.415 89.9127V89.9141L189.429 89.9368L189.438 89.9493L189.447 89.9629L189.452 89.9695C189.458 89.9775 189.465 89.9855 189.472 89.9933C189.48 90.0032 189.488 90.0128 189.496 90.0222C189.505 90.0328 189.515 90.0431 189.525 90.0532L189.542 90.0697L189.543 90.071C189.576 90.101 189.612 90.1274 189.65 90.1503L189.651 90.1516L189.662 90.1569L189.663 90.1582L199.034 95.5132C199.153 95.6068 199.299 95.658 199.451 95.6584C199.602 95.6589 199.749 95.6088 199.868 95.5157L209.231 90.1648L209.245 90.1569L209.258 90.1494C209.269 90.1429 209.279 90.1361 209.289 90.1292L209.302 90.1199L209.311 90.1119L209.331 90.0978L209.342 90.09L209.352 90.0817L209.355 90.079L209.363 90.0724L209.38 90.056C209.388 90.0481 209.396 90.0399 209.404 90.0315L209.417 90.0175C209.427 90.0054 209.438 89.9929 209.447 89.9801C209.461 89.9626 209.473 89.9446 209.484 89.9259L209.486 89.9247L209.487 89.9207C209.493 89.9121 209.498 89.9033 209.503 89.8945C209.508 89.8854 209.514 89.876 209.519 89.8666V89.8652C209.526 89.8497 209.533 89.8339 209.54 89.8177L209.545 89.8032L209.55 89.7875C209.555 89.7722 209.56 89.7568 209.563 89.7412L209.565 89.7386L209.566 89.7346C209.569 89.7244 209.571 89.714 209.573 89.7036C209.575 89.6934 209.576 89.683 209.578 89.6726L209.58 89.6617L209.582 89.6453C209.583 89.6373 209.584 89.6293 209.585 89.6212V89.616C209.586 89.5953 209.586 89.5746 209.586 89.554C209.585 89.5406 209.584 89.5275 209.583 89.5143L209.582 89.4954L209.579 89.4722V89.4708L209.578 89.4642C209.576 89.454 209.574 89.4437 209.572 89.4336C209.57 89.4248 209.568 89.4161 209.566 89.4075V89.4048C209.562 89.3879 209.557 89.3712 209.552 89.3547L209.546 89.3402L209.54 89.3243L209.535 89.3115L209.531 89.3024L209.526 89.2899L209.521 89.2795L209.52 89.2782L209.519 89.2742C209.509 89.2552 209.498 89.2368 209.487 89.2189L209.483 89.2123L209.48 89.2069L209.459 89.1753L200.059 74.4032C200.003 74.2881 199.915 74.1915 199.806 74.1245C199.697 74.0574 199.571 74.0227 199.443 74.0245ZM198.778 77.0299V85.0709L191.742 88.0856L198.778 77.0299ZM200.129 77.0299L207.165 88.0856L200.129 85.0709V77.0299ZM198.778 86.5406V93.8086L191.512 89.6569L198.778 86.5406ZM200.129 86.5406L207.396 89.6569L200.129 93.8086V86.5406ZM208.75 92.29C208.689 92.3051 208.63 92.3285 208.575 92.3601L199.454 97.5726L190.332 92.3601C190.234 92.3041 190.123 92.2737 190.01 92.2716C189.884 92.2692 189.76 92.3021 189.651 92.3666C189.543 92.4312 189.455 92.5248 189.397 92.6367C189.339 92.7488 189.314 92.8748 189.324 93.0006C189.334 93.1263 189.379 93.2467 189.453 93.3481L198.865 106.122C198.924 106.226 199.009 106.312 199.113 106.373C199.216 106.433 199.333 106.465 199.453 106.465C199.572 106.465 199.69 106.433 199.793 106.373C199.896 106.313 199.982 106.227 200.041 106.123L209.454 93.3481C209.528 93.2479 209.573 93.1292 209.584 93.0049C209.595 92.8805 209.571 92.7557 209.516 92.644C209.46 92.5325 209.374 92.4385 209.268 92.3724C209.162 92.3065 209.04 92.2711 208.916 92.2704C208.859 92.27 208.804 92.2767 208.75 92.29ZM192.438 95.12L198.778 98.7441V103.726L192.438 95.12ZM206.47 95.12L200.129 103.726V98.7441L206.47 95.12ZM134.068 48.8362C134.068 39.6262 141.55 32.1445 150.76 32.1445C159.97 32.1445 167.452 39.6262 167.452 48.8362C167.452 58.0461 159.97 65.5278 150.76 65.5278C141.55 65.5278 134.068 58.0461 134.068 48.8362ZM166 48.8362C166 40.4106 159.185 33.5959 150.76 33.5959C142.334 33.5959 135.52 40.4106 135.52 48.8362C135.52 57.2617 142.334 64.0763 150.76 64.0763C159.185 64.0763 166 57.2617 166 48.8362ZM147.857 40.1274V37.9503H149.308V40.1274H150.76V37.9503H152.211V40.1431C153.704 40.2083 157.219 40.6978 157.219 44.4095C157.219 47.385 154.678 48.1836 154.17 48.3287V48.401C155.259 48.5461 157.873 49.5613 157.873 52.6094C157.873 57.0231 153.879 57.4906 152.211 57.5377V59.722H150.76V57.5448H149.308V59.722H147.857V57.5448H144.228V40.1274H147.857ZM151.63 41.5066H145.898V47.7476H151.63C152.283 47.7476 152.864 47.6744 153.372 47.5293C153.88 47.3842 154.244 47.1675 154.607 46.8772C154.897 46.5869 155.187 46.2961 155.333 45.9332C155.478 45.5703 155.549 45.2078 155.549 44.7723C155.549 42.5952 154.243 41.5066 151.63 41.5066ZM151.63 49.199H145.898V56.1656H151.63C152.283 56.1656 152.864 56.0936 153.372 56.0211C153.953 55.9485 154.388 55.7302 154.824 55.4399C155.259 55.1497 155.55 54.7867 155.84 54.3513C156.058 53.9159 156.203 53.3351 156.203 52.6094C156.203 51.5208 155.84 50.6499 155.042 50.0693C154.244 49.4888 153.082 49.199 151.63 49.199ZM143.689 85.671L150.053 79.3071C150.443 78.9165 151.076 78.9165 151.467 79.3071L157.831 85.671C158.221 86.0615 158.221 86.6947 157.831 87.0852C157.44 87.4758 156.807 87.4758 156.417 87.0852L151.76 82.4285V105.848C151.76 106.401 151.312 106.848 150.76 106.848C150.208 106.848 149.76 106.401 149.76 105.848V82.4285L145.103 87.0852C144.713 87.4758 144.079 87.4758 143.689 87.0852C143.298 86.6947 143.298 86.0615 143.689 85.671ZM200.161 60.0447L206.525 53.6808C206.916 53.2902 206.916 52.6571 206.525 52.2665C206.135 51.876 205.501 51.876 205.111 52.2665L200.454 56.9233V33.5034C200.454 32.951 200.006 32.5034 199.454 32.5034C198.902 32.5034 198.454 32.951 198.454 33.5034V56.9233L193.797 52.2665C193.407 51.876 192.773 51.876 192.383 52.2665C191.992 52.6571 191.992 53.2902 192.383 53.6808L198.747 60.0447C199.137 60.4352 199.771 60.4352 200.161 60.0447Z" fill="white"/>
<circle cx="226.221" cy="24.3988" r="23.3485" stroke="white" stroke-width="2"/>
<path d="M222.641 19.6988H217.889C217.489 19.6988 217.153 20.0188 217.153 20.4188C217.153 20.8348 217.489 21.1548 217.889 21.1548H222.129L220.129 23.8748C219.921 24.1468 219.729 24.3708 219.729 24.6428C219.729 24.9628 219.969 25.2988 220.401 25.3788C221.345 25.5548 222.801 26.0828 222.801 27.5548C222.801 29.0588 221.457 29.6028 220.545 29.6028C219.697 29.6028 218.657 29.1228 218.305 27.9868C218.225 27.7148 217.937 27.4748 217.537 27.4748C216.961 27.4748 216.657 28.0348 216.833 28.5468C217.329 30.1788 218.833 31.0588 220.545 31.0588C222.737 31.0588 224.481 29.6348 224.481 27.5548C224.481 25.6188 222.881 24.4828 221.505 24.2428L223.649 21.4588C224.257 20.6588 223.649 19.6988 222.641 19.6988ZM227.893 19.6188C226.805 19.6188 225.925 20.4828 225.925 21.5868C225.925 22.6748 226.805 23.5548 227.893 23.5548C228.997 23.5548 229.877 22.6748 229.877 21.5868C229.877 20.4828 228.997 19.6188 227.893 19.6188ZM233.237 20.2428L227.029 29.4588C226.949 29.5868 226.901 29.7308 226.901 29.9068C226.901 30.3228 227.269 30.6908 227.685 30.6908C227.973 30.6908 228.213 30.5308 228.357 30.3228L234.533 21.1068C234.613 20.9788 234.677 20.8348 234.677 20.6588C234.677 20.2428 234.325 19.8908 233.893 19.8908C233.621 19.8908 233.365 20.0348 233.237 20.2428ZM227.893 20.8028C228.293 20.8028 228.661 21.1228 228.661 21.5868C228.661 22.0348 228.293 22.3868 227.893 22.3868C227.461 22.3868 227.077 22.0348 227.077 21.5868C227.077 21.1228 227.461 20.8028 227.893 20.8028ZM233.669 27.0428C232.581 27.0428 231.701 27.9068 231.701 29.0108C231.701 30.0988 232.581 30.9788 233.669 30.9788C234.773 30.9788 235.653 30.0988 235.653 29.0108C235.653 27.9068 234.773 27.0428 233.669 27.0428ZM233.669 28.2268C234.069 28.2268 234.437 28.5468 234.437 29.0108C234.437 29.4588 234.069 29.8108 233.669 29.8108C233.237 29.8108 232.853 29.4588 232.853 29.0108C232.853 28.5468 233.237 28.2268 233.669 28.2268Z" fill="white"/>
<defs>
<filter id="filter0_f" x="0.241821" y="62.7638" width="343" height="285.609" filterUnits="userSpaceOnUse" color-interpolation-filters="sRGB">
<feFlood flood-opacity="0" result="BackgroundImageFix"/>
<feBlend mode="normal" in="SourceGraphic" in2="BackgroundImageFix" result="shape"/>
<feGaussianBlur stdDeviation="7" result="effect1_foregroundBlur"/>
</filter>
<filter id="filter1_f" x="79.9819" y="70.1387" width="28.25" height="28.25" filterUnits="userSpaceOnUse" color-interpolation-filters="sRGB">
<feFlood flood-opacity="0" result="BackgroundImageFix"/>
<feBlend mode="normal" in="SourceGraphic" in2="BackgroundImageFix" result="shape"/>
<feGaussianBlur stdDeviation="5.5" result="effect1_foregroundBlur"/>
</filter>
<filter id="filter2_f" x="235.445" y="70.1387" width="28.25" height="28.25" filterUnits="userSpaceOnUse" color-interpolation-filters="sRGB">
<feFlood flood-opacity="0" result="BackgroundImageFix"/>
<feBlend mode="normal" in="SourceGraphic" in2="BackgroundImageFix" result="shape"/>
<feGaussianBlur stdDeviation="5.5" result="effect1_foregroundBlur"/>
</filter>
<filter id="filter3_f" x="12.7418" y="74.0137" width="318" height="260.609" filterUnits="userSpaceOnUse" color-interpolation-filters="sRGB">
<feFlood flood-opacity="0" result="BackgroundImageFix"/>
<feBlend mode="normal" in="SourceGraphic" in2="BackgroundImageFix" result="shape"/>
<feGaussianBlur stdDeviation="3" result="effect1_foregroundBlur"/>
</filter>
<filter id="filter4_f" x="88.2927" y="77.1387" width="11.75" height="11.75" filterUnits="userSpaceOnUse" color-interpolation-filters="sRGB">
<feFlood flood-opacity="0" result="BackgroundImageFix"/>
<feBlend mode="normal" in="SourceGraphic" in2="BackgroundImageFix" result="shape"/>
<feGaussianBlur stdDeviation="2" result="effect1_foregroundBlur"/>
</filter>
<filter id="filter5_f" x="243.567" y="77.1387" width="11.75" height="11.75" filterUnits="userSpaceOnUse" color-interpolation-filters="sRGB">
<feFlood flood-opacity="0" result="BackgroundImageFix"/>
<feBlend mode="normal" in="SourceGraphic" in2="BackgroundImageFix" result="shape"/>
<feGaussianBlur stdDeviation="2" result="effect1_foregroundBlur"/>
</filter>
<linearGradient id="paint0_linear" x1="286.753" y1="201.816" x2="50.3787" y2="202.052" gradientUnits="userSpaceOnUse">
<stop stop-color="#FF1640"/>
<stop offset="0.315399" stop-color="#FABA33"/>
<stop offset="0.573227" stop-color="#E9E031"/>
<stop offset="0.826995" stop-color="#45F273"/>
<stop offset="1" stop-color="#30FFE9"/>
</linearGradient>
<linearGradient id="paint1_linear" x1="286.753" y1="200.566" x2="50.3787" y2="200.802" gradientUnits="userSpaceOnUse">
<stop stop-color="#FF1640"/>
<stop offset="0.315399" stop-color="#FABA33"/>
<stop offset="0.573227" stop-color="#E9E031"/>
<stop offset="0.826995" stop-color="#45F273"/>
<stop offset="1" stop-color="#30FFE9"/>
</linearGradient>
</defs>
</svg>
