<svg width="344" height="349" viewBox="0 0 344 349" fill="none" xmlns="http://www.w3.org/2000/svg">
<g filter="url(#filter0_f)">
<path d="M51.7418 84.2638L51.7418 76.7638L51.7418 84.2638ZM314.242 114.264V296.872H329.242V114.264H314.242ZM291.742 319.372H51.7418V334.372H291.742V319.372ZM29.2418 296.872V114.264H14.2418V296.872H29.2418ZM51.7418 91.7638L94.1529 91.7638L94.1529 76.7638L51.7418 76.7638L51.7418 91.7638ZM249.451 91.7638H291.742V76.7638H249.451V91.7638ZM51.7418 319.372C39.3154 319.372 29.2418 309.299 29.2418 296.872H14.2418C14.2418 317.583 31.0312 334.372 51.7418 334.372V319.372ZM314.242 296.872C314.242 309.299 304.168 319.372 291.742 319.372V334.372C312.453 334.372 329.242 317.583 329.242 296.872H314.242ZM329.242 114.264C329.242 93.5531 312.452 76.7638 291.742 76.7638V91.7638C304.168 91.7638 314.242 101.837 314.242 114.264H329.242ZM29.2418 114.264C29.2418 101.837 39.3154 91.7638 51.7418 91.7638L51.7418 76.7638C31.0311 76.7638 14.2418 93.5532 14.2418 114.264H29.2418Z" fill="url(#paint0_linear)"/>
</g>
<g filter="url(#filter1_f)">
<circle cx="94.1069" cy="84.2637" r="3.125" fill="#48F272"/>
</g>
<g filter="url(#filter2_f)">
<circle cx="249.57" cy="84.2637" r="3.125" fill="#FD6461"/>
</g>
<g filter="url(#filter3_f)">
<path d="M51.7418 83.0137L51.7418 80.0137L51.7418 83.0137ZM318.742 113.014V295.622H324.742V113.014H318.742ZM291.742 322.622H51.7418V328.622H291.742V322.622ZM24.7418 295.622V113.014H18.7418V295.622H24.7418ZM51.7418 86.0137L94.1529 86.0137L94.1529 80.0137L51.7418 80.0137L51.7418 86.0137ZM249.451 86.0137H291.742V80.0137H249.451V86.0137ZM51.7418 322.622C36.8301 322.622 24.7418 310.534 24.7418 295.622H18.7418C18.7418 313.848 33.5164 328.622 51.7418 328.622V322.622ZM318.742 295.622C318.742 310.534 306.654 322.622 291.742 322.622V328.622C309.967 328.622 324.742 313.848 324.742 295.622H318.742ZM324.742 113.014C324.742 94.7883 309.967 80.0137 291.742 80.0137V86.0137C306.654 86.0137 318.742 98.102 318.742 113.014H324.742ZM24.7418 113.014C24.7418 98.102 36.8301 86.0137 51.7418 86.0137L51.7418 80.0137C33.5164 80.0137 18.7418 94.7883 18.7418 113.014H24.7418Z" fill="url(#paint1_linear)"/>
</g>
<g filter="url(#filter4_f)">
<circle cx="94.1677" cy="83.0137" r="1.875" fill="#48F272"/>
</g>
<g filter="url(#filter5_f)">
<circle cx="249.442" cy="83.0137" r="1.875" fill="#FD6461"/>
</g>
<path d="M51.7418 83.0137V82.0137V83.0137ZM320.742 113.014V295.622H322.742V113.014H320.742ZM291.742 324.622H51.7418V326.622H291.742V324.622ZM22.7418 295.622V113.014H20.7418V295.622H22.7418ZM51.7418 84.0137L94.1529 84.0137V82.0137L51.7418 82.0137V84.0137ZM249.451 84.0137H291.742V82.0137H249.451V84.0137ZM51.7418 324.622C35.7256 324.622 22.7418 311.639 22.7418 295.622H20.7418C20.7418 312.743 34.621 326.622 51.7418 326.622V324.622ZM320.742 295.622C320.742 311.639 307.758 324.622 291.742 324.622V326.622C308.863 326.622 322.742 312.743 322.742 295.622H320.742ZM322.742 113.014C322.742 95.8929 308.863 82.0137 291.742 82.0137V84.0137C307.758 84.0137 320.742 96.9974 320.742 113.014H322.742ZM22.7418 113.014C22.7418 96.9974 35.7256 84.0137 51.7418 84.0137V82.0137C34.621 82.0137 20.7418 95.8929 20.7418 113.014H22.7418Z" fill="white"/>
<circle cx="94.1677" cy="83.0137" r="1" fill="white"/>
<circle cx="249.57" cy="83.0137" r="1" fill="white"/>
<path d="M58.2618 159.957V176.925H54.1578V159.957H58.2618ZM69.5913 163.389C71.1273 163.389 72.3433 163.901 73.2393 164.925C74.1513 165.949 74.6073 167.357 74.6073 169.149V176.925H70.5033V169.629C70.5033 168.733 70.2633 168.037 69.7833 167.541C69.3193 167.029 68.6953 166.773 67.9113 166.773C67.0793 166.773 66.4153 167.037 65.9193 167.565C65.4393 168.093 65.1993 168.845 65.1993 169.821V176.925H61.0953V163.533H65.1993V165.981C65.5833 165.181 66.1513 164.549 66.9033 164.085C67.6713 163.621 68.5673 163.389 69.5913 163.389ZM83.3621 163.365C85.0901 163.365 86.5381 163.845 87.7061 164.805C88.8741 165.749 89.6101 167.053 89.9141 168.717H85.5701C85.4421 168.141 85.1781 167.693 84.7781 167.373C84.3781 167.053 83.8741 166.893 83.2661 166.893C82.5461 166.893 81.9541 167.181 81.4901 167.757C81.0261 168.317 80.7941 169.141 80.7941 170.229C80.7941 171.317 81.0261 172.149 81.4901 172.725C81.9541 173.285 82.5461 173.565 83.2661 173.565C83.8741 173.565 84.3781 173.405 84.7781 173.085C85.1781 172.765 85.4421 172.317 85.5701 171.741H89.9141C89.6101 173.405 88.8741 174.717 87.7061 175.677C86.5381 176.621 85.0901 177.093 83.3621 177.093C82.0501 177.093 80.8821 176.821 79.8581 176.277C78.8501 175.717 78.0581 174.917 77.4821 173.877C76.9061 172.837 76.6181 171.621 76.6181 170.229C76.6181 168.821 76.8981 167.605 77.4581 166.581C78.0341 165.541 78.8341 164.749 79.8581 164.205C80.8821 163.645 82.0501 163.365 83.3621 163.365ZM104.776 169.869C104.776 170.205 104.736 170.573 104.656 170.973H95.3683C95.4163 171.981 95.6723 172.709 96.1363 173.157C96.6003 173.589 97.1923 173.805 97.9123 173.805C98.5203 173.805 99.0243 173.653 99.4243 173.349C99.8243 173.045 100.088 172.653 100.216 172.173H104.56C104.384 173.117 104 173.965 103.408 174.717C102.816 175.453 102.064 176.037 101.152 176.469C100.24 176.885 99.2243 177.093 98.1043 177.093C96.7923 177.093 95.6243 176.821 94.6003 176.277C93.5923 175.717 92.8003 174.917 92.2243 173.877C91.6483 172.837 91.3603 171.621 91.3603 170.229C91.3603 168.821 91.6403 167.605 92.2003 166.581C92.7763 165.541 93.5763 164.749 94.6003 164.205C95.6243 163.645 96.7923 163.365 98.1043 163.365C99.4323 163.365 100.6 163.637 101.608 164.181C102.616 164.725 103.392 165.493 103.936 166.485C104.496 167.461 104.776 168.589 104.776 169.869ZM100.624 169.245C100.64 168.365 100.4 167.709 99.9043 167.277C99.4243 166.829 98.8243 166.605 98.1043 166.605C97.3523 166.605 96.7283 166.829 96.2323 167.277C95.7363 167.725 95.4563 168.381 95.3923 169.245H100.624ZM115.412 163.389C116.948 163.389 118.164 163.901 119.06 164.925C119.972 165.949 120.428 167.357 120.428 169.149V176.925H116.324V169.629C116.324 168.733 116.084 168.037 115.604 167.541C115.14 167.029 114.516 166.773 113.732 166.773C112.9 166.773 112.236 167.037 111.74 167.565C111.26 168.093 111.02 168.845 111.02 169.821V176.925H106.916V163.533H111.02V165.981C111.404 165.181 111.972 164.549 112.724 164.085C113.492 163.621 114.388 163.389 115.412 163.389ZM130.718 173.397V176.925H128.87C127.302 176.925 126.078 176.541 125.198 175.773C124.334 174.989 123.902 173.701 123.902 171.909V166.989H122.102V163.533H123.902V160.245H128.006V163.533H130.694V166.989H128.006V171.981C128.006 172.509 128.11 172.877 128.318 173.085C128.542 173.293 128.91 173.397 129.422 173.397H130.718ZM132.641 159.765C132.641 159.141 132.865 158.629 133.313 158.229C133.761 157.813 134.353 157.605 135.089 157.605C135.825 157.605 136.417 157.813 136.865 158.229C137.313 158.629 137.537 159.141 137.537 159.765C137.537 160.373 137.313 160.885 136.865 161.301C136.417 161.701 135.825 161.901 135.089 161.901C134.353 161.901 133.761 161.701 133.313 161.301C132.865 160.885 132.641 160.373 132.641 159.765ZM137.129 163.533V176.925H133.025V163.533H137.129ZM146.155 172.917L149.059 163.533H153.427L148.675 176.925H143.587L138.835 163.533H143.203L146.155 172.917ZM154.743 159.765C154.743 159.141 154.967 158.629 155.415 158.229C155.863 157.813 156.455 157.605 157.191 157.605C157.927 157.605 158.519 157.813 158.967 158.229C159.415 158.629 159.639 159.141 159.639 159.765C159.639 160.373 159.415 160.885 158.967 161.301C158.519 161.701 157.927 161.901 157.191 161.901C156.455 161.901 155.863 161.701 155.415 161.301C154.967 160.885 154.743 160.373 154.743 159.765ZM159.231 163.533V176.925H155.127V163.533H159.231ZM165.688 173.493H171.88V176.925H161.2V173.685L166.96 166.941H161.296V163.533H171.64V166.773L165.688 173.493ZM186.55 169.869C186.55 170.205 186.51 170.573 186.43 170.973H177.142C177.19 171.981 177.446 172.709 177.91 173.157C178.374 173.589 178.966 173.805 179.686 173.805C180.294 173.805 180.798 173.653 181.198 173.349C181.598 173.045 181.862 172.653 181.99 172.173H186.334C186.158 173.117 185.774 173.965 185.182 174.717C184.59 175.453 183.838 176.037 182.926 176.469C182.014 176.885 180.998 177.093 179.878 177.093C178.566 177.093 177.398 176.821 176.374 176.277C175.366 175.717 174.574 174.917 173.998 173.877C173.422 172.837 173.134 171.621 173.134 170.229C173.134 168.821 173.414 167.605 173.974 166.581C174.55 165.541 175.35 164.749 176.374 164.205C177.398 163.645 178.566 163.365 179.878 163.365C181.206 163.365 182.374 163.637 183.382 164.181C184.39 164.725 185.166 165.493 185.71 166.485C186.27 167.461 186.55 168.589 186.55 169.869ZM182.398 169.245C182.414 168.365 182.174 167.709 181.678 167.277C181.198 166.829 180.598 166.605 179.878 166.605C179.126 166.605 178.502 166.829 178.006 167.277C177.51 167.725 177.23 168.381 177.166 169.245H182.398ZM193.777 163.365C194.801 163.365 195.681 163.597 196.417 164.061C197.153 164.525 197.689 165.157 198.025 165.957V159.165H202.129V176.925H198.025V174.501C197.689 175.301 197.153 175.933 196.417 176.397C195.681 176.861 194.801 177.093 193.777 177.093C192.673 177.093 191.681 176.821 190.801 176.277C189.937 175.717 189.249 174.917 188.737 173.877C188.241 172.837 187.993 171.621 187.993 170.229C187.993 168.821 188.241 167.605 188.737 166.581C189.249 165.541 189.937 164.749 190.801 164.205C191.681 163.645 192.673 163.365 193.777 163.365ZM195.097 166.965C194.217 166.965 193.505 167.253 192.961 167.829C192.433 168.405 192.169 169.205 192.169 170.229C192.169 171.253 192.433 172.053 192.961 172.629C193.505 173.205 194.217 173.493 195.097 173.493C195.961 173.493 196.665 173.197 197.209 172.605C197.769 172.013 198.049 171.221 198.049 170.229C198.049 169.221 197.769 168.429 197.209 167.853C196.665 167.261 195.961 166.965 195.097 166.965ZM212.927 159.957L217.079 172.725L221.231 159.957H225.623L219.719 176.925H214.415L208.535 159.957H212.927ZM233.461 163.365C234.789 163.365 235.973 163.645 237.013 164.205C238.069 164.749 238.893 165.541 239.485 166.581C240.093 167.621 240.397 168.837 240.397 170.229C240.397 171.621 240.093 172.837 239.485 173.877C238.893 174.917 238.069 175.717 237.013 176.277C235.973 176.821 234.789 177.093 233.461 177.093C232.133 177.093 230.941 176.821 229.885 176.277C228.829 175.717 227.997 174.917 227.389 173.877C226.797 172.837 226.501 171.621 226.501 170.229C226.501 168.837 226.797 167.621 227.389 166.581C227.997 165.541 228.829 164.749 229.885 164.205C230.941 163.645 232.133 163.365 233.461 163.365ZM233.461 166.917C232.677 166.917 232.013 167.205 231.469 167.781C230.941 168.341 230.677 169.157 230.677 170.229C230.677 171.301 230.941 172.117 231.469 172.677C232.013 173.237 232.677 173.517 233.461 173.517C234.245 173.517 234.901 173.237 235.429 172.677C235.957 172.117 236.221 171.301 236.221 170.229C236.221 169.157 235.957 168.341 235.429 167.781C234.901 167.205 234.245 166.917 233.461 166.917ZM250.109 173.397V176.925H248.261C246.693 176.925 245.469 176.541 244.589 175.773C243.725 174.989 243.293 173.701 243.293 171.909V166.989H241.493V163.533H243.293V160.245H247.397V163.533H250.085V166.989H247.397V171.981C247.397 172.509 247.501 172.877 247.709 173.085C247.933 173.293 248.301 173.397 248.813 173.397H250.109ZM252.032 159.765C252.032 159.141 252.256 158.629 252.704 158.229C253.152 157.813 253.744 157.605 254.48 157.605C255.216 157.605 255.808 157.813 256.256 158.229C256.704 158.629 256.928 159.141 256.928 159.765C256.928 160.373 256.704 160.885 256.256 161.301C255.808 161.701 255.216 161.901 254.48 161.901C253.744 161.901 253.152 161.701 252.704 161.301C252.256 160.885 252.032 160.373 252.032 159.765ZM256.52 163.533V176.925H252.416V163.533H256.52ZM267.849 163.389C269.385 163.389 270.601 163.901 271.497 164.925C272.409 165.949 272.865 167.357 272.865 169.149V176.925H268.761V169.629C268.761 168.733 268.521 168.037 268.041 167.541C267.577 167.029 266.953 166.773 266.169 166.773C265.337 166.773 264.673 167.037 264.177 167.565C263.697 168.093 263.457 168.845 263.457 169.821V176.925H259.353V163.533H263.457V165.981C263.841 165.181 264.409 164.549 265.161 164.085C265.929 163.621 266.825 163.389 267.849 163.389ZM280.66 163.365C281.684 163.365 282.564 163.597 283.3 164.061C284.036 164.525 284.58 165.157 284.932 165.957V163.533H289.012V176.853C289.012 178.101 288.772 179.221 288.292 180.213C287.812 181.221 287.076 182.021 286.084 182.613C285.092 183.205 283.86 183.501 282.388 183.501C280.372 183.501 278.756 183.021 277.54 182.061C276.34 181.117 275.62 179.829 275.38 178.197H279.436C279.564 178.741 279.852 179.165 280.3 179.469C280.764 179.773 281.364 179.925 282.1 179.925C282.948 179.925 283.628 179.677 284.14 179.181C284.668 178.701 284.932 177.925 284.932 176.853V174.501C284.58 175.301 284.036 175.933 283.3 176.397C282.564 176.861 281.684 177.093 280.66 177.093C279.556 177.093 278.564 176.821 277.684 176.277C276.82 175.717 276.132 174.917 275.62 173.877C275.124 172.837 274.876 171.621 274.876 170.229C274.876 168.821 275.124 167.605 275.62 166.581C276.132 165.541 276.82 164.749 277.684 164.205C278.564 163.645 279.556 163.365 280.66 163.365ZM281.98 166.965C281.1 166.965 280.388 167.253 279.844 167.829C279.316 168.405 279.052 169.205 279.052 170.229C279.052 171.253 279.316 172.053 279.844 172.629C280.388 173.205 281.1 173.493 281.98 173.493C282.844 173.493 283.548 173.197 284.092 172.605C284.652 172.013 284.932 171.221 284.932 170.229C284.932 169.221 284.652 168.429 284.092 167.853C283.548 167.261 282.844 166.965 281.98 166.965Z" fill="white"/>
<path d="M56.8751 204.474V209.178H55.7391V197.898H59.1151C60.3844 197.898 61.3284 198.192 61.9471 198.778C62.5764 199.365 62.8911 200.17 62.8911 201.194C62.8911 202.24 62.5657 203.05 61.9151 203.626C61.2751 204.192 60.3417 204.474 59.1151 204.474H56.8751ZM59.0191 203.514C59.9897 203.514 60.6884 203.317 61.1151 202.922C61.5417 202.517 61.7551 201.941 61.7551 201.194C61.7551 200.426 61.5417 199.845 61.1151 199.45C60.6884 199.045 59.9897 198.842 59.0191 198.842H56.8751V203.514H59.0191ZM68.3409 200.33C69.2263 200.33 69.9783 200.56 70.5969 201.018C71.2263 201.477 71.6583 202.085 71.8929 202.842V200.442H72.9969V209.178H71.8929V206.778C71.6583 207.536 71.2263 208.144 70.5969 208.602C69.9783 209.061 69.2263 209.29 68.3409 209.29C67.5516 209.29 66.8423 209.109 66.2129 208.746C65.5943 208.384 65.1089 207.866 64.7569 207.194C64.4156 206.512 64.2449 205.717 64.2449 204.81C64.2449 203.893 64.4156 203.098 64.7569 202.426C65.1089 201.744 65.5943 201.226 66.2129 200.874C66.8316 200.512 67.5409 200.33 68.3409 200.33ZM68.6289 201.322C67.6476 201.322 66.8583 201.637 66.2609 202.266C65.6743 202.885 65.3809 203.733 65.3809 204.81C65.3809 205.888 65.6743 206.741 66.2609 207.37C66.8583 207.989 67.6476 208.298 68.6289 208.298C69.2476 208.298 69.8023 208.154 70.2929 207.866C70.7943 207.578 71.1836 207.173 71.4609 206.65C71.7489 206.117 71.8929 205.504 71.8929 204.81C71.8929 204.117 71.7489 203.509 71.4609 202.986C71.1836 202.453 70.7943 202.042 70.2929 201.754C69.8023 201.466 69.2476 201.322 68.6289 201.322ZM76.5626 202.25C76.8186 201.621 77.2292 201.136 77.7946 200.794C78.3599 200.453 79.0479 200.282 79.8586 200.282V201.498H79.4906C78.6479 201.498 77.9492 201.728 77.3946 202.186C76.8399 202.634 76.5626 203.37 76.5626 204.394V209.178H75.4266V200.442H76.5626V202.25ZM85.3164 208.186V209.178H84.2764C83.4338 209.178 82.8044 208.981 82.3884 208.586C81.9724 208.181 81.7644 207.504 81.7644 206.554V201.418H80.4364V200.442H81.7644V198.234H82.9004V200.442H85.3004V201.418H82.9004V206.57C82.9004 207.189 83.0124 207.616 83.2364 207.85C83.4604 208.074 83.8551 208.186 84.4204 208.186H85.3164ZM86.9049 197.85C86.9049 197.616 86.9796 197.429 87.1289 197.29C87.2889 197.152 87.4916 197.082 87.7369 197.082C87.9823 197.082 88.1796 197.152 88.3289 197.29C88.4783 197.429 88.5529 197.616 88.5529 197.85C88.5529 198.074 88.4783 198.256 88.3289 198.394C88.1796 198.533 87.9823 198.602 87.7369 198.602C87.4916 198.602 87.2889 198.533 87.1289 198.394C86.9796 198.256 86.9049 198.074 86.9049 197.85ZM88.2969 200.442V209.178H87.1609V200.442H88.2969ZM94.5794 200.33C95.6888 200.33 96.6061 200.624 97.3314 201.21C98.0674 201.797 98.5154 202.576 98.6754 203.546H97.5074C97.3901 202.853 97.0648 202.309 96.5314 201.914C95.9981 201.509 95.3421 201.306 94.5634 201.306C93.9981 201.306 93.4754 201.434 92.9954 201.69C92.5261 201.946 92.1474 202.341 91.8594 202.874C91.5821 203.397 91.4434 204.042 91.4434 204.81C91.4434 205.578 91.5821 206.229 91.8594 206.762C92.1474 207.285 92.5261 207.674 92.9954 207.93C93.4754 208.186 93.9981 208.314 94.5634 208.314C95.3421 208.314 95.9981 208.117 96.5314 207.722C97.0648 207.317 97.3901 206.768 97.5074 206.074H98.6754C98.5154 207.045 98.0674 207.824 97.3314 208.41C96.6061 208.997 95.6888 209.29 94.5794 209.29C93.7474 209.29 93.0061 209.114 92.3554 208.762C91.7154 208.4 91.2141 207.882 90.8514 207.21C90.4888 206.528 90.3074 205.728 90.3074 204.81C90.3074 203.893 90.4888 203.098 90.8514 202.426C91.2141 201.744 91.7154 201.226 92.3554 200.874C93.0061 200.512 93.7474 200.33 94.5794 200.33ZM100.436 197.85C100.436 197.616 100.511 197.429 100.66 197.29C100.82 197.152 101.023 197.082 101.268 197.082C101.514 197.082 101.711 197.152 101.86 197.29C102.01 197.429 102.084 197.616 102.084 197.85C102.084 198.074 102.01 198.256 101.86 198.394C101.711 198.533 101.514 198.602 101.268 198.602C101.023 198.602 100.82 198.533 100.66 198.394C100.511 198.256 100.436 198.074 100.436 197.85ZM101.828 200.442V209.178H100.692V200.442H101.828ZM108.927 200.33C109.727 200.33 110.431 200.512 111.039 200.874C111.657 201.226 112.137 201.744 112.479 202.426C112.831 203.098 113.007 203.893 113.007 204.81C113.007 205.717 112.831 206.512 112.479 207.194C112.137 207.866 111.657 208.384 111.039 208.746C110.42 209.109 109.716 209.29 108.927 209.29C108.031 209.29 107.273 209.061 106.655 208.602C106.036 208.144 105.609 207.536 105.375 206.778V213.306H104.255V200.442H105.375V202.842C105.609 202.085 106.036 201.477 106.655 201.018C107.273 200.56 108.031 200.33 108.927 200.33ZM108.623 201.322C108.004 201.322 107.444 201.466 106.943 201.754C106.452 202.042 106.068 202.453 105.791 202.986C105.513 203.509 105.375 204.117 105.375 204.81C105.375 205.504 105.513 206.117 105.791 206.65C106.068 207.173 106.452 207.578 106.943 207.866C107.444 208.154 108.004 208.298 108.623 208.298C109.615 208.298 110.404 207.989 110.991 207.37C111.577 206.741 111.871 205.888 111.871 204.81C111.871 203.733 111.577 202.885 110.991 202.266C110.404 201.637 109.615 201.322 108.623 201.322ZM118.7 200.33C119.586 200.33 120.338 200.56 120.956 201.018C121.586 201.477 122.018 202.085 122.252 202.842V200.442H123.356V209.178H122.252V206.778C122.018 207.536 121.586 208.144 120.956 208.602C120.338 209.061 119.586 209.29 118.7 209.29C117.911 209.29 117.202 209.109 116.572 208.746C115.954 208.384 115.468 207.866 115.116 207.194C114.775 206.512 114.604 205.717 114.604 204.81C114.604 203.893 114.775 203.098 115.116 202.426C115.468 201.744 115.954 201.226 116.572 200.874C117.191 200.512 117.9 200.33 118.7 200.33ZM118.988 201.322C118.007 201.322 117.218 201.637 116.62 202.266C116.034 202.885 115.74 203.733 115.74 204.81C115.74 205.888 116.034 206.741 116.62 207.37C117.218 207.989 118.007 208.298 118.988 208.298C119.607 208.298 120.162 208.154 120.652 207.866C121.154 207.578 121.543 207.173 121.82 206.65C122.108 206.117 122.252 205.504 122.252 204.81C122.252 204.117 122.108 203.509 121.82 202.986C121.543 202.453 121.154 202.042 120.652 201.754C120.162 201.466 119.607 201.322 118.988 201.322ZM129.754 208.186V209.178H128.714C127.871 209.178 127.242 208.981 126.826 208.586C126.41 208.181 126.202 207.504 126.202 206.554V201.418H124.874V200.442H126.202V198.234H127.338V200.442H129.738V201.418H127.338V206.57C127.338 207.189 127.45 207.616 127.674 207.85C127.898 208.074 128.293 208.186 128.858 208.186H129.754ZM131.342 197.85C131.342 197.616 131.417 197.429 131.566 197.29C131.726 197.152 131.929 197.082 132.174 197.082C132.42 197.082 132.617 197.152 132.766 197.29C132.916 197.429 132.99 197.616 132.99 197.85C132.99 198.074 132.916 198.256 132.766 198.394C132.617 198.533 132.42 198.602 132.174 198.602C131.929 198.602 131.726 198.533 131.566 198.394C131.417 198.256 131.342 198.074 131.342 197.85ZM132.734 200.442V209.178H131.598V200.442H132.734ZM139.113 200.33C139.945 200.33 140.686 200.512 141.337 200.874C141.998 201.226 142.516 201.744 142.889 202.426C143.262 203.098 143.449 203.893 143.449 204.81C143.449 205.728 143.262 206.522 142.889 207.194C142.516 207.866 141.998 208.384 141.337 208.746C140.686 209.109 139.945 209.29 139.113 209.29C138.281 209.29 137.534 209.109 136.873 208.746C136.212 208.384 135.689 207.866 135.305 207.194C134.932 206.512 134.745 205.717 134.745 204.81C134.745 203.893 134.932 203.098 135.305 202.426C135.689 201.744 136.212 201.226 136.873 200.874C137.534 200.512 138.281 200.33 139.113 200.33ZM139.113 201.306C138.537 201.306 138.004 201.434 137.513 201.69C137.022 201.946 136.628 202.341 136.329 202.874C136.03 203.397 135.881 204.042 135.881 204.81C135.881 205.578 136.03 206.224 136.329 206.746C136.628 207.269 137.022 207.658 137.513 207.914C138.004 208.17 138.537 208.298 139.113 208.298C139.678 208.298 140.201 208.17 140.681 207.914C141.172 207.658 141.566 207.269 141.865 206.746C142.164 206.224 142.313 205.578 142.313 204.81C142.313 204.042 142.164 203.397 141.865 202.874C141.566 202.341 141.172 201.946 140.681 201.69C140.201 201.434 139.678 201.306 139.113 201.306ZM149.826 200.282C150.839 200.282 151.66 200.608 152.29 201.258C152.93 201.898 153.25 202.842 153.25 204.09V209.178H152.146V204.17C152.146 203.221 151.906 202.496 151.426 201.994C150.946 201.482 150.29 201.226 149.458 201.226C148.583 201.226 147.884 201.509 147.362 202.074C146.85 202.629 146.594 203.45 146.594 204.538V209.178H145.458V200.442H146.594V202.586C146.818 201.84 147.223 201.269 147.81 200.874C148.396 200.48 149.068 200.282 149.826 200.282ZM171.578 200.442L169.002 209.178H167.818L165.194 201.754L162.538 209.178H161.37L158.794 200.442H159.93L162.01 208.01L164.634 200.442H165.786L168.426 208.01L170.49 200.442H171.578ZM172.764 197.85C172.764 197.616 172.839 197.429 172.988 197.29C173.148 197.152 173.351 197.082 173.596 197.082C173.842 197.082 174.039 197.152 174.188 197.29C174.338 197.429 174.412 197.616 174.412 197.85C174.412 198.074 174.338 198.256 174.188 198.394C174.039 198.533 173.842 198.602 173.596 198.602C173.351 198.602 173.148 198.533 172.988 198.394C172.839 198.256 172.764 198.074 172.764 197.85ZM174.156 200.442V209.178H173.02V200.442H174.156ZM177.719 197.338V209.178H176.583V197.338H177.719ZM181.281 197.338V209.178H180.145V197.338H181.281ZM192.536 200.33C193.336 200.33 194.04 200.512 194.648 200.874C195.267 201.226 195.747 201.744 196.088 202.426C196.44 203.098 196.616 203.893 196.616 204.81C196.616 205.717 196.44 206.512 196.088 207.194C195.747 207.866 195.267 208.384 194.648 208.746C194.029 209.109 193.325 209.29 192.536 209.29C191.64 209.29 190.883 209.061 190.264 208.602C189.645 208.144 189.219 207.536 188.984 206.778V209.178H187.864V197.338H188.984V202.842C189.219 202.085 189.645 201.477 190.264 201.018C190.883 200.56 191.64 200.33 192.536 200.33ZM192.232 201.322C191.613 201.322 191.053 201.466 190.552 201.754C190.061 202.042 189.677 202.453 189.4 202.986C189.123 203.509 188.984 204.117 188.984 204.81C188.984 205.504 189.123 206.117 189.4 206.65C189.677 207.173 190.061 207.578 190.552 207.866C191.053 208.154 191.613 208.298 192.232 208.298C193.224 208.298 194.013 207.989 194.6 207.37C195.187 206.741 195.48 205.888 195.48 204.81C195.48 203.733 195.187 202.885 194.6 202.266C194.013 201.637 193.224 201.322 192.232 201.322ZM202.438 208.362C203.227 208.362 203.888 208.165 204.422 207.77C204.955 207.376 205.275 206.842 205.382 206.17H206.566C206.406 207.098 205.963 207.85 205.238 208.426C204.512 209.002 203.595 209.29 202.486 209.29C201.654 209.29 200.912 209.114 200.262 208.762C199.622 208.4 199.12 207.882 198.758 207.21C198.395 206.528 198.214 205.728 198.214 204.81C198.214 203.893 198.395 203.098 198.758 202.426C199.12 201.744 199.622 201.226 200.262 200.874C200.912 200.512 201.654 200.33 202.486 200.33C203.339 200.33 204.075 200.512 204.694 200.874C205.323 201.226 205.798 201.701 206.118 202.298C206.448 202.896 206.614 203.546 206.614 204.25C206.614 204.549 206.592 204.821 206.55 205.066H199.318C199.328 205.802 199.478 206.421 199.766 206.922C200.064 207.413 200.448 207.776 200.918 208.01C201.387 208.245 201.894 208.362 202.438 208.362ZM202.486 201.242C201.92 201.242 201.403 201.36 200.934 201.594C200.464 201.829 200.08 202.192 199.782 202.682C199.494 203.162 199.339 203.765 199.318 204.49H205.494C205.536 203.776 205.419 203.173 205.142 202.682C204.864 202.192 204.491 201.829 204.022 201.594C203.552 201.36 203.04 201.242 202.486 201.242ZM213.922 202.25C214.178 201.621 214.589 201.136 215.154 200.794C215.719 200.453 216.407 200.282 217.218 200.282V201.498H216.85C216.007 201.498 215.309 201.728 214.754 202.186C214.199 202.634 213.922 203.37 213.922 204.394V209.178H212.786V200.442H213.922V202.25ZM222.516 208.362C223.305 208.362 223.966 208.165 224.5 207.77C225.033 207.376 225.353 206.842 225.46 206.17H226.644C226.484 207.098 226.041 207.85 225.316 208.426C224.59 209.002 223.673 209.29 222.564 209.29C221.732 209.29 220.99 209.114 220.34 208.762C219.7 208.4 219.198 207.882 218.836 207.21C218.473 206.528 218.292 205.728 218.292 204.81C218.292 203.893 218.473 203.098 218.836 202.426C219.198 201.744 219.7 201.226 220.34 200.874C220.99 200.512 221.732 200.33 222.564 200.33C223.417 200.33 224.153 200.512 224.772 200.874C225.401 201.226 225.876 201.701 226.196 202.298C226.526 202.896 226.692 203.546 226.692 204.25C226.692 204.549 226.67 204.821 226.628 205.066H219.396C219.406 205.802 219.556 206.421 219.844 206.922C220.142 207.413 220.526 207.776 220.996 208.01C221.465 208.245 221.972 208.362 222.516 208.362ZM222.564 201.242C221.998 201.242 221.481 201.36 221.012 201.594C220.542 201.829 220.158 202.192 219.86 202.682C219.572 203.162 219.417 203.765 219.396 204.49H225.572C225.614 203.776 225.497 203.173 225.22 202.682C224.942 202.192 224.569 201.829 224.1 201.594C223.63 201.36 223.118 201.242 222.564 201.242ZM240.516 200.442L237.94 209.178H236.756L234.132 201.754L231.476 209.178H230.308L227.732 200.442H228.868L230.948 208.01L233.572 200.442H234.724L237.364 208.01L239.428 200.442H240.516ZM245.638 200.33C246.523 200.33 247.275 200.56 247.894 201.018C248.523 201.477 248.955 202.085 249.19 202.842V200.442H250.294V209.178H249.19V206.778C248.955 207.536 248.523 208.144 247.894 208.602C247.275 209.061 246.523 209.29 245.638 209.29C244.848 209.29 244.139 209.109 243.51 208.746C242.891 208.384 242.406 207.866 242.054 207.194C241.712 206.512 241.542 205.717 241.542 204.81C241.542 203.893 241.712 203.098 242.054 202.426C242.406 201.744 242.891 201.226 243.51 200.874C244.128 200.512 244.838 200.33 245.638 200.33ZM245.926 201.322C244.944 201.322 244.155 201.637 243.558 202.266C242.971 202.885 242.678 203.733 242.678 204.81C242.678 205.888 242.971 206.741 243.558 207.37C244.155 207.989 244.944 208.298 245.926 208.298C246.544 208.298 247.099 208.154 247.59 207.866C248.091 207.578 248.48 207.173 248.758 206.65C249.046 206.117 249.19 205.504 249.19 204.81C249.19 204.117 249.046 203.509 248.758 202.986C248.48 202.453 248.091 202.042 247.59 201.754C247.099 201.466 246.544 201.322 245.926 201.322ZM253.859 202.25C254.115 201.621 254.526 201.136 255.091 200.794C255.657 200.453 256.345 200.282 257.155 200.282V201.498H256.787C255.945 201.498 255.246 201.728 254.691 202.186C254.137 202.634 253.859 203.37 253.859 204.394V209.178H252.723V200.442H253.859V202.25ZM262.325 200.33C263.211 200.33 263.963 200.56 264.581 201.018C265.211 201.477 265.637 202.085 265.861 202.842V197.338H266.981V209.178H265.861V206.778C265.637 207.536 265.211 208.144 264.581 208.602C263.963 209.061 263.211 209.29 262.325 209.29C261.536 209.29 260.827 209.109 260.197 208.746C259.579 208.384 259.093 207.866 258.741 207.194C258.4 206.512 258.229 205.717 258.229 204.81C258.229 203.893 258.4 203.098 258.741 202.426C259.093 201.744 259.579 201.226 260.197 200.874C260.816 200.512 261.525 200.33 262.325 200.33ZM262.613 201.322C261.632 201.322 260.843 201.637 260.245 202.266C259.659 202.885 259.365 203.733 259.365 204.81C259.365 205.888 259.659 206.741 260.245 207.37C260.843 207.989 261.632 208.298 262.613 208.298C263.232 208.298 263.787 208.154 264.277 207.866C264.779 207.578 265.168 207.173 265.445 206.65C265.733 206.117 265.877 205.504 265.877 204.81C265.877 204.117 265.733 203.509 265.445 202.986C265.168 202.453 264.779 202.042 264.277 201.754C263.787 201.466 263.232 201.322 262.613 201.322ZM273.219 208.362C274.008 208.362 274.67 208.165 275.203 207.77C275.736 207.376 276.056 206.842 276.163 206.17H277.347C277.187 207.098 276.744 207.85 276.019 208.426C275.294 209.002 274.376 209.29 273.267 209.29C272.435 209.29 271.694 209.114 271.043 208.762C270.403 208.4 269.902 207.882 269.539 207.21C269.176 206.528 268.995 205.728 268.995 204.81C268.995 203.893 269.176 203.098 269.539 202.426C269.902 201.744 270.403 201.226 271.043 200.874C271.694 200.512 272.435 200.33 273.267 200.33C274.12 200.33 274.856 200.512 275.475 200.874C276.104 201.226 276.579 201.701 276.899 202.298C277.23 202.896 277.395 203.546 277.395 204.25C277.395 204.549 277.374 204.821 277.331 205.066H270.099C270.11 205.802 270.259 206.421 270.547 206.922C270.846 207.413 271.23 207.776 271.699 208.01C272.168 208.245 272.675 208.362 273.219 208.362ZM273.267 201.242C272.702 201.242 272.184 201.36 271.715 201.594C271.246 201.829 270.862 202.192 270.563 202.682C270.275 203.162 270.12 203.765 270.099 204.49H276.275C276.318 203.776 276.2 203.173 275.923 202.682C275.646 202.192 275.272 201.829 274.803 201.594C274.334 201.36 273.822 201.242 273.267 201.242ZM283.091 200.33C283.976 200.33 284.728 200.56 285.347 201.018C285.976 201.477 286.403 202.085 286.627 202.842V197.338H287.747V209.178H286.627V206.778C286.403 207.536 285.976 208.144 285.347 208.602C284.728 209.061 283.976 209.29 283.091 209.29C282.302 209.29 281.592 209.109 280.963 208.746C280.344 208.384 279.859 207.866 279.507 207.194C279.166 206.512 278.995 205.717 278.995 204.81C278.995 203.893 279.166 203.098 279.507 202.426C279.859 201.744 280.344 201.226 280.963 200.874C281.582 200.512 282.291 200.33 283.091 200.33ZM283.379 201.322C282.398 201.322 281.608 201.637 281.011 202.266C280.424 202.885 280.131 203.733 280.131 204.81C280.131 205.888 280.424 206.741 281.011 207.37C281.608 207.989 282.398 208.298 283.379 208.298C283.998 208.298 284.552 208.154 285.043 207.866C285.544 207.578 285.934 207.173 286.211 206.65C286.499 206.117 286.643 205.504 286.643 204.81C286.643 204.117 286.499 203.509 286.211 202.986C285.934 202.453 285.544 202.042 285.043 201.754C284.552 201.466 283.998 201.322 283.379 201.322ZM79.2658 224.442L76.6898 233.178H75.5058L72.8818 225.754L70.2258 233.178H69.0578L66.4818 224.442H67.6178L69.6978 232.01L72.3218 224.442H73.4738L76.1138 232.01L78.1778 224.442H79.2658ZM80.4518 221.85C80.4518 221.616 80.5265 221.429 80.6758 221.29C80.8358 221.152 81.0385 221.082 81.2838 221.082C81.5292 221.082 81.7265 221.152 81.8758 221.29C82.0252 221.429 82.0998 221.616 82.0998 221.85C82.0998 222.074 82.0252 222.256 81.8758 222.394C81.7265 222.533 81.5292 222.602 81.2838 222.602C81.0385 222.602 80.8358 222.533 80.6758 222.394C80.5265 222.256 80.4518 222.074 80.4518 221.85ZM81.8438 224.442V233.178H80.7078V224.442H81.8438ZM88.2383 232.186V233.178H87.1983C86.3557 233.178 85.7263 232.981 85.3103 232.586C84.8943 232.181 84.6863 231.504 84.6863 230.554V225.418H83.3583V224.442H84.6863V222.234H85.8223V224.442H88.2223V225.418H85.8223V230.57C85.8223 231.189 85.9343 231.616 86.1583 231.85C86.3823 232.074 86.777 232.186 87.3423 232.186H88.2383ZM94.4508 224.282C95.4642 224.282 96.2855 224.608 96.9148 225.258C97.5548 225.898 97.8748 226.842 97.8748 228.09V233.178H96.7708V228.17C96.7708 227.221 96.5308 226.496 96.0508 225.994C95.5708 225.482 94.9148 225.226 94.0828 225.226C93.2082 225.226 92.5095 225.509 91.9868 226.074C91.4748 226.629 91.2188 227.45 91.2188 228.538V233.178H90.0828V221.338H91.2188V226.586C91.4428 225.84 91.8482 225.269 92.4348 224.874C93.0215 224.48 93.6935 224.282 94.4508 224.282ZM108.763 224.282C109.777 224.282 110.598 224.608 111.227 225.258C111.867 225.898 112.187 226.842 112.187 228.09V233.178H111.083V228.17C111.083 227.221 110.843 226.496 110.363 225.994C109.883 225.482 109.227 225.226 108.395 225.226C107.521 225.226 106.822 225.509 106.299 226.074C105.787 226.629 105.531 227.45 105.531 228.538V233.178H104.395V221.338H105.531V226.586C105.755 225.84 106.161 225.269 106.747 224.874C107.334 224.48 108.006 224.282 108.763 224.282ZM114.296 221.85C114.296 221.616 114.37 221.429 114.52 221.29C114.68 221.152 114.882 221.082 115.128 221.082C115.373 221.082 115.57 221.152 115.72 221.29C115.869 221.429 115.944 221.616 115.944 221.85C115.944 222.074 115.869 222.256 115.72 222.394C115.57 222.533 115.373 222.602 115.128 222.602C114.882 222.602 114.68 222.533 114.52 222.394C114.37 222.256 114.296 222.074 114.296 221.85ZM115.688 224.442V233.178H114.552V224.442H115.688ZM121.794 224.33C122.679 224.33 123.431 224.56 124.05 225.018C124.679 225.477 125.111 226.085 125.346 226.842V224.442H126.45V233.386C126.45 234.197 126.279 234.906 125.938 235.514C125.597 236.133 125.122 236.608 124.514 236.938C123.906 237.28 123.213 237.45 122.434 237.45C121.293 237.45 120.354 237.173 119.618 236.618C118.893 236.074 118.418 235.333 118.194 234.394H119.314C119.506 235.034 119.858 235.541 120.37 235.914C120.893 236.288 121.559 236.474 122.37 236.474C122.925 236.474 123.426 236.352 123.874 236.106C124.333 235.872 124.69 235.52 124.946 235.05C125.213 234.581 125.346 234.026 125.346 233.386V230.778C125.111 231.536 124.679 232.144 124.05 232.602C123.431 233.061 122.679 233.29 121.794 233.29C121.005 233.29 120.295 233.109 119.666 232.746C119.047 232.384 118.562 231.866 118.21 231.194C117.869 230.512 117.698 229.717 117.698 228.81C117.698 227.893 117.869 227.098 118.21 226.426C118.562 225.744 119.047 225.226 119.666 224.874C120.285 224.512 120.994 224.33 121.794 224.33ZM122.082 225.322C121.101 225.322 120.311 225.637 119.714 226.266C119.127 226.885 118.834 227.733 118.834 228.81C118.834 229.888 119.127 230.741 119.714 231.37C120.311 231.989 121.101 232.298 122.082 232.298C122.701 232.298 123.255 232.154 123.746 231.866C124.247 231.578 124.637 231.173 124.914 230.65C125.202 230.117 125.346 229.504 125.346 228.81C125.346 228.117 125.202 227.509 124.914 226.986C124.637 226.453 124.247 226.042 123.746 225.754C123.255 225.466 122.701 225.322 122.082 225.322ZM133.248 224.282C134.261 224.282 135.082 224.608 135.712 225.258C136.352 225.898 136.672 226.842 136.672 228.09V233.178H135.568V228.17C135.568 227.221 135.328 226.496 134.848 225.994C134.368 225.482 133.712 225.226 132.88 225.226C132.005 225.226 131.306 225.509 130.784 226.074C130.272 226.629 130.016 227.45 130.016 228.538V233.178H128.88V221.338H130.016V226.586C130.24 225.84 130.645 225.269 131.232 224.874C131.818 224.48 132.49 224.282 133.248 224.282ZM142.844 232.362C143.633 232.362 144.295 232.165 144.828 231.77C145.361 231.376 145.681 230.842 145.788 230.17H146.972C146.812 231.098 146.369 231.85 145.644 232.426C144.919 233.002 144.001 233.29 142.892 233.29C142.06 233.29 141.319 233.114 140.668 232.762C140.028 232.4 139.527 231.882 139.164 231.21C138.801 230.528 138.62 229.728 138.62 228.81C138.62 227.893 138.801 227.098 139.164 226.426C139.527 225.744 140.028 225.226 140.668 224.874C141.319 224.512 142.06 224.33 142.892 224.33C143.745 224.33 144.481 224.512 145.1 224.874C145.729 225.226 146.204 225.701 146.524 226.298C146.855 226.896 147.02 227.546 147.02 228.25C147.02 228.549 146.999 228.821 146.956 229.066H139.724C139.735 229.802 139.884 230.421 140.172 230.922C140.471 231.413 140.855 231.776 141.324 232.01C141.793 232.245 142.3 232.362 142.844 232.362ZM142.892 225.242C142.327 225.242 141.809 225.36 141.34 225.594C140.871 225.829 140.487 226.192 140.188 226.682C139.9 227.162 139.745 227.765 139.724 228.49H145.9C145.943 227.776 145.825 227.173 145.548 226.682C145.271 226.192 144.897 225.829 144.428 225.594C143.959 225.36 143.447 225.242 142.892 225.242ZM150.172 226.25C150.428 225.621 150.839 225.136 151.404 224.794C151.969 224.453 152.657 224.282 153.468 224.282V225.498H153.1C152.257 225.498 151.559 225.728 151.004 226.186C150.449 226.634 150.172 227.37 150.172 228.394V233.178H149.036V224.442H150.172V226.25ZM165.626 230.426H160.49L159.466 233.178H158.266L162.426 222.154H163.69L167.85 233.178H166.634L165.626 230.426ZM165.29 229.53L163.066 223.45L160.81 229.53H165.29ZM170.547 228.474V233.178H169.411V221.898H172.787C174.056 221.898 175 222.192 175.619 222.778C176.248 223.365 176.563 224.17 176.563 225.194C176.563 226.24 176.238 227.05 175.587 227.626C174.947 228.192 174.014 228.474 172.787 228.474H170.547ZM172.691 227.514C173.662 227.514 174.36 227.317 174.787 226.922C175.214 226.517 175.427 225.941 175.427 225.194C175.427 224.426 175.214 223.845 174.787 223.45C174.36 223.045 173.662 222.842 172.691 222.842H170.547V227.514H172.691ZM185.901 221.898L182.269 228.778V233.178H181.133V228.778L177.485 221.898H178.781L181.693 227.578L184.605 221.898H185.901ZM191.87 224.442L194.91 231.722L197.71 224.442H198.958L193.822 237.306H192.542L194.302 233.082L190.622 224.442H191.87ZM200.124 221.85C200.124 221.616 200.198 221.429 200.348 221.29C200.508 221.152 200.71 221.082 200.956 221.082C201.201 221.082 201.398 221.152 201.548 221.29C201.697 221.429 201.772 221.616 201.772 221.85C201.772 222.074 201.697 222.256 201.548 222.394C201.398 222.533 201.201 222.602 200.956 222.602C200.71 222.602 200.508 222.533 200.348 222.394C200.198 222.256 200.124 222.074 200.124 221.85ZM201.516 224.442V233.178H200.38V224.442H201.516ZM207.75 232.362C208.54 232.362 209.201 232.165 209.734 231.77C210.268 231.376 210.588 230.842 210.694 230.17H211.878C211.718 231.098 211.276 231.85 210.55 232.426C209.825 233.002 208.908 233.29 207.798 233.29C206.966 233.29 206.225 233.114 205.574 232.762C204.934 232.4 204.433 231.882 204.07 231.21C203.708 230.528 203.526 229.728 203.526 228.81C203.526 227.893 203.708 227.098 204.07 226.426C204.433 225.744 204.934 225.226 205.574 224.874C206.225 224.512 206.966 224.33 207.798 224.33C208.652 224.33 209.388 224.512 210.006 224.874C210.636 225.226 211.11 225.701 211.43 226.298C211.761 226.896 211.926 227.546 211.926 228.25C211.926 228.549 211.905 228.821 211.862 229.066H204.63C204.641 229.802 204.79 230.421 205.078 230.922C205.377 231.413 205.761 231.776 206.23 232.01C206.7 232.245 207.206 232.362 207.75 232.362ZM207.798 225.242C207.233 225.242 206.716 225.36 206.246 225.594C205.777 225.829 205.393 226.192 205.094 226.682C204.806 227.162 204.652 227.765 204.63 228.49H210.806C210.849 227.776 210.732 227.173 210.454 226.682C210.177 226.192 209.804 225.829 209.334 225.594C208.865 225.36 208.353 225.242 207.798 225.242ZM215.078 221.338V233.178H213.942V221.338H215.078ZM221.185 224.33C222.07 224.33 222.822 224.56 223.441 225.018C224.07 225.477 224.497 226.085 224.721 226.842V221.338H225.841V233.178H224.721V230.778C224.497 231.536 224.07 232.144 223.441 232.602C222.822 233.061 222.07 233.29 221.185 233.29C220.395 233.29 219.686 233.109 219.057 232.746C218.438 232.384 217.953 231.866 217.601 231.194C217.259 230.512 217.089 229.717 217.089 228.81C217.089 227.893 217.259 227.098 217.601 226.426C217.953 225.744 218.438 225.226 219.057 224.874C219.675 224.512 220.385 224.33 221.185 224.33ZM221.473 225.322C220.491 225.322 219.702 225.637 219.105 226.266C218.518 226.885 218.225 227.733 218.225 228.81C218.225 229.888 218.518 230.741 219.105 231.37C219.702 231.989 220.491 232.298 221.473 232.298C222.091 232.298 222.646 232.154 223.137 231.866C223.638 231.578 224.027 231.173 224.305 230.65C224.593 230.117 224.737 229.504 224.737 228.81C224.737 228.117 224.593 227.509 224.305 226.986C224.027 226.453 223.638 226.042 223.137 225.754C222.646 225.466 222.091 225.322 221.473 225.322ZM230.91 224.33C231.86 224.33 232.622 224.581 233.198 225.082C233.774 225.584 234.126 226.261 234.254 227.114H233.182C233.118 226.549 232.884 226.085 232.478 225.722C232.084 225.349 231.55 225.162 230.878 225.162C230.302 225.162 229.849 225.306 229.518 225.594C229.198 225.872 229.038 226.245 229.038 226.714C229.038 227.066 229.14 227.349 229.342 227.562C229.556 227.776 229.817 227.941 230.126 228.058C230.436 228.165 230.852 228.277 231.374 228.394C232.014 228.544 232.526 228.698 232.91 228.858C233.305 229.008 233.641 229.248 233.918 229.578C234.196 229.909 234.334 230.357 234.334 230.922C234.334 231.616 234.073 232.186 233.55 232.634C233.038 233.072 232.356 233.29 231.502 233.29C230.5 233.29 229.678 233.045 229.038 232.554C228.398 232.053 228.02 231.37 227.902 230.506H228.99C229.054 231.082 229.305 231.552 229.742 231.914C230.18 232.277 230.772 232.458 231.518 232.458C232.073 232.458 232.505 232.314 232.814 232.026C233.124 231.738 233.278 231.365 233.278 230.906C233.278 230.533 233.172 230.234 232.958 230.01C232.745 229.786 232.478 229.621 232.158 229.514C231.849 229.397 231.422 229.274 230.878 229.146C230.249 228.997 229.742 228.848 229.358 228.698C228.985 228.549 228.665 228.32 228.398 228.01C228.132 227.69 227.998 227.258 227.998 226.714C227.998 226 228.26 225.424 228.782 224.986C229.305 224.549 230.014 224.33 230.91 224.33ZM244.216 222.122C243.405 222.112 242.835 222.261 242.504 222.57C242.184 222.869 242.024 223.376 242.024 224.09V224.442H244.216V225.434H242.024V233.178H240.904V225.434H239.608V224.442H240.904V224.01C240.904 223.029 241.171 222.293 241.704 221.802C242.237 221.312 243.075 221.088 244.216 221.13V222.122ZM247.031 226.25C247.287 225.621 247.698 225.136 248.263 224.794C248.829 224.453 249.517 224.282 250.327 224.282V225.498H249.959C249.117 225.498 248.418 225.728 247.863 226.186C247.309 226.634 247.031 227.37 247.031 228.394V233.178H245.895V224.442H247.031V226.25ZM255.769 224.33C256.601 224.33 257.343 224.512 257.993 224.874C258.655 225.226 259.172 225.744 259.545 226.426C259.919 227.098 260.105 227.893 260.105 228.81C260.105 229.728 259.919 230.522 259.545 231.194C259.172 231.866 258.655 232.384 257.993 232.746C257.343 233.109 256.601 233.29 255.769 233.29C254.937 233.29 254.191 233.109 253.529 232.746C252.868 232.384 252.345 231.866 251.961 231.194C251.588 230.512 251.401 229.717 251.401 228.81C251.401 227.893 251.588 227.098 251.961 226.426C252.345 225.744 252.868 225.226 253.529 224.874C254.191 224.512 254.937 224.33 255.769 224.33ZM255.769 225.306C255.193 225.306 254.66 225.434 254.169 225.69C253.679 225.946 253.284 226.341 252.985 226.874C252.687 227.397 252.537 228.042 252.537 228.81C252.537 229.578 252.687 230.224 252.985 230.746C253.284 231.269 253.679 231.658 254.169 231.914C254.66 232.17 255.193 232.298 255.769 232.298C256.335 232.298 256.857 232.17 257.337 231.914C257.828 231.658 258.223 231.269 258.521 230.746C258.82 230.224 258.969 229.578 258.969 228.81C258.969 228.042 258.82 227.397 258.521 226.874C258.223 226.341 257.828 225.946 257.337 225.69C256.857 225.434 256.335 225.306 255.769 225.306ZM272.722 224.282C273.725 224.282 274.535 224.608 275.154 225.258C275.783 225.898 276.098 226.842 276.098 228.09V233.178H274.978V228.17C274.978 227.232 274.749 226.512 274.29 226.01C273.842 225.509 273.223 225.258 272.434 225.258C271.591 225.258 270.919 225.536 270.418 226.09C269.917 226.645 269.666 227.461 269.666 228.538V233.178H268.562V228.17C268.562 227.232 268.333 226.512 267.874 226.01C267.426 225.509 266.807 225.258 266.018 225.258C265.175 225.258 264.503 225.536 264.002 226.09C263.501 226.645 263.25 227.461 263.25 228.538V233.178H262.114V224.442H263.25V226.522C263.463 225.786 263.847 225.232 264.402 224.858C264.967 224.474 265.618 224.282 266.354 224.282C267.122 224.282 267.783 224.485 268.338 224.89C268.893 225.296 269.277 225.893 269.49 226.682C269.725 225.904 270.135 225.312 270.722 224.906C271.309 224.49 271.975 224.282 272.722 224.282ZM120.336 245.338V257.178H119.2V245.338H120.336ZM122.507 245.85C122.507 245.616 122.581 245.429 122.731 245.29C122.891 245.152 123.093 245.082 123.339 245.082C123.584 245.082 123.781 245.152 123.931 245.29C124.08 245.429 124.155 245.616 124.155 245.85C124.155 246.074 124.08 246.256 123.931 246.394C123.781 246.533 123.584 246.602 123.339 246.602C123.093 246.602 122.891 246.533 122.731 246.394C122.581 246.256 122.507 246.074 122.507 245.85ZM123.899 248.442V257.178H122.763V248.442H123.899ZM130.069 248.346C130.933 248.346 131.664 248.56 132.261 248.986C132.869 249.413 133.301 249.994 133.557 250.73V248.442H134.661V261.306H133.557V254.842C133.301 255.589 132.869 256.186 132.261 256.634C131.653 257.072 130.922 257.29 130.069 257.29C129.269 257.29 128.554 257.109 127.925 256.746C127.296 256.373 126.8 255.85 126.437 255.178C126.085 254.506 125.909 253.722 125.909 252.826C125.909 251.93 126.085 251.146 126.437 250.474C126.8 249.792 127.296 249.269 127.925 248.906C128.554 248.533 129.269 248.346 130.069 248.346ZM130.293 249.322C129.322 249.322 128.538 249.637 127.941 250.266C127.344 250.885 127.045 251.738 127.045 252.826C127.045 253.914 127.344 254.768 127.941 255.386C128.538 255.994 129.322 256.298 130.293 256.298C130.901 256.298 131.45 256.16 131.941 255.882C132.442 255.594 132.837 255.189 133.125 254.666C133.413 254.133 133.557 253.514 133.557 252.81C133.557 252.106 133.413 251.493 133.125 250.97C132.837 250.437 132.442 250.032 131.941 249.754C131.45 249.466 130.901 249.322 130.293 249.322ZM144.627 248.442V257.178H143.507V255.018C143.283 255.776 142.877 256.352 142.291 256.746C141.704 257.141 141.032 257.338 140.275 257.338C139.251 257.338 138.419 257.018 137.779 256.378C137.149 255.728 136.835 254.778 136.835 253.53V248.442H137.955V253.434C137.955 254.394 138.195 255.13 138.675 255.642C139.155 256.144 139.811 256.394 140.643 256.394C141.517 256.394 142.211 256.117 142.723 255.562C143.245 254.997 143.507 254.17 143.507 253.082V248.442H144.627ZM146.819 245.85C146.819 245.616 146.894 245.429 147.043 245.29C147.203 245.152 147.406 245.082 147.651 245.082C147.896 245.082 148.094 245.152 148.243 245.29C148.392 245.429 148.467 245.616 148.467 245.85C148.467 246.074 148.392 246.256 148.243 246.394C148.094 246.533 147.896 246.602 147.651 246.602C147.406 246.602 147.203 246.533 147.043 246.394C146.894 246.256 146.819 246.074 146.819 245.85ZM148.211 248.442V257.178H147.075V248.442H148.211ZM154.318 248.33C155.203 248.33 155.955 248.56 156.574 249.018C157.203 249.477 157.63 250.085 157.854 250.842V245.338H158.974V257.178H157.854V254.778C157.63 255.536 157.203 256.144 156.574 256.602C155.955 257.061 155.203 257.29 154.318 257.29C153.528 257.29 152.819 257.109 152.19 256.746C151.571 256.384 151.086 255.866 150.734 255.194C150.392 254.512 150.222 253.717 150.222 252.81C150.222 251.893 150.392 251.098 150.734 250.426C151.086 249.744 151.571 249.226 152.19 248.874C152.808 248.512 153.518 248.33 154.318 248.33ZM154.606 249.322C153.624 249.322 152.835 249.637 152.238 250.266C151.651 250.885 151.358 251.733 151.358 252.81C151.358 253.888 151.651 254.741 152.238 255.37C152.835 255.989 153.624 256.298 154.606 256.298C155.224 256.298 155.779 256.154 156.27 255.866C156.771 255.578 157.16 255.173 157.438 254.65C157.726 254.117 157.87 253.504 157.87 252.81C157.87 252.117 157.726 251.509 157.438 250.986C157.16 250.453 156.771 250.042 156.27 249.754C155.779 249.466 155.224 249.322 154.606 249.322ZM161.147 245.85C161.147 245.616 161.222 245.429 161.371 245.29C161.531 245.152 161.734 245.082 161.979 245.082C162.224 245.082 162.422 245.152 162.571 245.29C162.72 245.429 162.795 245.616 162.795 245.85C162.795 246.074 162.72 246.256 162.571 246.394C162.422 246.533 162.224 246.602 161.979 246.602C161.734 246.602 161.531 246.533 161.371 246.394C161.222 246.256 161.147 246.074 161.147 245.85ZM162.539 248.442V257.178H161.403V248.442H162.539ZM168.934 256.186V257.178H167.894C167.051 257.178 166.422 256.981 166.006 256.586C165.59 256.181 165.382 255.504 165.382 254.554V249.418H164.054V248.442H165.382V246.234H166.518V248.442H168.918V249.418H166.518V254.57C166.518 255.189 166.63 255.616 166.854 255.85C167.078 256.074 167.472 256.186 168.038 256.186H168.934ZM171.018 248.442L174.058 255.722L176.858 248.442H178.106L172.97 261.306H171.69L173.45 257.082L169.77 248.442H171.018ZM188.356 248.33C189.156 248.33 189.86 248.512 190.468 248.874C191.087 249.226 191.567 249.744 191.908 250.426C192.26 251.098 192.436 251.893 192.436 252.81C192.436 253.717 192.26 254.512 191.908 255.194C191.567 255.866 191.087 256.384 190.468 256.746C189.85 257.109 189.146 257.29 188.356 257.29C187.46 257.29 186.703 257.061 186.084 256.602C185.466 256.144 185.039 255.536 184.804 254.778V261.306H183.684V248.442H184.804V250.842C185.039 250.085 185.466 249.477 186.084 249.018C186.703 248.56 187.46 248.33 188.356 248.33ZM188.052 249.322C187.434 249.322 186.874 249.466 186.372 249.754C185.882 250.042 185.498 250.453 185.22 250.986C184.943 251.509 184.804 252.117 184.804 252.81C184.804 253.504 184.943 254.117 185.22 254.65C185.498 255.173 185.882 255.578 186.372 255.866C186.874 256.154 187.434 256.298 188.052 256.298C189.044 256.298 189.834 255.989 190.42 255.37C191.007 254.741 191.3 253.888 191.3 252.81C191.3 251.733 191.007 250.885 190.42 250.266C189.834 249.637 189.044 249.322 188.052 249.322ZM198.402 248.33C199.234 248.33 199.975 248.512 200.626 248.874C201.287 249.226 201.805 249.744 202.178 250.426C202.551 251.098 202.738 251.893 202.738 252.81C202.738 253.728 202.551 254.522 202.178 255.194C201.805 255.866 201.287 256.384 200.626 256.746C199.975 257.109 199.234 257.29 198.402 257.29C197.57 257.29 196.823 257.109 196.162 256.746C195.501 256.384 194.978 255.866 194.594 255.194C194.221 254.512 194.034 253.717 194.034 252.81C194.034 251.893 194.221 251.098 194.594 250.426C194.978 249.744 195.501 249.226 196.162 248.874C196.823 248.512 197.57 248.33 198.402 248.33ZM198.402 249.306C197.826 249.306 197.293 249.434 196.802 249.69C196.311 249.946 195.917 250.341 195.618 250.874C195.319 251.397 195.17 252.042 195.17 252.81C195.17 253.578 195.319 254.224 195.618 254.746C195.917 255.269 196.311 255.658 196.802 255.914C197.293 256.17 197.826 256.298 198.402 256.298C198.967 256.298 199.49 256.17 199.97 255.914C200.461 255.658 200.855 255.269 201.154 254.746C201.453 254.224 201.602 253.578 201.602 252.81C201.602 252.042 201.453 251.397 201.154 250.874C200.855 250.341 200.461 249.946 199.97 249.69C199.49 249.434 198.967 249.306 198.402 249.306ZM208.699 248.33C209.531 248.33 210.272 248.512 210.923 248.874C211.584 249.226 212.102 249.744 212.475 250.426C212.848 251.098 213.035 251.893 213.035 252.81C213.035 253.728 212.848 254.522 212.475 255.194C212.102 255.866 211.584 256.384 210.923 256.746C210.272 257.109 209.531 257.29 208.699 257.29C207.867 257.29 207.12 257.109 206.459 256.746C205.798 256.384 205.275 255.866 204.891 255.194C204.518 254.512 204.331 253.717 204.331 252.81C204.331 251.893 204.518 251.098 204.891 250.426C205.275 249.744 205.798 249.226 206.459 248.874C207.12 248.512 207.867 248.33 208.699 248.33ZM208.699 249.306C208.123 249.306 207.59 249.434 207.099 249.69C206.608 249.946 206.214 250.341 205.915 250.874C205.616 251.397 205.467 252.042 205.467 252.81C205.467 253.578 205.616 254.224 205.915 254.746C206.214 255.269 206.608 255.658 207.099 255.914C207.59 256.17 208.123 256.298 208.699 256.298C209.264 256.298 209.787 256.17 210.267 255.914C210.758 255.658 211.152 255.269 211.451 254.746C211.75 254.224 211.899 253.578 211.899 252.81C211.899 252.042 211.75 251.397 211.451 250.874C211.152 250.341 210.758 249.946 210.267 249.69C209.787 249.434 209.264 249.306 208.699 249.306ZM216.18 245.338V257.178H215.044V245.338H216.18ZM221.246 248.33C222.196 248.33 222.958 248.581 223.534 249.082C224.11 249.584 224.462 250.261 224.59 251.114H223.518C223.454 250.549 223.22 250.085 222.814 249.722C222.42 249.349 221.886 249.162 221.214 249.162C220.638 249.162 220.185 249.306 219.854 249.594C219.534 249.872 219.374 250.245 219.374 250.714C219.374 251.066 219.476 251.349 219.678 251.562C219.892 251.776 220.153 251.941 220.462 252.058C220.772 252.165 221.188 252.277 221.71 252.394C222.35 252.544 222.862 252.698 223.246 252.858C223.641 253.008 223.977 253.248 224.254 253.578C224.532 253.909 224.67 254.357 224.67 254.922C224.67 255.616 224.409 256.186 223.886 256.634C223.374 257.072 222.692 257.29 221.838 257.29C220.836 257.29 220.014 257.045 219.374 256.554C218.734 256.053 218.356 255.37 218.238 254.506H219.326C219.39 255.082 219.641 255.552 220.078 255.914C220.516 256.277 221.108 256.458 221.854 256.458C222.409 256.458 222.841 256.314 223.15 256.026C223.46 255.738 223.614 255.365 223.614 254.906C223.614 254.533 223.508 254.234 223.294 254.01C223.081 253.786 222.814 253.621 222.494 253.514C222.185 253.397 221.758 253.274 221.214 253.146C220.585 252.997 220.078 252.848 219.694 252.698C219.321 252.549 219.001 252.32 218.734 252.01C218.468 251.69 218.334 251.258 218.334 250.714C218.334 250 218.596 249.424 219.118 248.986C219.641 248.549 220.35 248.33 221.246 248.33Z" fill="white"/>
<path fill-rule="evenodd" clip-rule="evenodd" d="M202.565 18.6079H126.057C122.744 18.6079 120.057 21.2942 120.057 24.6079V98.5753H108.456C102.933 98.5753 98.4563 103.052 98.4563 108.575V110C98.4563 115.523 102.933 120 108.456 120H235.027C240.55 120 245.027 115.523 245.027 110V108.575C245.027 103.052 240.55 98.5753 235.027 98.5753H223.377V48.5831C222.702 48.5045 222.035 48.3983 221.377 48.2656V118H122.057V24.6079C122.057 22.3988 123.848 20.6079 126.057 20.6079H202.166C202.271 19.9316 202.405 19.2645 202.565 18.6079ZM120.057 100.575H108.456C104.038 100.575 100.456 104.157 100.456 108.575V110C100.456 114.418 104.038 118 108.456 118L120.057 118V100.575ZM223.377 118H235.027C239.446 118 243.027 114.418 243.027 110V108.575C243.027 104.157 239.446 100.575 235.027 100.575H223.377V118ZM199.443 74.0245C199.318 74.0266 199.196 74.0635 199.09 74.131C199.027 74.1715 198.971 74.222 198.925 74.2804C198.894 74.3193 198.867 74.3618 198.845 74.4071L189.436 89.1937C189.421 89.2166 189.407 89.2404 189.394 89.265L189.393 89.2664C189.389 89.274 189.385 89.2817 189.382 89.2896L189.371 89.3142L189.366 89.327C189.35 89.3693 189.338 89.413 189.331 89.4576C189.323 89.5021 189.32 89.5471 189.322 89.5922V89.5935C189.322 89.6156 189.324 89.6376 189.327 89.6594L189.329 89.6726C189.333 89.6917 189.336 89.7106 189.341 89.7292C189.345 89.7435 189.349 89.7577 189.353 89.7716L189.359 89.79V89.7914C189.362 89.801 189.365 89.8105 189.369 89.8201C189.374 89.8313 189.378 89.8424 189.384 89.8534V89.8547L189.394 89.8749L189.402 89.8896L189.409 89.9023L189.415 89.9127V89.9141L189.429 89.9368L189.438 89.9493L189.447 89.9629L189.452 89.9695C189.458 89.9775 189.465 89.9855 189.472 89.9933C189.48 90.0032 189.488 90.0128 189.496 90.0222C189.505 90.0328 189.515 90.0431 189.525 90.0532L189.542 90.0697L189.543 90.071C189.576 90.101 189.612 90.1274 189.65 90.1503L189.651 90.1516L189.662 90.1569L189.663 90.1582L199.034 95.5132C199.153 95.6068 199.299 95.658 199.451 95.6584C199.602 95.6589 199.749 95.6088 199.868 95.5157L209.231 90.1648L209.245 90.1569L209.258 90.1494C209.269 90.1429 209.279 90.1361 209.289 90.1292L209.302 90.1199L209.311 90.1119L209.331 90.0978L209.342 90.09L209.352 90.0817L209.355 90.079L209.363 90.0724L209.38 90.056C209.388 90.0481 209.396 90.0399 209.404 90.0315L209.417 90.0175C209.427 90.0054 209.438 89.9929 209.447 89.9801C209.461 89.9626 209.473 89.9446 209.484 89.9259L209.486 89.9247L209.487 89.9207C209.493 89.9121 209.498 89.9033 209.503 89.8945C209.508 89.8854 209.514 89.876 209.519 89.8666V89.8652C209.526 89.8497 209.533 89.8339 209.54 89.8177L209.545 89.8032L209.55 89.7875C209.555 89.7722 209.56 89.7568 209.563 89.7412L209.565 89.7386L209.566 89.7346C209.569 89.7244 209.571 89.714 209.573 89.7036C209.575 89.6934 209.576 89.683 209.578 89.6726L209.58 89.6617L209.582 89.6453C209.583 89.6373 209.584 89.6293 209.585 89.6212V89.616C209.586 89.5953 209.586 89.5746 209.586 89.554C209.585 89.5406 209.584 89.5275 209.583 89.5143L209.582 89.4954L209.579 89.4722V89.4708L209.578 89.4642C209.576 89.454 209.574 89.4437 209.572 89.4336C209.57 89.4248 209.568 89.4161 209.566 89.4075V89.4048C209.562 89.3879 209.557 89.3712 209.552 89.3547L209.546 89.3402L209.54 89.3243L209.535 89.3115L209.531 89.3024L209.526 89.2899L209.521 89.2795L209.52 89.2782L209.519 89.2742C209.509 89.2552 209.498 89.2368 209.487 89.2189L209.483 89.2123L209.48 89.2069L209.459 89.1753L200.059 74.4032C200.003 74.2881 199.915 74.1915 199.806 74.1245C199.697 74.0574 199.571 74.0227 199.443 74.0245ZM198.778 77.0299V85.0709L191.742 88.0856L198.778 77.0299ZM200.129 77.0299L207.165 88.0856L200.129 85.0709V77.0299ZM198.778 86.5406V93.8086L191.512 89.6569L198.778 86.5406ZM200.129 86.5406L207.396 89.6569L200.129 93.8086V86.5406ZM208.75 92.29C208.689 92.3051 208.63 92.3285 208.575 92.3601L199.454 97.5726L190.332 92.3601C190.234 92.3041 190.123 92.2737 190.01 92.2716C189.884 92.2692 189.76 92.3021 189.651 92.3666C189.543 92.4312 189.455 92.5248 189.397 92.6367C189.339 92.7488 189.314 92.8748 189.324 93.0006C189.334 93.1263 189.379 93.2467 189.453 93.3481L198.865 106.122C198.924 106.226 199.009 106.312 199.113 106.373C199.216 106.433 199.333 106.465 199.453 106.465C199.572 106.465 199.69 106.433 199.793 106.373C199.896 106.313 199.982 106.227 200.041 106.123L209.454 93.3481C209.528 93.2479 209.573 93.1292 209.584 93.0049C209.595 92.8805 209.571 92.7557 209.516 92.644C209.46 92.5325 209.374 92.4385 209.268 92.3724C209.162 92.3065 209.04 92.2711 208.916 92.2704C208.859 92.27 208.804 92.2767 208.75 92.29ZM192.438 95.12L198.778 98.7441V103.726L192.438 95.12ZM206.47 95.12L200.129 103.726V98.7441L206.47 95.12ZM134.068 48.8362C134.068 39.6262 141.55 32.1445 150.76 32.1445C159.97 32.1445 167.452 39.6262 167.452 48.8362C167.452 58.0461 159.97 65.5278 150.76 65.5278C141.55 65.5278 134.068 58.0461 134.068 48.8362ZM166 48.8362C166 40.4106 159.185 33.5959 150.76 33.5959C142.334 33.5959 135.52 40.4106 135.52 48.8362C135.52 57.2617 142.334 64.0763 150.76 64.0763C159.185 64.0763 166 57.2617 166 48.8362ZM147.857 40.1274V37.9503H149.308V40.1274H150.76V37.9503H152.211V40.1431C153.704 40.2083 157.219 40.6978 157.219 44.4095C157.219 47.385 154.678 48.1836 154.17 48.3287V48.401C155.259 48.5461 157.873 49.5613 157.873 52.6094C157.873 57.0231 153.879 57.4906 152.211 57.5377V59.722H150.76V57.5448H149.308V59.722H147.857V57.5448H144.228V40.1274H147.857ZM151.63 41.5066H145.898V47.7476H151.63C152.283 47.7476 152.864 47.6744 153.372 47.5293C153.88 47.3842 154.244 47.1675 154.607 46.8772C154.897 46.5869 155.187 46.2961 155.333 45.9332C155.478 45.5703 155.549 45.2078 155.549 44.7723C155.549 42.5952 154.243 41.5066 151.63 41.5066ZM151.63 49.199H145.898V56.1656H151.63C152.283 56.1656 152.864 56.0936 153.372 56.0211C153.953 55.9485 154.388 55.7302 154.824 55.4399C155.259 55.1497 155.55 54.7867 155.84 54.3513C156.058 53.9159 156.203 53.3351 156.203 52.6094C156.203 51.5208 155.84 50.6499 155.042 50.0693C154.244 49.4888 153.082 49.199 151.63 49.199ZM143.689 85.671L150.053 79.3071C150.443 78.9165 151.076 78.9165 151.467 79.3071L157.831 85.671C158.221 86.0615 158.221 86.6947 157.831 87.0852C157.44 87.4758 156.807 87.4758 156.417 87.0852L151.76 82.4285V105.848C151.76 106.401 151.312 106.848 150.76 106.848C150.208 106.848 149.76 106.401 149.76 105.848V82.4285L145.103 87.0852C144.713 87.4758 144.079 87.4758 143.689 87.0852C143.298 86.6947 143.298 86.0615 143.689 85.671ZM200.161 60.0447L206.525 53.6808C206.916 53.2902 206.916 52.6571 206.525 52.2665C206.135 51.876 205.501 51.876 205.111 52.2665L200.454 56.9233V33.5034C200.454 32.951 200.006 32.5034 199.454 32.5034C198.902 32.5034 198.454 32.951 198.454 33.5034V56.9233L193.797 52.2665C193.407 51.876 192.773 51.876 192.383 52.2665C191.992 52.6571 191.992 53.2902 192.383 53.6808L198.747 60.0447C199.137 60.4352 199.771 60.4352 200.161 60.0447Z" fill="white"/>
<circle cx="226.221" cy="24.3988" r="23.3485" stroke="white" stroke-width="2"/>
<path d="M222.641 19.6988H217.889C217.489 19.6988 217.153 20.0188 217.153 20.4188C217.153 20.8348 217.489 21.1548 217.889 21.1548H222.129L220.129 23.8748C219.921 24.1468 219.729 24.3708 219.729 24.6428C219.729 24.9628 219.969 25.2988 220.401 25.3788C221.345 25.5548 222.801 26.0828 222.801 27.5548C222.801 29.0588 221.457 29.6028 220.545 29.6028C219.697 29.6028 218.657 29.1228 218.305 27.9868C218.225 27.7148 217.937 27.4748 217.537 27.4748C216.961 27.4748 216.657 28.0348 216.833 28.5468C217.329 30.1788 218.833 31.0588 220.545 31.0588C222.737 31.0588 224.481 29.6348 224.481 27.5548C224.481 25.6188 222.881 24.4828 221.505 24.2428L223.649 21.4588C224.257 20.6588 223.649 19.6988 222.641 19.6988ZM227.893 19.6188C226.805 19.6188 225.925 20.4828 225.925 21.5868C225.925 22.6748 226.805 23.5548 227.893 23.5548C228.997 23.5548 229.877 22.6748 229.877 21.5868C229.877 20.4828 228.997 19.6188 227.893 19.6188ZM233.237 20.2428L227.029 29.4588C226.949 29.5868 226.901 29.7308 226.901 29.9068C226.901 30.3228 227.269 30.6908 227.685 30.6908C227.973 30.6908 228.213 30.5308 228.357 30.3228L234.533 21.1068C234.613 20.9788 234.677 20.8348 234.677 20.6588C234.677 20.2428 234.325 19.8908 233.893 19.8908C233.621 19.8908 233.365 20.0348 233.237 20.2428ZM227.893 20.8028C228.293 20.8028 228.661 21.1228 228.661 21.5868C228.661 22.0348 228.293 22.3868 227.893 22.3868C227.461 22.3868 227.077 22.0348 227.077 21.5868C227.077 21.1228 227.461 20.8028 227.893 20.8028ZM233.669 27.0428C232.581 27.0428 231.701 27.9068 231.701 29.0108C231.701 30.0988 232.581 30.9788 233.669 30.9788C234.773 30.9788 235.653 30.0988 235.653 29.0108C235.653 27.9068 234.773 27.0428 233.669 27.0428ZM233.669 28.2268C234.069 28.2268 234.437 28.5468 234.437 29.0108C234.437 29.4588 234.069 29.8108 233.669 29.8108C233.237 29.8108 232.853 29.4588 232.853 29.0108C232.853 28.5468 233.237 28.2268 233.669 28.2268Z" fill="white"/>
<defs>
<filter id="filter0_f" x="0.241821" y="62.7638" width="343" height="285.609" filterUnits="userSpaceOnUse" color-interpolation-filters="sRGB">
<feFlood flood-opacity="0" result="BackgroundImageFix"/>
<feBlend mode="normal" in="SourceGraphic" in2="BackgroundImageFix" result="shape"/>
<feGaussianBlur stdDeviation="7" result="effect1_foregroundBlur"/>
</filter>
<filter id="filter1_f" x="79.9819" y="70.1387" width="28.25" height="28.25" filterUnits="userSpaceOnUse" color-interpolation-filters="sRGB">
<feFlood flood-opacity="0" result="BackgroundImageFix"/>
<feBlend mode="normal" in="SourceGraphic" in2="BackgroundImageFix" result="shape"/>
<feGaussianBlur stdDeviation="5.5" result="effect1_foregroundBlur"/>
</filter>
<filter id="filter2_f" x="235.445" y="70.1387" width="28.25" height="28.25" filterUnits="userSpaceOnUse" color-interpolation-filters="sRGB">
<feFlood flood-opacity="0" result="BackgroundImageFix"/>
<feBlend mode="normal" in="SourceGraphic" in2="BackgroundImageFix" result="shape"/>
<feGaussianBlur stdDeviation="5.5" result="effect1_foregroundBlur"/>
</filter>
<filter id="filter3_f" x="12.7418" y="74.0137" width="318" height="260.609" filterUnits="userSpaceOnUse" color-interpolation-filters="sRGB">
<feFlood flood-opacity="0" result="BackgroundImageFix"/>
<feBlend mode="normal" in="SourceGraphic" in2="BackgroundImageFix" result="shape"/>
<feGaussianBlur stdDeviation="3" result="effect1_foregroundBlur"/>
</filter>
<filter id="filter4_f" x="88.2927" y="77.1387" width="11.75" height="11.75" filterUnits="userSpaceOnUse" color-interpolation-filters="sRGB">
<feFlood flood-opacity="0" result="BackgroundImageFix"/>
<feBlend mode="normal" in="SourceGraphic" in2="BackgroundImageFix" result="shape"/>
<feGaussianBlur stdDeviation="2" result="effect1_foregroundBlur"/>
</filter>
<filter id="filter5_f" x="243.567" y="77.1387" width="11.75" height="11.75" filterUnits="userSpaceOnUse" color-interpolation-filters="sRGB">
<feFlood flood-opacity="0" result="BackgroundImageFix"/>
<feBlend mode="normal" in="SourceGraphic" in2="BackgroundImageFix" result="shape"/>
<feGaussianBlur stdDeviation="2" result="effect1_foregroundBlur"/>
</filter>
<linearGradient id="paint0_linear" x1="286.753" y1="201.816" x2="50.3787" y2="202.052" gradientUnits="userSpaceOnUse">
<stop stop-color="#FF1640"/>
<stop offset="0.315399" stop-color="#FABA33"/>
<stop offset="0.573227" stop-color="#E9E031"/>
<stop offset="0.826995" stop-color="#45F273"/>
<stop offset="1" stop-color="#30FFE9"/>
</linearGradient>
<linearGradient id="paint1_linear" x1="286.753" y1="200.566" x2="50.3787" y2="200.802" gradientUnits="userSpaceOnUse">
<stop stop-color="#FF1640"/>
<stop offset="0.315399" stop-color="#FABA33"/>
<stop offset="0.573227" stop-color="#E9E031"/>
<stop offset="0.826995" stop-color="#45F273"/>
<stop offset="1" stop-color="#30FFE9"/>
</linearGradient>
</defs>
</svg>
