<svg width="48" height="48" viewBox="0 0 48 48" fill="none" xmlns="http://www.w3.org/2000/svg">
<path fill-rule="evenodd" clip-rule="evenodd" d="M47.8819 0H0V12.1035H5.32021V17.4237H0V22.7439V25.404H2.66011V28.0641H0V30.7242H2.66011V33.3843H0V36.0305V36.0444V37.3605H1.33005V38.6906H0V40.0206H1.33005V41.3507H0V42.6807H1.33005V44.0099H0V45.34H1.33005V46.6701H0V48.0001H1.33005V46.6701H2.66011V48.0001H3.99016V46.6701H5.32021V48.0001H6.65026V46.6701H7.98032V48.0001H9.31037V46.6701H10.6404V48.0001H11.9705V46.6701H13.3005V48.0001H14.6306V46.6701H15.9606V48.0001H17.2907V46.6701H18.6207V48.0001H19.9508V46.6701H21.2808V48.0001H22.6109V46.6701H23.9409V48.0001H25.271V46.6701H26.6011V48.0001H27.9311V46.6701H29.2612V48.0001H30.5912V46.6701H31.9213V48.0001H33.2513V46.6701H34.5814V48.0001H35.9114V46.6701H37.2415V48.0001H38.5715V46.6701H39.9016V48.0001H41.2316V46.6701H42.5617V48.0001H43.8917V46.6701H45.2218V48.0001H46.5518V46.6701H47.8819V45.34H46.5518V44.0108H47.8819V42.6807H46.5518V41.3507H47.8819V40.0206H46.5518V38.6906H47.8819V37.3605H46.5518V36.0305H45.2218V33.3843H47.8819V30.7242H45.2218V28.0641H47.8819V25.404H45.2218V22.7439H47.8819V17.4237H42.5617V12.1035H47.8819V0ZM42.5617 25.404V22.7439V17.4237H37.2415V12.1035H31.9213V17.4237H26.6011V12.1035H21.2808V17.4237H15.9606V12.1035H10.6404V17.4237H5.32021V22.7439H2.66011V25.404H5.32021V28.0641H2.66011V30.7242H5.32021V33.3843H2.66011V36.0305H3.99016V37.3605H2.66011V36.0444H1.33005V37.3605H2.66011V38.6906H1.33005V40.0206H2.66011V41.3507H1.33005V42.6807H2.66011V44.0099H3.99016V42.6807H5.32021V44.0099H6.65026V42.6807H7.98032V44.0099H9.31037V42.6807H10.6404V44.0099H11.9705V42.6807H13.3005V44.0099H14.6306V42.6807H15.9606V44.0099H17.2907V42.6807H18.6207V44.0099H19.9508V42.6807H21.2808V44.0099H22.6109V42.6807H23.9409V44.0099H25.271V42.6807H26.6011V44.0099H27.9311V42.6807H29.2612V44.0099H30.5912V42.6807H31.9213V44.0099H33.2513V42.6807H34.5814V44.0099H35.9114V42.6807H37.2415V44.0099H38.5715V42.6807H39.9016V44.0099H41.2316V42.6807H42.5617V44.0099H43.8917V42.6807H45.2218V44.0099H46.5518V42.6807H45.2218V41.3507H46.5518V40.0206H45.2218V38.6906H46.5518V37.3605H45.2218V36.0444H43.8917V37.3605H42.5617V36.0444V36.0305V33.3843H45.2218V30.7242H42.5617V28.0641H45.2218V25.404H42.5617ZM39.9016 25.404H42.5617V28.0641H39.9016V25.404ZM37.2415 25.404H39.9016V22.7439H37.2415V17.4237H31.9213V22.7439V25.404H29.2612V22.7439H26.6011V17.4237H21.2808V22.7439V25.404H18.6207V22.7439H15.9606V17.4237H10.6404V22.7439V25.404H7.98032V22.7439H5.32021V25.404H7.98032V28.0641H5.32021V30.7242H7.98032V33.3843H5.32021V36.0305V36.0444V37.3605H3.99016V38.6906H2.66011V40.0206H3.99016V41.3507H2.66011V42.6807H3.99016V41.3507H5.32021V42.6807H6.65026V41.3507H7.98032V42.6807H9.31037V41.3507H10.6404V42.6807H11.9705V41.3507H13.3005V42.6807H14.6306V41.3507H15.9606V42.6807H17.2907V41.3507H18.6207V42.6807H19.9508V41.3507H21.2808V42.6807H22.6109V41.3507H23.9409V42.6807H25.271V41.3507H26.6011V42.6807H27.9311V41.3507H29.2612V42.6807H30.5912V41.3507H31.9213V42.6807H33.2513V41.3507H34.5814V42.6807H35.9114V41.3507H37.2415V42.6807H38.5715V41.3507H39.9016V42.6807H41.2316V41.3507H42.5617V42.6807H43.8917V41.3507H45.2218V40.0206H43.8917V38.6906H45.2218V37.3605H43.8917V38.6906H42.5617V37.3605H41.2316V36.0305H39.9016V33.3843H42.5617V30.7242H39.9016V28.0641H37.2415V25.404ZM34.5814 25.404H37.2415V22.7439H34.5814V25.404ZM34.5814 28.0641V25.404H31.9213V28.0641H29.2612V25.404H26.6011V22.7439H23.9409V25.404H21.2808V28.0641H18.6207V25.404H15.9606V22.7439H13.3005V25.404H10.6404V28.0641H7.98032V30.7242H10.6404V33.3843H7.98032V36.0305H9.31037V37.3605H7.98032V36.0444H6.65026V37.3605H5.32021V38.6906H3.99016V40.0206H5.32021V41.3507H6.65026V40.0206H7.98032V41.3507H9.31037V40.0206H10.6404V41.3507H11.9705V40.0206H13.3005V41.3507H14.6306V40.0206H15.9606V41.3507H17.2907V40.0206H18.6207V41.3507H19.9508V40.0206H21.2808V41.3507H22.6109V40.0206H23.9409V41.3507H25.271V40.0206H26.6011V41.3507H27.9311V40.0206H29.2612V41.3507H30.5912V40.0206H31.9213V41.3507H33.2513V40.0206H34.5814V41.3507H35.9114V40.0206H37.2415V41.3507H38.5715V40.0206H39.9016V41.3507H41.2316V40.0206H42.5617V41.3507H43.8917V40.0206H42.5617V38.6906H41.2316V37.3605H39.9016V36.0444H38.5715V37.3605H37.2415V36.0444V36.0305V33.3843H39.9016V30.7242H37.2415V28.0641H34.5814ZM34.5814 30.7242V28.0641H31.9213V30.7242H29.2612V28.0641H26.6011V25.404H23.9409V28.0641H21.2808V30.7242H18.6207V28.0641H15.9606V25.404H13.3005V28.0641H10.6404V30.7242H13.3005V33.3843H10.6404V36.0305V36.0444V37.3605H9.31037V38.6906H7.98032V37.3605H6.65026V38.6906H5.32021V40.0206H6.65026V38.6906H7.98032V40.0206H9.31037V38.6906H10.6404V40.0206H11.9705V38.6906H13.3005V40.0206H14.6306V38.6906H15.9606V40.0206H17.2907V38.6906H18.6207V40.0206H19.9508V38.6906H21.2808V40.0206H22.6109V38.6906H23.9409V40.0206H25.271V38.6906H26.6011V40.0206H27.9311V38.6906H29.2612V40.0206H30.5912V38.6906H31.9213V40.0206H33.2513V38.6906H34.5814V40.0206H35.9114V38.6906H37.2415V40.0206H38.5715V38.6906H39.9016V40.0206H41.2316V38.6906H39.9016V37.3605H38.5715V38.6906H37.2415V37.3605H35.9114V36.0305H34.5814V33.3843H37.2415V30.7242H34.5814ZM31.9213 33.3843H34.5814V30.7242H31.9213V33.3843ZM31.9213 37.3605V36.0444V36.0305V33.3843H29.2612V30.7242H26.6011V28.0641H23.9409V30.7242H21.2808V33.3843H18.6207V30.7242H15.9606V28.0641H13.3005V30.7242H15.9606V33.3843H13.3005V36.0305H14.6306V37.3605H13.3005V36.0444H11.9705V37.3605H10.6404V38.6906H11.9705V37.3605H13.3005V38.6906H14.6306V37.3605H15.9606V38.6906H17.2907V37.3605H18.6207V38.6906H19.9508V37.3605H21.2808V38.6906H22.6109V37.3605H23.9409V38.6906H25.271V37.3605H26.6011V38.6906H27.9311V37.3605H29.2612V38.6906H30.5912V37.3605H31.9213ZM33.2513 37.3605H31.9213V38.6906H33.2513V37.3605ZM34.5814 37.3605H33.2513V36.0444H34.5814V37.3605ZM34.5814 37.3605V38.6906H35.9114V37.3605H34.5814ZM30.5912 37.3605H29.2612V36.0444H27.9311V37.3605H26.6011V36.0444V36.0305V33.3843H29.2612V36.0305H30.5912V37.3605ZM23.9409 33.3843V36.0305H25.271V37.3605H23.9409V36.0444H22.6109V37.3605H21.2808V36.0444V36.0305V33.3843H23.9409ZM23.9409 33.3843H26.6011V30.7242H23.9409V33.3843ZM19.9508 37.3605H18.6207V36.0444H17.2907V37.3605H15.9606V36.0444V36.0305V33.3843H18.6207V36.0305H19.9508V37.3605ZM45.2218 45.34H46.5518V46.6701H45.2218V45.34ZM43.8917 45.34H45.2218V44.0108H43.8917V45.34ZM42.5617 45.34V46.6701H43.8917V45.34H42.5617ZM41.2316 45.34V44.0108H42.5617V45.34H41.2316ZM39.9016 45.34H41.2316V46.6701H39.9016V45.34ZM38.5715 45.34H39.9016V44.0108H38.5715V45.34ZM37.2415 45.34V46.6701H38.5715V45.34H37.2415ZM35.9114 45.34V44.0108H37.2415V45.34H35.9114ZM34.5814 45.34H35.9114V46.6701H34.5814V45.34ZM33.2513 45.34H34.5814V44.0108H33.2513V45.34ZM31.9213 45.34V46.6701H33.2513V45.34H31.9213ZM30.5912 45.34V44.0108H31.9213V45.34H30.5912ZM29.2612 45.34H30.5912V46.6701H29.2612V45.34ZM27.9311 45.34H29.2612V44.0108H27.9311V45.34ZM26.6011 45.34V46.6701H27.9311V45.34H26.6011ZM25.271 45.34V44.0108H26.6011V45.34H25.271ZM23.9409 45.34H25.271V46.6701H23.9409V45.34ZM22.6109 45.34H23.9409V44.0108H22.6109V45.34ZM21.2808 45.34V46.6701H22.6109V45.34H21.2808ZM19.9508 45.34V44.0108H21.2808V45.34H19.9508ZM18.6207 45.34H19.9508V46.6701H18.6207V45.34ZM17.2907 45.34H18.6207V44.0108H17.2907V45.34ZM15.9606 45.34V46.6701H17.2907V45.34H15.9606ZM14.6306 45.34V44.0108H15.9606V45.34H14.6306ZM13.3005 45.34H14.6306V46.6701H13.3005V45.34ZM11.9705 45.34H13.3005V44.0108H11.9705V45.34ZM10.6404 45.34V46.6701H11.9705V45.34H10.6404ZM9.31037 45.34V44.0108H10.6404V45.34H9.31037ZM7.98032 45.34H9.31037V46.6701H7.98032V45.34ZM6.65026 45.34H7.98032V44.0108H6.65026V45.34ZM5.32021 45.34V46.6701H6.65026V45.34H5.32021ZM3.99016 45.34V44.0108H5.32021V45.34H3.99016ZM2.66011 45.34V44.0108H1.33005V45.34H2.66011ZM2.66011 45.34H3.99016V46.6701H2.66011V45.34Z" fill="url(#paint0_linear)"/>
<defs>
<linearGradient id="paint0_linear" x1="0" y1="0" x2="47.882" y2="48" gradientUnits="userSpaceOnUse">
<stop stop-color="#9546F6"/>
<stop offset="0.739583" stop-color="#00D7FF"/>
<stop offset="1" stop-color="#48FCE3"/>
</linearGradient>
</defs>
</svg>
