<svg width="347" height="265" viewBox="0 0 347 265" fill="none" xmlns="http://www.w3.org/2000/svg">
<path fill-rule="evenodd" clip-rule="evenodd" d="M238.35 176.31H108.21L173.27 63.62L238.35 176.31ZM278.24 264.54H68.32L53.32 232.74H293.32L278.24 264.54ZM293.35 208L293.23 208.14H53.23L53.15 208.04L0 143.71L58.43 43L107 101.76L90.25 130.76L63.03 97.93L50.65 119.28L38.24 140.67L69.88 178.94L85.66 151.73L88.37 147.05L89.05 145.88L94.66 136.2L111.42 107.2L124.16 85.13L173.27 0L223.17 86.42H223.12L251.83 136.15L258.02 146.82L261.62 153.03L272.84 172.37L276.62 178.89L308.25 140.62L295.85 119.23L283.43 97.93L256.27 130.8L239.52 101.8L288.09 43L346.43 143.71L293.35 208Z" fill="url(#paint0_linear)"/>
<mask id="mask0" mask-type="alpha" maskUnits="userSpaceOnUse" x="225" y="63" width="70" height="82">
<rect x="225.245" y="83.6654" width="39.0754" height="70.159" transform="rotate(-30.5753 225.245 83.6654)" fill="#C4C4C4"/>
</mask>
<g mask="url(#mask0)">
<g filter="url(#filter0_f)">
<path d="M245.845 85.079L228.227 95.5432L254.782 140.252L272.4 129.787L245.845 85.079Z" fill="url(#paint1_radial)"/>
</g>
</g>
<mask id="mask1" mask-type="alpha" maskUnits="userSpaceOnUse" x="51" y="63" width="70" height="82">
<rect width="39.0754" height="70.159" transform="matrix(-0.860961 -0.50867 -0.50867 0.860961 120.669 83.6654)" fill="#C4C4C4"/>
</mask>
<g mask="url(#mask1)">
<g filter="url(#filter1_f)">
<path d="M98.2317 87.5617L115.849 98.0259L89.2943 142.734L71.6767 132.27L98.2317 87.5617Z" fill="url(#paint2_radial)"/>
</g>
</g>
<defs>
<filter id="filter0_f" x="217.227" y="74.079" width="66.1726" height="77.1725" filterUnits="userSpaceOnUse" color-interpolation-filters="sRGB">
<feFlood flood-opacity="0" result="BackgroundImageFix"/>
<feBlend mode="normal" in="SourceGraphic" in2="BackgroundImageFix" result="shape"/>
<feGaussianBlur stdDeviation="5.5" result="effect1_foregroundBlur"/>
</filter>
<filter id="filter1_f" x="60.6767" y="76.5617" width="66.1726" height="77.1725" filterUnits="userSpaceOnUse" color-interpolation-filters="sRGB">
<feFlood flood-opacity="0" result="BackgroundImageFix"/>
<feBlend mode="normal" in="SourceGraphic" in2="BackgroundImageFix" result="shape"/>
<feGaussianBlur stdDeviation="5.5" result="effect1_foregroundBlur"/>
</filter>
<linearGradient id="paint0_linear" x1="306.026" y1="128.179" x2="33.069" y2="128.468" gradientUnits="userSpaceOnUse">
<stop stop-color="#FF168A"/>
<stop offset="0.315399" stop-color="#FABA33"/>
<stop offset="0.573227" stop-color="#E9E031"/>
<stop offset="0.826995" stop-color="#45F273"/>
<stop offset="1" stop-color="#30FFE9"/>
</linearGradient>
<radialGradient id="paint1_radial" cx="0" cy="0" r="1" gradientUnits="userSpaceOnUse" gradientTransform="translate(250.314 112.665) rotate(59.2914) scale(26 10.2455)">
<stop stop-color="#0C0F21"/>
<stop offset="1" stop-color="#0C0F21" stop-opacity="0.9"/>
</radialGradient>
<radialGradient id="paint2_radial" cx="0" cy="0" r="1" gradientUnits="userSpaceOnUse" gradientTransform="translate(93.763 115.148) rotate(120.709) scale(26 10.2455)">
<stop stop-color="#0C0F21"/>
<stop offset="1" stop-color="#0C0F21" stop-opacity="0.9"/>
</radialGradient>
</defs>
</svg>
