<svg width="345" height="78" viewBox="0 0 345 78" fill="none" xmlns="http://www.w3.org/2000/svg">
<path d="M38.824 43.672C38.824 46.36 38.128 48.832 36.736 51.088C35.392 53.344 33.376 55.144 30.688 56.488C28.048 57.832 24.832 58.504 21.04 58.504C15.328 58.504 10.624 57.112 6.928 54.328C3.232 51.544 1.216 47.656 0.88 42.664H13.984C14.176 44.584 14.848 46.096 16 47.2C17.2 48.304 18.712 48.856 20.536 48.856C22.12 48.856 23.368 48.424 24.28 47.56C25.192 46.696 25.648 45.544 25.648 44.104C25.648 42.808 25.216 41.728 24.352 40.864C23.536 40 22.504 39.304 21.256 38.776C20.008 38.2 18.28 37.528 16.072 36.76C12.856 35.656 10.216 34.6 8.152 33.592C6.136 32.536 4.384 31 2.896 28.984C1.456 26.92 0.736 24.256 0.736 20.992C0.736 17.968 1.504 15.352 3.04 13.144C4.576 10.936 6.688 9.256 9.376 8.104C12.112 6.904 15.232 6.304 18.736 6.304C24.4 6.304 28.888 7.648 32.2 10.336C35.56 13.024 37.456 16.72 37.888 21.424H24.568C24.328 19.744 23.704 18.424 22.696 17.464C21.736 16.456 20.416 15.952 18.736 15.952C17.296 15.952 16.12 16.336 15.208 17.104C14.344 17.872 13.912 19 13.912 20.488C13.912 21.688 14.296 22.72 15.064 23.584C15.88 24.4 16.888 25.072 18.088 25.6C19.288 26.128 21.016 26.8 23.272 27.616C26.536 28.72 29.2 29.824 31.264 30.928C33.328 31.984 35.104 33.544 36.592 35.608C38.08 37.672 38.824 40.36 38.824 43.672ZM64.4228 17.32C68.4068 17.32 71.9588 18.16 75.0788 19.84C78.2468 21.472 80.7188 23.848 82.4948 26.968C84.3188 30.088 85.2308 33.736 85.2308 37.912C85.2308 42.088 84.3188 45.736 82.4948 48.856C80.7188 51.976 78.2468 54.376 75.0788 56.056C71.9588 57.688 68.4068 58.504 64.4228 58.504C60.4388 58.504 56.8628 57.688 53.6948 56.056C50.5268 54.376 48.0308 51.976 46.2068 48.856C44.4308 45.736 43.5428 42.088 43.5428 37.912C43.5428 33.736 44.4308 30.088 46.2068 26.968C48.0308 23.848 50.5268 21.472 53.6948 19.84C56.8628 18.16 60.4388 17.32 64.4228 17.32ZM64.4228 27.976C62.0708 27.976 60.0788 28.84 58.4468 30.568C56.8628 32.248 56.0708 34.696 56.0708 37.912C56.0708 41.128 56.8628 43.576 58.4468 45.256C60.0788 46.936 62.0708 47.776 64.4228 47.776C66.7748 47.776 68.7428 46.936 70.3268 45.256C71.9108 43.576 72.7028 41.128 72.7028 37.912C72.7028 34.696 71.9108 32.248 70.3268 30.568C68.7428 28.84 66.7748 27.976 64.4228 27.976ZM101.119 7.096L113.575 45.4L126.031 7.096H139.207L121.495 58H105.583L87.9432 7.096H101.119ZM170.064 58L159.048 38.776H156.24V58H143.928V7.096H164.952C168.984 7.096 172.392 7.792 175.176 9.184C177.96 10.576 180.048 12.496 181.44 14.944C182.832 17.344 183.528 20.104 183.528 23.224C183.528 26.92 182.496 30.064 180.432 32.656C178.416 35.248 175.464 37.024 171.576 37.984L183.672 58H170.064ZM156.24 30.352H163.872C166.32 30.352 168.12 29.824 169.272 28.768C170.424 27.664 171 26.056 171 23.944C171 21.928 170.4 20.344 169.2 19.192C168.048 18.04 166.272 17.464 163.872 17.464H156.24V30.352ZM227.861 36.832C227.861 37.84 227.741 38.944 227.501 40.144H199.637C199.781 43.168 200.549 45.352 201.941 46.696C203.333 47.992 205.109 48.64 207.269 48.64C209.093 48.64 210.605 48.184 211.805 47.272C213.005 46.36 213.797 45.184 214.181 43.744H227.213C226.685 46.576 225.533 49.12 223.757 51.376C221.981 53.584 219.725 55.336 216.989 56.632C214.253 57.88 211.205 58.504 207.845 58.504C203.909 58.504 200.405 57.688 197.333 56.056C194.309 54.376 191.933 51.976 190.205 48.856C188.477 45.736 187.613 42.088 187.613 37.912C187.613 33.688 188.453 30.04 190.133 26.968C191.861 23.848 194.261 21.472 197.333 19.84C200.405 18.16 203.909 17.32 207.845 17.32C211.829 17.32 215.333 18.136 218.357 19.768C221.381 21.4 223.709 23.704 225.341 26.68C227.021 29.608 227.861 32.992 227.861 36.832ZM215.405 34.96C215.453 32.32 214.733 30.352 213.245 29.056C211.805 27.712 210.005 27.04 207.845 27.04C205.589 27.04 203.717 27.712 202.229 29.056C200.741 30.4 199.901 32.368 199.709 34.96H215.405ZM233.127 6.52C233.127 4.648 233.799 3.112 235.143 1.912C236.487 0.663996 238.263 0.0399952 240.471 0.0399952C242.679 0.0399952 244.455 0.663996 245.799 1.912C247.143 3.112 247.815 4.648 247.815 6.52C247.815 8.344 247.143 9.88 245.799 11.128C244.455 12.328 242.679 12.928 240.471 12.928C238.263 12.928 236.487 12.328 235.143 11.128C233.799 9.88 233.127 8.344 233.127 6.52ZM246.591 17.824V58H234.279V17.824H246.591ZM270.356 17.32C273.428 17.32 276.068 18.016 278.276 19.408C280.484 20.8 282.116 22.696 283.172 25.096V17.824H295.412V57.784C295.412 61.528 294.692 64.888 293.252 67.864C291.812 70.888 289.604 73.288 286.628 75.064C283.652 76.84 279.956 77.728 275.54 77.728C269.492 77.728 264.644 76.288 260.996 73.408C257.396 70.576 255.236 66.712 254.516 61.816H266.684C267.068 63.448 267.932 64.72 269.276 65.632C270.668 66.544 272.468 67 274.676 67C277.22 67 279.26 66.256 280.796 64.768C282.38 63.328 283.172 61 283.172 57.784V50.728C282.116 53.128 280.484 55.024 278.276 56.416C276.068 57.808 273.428 58.504 270.356 58.504C267.044 58.504 264.068 57.688 261.428 56.056C258.836 54.376 256.772 51.976 255.236 48.856C253.748 45.736 253.004 42.088 253.004 37.912C253.004 33.688 253.748 30.04 255.236 26.968C256.772 23.848 258.836 21.472 261.428 19.84C264.068 18.16 267.044 17.32 270.356 17.32ZM274.316 28.12C271.676 28.12 269.54 28.984 267.908 30.712C266.324 32.44 265.532 34.84 265.532 37.912C265.532 40.984 266.324 43.384 267.908 45.112C269.54 46.84 271.676 47.704 274.316 47.704C276.908 47.704 279.02 46.816 280.652 45.04C282.332 43.264 283.172 40.888 283.172 37.912C283.172 34.888 282.332 32.512 280.652 30.784C279.02 29.008 276.908 28.12 274.316 28.12ZM329.377 17.392C333.985 17.392 337.633 18.928 340.321 22C343.057 25.072 344.425 29.296 344.425 34.672V58H332.113V36.112C332.113 33.424 331.393 31.336 329.953 29.848C328.561 28.312 326.689 27.544 324.337 27.544C321.841 27.544 319.849 28.336 318.361 29.92C316.921 31.504 316.201 33.76 316.201 36.688V58H303.889V17.824H316.201V25.168C317.353 22.768 319.057 20.872 321.313 19.48C323.617 18.088 326.305 17.392 329.377 17.392Z" fill="url(#paint0_linear)"/>
<defs>
<linearGradient id="paint0_linear" x1="308.063" y1="31.3299" x2="31.5068" y2="32.0553" gradientUnits="userSpaceOnUse">
<stop stop-color="#FF168A"/>
<stop offset="0.315399" stop-color="#FABA33"/>
<stop offset="0.573227" stop-color="#E9E031"/>
<stop offset="0.826995" stop-color="#45F273"/>
<stop offset="1" stop-color="#30FFE9"/>
</linearGradient>
</defs>
</svg>
