<svg width="517" height="407" viewBox="0 0 517 407" fill="none" xmlns="http://www.w3.org/2000/svg">
<g filter="url(#filter0_f)">
<mask id="path-1-inside-1" fill="white">
<path fill-rule="evenodd" clip-rule="evenodd" d="M346.029 262.872H170.2L258.101 110.619L346.029 262.872ZM399.923 382.077H116.305L96.0393 339.113H420.297L399.923 382.077ZM420.338 305.687L420.175 305.877H95.9177L95.8096 305.742L24 218.827L102.943 82.7602L168.565 162.149L145.934 201.33L109.158 156.975L92.4319 185.82L75.6651 214.72L118.413 266.425L139.733 229.663L143.394 223.339L144.313 221.759L151.893 208.68L174.537 169.499L191.749 139.681L258.101 24.6641L325.519 141.424H325.452L364.241 208.613L372.604 223.029L377.468 231.419L392.627 257.549L397.734 266.358L440.469 214.652L423.715 185.753L406.935 156.975L370.24 201.385L347.609 162.203L413.231 82.7602L492.053 218.827L420.338 305.687Z"/>
</mask>
<path d="M170.2 262.872L159.808 256.872L149.416 274.872H170.2V262.872ZM346.029 262.872V274.872H366.816L356.42 256.871L346.029 262.872ZM258.101 110.619L268.492 104.618L258.099 86.6218L247.708 104.62L258.101 110.619ZM116.305 382.077L105.452 387.197L108.698 394.077H116.305V382.077ZM399.923 382.077V394.077H407.513L410.765 387.219L399.923 382.077ZM96.0393 339.113V327.113H77.1109L85.1861 344.232L96.0393 339.113ZM420.297 339.113L431.14 344.255L439.269 327.113H420.297V339.113ZM420.175 305.877V317.877H425.694L429.286 313.687L420.175 305.877ZM420.338 305.687L429.448 313.497L429.521 313.413L429.591 313.328L420.338 305.687ZM95.9177 305.877L86.5477 313.373L90.1506 317.877H95.9177V305.877ZM95.8096 305.742L105.18 298.245L105.121 298.171L105.061 298.098L95.8096 305.742ZM24 218.827L13.6204 212.805L9.42838 220.03L14.749 226.47L24 218.827ZM102.943 82.7602L112.193 75.1149L101.212 61.8312L92.5637 76.7382L102.943 82.7602ZM168.565 162.149L178.956 168.151L183.127 160.931L177.814 154.504L168.565 162.149ZM145.934 201.33L136.697 208.99L147.702 222.263L156.326 207.332L145.934 201.33ZM109.158 156.975L118.396 149.316L107.411 136.066L98.7772 150.955L109.158 156.975ZM92.4319 185.82L102.811 191.842L102.813 191.84L92.4319 185.82ZM75.6651 214.72L65.2855 208.698L61.092 215.926L66.4166 222.366L75.6651 214.72ZM118.413 266.425L109.165 274.072L120.147 287.355L128.794 272.445L118.413 266.425ZM139.733 229.663L150.114 235.683L150.118 235.676L139.733 229.663ZM143.394 223.339L133.019 217.31L133.015 217.318L133.01 217.326L143.394 223.339ZM144.313 221.759L154.688 227.789L154.692 227.782L154.696 227.776L144.313 221.759ZM151.893 208.68L162.275 214.697L162.279 214.691L162.282 214.685L151.893 208.68ZM174.537 169.499L184.926 175.504L184.929 175.498L174.537 169.499ZM191.749 139.681L202.142 145.68L202.144 145.677L191.749 139.681ZM258.101 24.6641L268.493 18.6636L258.096 0.657742L247.706 18.6677L258.101 24.6641ZM325.519 141.424V153.424H346.305L335.911 135.423L325.519 141.424ZM325.452 141.424V129.424H304.668L315.059 147.424L325.452 141.424ZM364.241 208.613L353.849 214.613L353.855 214.623L353.861 214.634L364.241 208.613ZM372.604 223.029L382.986 217.01L382.984 217.007L372.604 223.029ZM377.468 231.419L367.086 237.437L367.088 237.441L377.468 231.419ZM392.627 257.549L403.009 251.53L403.007 251.527L392.627 257.549ZM397.734 266.358L387.353 272.376L396 287.292L406.984 274.003L397.734 266.358ZM440.469 214.652L449.718 222.297L455.039 215.859L450.85 208.634L440.469 214.652ZM423.715 185.753L434.097 179.734L434.089 179.721L434.082 179.708L423.715 185.753ZM406.935 156.975L417.301 150.93L408.639 136.074L397.684 149.331L406.935 156.975ZM370.24 201.385L359.849 207.386L368.488 222.344L379.49 209.028L370.24 201.385ZM347.609 162.203L338.357 154.561L333.049 160.988L337.218 168.205L347.609 162.203ZM413.231 82.7602L423.615 76.7452L414.966 61.8164L403.979 75.118L413.231 82.7602ZM492.053 218.827L501.306 226.467L506.619 220.032L502.436 212.812L492.053 218.827ZM170.2 274.872H346.029V250.872H170.2V274.872ZM247.708 104.62L159.808 256.872L180.592 268.872L268.493 116.619L247.708 104.62ZM356.42 256.871L268.492 104.618L247.709 116.621L335.637 268.873L356.42 256.871ZM116.305 394.077H399.923V370.077H116.305V394.077ZM85.1861 344.232L105.452 387.197L127.159 376.958L106.892 333.994L85.1861 344.232ZM420.297 327.113H96.0393V351.113H420.297V327.113ZM410.765 387.219L431.14 344.255L409.454 333.971L389.08 376.935L410.765 387.219ZM429.286 313.687L429.448 313.497L411.227 297.877L411.065 298.067L429.286 313.687ZM95.9177 317.877H420.175V293.877H95.9177V317.877ZM86.4396 313.238L86.5477 313.373L105.288 298.38L105.18 298.245L86.4396 313.238ZM14.749 226.47L86.5586 313.385L105.061 298.098L33.251 211.184L14.749 226.47ZM92.5637 76.7382L13.6204 212.805L34.3796 224.849L113.323 88.7823L92.5637 76.7382ZM177.814 154.504L112.193 75.1149L93.694 90.4055L159.316 169.795L177.814 154.504ZM156.326 207.332L178.956 168.151L158.174 156.148L135.543 195.329L156.326 207.332ZM99.9204 164.634L136.697 208.99L155.172 193.671L118.396 149.316L99.9204 164.634ZM102.813 191.84L119.539 162.994L98.7772 150.955L82.0509 179.801L102.813 191.84ZM86.0446 220.742L102.811 191.842L82.0523 179.798L65.2855 208.698L86.0446 220.742ZM127.662 258.779L84.9136 207.073L66.4166 222.366L109.165 274.072L127.662 258.779ZM129.352 223.642L108.032 260.405L128.794 272.445L150.114 235.683L129.352 223.642ZM133.01 217.326L129.348 223.649L150.118 235.676L153.779 229.353L133.01 217.326ZM133.938 215.729L133.019 217.31L153.769 229.369L154.688 227.789L133.938 215.729ZM141.51 202.663L133.931 215.742L154.696 227.776L162.275 214.697L141.51 202.663ZM164.147 163.495L141.503 202.676L162.282 214.685L184.926 175.504L164.147 163.495ZM181.357 133.682L164.144 163.5L184.929 175.498L202.142 145.68L181.357 133.682ZM247.706 18.6677L181.355 133.685L202.144 145.677L268.495 30.6604L247.706 18.6677ZM335.911 135.423L268.493 18.6636L247.709 30.6645L315.127 147.424L335.911 135.423ZM325.452 153.424H325.519V129.424H325.452V153.424ZM374.633 202.613L335.844 135.424L315.059 147.424L353.849 214.613L374.633 202.613ZM382.984 217.007L374.621 202.591L353.861 214.634L362.224 229.05L382.984 217.007ZM387.85 225.401L382.986 217.01L362.222 229.047L367.086 237.437L387.85 225.401ZM403.007 251.527L387.848 225.397L367.088 237.441L382.247 263.57L403.007 251.527ZM408.116 260.339L403.009 251.53L382.246 263.567L387.353 272.376L408.116 260.339ZM431.219 207.007L388.484 258.713L406.984 274.003L449.718 222.297L431.219 207.007ZM413.334 191.771L430.087 220.67L450.85 208.634L434.097 179.734L413.334 191.771ZM396.569 163.019L413.349 191.797L434.082 179.708L417.301 150.93L396.569 163.019ZM379.49 209.028L416.186 164.618L397.684 149.331L360.989 193.741L379.49 209.028ZM337.218 168.205L359.849 207.386L380.631 195.383L358 156.202L337.218 168.205ZM403.979 75.118L338.357 154.561L356.861 169.846L422.483 90.4025L403.979 75.118ZM502.436 212.812L423.615 76.7452L402.847 88.7753L481.669 224.842L502.436 212.812ZM429.591 313.328L501.306 226.467L482.799 211.187L411.084 298.047L429.591 313.328Z" fill="url(#paint0_linear)" mask="url(#path-1-inside-1)"/>
</g>
<g filter="url(#filter1_f)">
<mask id="path-3-inside-2" fill="white">
<path fill-rule="evenodd" clip-rule="evenodd" d="M346.029 262.872H170.2L258.101 110.619L346.029 262.872ZM399.923 382.077H116.305L96.0393 339.113H420.297L399.923 382.077ZM420.338 305.687L420.175 305.877H95.9177L95.8096 305.742L24 218.827L102.943 82.7602L168.565 162.149L145.934 201.33L109.158 156.975L92.4319 185.82L75.6651 214.72L118.413 266.425L139.733 229.663L143.394 223.339L144.313 221.759L151.893 208.68L174.537 169.499L191.749 139.681L258.101 24.6641L325.519 141.424H325.452L364.241 208.613L372.604 223.029L377.468 231.419L392.627 257.549L397.734 266.358L440.469 214.652L423.715 185.753L406.935 156.975L370.24 201.385L347.609 162.203L413.231 82.7602L492.053 218.827L420.338 305.687Z"/>
</mask>
<path d="M170.2 262.872L165.004 259.872L159.808 268.872H170.2V262.872ZM346.029 262.872V268.872H356.422L351.224 259.871L346.029 262.872ZM258.101 110.619L263.297 107.619L258.1 98.6206L252.905 107.62L258.101 110.619ZM116.305 382.077L110.879 384.637L112.502 388.077H116.305V382.077ZM399.923 382.077V388.077H403.718L405.344 384.648L399.923 382.077ZM96.0393 339.113V333.113H86.5751L90.6127 341.673L96.0393 339.113ZM420.297 339.113L425.718 341.684L429.783 333.113H420.297V339.113ZM420.175 305.877V311.877H422.935L424.731 309.782L420.175 305.877ZM420.338 305.687L424.893 309.592L424.929 309.55L424.964 309.507L420.338 305.687ZM95.9177 305.877L91.2327 309.625L93.0341 311.877H95.9177V305.877ZM95.8096 305.742L100.495 301.993L100.465 301.956L100.435 301.92L95.8096 305.742ZM24 218.827L18.8102 215.816L16.7142 219.429L19.3745 222.649L24 218.827ZM102.943 82.7602L107.568 78.9376L102.078 72.2957L97.7535 79.7492L102.943 82.7602ZM168.565 162.149L173.761 165.15L175.846 161.54L173.19 158.327L168.565 162.149ZM145.934 201.33L141.316 205.16L146.818 211.797L151.13 204.331L145.934 201.33ZM109.158 156.975L113.777 153.145L108.284 146.52L103.968 153.965L109.158 156.975ZM92.4319 185.82L97.6217 188.831L97.6224 188.83L92.4319 185.82ZM75.6651 214.72L70.4753 211.709L68.3785 215.323L71.0408 218.543L75.6651 214.72ZM118.413 266.425L113.789 270.248L119.28 276.89L123.603 269.435L118.413 266.425ZM139.733 229.663L144.923 232.673L144.925 232.669L139.733 229.663ZM143.394 223.339L138.207 220.325L138.202 220.333L143.394 223.339ZM144.313 221.759L149.501 224.774L149.504 224.767L144.313 221.759ZM151.893 208.68L157.084 211.689L157.088 211.683L151.893 208.68ZM174.537 169.499L179.732 172.501L179.733 172.499L174.537 169.499ZM191.749 139.681L196.946 142.681L196.947 142.679L191.749 139.681ZM258.101 24.6641L263.297 21.6638L258.098 12.6609L252.903 21.6659L258.101 24.6641ZM325.519 141.424V147.424H335.912L330.715 138.424L325.519 141.424ZM325.452 141.424V135.424H315.06L320.255 144.424L325.452 141.424ZM364.241 208.613L359.045 211.613L359.051 211.624L364.241 208.613ZM372.604 223.029L377.795 220.02L377.794 220.018L372.604 223.029ZM377.468 231.419L372.277 234.428L372.278 234.43L377.468 231.419ZM392.627 257.549L397.818 254.539L397.817 254.538L392.627 257.549ZM397.734 266.358L392.543 269.367L396.867 276.825L402.359 270.18L397.734 266.358ZM440.469 214.652L445.093 218.475L447.754 215.256L445.659 211.643L440.469 214.652ZM423.715 185.753L428.906 182.743L428.902 182.737L428.898 182.73L423.715 185.753ZM406.935 156.975L412.118 153.952L407.787 146.524L402.31 153.153L406.935 156.975ZM370.24 201.385L365.044 204.385L369.364 211.864L374.865 205.206L370.24 201.385ZM347.609 162.203L342.983 158.382L340.329 161.595L342.414 165.204L347.609 162.203ZM413.231 82.7602L418.423 79.7527L414.099 72.2883L408.605 78.9391L413.231 82.7602ZM492.053 218.827L496.679 222.647L499.336 219.43L497.244 215.819L492.053 218.827ZM170.2 268.872H346.029V256.872H170.2V268.872ZM252.905 107.62L165.004 259.872L175.396 265.872L263.297 113.619L252.905 107.62ZM351.224 259.871L263.297 107.619L252.905 113.62L340.833 265.873L351.224 259.871ZM116.305 388.077H399.923V376.077H116.305V388.077ZM90.6127 341.673L110.879 384.637L121.732 379.517L101.466 336.553L90.6127 341.673ZM420.297 333.113H96.0393V345.113H420.297V333.113ZM405.344 384.648L425.718 341.684L414.876 336.542L394.502 379.506L405.344 384.648ZM424.731 309.782L424.893 309.592L415.782 301.782L415.62 301.972L424.731 309.782ZM95.9177 311.877H420.175V299.877H95.9177V311.877ZM91.1246 309.49L91.2327 309.625L100.603 302.128L100.495 301.993L91.1246 309.49ZM19.3745 222.649L91.1841 309.563L100.435 301.92L28.6255 215.005L19.3745 222.649ZM97.7535 79.7492L18.8102 215.816L29.1898 221.838L108.133 85.7713L97.7535 79.7492ZM173.19 158.327L107.568 78.9376L98.3186 86.5829L163.94 165.972L173.19 158.327ZM151.13 204.331L173.761 165.15L163.369 159.148L140.739 198.33L151.13 204.331ZM104.539 160.804L141.316 205.16L150.553 197.501L113.777 153.145L104.539 160.804ZM97.6224 188.83L114.349 159.984L103.968 153.965L87.2414 182.81L97.6224 188.83ZM80.8549 217.731L97.6217 188.831L87.2421 182.809L70.4753 211.709L80.8549 217.731ZM123.037 262.602L80.2893 210.896L71.0408 218.543L113.789 270.248L123.037 262.602ZM134.543 226.652L113.223 263.415L123.603 269.435L144.923 232.673L134.543 226.652ZM138.202 220.333L134.541 226.656L144.925 232.669L148.587 226.346L138.202 220.333ZM139.126 218.744L138.207 220.325L148.582 226.354L149.501 224.774L139.126 218.744ZM146.701 205.672L139.122 218.75L149.504 224.767L157.084 211.689L146.701 205.672ZM169.342 166.497L146.698 205.678L157.088 211.683L179.732 172.501L169.342 166.497ZM186.553 136.681L169.34 166.5L179.733 172.499L196.946 142.681L186.553 136.681ZM252.903 21.6659L186.552 136.683L196.947 142.679L263.298 27.6622L252.903 21.6659ZM330.715 138.424L263.297 21.6638L252.905 27.6643L320.323 144.424L330.715 138.424ZM325.452 147.424H325.519V135.424H325.452V147.424ZM369.437 205.613L330.648 138.424L320.255 144.424L359.045 211.613L369.437 205.613ZM377.794 220.018L369.431 205.602L359.051 211.624L367.414 226.04L377.794 220.018ZM382.659 228.41L377.795 220.02L367.413 226.038L372.277 234.428L382.659 228.41ZM397.817 254.538L382.658 228.408L372.278 234.43L387.437 260.56L397.817 254.538ZM402.925 263.348L397.818 254.539L387.436 260.558L392.543 269.367L402.925 263.348ZM435.844 210.83L393.109 262.535L402.359 270.18L445.093 218.475L435.844 210.83ZM418.524 188.762L435.278 217.661L445.659 211.643L428.906 182.743L418.524 188.762ZM401.752 159.997L418.532 188.775L428.898 182.73L412.118 153.952L401.752 159.997ZM374.865 205.206L411.56 160.797L402.31 153.153L365.614 197.563L374.865 205.206ZM342.414 165.204L365.044 204.385L375.435 198.384L352.805 159.202L342.414 165.204ZM408.605 78.9391L342.983 158.382L352.235 166.025L417.857 86.5813L408.605 78.9391ZM497.244 215.819L418.423 79.7527L408.039 85.7678L486.861 221.834L497.244 215.819ZM424.964 309.507L496.679 222.647L487.426 215.007L415.711 301.867L424.964 309.507Z" fill="url(#paint1_linear)" mask="url(#path-3-inside-2)"/>
</g>
<mask id="path-5-inside-3" fill="white">
<path fill-rule="evenodd" clip-rule="evenodd" d="M346.029 262.872H170.2L258.101 110.619L346.029 262.872ZM399.923 382.077H116.305L96.0393 339.113H420.297L399.923 382.077ZM420.338 305.687L420.175 305.877H95.9177L95.8096 305.742L24 218.827L102.943 82.7602L168.565 162.149L145.934 201.33L109.158 156.975L92.4319 185.82L75.6651 214.72L118.413 266.425L139.733 229.663L143.394 223.339L144.313 221.759L151.893 208.68L174.537 169.499L191.749 139.681L258.101 24.6641L325.519 141.424H325.452L364.241 208.613L372.604 223.029L377.468 231.419L392.627 257.549L397.734 266.358L440.469 214.652L423.715 185.753L406.935 156.975L370.24 201.385L347.609 162.203L413.231 82.7602L492.053 218.827L420.338 305.687Z"/>
</mask>
<path d="M170.2 262.872L168.468 261.872L166.736 264.872H170.2V262.872ZM346.029 262.872V264.872H349.493L347.761 261.872L346.029 262.872ZM258.101 110.619L259.833 109.619L258.101 106.62L256.369 109.619L258.101 110.619ZM116.305 382.077L114.497 382.93L115.037 384.077H116.305V382.077ZM399.923 382.077V384.077H401.188L401.73 382.934L399.923 382.077ZM96.0393 339.113V337.113H92.8845L94.2304 339.966L96.0393 339.113ZM420.297 339.113L422.104 339.97L423.459 337.113H420.297V339.113ZM420.175 305.877V307.877H421.095L421.694 307.178L420.175 305.877ZM420.338 305.687L421.856 306.989L421.868 306.975L421.88 306.961L420.338 305.687ZM95.9177 305.877L94.356 307.126L94.9565 307.877H95.9177V305.877ZM95.8096 305.742L97.3713 304.492L97.3614 304.48L97.3514 304.468L95.8096 305.742ZM24 218.827L22.2701 217.823L21.5714 219.027L22.4582 220.101L24 218.827ZM102.943 82.7602L104.485 81.486L102.655 79.2721L101.213 81.7566L102.943 82.7602ZM168.565 162.149L170.297 163.15L170.992 161.946L170.106 160.875L168.565 162.149ZM145.934 201.33L144.395 202.607L146.229 204.819L147.666 202.331L145.934 201.33ZM109.158 156.975L110.698 155.698L108.867 153.49L107.428 155.971L109.158 156.975ZM92.4319 185.82L94.1618 186.824L94.1621 186.823L92.4319 185.82ZM75.6651 214.72L73.9351 213.716L73.2362 214.921L74.1237 215.994L75.6651 214.72ZM118.413 266.425L116.872 267.7L118.702 269.914L120.143 267.429L118.413 266.425ZM139.733 229.663L141.463 230.666L141.464 230.665L139.733 229.663ZM143.394 223.339L141.665 222.335L141.664 222.337L143.394 223.339ZM144.313 221.759L146.042 222.764L146.044 222.762L144.313 221.759ZM151.893 208.68L153.623 209.683L153.624 209.681L151.893 208.68ZM174.537 169.499L176.268 170.5L176.269 170.499L174.537 169.499ZM191.749 139.681L193.481 140.681L193.482 140.68L191.749 139.681ZM258.101 24.6641L259.833 23.664L258.1 20.663L256.368 23.6647L258.101 24.6641ZM325.519 141.424V143.424H328.984L327.251 140.424L325.519 141.424ZM325.452 141.424V139.424H321.988L323.72 142.424L325.452 141.424ZM364.241 208.613L362.509 209.613L362.511 209.616L364.241 208.613ZM372.604 223.029L374.334 222.026L374.334 222.025L372.604 223.029ZM377.468 231.419L375.738 232.422L375.738 232.423L377.468 231.419ZM392.627 257.549L394.357 256.546L394.357 256.545L392.627 257.549ZM397.734 266.358L396.004 267.361L397.445 269.847L399.276 267.632L397.734 266.358ZM440.469 214.652L442.01 215.926L442.897 214.853L442.199 213.649L440.469 214.652ZM423.715 185.753L425.446 184.75L425.443 184.745L423.715 185.753ZM406.935 156.975L408.663 155.967L407.219 153.491L405.393 155.701L406.935 156.975ZM370.24 201.385L368.508 202.385L369.948 204.878L371.782 202.658L370.24 201.385ZM347.609 162.203L346.067 160.93L345.183 162.001L345.877 163.204L347.609 162.203ZM413.231 82.7602L414.962 81.7577L413.52 79.2696L411.689 81.4865L413.231 82.7602ZM492.053 218.827L493.595 220.1L494.48 219.028L493.783 217.824L492.053 218.827ZM170.2 264.872H346.029V260.872H170.2V264.872ZM256.369 109.619L168.468 261.872L171.932 263.872L259.833 111.619L256.369 109.619ZM347.761 261.872L259.833 109.619L256.369 111.62L344.297 263.872L347.761 261.872ZM116.305 384.077H399.923V380.077H116.305V384.077ZM94.2304 339.966L114.497 382.93L118.114 381.224L97.8481 338.26L94.2304 339.966ZM420.297 337.113H96.0393V341.113H420.297V337.113ZM401.73 382.934L422.104 339.97L418.49 338.256L398.116 381.22L401.73 382.934ZM421.694 307.178L421.856 306.989L418.819 304.386L418.657 304.575L421.694 307.178ZM95.9177 307.877H420.175V303.877H95.9177V307.877ZM94.2479 306.991L94.356 307.126L97.4793 304.627L97.3713 304.492L94.2479 306.991ZM22.4582 220.101L94.2678 307.015L97.3514 304.468L25.5418 217.553L22.4582 220.101ZM101.213 81.7566L22.2701 217.823L25.7299 219.831L104.673 83.7639L101.213 81.7566ZM170.106 160.875L104.485 81.486L101.402 84.0345L167.023 163.424L170.106 160.875ZM147.666 202.331L170.297 163.15L166.833 161.149L144.203 200.33L147.666 202.331ZM107.619 158.251L144.395 202.607L147.474 200.054L110.698 155.698L107.619 158.251ZM94.1621 186.823L110.888 157.978L107.428 155.971L90.7017 184.817L94.1621 186.823ZM77.395 215.723L94.1618 186.824L90.702 184.817L73.9351 213.716L77.395 215.723ZM119.954 265.151L77.2065 213.445L74.1237 215.994L116.872 267.7L119.954 265.151ZM138.003 228.659L116.683 265.422L120.143 267.429L141.463 230.666L138.003 228.659ZM141.664 222.337L138.002 228.66L141.464 230.665L145.125 224.342L141.664 222.337ZM142.584 220.754L141.665 222.335L145.124 224.344L146.042 222.764L142.584 220.754ZM150.162 207.677L142.583 220.756L146.044 222.762L153.623 209.683L150.162 207.677ZM172.805 168.498L150.161 207.68L153.624 209.681L176.268 170.5L172.805 168.498ZM190.017 138.681L172.805 168.499L176.269 170.499L193.481 140.681L190.017 138.681ZM256.368 23.6647L190.017 138.682L193.482 140.68L259.833 25.6635L256.368 23.6647ZM327.251 140.424L259.833 23.664L256.369 25.6641L323.787 142.424L327.251 140.424ZM325.452 143.424H325.519V139.424H325.452V143.424ZM365.973 207.613L327.184 140.424L323.72 142.424L362.509 209.613L365.973 207.613ZM374.334 222.025L365.971 207.609L362.511 209.616L370.874 224.032L374.334 222.025ZM379.198 230.416L374.334 222.026L370.874 224.032L375.738 232.422L379.198 230.416ZM394.357 256.545L379.198 230.415L375.738 232.423L390.897 258.552L394.357 256.545ZM399.464 265.355L394.357 256.546L390.897 258.552L396.004 267.361L399.464 265.355ZM438.927 213.378L396.193 265.084L399.276 267.632L442.01 215.926L438.927 213.378ZM421.985 186.756L438.738 215.655L442.199 213.649L425.446 184.75L421.985 186.756ZM405.207 157.982L421.988 186.76L425.443 184.745L408.663 155.967L405.207 157.982ZM371.782 202.658L408.477 158.249L405.393 155.701L368.698 200.111L371.782 202.658ZM345.877 163.204L368.508 202.385L371.972 200.384L349.341 161.203L345.877 163.204ZM411.689 81.4865L346.067 160.93L349.151 163.477L414.773 84.0339L411.689 81.4865ZM493.783 217.824L414.962 81.7577L411.5 83.7628L490.322 219.829L493.783 217.824ZM421.88 306.961L493.595 220.1L490.51 217.554L418.795 304.414L421.88 306.961Z" fill="white" mask="url(#path-5-inside-3)"/>
<defs>
<filter id="filter0_f" x="0" y="0.664062" width="516.053" height="405.413" filterUnits="userSpaceOnUse" color-interpolation-filters="sRGB">
<feFlood flood-opacity="0" result="BackgroundImageFix"/>
<feBlend mode="normal" in="SourceGraphic" in2="BackgroundImageFix" result="shape"/>
<feGaussianBlur stdDeviation="12" result="effect1_foregroundBlur"/>
</filter>
<filter id="filter1_f" x="9" y="9.66406" width="498.053" height="387.413" filterUnits="userSpaceOnUse" color-interpolation-filters="sRGB">
<feFlood flood-opacity="0" result="BackgroundImageFix"/>
<feBlend mode="normal" in="SourceGraphic" in2="BackgroundImageFix" result="shape"/>
<feGaussianBlur stdDeviation="7.5" result="effect1_foregroundBlur"/>
</filter>
<linearGradient id="paint0_linear" x1="437.464" y1="197.844" x2="68.6786" y2="198.233" gradientUnits="userSpaceOnUse">
<stop stop-color="#FF1640"/>
<stop offset="0.315399" stop-color="#FABA33"/>
<stop offset="0.573227" stop-color="#E9E031"/>
<stop offset="0.826995" stop-color="#45F273"/>
<stop offset="1" stop-color="#30FFE9"/>
</linearGradient>
<linearGradient id="paint1_linear" x1="437.464" y1="197.844" x2="68.6786" y2="198.233" gradientUnits="userSpaceOnUse">
<stop stop-color="#FF1640"/>
<stop offset="0.315399" stop-color="#FABA33"/>
<stop offset="0.573227" stop-color="#E9E031"/>
<stop offset="0.826995" stop-color="#45F273"/>
<stop offset="1" stop-color="#30FFE9"/>
</linearGradient>
</defs>
</svg>
