<svg width="532" height="425" viewBox="0 0 532 425" fill="none" xmlns="http://www.w3.org/2000/svg">
<g filter="url(#filter0_f)">
<path d="M178.277 274.964L173.081 271.964L167.885 280.964H178.277V274.964ZM354.106 274.964V280.964H364.499L359.301 271.964L354.106 274.964ZM266.178 122.712L271.373 119.711L266.177 110.713L260.981 119.712L266.178 122.712ZM124.382 394.169L118.956 396.729L120.578 400.169H124.382V394.169ZM408 394.169V400.169H411.795L413.421 396.74L408 394.169ZM104.116 351.205V345.205H94.6519L98.6895 353.765L104.116 351.205ZM428.374 351.205L433.795 353.776L437.86 345.205H428.374V351.205ZM428.252 317.969V323.969H431.012L432.808 321.874L428.252 317.969ZM428.414 317.78L432.97 321.685L433.006 321.643L433.041 321.6L428.414 317.78ZM103.995 317.969L99.3095 321.717L101.111 323.969H103.995V317.969ZM103.886 317.834L108.571 314.085L108.542 314.049L108.512 314.012L103.886 317.834ZM32.0768 230.919L26.8871 227.908L24.791 231.521L27.4513 234.741L32.0768 230.919ZM111.02 94.8525L115.645 91.0299L110.155 84.388L105.83 91.8415L111.02 94.8525ZM176.642 174.242L181.837 177.243L183.923 173.632L181.266 170.419L176.642 174.242ZM154.011 213.423L149.392 217.252L154.895 223.889L159.207 216.424L154.011 213.423ZM117.235 169.067L121.854 165.237L116.361 158.613L112.045 166.057L117.235 169.067ZM100.509 197.912L105.699 200.923L105.699 200.922L100.509 197.912ZM83.7419 226.812L78.5521 223.801L76.4554 227.415L79.1177 230.635L83.7419 226.812ZM126.49 278.518L121.866 282.341L127.357 288.983L131.68 281.528L126.49 278.518ZM147.81 241.755L153 244.765L153.002 244.761L147.81 241.755ZM151.471 235.432L146.284 232.417L146.279 232.425L151.471 235.432ZM152.39 233.851L157.577 236.866L157.581 236.86L152.39 233.851ZM159.97 220.773L165.161 223.781L165.164 223.775L159.97 220.773ZM182.614 181.591L187.808 184.594L187.81 184.591L182.614 181.591ZM199.826 151.773L205.023 154.773L205.023 154.771L199.826 151.773ZM266.177 36.7563L271.373 33.7561L266.175 24.7532L260.98 33.7582L266.177 36.7563ZM333.596 153.516V159.516H343.989L338.792 150.516L333.596 153.516ZM333.529 153.516V147.516H323.137L328.332 156.516L333.529 153.516ZM372.318 220.705L367.122 223.705L367.128 223.716L372.318 220.705ZM380.681 235.121L385.872 232.112L385.871 232.11L380.681 235.121ZM385.545 243.511L380.354 246.52L380.355 246.522L385.545 243.511ZM400.704 269.641L405.895 266.632L405.894 266.63L400.704 269.641ZM405.811 278.45L400.62 281.459L404.944 288.917L410.436 282.272L405.811 278.45ZM448.545 226.744L453.17 230.567L455.831 227.348L453.736 223.735L448.545 226.744ZM431.792 197.845L436.983 194.836L436.979 194.829L436.975 194.823L431.792 197.845ZM415.012 169.067L420.195 166.045L415.864 158.617L410.386 165.245L415.012 169.067ZM378.317 213.477L373.121 216.478L377.441 223.957L382.942 217.299L378.317 213.477ZM355.686 174.296L351.06 170.475L348.406 173.688L350.49 177.297L355.686 174.296ZM421.308 94.8525L426.5 91.845L422.176 84.3806L416.682 91.0314L421.308 94.8525ZM500.129 230.919L504.756 234.739L507.413 231.522L505.321 227.912L500.129 230.919ZM178.277 280.964H354.106V268.964H178.277V280.964ZM260.981 119.712L173.081 271.964L183.473 277.964L271.374 125.712L260.981 119.712ZM359.301 271.964L271.373 119.711L260.982 125.712L348.91 277.965L359.301 271.964ZM124.382 400.169H408V388.169H124.382V400.169ZM98.6895 353.765L118.956 396.729L129.809 391.61L109.543 348.646L98.6895 353.765ZM428.374 345.205H104.116V357.205H428.374V345.205ZM413.421 396.74L433.795 353.776L422.953 348.634L402.578 391.599L413.421 396.74ZM432.808 321.874L432.97 321.685L423.859 313.875L423.697 314.064L432.808 321.874ZM103.995 323.969H428.252V311.969H103.995V323.969ZM99.2014 321.582L99.3095 321.717L108.68 314.22L108.571 314.085L99.2014 321.582ZM27.4513 234.741L99.2609 321.655L108.512 314.012L36.7023 227.098L27.4513 234.741ZM105.83 91.8415L26.8871 227.908L37.2666 233.93L116.21 97.8635L105.83 91.8415ZM181.266 170.419L115.645 91.0299L106.395 98.6752L172.017 178.064L181.266 170.419ZM159.207 216.424L181.837 177.243L171.446 171.241L148.816 210.422L159.207 216.424ZM112.616 172.897L149.392 217.252L158.63 209.593L121.854 165.237L112.616 172.897ZM105.699 200.922L122.426 172.077L112.045 166.057L95.3182 194.903L105.699 200.922ZM88.9317 229.823L105.699 200.923L95.319 194.901L78.5521 223.801L88.9317 229.823ZM131.114 274.694L88.3662 222.989L79.1177 230.635L121.866 282.341L131.114 274.694ZM142.62 238.745L121.3 275.507L131.68 281.528L153 244.765L142.62 238.745ZM146.279 232.425L142.618 238.748L153.002 244.761L156.664 238.438L146.279 232.425ZM147.203 230.836L146.284 232.417L156.659 238.447L157.577 236.866L147.203 230.836ZM154.778 217.764L147.199 230.842L157.581 236.86L165.161 223.781L154.778 217.764ZM177.419 178.589L154.775 217.77L165.164 223.775L187.808 184.594L177.419 178.589ZM194.63 148.774L177.417 178.592L187.81 184.591L205.023 154.773L194.63 148.774ZM260.98 33.7582L194.629 148.775L205.023 154.771L271.375 39.7545L260.98 33.7582ZM338.792 150.516L271.373 33.7561L260.981 39.7566L328.4 156.516L338.792 150.516ZM333.529 159.516H333.596V147.516H333.529V159.516ZM377.514 217.705L338.725 150.516L328.332 156.516L367.122 223.705L377.514 217.705ZM385.871 232.11L377.508 217.694L367.128 223.716L375.491 238.132L385.871 232.11ZM390.736 240.502L385.872 232.112L375.49 238.13L380.354 246.52L390.736 240.502ZM405.894 266.63L390.735 240.5L380.355 246.522L395.514 272.652L405.894 266.63ZM411.002 275.441L405.895 266.632L395.513 272.65L400.62 281.459L411.002 275.441ZM443.921 222.922L401.186 274.628L410.436 282.272L453.17 230.567L443.921 222.922ZM426.601 200.854L443.355 229.754L453.736 223.735L436.983 194.836L426.601 200.854ZM409.829 172.089L426.609 200.867L436.975 194.823L420.195 166.045L409.829 172.089ZM382.942 217.299L419.637 172.889L410.386 165.245L373.691 209.655L382.942 217.299ZM350.49 177.297L373.121 216.478L383.512 210.476L360.882 171.295L350.49 177.297ZM416.682 91.0314L351.06 170.475L360.312 178.117L425.934 98.6736L416.682 91.0314ZM505.321 227.912L426.5 91.845L416.116 97.8601L494.938 233.927L505.321 227.912ZM433.041 321.6L504.756 234.739L495.503 227.099L423.788 313.96L433.041 321.6Z" fill="url(#paint0_linear)"/>
</g>
<g filter="url(#filter1_f)">
<g filter="url(#filter2_f)">
<path d="M178.277 266.964L175.679 265.464L173.081 269.964H178.277V266.964ZM354.106 266.964V269.964H359.302L356.703 265.464L354.106 266.964ZM266.178 114.712L268.776 113.211L266.177 108.712L263.58 113.212L266.178 114.712ZM124.382 386.169L121.669 387.449L122.48 389.169H124.382V386.169ZM408 386.169V389.169H409.897L410.71 387.455L408 386.169ZM104.116 343.205V340.205H99.384L101.403 344.485L104.116 343.205ZM428.374 343.205L431.085 344.491L433.117 340.205H428.374V343.205ZM428.252 309.969V312.969H429.632L430.53 311.921L428.252 309.969ZM428.414 309.78L430.692 311.732L430.71 311.711L430.728 311.69L428.414 309.78ZM103.995 309.969L101.652 311.843L102.553 312.969H103.995V309.969ZM103.886 309.834L106.229 307.96L106.214 307.941L106.199 307.923L103.886 309.834ZM32.0768 222.919L29.482 221.414L28.4339 223.22L29.7641 224.83L32.0768 222.919ZM111.02 86.8525L113.332 84.9412L110.587 81.6203L108.425 85.347L111.02 86.8525ZM176.642 166.242L179.24 167.742L180.282 165.937L178.954 164.33L176.642 166.242ZM154.011 205.423L151.702 207.338L154.453 210.656L156.609 206.923L154.011 205.423ZM117.235 161.067L119.544 159.152L116.798 155.84L114.64 159.562L117.235 161.067ZM100.509 189.912L103.104 191.418L103.104 191.417L100.509 189.912ZM83.7419 218.812L81.147 217.306L80.0986 219.113L81.4298 220.723L83.7419 218.812ZM126.49 270.518L124.178 272.429L126.923 275.75L129.085 272.023L126.49 270.518ZM147.81 233.755L150.405 235.26L150.406 235.258L147.81 233.755ZM151.471 227.432L148.878 225.924L148.875 225.928L151.471 227.432ZM152.39 225.851L154.984 227.359L154.986 227.355L152.39 225.851ZM159.97 212.773L162.565 214.277L162.567 214.274L159.97 212.773ZM182.614 173.591L185.211 175.093L185.212 175.091L182.614 173.591ZM199.826 143.773L202.424 145.273L202.425 145.272L199.826 143.773ZM266.177 28.7563L268.775 27.2562L266.176 22.7548L263.579 27.2573L266.177 28.7563ZM333.596 145.516V148.516H338.793L336.194 144.016L333.596 145.516ZM333.529 145.516V142.516H328.332L330.93 147.016L333.529 145.516ZM372.318 212.705L369.72 214.205L369.723 214.21L372.318 212.705ZM380.681 227.121L383.276 225.616L383.276 225.616L380.681 227.121ZM385.545 235.511L382.949 237.016L382.95 237.017L385.545 235.511ZM400.704 261.641L403.299 260.136L403.299 260.136L400.704 261.641ZM405.811 270.45L403.216 271.955L405.377 275.684L408.123 272.361L405.811 270.45ZM448.545 218.744L450.858 220.656L452.188 219.046L451.141 217.24L448.545 218.744ZM431.792 189.845L434.388 188.34L434.384 188.334L431.792 189.845ZM415.012 161.067L417.603 159.556L415.438 155.842L412.699 159.156L415.012 161.067ZM378.317 205.477L375.719 206.977L377.879 210.717L380.629 207.388L378.317 205.477ZM355.686 166.296L353.373 164.385L352.046 165.992L353.088 167.796L355.686 166.296ZM421.308 86.8525L423.904 85.3488L421.742 81.6166L418.995 84.942L421.308 86.8525ZM500.129 222.919L502.443 224.829L503.771 223.221L502.725 221.415L500.129 222.919ZM178.277 269.964H354.106V263.964H178.277V269.964ZM263.58 113.212L175.679 265.464L180.875 268.464L268.776 116.212L263.58 113.212ZM356.703 265.464L268.776 113.211L263.58 116.212L351.508 268.465L356.703 265.464ZM124.382 389.169H408V383.169H124.382V389.169ZM101.403 344.485L121.669 387.449L127.096 384.89L106.829 341.925L101.403 344.485ZM428.374 340.205H104.116V346.205H428.374V340.205ZM410.71 387.455L431.085 344.491L425.663 341.92L405.289 384.884L410.71 387.455ZM430.53 311.921L430.692 311.732L426.137 307.827L425.975 308.016L430.53 311.921ZM103.995 312.969H428.252V306.969H103.995V312.969ZM101.544 311.708L101.652 311.843L106.337 308.095L106.229 307.96L101.544 311.708ZM29.7641 224.83L101.574 311.745L106.199 307.923L34.3896 221.008L29.7641 224.83ZM108.425 85.347L29.482 221.414L34.6717 224.425L113.615 88.358L108.425 85.347ZM178.954 164.33L113.332 84.9412L108.708 88.7639L174.329 168.153L178.954 164.33ZM156.609 206.923L179.24 167.742L174.044 164.741L151.413 203.922L156.609 206.923ZM114.926 162.982L151.702 207.338L156.321 203.508L119.544 159.152L114.926 162.982ZM103.104 191.417L119.83 162.572L114.64 159.562L97.9135 188.408L103.104 191.417ZM86.3368 220.317L103.104 191.418L97.9138 188.407L81.147 217.306L86.3368 220.317ZM128.802 268.606L86.054 216.9L81.4298 220.723L124.178 272.429L128.802 268.606ZM145.215 232.25L123.895 269.013L129.085 272.023L150.405 235.26L145.215 232.25ZM148.875 225.928L145.214 232.251L150.406 235.258L154.067 228.935L148.875 225.928ZM149.796 224.344L148.878 225.924L154.065 228.939L154.984 227.359L149.796 224.344ZM157.374 211.268L149.794 224.347L154.986 227.355L162.565 214.277L157.374 211.268ZM180.016 172.09L157.372 211.271L162.567 214.274L185.211 175.093L180.016 172.09ZM197.228 142.273L180.015 172.092L185.212 175.091L202.424 145.273L197.228 142.273ZM263.579 27.2573L197.228 142.274L202.425 145.272L268.776 30.2554L263.579 27.2573ZM336.194 144.016L268.775 27.2562L263.579 30.2565L330.998 147.016L336.194 144.016ZM333.529 148.516H333.596V142.516H333.529V148.516ZM374.916 211.205L336.127 144.016L330.93 147.016L369.72 214.205L374.916 211.205ZM383.276 225.616L374.913 211.2L369.723 214.21L378.086 228.626L383.276 225.616ZM388.14 234.007L383.276 225.616L378.086 228.626L382.949 237.016L388.14 234.007ZM403.299 260.136L388.14 234.006L382.95 237.017L398.109 263.146L403.299 260.136ZM408.406 268.945L403.299 260.136L398.109 263.146L403.216 271.955L408.406 268.945ZM446.233 216.833L403.499 268.539L408.123 272.361L450.858 220.656L446.233 216.833ZM429.197 191.349L445.95 220.249L451.141 217.24L434.388 188.34L429.197 191.349ZM412.42 162.578L429.201 191.356L434.384 188.334L417.603 159.556L412.42 162.578ZM380.629 207.388L417.324 162.978L412.699 159.156L376.004 203.566L380.629 207.388ZM353.088 167.796L375.719 206.977L380.914 203.976L358.284 164.795L353.088 167.796ZM418.995 84.942L353.373 164.385L357.999 168.206L423.621 88.7631L418.995 84.942ZM502.725 221.415L423.904 85.3488L418.712 88.3563L497.534 224.423L502.725 221.415ZM430.728 311.69L502.443 224.829L497.816 221.009L426.101 307.87L430.728 311.69Z" fill="url(#paint1_linear)"/>
</g>
</g>
<path d="M178.277 266.964L176.978 266.214L175.679 268.464H178.277V266.964ZM354.106 266.964V268.464H356.704L355.405 266.214L354.106 266.964ZM266.178 114.712L267.477 113.962L266.177 111.712L264.879 113.962L266.178 114.712ZM124.382 386.169L123.026 386.809L123.431 387.669H124.382V386.169ZM408 386.169V387.669H408.948L409.355 386.812L408 386.169ZM104.116 343.205V341.705H101.75L102.759 343.845L104.116 343.205ZM428.374 343.205L429.729 343.848L430.745 341.705H428.374V343.205ZM428.252 309.969V311.469H428.942L429.391 310.945L428.252 309.969ZM428.414 309.78L429.553 310.756L429.562 310.745L429.571 310.735L428.414 309.78ZM103.995 309.969L102.823 310.906L103.274 311.469H103.995V309.969ZM103.886 309.834L105.058 308.897L105.05 308.887L105.043 308.878L103.886 309.834ZM32.0768 222.919L30.7794 222.166L30.2554 223.07L30.9205 223.875L32.0768 222.919ZM111.02 86.8525L112.176 85.8969L110.804 84.2364L109.723 86.0998L111.02 86.8525ZM176.642 166.242L177.941 166.992L178.462 166.089L177.798 165.286L176.642 166.242ZM154.011 205.423L152.857 206.38L154.232 208.039L155.31 206.173L154.011 205.423ZM117.235 161.067L118.39 160.11L117.017 158.453L115.937 160.315L117.235 161.067ZM100.509 189.912L101.806 190.665L101.806 190.665L100.509 189.912ZM83.7419 218.812L82.4445 218.059L81.9203 218.963L82.5859 219.768L83.7419 218.812ZM126.49 270.518L125.334 271.473L126.707 273.134L127.787 271.27L126.49 270.518ZM147.81 233.755L149.107 234.507L149.108 234.506L147.81 233.755ZM151.471 227.432L150.174 226.678L150.173 226.68L151.471 227.432ZM152.39 225.851L153.687 226.605L153.688 226.603L152.39 225.851ZM159.97 212.773L161.267 213.525L161.268 213.523L159.97 212.773ZM182.614 173.591L183.912 174.342L183.913 174.341L182.614 173.591ZM199.826 143.773L201.125 144.523L201.126 144.523L199.826 143.773ZM266.177 28.7563L267.476 28.0063L266.177 25.7556L264.878 28.0068L266.177 28.7563ZM333.596 145.516V147.016H336.194L334.895 144.766L333.596 145.516ZM333.529 145.516V144.016H330.931L332.229 146.266L333.529 145.516ZM372.318 212.705L371.019 213.455L371.02 213.458L372.318 212.705ZM380.681 227.121L381.979 226.369L381.978 226.368L380.681 227.121ZM385.545 235.511L384.247 236.264L384.247 236.264L385.545 235.511ZM400.704 261.641L402.002 260.889L402.001 260.888L400.704 261.641ZM405.811 270.45L404.513 271.202L405.594 273.067L406.967 271.406L405.811 270.45ZM448.545 218.744L449.702 219.7L450.367 218.895L449.843 217.992L448.545 218.744ZM431.792 189.845L433.09 189.093L433.088 189.089L431.792 189.845ZM415.012 161.067L416.308 160.311L415.225 158.454L413.855 160.112L415.012 161.067ZM378.317 205.477L377.018 206.227L378.098 208.097L379.473 206.432L378.317 205.477ZM355.686 166.296L354.53 165.34L353.866 166.144L354.387 167.046L355.686 166.296ZM421.308 86.8525L422.606 86.1006L421.525 84.2346L420.151 85.8973L421.308 86.8525ZM500.129 222.919L501.286 223.874L501.95 223.07L501.427 222.167L500.129 222.919ZM178.277 268.464H354.106V265.464H178.277V268.464ZM264.879 113.962L176.978 266.214L179.576 267.714L267.477 115.462L264.879 113.962ZM355.405 266.214L267.477 113.962L264.879 115.462L352.807 267.714L355.405 266.214ZM124.382 387.669H408V384.669H124.382V387.669ZM102.759 343.845L123.026 386.809L125.739 385.53L105.473 342.565L102.759 343.845ZM428.374 341.705H104.116V344.705H428.374V341.705ZM409.355 386.812L429.729 343.848L427.019 342.563L406.644 385.527L409.355 386.812ZM429.391 310.945L429.553 310.756L427.276 308.803L427.113 308.993L429.391 310.945ZM103.995 311.469H428.252V308.469H103.995V311.469ZM102.715 310.771L102.823 310.906L105.166 309.032L105.058 308.897L102.715 310.771ZM30.9205 223.875L102.73 310.789L105.043 308.878L33.2332 221.964L30.9205 223.875ZM109.723 86.0998L30.7794 222.166L33.3743 223.672L112.318 87.6053L109.723 86.0998ZM177.798 165.286L112.176 85.8969L109.864 87.8082L175.486 167.197L177.798 165.286ZM155.31 206.173L177.941 166.992L175.343 165.491L152.712 204.673L155.31 206.173ZM116.08 162.024L152.857 206.38L155.166 204.465L118.39 160.11L116.08 162.024ZM101.806 190.665L118.533 161.819L115.937 160.315L99.2111 189.16L101.806 190.665ZM85.0394 219.565L101.806 190.665L99.2113 189.16L82.4445 218.059L85.0394 219.565ZM127.646 269.562L84.898 217.856L82.5859 219.768L125.334 271.473L127.646 269.562ZM146.512 233.002L125.192 269.765L127.787 271.27L149.107 234.507L146.512 233.002ZM150.173 226.68L146.512 233.003L149.108 234.506L152.769 228.183L150.173 226.68ZM151.093 225.097L150.174 226.678L152.768 228.186L153.687 226.605L151.093 225.097ZM158.672 212.02L151.092 225.099L153.688 226.603L161.267 213.525L158.672 212.02ZM181.315 172.841L158.671 212.022L161.268 213.523L183.912 174.342L181.315 172.841ZM198.527 143.023L181.314 172.842L183.913 174.341L201.125 144.523L198.527 143.023ZM264.878 28.0068L198.527 143.024L201.126 144.523L267.477 29.5059L264.878 28.0068ZM334.895 144.766L267.476 28.0063L264.878 29.5064L332.297 146.266L334.895 144.766ZM333.529 147.016H333.596V144.016H333.529V147.016ZM373.617 211.955L334.828 144.766L332.229 146.266L371.019 213.455L373.617 211.955ZM381.978 226.368L373.615 211.952L371.02 213.458L379.383 227.874L381.978 226.368ZM386.843 234.759L381.979 226.369L379.383 227.873L384.247 236.264L386.843 234.759ZM402.001 260.888L386.842 234.758L384.247 236.264L399.406 262.394L402.001 260.888ZM407.109 269.698L402.002 260.889L399.406 262.393L404.513 271.202L407.109 269.698ZM447.389 217.789L404.655 269.494L406.967 271.406L449.702 219.7L447.389 217.789ZM430.494 190.597L447.248 219.497L449.843 217.992L433.09 189.093L430.494 190.597ZM413.716 161.823L430.496 190.6L433.088 189.089L416.308 160.311L413.716 161.823ZM379.473 206.432L416.168 162.022L413.855 160.112L377.16 204.521L379.473 206.432ZM354.387 167.046L377.018 206.227L379.616 204.727L356.985 165.545L354.387 167.046ZM420.151 85.8973L354.53 165.34L356.843 167.251L422.464 87.8078L420.151 85.8973ZM501.427 222.167L422.606 86.1006L420.01 87.6044L498.832 223.671L501.427 222.167ZM429.571 310.735L501.286 223.874L498.973 221.964L427.258 308.825L429.571 310.735Z" fill="url(#paint2_linear)"/>
<path d="M178.277 266.964L177.411 266.464L176.545 267.964H178.277V266.964ZM354.106 266.964V267.964H355.838L354.972 266.464L354.106 266.964ZM266.178 114.712L267.044 114.212L266.178 112.712L265.312 114.212L266.178 114.712ZM124.382 386.169L123.478 386.596L123.748 387.169H124.382V386.169ZM408 386.169V387.169H408.632L408.903 386.598L408 386.169ZM104.116 343.205V342.205H102.539L103.212 343.632L104.116 343.205ZM428.374 343.205L429.277 343.634L429.955 342.205H428.374V343.205ZM428.252 309.969V310.969H428.712L429.012 310.62L428.252 309.969ZM428.414 309.78L429.174 310.431L429.18 310.424L429.186 310.416L428.414 309.78ZM103.995 309.969L103.214 310.594L103.514 310.969H103.995V309.969ZM103.886 309.834L104.667 309.209L104.662 309.203L104.657 309.197L103.886 309.834ZM32.0768 222.919L31.2119 222.417L30.8625 223.019L31.3059 223.556L32.0768 222.919ZM111.02 86.8525L111.791 86.2154L110.876 85.1084L110.155 86.3507L111.02 86.8525ZM176.642 166.242L177.508 166.742L177.855 166.14L177.413 165.605L176.642 166.242ZM154.011 205.423L153.241 206.061L154.159 207.167L154.877 205.923L154.011 205.423ZM117.235 161.067L118.005 160.429L117.089 159.325L116.37 160.565L117.235 161.067ZM100.509 189.912L101.374 190.414L101.374 190.414L100.509 189.912ZM83.7419 218.812L82.877 218.31L82.5275 218.912L82.9712 219.449L83.7419 218.812ZM126.49 270.518L125.719 271.155L126.634 272.262L127.355 271.019L126.49 270.518ZM147.81 233.755L148.675 234.256L148.675 234.256L147.81 233.755ZM151.471 227.432L150.607 226.929L150.606 226.931L151.471 227.432ZM152.39 225.851L153.255 226.354L153.255 226.352L152.39 225.851ZM159.97 212.773L160.835 213.274L160.835 213.273L159.97 212.773ZM182.614 173.591L183.479 174.092L183.48 174.091L182.614 173.591ZM199.826 143.773L200.692 144.273L200.692 144.273L199.826 143.773ZM266.177 28.7563L267.043 28.2563L266.177 26.7558L265.311 28.2567L266.177 28.7563ZM333.596 145.516V146.516H335.328L334.462 145.016L333.596 145.516ZM333.529 145.516V144.516H331.797L332.662 146.016L333.529 145.516ZM372.318 212.705L371.452 213.205L371.453 213.207L372.318 212.705ZM380.681 227.121L381.546 226.62L381.546 226.619L380.681 227.121ZM385.545 235.511L384.68 236.013L384.68 236.013L385.545 235.511ZM400.704 261.641L401.569 261.139L401.569 261.139L400.704 261.641ZM405.811 270.45L404.946 270.952L405.666 272.195L406.582 271.087L405.811 270.45ZM448.545 218.744L449.316 219.381L449.76 218.845L449.411 218.243L448.545 218.744ZM431.792 189.845L432.657 189.343L432.656 189.341L431.792 189.845ZM415.012 161.067L415.876 160.563L415.154 159.325L414.241 160.43L415.012 161.067ZM378.317 205.477L377.451 205.977L378.171 207.223L379.087 206.114L378.317 205.477ZM355.686 166.296L354.915 165.659L354.473 166.194L354.82 166.796L355.686 166.296ZM421.308 86.8525L422.173 86.3513L421.452 85.1072L420.537 86.2157L421.308 86.8525ZM500.129 222.919L500.901 223.556L501.343 223.02L500.995 222.418L500.129 222.919ZM178.277 267.964H354.106V265.964H178.277V267.964ZM265.312 114.212L177.411 266.464L179.143 267.464L267.044 115.212L265.312 114.212ZM354.972 266.464L267.044 114.212L265.312 115.212L353.24 267.464L354.972 266.464ZM124.382 387.169H408V385.169H124.382V387.169ZM103.212 343.632L123.478 386.596L125.287 385.743L105.021 342.779L103.212 343.632ZM428.374 342.205H104.116V344.205H428.374V342.205ZM408.903 386.598L429.277 343.634L427.47 342.777L407.096 385.741L408.903 386.598ZM429.012 310.62L429.174 310.431L427.655 309.129L427.493 309.318L429.012 310.62ZM103.995 310.969H428.252V308.969H103.995V310.969ZM103.106 310.459L103.214 310.594L104.775 309.344L104.667 309.209L103.106 310.459ZM31.3059 223.556L103.116 310.471L104.657 309.197L32.8478 222.282L31.3059 223.556ZM110.155 86.3507L31.2119 222.417L32.9418 223.421L111.885 87.3544L110.155 86.3507ZM177.413 165.605L111.791 86.2154L110.249 87.4896L175.871 166.879L177.413 165.605ZM154.877 205.923L177.508 166.742L175.776 165.741L153.145 204.923L154.877 205.923ZM116.465 161.705L153.241 206.061L154.781 204.785L118.005 160.429L116.465 161.705ZM101.374 190.414L118.1 161.569L116.37 160.565L99.6437 189.411L101.374 190.414ZM84.6069 219.314L101.374 190.414L99.6438 189.411L82.877 218.31L84.6069 219.314ZM127.261 269.88L84.5126 218.175L82.9712 219.449L125.719 271.155L127.261 269.88ZM146.945 233.253L125.625 270.016L127.355 271.019L148.675 234.256L146.945 233.253ZM150.606 226.931L146.944 233.254L148.675 234.256L152.337 227.933L150.606 226.931ZM151.525 225.349L150.607 226.929L152.336 227.934L153.255 226.354L151.525 225.349ZM159.104 212.271L151.525 225.35L153.255 226.352L160.835 213.274L159.104 212.271ZM181.748 173.091L159.104 212.272L160.835 213.273L183.479 174.092L181.748 173.091ZM198.96 143.273L181.747 173.092L183.48 174.091L200.692 144.273L198.96 143.273ZM265.311 28.2567L198.96 143.274L200.692 144.273L267.044 29.256L265.311 28.2567ZM334.462 145.016L267.043 28.2563L265.311 29.2564L332.73 146.016L334.462 145.016ZM333.529 146.516H333.596V144.516H333.529V146.516ZM373.184 212.205L334.395 145.016L332.662 146.016L371.452 213.205L373.184 212.205ZM381.546 226.619L373.183 212.203L371.453 213.207L379.816 227.623L381.546 226.619ZM386.41 235.01L381.546 226.62L379.816 227.623L384.68 236.013L386.41 235.01ZM401.569 261.139L386.41 235.009L384.68 236.013L399.839 262.143L401.569 261.139ZM406.676 269.948L401.569 261.139L399.839 262.143L404.946 270.952L406.676 269.948ZM447.775 218.107L405.04 269.813L406.582 271.087L449.316 219.381L447.775 218.107ZM430.927 190.346L447.68 219.246L449.411 218.243L432.657 189.343L430.927 190.346ZM414.148 161.571L430.928 190.349L432.656 189.341L415.876 160.563L414.148 161.571ZM379.087 206.114L415.783 161.704L414.241 160.43L377.546 204.84L379.087 206.114ZM354.82 166.796L377.451 205.977L379.183 204.977L356.552 165.796L354.82 166.796ZM420.537 86.2157L354.915 165.659L356.457 166.933L422.079 87.4894L420.537 86.2157ZM500.995 222.418L422.173 86.3513L420.442 87.3538L499.264 223.42L500.995 222.418ZM429.186 310.416L500.901 223.556L499.358 222.283L427.643 309.143L429.186 310.416Z" fill="url(#paint3_linear)" fill-opacity="0.69"/>
<path d="M178.277 266.964L177.844 266.714L177.411 267.464H178.277V266.964ZM354.105 266.964V267.464H354.972L354.538 266.714L354.105 266.964ZM266.178 114.712L266.611 114.462L266.177 113.712L265.745 114.462L266.178 114.712ZM124.382 386.169L123.93 386.383L124.065 386.669H124.382V386.169ZM408 386.169V386.669H408.316L408.451 386.384L408 386.169ZM104.116 343.205V342.705H103.327L103.664 343.419L104.116 343.205ZM428.374 343.205L428.826 343.42L429.164 342.705H428.374V343.205ZM428.252 309.969V310.469H428.482L428.632 310.294L428.252 309.969ZM428.414 309.78L428.794 310.105L428.8 310.098L428.414 309.78ZM103.994 309.969L103.604 310.281L103.754 310.469H103.994V309.969ZM103.886 309.834L104.277 309.521L104.272 309.515L103.886 309.834ZM32.0768 222.919L31.6443 222.668L31.4696 222.969L31.6913 223.238L32.0768 222.919ZM111.02 86.8525L111.405 86.534L110.948 85.9805L110.588 86.6016L111.02 86.8525ZM176.642 166.242L177.075 166.492L177.248 166.191L177.027 165.923L176.642 166.242ZM154.011 205.423L153.626 205.742L154.085 206.295L154.444 205.673L154.011 205.423ZM117.235 161.067L117.62 160.748L117.162 160.196L116.802 160.816L117.235 161.067ZM100.509 189.912L100.941 190.163L100.941 190.163L100.509 189.912ZM83.7418 218.812L83.3093 218.561L83.1346 218.862L83.3565 219.131L83.7418 218.812ZM126.49 270.518L126.104 270.836L126.562 271.39L126.922 270.768L126.49 270.518ZM147.81 233.755L148.242 234.006L148.242 234.005L147.81 233.755ZM151.471 227.432L151.039 227.181L151.038 227.181L151.471 227.432ZM152.39 225.851L152.822 226.102L152.823 226.102L152.39 225.851ZM159.969 212.773L160.402 213.023L160.402 213.023L159.969 212.773ZM182.613 173.591L183.046 173.842L183.046 173.841L182.613 173.591ZM199.826 143.773L200.259 144.023L200.259 144.023L199.826 143.773ZM266.177 28.7564L266.61 28.5063L266.177 27.7561L265.744 28.5065L266.177 28.7564ZM333.596 145.516V146.016H334.462L334.029 145.266L333.596 145.516ZM333.528 145.516V145.016H332.662L333.095 145.766L333.528 145.516ZM372.318 212.705L371.885 212.955L371.885 212.956L372.318 212.705ZM380.681 227.121L381.113 226.87L381.113 226.87L380.681 227.121ZM385.545 235.511L385.112 235.762L385.112 235.762L385.545 235.511ZM400.704 261.641L401.136 261.39L401.136 261.39L400.704 261.641ZM405.811 270.45L405.378 270.701L405.739 271.322L406.196 270.769L405.811 270.45ZM448.545 218.744L448.931 219.063L449.152 218.795L448.978 218.494L448.545 218.744ZM431.792 189.845L432.225 189.594L432.224 189.593L431.792 189.845ZM415.012 161.067L415.444 160.815L415.083 160.196L414.626 160.749L415.012 161.067ZM378.316 205.477L377.884 205.727L378.243 206.35L378.702 205.795L378.316 205.477ZM355.686 166.296L355.301 165.977L355.079 166.245L355.253 166.546L355.686 166.296ZM421.308 86.8525L421.74 86.6019L421.38 85.9799L420.922 86.5341L421.308 86.8525ZM500.129 222.919L500.515 223.238L500.736 222.969L500.562 222.669L500.129 222.919ZM178.277 267.464H354.105V266.464H178.277V267.464ZM265.745 114.462L177.844 266.714L178.71 267.214L266.611 114.962L265.745 114.462ZM354.538 266.714L266.611 114.462L265.745 114.962L353.672 267.214L354.538 266.714ZM124.382 386.669H408V385.669H124.382V386.669ZM103.664 343.419L123.93 386.383L124.834 385.956L104.568 342.992L103.664 343.419ZM428.374 342.705H104.116V343.705H428.374V342.705ZM408.451 386.384L428.826 343.42L427.922 342.991L407.548 385.955L408.451 386.384ZM428.632 310.294L428.794 310.105L428.035 309.454L427.873 309.643L428.632 310.294ZM103.994 310.469H428.252V309.469H103.994V310.469ZM103.496 310.146L103.604 310.281L104.385 309.657L104.277 309.521L103.496 310.146ZM31.6913 223.238L103.501 310.152L104.272 309.515L32.4622 222.601L31.6913 223.238ZM110.588 86.6016L31.6443 222.668L32.5092 223.17L111.452 87.1035L110.588 86.6016ZM177.027 165.923L111.405 86.534L110.635 87.1711L176.256 166.56L177.027 165.923ZM154.444 205.673L177.075 166.492L176.209 165.992L153.578 205.173L154.444 205.673ZM116.85 161.386L153.626 205.742L154.396 205.104L117.62 160.748L116.85 161.386ZM100.941 190.163L117.667 161.318L116.802 160.816L100.076 189.662L100.941 190.163ZM84.1743 219.063L100.941 190.163L100.076 189.662L83.3093 218.561L84.1743 219.063ZM126.875 270.199L84.1272 218.493L83.3565 219.131L126.104 270.836L126.875 270.199ZM147.377 233.504L126.057 270.267L126.922 270.768L148.242 234.006L147.377 233.504ZM151.038 227.181L147.377 233.504L148.242 234.005L151.904 227.682L151.038 227.181ZM151.958 225.6L151.039 227.181L151.903 227.683L152.822 226.102L151.958 225.6ZM159.537 212.522L151.957 225.6L152.823 226.102L160.402 213.023L159.537 212.522ZM182.181 173.341L159.537 212.522L160.402 213.023L183.046 173.842L182.181 173.341ZM199.393 143.523L182.18 173.342L183.046 173.841L200.259 144.023L199.393 143.523ZM265.744 28.5065L199.393 143.523L200.259 144.023L266.61 29.0062L265.744 28.5065ZM334.029 145.266L266.61 28.5063L265.744 29.0064L333.163 145.766L334.029 145.266ZM333.528 146.016H333.596V145.016H333.528V146.016ZM372.751 212.455L333.961 145.266L333.095 145.766L371.885 212.955L372.751 212.455ZM381.113 226.87L372.75 212.454L371.885 212.956L380.248 227.372L381.113 226.87ZM385.977 235.26L381.113 226.87L380.248 227.372L385.112 235.762L385.977 235.26ZM401.136 261.39L385.977 235.26L385.112 235.762L400.271 261.892L401.136 261.39ZM406.243 270.199L401.136 261.39L400.271 261.892L405.378 270.701L406.243 270.199ZM448.16 218.426L405.425 270.131L406.196 270.769L448.931 219.063L448.16 218.426ZM431.359 190.096L448.113 218.995L448.978 218.494L432.225 189.594L431.359 190.096ZM414.58 161.319L431.36 190.097L432.224 189.593L415.444 160.815L414.58 161.319ZM378.702 205.795L415.397 161.385L414.626 160.749L377.931 205.158L378.702 205.795ZM355.253 166.546L377.884 205.727L378.749 205.227L356.119 166.046L355.253 166.546ZM420.922 86.5341L355.301 165.977L356.072 166.614L421.693 87.171L420.922 86.5341ZM500.562 222.669L421.74 86.6019L420.875 87.1032L499.697 223.17L500.562 222.669ZM428.8 310.098L500.515 223.238L499.744 222.601L428.029 309.461L428.8 310.098Z" fill="white"/>
<defs>
<filter id="filter0_f" x="0.791016" y="0.753174" width="530.622" height="423.416" filterUnits="userSpaceOnUse" color-interpolation-filters="sRGB">
<feFlood flood-opacity="0" result="BackgroundImageFix"/>
<feBlend mode="normal" in="SourceGraphic" in2="BackgroundImageFix" result="shape"/>
<feGaussianBlur stdDeviation="12" result="effect1_foregroundBlur"/>
</filter>
<filter id="filter1_f" x="18.434" y="12.7549" width="495.337" height="386.415" filterUnits="userSpaceOnUse" color-interpolation-filters="sRGB">
<feFlood flood-opacity="0" result="BackgroundImageFix"/>
<feBlend mode="normal" in="SourceGraphic" in2="BackgroundImageFix" result="shape"/>
<feGaussianBlur stdDeviation="5" result="effect1_foregroundBlur"/>
</filter>
<filter id="filter2_f" x="22.434" y="16.7549" width="487.337" height="378.415" filterUnits="userSpaceOnUse" color-interpolation-filters="sRGB">
<feFlood flood-opacity="0" result="BackgroundImageFix"/>
<feBlend mode="normal" in="SourceGraphic" in2="BackgroundImageFix" result="shape"/>
<feGaussianBlur stdDeviation="3" result="effect1_foregroundBlur"/>
</filter>
<linearGradient id="paint0_linear" x1="445.541" y1="209.936" x2="76.7555" y2="210.326" gradientUnits="userSpaceOnUse">
<stop stop-color="#FF1640"/>
<stop offset="0.315399" stop-color="#FABA33"/>
<stop offset="0.573227" stop-color="#E9E031"/>
<stop offset="0.826995" stop-color="#45F273"/>
<stop offset="1" stop-color="#30FFE9"/>
</linearGradient>
<linearGradient id="paint1_linear" x1="445.541" y1="201.936" x2="76.7555" y2="202.326" gradientUnits="userSpaceOnUse">
<stop stop-color="#FF1640"/>
<stop offset="0.315399" stop-color="#FABA33"/>
<stop offset="0.573227" stop-color="#E9E031"/>
<stop offset="0.826995" stop-color="#45F273"/>
<stop offset="1" stop-color="#30FFE9"/>
</linearGradient>
<linearGradient id="paint2_linear" x1="445.541" y1="201.936" x2="76.7555" y2="202.326" gradientUnits="userSpaceOnUse">
<stop stop-color="#FF1640"/>
<stop offset="0.315399" stop-color="#FABA33"/>
<stop offset="0.573227" stop-color="#E9E031"/>
<stop offset="0.826995" stop-color="#45F273"/>
<stop offset="1" stop-color="#30FFE9"/>
</linearGradient>
<linearGradient id="paint3_linear" x1="266.103" y1="28.7563" x2="266.103" y2="386.169" gradientUnits="userSpaceOnUse">
<stop stop-color="white"/>
<stop offset="1" stop-color="white" stop-opacity="0"/>
</linearGradient>
</defs>
</svg>
