<svg width="350" height="53" viewBox="0 0 350 53" fill="none" xmlns="http://www.w3.org/2000/svg">
<path d="M38.824 37.672C38.824 40.36 38.128 42.832 36.736 45.088C35.392 47.344 33.376 49.144 30.688 50.488C28.048 51.832 24.832 52.504 21.04 52.504C15.328 52.504 10.624 51.112 6.928 48.328C3.232 45.544 1.216 41.656 0.88 36.664H13.984C14.176 38.584 14.848 40.096 16 41.2C17.2 42.304 18.712 42.856 20.536 42.856C22.12 42.856 23.368 42.424 24.28 41.56C25.192 40.696 25.648 39.544 25.648 38.104C25.648 36.808 25.216 35.728 24.352 34.864C23.536 34 22.504 33.304 21.256 32.776C20.008 32.2 18.28 31.528 16.072 30.76C12.856 29.656 10.216 28.6 8.152 27.592C6.136 26.536 4.384 25 2.896 22.984C1.456 20.92 0.736 18.256 0.736 14.992C0.736 11.968 1.504 9.352 3.04 7.144C4.576 4.936 6.688 3.256 9.376 2.104C12.112 0.903997 15.232 0.303996 18.736 0.303996C24.4 0.303996 28.888 1.648 32.2 4.336C35.56 7.024 37.456 10.72 37.888 15.424H24.568C24.328 13.744 23.704 12.424 22.696 11.464C21.736 10.456 20.416 9.952 18.736 9.952C17.296 9.952 16.12 10.336 15.208 11.104C14.344 11.872 13.912 13 13.912 14.488C13.912 15.688 14.296 16.72 15.064 17.584C15.88 18.4 16.888 19.072 18.088 19.6C19.288 20.128 21.016 20.8 23.272 21.616C26.536 22.72 29.2 23.824 31.264 24.928C33.328 25.984 35.104 27.544 36.592 29.608C38.08 31.672 38.824 34.36 38.824 37.672ZM64.4228 11.32C68.4068 11.32 71.9588 12.16 75.0788 13.84C78.2468 15.472 80.7188 17.848 82.4948 20.968C84.3188 24.088 85.2308 27.736 85.2308 31.912C85.2308 36.088 84.3188 39.736 82.4948 42.856C80.7188 45.976 78.2468 48.376 75.0788 50.056C71.9588 51.688 68.4068 52.504 64.4228 52.504C60.4388 52.504 56.8628 51.688 53.6948 50.056C50.5268 48.376 48.0308 45.976 46.2068 42.856C44.4308 39.736 43.5428 36.088 43.5428 31.912C43.5428 27.736 44.4308 24.088 46.2068 20.968C48.0308 17.848 50.5268 15.472 53.6948 13.84C56.8628 12.16 60.4388 11.32 64.4228 11.32ZM64.4228 21.976C62.0708 21.976 60.0788 22.84 58.4468 24.568C56.8628 26.248 56.0708 28.696 56.0708 31.912C56.0708 35.128 56.8628 37.576 58.4468 39.256C60.0788 40.936 62.0708 41.776 64.4228 41.776C66.7748 41.776 68.7428 40.936 70.3268 39.256C71.9108 37.576 72.7028 35.128 72.7028 31.912C72.7028 28.696 71.9108 26.248 70.3268 24.568C68.7428 22.84 66.7748 21.976 64.4228 21.976ZM101.119 1.096L113.575 39.4L126.031 1.096H139.207L121.495 52H105.583L87.9432 1.096H101.119ZM170.064 52L159.048 32.776H156.24V52H143.928V1.096H164.952C168.984 1.096 172.392 1.792 175.176 3.184C177.96 4.576 180.048 6.496 181.44 8.944C182.832 11.344 183.528 14.104 183.528 17.224C183.528 20.92 182.496 24.064 180.432 26.656C178.416 29.248 175.464 31.024 171.576 31.984L183.672 52H170.064ZM156.24 24.352H163.872C166.32 24.352 168.12 23.824 169.272 22.768C170.424 21.664 171 20.056 171 17.944C171 15.928 170.4 14.344 169.2 13.192C168.048 12.04 166.272 11.464 163.872 11.464H156.24V24.352ZM202.013 10.888V21.544H219.221V30.832H202.013V42.136H221.381V52H189.701V1.096H221.381V10.888H202.013ZM240.685 1.096V52H228.373V1.096H240.685ZM273.018 0.591997C279.402 0.591997 284.658 2.152 288.786 5.272C292.914 8.392 295.482 12.616 296.49 17.944H283.458C282.594 16.12 281.274 14.68 279.498 13.624C277.722 12.52 275.586 11.968 273.09 11.968C269.202 11.968 266.082 13.288 263.73 15.928C261.378 18.52 260.202 22.048 260.202 26.512C260.202 31.36 261.426 35.08 263.874 37.672C266.37 40.264 269.898 41.56 274.458 41.56C277.386 41.56 279.954 40.768 282.162 39.184C284.37 37.552 285.93 35.248 286.842 32.272H271.29V23.416H297.138V35.584C296.178 38.56 294.642 41.32 292.53 43.864C290.418 46.408 287.706 48.472 284.394 50.056C281.13 51.64 277.386 52.432 273.162 52.432C268.026 52.432 263.538 51.352 259.698 49.192C255.858 46.984 252.882 43.912 250.77 39.976C248.706 36.04 247.674 31.552 247.674 26.512C247.674 21.472 248.706 16.984 250.77 13.048C252.882 9.112 255.834 6.064 259.626 3.904C263.466 1.696 267.93 0.591997 273.018 0.591997ZM349.245 52H336.933L316.341 20.752V52H304.029V1.096H316.341L336.933 32.632V1.096H349.245V52Z" fill="url(#paint0_linear)"/>
<defs>
<linearGradient id="paint0_linear" x1="312.48" y1="25.3299" x2="31.9842" y2="26.0761" gradientUnits="userSpaceOnUse">
<stop stop-color="#FF168A"/>
<stop offset="0.315399" stop-color="#FABA33"/>
<stop offset="0.573227" stop-color="#E9E031"/>
<stop offset="0.826995" stop-color="#45F273"/>
<stop offset="1" stop-color="#30FFE9"/>
</linearGradient>
</defs>
</svg>
