<svg width="201" height="492" viewBox="0 0 201 492" fill="none" xmlns="http://www.w3.org/2000/svg">
<g id="total supply-initial supply">
<g id="initial tokens">
<rect id="Rectangle 35" x="0.323853" y="257.798" width="200" height="233.333" rx="30" fill="#0C0F21"/>
<path id="34 million" d="M48.8252 373.493C49.9772 373.493 50.9612 373.693 51.7772 374.093C52.6092 374.493 53.2332 375.045 53.6492 375.749C54.0812 376.453 54.2972 377.237 54.2972 378.101C54.2972 379.189 54.0012 380.085 53.4092 380.789C52.8172 381.477 52.0332 381.901 51.0572 382.061V382.181C53.4252 382.885 54.6092 384.277 54.6092 386.357C54.6092 387.813 54.1212 388.997 53.1452 389.909C52.1692 390.805 50.7932 391.253 49.0172 391.253C47.1292 391.253 45.6252 390.789 44.5052 389.861C43.3852 388.917 42.7612 387.501 42.6332 385.613H45.9452C46.0252 386.477 46.3052 387.165 46.7852 387.677C47.2812 388.173 47.9772 388.421 48.8732 388.421C49.6412 388.421 50.2412 388.213 50.6732 387.797C51.1052 387.365 51.3212 386.805 51.3212 386.117C51.3212 385.301 51.0092 384.677 50.3852 384.245C49.7612 383.813 48.8412 383.597 47.6252 383.597H46.9292V380.837H47.6252C49.8652 380.869 50.9852 380.093 50.9852 378.509C50.9852 377.821 50.7852 377.285 50.3852 376.901C49.9852 376.501 49.4412 376.301 48.7532 376.301C48.0332 376.301 47.4412 376.533 46.9772 376.997C46.5132 377.445 46.2492 378.077 46.1852 378.893H42.8732C42.9692 377.165 43.5292 375.837 44.5532 374.909C45.5772 373.965 47.0012 373.493 48.8252 373.493ZM56.9044 387.677V384.869L65.0164 373.949H68.6404V384.749H70.8484V387.677H68.6404V391.085H65.2324V387.677H56.9044ZM65.4964 377.909L60.3604 384.749H65.4964V377.909ZM95.3072 377.597C96.9232 377.597 98.1952 378.101 99.1232 379.109C100.067 380.101 100.539 381.517 100.539 383.357V391.085H97.1792V383.741C97.1792 382.717 96.9152 381.933 96.3872 381.389C95.8752 380.829 95.1632 380.549 94.2512 380.549C93.3072 380.549 92.5552 380.845 91.9952 381.437C91.4352 382.029 91.1552 382.893 91.1552 384.029V391.085H87.7952V383.741C87.7952 382.717 87.5312 381.933 87.0032 381.389C86.4912 380.829 85.7792 380.549 84.8672 380.549C83.9232 380.549 83.1712 380.845 82.6112 381.437C82.0512 382.029 81.7712 382.893 81.7712 384.029V391.085H78.3872V377.789H81.7712V380.309C82.1232 379.445 82.6752 378.781 83.4272 378.317C84.1952 377.837 85.0832 377.597 86.0912 377.597C87.1632 377.597 88.0912 377.853 88.8752 378.365C89.6752 378.877 90.2752 379.613 90.6752 380.573C91.0912 379.661 91.7072 378.941 92.5232 378.413C93.3552 377.869 94.2832 377.597 95.3072 377.597ZM103.128 373.973C103.128 373.429 103.32 372.989 103.704 372.653C104.088 372.301 104.592 372.125 105.216 372.125C105.84 372.125 106.344 372.301 106.728 372.653C107.112 372.989 107.304 373.429 107.304 373.973C107.304 374.501 107.112 374.941 106.728 375.293C106.344 375.629 105.84 375.797 105.216 375.797C104.592 375.797 104.088 375.629 103.704 375.293C103.32 374.941 103.128 374.501 103.128 373.973ZM106.896 377.789V391.085H103.512V377.789H106.896ZM113.342 373.325V391.085H109.958V373.325H113.342ZM119.787 373.325V391.085H116.403V373.325H119.787ZM122.464 373.973C122.464 373.429 122.656 372.989 123.04 372.653C123.424 372.301 123.928 372.125 124.552 372.125C125.176 372.125 125.68 372.301 126.064 372.653C126.448 372.989 126.64 373.429 126.64 373.973C126.64 374.501 126.448 374.941 126.064 375.293C125.68 375.629 125.176 375.797 124.552 375.797C123.928 375.797 123.424 375.629 123.04 375.293C122.656 374.941 122.464 374.501 122.464 373.973ZM126.232 377.789V391.085H122.848V377.789H126.232ZM135.437 377.621C136.733 377.621 137.893 377.893 138.917 378.437C139.957 378.981 140.773 379.773 141.365 380.813C141.957 381.837 142.253 383.045 142.253 384.437C142.253 385.829 141.957 387.037 141.365 388.061C140.773 389.085 139.957 389.877 138.917 390.437C137.893 390.981 136.733 391.253 135.437 391.253C134.141 391.253 132.973 390.981 131.933 390.437C130.909 389.877 130.101 389.085 129.509 388.061C128.917 387.037 128.621 385.829 128.621 384.437C128.621 383.045 128.917 381.837 129.509 380.813C130.101 379.773 130.909 378.981 131.933 378.437C132.973 377.893 134.141 377.621 135.437 377.621ZM135.437 380.549C134.493 380.549 133.693 380.885 133.037 381.557C132.381 382.213 132.053 383.173 132.053 384.437C132.053 385.701 132.381 386.669 133.037 387.341C133.693 387.997 134.493 388.325 135.437 388.325C136.381 388.325 137.181 387.997 137.837 387.341C138.493 386.669 138.821 385.701 138.821 384.437C138.821 383.173 138.493 382.213 137.837 381.557C137.181 380.885 136.381 380.549 135.437 380.549ZM152.565 377.597C154.101 377.597 155.325 378.101 156.237 379.109C157.149 380.117 157.605 381.533 157.605 383.357V391.085H154.245V383.741C154.245 382.685 153.973 381.869 153.429 381.293C152.885 380.701 152.141 380.405 151.197 380.405C150.237 380.405 149.469 380.717 148.893 381.341C148.317 381.965 148.029 382.861 148.029 384.029V391.085H144.645V377.789H148.029V380.453C148.381 379.557 148.957 378.861 149.757 378.365C150.573 377.853 151.509 377.597 152.565 377.597Z" fill="white"/>
<path id="Vector" d="M115.924 274.465C109.745 274.465 104.12 275.355 99.9338 276.854C97.8376 277.603 96.1313 278.469 94.8151 279.584C93.4988 280.699 92.5238 282.155 92.5238 283.825C92.5238 284.136 92.5604 284.459 92.6213 284.751C92.5482 284.952 92.5117 285.172 92.5238 285.385V294.745C92.5238 295.056 92.5604 295.379 92.6213 295.671C92.5482 295.872 92.5117 296.092 92.5238 296.305V301.473C90.0802 301.15 87.466 300.985 84.7238 300.985C78.5448 300.985 72.9202 301.875 68.7338 303.374C66.6376 304.123 64.9313 304.989 63.6151 306.104C62.2988 307.219 61.3238 308.675 61.3238 310.345C61.3238 310.656 61.3604 310.979 61.4213 311.271C61.3482 311.472 61.3117 311.692 61.3238 311.905V321.265C61.3238 321.576 61.3604 321.899 61.4213 322.191C61.3482 322.392 61.3117 322.612 61.3238 322.825V332.185C61.3238 332.496 61.3604 332.819 61.4213 333.111C61.3482 333.312 61.3117 333.532 61.3238 333.745V343.105C61.3238 344.775 62.2988 346.231 63.6151 347.346C64.9313 348.461 66.6376 349.327 68.7338 350.076C72.9202 351.569 78.5387 352.465 84.7238 352.465C90.909 352.465 96.5274 351.569 100.714 350.076C102.81 349.327 104.516 348.461 105.833 347.346C107.149 346.231 108.124 344.775 108.124 343.105V336.378C110.567 336.701 113.176 336.865 115.924 336.865C122.109 336.865 127.727 335.969 131.914 334.476C134.01 333.727 135.716 332.861 137.033 331.746C138.349 330.631 139.324 329.175 139.324 327.505V318.145C139.336 317.932 139.299 317.712 139.226 317.511C139.287 317.219 139.324 316.896 139.324 316.585V307.225C139.336 307.012 139.299 306.792 139.226 306.591C139.287 306.299 139.324 305.976 139.324 305.665V296.305C139.336 296.092 139.299 295.872 139.226 295.671C139.287 295.379 139.324 295.056 139.324 294.745V285.385C139.318 285.166 139.269 284.952 139.178 284.751C139.245 284.453 139.324 284.142 139.324 283.825C139.324 282.155 138.349 280.699 137.033 279.584C135.716 278.469 134.01 277.603 131.914 276.854C127.727 275.355 122.103 274.465 115.924 274.465ZM115.924 277.585C121.804 277.585 127.124 278.45 130.841 279.779C132.7 280.443 134.144 281.223 135.034 281.973C135.924 282.722 136.204 283.338 136.204 283.825C136.204 284.313 135.924 284.928 135.034 285.678C134.144 286.427 132.7 287.207 130.841 287.871C127.124 289.2 121.804 290.065 115.924 290.065C110.043 290.065 104.724 289.2 101.006 287.871C99.1477 287.207 97.7035 286.427 96.8138 285.678C95.9242 284.928 95.6438 284.313 95.6438 283.825C95.6438 283.338 95.9242 282.722 96.8138 281.973C97.7035 281.223 99.1477 280.443 101.006 279.779C104.724 278.45 110.043 277.585 115.924 277.585ZM95.6438 288.651C96.8321 289.48 98.2398 290.193 99.9338 290.796C104.12 292.295 109.745 293.185 115.924 293.185C122.103 293.185 127.727 292.295 131.914 290.796C133.608 290.193 135.016 289.48 136.204 288.651V294.745C136.204 295.233 135.924 295.848 135.034 296.598C134.144 297.347 132.7 298.127 130.841 298.791C127.124 300.12 121.804 300.985 115.924 300.985C110.043 300.985 104.724 300.12 101.006 298.791C99.1477 298.127 97.7035 297.347 96.8138 296.598C95.9242 295.848 95.6438 295.233 95.6438 294.745V288.651ZM95.6438 299.571C96.8321 300.4 98.2398 301.113 99.9338 301.716C104.12 303.215 109.739 304.105 115.924 304.105C122.109 304.105 127.727 303.215 131.914 301.716C133.608 301.113 135.016 300.4 136.204 299.571V305.665C136.204 306.153 135.924 306.768 135.034 307.518C134.144 308.267 132.7 309.047 130.841 309.711C127.124 311.04 121.804 311.905 115.924 311.905C113.115 311.905 110.421 311.716 107.978 311.369C107.978 311.338 107.978 311.302 107.978 311.271C108.045 310.973 108.124 310.662 108.124 310.345C108.124 308.675 107.149 307.219 105.833 306.104C104.516 304.989 102.81 304.123 100.714 303.374C99.1965 302.831 97.4902 302.381 95.6438 302.009V299.571ZM84.7238 304.105C90.6043 304.105 95.9242 304.97 99.6413 306.299C101.5 306.963 102.944 307.743 103.834 308.493C104.724 309.242 105.004 309.858 105.004 310.345C105.004 310.833 104.724 311.448 103.834 312.198C102.944 312.947 101.5 313.727 99.6413 314.391C95.9242 315.72 90.6043 316.585 84.7238 316.585C78.8434 316.585 73.5235 315.72 69.8063 314.391C67.9477 313.727 66.5035 312.947 65.6138 312.198C64.7242 311.448 64.4438 310.833 64.4438 310.345C64.4438 309.858 64.7242 309.242 65.6138 308.493C66.5035 307.743 67.9477 306.963 69.8063 306.299C73.5235 304.97 78.8434 304.105 84.7238 304.105ZM136.204 310.491V316.585C136.204 317.073 135.924 317.688 135.034 318.438C134.144 319.187 132.7 319.967 130.841 320.631C127.124 321.96 121.804 322.825 115.924 322.825C113.121 322.825 110.458 322.594 108.026 322.24C108.008 322.24 107.996 322.24 107.978 322.24C107.984 322.222 107.971 322.21 107.978 322.191C108.045 321.893 108.124 321.582 108.124 321.265V314.538C110.555 314.854 113.188 315.025 115.924 315.025C122.109 315.025 127.727 314.135 131.914 312.636C133.608 312.033 135.016 311.32 136.204 310.491ZM64.4438 315.171C65.6321 316 67.0398 316.713 68.7338 317.316C72.9202 318.815 78.5448 319.705 84.7238 319.705C90.9029 319.705 96.5274 318.815 100.714 317.316C102.408 316.713 103.816 316 105.004 315.171V321.265C105.004 321.753 104.724 322.368 103.834 323.118C102.944 323.867 101.5 324.647 99.6413 325.311C95.9242 326.64 90.6043 327.505 84.7238 327.505C78.8434 327.505 73.5235 326.64 69.8063 325.311C67.9477 324.647 66.5035 323.867 65.6138 323.118C64.7242 322.368 64.4438 321.753 64.4438 321.265V315.171ZM136.204 321.411V327.505C136.204 327.993 135.924 328.608 135.034 329.358C134.144 330.107 132.7 330.887 130.841 331.551C127.124 332.88 121.804 333.745 115.924 333.745C113.096 333.745 110.427 333.514 107.978 333.16C107.978 333.142 107.978 333.13 107.978 333.111C108.045 332.813 108.124 332.502 108.124 332.185V325.458C110.561 325.781 113.194 325.945 115.924 325.945C122.109 325.945 127.727 325.049 131.914 323.556C133.608 322.953 135.016 322.24 136.204 321.411ZM64.4438 326.091C65.6321 326.92 67.0398 327.633 68.7338 328.236C72.9202 329.729 78.5387 330.625 84.7238 330.625C90.909 330.625 96.5274 329.729 100.714 328.236C102.408 327.633 103.816 326.92 105.004 326.091V332.185C105.004 332.673 104.724 333.288 103.834 334.038C102.944 334.787 101.5 335.567 99.6413 336.231C95.9242 337.56 90.6043 338.425 84.7238 338.425C78.8434 338.425 73.5235 337.56 69.8063 336.231C67.9477 335.567 66.5035 334.787 65.6138 334.038C64.7242 333.288 64.4438 332.673 64.4438 332.185V326.091ZM64.4438 337.011C65.6321 337.84 67.0398 338.553 68.7338 339.156C72.9202 340.649 78.5387 341.545 84.7238 341.545C90.909 341.545 96.5274 340.649 100.714 339.156C102.408 338.553 103.816 337.84 105.004 337.011V343.105C105.004 343.593 104.724 344.208 103.834 344.958C102.944 345.707 101.5 346.487 99.6413 347.151C95.9242 348.48 90.6043 349.345 84.7238 349.345C78.8434 349.345 73.5235 348.48 69.8063 347.151C67.9477 346.487 66.5035 345.707 65.6138 344.958C64.7242 344.208 64.4438 343.593 64.4438 343.105V337.011Z" fill="white"/>
<path id="tokens issued as participation rewards during first 2 years" d="M40.7422 418.093V419.085H39.7022C38.8595 419.085 38.2302 418.888 37.8142 418.493C37.3982 418.088 37.1902 417.41 37.1902 416.461V411.325H35.8622V410.349H37.1902V408.141H38.3262V410.349H40.7262V411.325H38.3262V416.477C38.3262 417.096 38.4382 417.522 38.6622 417.757C38.8862 417.981 39.2808 418.093 39.8462 418.093H40.7422ZM46.5387 410.237C47.3707 410.237 48.112 410.418 48.7627 410.781C49.424 411.133 49.9413 411.65 50.3147 412.333C50.688 413.005 50.8747 413.8 50.8747 414.717C50.8747 415.634 50.688 416.429 50.3147 417.101C49.9413 417.773 49.424 418.29 48.7627 418.653C48.112 419.016 47.3707 419.197 46.5387 419.197C45.7067 419.197 44.96 419.016 44.2987 418.653C43.6373 418.29 43.1147 417.773 42.7307 417.101C42.3573 416.418 42.1707 415.624 42.1707 414.717C42.1707 413.8 42.3573 413.005 42.7307 412.333C43.1147 411.65 43.6373 411.133 44.2987 410.781C44.96 410.418 45.7067 410.237 46.5387 410.237ZM46.5387 411.213C45.9627 411.213 45.4293 411.341 44.9387 411.597C44.448 411.853 44.0533 412.248 43.7547 412.781C43.456 413.304 43.3067 413.949 43.3067 414.717C43.3067 415.485 43.456 416.13 43.7547 416.653C44.0533 417.176 44.448 417.565 44.9387 417.821C45.4293 418.077 45.9627 418.205 46.5387 418.205C47.104 418.205 47.6267 418.077 48.1067 417.821C48.5973 417.565 48.992 417.176 49.2907 416.653C49.5893 416.13 49.7387 415.485 49.7387 414.717C49.7387 413.949 49.5893 413.304 49.2907 412.781C48.992 412.248 48.5973 411.853 48.1067 411.597C47.6267 411.341 47.104 411.213 46.5387 411.213ZM57.5556 419.085L54.0196 415.085V419.085H52.8836V407.245H54.0196V414.189L57.4916 410.349H58.8836L54.8676 414.669L58.9956 419.085H57.5556ZM64.1291 418.269C64.9184 418.269 65.5797 418.072 66.1131 417.677C66.6464 417.282 66.9664 416.749 67.0731 416.077H68.2571C68.0971 417.005 67.6544 417.757 66.9291 418.333C66.2037 418.909 65.2864 419.197 64.1771 419.197C63.3451 419.197 62.6037 419.021 61.9531 418.669C61.3131 418.306 60.8117 417.789 60.4491 417.117C60.0864 416.434 59.9051 415.634 59.9051 414.717C59.9051 413.8 60.0864 413.005 60.4491 412.333C60.8117 411.65 61.3131 411.133 61.9531 410.781C62.6037 410.418 63.3451 410.237 64.1771 410.237C65.0304 410.237 65.7664 410.418 66.3851 410.781C67.0144 411.133 67.4891 411.608 67.8091 412.205C68.1397 412.802 68.3051 413.453 68.3051 414.157C68.3051 414.456 68.2837 414.728 68.2411 414.973H61.0091C61.0197 415.709 61.1691 416.328 61.4571 416.829C61.7557 417.32 62.1397 417.682 62.6091 417.917C63.0784 418.152 63.5851 418.269 64.1291 418.269ZM64.1771 411.149C63.6117 411.149 63.0944 411.266 62.6251 411.501C62.1557 411.736 61.7717 412.098 61.4731 412.589C61.1851 413.069 61.0304 413.672 61.0091 414.397H67.1851C67.2277 413.682 67.1104 413.08 66.8331 412.589C66.5557 412.098 66.1824 411.736 65.7131 411.501C65.2437 411.266 64.7317 411.149 64.1771 411.149ZM74.6891 410.189C75.7024 410.189 76.5237 410.514 77.1531 411.165C77.7931 411.805 78.1131 412.749 78.1131 413.997V419.085H77.0091V414.077C77.0091 413.128 76.7691 412.402 76.2891 411.901C75.8091 411.389 75.1531 411.133 74.3211 411.133C73.4464 411.133 72.7477 411.416 72.2251 411.981C71.7131 412.536 71.4571 413.357 71.4571 414.445V419.085H70.3211V410.349H71.4571V412.493C71.6811 411.746 72.0864 411.176 72.6731 410.781C73.2597 410.386 73.9317 410.189 74.6891 410.189ZM83.1173 410.237C84.0666 410.237 84.8293 410.488 85.4053 410.989C85.9813 411.49 86.3333 412.168 86.4613 413.021H85.3893C85.3253 412.456 85.0906 411.992 84.6853 411.629C84.2906 411.256 83.7573 411.069 83.0853 411.069C82.5093 411.069 82.056 411.213 81.7253 411.501C81.4053 411.778 81.2453 412.152 81.2453 412.621C81.2453 412.973 81.3466 413.256 81.5493 413.469C81.7626 413.682 82.024 413.848 82.3333 413.965C82.6426 414.072 83.0586 414.184 83.5813 414.301C84.2213 414.45 84.7333 414.605 85.1173 414.765C85.512 414.914 85.848 415.154 86.1253 415.485C86.4026 415.816 86.5413 416.264 86.5413 416.829C86.5413 417.522 86.28 418.093 85.7573 418.541C85.2453 418.978 84.5626 419.197 83.7093 419.197C82.7066 419.197 81.8853 418.952 81.2453 418.461C80.6053 417.96 80.2266 417.277 80.1093 416.413H81.1973C81.2613 416.989 81.512 417.458 81.9493 417.821C82.3866 418.184 82.9786 418.365 83.7253 418.365C84.28 418.365 84.712 418.221 85.0213 417.933C85.3306 417.645 85.4853 417.272 85.4853 416.813C85.4853 416.44 85.3786 416.141 85.1653 415.917C84.952 415.693 84.6853 415.528 84.3653 415.421C84.056 415.304 83.6293 415.181 83.0853 415.053C82.456 414.904 81.9493 414.754 81.5653 414.605C81.192 414.456 80.872 414.226 80.6053 413.917C80.3386 413.597 80.2053 413.165 80.2053 412.621C80.2053 411.906 80.4666 411.33 80.9893 410.893C81.512 410.456 82.2213 410.237 83.1173 410.237ZM92.4869 407.757C92.4869 407.522 92.5616 407.336 92.7109 407.197C92.8709 407.058 93.0736 406.989 93.3189 406.989C93.5643 406.989 93.7616 407.058 93.9109 407.197C94.0603 407.336 94.1349 407.522 94.1349 407.757C94.1349 407.981 94.0603 408.162 93.9109 408.301C93.7616 408.44 93.5643 408.509 93.3189 408.509C93.0736 408.509 92.8709 408.44 92.7109 408.301C92.5616 408.162 92.4869 407.981 92.4869 407.757ZM93.8789 410.349V419.085H92.7429V410.349H93.8789ZM98.9454 410.237C99.8948 410.237 100.657 410.488 101.233 410.989C101.809 411.49 102.161 412.168 102.289 413.021H101.217C101.153 412.456 100.919 411.992 100.513 411.629C100.119 411.256 99.5854 411.069 98.9134 411.069C98.3374 411.069 97.8841 411.213 97.5534 411.501C97.2334 411.778 97.0734 412.152 97.0734 412.621C97.0734 412.973 97.1748 413.256 97.3774 413.469C97.5908 413.682 97.8521 413.848 98.1614 413.965C98.4708 414.072 98.8868 414.184 99.4094 414.301C100.049 414.45 100.561 414.605 100.945 414.765C101.34 414.914 101.676 415.154 101.953 415.485C102.231 415.816 102.369 416.264 102.369 416.829C102.369 417.522 102.108 418.093 101.585 418.541C101.073 418.978 100.391 419.197 99.5374 419.197C98.5348 419.197 97.7134 418.952 97.0734 418.461C96.4334 417.96 96.0548 417.277 95.9374 416.413H97.0254C97.0894 416.989 97.3401 417.458 97.7774 417.821C98.2148 418.184 98.8068 418.365 99.5534 418.365C100.108 418.365 100.54 418.221 100.849 417.933C101.159 417.645 101.313 417.272 101.313 416.813C101.313 416.44 101.207 416.141 100.993 415.917C100.78 415.693 100.513 415.528 100.193 415.421C99.8841 415.304 99.4574 415.181 98.9134 415.053C98.2841 414.904 97.7774 414.754 97.3934 414.605C97.0201 414.456 96.7001 414.226 96.4334 413.917C96.1668 413.597 96.0334 413.165 96.0334 412.621C96.0334 411.906 96.2948 411.33 96.8174 410.893C97.3401 410.456 98.0494 410.237 98.9454 410.237ZM107.055 410.237C108.004 410.237 108.767 410.488 109.343 410.989C109.919 411.49 110.271 412.168 110.399 413.021H109.327C109.263 412.456 109.028 411.992 108.623 411.629C108.228 411.256 107.695 411.069 107.023 411.069C106.447 411.069 105.993 411.213 105.663 411.501C105.343 411.778 105.183 412.152 105.183 412.621C105.183 412.973 105.284 413.256 105.487 413.469C105.7 413.682 105.961 413.848 106.271 413.965C106.58 414.072 106.996 414.184 107.519 414.301C108.159 414.45 108.671 414.605 109.055 414.765C109.449 414.914 109.785 415.154 110.063 415.485C110.34 415.816 110.479 416.264 110.479 416.829C110.479 417.522 110.217 418.093 109.695 418.541C109.183 418.978 108.5 419.197 107.647 419.197C106.644 419.197 105.823 418.952 105.183 418.461C104.543 417.96 104.164 417.277 104.047 416.413H105.135C105.199 416.989 105.449 417.458 105.887 417.821C106.324 418.184 106.916 418.365 107.663 418.365C108.217 418.365 108.649 418.221 108.959 417.933C109.268 417.645 109.423 417.272 109.423 416.813C109.423 416.44 109.316 416.141 109.103 415.917C108.889 415.693 108.623 415.528 108.303 415.421C107.993 415.304 107.567 415.181 107.023 415.053C106.393 414.904 105.887 414.754 105.503 414.605C105.129 414.456 104.809 414.226 104.543 413.917C104.276 413.597 104.143 413.165 104.143 412.621C104.143 411.906 104.404 411.33 104.927 410.893C105.449 410.456 106.159 410.237 107.055 410.237ZM120.06 410.349V419.085H118.94V416.925C118.716 417.682 118.311 418.258 117.724 418.653C117.138 419.048 116.466 419.245 115.708 419.245C114.684 419.245 113.852 418.925 113.212 418.285C112.583 417.634 112.268 416.685 112.268 415.437V410.349H113.388V415.341C113.388 416.301 113.628 417.037 114.108 417.549C114.588 418.05 115.244 418.301 116.076 418.301C116.951 418.301 117.644 418.024 118.156 417.469C118.679 416.904 118.94 416.077 118.94 414.989V410.349H120.06ZM126.317 418.269C127.106 418.269 127.767 418.072 128.301 417.677C128.834 417.282 129.154 416.749 129.261 416.077H130.445C130.285 417.005 129.842 417.757 129.117 418.333C128.391 418.909 127.474 419.197 126.365 419.197C125.533 419.197 124.791 419.021 124.141 418.669C123.501 418.306 122.999 417.789 122.637 417.117C122.274 416.434 122.093 415.634 122.093 414.717C122.093 413.8 122.274 413.005 122.637 412.333C122.999 411.65 123.501 411.133 124.141 410.781C124.791 410.418 125.533 410.237 126.365 410.237C127.218 410.237 127.954 410.418 128.573 410.781C129.202 411.133 129.677 411.608 129.997 412.205C130.327 412.802 130.493 413.453 130.493 414.157C130.493 414.456 130.471 414.728 130.429 414.973H123.197C123.207 415.709 123.357 416.328 123.645 416.829C123.943 417.32 124.327 417.682 124.797 417.917C125.266 418.152 125.773 418.269 126.317 418.269ZM126.365 411.149C125.799 411.149 125.282 411.266 124.813 411.501C124.343 411.736 123.959 412.098 123.661 412.589C123.373 413.069 123.218 413.672 123.197 414.397H129.373C129.415 413.682 129.298 413.08 129.021 412.589C128.743 412.098 128.37 411.736 127.901 411.501C127.431 411.266 126.919 411.149 126.365 411.149ZM136.189 410.237C137.074 410.237 137.826 410.466 138.445 410.925C139.074 411.384 139.501 411.992 139.725 412.749V407.245H140.845V419.085H139.725V416.685C139.501 417.442 139.074 418.05 138.445 418.509C137.826 418.968 137.074 419.197 136.189 419.197C135.399 419.197 134.69 419.016 134.061 418.653C133.442 418.29 132.957 417.773 132.605 417.101C132.263 416.418 132.093 415.624 132.093 414.717C132.093 413.8 132.263 413.005 132.605 412.333C132.957 411.65 133.442 411.133 134.061 410.781C134.679 410.418 135.389 410.237 136.189 410.237ZM136.477 411.229C135.495 411.229 134.706 411.544 134.109 412.173C133.522 412.792 133.229 413.64 133.229 414.717C133.229 415.794 133.522 416.648 134.109 417.277C134.706 417.896 135.495 418.205 136.477 418.205C137.095 418.205 137.65 418.061 138.141 417.773C138.642 417.485 139.031 417.08 139.309 416.557C139.597 416.024 139.741 415.41 139.741 414.717C139.741 414.024 139.597 413.416 139.309 412.893C139.031 412.36 138.642 411.949 138.141 411.661C137.65 411.373 137.095 411.229 136.477 411.229ZM151.11 410.237C151.996 410.237 152.748 410.466 153.366 410.925C153.996 411.384 154.428 411.992 154.662 412.749V410.349H155.766V419.085H154.662V416.685C154.428 417.442 153.996 418.05 153.366 418.509C152.748 418.968 151.996 419.197 151.11 419.197C150.321 419.197 149.612 419.016 148.982 418.653C148.364 418.29 147.878 417.773 147.526 417.101C147.185 416.418 147.014 415.624 147.014 414.717C147.014 413.8 147.185 413.005 147.526 412.333C147.878 411.65 148.364 411.133 148.982 410.781C149.601 410.418 150.31 410.237 151.11 410.237ZM151.398 411.229C150.417 411.229 149.628 411.544 149.03 412.173C148.444 412.792 148.15 413.64 148.15 414.717C148.15 415.794 148.444 416.648 149.03 417.277C149.628 417.896 150.417 418.205 151.398 418.205C152.017 418.205 152.572 418.061 153.062 417.773C153.564 417.485 153.953 417.08 154.23 416.557C154.518 416.024 154.662 415.41 154.662 414.717C154.662 414.024 154.518 413.416 154.23 412.893C153.953 412.36 153.564 411.949 153.062 411.661C152.572 411.373 152.017 411.229 151.398 411.229ZM160.836 410.237C161.785 410.237 162.548 410.488 163.124 410.989C163.7 411.49 164.052 412.168 164.18 413.021H163.108C163.044 412.456 162.809 411.992 162.404 411.629C162.009 411.256 161.476 411.069 160.804 411.069C160.228 411.069 159.775 411.213 159.444 411.501C159.124 411.778 158.964 412.152 158.964 412.621C158.964 412.973 159.065 413.256 159.268 413.469C159.481 413.682 159.743 413.848 160.052 413.965C160.361 414.072 160.777 414.184 161.3 414.301C161.94 414.45 162.452 414.605 162.836 414.765C163.231 414.914 163.567 415.154 163.844 415.485C164.121 415.816 164.26 416.264 164.26 416.829C164.26 417.522 163.999 418.093 163.476 418.541C162.964 418.978 162.281 419.197 161.428 419.197C160.425 419.197 159.604 418.952 158.964 418.461C158.324 417.96 157.945 417.277 157.828 416.413H158.916C158.98 416.989 159.231 417.458 159.668 417.821C160.105 418.184 160.697 418.365 161.444 418.365C161.999 418.365 162.431 418.221 162.74 417.933C163.049 417.645 163.204 417.272 163.204 416.813C163.204 416.44 163.097 416.141 162.884 415.917C162.671 415.693 162.404 415.528 162.084 415.421C161.775 415.304 161.348 415.181 160.804 415.053C160.175 414.904 159.668 414.754 159.284 414.605C158.911 414.456 158.591 414.226 158.324 413.917C158.057 413.597 157.924 413.165 157.924 412.621C157.924 411.906 158.185 411.33 158.708 410.893C159.231 410.456 159.94 410.237 160.836 410.237ZM20.9071 434.237C21.7071 434.237 22.4111 434.418 23.0191 434.781C23.6378 435.133 24.1178 435.65 24.4591 436.333C24.8111 437.005 24.9871 437.8 24.9871 438.717C24.9871 439.624 24.8111 440.418 24.4591 441.101C24.1178 441.773 23.6378 442.29 23.0191 442.653C22.4005 443.016 21.6965 443.197 20.9071 443.197C20.0111 443.197 19.2538 442.968 18.6351 442.509C18.0165 442.05 17.5898 441.442 17.3551 440.685V447.213H16.2351V434.349H17.3551V436.749C17.5898 435.992 18.0165 435.384 18.6351 434.925C19.2538 434.466 20.0111 434.237 20.9071 434.237ZM20.6031 435.229C19.9845 435.229 19.4245 435.373 18.9231 435.661C18.4325 435.949 18.0485 436.36 17.7711 436.893C17.4938 437.416 17.3551 438.024 17.3551 438.717C17.3551 439.41 17.4938 440.024 17.7711 440.557C18.0485 441.08 18.4325 441.485 18.9231 441.773C19.4245 442.061 19.9845 442.205 20.6031 442.205C21.5951 442.205 22.3845 441.896 22.9711 441.277C23.5578 440.648 23.8511 439.794 23.8511 438.717C23.8511 437.64 23.5578 436.792 22.9711 436.173C22.3845 435.544 21.5951 435.229 20.6031 435.229ZM30.6807 434.237C31.5661 434.237 32.3181 434.466 32.9367 434.925C33.5661 435.384 33.9981 435.992 34.2327 436.749V434.349H35.3367V443.085H34.2327V440.685C33.9981 441.442 33.5661 442.05 32.9367 442.509C32.3181 442.968 31.5661 443.197 30.6807 443.197C29.8914 443.197 29.1821 443.016 28.5527 442.653C27.9341 442.29 27.4487 441.773 27.0967 441.101C26.7554 440.418 26.5847 439.624 26.5847 438.717C26.5847 437.8 26.7554 437.005 27.0967 436.333C27.4487 435.65 27.9341 435.133 28.5527 434.781C29.1714 434.418 29.8807 434.237 30.6807 434.237ZM30.9687 435.229C29.9874 435.229 29.1981 435.544 28.6007 436.173C28.0141 436.792 27.7207 437.64 27.7207 438.717C27.7207 439.794 28.0141 440.648 28.6007 441.277C29.1981 441.896 29.9874 442.205 30.9687 442.205C31.5874 442.205 32.1421 442.061 32.6327 441.773C33.1341 441.485 33.5234 441.08 33.8007 440.557C34.0887 440.024 34.2327 439.41 34.2327 438.717C34.2327 438.024 34.0887 437.416 33.8007 436.893C33.5234 436.36 33.1341 435.949 32.6327 435.661C32.1421 435.373 31.5874 435.229 30.9687 435.229ZM38.9024 436.157C39.1584 435.528 39.569 435.042 40.1344 434.701C40.6997 434.36 41.3877 434.189 42.1984 434.189V435.405H41.8304C40.9877 435.405 40.289 435.634 39.7344 436.093C39.1797 436.541 38.9024 437.277 38.9024 438.301V443.085H37.7664V434.349H38.9024V436.157ZM47.6562 442.093V443.085H46.6162C45.7736 443.085 45.1442 442.888 44.7282 442.493C44.3122 442.088 44.1042 441.41 44.1042 440.461V435.325H42.7762V434.349H44.1042V432.141H45.2402V434.349H47.6402V435.325H45.2402V440.477C45.2402 441.096 45.3522 441.522 45.5762 441.757C45.8002 441.981 46.1949 442.093 46.7602 442.093H47.6562ZM49.2447 431.757C49.2447 431.522 49.3194 431.336 49.4687 431.197C49.6287 431.058 49.8314 430.989 50.0767 430.989C50.3221 430.989 50.5194 431.058 50.6687 431.197C50.8181 431.336 50.8927 431.522 50.8927 431.757C50.8927 431.981 50.8181 432.162 50.6687 432.301C50.5194 432.44 50.3221 432.509 50.0767 432.509C49.8314 432.509 49.6287 432.44 49.4687 432.301C49.3194 432.162 49.2447 431.981 49.2447 431.757ZM50.6367 434.349V443.085H49.5007V434.349H50.6367ZM56.9192 434.237C58.0286 434.237 58.9459 434.53 59.6712 435.117C60.4072 435.704 60.8552 436.482 61.0152 437.453H59.8472C59.7299 436.76 59.4046 436.216 58.8712 435.821C58.3379 435.416 57.6819 435.213 56.9032 435.213C56.3379 435.213 55.8152 435.341 55.3352 435.597C54.8659 435.853 54.4872 436.248 54.1992 436.781C53.9219 437.304 53.7832 437.949 53.7832 438.717C53.7832 439.485 53.9219 440.136 54.1992 440.669C54.4872 441.192 54.8659 441.581 55.3352 441.837C55.8152 442.093 56.3379 442.221 56.9032 442.221C57.6819 442.221 58.3379 442.024 58.8712 441.629C59.4046 441.224 59.7299 440.674 59.8472 439.981H61.0152C60.8552 440.952 60.4072 441.73 59.6712 442.317C58.9459 442.904 58.0286 443.197 56.9192 443.197C56.0872 443.197 55.3459 443.021 54.6952 442.669C54.0552 442.306 53.5539 441.789 53.1912 441.117C52.8286 440.434 52.6472 439.634 52.6472 438.717C52.6472 437.8 52.8286 437.005 53.1912 436.333C53.5539 435.65 54.0552 435.133 54.6952 434.781C55.3459 434.418 56.0872 434.237 56.9192 434.237ZM62.776 431.757C62.776 431.522 62.8507 431.336 63 431.197C63.16 431.058 63.3627 430.989 63.608 430.989C63.8533 430.989 64.0507 431.058 64.2 431.197C64.3493 431.336 64.424 431.522 64.424 431.757C64.424 431.981 64.3493 432.162 64.2 432.301C64.0507 432.44 63.8533 432.509 63.608 432.509C63.3627 432.509 63.16 432.44 63 432.301C62.8507 432.162 62.776 431.981 62.776 431.757ZM64.168 434.349V443.085H63.032V434.349H64.168ZM71.2665 434.237C72.0665 434.237 72.7705 434.418 73.3785 434.781C73.9972 435.133 74.4772 435.65 74.8185 436.333C75.1705 437.005 75.3465 437.8 75.3465 438.717C75.3465 439.624 75.1705 440.418 74.8185 441.101C74.4772 441.773 73.9972 442.29 73.3785 442.653C72.7598 443.016 72.0558 443.197 71.2665 443.197C70.3705 443.197 69.6132 442.968 68.9945 442.509C68.3758 442.05 67.9492 441.442 67.7145 440.685V447.213H66.5945V434.349H67.7145V436.749C67.9492 435.992 68.3758 435.384 68.9945 434.925C69.6132 434.466 70.3705 434.237 71.2665 434.237ZM70.9625 435.229C70.3438 435.229 69.7838 435.373 69.2825 435.661C68.7918 435.949 68.4078 436.36 68.1305 436.893C67.8532 437.416 67.7145 438.024 67.7145 438.717C67.7145 439.41 67.8532 440.024 68.1305 440.557C68.4078 441.08 68.7918 441.485 69.2825 441.773C69.7838 442.061 70.3438 442.205 70.9625 442.205C71.9545 442.205 72.7438 441.896 73.3305 441.277C73.9172 440.648 74.2105 439.794 74.2105 438.717C74.2105 437.64 73.9172 436.792 73.3305 436.173C72.7438 435.544 71.9545 435.229 70.9625 435.229ZM81.0401 434.237C81.9255 434.237 82.6775 434.466 83.2961 434.925C83.9255 435.384 84.3575 435.992 84.5921 436.749V434.349H85.6961V443.085H84.5921V440.685C84.3575 441.442 83.9255 442.05 83.2961 442.509C82.6775 442.968 81.9255 443.197 81.0401 443.197C80.2508 443.197 79.5415 443.016 78.9121 442.653C78.2935 442.29 77.8081 441.773 77.4561 441.101C77.1148 440.418 76.9441 439.624 76.9441 438.717C76.9441 437.8 77.1148 437.005 77.4561 436.333C77.8081 435.65 78.2935 435.133 78.9121 434.781C79.5308 434.418 80.2401 434.237 81.0401 434.237ZM81.3281 435.229C80.3468 435.229 79.5575 435.544 78.9601 436.173C78.3735 436.792 78.0801 437.64 78.0801 438.717C78.0801 439.794 78.3735 440.648 78.9601 441.277C79.5575 441.896 80.3468 442.205 81.3281 442.205C81.9468 442.205 82.5015 442.061 82.9921 441.773C83.4935 441.485 83.8828 441.08 84.1601 440.557C84.4481 440.024 84.5921 439.41 84.5921 438.717C84.5921 438.024 84.4481 437.416 84.1601 436.893C83.8828 436.36 83.4935 435.949 82.9921 435.661C82.5015 435.373 81.9468 435.229 81.3281 435.229ZM92.0937 442.093V443.085H91.0537C90.2111 443.085 89.5817 442.888 89.1657 442.493C88.7497 442.088 88.5417 441.41 88.5417 440.461V435.325H87.2137V434.349H88.5417V432.141H89.6777V434.349H92.0777V435.325H89.6777V440.477C89.6777 441.096 89.7897 441.522 90.0137 441.757C90.2377 441.981 90.6324 442.093 91.1977 442.093H92.0937ZM93.6822 431.757C93.6822 431.522 93.7569 431.336 93.9062 431.197C94.0662 431.058 94.2689 430.989 94.5142 430.989C94.7596 430.989 94.9569 431.058 95.1062 431.197C95.2556 431.336 95.3302 431.522 95.3302 431.757C95.3302 431.981 95.2556 432.162 95.1062 432.301C94.9569 432.44 94.7596 432.509 94.5142 432.509C94.2689 432.509 94.0662 432.44 93.9062 432.301C93.7569 432.162 93.6822 431.981 93.6822 431.757ZM95.0742 434.349V443.085H93.9382V434.349H95.0742ZM101.453 434.237C102.285 434.237 103.026 434.418 103.677 434.781C104.338 435.133 104.855 435.65 105.229 436.333C105.602 437.005 105.789 437.8 105.789 438.717C105.789 439.634 105.602 440.429 105.229 441.101C104.855 441.773 104.338 442.29 103.677 442.653C103.026 443.016 102.285 443.197 101.453 443.197C100.621 443.197 99.8741 443.016 99.2127 442.653C98.5514 442.29 98.0287 441.773 97.6447 441.101C97.2714 440.418 97.0847 439.624 97.0847 438.717C97.0847 437.8 97.2714 437.005 97.6447 436.333C98.0287 435.65 98.5514 435.133 99.2127 434.781C99.8741 434.418 100.621 434.237 101.453 434.237ZM101.453 435.213C100.877 435.213 100.343 435.341 99.8527 435.597C99.3621 435.853 98.9674 436.248 98.6687 436.781C98.3701 437.304 98.2207 437.949 98.2207 438.717C98.2207 439.485 98.3701 440.13 98.6687 440.653C98.9674 441.176 99.3621 441.565 99.8527 441.821C100.343 442.077 100.877 442.205 101.453 442.205C102.018 442.205 102.541 442.077 103.021 441.821C103.511 441.565 103.906 441.176 104.205 440.653C104.503 440.13 104.653 439.485 104.653 438.717C104.653 437.949 104.503 437.304 104.205 436.781C103.906 436.248 103.511 435.853 103.021 435.597C102.541 435.341 102.018 435.213 101.453 435.213ZM112.166 434.189C113.179 434.189 114 434.514 114.63 435.165C115.27 435.805 115.59 436.749 115.59 437.997V443.085H114.486V438.077C114.486 437.128 114.246 436.402 113.766 435.901C113.286 435.389 112.63 435.133 111.798 435.133C110.923 435.133 110.224 435.416 109.702 435.981C109.19 436.536 108.934 437.357 108.934 438.445V443.085H107.798V434.349H108.934V436.493C109.158 435.746 109.563 435.176 110.15 434.781C110.736 434.386 111.408 434.189 112.166 434.189ZM123.246 436.157C123.502 435.528 123.913 435.042 124.478 434.701C125.043 434.36 125.731 434.189 126.542 434.189V435.405H126.174C125.331 435.405 124.633 435.634 124.078 436.093C123.523 436.541 123.246 437.277 123.246 438.301V443.085H122.11V434.349H123.246V436.157ZM131.84 442.269C132.629 442.269 133.291 442.072 133.824 441.677C134.357 441.282 134.677 440.749 134.784 440.077H135.968C135.808 441.005 135.365 441.757 134.64 442.333C133.915 442.909 132.997 443.197 131.888 443.197C131.056 443.197 130.315 443.021 129.664 442.669C129.024 442.306 128.523 441.789 128.16 441.117C127.797 440.434 127.616 439.634 127.616 438.717C127.616 437.8 127.797 437.005 128.16 436.333C128.523 435.65 129.024 435.133 129.664 434.781C130.315 434.418 131.056 434.237 131.888 434.237C132.741 434.237 133.477 434.418 134.096 434.781C134.725 435.133 135.2 435.608 135.52 436.205C135.851 436.802 136.016 437.453 136.016 438.157C136.016 438.456 135.995 438.728 135.952 438.973H128.72C128.731 439.709 128.88 440.328 129.168 440.829C129.467 441.32 129.851 441.682 130.32 441.917C130.789 442.152 131.296 442.269 131.84 442.269ZM131.888 435.149C131.323 435.149 130.805 435.266 130.336 435.501C129.867 435.736 129.483 436.098 129.184 436.589C128.896 437.069 128.741 437.672 128.72 438.397H134.896C134.939 437.682 134.821 437.08 134.544 436.589C134.267 436.098 133.893 435.736 133.424 435.501C132.955 435.266 132.443 435.149 131.888 435.149ZM149.84 434.349L147.264 443.085H146.08L143.456 435.661L140.8 443.085H139.632L137.056 434.349H138.192L140.272 441.917L142.896 434.349H144.048L146.688 441.917L148.752 434.349H149.84ZM154.962 434.237C155.847 434.237 156.599 434.466 157.218 434.925C157.847 435.384 158.279 435.992 158.514 436.749V434.349H159.618V443.085H158.514V440.685C158.279 441.442 157.847 442.05 157.218 442.509C156.599 442.968 155.847 443.197 154.962 443.197C154.173 443.197 153.463 443.016 152.834 442.653C152.215 442.29 151.73 441.773 151.378 441.101C151.037 440.418 150.866 439.624 150.866 438.717C150.866 437.8 151.037 437.005 151.378 436.333C151.73 435.65 152.215 435.133 152.834 434.781C153.453 434.418 154.162 434.237 154.962 434.237ZM155.25 435.229C154.269 435.229 153.479 435.544 152.882 436.173C152.295 436.792 152.002 437.64 152.002 438.717C152.002 439.794 152.295 440.648 152.882 441.277C153.479 441.896 154.269 442.205 155.25 442.205C155.869 442.205 156.423 442.061 156.914 441.773C157.415 441.485 157.805 441.08 158.082 440.557C158.37 440.024 158.514 439.41 158.514 438.717C158.514 438.024 158.37 437.416 158.082 436.893C157.805 436.36 157.415 435.949 156.914 435.661C156.423 435.373 155.869 435.229 155.25 435.229ZM163.184 436.157C163.44 435.528 163.85 435.042 164.416 434.701C164.981 434.36 165.669 434.189 166.48 434.189V435.405H166.112C165.269 435.405 164.57 435.634 164.016 436.093C163.461 436.541 163.184 437.277 163.184 438.301V443.085H162.048V434.349H163.184V436.157ZM171.649 434.237C172.535 434.237 173.287 434.466 173.905 434.925C174.535 435.384 174.961 435.992 175.185 436.749V431.245H176.305V443.085H175.185V440.685C174.961 441.442 174.535 442.05 173.905 442.509C173.287 442.968 172.535 443.197 171.649 443.197C170.86 443.197 170.151 443.016 169.521 442.653C168.903 442.29 168.417 441.773 168.065 441.101C167.724 440.418 167.553 439.624 167.553 438.717C167.553 437.8 167.724 437.005 168.065 436.333C168.417 435.65 168.903 435.133 169.521 434.781C170.14 434.418 170.849 434.237 171.649 434.237ZM171.937 435.229C170.956 435.229 170.167 435.544 169.569 436.173C168.983 436.792 168.689 437.64 168.689 438.717C168.689 439.794 168.983 440.648 169.569 441.277C170.167 441.896 170.956 442.205 171.937 442.205C172.556 442.205 173.111 442.061 173.601 441.773C174.103 441.485 174.492 441.08 174.769 440.557C175.057 440.024 175.201 439.41 175.201 438.717C175.201 438.024 175.057 437.416 174.769 436.893C174.492 436.36 174.103 435.949 173.601 435.661C173.111 435.373 172.556 435.229 171.937 435.229ZM181.375 434.237C182.324 434.237 183.087 434.488 183.663 434.989C184.239 435.49 184.591 436.168 184.719 437.021H183.647C183.583 436.456 183.348 435.992 182.943 435.629C182.548 435.256 182.015 435.069 181.343 435.069C180.767 435.069 180.314 435.213 179.983 435.501C179.663 435.778 179.503 436.152 179.503 436.621C179.503 436.973 179.604 437.256 179.807 437.469C180.02 437.682 180.282 437.848 180.591 437.965C180.9 438.072 181.316 438.184 181.839 438.301C182.479 438.45 182.991 438.605 183.375 438.765C183.77 438.914 184.106 439.154 184.383 439.485C184.66 439.816 184.799 440.264 184.799 440.829C184.799 441.522 184.538 442.093 184.015 442.541C183.503 442.978 182.82 443.197 181.967 443.197C180.964 443.197 180.143 442.952 179.503 442.461C178.863 441.96 178.484 441.277 178.367 440.413H179.455C179.519 440.989 179.77 441.458 180.207 441.821C180.644 442.184 181.236 442.365 181.983 442.365C182.538 442.365 182.97 442.221 183.279 441.933C183.588 441.645 183.743 441.272 183.743 440.813C183.743 440.44 183.636 440.141 183.423 439.917C183.21 439.693 182.943 439.528 182.623 439.421C182.314 439.304 181.887 439.181 181.343 439.053C180.714 438.904 180.207 438.754 179.823 438.605C179.45 438.456 179.13 438.226 178.863 437.917C178.596 437.597 178.463 437.165 178.463 436.621C178.463 435.906 178.724 435.33 179.247 434.893C179.77 434.456 180.479 434.237 181.375 434.237ZM32.712 458.237C33.5973 458.237 34.3493 458.466 34.968 458.925C35.5973 459.384 36.024 459.992 36.248 460.749V455.245H37.368V467.085H36.248V464.685C36.024 465.442 35.5973 466.05 34.968 466.509C34.3493 466.968 33.5973 467.197 32.712 467.197C31.9227 467.197 31.2133 467.016 30.584 466.653C29.9653 466.29 29.48 465.773 29.128 465.101C28.7867 464.418 28.616 463.624 28.616 462.717C28.616 461.8 28.7867 461.005 29.128 460.333C29.48 459.65 29.9653 459.133 30.584 458.781C31.2027 458.418 31.912 458.237 32.712 458.237ZM33 459.229C32.0187 459.229 31.2293 459.544 30.632 460.173C30.0453 460.792 29.752 461.64 29.752 462.717C29.752 463.794 30.0453 464.648 30.632 465.277C31.2293 465.896 32.0187 466.205 33 466.205C33.6187 466.205 34.1733 466.061 34.664 465.773C35.1653 465.485 35.5547 465.08 35.832 464.557C36.12 464.024 36.264 463.41 36.264 462.717C36.264 462.024 36.12 461.416 35.832 460.893C35.5547 460.36 35.1653 459.949 34.664 459.661C34.1733 459.373 33.6187 459.229 33 459.229ZM47.3336 458.349V467.085H46.2136V464.925C45.9896 465.682 45.5843 466.258 44.9976 466.653C44.411 467.048 43.739 467.245 42.9816 467.245C41.9576 467.245 41.1256 466.925 40.4856 466.285C39.8563 465.634 39.5416 464.685 39.5416 463.437V458.349H40.6616V463.341C40.6616 464.301 40.9016 465.037 41.3816 465.549C41.8616 466.05 42.5176 466.301 43.3496 466.301C44.2243 466.301 44.9176 466.024 45.4296 465.469C45.9523 464.904 46.2136 464.077 46.2136 462.989V458.349H47.3336ZM50.918 460.157C51.174 459.528 51.5847 459.042 52.15 458.701C52.7153 458.36 53.4033 458.189 54.214 458.189V459.405H53.846C53.0033 459.405 52.3047 459.634 51.75 460.093C51.1953 460.541 50.918 461.277 50.918 462.301V467.085H49.782V458.349H50.918V460.157ZM55.4479 455.757C55.4479 455.522 55.5225 455.336 55.6719 455.197C55.8319 455.058 56.0345 454.989 56.2799 454.989C56.5252 454.989 56.7225 455.058 56.8719 455.197C57.0212 455.336 57.0959 455.522 57.0959 455.757C57.0959 455.981 57.0212 456.162 56.8719 456.301C56.7225 456.44 56.5252 456.509 56.2799 456.509C56.0345 456.509 55.8319 456.44 55.6719 456.301C55.5225 456.162 55.4479 455.981 55.4479 455.757ZM56.8399 458.349V467.085H55.7039V458.349H56.8399ZM63.6344 458.189C64.6477 458.189 65.469 458.514 66.0984 459.165C66.7384 459.805 67.0584 460.749 67.0584 461.997V467.085H65.9544V462.077C65.9544 461.128 65.7144 460.402 65.2344 459.901C64.7544 459.389 64.0984 459.133 63.2664 459.133C62.3917 459.133 61.693 459.416 61.1704 459.981C60.6584 460.536 60.4024 461.357 60.4024 462.445V467.085H59.2664V458.349H60.4024V460.493C60.6264 459.746 61.0317 459.176 61.6184 458.781C62.205 458.386 62.877 458.189 63.6344 458.189ZM73.1026 458.237C73.988 458.237 74.74 458.466 75.3586 458.925C75.988 459.384 76.42 459.992 76.6546 460.749V458.349H77.7586V467.293C77.7586 468.104 77.588 468.813 77.2466 469.421C76.9053 470.04 76.4306 470.514 75.8226 470.845C75.2146 471.186 74.5213 471.357 73.7426 471.357C72.6013 471.357 71.6626 471.08 70.9266 470.525C70.2013 469.981 69.7266 469.24 69.5026 468.301H70.6226C70.8146 468.941 71.1666 469.448 71.6786 469.821C72.2013 470.194 72.868 470.381 73.6786 470.381C74.2333 470.381 74.7346 470.258 75.1826 470.013C75.6413 469.778 75.9986 469.426 76.2546 468.957C76.5213 468.488 76.6546 467.933 76.6546 467.293V464.685C76.42 465.442 75.988 466.05 75.3586 466.509C74.74 466.968 73.988 467.197 73.1026 467.197C72.3133 467.197 71.604 467.016 70.9746 466.653C70.356 466.29 69.8706 465.773 69.5186 465.101C69.1773 464.418 69.0066 463.624 69.0066 462.717C69.0066 461.8 69.1773 461.005 69.5186 460.333C69.8706 459.65 70.356 459.133 70.9746 458.781C71.5933 458.418 72.3026 458.237 73.1026 458.237ZM73.3906 459.229C72.4093 459.229 71.62 459.544 71.0226 460.173C70.436 460.792 70.1426 461.64 70.1426 462.717C70.1426 463.794 70.436 464.648 71.0226 465.277C71.62 465.896 72.4093 466.205 73.3906 466.205C74.0093 466.205 74.564 466.061 75.0546 465.773C75.556 465.485 75.9453 465.08 76.2226 464.557C76.5106 464.024 76.6546 463.41 76.6546 462.717C76.6546 462.024 76.5106 461.416 76.2226 460.893C75.9453 460.36 75.556 459.949 75.0546 459.661C74.564 459.373 74.0093 459.229 73.3906 459.229ZM88.0245 456.029C87.2138 456.018 86.6432 456.168 86.3125 456.477C85.9925 456.776 85.8325 457.282 85.8325 457.997V458.349H88.0245V459.341H85.8325V467.085H84.7125V459.341H83.4165V458.349H84.7125V457.917C84.7125 456.936 84.9792 456.2 85.5125 455.709C86.0458 455.218 86.8832 454.994 88.0245 455.037V456.029ZM89.4479 455.757C89.4479 455.522 89.5225 455.336 89.6719 455.197C89.8319 455.058 90.0345 454.989 90.2799 454.989C90.5252 454.989 90.7225 455.058 90.8719 455.197C91.0212 455.336 91.0959 455.522 91.0959 455.757C91.0959 455.981 91.0212 456.162 90.8719 456.301C90.7225 456.44 90.5252 456.509 90.2799 456.509C90.0345 456.509 89.8319 456.44 89.6719 456.301C89.5225 456.162 89.4479 455.981 89.4479 455.757ZM90.8399 458.349V467.085H89.7039V458.349H90.8399ZM94.4024 460.157C94.6584 459.528 95.069 459.042 95.6344 458.701C96.1997 458.36 96.8877 458.189 97.6984 458.189V459.405H97.3304C96.4877 459.405 95.789 459.634 95.2344 460.093C94.6797 460.541 94.4024 461.277 94.4024 462.301V467.085H93.2664V458.349H94.4024V460.157ZM101.828 458.237C102.778 458.237 103.54 458.488 104.116 458.989C104.692 459.49 105.044 460.168 105.172 461.021H104.1C104.036 460.456 103.802 459.992 103.396 459.629C103.002 459.256 102.468 459.069 101.796 459.069C101.22 459.069 100.767 459.213 100.436 459.501C100.116 459.778 99.9562 460.152 99.9562 460.621C99.9562 460.973 100.058 461.256 100.26 461.469C100.474 461.682 100.735 461.848 101.044 461.965C101.354 462.072 101.77 462.184 102.292 462.301C102.932 462.45 103.444 462.605 103.828 462.765C104.223 462.914 104.559 463.154 104.836 463.485C105.114 463.816 105.252 464.264 105.252 464.829C105.252 465.522 104.991 466.093 104.468 466.541C103.956 466.978 103.274 467.197 102.42 467.197C101.418 467.197 100.596 466.952 99.9562 466.461C99.3162 465.96 98.9376 465.277 98.8202 464.413H99.9082C99.9722 464.989 100.223 465.458 100.66 465.821C101.098 466.184 101.69 466.365 102.436 466.365C102.991 466.365 103.423 466.221 103.732 465.933C104.042 465.645 104.196 465.272 104.196 464.813C104.196 464.44 104.09 464.141 103.876 463.917C103.663 463.693 103.396 463.528 103.076 463.421C102.767 463.304 102.34 463.181 101.796 463.053C101.167 462.904 100.66 462.754 100.276 462.605C99.9029 462.456 99.5829 462.226 99.3162 461.917C99.0496 461.597 98.9162 461.165 98.9162 460.621C98.9162 459.906 99.1776 459.33 99.7002 458.893C100.223 458.456 100.932 458.237 101.828 458.237ZM111.266 466.093V467.085H110.226C109.383 467.085 108.754 466.888 108.338 466.493C107.922 466.088 107.714 465.41 107.714 464.461V459.325H106.386V458.349H107.714V456.141H108.85V458.349H111.25V459.325H108.85V464.477C108.85 465.096 108.962 465.522 109.186 465.757C109.41 465.981 109.804 466.093 110.37 466.093H111.266ZM116.77 466.237C118.658 464.989 120.162 463.736 121.282 462.477C122.413 461.218 122.978 460.04 122.978 458.941C122.978 458.248 122.797 457.688 122.434 457.261C122.072 456.824 121.485 456.605 120.674 456.605C119.842 456.605 119.208 456.866 118.77 457.389C118.344 457.901 118.104 458.6 118.05 459.485H116.946C117.021 458.258 117.4 457.314 118.082 456.653C118.765 455.981 119.656 455.645 120.754 455.645C121.757 455.645 122.568 455.917 123.186 456.461C123.805 457.005 124.114 457.8 124.114 458.845C124.114 459.73 123.821 460.637 123.234 461.565C122.648 462.482 121.917 463.336 121.042 464.125C120.168 464.904 119.277 465.565 118.37 466.109H124.434V467.037H116.77V466.237ZM130.741 458.349L133.781 465.629L136.581 458.349H137.829L132.693 471.213H131.413L133.173 466.989L129.493 458.349H130.741ZM143.059 466.269C143.848 466.269 144.509 466.072 145.043 465.677C145.576 465.282 145.896 464.749 146.003 464.077H147.187C147.027 465.005 146.584 465.757 145.859 466.333C145.133 466.909 144.216 467.197 143.107 467.197C142.275 467.197 141.533 467.021 140.883 466.669C140.243 466.306 139.741 465.789 139.379 465.117C139.016 464.434 138.835 463.634 138.835 462.717C138.835 461.8 139.016 461.005 139.379 460.333C139.741 459.65 140.243 459.133 140.883 458.781C141.533 458.418 142.275 458.237 143.107 458.237C143.96 458.237 144.696 458.418 145.315 458.781C145.944 459.133 146.419 459.608 146.739 460.205C147.069 460.802 147.235 461.453 147.235 462.157C147.235 462.456 147.213 462.728 147.171 462.973H139.939C139.949 463.709 140.099 464.328 140.387 464.829C140.685 465.32 141.069 465.682 141.539 465.917C142.008 466.152 142.515 466.269 143.059 466.269ZM143.107 459.149C142.541 459.149 142.024 459.266 141.555 459.501C141.085 459.736 140.701 460.098 140.403 460.589C140.115 461.069 139.96 461.672 139.939 462.397H146.115C146.157 461.682 146.04 461.08 145.763 460.589C145.485 460.098 145.112 459.736 144.643 459.501C144.173 459.266 143.661 459.149 143.107 459.149ZM152.931 458.237C153.816 458.237 154.568 458.466 155.187 458.925C155.816 459.384 156.248 459.992 156.483 460.749V458.349H157.587V467.085H156.483V464.685C156.248 465.442 155.816 466.05 155.187 466.509C154.568 466.968 153.816 467.197 152.931 467.197C152.141 467.197 151.432 467.016 150.803 466.653C150.184 466.29 149.699 465.773 149.347 465.101C149.005 464.418 148.835 463.624 148.835 462.717C148.835 461.8 149.005 461.005 149.347 460.333C149.699 459.65 150.184 459.133 150.803 458.781C151.421 458.418 152.131 458.237 152.931 458.237ZM153.219 459.229C152.237 459.229 151.448 459.544 150.851 460.173C150.264 460.792 149.971 461.64 149.971 462.717C149.971 463.794 150.264 464.648 150.851 465.277C151.448 465.896 152.237 466.205 153.219 466.205C153.837 466.205 154.392 466.061 154.883 465.773C155.384 465.485 155.773 465.08 156.051 464.557C156.339 464.024 156.483 463.41 156.483 462.717C156.483 462.024 156.339 461.416 156.051 460.893C155.773 460.36 155.384 459.949 154.883 459.661C154.392 459.373 153.837 459.229 153.219 459.229ZM161.152 460.157C161.408 459.528 161.819 459.042 162.384 458.701C162.95 458.36 163.638 458.189 164.448 458.189V459.405H164.08C163.238 459.405 162.539 459.634 161.984 460.093C161.43 460.541 161.152 461.277 161.152 462.301V467.085H160.016V458.349H161.152V460.157ZM168.578 458.237C169.528 458.237 170.29 458.488 170.866 458.989C171.442 459.49 171.794 460.168 171.922 461.021H170.85C170.786 460.456 170.552 459.992 170.146 459.629C169.752 459.256 169.218 459.069 168.546 459.069C167.97 459.069 167.517 459.213 167.186 459.501C166.866 459.778 166.706 460.152 166.706 460.621C166.706 460.973 166.808 461.256 167.01 461.469C167.224 461.682 167.485 461.848 167.794 461.965C168.104 462.072 168.52 462.184 169.042 462.301C169.682 462.45 170.194 462.605 170.578 462.765C170.973 462.914 171.309 463.154 171.586 463.485C171.864 463.816 172.002 464.264 172.002 464.829C172.002 465.522 171.741 466.093 171.218 466.541C170.706 466.978 170.024 467.197 169.17 467.197C168.168 467.197 167.346 466.952 166.706 466.461C166.066 465.96 165.688 465.277 165.57 464.413H166.658C166.722 464.989 166.973 465.458 167.41 465.821C167.848 466.184 168.44 466.365 169.186 466.365C169.741 466.365 170.173 466.221 170.482 465.933C170.792 465.645 170.946 465.272 170.946 464.813C170.946 464.44 170.84 464.141 170.626 463.917C170.413 463.693 170.146 463.528 169.826 463.421C169.517 463.304 169.09 463.181 168.546 463.053C167.917 462.904 167.41 462.754 167.026 462.605C166.653 462.456 166.333 462.226 166.066 461.917C165.8 461.597 165.666 461.165 165.666 460.621C165.666 459.906 165.928 459.33 166.45 458.893C166.973 458.456 167.682 458.237 168.578 458.237Z" fill="white"/>
</g>
<g id="total supply">
<rect id="Rectangle 35_2" x="0.323853" y="0.195801" width="200" height="233.333" rx="30" fill="#0C0F21"/>
<path id="100million" d="M40.3891 119.707V116.539H46.4851V133.483H42.9331V119.707H40.3891ZM49.151 124.867C49.151 130.611 51.311 133.483 55.631 133.483C57.919 133.483 59.567 132.715 60.575 131.179C61.583 129.643 62.087 127.539 62.087 124.867C62.087 122.211 61.583 120.115 60.575 118.579C59.567 117.043 57.919 116.275 55.631 116.275C51.311 116.275 49.151 119.139 49.151 124.867ZM58.751 124.867C58.751 126.611 58.535 127.955 58.103 128.899C57.687 129.827 56.863 130.291 55.631 130.291C54.383 130.291 53.543 129.827 53.111 128.899C52.695 127.955 52.487 126.611 52.487 124.867C52.487 123.139 52.695 121.811 53.111 120.883C53.543 119.939 54.383 119.467 55.631 119.467C56.863 119.467 57.687 119.939 58.103 120.883C58.535 121.811 58.751 123.139 58.751 124.867ZM64.315 124.867C64.315 130.611 66.475 133.483 70.795 133.483C73.083 133.483 74.731 132.715 75.739 131.179C76.747 129.643 77.251 127.539 77.251 124.867C77.251 122.211 76.747 120.115 75.739 118.579C74.731 117.043 73.083 116.275 70.795 116.275C66.475 116.275 64.315 119.139 64.315 124.867ZM73.915 124.867C73.915 126.611 73.699 127.955 73.267 128.899C72.851 129.827 72.027 130.291 70.795 130.291C69.547 130.291 68.707 129.827 68.275 128.899C67.859 127.955 67.651 126.611 67.651 124.867C67.651 123.139 67.859 121.811 68.275 120.883C68.707 119.939 69.547 119.467 70.795 119.467C72.027 119.467 72.851 119.939 73.267 120.883C73.699 121.811 73.915 123.139 73.915 124.867ZM96.8071 119.995C98.4231 119.995 99.6951 120.499 100.623 121.507C101.567 122.499 102.039 123.915 102.039 125.755V133.483H98.6791V126.139C98.6791 125.115 98.4151 124.331 97.8871 123.787C97.3751 123.227 96.6631 122.947 95.7511 122.947C94.8071 122.947 94.0551 123.243 93.4951 123.835C92.9351 124.427 92.6551 125.291 92.6551 126.427V133.483H89.2951V126.139C89.2951 125.115 89.0311 124.331 88.5031 123.787C87.9911 123.227 87.2791 122.947 86.3671 122.947C85.4231 122.947 84.6711 123.243 84.1111 123.835C83.5511 124.427 83.2711 125.291 83.2711 126.427V133.483H79.8871V120.187H83.2711V122.707C83.6231 121.843 84.1751 121.179 84.9271 120.715C85.6951 120.235 86.5831 119.995 87.5911 119.995C88.6631 119.995 89.5911 120.251 90.3751 120.763C91.1751 121.275 91.7751 122.011 92.1751 122.971C92.5911 122.059 93.2071 121.339 94.0231 120.811C94.8551 120.267 95.7831 119.995 96.8071 119.995ZM104.628 116.371C104.628 115.827 104.82 115.387 105.204 115.051C105.588 114.699 106.092 114.523 106.716 114.523C107.34 114.523 107.844 114.699 108.228 115.051C108.612 115.387 108.804 115.827 108.804 116.371C108.804 116.899 108.612 117.339 108.228 117.691C107.844 118.027 107.34 118.195 106.716 118.195C106.092 118.195 105.588 118.027 105.204 117.691C104.82 117.339 104.628 116.899 104.628 116.371ZM108.396 120.187V133.483H105.012V120.187H108.396ZM114.841 115.723V133.483H111.457V115.723H114.841ZM121.287 115.723V133.483H117.903V115.723H121.287ZM123.964 116.371C123.964 115.827 124.156 115.387 124.54 115.051C124.924 114.699 125.428 114.523 126.052 114.523C126.676 114.523 127.18 114.699 127.564 115.051C127.948 115.387 128.14 115.827 128.14 116.371C128.14 116.899 127.948 117.339 127.564 117.691C127.18 118.027 126.676 118.195 126.052 118.195C125.428 118.195 124.924 118.027 124.54 117.691C124.156 117.339 123.964 116.899 123.964 116.371ZM127.732 120.187V133.483H124.348V120.187H127.732ZM136.937 120.019C138.233 120.019 139.393 120.291 140.417 120.835C141.457 121.379 142.273 122.171 142.865 123.211C143.457 124.235 143.753 125.443 143.753 126.835C143.753 128.227 143.457 129.435 142.865 130.459C142.273 131.483 141.457 132.275 140.417 132.835C139.393 133.379 138.233 133.651 136.937 133.651C135.641 133.651 134.473 133.379 133.433 132.835C132.409 132.275 131.601 131.483 131.009 130.459C130.417 129.435 130.121 128.227 130.121 126.835C130.121 125.443 130.417 124.235 131.009 123.211C131.601 122.171 132.409 121.379 133.433 120.835C134.473 120.291 135.641 120.019 136.937 120.019ZM136.937 122.947C135.993 122.947 135.193 123.283 134.537 123.955C133.881 124.611 133.553 125.571 133.553 126.835C133.553 128.099 133.881 129.067 134.537 129.739C135.193 130.395 135.993 130.723 136.937 130.723C137.881 130.723 138.681 130.395 139.337 129.739C139.993 129.067 140.321 128.099 140.321 126.835C140.321 125.571 139.993 124.611 139.337 123.955C138.681 123.283 137.881 122.947 136.937 122.947ZM154.065 119.995C155.601 119.995 156.825 120.499 157.737 121.507C158.649 122.515 159.105 123.931 159.105 125.755V133.483H155.745V126.139C155.745 125.083 155.473 124.267 154.929 123.691C154.385 123.099 153.641 122.803 152.697 122.803C151.737 122.803 150.969 123.115 150.393 123.739C149.817 124.363 149.529 125.259 149.529 126.427V133.483H146.145V120.187H149.529V122.851C149.881 121.955 150.457 121.259 151.257 120.763C152.073 120.251 153.009 119.995 154.065 119.995Z" fill="white"/>
<g id="Group 130">
<path id="Vector_2" d="M70.6314 17.5337C64.4523 17.5337 58.8278 18.4234 54.6414 19.9224C52.5451 20.672 50.8389 21.5373 49.5226 22.6524C48.2064 23.7676 47.2314 25.224 47.2314 26.8937C47.2314 27.2045 47.2679 27.5274 47.3289 27.8199C47.2557 28.021 47.2192 28.2404 47.2314 28.4537V37.8137C47.2314 38.1245 47.2679 38.4474 47.3289 38.7399C47.2557 38.941 47.2192 39.1604 47.2314 39.3737V44.5412C44.7878 44.2182 42.1735 44.0537 39.4314 44.0537C33.2523 44.0537 27.6278 44.9434 23.4414 46.4424C21.3451 47.192 19.6389 48.0573 18.3226 49.1724C17.0064 50.2876 16.0314 51.744 16.0314 53.4137C16.0314 53.7245 16.0679 54.0474 16.1289 54.3399C16.0557 54.541 16.0192 54.7604 16.0314 54.9737V64.3337C16.0314 64.6445 16.0679 64.9674 16.1289 65.2599C16.0557 65.461 16.0192 65.6804 16.0314 65.8937V75.2537C16.0314 75.5645 16.0679 75.8874 16.1289 76.1799C16.0557 76.381 16.0192 76.6004 16.0314 76.8137V86.1737C16.0314 87.8434 17.0064 89.2998 18.3226 90.4149C19.6389 91.5301 21.3451 92.3954 23.4414 93.1449C27.6278 94.6379 33.2462 95.5337 39.4314 95.5337C45.6165 95.5337 51.235 94.6379 55.4214 93.1449C57.5176 92.3954 59.2239 91.5301 60.5401 90.4149C61.8564 89.2998 62.8314 87.8434 62.8314 86.1737V79.4462C65.275 79.7692 67.8831 79.9337 70.6314 79.9337C76.8165 79.9337 82.435 79.0379 86.6214 77.5449C88.7176 76.7954 90.4239 75.9301 91.7401 74.8149C93.0564 73.6998 94.0314 72.2434 94.0314 70.5737V61.2137C94.0435 61.0004 94.007 60.781 93.9339 60.5799C93.9948 60.2874 94.0314 59.9645 94.0314 59.6537V50.2937C94.0435 50.0804 94.007 49.861 93.9339 49.6599C93.9948 49.3674 94.0314 49.0445 94.0314 48.7337V39.3737C94.0435 39.1604 94.007 38.941 93.9339 38.7399C93.9948 38.4474 94.0314 38.1245 94.0314 37.8137V28.4537C94.0253 28.2343 93.9765 28.021 93.8851 27.8199C93.9521 27.5213 94.0314 27.2106 94.0314 26.8937C94.0314 25.224 93.0564 23.7676 91.7401 22.6524C90.4239 21.5373 88.7176 20.672 86.6214 19.9224C82.435 18.4234 76.8104 17.5337 70.6314 17.5337ZM70.6314 20.6537C76.5118 20.6537 81.8317 21.519 85.5489 22.8474C87.4075 23.5117 88.8517 24.2917 89.7414 25.0412C90.6311 25.7907 90.9114 26.4062 90.9114 26.8937C90.9114 27.3812 90.6311 27.9967 89.7414 28.7462C88.8517 29.4957 87.4075 30.2757 85.5489 30.9399C81.8317 32.2684 76.5118 33.1337 70.6314 33.1337C64.7509 33.1337 59.431 32.2684 55.7139 30.9399C53.8553 30.2757 52.411 29.4957 51.5214 28.7462C50.6317 27.9967 50.3514 27.3812 50.3514 26.8937C50.3514 26.4062 50.6317 25.7907 51.5214 25.0412C52.411 24.2917 53.8553 23.5117 55.7139 22.8474C59.431 21.519 64.7509 20.6537 70.6314 20.6537ZM50.3514 31.7199C51.5396 32.5487 52.9473 33.2617 54.6414 33.8649C58.8278 35.364 64.4523 36.2537 70.6314 36.2537C76.8104 36.2537 82.435 35.364 86.6214 33.8649C88.3154 33.2617 89.7231 32.5487 90.9114 31.7199V37.8137C90.9114 38.3012 90.6311 38.9167 89.7414 39.6662C88.8517 40.4157 87.4075 41.1957 85.5489 41.8599C81.8317 43.1884 76.5118 44.0537 70.6314 44.0537C64.7509 44.0537 59.431 43.1884 55.7139 41.8599C53.8553 41.1957 52.411 40.4157 51.5214 39.6662C50.6317 38.9167 50.3514 38.3012 50.3514 37.8137V31.7199ZM50.3514 42.6399C51.5396 43.4687 52.9473 44.1817 54.6414 44.7849C58.8278 46.284 64.4462 47.1737 70.6314 47.1737C76.8165 47.1737 82.435 46.284 86.6214 44.7849C88.3154 44.1817 89.7231 43.4687 90.9114 42.6399V48.7337C90.9114 49.2212 90.6311 49.8367 89.7414 50.5862C88.8517 51.3357 87.4075 52.1157 85.5489 52.7799C81.8317 54.1084 76.5118 54.9737 70.6314 54.9737C67.8221 54.9737 65.1287 54.7848 62.6851 54.4374C62.6851 54.407 62.6851 54.3704 62.6851 54.3399C62.7521 54.0413 62.8314 53.7306 62.8314 53.4137C62.8314 51.744 61.8564 50.2876 60.5401 49.1724C59.2239 48.0573 57.5176 47.192 55.4214 46.4424C53.904 45.9001 52.1978 45.4492 50.3514 45.0774V42.6399ZM39.4314 47.1737C45.3118 47.1737 50.6317 48.039 54.3489 49.3674C56.2075 50.0317 57.6517 50.8117 58.5414 51.5612C59.431 52.3107 59.7114 52.9262 59.7114 53.4137C59.7114 53.9012 59.431 54.5167 58.5414 55.2662C57.6517 56.0157 56.2075 56.7957 54.3489 57.4599C50.6317 58.7884 45.3118 59.6537 39.4314 59.6537C33.5509 59.6537 28.2311 58.7884 24.5139 57.4599C22.6553 56.7957 21.2111 56.0157 20.3214 55.2662C19.4317 54.5167 19.1514 53.9012 19.1514 53.4137C19.1514 52.9262 19.4317 52.3107 20.3214 51.5612C21.2111 50.8117 22.6553 50.0317 24.5139 49.3674C28.2311 48.039 33.5509 47.1737 39.4314 47.1737ZM90.9114 53.5599V59.6537C90.9114 60.1412 90.6311 60.7567 89.7414 61.5062C88.8517 62.2557 87.4075 63.0357 85.5489 63.6999C81.8317 65.0284 76.5118 65.8937 70.6314 65.8937C67.8282 65.8937 65.1653 65.6621 62.7339 65.3087C62.7156 65.3087 62.7034 65.3087 62.6851 65.3087C62.6912 65.2904 62.679 65.2782 62.6851 65.2599C62.7521 64.9613 62.8314 64.6506 62.8314 64.3337V57.6062C65.2628 57.9231 67.8953 58.0937 70.6314 58.0937C76.8165 58.0937 82.435 57.204 86.6214 55.7049C88.3154 55.1017 89.7231 54.3887 90.9114 53.5599ZM19.1514 58.2399C20.3396 59.0687 21.7473 59.7817 23.4414 60.3849C27.6278 61.884 33.2523 62.7737 39.4314 62.7737C45.6104 62.7737 51.235 61.884 55.4214 60.3849C57.1154 59.7817 58.5231 59.0687 59.7114 58.2399V64.3337C59.7114 64.8212 59.431 65.4367 58.5414 66.1862C57.6517 66.9357 56.2075 67.7157 54.3489 68.3799C50.6317 69.7084 45.3118 70.5737 39.4314 70.5737C33.5509 70.5737 28.2311 69.7084 24.5139 68.3799C22.6553 67.7157 21.2111 66.9357 20.3214 66.1862C19.4317 65.4367 19.1514 64.8212 19.1514 64.3337V58.2399ZM90.9114 64.4799V70.5737C90.9114 71.0612 90.6311 71.6767 89.7414 72.4262C88.8517 73.1757 87.4075 73.9557 85.5489 74.6199C81.8317 75.9484 76.5118 76.8137 70.6314 76.8137C67.8039 76.8137 65.1348 76.5821 62.6851 76.2287C62.6851 76.2104 62.6851 76.1982 62.6851 76.1799C62.7521 75.8813 62.8314 75.5706 62.8314 75.2537V68.5262C65.2689 68.8492 67.9014 69.0137 70.6314 69.0137C76.8165 69.0137 82.435 68.1179 86.6214 66.6249C88.3154 66.0217 89.7231 65.3087 90.9114 64.4799ZM19.1514 69.1599C20.3396 69.9887 21.7473 70.7017 23.4414 71.3049C27.6278 72.7979 33.2462 73.6937 39.4314 73.6937C45.6165 73.6937 51.235 72.7979 55.4214 71.3049C57.1154 70.7017 58.5231 69.9887 59.7114 69.1599V75.2537C59.7114 75.7412 59.431 76.3567 58.5414 77.1062C57.6517 77.8557 56.2075 78.6357 54.3489 79.2999C50.6317 80.6284 45.3118 81.4937 39.4314 81.4937C33.5509 81.4937 28.2311 80.6284 24.5139 79.2999C22.6553 78.6357 21.2111 77.8557 20.3214 77.1062C19.4317 76.3567 19.1514 75.7412 19.1514 75.2537V69.1599ZM19.1514 80.0799C20.3396 80.9087 21.7473 81.6217 23.4414 82.2249C27.6278 83.7179 33.2462 84.6137 39.4314 84.6137C45.6165 84.6137 51.235 83.7179 55.4214 82.2249C57.1154 81.6217 58.5231 80.9087 59.7114 80.0799V86.1737C59.7114 86.6612 59.431 87.2767 58.5414 88.0262C57.6517 88.7757 56.2075 89.5557 54.3489 90.2199C50.6317 91.5484 45.3118 92.4137 39.4314 92.4137C33.5509 92.4137 28.2311 91.5484 24.5139 90.2199C22.6553 89.5557 21.2111 88.7757 20.3214 88.0262C19.4317 87.2767 19.1514 86.6612 19.1514 86.1737V80.0799Z" fill="white"/>
<path id="Vector_3" d="M161.216 17.5337C155.037 17.5337 149.413 18.4234 145.226 19.9224C143.13 20.672 141.424 21.5373 140.108 22.6524C138.791 23.7676 137.816 25.224 137.816 26.8937C137.816 27.2045 137.853 27.5274 137.914 27.8199C137.841 28.021 137.804 28.2404 137.816 28.4537V37.8137C137.816 38.1245 137.853 38.4474 137.914 38.7399C137.841 38.941 137.804 39.1604 137.816 39.3737V44.5412C135.373 44.2182 132.759 44.0537 130.016 44.0537C123.837 44.0537 118.213 44.9434 114.026 46.4424C111.93 47.192 110.224 48.0573 108.908 49.1724C107.591 50.2876 106.616 51.744 106.616 53.4137C106.616 53.7245 106.653 54.0474 106.714 54.3399C106.641 54.541 106.604 54.7604 106.616 54.9737V64.3337C106.616 64.6445 106.653 64.9674 106.714 65.2599C106.641 65.461 106.604 65.6804 106.616 65.8937V75.2537C106.616 75.5645 106.653 75.8874 106.714 76.1799C106.641 76.381 106.604 76.6004 106.616 76.8137V86.1737C106.616 87.8434 107.591 89.2998 108.908 90.4149C110.224 91.5301 111.93 92.3954 114.026 93.1449C118.213 94.6379 123.831 95.5337 130.016 95.5337C136.201 95.5337 141.82 94.6379 146.006 93.1449C148.103 92.3954 149.809 91.5301 151.125 90.4149C152.441 89.2998 153.416 87.8434 153.416 86.1737V79.4462C155.86 79.7692 158.468 79.9337 161.216 79.9337C167.401 79.9337 173.02 79.0379 177.206 77.5449C179.303 76.7954 181.009 75.9301 182.325 74.8149C183.641 73.6998 184.616 72.2434 184.616 70.5737V61.2137C184.629 61.0004 184.592 60.781 184.519 60.5799C184.58 60.2874 184.616 59.9645 184.616 59.6537V50.2937C184.629 50.0804 184.592 49.861 184.519 49.6599C184.58 49.3674 184.616 49.0445 184.616 48.7337V39.3737C184.629 39.1604 184.592 38.941 184.519 38.7399C184.58 38.4474 184.616 38.1245 184.616 37.8137V28.4537C184.61 28.2343 184.561 28.021 184.47 27.8199C184.537 27.5213 184.616 27.2106 184.616 26.8937C184.616 25.224 183.641 23.7676 182.325 22.6524C181.009 21.5373 179.303 20.672 177.206 19.9224C173.02 18.4234 167.395 17.5337 161.216 17.5337ZM161.216 20.6537C167.097 20.6537 172.417 21.519 176.134 22.8474C177.992 23.5117 179.437 24.2917 180.326 25.0412C181.216 25.7907 181.496 26.4062 181.496 26.8937C181.496 27.3812 181.216 27.9967 180.326 28.7462C179.437 29.4957 177.992 30.2757 176.134 30.9399C172.417 32.2684 167.097 33.1337 161.216 33.1337C155.336 33.1337 150.016 32.2684 146.299 30.9399C144.44 30.2757 142.996 29.4957 142.106 28.7462C141.217 27.9967 140.936 27.3812 140.936 26.8937C140.936 26.4062 141.217 25.7907 142.106 25.0412C142.996 24.2917 144.44 23.5117 146.299 22.8474C150.016 21.519 155.336 20.6537 161.216 20.6537ZM140.936 31.7199C142.125 32.5487 143.532 33.2617 145.226 33.8649C149.413 35.364 155.037 36.2537 161.216 36.2537C167.395 36.2537 173.02 35.364 177.206 33.8649C178.9 33.2617 180.308 32.5487 181.496 31.7199V37.8137C181.496 38.3012 181.216 38.9167 180.326 39.6662C179.437 40.4157 177.992 41.1957 176.134 41.8599C172.417 43.1884 167.097 44.0537 161.216 44.0537C155.336 44.0537 150.016 43.1884 146.299 41.8599C144.44 41.1957 142.996 40.4157 142.106 39.6662C141.217 38.9167 140.936 38.3012 140.936 37.8137V31.7199ZM140.936 42.6399C142.125 43.4687 143.532 44.1817 145.226 44.7849C149.413 46.284 155.031 47.1737 161.216 47.1737C167.401 47.1737 173.02 46.284 177.206 44.7849C178.9 44.1817 180.308 43.4687 181.496 42.6399V48.7337C181.496 49.2212 181.216 49.8367 180.326 50.5862C179.437 51.3357 177.992 52.1157 176.134 52.7799C172.417 54.1084 167.097 54.9737 161.216 54.9737C158.407 54.9737 155.714 54.7848 153.27 54.4374C153.27 54.407 153.27 54.3704 153.27 54.3399C153.337 54.0413 153.416 53.7306 153.416 53.4137C153.416 51.744 152.441 50.2876 151.125 49.1724C149.809 48.0573 148.103 47.192 146.006 46.4424C144.489 45.9001 142.783 45.4492 140.936 45.0774V42.6399ZM130.016 47.1737C135.897 47.1737 141.217 48.039 144.934 49.3674C146.792 50.0317 148.237 50.8117 149.126 51.5612C150.016 52.3107 150.296 52.9262 150.296 53.4137C150.296 53.9012 150.016 54.5167 149.126 55.2662C148.237 56.0157 146.792 56.7957 144.934 57.4599C141.217 58.7884 135.897 59.6537 130.016 59.6537C124.136 59.6537 118.816 58.7884 115.099 57.4599C113.24 56.7957 111.796 56.0157 110.906 55.2662C110.017 54.5167 109.736 53.9012 109.736 53.4137C109.736 52.9262 110.017 52.3107 110.906 51.5612C111.796 50.8117 113.24 50.0317 115.099 49.3674C118.816 48.039 124.136 47.1737 130.016 47.1737ZM181.496 53.5599V59.6537C181.496 60.1412 181.216 60.7567 180.326 61.5062C179.437 62.2557 177.992 63.0357 176.134 63.6999C172.417 65.0284 167.097 65.8937 161.216 65.8937C158.413 65.8937 155.75 65.6621 153.319 65.3087C153.301 65.3087 153.288 65.3087 153.27 65.3087C153.276 65.2904 153.264 65.2782 153.27 65.2599C153.337 64.9613 153.416 64.6506 153.416 64.3337V57.6062C155.848 57.9231 158.48 58.0937 161.216 58.0937C167.401 58.0937 173.02 57.204 177.206 55.7049C178.9 55.1017 180.308 54.3887 181.496 53.5599ZM109.736 58.2399C110.925 59.0687 112.332 59.7817 114.026 60.3849C118.213 61.884 123.837 62.7737 130.016 62.7737C136.195 62.7737 141.82 61.884 146.006 60.3849C147.7 59.7817 149.108 59.0687 150.296 58.2399V64.3337C150.296 64.8212 150.016 65.4367 149.126 66.1862C148.237 66.9357 146.792 67.7157 144.934 68.3799C141.217 69.7084 135.897 70.5737 130.016 70.5737C124.136 70.5737 118.816 69.7084 115.099 68.3799C113.24 67.7157 111.796 66.9357 110.906 66.1862C110.017 65.4367 109.736 64.8212 109.736 64.3337V58.2399ZM181.496 64.4799V70.5737C181.496 71.0612 181.216 71.6767 180.326 72.4262C179.437 73.1757 177.992 73.9557 176.134 74.6199C172.417 75.9484 167.097 76.8137 161.216 76.8137C158.389 76.8137 155.72 76.5821 153.27 76.2287C153.27 76.2104 153.27 76.1982 153.27 76.1799C153.337 75.8813 153.416 75.5706 153.416 75.2537V68.5262C155.854 68.8492 158.486 69.0137 161.216 69.0137C167.401 69.0137 173.02 68.1179 177.206 66.6249C178.9 66.0217 180.308 65.3087 181.496 64.4799ZM109.736 69.1599C110.925 69.9887 112.332 70.7017 114.026 71.3049C118.213 72.7979 123.831 73.6937 130.016 73.6937C136.201 73.6937 141.82 72.7979 146.006 71.3049C147.7 70.7017 149.108 69.9887 150.296 69.1599V75.2537C150.296 75.7412 150.016 76.3567 149.126 77.1062C148.237 77.8557 146.792 78.6357 144.934 79.2999C141.217 80.6284 135.897 81.4937 130.016 81.4937C124.136 81.4937 118.816 80.6284 115.099 79.2999C113.24 78.6357 111.796 77.8557 110.906 77.1062C110.017 76.3567 109.736 75.7412 109.736 75.2537V69.1599ZM109.736 80.0799C110.925 80.9087 112.332 81.6217 114.026 82.2249C118.213 83.7179 123.831 84.6137 130.016 84.6137C136.201 84.6137 141.82 83.7179 146.006 82.2249C147.7 81.6217 149.108 80.9087 150.296 80.0799V86.1737C150.296 86.6612 150.016 87.2767 149.126 88.0262C148.237 88.7757 146.792 89.5557 144.934 90.2199C141.217 91.5484 135.897 92.4137 130.016 92.4137C124.136 92.4137 118.816 91.5484 115.099 90.2199C113.24 89.5557 111.796 88.7757 110.906 88.0262C110.017 87.2767 109.736 86.6612 109.736 86.1737V80.0799Z" fill="white"/>
</g>
<path id="Total supply of tokens" d="M22.9369 150.203V151.115H19.7209V161.483H18.6009V151.115H15.4009V150.203H22.9369ZM28.3902 152.635C29.2222 152.635 29.9636 152.816 30.6142 153.179C31.2756 153.531 31.7929 154.048 32.1662 154.731C32.5396 155.403 32.7262 156.197 32.7262 157.115C32.7262 158.032 32.5396 158.827 32.1662 159.499C31.7929 160.171 31.2756 160.688 30.6142 161.051C29.9636 161.413 29.2222 161.595 28.3902 161.595C27.5582 161.595 26.8116 161.413 26.1502 161.051C25.4889 160.688 24.9662 160.171 24.5822 159.499C24.2089 158.816 24.0222 158.021 24.0222 157.115C24.0222 156.197 24.2089 155.403 24.5822 154.731C24.9662 154.048 25.4889 153.531 26.1502 153.179C26.8116 152.816 27.5582 152.635 28.3902 152.635ZM28.3902 153.611C27.8142 153.611 27.2809 153.739 26.7902 153.995C26.2996 154.251 25.9049 154.645 25.6062 155.179C25.3076 155.701 25.1582 156.347 25.1582 157.115C25.1582 157.883 25.3076 158.528 25.6062 159.051C25.9049 159.573 26.2996 159.963 26.7902 160.219C27.2809 160.475 27.8142 160.603 28.3902 160.603C28.9556 160.603 29.4782 160.475 29.9582 160.219C30.4489 159.963 30.8436 159.573 31.1422 159.051C31.4409 158.528 31.5902 157.883 31.5902 157.115C31.5902 156.347 31.4409 155.701 31.1422 155.179C30.8436 154.645 30.4489 154.251 29.9582 153.995C29.4782 153.739 28.9556 153.611 28.3902 153.611ZM38.7031 160.491V161.483H37.6631C36.8205 161.483 36.1911 161.285 35.7751 160.891C35.3591 160.485 35.1511 159.808 35.1511 158.859V153.723H33.8231V152.747H35.1511V150.539H36.2871V152.747H38.6871V153.723H36.2871V158.875C36.2871 159.493 36.3991 159.92 36.6231 160.155C36.8471 160.379 37.2418 160.491 37.8071 160.491H38.7031ZM44.2276 152.635C45.113 152.635 45.865 152.864 46.4836 153.323C47.113 153.781 47.545 154.389 47.7796 155.147V152.747H48.8836V161.483H47.7796V159.083C47.545 159.84 47.113 160.448 46.4836 160.907C45.865 161.365 45.113 161.595 44.2276 161.595C43.4383 161.595 42.729 161.413 42.0996 161.051C41.481 160.688 40.9956 160.171 40.6436 159.499C40.3023 158.816 40.1316 158.021 40.1316 157.115C40.1316 156.197 40.3023 155.403 40.6436 154.731C40.9956 154.048 41.481 153.531 42.0996 153.179C42.7183 152.816 43.4276 152.635 44.2276 152.635ZM44.5156 153.627C43.5343 153.627 42.745 153.941 42.1476 154.571C41.561 155.189 41.2676 156.037 41.2676 157.115C41.2676 158.192 41.561 159.045 42.1476 159.675C42.745 160.293 43.5343 160.603 44.5156 160.603C45.1343 160.603 45.689 160.459 46.1796 160.171C46.681 159.883 47.0703 159.477 47.3476 158.955C47.6356 158.421 47.7796 157.808 47.7796 157.115C47.7796 156.421 47.6356 155.813 47.3476 155.291C47.0703 154.757 46.681 154.347 46.1796 154.059C45.689 153.771 45.1343 153.627 44.5156 153.627ZM52.4492 149.643V161.483H51.3132V149.643H52.4492ZM61.672 152.635C62.6213 152.635 63.384 152.885 63.96 153.387C64.536 153.888 64.888 154.565 65.016 155.419H63.944C63.88 154.853 63.6453 154.389 63.24 154.027C62.8453 153.653 62.312 153.467 61.64 153.467C61.064 153.467 60.6107 153.611 60.28 153.899C59.96 154.176 59.8 154.549 59.8 155.019C59.8 155.371 59.9013 155.653 60.104 155.867C60.3173 156.08 60.5787 156.245 60.888 156.363C61.1973 156.469 61.6133 156.581 62.136 156.699C62.776 156.848 63.288 157.003 63.672 157.163C64.0667 157.312 64.4027 157.552 64.68 157.883C64.9573 158.213 65.096 158.661 65.096 159.227C65.096 159.92 64.8347 160.491 64.312 160.939C63.8 161.376 63.1173 161.595 62.264 161.595C61.2613 161.595 60.44 161.349 59.8 160.859C59.16 160.357 58.7813 159.675 58.664 158.811H59.752C59.816 159.387 60.0667 159.856 60.504 160.219C60.9413 160.581 61.5333 160.763 62.28 160.763C62.8347 160.763 63.2667 160.619 63.576 160.331C63.8853 160.043 64.04 159.669 64.04 159.211C64.04 158.837 63.9333 158.539 63.72 158.315C63.5067 158.091 63.24 157.925 62.92 157.819C62.6107 157.701 62.184 157.579 61.64 157.451C61.0107 157.301 60.504 157.152 60.12 157.003C59.7467 156.853 59.4267 156.624 59.16 156.315C58.8933 155.995 58.76 155.563 58.76 155.019C58.76 154.304 59.0213 153.728 59.544 153.291C60.0667 152.853 60.776 152.635 61.672 152.635ZM74.6774 152.747V161.483H73.5574V159.323C73.3334 160.08 72.928 160.656 72.3414 161.051C71.7547 161.445 71.0827 161.643 70.3254 161.643C69.3014 161.643 68.4694 161.323 67.8294 160.683C67.2 160.032 66.8854 159.083 66.8854 157.835V152.747H68.0054V157.739C68.0054 158.699 68.2454 159.435 68.7254 159.947C69.2054 160.448 69.8614 160.699 70.6934 160.699C71.568 160.699 72.2614 160.421 72.7734 159.867C73.296 159.301 73.5574 158.475 73.5574 157.387V152.747H74.6774ZM81.7977 152.635C82.5977 152.635 83.3017 152.816 83.9097 153.179C84.5284 153.531 85.0084 154.048 85.3497 154.731C85.7017 155.403 85.8777 156.197 85.8777 157.115C85.8777 158.021 85.7017 158.816 85.3497 159.499C85.0084 160.171 84.5284 160.688 83.9097 161.051C83.2911 161.413 82.5871 161.595 81.7977 161.595C80.9017 161.595 80.1444 161.365 79.5257 160.907C78.9071 160.448 78.4804 159.84 78.2457 159.083V165.611H77.1257V152.747H78.2457V155.147C78.4804 154.389 78.9071 153.781 79.5257 153.323C80.1444 152.864 80.9017 152.635 81.7977 152.635ZM81.4937 153.627C80.8751 153.627 80.3151 153.771 79.8137 154.059C79.3231 154.347 78.9391 154.757 78.6617 155.291C78.3844 155.813 78.2457 156.421 78.2457 157.115C78.2457 157.808 78.3844 158.421 78.6617 158.955C78.9391 159.477 79.3231 159.883 79.8137 160.171C80.3151 160.459 80.8751 160.603 81.4937 160.603C82.4857 160.603 83.2751 160.293 83.8617 159.675C84.4484 159.045 84.7417 158.192 84.7417 157.115C84.7417 156.037 84.4484 155.189 83.8617 154.571C83.2751 153.941 82.4857 153.627 81.4937 153.627ZM92.5634 152.635C93.3634 152.635 94.0674 152.816 94.6754 153.179C95.294 153.531 95.774 154.048 96.1154 154.731C96.4674 155.403 96.6434 156.197 96.6434 157.115C96.6434 158.021 96.4674 158.816 96.1154 159.499C95.774 160.171 95.294 160.688 94.6754 161.051C94.0567 161.413 93.3527 161.595 92.5634 161.595C91.6674 161.595 90.91 161.365 90.2914 160.907C89.6727 160.448 89.246 159.84 89.0114 159.083V165.611H87.8914V152.747H89.0114V155.147C89.246 154.389 89.6727 153.781 90.2914 153.323C90.91 152.864 91.6674 152.635 92.5634 152.635ZM92.2594 153.627C91.6407 153.627 91.0807 153.771 90.5794 154.059C90.0887 154.347 89.7047 154.757 89.4274 155.291C89.15 155.813 89.0114 156.421 89.0114 157.115C89.0114 157.808 89.15 158.421 89.4274 158.955C89.7047 159.477 90.0887 159.883 90.5794 160.171C91.0807 160.459 91.6407 160.603 92.2594 160.603C93.2514 160.603 94.0407 160.293 94.6274 159.675C95.214 159.045 95.5074 158.192 95.5074 157.115C95.5074 156.037 95.214 155.189 94.6274 154.571C94.0407 153.941 93.2514 153.627 92.2594 153.627ZM99.793 149.643V161.483H98.657V149.643H99.793ZM102.459 152.747L105.499 160.027L108.299 152.747H109.547L104.411 165.611H103.131L104.891 161.387L101.211 152.747H102.459ZM119.078 152.635C119.91 152.635 120.651 152.816 121.302 153.179C121.963 153.531 122.48 154.048 122.854 154.731C123.227 155.403 123.414 156.197 123.414 157.115C123.414 158.032 123.227 158.827 122.854 159.499C122.48 160.171 121.963 160.688 121.302 161.051C120.651 161.413 119.91 161.595 119.078 161.595C118.246 161.595 117.499 161.413 116.838 161.051C116.176 160.688 115.654 160.171 115.27 159.499C114.896 158.816 114.71 158.021 114.71 157.115C114.71 156.197 114.896 155.403 115.27 154.731C115.654 154.048 116.176 153.531 116.838 153.179C117.499 152.816 118.246 152.635 119.078 152.635ZM119.078 153.611C118.502 153.611 117.968 153.739 117.478 153.995C116.987 154.251 116.592 154.645 116.294 155.179C115.995 155.701 115.846 156.347 115.846 157.115C115.846 157.883 115.995 158.528 116.294 159.051C116.592 159.573 116.987 159.963 117.478 160.219C117.968 160.475 118.502 160.603 119.078 160.603C119.643 160.603 120.166 160.475 120.646 160.219C121.136 159.963 121.531 159.573 121.83 159.051C122.128 158.528 122.278 157.883 122.278 157.115C122.278 156.347 122.128 155.701 121.83 155.179C121.531 154.645 121.136 154.251 120.646 153.995C120.166 153.739 119.643 153.611 119.078 153.611ZM129.103 150.427C128.292 150.416 127.721 150.565 127.391 150.875C127.071 151.173 126.911 151.68 126.911 152.395V152.747H129.103V153.739H126.911V161.483H125.791V153.739H124.495V152.747H125.791V152.315C125.791 151.333 126.057 150.597 126.591 150.107C127.124 149.616 127.961 149.392 129.103 149.435V150.427ZM138.906 160.491V161.483H137.866C137.024 161.483 136.394 161.285 135.978 160.891C135.562 160.485 135.354 159.808 135.354 158.859V153.723H134.026V152.747H135.354V150.539H136.49V152.747H138.89V153.723H136.49V158.875C136.49 159.493 136.602 159.92 136.826 160.155C137.05 160.379 137.445 160.491 138.01 160.491H138.906ZM144.703 152.635C145.535 152.635 146.276 152.816 146.927 153.179C147.588 153.531 148.105 154.048 148.479 154.731C148.852 155.403 149.039 156.197 149.039 157.115C149.039 158.032 148.852 158.827 148.479 159.499C148.105 160.171 147.588 160.688 146.927 161.051C146.276 161.413 145.535 161.595 144.703 161.595C143.871 161.595 143.124 161.413 142.463 161.051C141.801 160.688 141.279 160.171 140.895 159.499C140.521 158.816 140.335 158.021 140.335 157.115C140.335 156.197 140.521 155.403 140.895 154.731C141.279 154.048 141.801 153.531 142.463 153.179C143.124 152.816 143.871 152.635 144.703 152.635ZM144.703 153.611C144.127 153.611 143.593 153.739 143.103 153.995C142.612 154.251 142.217 154.645 141.919 155.179C141.62 155.701 141.471 156.347 141.471 157.115C141.471 157.883 141.62 158.528 141.919 159.051C142.217 159.573 142.612 159.963 143.103 160.219C143.593 160.475 144.127 160.603 144.703 160.603C145.268 160.603 145.791 160.475 146.271 160.219C146.761 159.963 147.156 159.573 147.455 159.051C147.753 158.528 147.903 157.883 147.903 157.115C147.903 156.347 147.753 155.701 147.455 155.179C147.156 154.645 146.761 154.251 146.271 153.995C145.791 153.739 145.268 153.611 144.703 153.611ZM155.72 161.483L152.184 157.483V161.483H151.048V149.643H152.184V156.587L155.656 152.747H157.048L153.032 157.067L157.16 161.483H155.72ZM162.293 160.667C163.082 160.667 163.744 160.469 164.277 160.075C164.81 159.68 165.13 159.147 165.237 158.475H166.421C166.261 159.403 165.818 160.155 165.093 160.731C164.368 161.307 163.45 161.595 162.341 161.595C161.509 161.595 160.768 161.419 160.117 161.067C159.477 160.704 158.976 160.187 158.613 159.515C158.25 158.832 158.069 158.032 158.069 157.115C158.069 156.197 158.25 155.403 158.613 154.731C158.976 154.048 159.477 153.531 160.117 153.179C160.768 152.816 161.509 152.635 162.341 152.635C163.194 152.635 163.93 152.816 164.549 153.179C165.178 153.531 165.653 154.005 165.973 154.603C166.304 155.2 166.469 155.851 166.469 156.555C166.469 156.853 166.448 157.125 166.405 157.371H159.173C159.184 158.107 159.333 158.725 159.621 159.227C159.92 159.717 160.304 160.08 160.773 160.315C161.242 160.549 161.749 160.667 162.293 160.667ZM162.341 153.547C161.776 153.547 161.258 153.664 160.789 153.899C160.32 154.133 159.936 154.496 159.637 154.987C159.349 155.467 159.194 156.069 159.173 156.795H165.349C165.392 156.08 165.274 155.477 164.997 154.987C164.72 154.496 164.346 154.133 163.877 153.899C163.408 153.664 162.896 153.547 162.341 153.547ZM172.853 152.587C173.866 152.587 174.688 152.912 175.317 153.563C175.957 154.203 176.277 155.147 176.277 156.395V161.483H175.173V156.475C175.173 155.525 174.933 154.8 174.453 154.299C173.973 153.787 173.317 153.531 172.485 153.531C171.61 153.531 170.912 153.813 170.389 154.379C169.877 154.933 169.621 155.755 169.621 156.843V161.483H168.485V152.747H169.621V154.891C169.845 154.144 170.25 153.573 170.837 153.179C171.424 152.784 172.096 152.587 172.853 152.587ZM181.281 152.635C182.231 152.635 182.993 152.885 183.569 153.387C184.145 153.888 184.497 154.565 184.625 155.419H183.553C183.489 154.853 183.255 154.389 182.849 154.027C182.455 153.653 181.921 153.467 181.249 153.467C180.673 153.467 180.22 153.611 179.889 153.899C179.569 154.176 179.409 154.549 179.409 155.019C179.409 155.371 179.511 155.653 179.713 155.867C179.927 156.08 180.188 156.245 180.497 156.363C180.807 156.469 181.223 156.581 181.745 156.699C182.385 156.848 182.897 157.003 183.281 157.163C183.676 157.312 184.012 157.552 184.289 157.883C184.567 158.213 184.705 158.661 184.705 159.227C184.705 159.92 184.444 160.491 183.921 160.939C183.409 161.376 182.727 161.595 181.873 161.595C180.871 161.595 180.049 161.349 179.409 160.859C178.769 160.357 178.391 159.675 178.273 158.811H179.361C179.425 159.387 179.676 159.856 180.113 160.219C180.551 160.581 181.143 160.763 181.889 160.763C182.444 160.763 182.876 160.619 183.185 160.331C183.495 160.043 183.649 159.669 183.649 159.211C183.649 158.837 183.543 158.539 183.329 158.315C183.116 158.091 182.849 157.925 182.529 157.819C182.22 157.701 181.793 157.579 181.249 157.451C180.62 157.301 180.113 157.152 179.729 157.003C179.356 156.853 179.036 156.624 178.769 156.315C178.503 155.995 178.369 155.563 178.369 155.019C178.369 154.304 178.631 153.728 179.153 153.291C179.676 152.853 180.385 152.635 181.281 152.635Z" fill="white"/>
</g>
</g>
</svg>
