<svg width="246" height="280" viewBox="0 0 246 280" fill="none" xmlns="http://www.w3.org/2000/svg">
<path fill-rule="evenodd" clip-rule="evenodd" d="M110.983 86.5658V106.322C110.983 108.611 109.127 110.466 106.838 110.466C104.55 110.466 102.694 108.611 102.694 106.322V86.5658C102.694 84.2771 104.55 82.4217 106.838 82.4217C109.127 82.4217 110.983 84.2771 110.983 86.5658ZM100.694 86.5658C100.694 83.1725 103.445 80.4217 106.838 80.4217C110.232 80.4217 112.983 83.1725 112.983 86.5658V106.322C112.983 109.715 110.232 112.466 106.838 112.466C103.445 112.466 100.694 109.715 100.694 106.322V86.5658ZM127.56 106.322V86.5658C127.56 84.2771 125.705 82.4217 123.416 82.4217C121.127 82.4217 119.272 84.2771 119.272 86.5658V106.322C119.272 108.611 121.127 110.466 123.416 110.466C125.705 110.466 127.56 108.611 127.56 106.322ZM123.416 80.4217C120.023 80.4217 117.272 83.1725 117.272 86.5658V106.322C117.272 109.715 120.023 112.466 123.416 112.466C126.809 112.466 129.56 109.715 129.56 106.322V86.5658C129.56 83.1725 126.809 80.4217 123.416 80.4217ZM144.137 86.5658V106.322C144.137 108.611 142.282 110.466 139.993 110.466C137.705 110.466 135.849 108.611 135.849 106.322V86.5658C135.849 84.2771 137.705 82.4217 139.993 82.4217C142.282 82.4217 144.137 84.2771 144.137 86.5658ZM133.849 86.5658C133.849 83.1725 136.6 80.4217 139.993 80.4217C143.387 80.4217 146.137 83.1725 146.137 86.5658V106.322C146.137 109.715 143.387 112.466 139.993 112.466C136.6 112.466 133.849 109.715 133.849 106.322V86.5658ZM170.071 64.4718H76.7607C75.1038 64.4718 73.7607 65.8149 73.7607 67.4718V73.4449C73.7607 75.1018 75.1038 76.4449 76.7607 76.4449H170.071C171.728 76.4449 173.071 75.1018 173.071 73.4449V67.4718C173.071 65.8149 171.728 64.4718 170.071 64.4718ZM76.7607 62.4718C73.9993 62.4718 71.7607 64.7103 71.7607 67.4718V73.4449C71.7607 76.2063 73.9993 78.4449 76.7607 78.4449H79.2235L79.2237 78.4453L89.6537 115.659C89.8957 116.522 90.6828 117.119 91.5795 117.119H155.181C156.076 117.119 156.863 116.524 157.106 115.662L167.605 78.4453L167.605 78.4449H170.071C172.833 78.4449 175.071 76.2063 175.071 73.4449V67.4718C175.071 64.7103 172.833 62.4718 170.071 62.4718H76.7607ZM91.5795 115.119L81.3007 78.4453H165.527L155.181 115.119H91.5795ZM95.9985 43.9102H86.9537L83.0863 55.2111L106.656 55.2111L102.772 43.9307H98.1362H95.9905L95.9985 43.9102ZM96.7756 41.9102H86.9537C86.0987 41.9102 85.3383 42.4537 85.0615 43.2626L81.194 54.5636C80.7498 55.8615 81.7144 57.2111 83.0863 57.2111L107.344 57.2111L108.789 57.2111L109.46 57.2111L110.903 57.2111L135.845 57.2111L137.372 57.2111L137.96 57.2111L139.486 57.2111L163.74 57.2111C165.114 57.2111 166.078 55.8587 165.631 54.5601L161.74 43.2591C161.463 42.452 160.703 41.9102 159.849 41.9102H150.052L146.324 32.3744C146.024 31.6073 145.285 31.1025 144.461 31.1025H136.834L136.79 30.9874L133.042 21.2828C132.744 20.5117 132.002 20.0033 131.176 20.0033H116.153C115.325 20.0033 114.582 20.5135 114.286 21.2865L110.561 30.9874L110.517 31.1025H102.343C101.518 31.1025 100.778 31.6091 100.479 32.3781L96.7756 41.9102ZM119.481 32.9874H127.325L123.858 41.9102H122.969L119.481 32.9874ZM148.694 43.9307H144.031L140.171 55.2111L163.74 55.2111L159.849 43.9102H150.833L150.841 43.9307H148.694ZM144.038 41.9102H147.904L144.461 33.1025H129.426L126.004 41.9102H131.266C131.363 41.9102 131.458 41.9172 131.552 41.9307L143.752 41.9307C143.846 41.9172 143.941 41.9102 144.038 41.9102ZM141.917 43.9307L133.388 43.9307L137.272 55.2111L137.665 56.3546L138.057 55.2111L141.917 43.9307ZM135.157 55.2111L131.273 43.9307H125.219L123.759 43.9307L123.073 43.9307L121.611 43.9307H115.448L111.587 55.2111L135.157 55.2111ZM103.051 41.9307C102.957 41.9172 102.862 41.9102 102.765 41.9102H98.9212L102.343 33.1025H117.379L120.822 41.9102H115.455C115.358 41.9102 115.262 41.9172 115.168 41.9307L103.051 41.9307ZM104.887 43.9307L108.771 55.2111L109.123 56.234L109.473 55.2111L113.334 43.9307L104.887 43.9307ZM116.153 22.0033H131.176L134.646 30.9874L112.704 30.9874L116.153 22.0033ZM91.6509 15.6182C92.0474 15.2336 92.6901 15.2336 93.0866 15.6182L100.173 22.4916C100.57 22.8761 100.57 23.4995 100.173 23.884C99.777 24.2686 99.1342 24.2686 98.7378 23.884L91.6509 17.0106C91.2545 16.6261 91.2545 16.0027 91.6509 15.6182ZM106.477 5.03367C106.195 4.55911 105.575 4.39314 105.093 4.66297C104.612 4.93281 104.45 5.53627 104.732 6.01083L109.736 14.4159C110.018 14.8905 110.638 15.0564 111.12 14.7866C111.602 14.5168 111.763 13.9133 111.481 13.4387L106.477 5.03367ZM123.926 0.85144C124.479 0.85144 124.926 1.29916 124.926 1.85144V11.5412C124.926 12.0935 124.479 12.5412 123.926 12.5412C123.374 12.5412 122.926 12.0935 122.926 11.5412V1.85144C122.926 1.29916 123.374 0.85144 123.926 0.85144ZM143.542 6.98799C143.824 6.51342 143.663 5.90997 143.181 5.64013C142.699 5.3703 142.079 5.53627 141.797 6.01083L136.793 14.4159C136.511 14.8905 136.673 15.4939 137.154 15.7637C137.636 16.0336 138.256 15.8676 138.538 15.393L143.542 6.98799ZM156.419 15.9714C156.815 16.3559 156.815 16.9793 156.419 17.3638L149.332 24.2373C148.935 24.6218 148.292 24.6218 147.896 24.2373C147.5 23.8528 147.5 23.2294 147.896 22.8449L154.983 15.9714C155.379 15.5869 156.022 15.5869 156.419 15.9714ZM89.1634 14.5412C89.7157 14.5412 90.1634 14.0935 90.1634 13.5412C90.1634 12.9889 89.7157 12.5412 89.1634 12.5412C88.6111 12.5412 88.1634 12.9889 88.1634 13.5412C88.1634 14.0935 88.6111 14.5412 89.1634 14.5412ZM159.546 13.5412C159.546 14.0935 159.099 14.5412 158.546 14.5412C157.994 14.5412 157.546 14.0935 157.546 13.5412C157.546 12.9889 157.994 12.5412 158.546 12.5412C159.099 12.5412 159.546 12.9889 159.546 13.5412Z" fill="white"/>
<path d="M33.416 82.7645V85.2645V82.7645ZM240.916 112.765V246.851H245.916V112.765H240.916ZM213.416 274.351H33.416V279.351H213.416V274.351ZM5.91596 246.851V112.765H0.915962V246.851H5.91596ZM33.416 85.2645L61.3448 85.2645V80.2645L33.416 80.2645V85.2645ZM185.584 85.2645H213.416V80.2645H185.584V85.2645ZM33.416 274.351C18.2281 274.351 5.91596 262.039 5.91596 246.851H0.915962C0.915962 264.801 15.4667 279.351 33.416 279.351V274.351ZM240.916 246.851C240.916 262.039 228.604 274.351 213.416 274.351V279.351C231.365 279.351 245.916 264.801 245.916 246.851H240.916ZM245.916 112.765C245.916 94.8153 231.365 80.2645 213.416 80.2645V85.2645C228.604 85.2645 240.916 97.5767 240.916 112.765H245.916ZM5.91596 112.765C5.91596 97.5767 18.2281 85.2645 33.416 85.2645V80.2645C15.4667 80.2645 0.915962 94.8153 0.915962 112.765H5.91596Z" fill="url(#paint0_linear)"/>
<circle cx="61.308" cy="82.7645" r="2.5" fill="#48F272"/>
<circle cx="185.678" cy="82.7645" r="2.5" fill="#FD6461"/>
<path d="M23.316 158.077V167.869C23.316 168.989 23.564 169.845 24.06 170.437C24.572 171.029 25.308 171.325 26.268 171.325C27.228 171.325 27.956 171.029 28.452 170.437C28.964 169.845 29.22 168.989 29.22 167.869V158.077H33.324V167.869C33.324 169.469 33.012 170.821 32.388 171.925C31.764 173.013 30.908 173.837 29.82 174.397C28.748 174.941 27.532 175.213 26.172 175.213C24.812 175.213 23.612 174.941 22.572 174.397C21.532 173.853 20.716 173.029 20.124 171.925C19.532 170.821 19.236 169.469 19.236 167.869V158.077H23.316ZM44.5623 161.509C46.0983 161.509 47.3143 162.021 48.2103 163.045C49.1223 164.069 49.5783 165.477 49.5783 167.269V175.045H45.4743V167.749C45.4743 166.853 45.2343 166.157 44.7543 165.661C44.2903 165.149 43.6663 164.893 42.8823 164.893C42.0503 164.893 41.3863 165.157 40.8903 165.685C40.4103 166.213 40.1703 166.965 40.1703 167.941V175.045H36.0663V161.653H40.1703V164.101C40.5543 163.301 41.1223 162.669 41.8743 162.205C42.6423 161.741 43.5383 161.509 44.5623 161.509ZM57.3731 161.485C58.3971 161.485 59.2771 161.717 60.0131 162.181C60.7491 162.645 61.2851 163.277 61.6211 164.077V157.285H65.7251V175.045H61.6211V172.621C61.2851 173.421 60.7491 174.053 60.0131 174.517C59.2771 174.981 58.3971 175.213 57.3731 175.213C56.2691 175.213 55.2771 174.941 54.3971 174.397C53.5331 173.837 52.8451 173.037 52.3331 171.997C51.8371 170.957 51.5891 169.741 51.5891 168.349C51.5891 166.941 51.8371 165.725 52.3331 164.701C52.8451 163.661 53.5331 162.869 54.3971 162.325C55.2771 161.765 56.2691 161.485 57.3731 161.485ZM58.6931 165.085C57.8131 165.085 57.1011 165.373 56.5571 165.949C56.0291 166.525 55.7651 167.325 55.7651 168.349C55.7651 169.373 56.0291 170.173 56.5571 170.749C57.1011 171.325 57.8131 171.613 58.6931 171.613C59.5571 171.613 60.2611 171.317 60.8051 170.725C61.3651 170.133 61.6451 169.341 61.6451 168.349C61.6451 167.341 61.3651 166.549 60.8051 165.973C60.2611 165.381 59.5571 165.085 58.6931 165.085ZM81.2707 167.989C81.2707 168.325 81.2307 168.693 81.1507 169.093H71.8627C71.9107 170.101 72.1667 170.829 72.6307 171.277C73.0947 171.709 73.6867 171.925 74.4067 171.925C75.0147 171.925 75.5187 171.773 75.9187 171.469C76.3187 171.165 76.5827 170.773 76.7107 170.293H81.0547C80.8787 171.237 80.4947 172.085 79.9027 172.837C79.3107 173.573 78.5587 174.157 77.6467 174.589C76.7347 175.005 75.7187 175.213 74.5987 175.213C73.2867 175.213 72.1187 174.941 71.0947 174.397C70.0867 173.837 69.2947 173.037 68.7187 171.997C68.1427 170.957 67.8547 169.741 67.8547 168.349C67.8547 166.941 68.1347 165.725 68.6947 164.701C69.2707 163.661 70.0707 162.869 71.0947 162.325C72.1187 161.765 73.2867 161.485 74.5987 161.485C75.9267 161.485 77.0947 161.757 78.1027 162.301C79.1107 162.845 79.8867 163.613 80.4307 164.605C80.9907 165.581 81.2707 166.709 81.2707 167.989ZM77.1187 167.365C77.1347 166.485 76.8947 165.829 76.3987 165.397C75.9187 164.949 75.3187 164.725 74.5987 164.725C73.8467 164.725 73.2227 164.949 72.7267 165.397C72.2307 165.845 71.9507 166.501 71.8867 167.365H77.1187ZM87.5141 164.173C88.0261 163.357 88.6821 162.709 89.4821 162.229C90.2981 161.749 91.1781 161.509 92.1221 161.509V165.901H90.9461C89.8581 165.901 89.0101 166.133 88.4021 166.597C87.8101 167.061 87.5141 167.845 87.5141 168.949V175.045H83.4101V161.653H87.5141V164.173ZM97.9438 157.285V175.045H93.8398V157.285H97.9438ZM103.873 161.653L107.089 169.861L110.089 161.653H114.625L106.273 181.429H101.761L104.905 174.541L99.2893 161.653H103.873ZM115.604 157.885C115.604 157.261 115.828 156.749 116.276 156.349C116.724 155.933 117.316 155.725 118.052 155.725C118.788 155.725 119.38 155.933 119.828 156.349C120.276 156.749 120.5 157.261 120.5 157.885C120.5 158.493 120.276 159.005 119.828 159.421C119.38 159.821 118.788 160.021 118.052 160.021C117.316 160.021 116.724 159.821 116.276 159.421C115.828 159.005 115.604 158.493 115.604 157.885ZM120.092 161.653V175.045H115.988V161.653H120.092ZM131.422 161.509C132.958 161.509 134.174 162.021 135.07 163.045C135.982 164.069 136.438 165.477 136.438 167.269V175.045H132.334V167.749C132.334 166.853 132.094 166.157 131.614 165.661C131.15 165.149 130.526 164.893 129.742 164.893C128.91 164.893 128.246 165.157 127.75 165.685C127.27 166.213 127.03 166.965 127.03 167.941V175.045H122.926V161.653H127.03V164.101C127.414 163.301 127.982 162.669 128.734 162.205C129.502 161.741 130.398 161.509 131.422 161.509ZM144.232 161.485C145.256 161.485 146.136 161.717 146.872 162.181C147.608 162.645 148.152 163.277 148.504 164.077V161.653H152.584V174.973C152.584 176.221 152.344 177.341 151.864 178.333C151.384 179.341 150.648 180.141 149.656 180.733C148.664 181.325 147.432 181.621 145.96 181.621C143.944 181.621 142.328 181.141 141.112 180.181C139.912 179.237 139.192 177.949 138.952 176.317H143.008C143.136 176.861 143.424 177.285 143.872 177.589C144.336 177.893 144.936 178.045 145.672 178.045C146.52 178.045 147.2 177.797 147.712 177.301C148.24 176.821 148.504 176.045 148.504 174.973V172.621C148.152 173.421 147.608 174.053 146.872 174.517C146.136 174.981 145.256 175.213 144.232 175.213C143.128 175.213 142.136 174.941 141.256 174.397C140.392 173.837 139.704 173.037 139.192 171.997C138.696 170.957 138.448 169.741 138.448 168.349C138.448 166.941 138.696 165.725 139.192 164.701C139.704 163.661 140.392 162.869 141.256 162.325C142.136 161.765 143.128 161.485 144.232 161.485ZM145.552 165.085C144.672 165.085 143.96 165.373 143.416 165.949C142.888 166.525 142.624 167.325 142.624 168.349C142.624 169.373 142.888 170.173 143.416 170.749C143.96 171.325 144.672 171.613 145.552 171.613C146.416 171.613 147.12 171.317 147.664 170.725C148.224 170.133 148.504 169.341 148.504 168.349C148.504 167.341 148.224 166.549 147.664 165.973C147.12 165.381 146.416 165.085 145.552 165.085ZM166.407 171.037L169.311 161.653H173.679L168.927 175.045H163.839L159.087 161.653H163.455L166.407 171.037ZM180.467 161.485C181.491 161.485 182.371 161.717 183.107 162.181C183.843 162.645 184.387 163.277 184.739 164.077V161.653H188.819V175.045H184.739V172.621C184.387 173.421 183.843 174.053 183.107 174.517C182.371 174.981 181.491 175.213 180.467 175.213C179.363 175.213 178.371 174.941 177.491 174.397C176.627 173.837 175.939 173.037 175.427 171.997C174.931 170.957 174.683 169.741 174.683 168.349C174.683 166.941 174.931 165.725 175.427 164.701C175.939 163.661 176.627 162.869 177.491 162.325C178.371 161.765 179.363 161.485 180.467 161.485ZM181.787 165.085C180.907 165.085 180.195 165.373 179.651 165.949C179.123 166.525 178.859 167.325 178.859 168.349C178.859 169.373 179.123 170.173 179.651 170.749C180.195 171.325 180.907 171.613 181.787 171.613C182.651 171.613 183.355 171.317 183.899 170.725C184.459 170.133 184.739 169.341 184.739 168.349C184.739 167.341 184.459 166.549 183.899 165.973C183.355 165.381 182.651 165.085 181.787 165.085ZM195.748 157.285V175.045H191.644V157.285H195.748ZM211.902 161.653V175.045H207.774V172.621C207.39 173.405 206.814 174.029 206.046 174.493C205.294 174.957 204.414 175.189 203.406 175.189C201.87 175.189 200.646 174.677 199.734 173.653C198.838 172.629 198.39 171.221 198.39 169.429V161.653H202.47V168.925C202.47 169.837 202.702 170.549 203.166 171.061C203.646 171.557 204.286 171.805 205.086 171.805C205.918 171.805 206.574 171.541 207.054 171.013C207.534 170.485 207.774 169.733 207.774 168.757V161.653H211.902ZM227.45 167.989C227.45 168.325 227.41 168.693 227.33 169.093H218.042C218.09 170.101 218.346 170.829 218.81 171.277C219.274 171.709 219.866 171.925 220.586 171.925C221.194 171.925 221.698 171.773 222.098 171.469C222.498 171.165 222.762 170.773 222.89 170.293H227.234C227.058 171.237 226.674 172.085 226.082 172.837C225.49 173.573 224.738 174.157 223.826 174.589C222.914 175.005 221.898 175.213 220.778 175.213C219.466 175.213 218.298 174.941 217.274 174.397C216.266 173.837 215.474 173.037 214.898 171.997C214.322 170.957 214.034 169.741 214.034 168.349C214.034 166.941 214.314 165.725 214.874 164.701C215.45 163.661 216.25 162.869 217.274 162.325C218.298 161.765 219.466 161.485 220.778 161.485C222.106 161.485 223.274 161.757 224.282 162.301C225.29 162.845 226.066 163.613 226.61 164.605C227.17 165.581 227.45 166.709 227.45 167.989ZM223.298 167.365C223.314 166.485 223.074 165.829 222.578 165.397C222.098 164.949 221.498 164.725 220.778 164.725C220.026 164.725 219.402 164.949 218.906 165.397C218.41 165.845 218.13 166.501 218.066 167.365H223.298Z" fill="white"/>
<path d="M38.6677 199.897C38.6677 200.281 38.5757 200.645 38.3917 200.989C38.2157 201.325 37.9397 201.601 37.5637 201.817C37.1877 202.025 36.7197 202.129 36.1597 202.129C35.6157 202.129 35.1317 202.029 34.7077 201.829C34.2837 201.629 33.9437 201.357 33.6877 201.013C33.4397 200.661 33.2957 200.269 33.2557 199.837H34.1437C34.1757 200.085 34.2677 200.333 34.4197 200.581C34.5717 200.829 34.7917 201.037 35.0797 201.205C35.3677 201.365 35.7157 201.445 36.1237 201.445C36.6597 201.445 37.0677 201.301 37.3477 201.013C37.6357 200.725 37.7797 200.361 37.7797 199.921C37.7797 199.545 37.6837 199.241 37.4917 199.009C37.3077 198.769 37.0757 198.585 36.7957 198.457C36.5237 198.329 36.1477 198.189 35.6677 198.037C35.1397 197.869 34.7117 197.709 34.3837 197.557C34.0637 197.397 33.7917 197.165 33.5677 196.861C33.3437 196.557 33.2317 196.153 33.2317 195.649C33.2317 195.009 33.4557 194.489 33.9037 194.089C34.3517 193.689 34.9677 193.489 35.7517 193.489C36.5517 193.489 37.1837 193.685 37.6477 194.077C38.1197 194.469 38.3997 194.957 38.4877 195.541H37.5877C37.5157 195.181 37.3237 194.861 37.0117 194.581C36.7077 194.301 36.2877 194.161 35.7517 194.161C35.2557 194.161 34.8597 194.289 34.5637 194.545C34.2677 194.801 34.1197 195.157 34.1197 195.613C34.1197 195.973 34.2117 196.265 34.3957 196.489C34.5797 196.713 34.8037 196.885 35.0677 197.005C35.3397 197.125 35.7077 197.261 36.1717 197.413C36.7077 197.581 37.1397 197.745 37.4677 197.905C37.8037 198.065 38.0877 198.305 38.3197 198.625C38.5517 198.945 38.6677 199.369 38.6677 199.897ZM40.4871 193.585L43.2111 201.061L45.9591 193.585H46.8831L43.7391 202.045H42.6951L39.5631 193.585H40.4871ZM52.5984 202.045L50.2824 198.517H48.9144V202.045H48.0624V193.585H50.6544C51.6064 193.585 52.3144 193.809 52.7784 194.257C53.2504 194.705 53.4864 195.309 53.4864 196.069C53.4864 196.773 53.2864 197.333 52.8864 197.749C52.4944 198.165 51.9224 198.413 51.1704 198.493L53.5584 202.045H52.5984ZM48.9144 197.881H50.5944C51.9544 197.881 52.6344 197.293 52.6344 196.117C52.6344 194.917 51.9544 194.317 50.5944 194.317H48.9144V197.881ZM55.3984 192.757C55.4704 193.149 55.5064 193.489 55.5064 193.777C55.5064 194.601 55.1424 195.013 54.4144 195.013V194.593C54.6144 194.593 54.7584 194.541 54.8464 194.437C54.9344 194.333 54.9784 194.177 54.9784 193.969V193.669H54.4264V192.757H55.3984ZM58.8197 195.409C59.5317 195.409 60.1037 195.597 60.5357 195.973C60.9677 196.349 61.2317 196.857 61.3277 197.497H60.5237C60.4757 197.073 60.2997 196.725 59.9957 196.453C59.6997 196.173 59.2997 196.033 58.7957 196.033C58.3637 196.033 58.0237 196.141 57.7757 196.357C57.5357 196.565 57.4157 196.845 57.4157 197.197C57.4157 197.461 57.4917 197.673 57.6437 197.833C57.8037 197.993 57.9997 198.117 58.2317 198.205C58.4637 198.285 58.7757 198.369 59.1677 198.457C59.6477 198.569 60.0317 198.685 60.3197 198.805C60.6157 198.917 60.8677 199.097 61.0757 199.345C61.2837 199.593 61.3877 199.929 61.3877 200.353C61.3877 200.873 61.1917 201.301 60.7997 201.637C60.4157 201.965 59.9037 202.129 59.2637 202.129C58.5117 202.129 57.8957 201.945 57.4157 201.577C56.9357 201.201 56.6517 200.689 56.5637 200.041H57.3797C57.4277 200.473 57.6157 200.825 57.9437 201.097C58.2717 201.369 58.7157 201.505 59.2757 201.505C59.6917 201.505 60.0157 201.397 60.2477 201.181C60.4797 200.965 60.5957 200.685 60.5957 200.341C60.5957 200.061 60.5157 199.837 60.3557 199.669C60.1957 199.501 59.9957 199.377 59.7557 199.297C59.5237 199.209 59.2037 199.117 58.7957 199.021C58.3237 198.909 57.9437 198.797 57.6557 198.685C57.3757 198.573 57.1357 198.401 56.9357 198.169C56.7357 197.929 56.6357 197.605 56.6357 197.197C56.6357 196.661 56.8317 196.229 57.2237 195.901C57.6157 195.573 58.1477 195.409 58.8197 195.409ZM69.0149 201.301V202.045H68.2349C67.6029 202.045 67.1309 201.897 66.8189 201.601C66.5069 201.297 66.3509 200.789 66.3509 200.077V196.225H65.3549V195.493H66.3509V193.837H67.2029V195.493H69.0029V196.225H67.2029V200.089C67.2029 200.553 67.2869 200.873 67.4549 201.049C67.6229 201.217 67.9189 201.301 68.3429 201.301H69.0149ZM73.3623 195.409C73.9863 195.409 74.5423 195.545 75.0303 195.817C75.5263 196.081 75.9143 196.469 76.1943 196.981C76.4743 197.485 76.6143 198.081 76.6143 198.769C76.6143 199.457 76.4743 200.053 76.1943 200.557C75.9143 201.061 75.5263 201.449 75.0303 201.721C74.5423 201.993 73.9863 202.129 73.3623 202.129C72.7383 202.129 72.1783 201.993 71.6823 201.721C71.1863 201.449 70.7943 201.061 70.5063 200.557C70.2263 200.045 70.0863 199.449 70.0863 198.769C70.0863 198.081 70.2263 197.485 70.5063 196.981C70.7943 196.469 71.1863 196.081 71.6823 195.817C72.1783 195.545 72.7383 195.409 73.3623 195.409ZM73.3623 196.141C72.9303 196.141 72.5303 196.237 72.1623 196.429C71.7943 196.621 71.4983 196.917 71.2743 197.317C71.0503 197.709 70.9383 198.193 70.9383 198.769C70.9383 199.345 71.0503 199.829 71.2743 200.221C71.4983 200.613 71.7943 200.905 72.1623 201.097C72.5303 201.289 72.9303 201.385 73.3623 201.385C73.7863 201.385 74.1783 201.289 74.5383 201.097C74.9063 200.905 75.2023 200.613 75.4263 200.221C75.6503 199.829 75.7623 199.345 75.7623 198.769C75.7623 198.193 75.6503 197.709 75.4263 197.317C75.2023 196.917 74.9063 196.621 74.5383 196.429C74.1783 196.237 73.7863 196.141 73.3623 196.141ZM81.6249 202.045L78.9729 199.045V202.045H78.1209V193.165H78.9729V198.373L81.5769 195.493H82.6209L79.6089 198.733L82.7049 202.045H81.6249ZM86.5551 201.433C87.1471 201.433 87.6431 201.285 88.0431 200.989C88.4431 200.693 88.6831 200.293 88.7631 199.789H89.6511C89.5311 200.485 89.1991 201.049 88.6551 201.481C88.1111 201.913 87.4231 202.129 86.5911 202.129C85.9671 202.129 85.4111 201.997 84.9231 201.733C84.4431 201.461 84.0671 201.073 83.7951 200.569C83.5231 200.057 83.3871 199.457 83.3871 198.769C83.3871 198.081 83.5231 197.485 83.7951 196.981C84.0671 196.469 84.4431 196.081 84.9231 195.817C85.4111 195.545 85.9671 195.409 86.5911 195.409C87.2311 195.409 87.7831 195.545 88.2471 195.817C88.7191 196.081 89.0751 196.437 89.3151 196.885C89.5631 197.333 89.6871 197.821 89.6871 198.349C89.6871 198.573 89.6711 198.777 89.6391 198.961H84.2151C84.2231 199.513 84.3351 199.977 84.5511 200.353C84.7751 200.721 85.0631 200.993 85.4151 201.169C85.7671 201.345 86.1471 201.433 86.5551 201.433ZM86.5911 196.093C86.1671 196.093 85.7791 196.181 85.4271 196.357C85.0751 196.533 84.7871 196.805 84.5631 197.173C84.3471 197.533 84.2311 197.985 84.2151 198.529H88.8471C88.8791 197.993 88.7911 197.541 88.5831 197.173C88.3751 196.805 88.0951 196.533 87.7431 196.357C87.3911 196.181 87.0071 196.093 86.5911 196.093ZM94.4751 195.373C95.2351 195.373 95.8511 195.617 96.3231 196.105C96.8031 196.585 97.0431 197.293 97.0431 198.229V202.045H96.2151V198.289C96.2151 197.577 96.0351 197.033 95.6751 196.657C95.3151 196.273 94.8231 196.081 94.1991 196.081C93.5431 196.081 93.0191 196.293 92.6271 196.717C92.2431 197.133 92.0511 197.749 92.0511 198.565V202.045H91.1991V195.493H92.0511V197.101C92.2191 196.541 92.5231 196.113 92.9631 195.817C93.4031 195.521 93.9071 195.373 94.4751 195.373ZM105.437 195.409C106.037 195.409 106.565 195.545 107.021 195.817C107.485 196.081 107.845 196.469 108.101 196.981C108.365 197.485 108.497 198.081 108.497 198.769C108.497 199.449 108.365 200.045 108.101 200.557C107.845 201.061 107.485 201.449 107.021 201.721C106.557 201.993 106.029 202.129 105.437 202.129C104.765 202.129 104.197 201.957 103.733 201.613C103.269 201.269 102.949 200.813 102.773 200.245V202.045H101.933V193.165H102.773V197.293C102.949 196.725 103.269 196.269 103.733 195.925C104.197 195.581 104.765 195.409 105.437 195.409ZM105.209 196.153C104.745 196.153 104.325 196.261 103.949 196.477C103.581 196.693 103.293 197.001 103.085 197.401C102.877 197.793 102.773 198.249 102.773 198.769C102.773 199.289 102.877 199.749 103.085 200.149C103.293 200.541 103.581 200.845 103.949 201.061C104.325 201.277 104.745 201.385 105.209 201.385C105.953 201.385 106.545 201.153 106.985 200.689C107.425 200.217 107.645 199.577 107.645 198.769C107.645 197.961 107.425 197.325 106.985 196.861C106.545 196.389 105.953 196.153 105.209 196.153ZM112.768 195.409C113.432 195.409 113.996 195.581 114.46 195.925C114.932 196.269 115.256 196.725 115.432 197.293V195.493H116.26V202.045H115.432V200.245C115.256 200.813 114.932 201.269 114.46 201.613C113.996 201.957 113.432 202.129 112.768 202.129C112.176 202.129 111.644 201.993 111.172 201.721C110.708 201.449 110.344 201.061 110.08 200.557C109.824 200.045 109.696 199.449 109.696 198.769C109.696 198.081 109.824 197.485 110.08 196.981C110.344 196.469 110.708 196.081 111.172 195.817C111.636 195.545 112.168 195.409 112.768 195.409ZM112.984 196.153C112.248 196.153 111.656 196.389 111.208 196.861C110.768 197.325 110.548 197.961 110.548 198.769C110.548 199.577 110.768 200.217 111.208 200.689C111.656 201.153 112.248 201.385 112.984 201.385C113.448 201.385 113.864 201.277 114.232 201.061C114.608 200.845 114.9 200.541 115.108 200.149C115.324 199.749 115.432 199.289 115.432 198.769C115.432 198.249 115.324 197.793 115.108 197.401C114.9 197.001 114.608 196.693 114.232 196.477C113.864 196.261 113.448 196.153 112.984 196.153ZM120.062 195.409C120.774 195.409 121.346 195.597 121.778 195.973C122.21 196.349 122.474 196.857 122.57 197.497H121.766C121.718 197.073 121.542 196.725 121.238 196.453C120.942 196.173 120.542 196.033 120.038 196.033C119.606 196.033 119.266 196.141 119.018 196.357C118.778 196.565 118.658 196.845 118.658 197.197C118.658 197.461 118.734 197.673 118.886 197.833C119.046 197.993 119.242 198.117 119.474 198.205C119.706 198.285 120.018 198.369 120.41 198.457C120.89 198.569 121.274 198.685 121.562 198.805C121.858 198.917 122.11 199.097 122.318 199.345C122.526 199.593 122.63 199.929 122.63 200.353C122.63 200.873 122.434 201.301 122.042 201.637C121.658 201.965 121.146 202.129 120.506 202.129C119.754 202.129 119.138 201.945 118.658 201.577C118.178 201.201 117.894 200.689 117.806 200.041H118.622C118.67 200.473 118.858 200.825 119.186 201.097C119.514 201.369 119.958 201.505 120.518 201.505C120.934 201.505 121.258 201.397 121.49 201.181C121.722 200.965 121.838 200.685 121.838 200.341C121.838 200.061 121.758 199.837 121.598 199.669C121.438 199.501 121.238 199.377 120.998 199.297C120.766 199.209 120.446 199.117 120.038 199.021C119.566 198.909 119.186 198.797 118.898 198.685C118.618 198.573 118.378 198.401 118.178 198.169C117.978 197.929 117.878 197.605 117.878 197.197C117.878 196.661 118.074 196.229 118.466 195.901C118.858 195.573 119.39 195.409 120.062 195.409ZM127.668 202.045L125.016 199.045V202.045H124.164V193.165H125.016V198.373L127.62 195.493H128.664L125.652 198.733L128.748 202.045H127.668ZM132.598 201.433C133.19 201.433 133.686 201.285 134.086 200.989C134.486 200.693 134.726 200.293 134.806 199.789H135.694C135.574 200.485 135.242 201.049 134.698 201.481C134.154 201.913 133.466 202.129 132.634 202.129C132.01 202.129 131.454 201.997 130.966 201.733C130.486 201.461 130.11 201.073 129.838 200.569C129.566 200.057 129.43 199.457 129.43 198.769C129.43 198.081 129.566 197.485 129.838 196.981C130.11 196.469 130.486 196.081 130.966 195.817C131.454 195.545 132.01 195.409 132.634 195.409C133.274 195.409 133.826 195.545 134.29 195.817C134.762 196.081 135.118 196.437 135.358 196.885C135.606 197.333 135.73 197.821 135.73 198.349C135.73 198.573 135.714 198.777 135.682 198.961H130.258C130.266 199.513 130.378 199.977 130.594 200.353C130.818 200.721 131.106 200.993 131.458 201.169C131.81 201.345 132.19 201.433 132.598 201.433ZM132.634 196.093C132.21 196.093 131.822 196.181 131.47 196.357C131.118 196.533 130.83 196.805 130.606 197.173C130.39 197.533 130.274 197.985 130.258 198.529H134.89C134.922 197.993 134.834 197.541 134.626 197.173C134.418 196.805 134.138 196.533 133.786 196.357C133.434 196.181 133.05 196.093 132.634 196.093ZM140.218 201.301V202.045H139.438C138.806 202.045 138.334 201.897 138.022 201.601C137.71 201.297 137.554 200.789 137.554 200.077V196.225H136.558V195.493H137.554V193.837H138.406V195.493H140.206V196.225H138.406V200.089C138.406 200.553 138.49 200.873 138.658 201.049C138.826 201.217 139.122 201.301 139.546 201.301H140.218ZM144.527 193.549C144.527 193.373 144.583 193.233 144.695 193.129C144.815 193.025 144.967 192.973 145.151 192.973C145.335 192.973 145.483 193.025 145.595 193.129C145.707 193.233 145.763 193.373 145.763 193.549C145.763 193.717 145.707 193.853 145.595 193.957C145.483 194.061 145.335 194.113 145.151 194.113C144.967 194.113 144.815 194.061 144.695 193.957C144.583 193.853 144.527 193.717 144.527 193.549ZM145.571 195.493V202.045H144.719V195.493H145.571ZM149.37 195.409C150.082 195.409 150.654 195.597 151.086 195.973C151.518 196.349 151.782 196.857 151.878 197.497H151.074C151.026 197.073 150.85 196.725 150.546 196.453C150.25 196.173 149.85 196.033 149.346 196.033C148.914 196.033 148.574 196.141 148.326 196.357C148.086 196.565 147.966 196.845 147.966 197.197C147.966 197.461 148.042 197.673 148.194 197.833C148.354 197.993 148.55 198.117 148.782 198.205C149.014 198.285 149.326 198.369 149.718 198.457C150.198 198.569 150.582 198.685 150.87 198.805C151.166 198.917 151.418 199.097 151.626 199.345C151.834 199.593 151.938 199.929 151.938 200.353C151.938 200.873 151.742 201.301 151.35 201.637C150.966 201.965 150.454 202.129 149.814 202.129C149.062 202.129 148.446 201.945 147.966 201.577C147.486 201.201 147.202 200.689 147.114 200.041H147.93C147.978 200.473 148.166 200.825 148.494 201.097C148.822 201.369 149.266 201.505 149.826 201.505C150.242 201.505 150.566 201.397 150.798 201.181C151.03 200.965 151.146 200.685 151.146 200.341C151.146 200.061 151.066 199.837 150.906 199.669C150.746 199.501 150.546 199.377 150.306 199.297C150.074 199.209 149.754 199.117 149.346 199.021C148.874 198.909 148.494 198.797 148.206 198.685C147.926 198.573 147.686 198.401 147.486 198.169C147.286 197.929 147.186 197.605 147.186 197.197C147.186 196.661 147.382 196.229 147.774 195.901C148.166 195.573 148.698 195.409 149.37 195.409ZM156.398 193.549C156.398 193.373 156.454 193.233 156.566 193.129C156.686 193.025 156.838 192.973 157.022 192.973C157.206 192.973 157.354 193.025 157.466 193.129C157.578 193.233 157.634 193.373 157.634 193.549C157.634 193.717 157.578 193.853 157.466 193.957C157.354 194.061 157.206 194.113 157.022 194.113C156.838 194.113 156.686 194.061 156.566 193.957C156.454 193.853 156.398 193.717 156.398 193.549ZM157.442 195.493V202.045H156.59V195.493H157.442ZM162.538 195.373C163.298 195.373 163.914 195.617 164.386 196.105C164.866 196.585 165.106 197.293 165.106 198.229V202.045H164.278V198.289C164.278 197.577 164.098 197.033 163.738 196.657C163.378 196.273 162.886 196.081 162.262 196.081C161.606 196.081 161.082 196.293 160.69 196.717C160.306 197.133 160.114 197.749 160.114 198.565V202.045H159.262V195.493H160.114V197.101C160.282 196.541 160.586 196.113 161.026 195.817C161.466 195.521 161.97 195.373 162.538 195.373ZM170.155 195.373C170.915 195.373 171.531 195.617 172.003 196.105C172.483 196.585 172.723 197.293 172.723 198.229V202.045H171.895V198.289C171.895 197.577 171.715 197.033 171.355 196.657C170.995 196.273 170.503 196.081 169.879 196.081C169.223 196.081 168.699 196.293 168.307 196.717C167.923 197.133 167.731 197.749 167.731 198.565V202.045H166.879V193.165H167.731V197.101C167.899 196.541 168.203 196.113 168.643 195.817C169.083 195.521 169.587 195.373 170.155 195.373ZM177.352 201.433C177.944 201.433 178.44 201.285 178.84 200.989C179.24 200.693 179.48 200.293 179.56 199.789H180.448C180.328 200.485 179.996 201.049 179.452 201.481C178.908 201.913 178.22 202.129 177.388 202.129C176.764 202.129 176.208 201.997 175.72 201.733C175.24 201.461 174.864 201.073 174.592 200.569C174.32 200.057 174.184 199.457 174.184 198.769C174.184 198.081 174.32 197.485 174.592 196.981C174.864 196.469 175.24 196.081 175.72 195.817C176.208 195.545 176.764 195.409 177.388 195.409C178.028 195.409 178.58 195.545 179.044 195.817C179.516 196.081 179.872 196.437 180.112 196.885C180.36 197.333 180.484 197.821 180.484 198.349C180.484 198.573 180.468 198.777 180.436 198.961H175.012C175.02 199.513 175.132 199.977 175.348 200.353C175.572 200.721 175.86 200.993 176.212 201.169C176.564 201.345 176.944 201.433 177.352 201.433ZM177.388 196.093C176.964 196.093 176.576 196.181 176.224 196.357C175.872 196.533 175.584 196.805 175.36 197.173C175.144 197.533 175.028 197.985 175.012 198.529H179.644C179.676 197.993 179.588 197.541 179.38 197.173C179.172 196.805 178.892 196.533 178.54 196.357C178.188 196.181 177.804 196.093 177.388 196.093ZM182.848 196.849C183.04 196.377 183.348 196.013 183.772 195.757C184.196 195.501 184.712 195.373 185.32 195.373V196.285H185.044C184.412 196.285 183.888 196.457 183.472 196.801C183.056 197.137 182.848 197.689 182.848 198.457V202.045H181.996V195.493H182.848V196.849ZM189.293 201.433C189.885 201.433 190.381 201.285 190.781 200.989C191.181 200.693 191.421 200.293 191.501 199.789H192.389C192.269 200.485 191.937 201.049 191.393 201.481C190.849 201.913 190.161 202.129 189.329 202.129C188.705 202.129 188.149 201.997 187.661 201.733C187.181 201.461 186.805 201.073 186.533 200.569C186.261 200.057 186.125 199.457 186.125 198.769C186.125 198.081 186.261 197.485 186.533 196.981C186.805 196.469 187.181 196.081 187.661 195.817C188.149 195.545 188.705 195.409 189.329 195.409C189.969 195.409 190.521 195.545 190.985 195.817C191.457 196.081 191.813 196.437 192.053 196.885C192.301 197.333 192.425 197.821 192.425 198.349C192.425 198.573 192.409 198.777 192.377 198.961H186.953C186.961 199.513 187.073 199.977 187.289 200.353C187.513 200.721 187.801 200.993 188.153 201.169C188.505 201.345 188.885 201.433 189.293 201.433ZM189.329 196.093C188.905 196.093 188.517 196.181 188.165 196.357C187.813 196.533 187.525 196.805 187.301 197.173C187.085 197.533 186.969 197.985 186.953 198.529H191.585C191.617 197.993 191.529 197.541 191.321 197.173C191.113 196.805 190.833 196.533 190.481 196.357C190.129 196.181 189.745 196.093 189.329 196.093ZM197.213 195.373C197.973 195.373 198.589 195.617 199.061 196.105C199.541 196.585 199.781 197.293 199.781 198.229V202.045H198.953V198.289C198.953 197.577 198.773 197.033 198.413 196.657C198.053 196.273 197.561 196.081 196.937 196.081C196.281 196.081 195.757 196.293 195.365 196.717C194.981 197.133 194.789 197.749 194.789 198.565V202.045H193.937V195.493H194.789V197.101C194.957 196.541 195.261 196.113 195.701 195.817C196.141 195.521 196.645 195.373 197.213 195.373ZM204.531 201.301V202.045H203.751C203.119 202.045 202.647 201.897 202.335 201.601C202.023 201.297 201.867 200.789 201.867 200.077V196.225H200.871V195.493H201.867V193.837H202.719V195.493H204.519V196.225H202.719V200.089C202.719 200.553 202.803 200.873 202.971 201.049C203.139 201.217 203.435 201.301 203.859 201.301H204.531ZM206.766 193.165V202.045H205.914V193.165H206.766ZM208.766 195.493L211.046 200.953L213.146 195.493H214.082L210.23 205.141H209.27L210.59 201.973L207.83 195.493H208.766ZM22.9028 213.373C23.6628 213.373 24.2788 213.617 24.7508 214.105C25.2308 214.585 25.4708 215.293 25.4708 216.229V220.045H24.6428V216.289C24.6428 215.577 24.4628 215.033 24.1028 214.657C23.7428 214.273 23.2508 214.081 22.6268 214.081C21.9708 214.081 21.4468 214.293 21.0548 214.717C20.6708 215.133 20.4788 215.749 20.4788 216.565V220.045H19.6268V213.493H20.4788V215.101C20.6468 214.541 20.9508 214.113 21.3908 213.817C21.8308 213.521 22.3348 213.373 22.9028 213.373ZM30.208 213.409C30.832 213.409 31.388 213.545 31.876 213.817C32.372 214.081 32.76 214.469 33.04 214.981C33.32 215.485 33.46 216.081 33.46 216.769C33.46 217.457 33.32 218.053 33.04 218.557C32.76 219.061 32.372 219.449 31.876 219.721C31.388 219.993 30.832 220.129 30.208 220.129C29.584 220.129 29.024 219.993 28.528 219.721C28.032 219.449 27.64 219.061 27.352 218.557C27.072 218.045 26.932 217.449 26.932 216.769C26.932 216.081 27.072 215.485 27.352 214.981C27.64 214.469 28.032 214.081 28.528 213.817C29.024 213.545 29.584 213.409 30.208 213.409ZM30.208 214.141C29.776 214.141 29.376 214.237 29.008 214.429C28.64 214.621 28.344 214.917 28.12 215.317C27.896 215.709 27.784 216.193 27.784 216.769C27.784 217.345 27.896 217.829 28.12 218.221C28.344 218.613 28.64 218.905 29.008 219.097C29.376 219.289 29.776 219.385 30.208 219.385C30.632 219.385 31.024 219.289 31.384 219.097C31.752 218.905 32.048 218.613 32.272 218.221C32.496 217.829 32.608 217.345 32.608 216.769C32.608 216.193 32.496 215.709 32.272 215.317C32.048 214.917 31.752 214.621 31.384 214.429C31.024 214.237 30.632 214.141 30.208 214.141ZM38.2426 213.373C39.0026 213.373 39.6186 213.617 40.0906 214.105C40.5706 214.585 40.8106 215.293 40.8106 216.229V220.045H39.9826V216.289C39.9826 215.577 39.8026 215.033 39.4426 214.657C39.0826 214.273 38.5906 214.081 37.9666 214.081C37.3106 214.081 36.7866 214.293 36.3946 214.717C36.0106 215.133 35.8186 215.749 35.8186 216.565V220.045H34.9666V213.493H35.8186V215.101C35.9866 214.541 36.2906 214.113 36.7306 213.817C37.1706 213.521 37.6746 213.373 38.2426 213.373ZM46.0998 215.245V215.953H41.4198V215.245H46.0998ZM48.1106 211.549C48.1106 211.373 48.1666 211.233 48.2786 211.129C48.3986 211.025 48.5506 210.973 48.7346 210.973C48.9186 210.973 49.0666 211.025 49.1786 211.129C49.2906 211.233 49.3466 211.373 49.3466 211.549C49.3466 211.717 49.2906 211.853 49.1786 211.957C49.0666 212.061 48.9186 212.113 48.7346 212.113C48.5506 212.113 48.3986 212.061 48.2786 211.957C48.1666 211.853 48.1106 211.717 48.1106 211.549ZM49.1546 213.493V220.045H48.3026V213.493H49.1546ZM54.2505 213.373C55.0105 213.373 55.6265 213.617 56.0985 214.105C56.5785 214.585 56.8185 215.293 56.8185 216.229V220.045H55.9905V216.289C55.9905 215.577 55.8105 215.033 55.4505 214.657C55.0905 214.273 54.5985 214.081 53.9745 214.081C53.3185 214.081 52.7945 214.293 52.4025 214.717C52.0185 215.133 51.8265 215.749 51.8265 216.565V220.045H50.9745V213.493H51.8265V215.101C51.9945 214.541 52.2985 214.113 52.7385 213.817C53.1785 213.521 53.6825 213.373 54.2505 213.373ZM61.3516 211.753C60.7436 211.745 60.3156 211.857 60.0676 212.089C59.8276 212.313 59.7076 212.693 59.7076 213.229V213.493H61.3516V214.237H59.7076V220.045H58.8676V214.237H57.8956V213.493H58.8676V213.169C58.8676 212.433 59.0676 211.881 59.4676 211.513C59.8676 211.145 60.4956 210.977 61.3516 211.009V211.753ZM63.4632 211.165V220.045H62.6112V211.165H63.4632ZM68.0431 213.409C68.7071 213.409 69.2711 213.581 69.7351 213.925C70.2071 214.269 70.5311 214.725 70.7071 215.293V213.493H71.5351V220.045H70.7071V218.245C70.5311 218.813 70.2071 219.269 69.7351 219.613C69.2711 219.957 68.7071 220.129 68.0431 220.129C67.4511 220.129 66.9191 219.993 66.4471 219.721C65.9831 219.449 65.6191 219.061 65.3551 218.557C65.0991 218.045 64.9711 217.449 64.9711 216.769C64.9711 216.081 65.0991 215.485 65.3551 214.981C65.6191 214.469 65.9831 214.081 66.4471 213.817C66.9111 213.545 67.4431 213.409 68.0431 213.409ZM68.2591 214.153C67.5231 214.153 66.9311 214.389 66.4831 214.861C66.0431 215.325 65.8231 215.961 65.8231 216.769C65.8231 217.577 66.0431 218.217 66.4831 218.689C66.9311 219.153 67.5231 219.385 68.2591 219.385C68.7231 219.385 69.1391 219.277 69.5071 219.061C69.8831 218.845 70.1751 218.541 70.3831 218.149C70.5991 217.749 70.7071 217.289 70.7071 216.769C70.7071 216.249 70.5991 215.793 70.3831 215.401C70.1751 215.001 69.8831 214.693 69.5071 214.477C69.1391 214.261 68.7231 214.153 68.2591 214.153ZM76.3333 219.301V220.045H75.5533C74.9213 220.045 74.4493 219.897 74.1373 219.601C73.8253 219.297 73.6693 218.789 73.6693 218.077V214.225H72.6733V213.493H73.6693V211.837H74.5213V213.493H76.3213V214.225H74.5213V218.089C74.5213 218.553 74.6053 218.873 74.7733 219.049C74.9413 219.217 75.2373 219.301 75.6613 219.301H76.3333ZM80.6806 213.409C81.3046 213.409 81.8606 213.545 82.3486 213.817C82.8446 214.081 83.2326 214.469 83.5126 214.981C83.7926 215.485 83.9326 216.081 83.9326 216.769C83.9326 217.457 83.7926 218.053 83.5126 218.557C83.2326 219.061 82.8446 219.449 82.3486 219.721C81.8606 219.993 81.3046 220.129 80.6806 220.129C80.0566 220.129 79.4966 219.993 79.0006 219.721C78.5046 219.449 78.1126 219.061 77.8246 218.557C77.5446 218.045 77.4046 217.449 77.4046 216.769C77.4046 216.081 77.5446 215.485 77.8246 214.981C78.1126 214.469 78.5046 214.081 79.0006 213.817C79.4966 213.545 80.0566 213.409 80.6806 213.409ZM80.6806 214.141C80.2486 214.141 79.8486 214.237 79.4806 214.429C79.1126 214.621 78.8166 214.917 78.5926 215.317C78.3686 215.709 78.2566 216.193 78.2566 216.769C78.2566 217.345 78.3686 217.829 78.5926 218.221C78.8166 218.613 79.1126 218.905 79.4806 219.097C79.8486 219.289 80.2486 219.385 80.6806 219.385C81.1046 219.385 81.4966 219.289 81.8566 219.097C82.2246 218.905 82.5206 218.613 82.7446 218.221C82.9686 217.829 83.0806 217.345 83.0806 216.769C83.0806 216.193 82.9686 215.709 82.7446 215.317C82.5206 214.917 82.2246 214.621 81.8566 214.429C81.4966 214.237 81.1046 214.141 80.6806 214.141ZM86.2913 214.849C86.4833 214.377 86.7913 214.013 87.2153 213.757C87.6393 213.501 88.1553 213.373 88.7633 213.373V214.285H88.4873C87.8553 214.285 87.3313 214.457 86.9153 214.801C86.4993 215.137 86.2913 215.689 86.2913 216.457V220.045H85.4393V213.493H86.2913V214.849ZM90.0607 213.493L92.3407 218.953L94.4407 213.493H95.3767L91.5247 223.141H90.5647L91.8847 219.973L89.1247 213.493H90.0607ZM96.9112 219.373C96.9912 219.645 97.0312 219.917 97.0312 220.189C97.0312 220.573 96.9392 220.877 96.7552 221.101C96.5712 221.333 96.2952 221.449 95.9272 221.449V221.053C96.1192 221.053 96.2592 220.997 96.3472 220.885C96.4352 220.781 96.4792 220.617 96.4792 220.393V220.297H95.9392V219.373H96.9112ZM104.231 213.409C104.895 213.409 105.459 213.581 105.923 213.925C106.395 214.269 106.719 214.725 106.895 215.293V213.493H107.723V220.045H106.895V218.245C106.719 218.813 106.395 219.269 105.923 219.613C105.459 219.957 104.895 220.129 104.231 220.129C103.639 220.129 103.107 219.993 102.635 219.721C102.171 219.449 101.807 219.061 101.543 218.557C101.287 218.045 101.159 217.449 101.159 216.769C101.159 216.081 101.287 215.485 101.543 214.981C101.807 214.469 102.171 214.081 102.635 213.817C103.099 213.545 103.631 213.409 104.231 213.409ZM104.447 214.153C103.711 214.153 103.119 214.389 102.671 214.861C102.231 215.325 102.011 215.961 102.011 216.769C102.011 217.577 102.231 218.217 102.671 218.689C103.119 219.153 103.711 219.385 104.447 219.385C104.911 219.385 105.327 219.277 105.695 219.061C106.071 218.845 106.363 218.541 106.571 218.149C106.787 217.749 106.895 217.289 106.895 216.769C106.895 216.249 106.787 215.793 106.571 215.401C106.363 215.001 106.071 214.693 105.695 214.477C105.327 214.261 104.911 214.153 104.447 214.153ZM111.525 213.409C112.237 213.409 112.809 213.597 113.241 213.973C113.673 214.349 113.937 214.857 114.033 215.497H113.229C113.181 215.073 113.005 214.725 112.701 214.453C112.405 214.173 112.005 214.033 111.501 214.033C111.069 214.033 110.729 214.141 110.481 214.357C110.241 214.565 110.121 214.845 110.121 215.197C110.121 215.461 110.197 215.673 110.349 215.833C110.509 215.993 110.705 216.117 110.937 216.205C111.169 216.285 111.481 216.369 111.873 216.457C112.353 216.569 112.737 216.685 113.025 216.805C113.321 216.917 113.573 217.097 113.781 217.345C113.989 217.593 114.093 217.929 114.093 218.353C114.093 218.873 113.897 219.301 113.505 219.637C113.121 219.965 112.609 220.129 111.969 220.129C111.217 220.129 110.601 219.945 110.121 219.577C109.641 219.201 109.357 218.689 109.269 218.041H110.085C110.133 218.473 110.321 218.825 110.649 219.097C110.977 219.369 111.421 219.505 111.981 219.505C112.397 219.505 112.721 219.397 112.953 219.181C113.185 218.965 113.301 218.685 113.301 218.341C113.301 218.061 113.221 217.837 113.061 217.669C112.901 217.501 112.701 217.377 112.461 217.297C112.229 217.209 111.909 217.117 111.501 217.021C111.029 216.909 110.649 216.797 110.361 216.685C110.081 216.573 109.841 216.401 109.641 216.169C109.441 215.929 109.341 215.605 109.341 215.197C109.341 214.661 109.537 214.229 109.929 213.901C110.321 213.573 110.853 213.409 111.525 213.409ZM121.708 213.409C122.332 213.409 122.888 213.545 123.376 213.817C123.872 214.081 124.26 214.469 124.54 214.981C124.82 215.485 124.96 216.081 124.96 216.769C124.96 217.457 124.82 218.053 124.54 218.557C124.26 219.061 123.872 219.449 123.376 219.721C122.888 219.993 122.332 220.129 121.708 220.129C121.084 220.129 120.524 219.993 120.028 219.721C119.532 219.449 119.14 219.061 118.852 218.557C118.572 218.045 118.432 217.449 118.432 216.769C118.432 216.081 118.572 215.485 118.852 214.981C119.14 214.469 119.532 214.081 120.028 213.817C120.524 213.545 121.084 213.409 121.708 213.409ZM121.708 214.141C121.276 214.141 120.876 214.237 120.508 214.429C120.14 214.621 119.844 214.917 119.62 215.317C119.396 215.709 119.284 216.193 119.284 216.769C119.284 217.345 119.396 217.829 119.62 218.221C119.844 218.613 120.14 218.905 120.508 219.097C120.876 219.289 121.276 219.385 121.708 219.385C122.132 219.385 122.524 219.289 122.884 219.097C123.252 218.905 123.548 218.613 123.772 218.221C123.996 217.829 124.108 217.345 124.108 216.769C124.108 216.193 123.996 215.709 123.772 215.317C123.548 214.917 123.252 214.621 122.884 214.429C122.524 214.237 122.132 214.141 121.708 214.141ZM129.743 213.373C130.503 213.373 131.119 213.617 131.591 214.105C132.071 214.585 132.311 215.293 132.311 216.229V220.045H131.483V216.289C131.483 215.577 131.303 215.033 130.943 214.657C130.583 214.273 130.091 214.081 129.467 214.081C128.811 214.081 128.287 214.293 127.895 214.717C127.511 215.133 127.319 215.749 127.319 216.565V220.045H126.467V213.493H127.319V215.101C127.487 214.541 127.791 214.113 128.231 213.817C128.671 213.521 129.175 213.373 129.743 213.373ZM134.936 211.165V220.045H134.084V211.165H134.936ZM136.936 213.493L139.216 218.953L141.316 213.493H142.252L138.4 223.141H137.44L138.76 219.973L136 213.493H136.936ZM149.195 213.409C149.859 213.409 150.423 213.581 150.887 213.925C151.359 214.269 151.683 214.725 151.859 215.293V213.493H152.687V220.045H151.859V218.245C151.683 218.813 151.359 219.269 150.887 219.613C150.423 219.957 149.859 220.129 149.195 220.129C148.603 220.129 148.071 219.993 147.599 219.721C147.135 219.449 146.771 219.061 146.507 218.557C146.251 218.045 146.123 217.449 146.123 216.769C146.123 216.081 146.251 215.485 146.507 214.981C146.771 214.469 147.135 214.081 147.599 213.817C148.063 213.545 148.595 213.409 149.195 213.409ZM149.411 214.153C148.675 214.153 148.083 214.389 147.635 214.861C147.195 215.325 146.975 215.961 146.975 216.769C146.975 217.577 147.195 218.217 147.635 218.689C148.083 219.153 148.675 219.385 149.411 219.385C149.875 219.385 150.291 219.277 150.659 219.061C151.035 218.845 151.327 218.541 151.535 218.149C151.751 217.749 151.859 217.289 151.859 216.769C151.859 216.249 151.751 215.793 151.535 215.401C151.327 215.001 151.035 214.693 150.659 214.477C150.291 214.261 149.875 214.153 149.411 214.153ZM156.49 213.409C157.202 213.409 157.774 213.597 158.206 213.973C158.638 214.349 158.902 214.857 158.998 215.497H158.194C158.146 215.073 157.97 214.725 157.666 214.453C157.37 214.173 156.97 214.033 156.466 214.033C156.034 214.033 155.694 214.141 155.446 214.357C155.206 214.565 155.086 214.845 155.086 215.197C155.086 215.461 155.162 215.673 155.314 215.833C155.474 215.993 155.67 216.117 155.902 216.205C156.134 216.285 156.446 216.369 156.838 216.457C157.318 216.569 157.702 216.685 157.99 216.805C158.286 216.917 158.538 217.097 158.746 217.345C158.954 217.593 159.058 217.929 159.058 218.353C159.058 218.873 158.862 219.301 158.47 219.637C158.086 219.965 157.574 220.129 156.934 220.129C156.182 220.129 155.566 219.945 155.086 219.577C154.606 219.201 154.322 218.689 154.234 218.041H155.05C155.098 218.473 155.286 218.825 155.614 219.097C155.942 219.369 156.386 219.505 156.946 219.505C157.362 219.505 157.686 219.397 157.918 219.181C158.15 218.965 158.266 218.685 158.266 218.341C158.266 218.061 158.186 217.837 158.026 217.669C157.866 217.501 157.666 217.377 157.426 217.297C157.194 217.209 156.874 217.117 156.466 217.021C155.994 216.909 155.614 216.797 155.326 216.685C155.046 216.573 154.806 216.401 154.606 216.169C154.406 215.929 154.306 215.605 154.306 215.197C154.306 214.661 154.502 214.229 154.894 213.901C155.286 213.573 155.818 213.409 156.49 213.409ZM162.572 213.409C163.284 213.409 163.856 213.597 164.288 213.973C164.72 214.349 164.984 214.857 165.08 215.497H164.276C164.228 215.073 164.052 214.725 163.748 214.453C163.452 214.173 163.052 214.033 162.548 214.033C162.116 214.033 161.776 214.141 161.528 214.357C161.288 214.565 161.168 214.845 161.168 215.197C161.168 215.461 161.244 215.673 161.396 215.833C161.556 215.993 161.752 216.117 161.984 216.205C162.216 216.285 162.528 216.369 162.92 216.457C163.4 216.569 163.784 216.685 164.072 216.805C164.368 216.917 164.62 217.097 164.828 217.345C165.036 217.593 165.14 217.929 165.14 218.353C165.14 218.873 164.944 219.301 164.552 219.637C164.168 219.965 163.656 220.129 163.016 220.129C162.264 220.129 161.648 219.945 161.168 219.577C160.688 219.201 160.404 218.689 160.316 218.041H161.132C161.18 218.473 161.368 218.825 161.696 219.097C162.024 219.369 162.468 219.505 163.028 219.505C163.444 219.505 163.768 219.397 164 219.181C164.232 218.965 164.348 218.685 164.348 218.341C164.348 218.061 164.268 217.837 164.108 217.669C163.948 217.501 163.748 217.377 163.508 217.297C163.276 217.209 162.956 217.117 162.548 217.021C162.076 216.909 161.696 216.797 161.408 216.685C161.128 216.573 160.888 216.401 160.688 216.169C160.488 215.929 160.388 215.605 160.388 215.197C160.388 214.661 160.584 214.229 160.976 213.901C161.368 213.573 161.9 213.409 162.572 213.409ZM169.53 219.433C170.122 219.433 170.618 219.285 171.018 218.989C171.418 218.693 171.658 218.293 171.738 217.789H172.626C172.506 218.485 172.174 219.049 171.63 219.481C171.086 219.913 170.398 220.129 169.566 220.129C168.942 220.129 168.386 219.997 167.898 219.733C167.418 219.461 167.042 219.073 166.77 218.569C166.498 218.057 166.362 217.457 166.362 216.769C166.362 216.081 166.498 215.485 166.77 214.981C167.042 214.469 167.418 214.081 167.898 213.817C168.386 213.545 168.942 213.409 169.566 213.409C170.206 213.409 170.758 213.545 171.222 213.817C171.694 214.081 172.05 214.437 172.29 214.885C172.538 215.333 172.662 215.821 172.662 216.349C172.662 216.573 172.646 216.777 172.614 216.961H167.19C167.198 217.513 167.31 217.977 167.526 218.353C167.75 218.721 168.038 218.993 168.39 219.169C168.742 219.345 169.122 219.433 169.53 219.433ZM169.566 214.093C169.142 214.093 168.754 214.181 168.402 214.357C168.05 214.533 167.762 214.805 167.538 215.173C167.322 215.533 167.206 215.985 167.19 216.529H171.822C171.854 215.993 171.766 215.541 171.558 215.173C171.35 214.805 171.07 214.533 170.718 214.357C170.366 214.181 169.982 214.093 169.566 214.093ZM177.15 219.301V220.045H176.37C175.738 220.045 175.266 219.897 174.954 219.601C174.642 219.297 174.486 218.789 174.486 218.077V214.225H173.49V213.493H174.486V211.837H175.338V213.493H177.138V214.225H175.338V218.089C175.338 218.553 175.422 218.873 175.59 219.049C175.758 219.217 176.054 219.301 176.478 219.301H177.15ZM182.049 215.245V215.953H177.369V215.245H182.049ZM187.756 213.409C188.356 213.409 188.884 213.545 189.34 213.817C189.804 214.081 190.164 214.469 190.42 214.981C190.684 215.485 190.816 216.081 190.816 216.769C190.816 217.449 190.684 218.045 190.42 218.557C190.164 219.061 189.804 219.449 189.34 219.721C188.876 219.993 188.348 220.129 187.756 220.129C187.084 220.129 186.516 219.957 186.052 219.613C185.588 219.269 185.268 218.813 185.092 218.245V220.045H184.252V211.165H185.092V215.293C185.268 214.725 185.588 214.269 186.052 213.925C186.516 213.581 187.084 213.409 187.756 213.409ZM187.528 214.153C187.064 214.153 186.644 214.261 186.268 214.477C185.9 214.693 185.612 215.001 185.404 215.401C185.196 215.793 185.092 216.249 185.092 216.769C185.092 217.289 185.196 217.749 185.404 218.149C185.612 218.541 185.9 218.845 186.268 219.061C186.644 219.277 187.064 219.385 187.528 219.385C188.272 219.385 188.864 219.153 189.304 218.689C189.744 218.217 189.964 217.577 189.964 216.769C189.964 215.961 189.744 215.325 189.304 214.861C188.864 214.389 188.272 214.153 187.528 214.153ZM195.086 213.409C195.75 213.409 196.314 213.581 196.778 213.925C197.25 214.269 197.574 214.725 197.75 215.293V213.493H198.578V220.045H197.75V218.245C197.574 218.813 197.25 219.269 196.778 219.613C196.314 219.957 195.75 220.129 195.086 220.129C194.494 220.129 193.962 219.993 193.49 219.721C193.026 219.449 192.662 219.061 192.398 218.557C192.142 218.045 192.014 217.449 192.014 216.769C192.014 216.081 192.142 215.485 192.398 214.981C192.662 214.469 193.026 214.081 193.49 213.817C193.954 213.545 194.486 213.409 195.086 213.409ZM195.302 214.153C194.566 214.153 193.974 214.389 193.526 214.861C193.086 215.325 192.866 215.961 192.866 216.769C192.866 217.577 193.086 218.217 193.526 218.689C193.974 219.153 194.566 219.385 195.302 219.385C195.766 219.385 196.182 219.277 196.55 219.061C196.926 218.845 197.218 218.541 197.426 218.149C197.642 217.749 197.75 217.289 197.75 216.769C197.75 216.249 197.642 215.793 197.426 215.401C197.218 215.001 196.926 214.693 196.55 214.477C196.182 214.261 195.766 214.153 195.302 214.153ZM203.292 213.409C204.124 213.409 204.812 213.629 205.356 214.069C205.908 214.509 206.244 215.093 206.364 215.821H205.488C205.4 215.301 205.156 214.893 204.756 214.597C204.356 214.293 203.864 214.141 203.28 214.141C202.856 214.141 202.464 214.237 202.104 214.429C201.752 214.621 201.468 214.917 201.252 215.317C201.044 215.709 200.94 216.193 200.94 216.769C200.94 217.345 201.044 217.833 201.252 218.233C201.468 218.625 201.752 218.917 202.104 219.109C202.464 219.301 202.856 219.397 203.28 219.397C203.864 219.397 204.356 219.249 204.756 218.953C205.156 218.649 205.4 218.237 205.488 217.717H206.364C206.244 218.445 205.908 219.029 205.356 219.469C204.812 219.909 204.124 220.129 203.292 220.129C202.668 220.129 202.112 219.997 201.624 219.733C201.144 219.461 200.768 219.073 200.496 218.569C200.224 218.057 200.088 217.457 200.088 216.769C200.088 216.081 200.224 215.485 200.496 214.981C200.768 214.469 201.144 214.081 201.624 213.817C202.112 213.545 202.668 213.409 203.292 213.409ZM211.381 220.045L208.729 217.045V220.045H207.877V211.165H208.729V216.373L211.333 213.493H212.377L209.365 216.733L212.461 220.045H211.381ZM216.311 219.433C216.903 219.433 217.399 219.285 217.799 218.989C218.199 218.693 218.439 218.293 218.519 217.789H219.407C219.287 218.485 218.955 219.049 218.411 219.481C217.867 219.913 217.179 220.129 216.347 220.129C215.723 220.129 215.167 219.997 214.679 219.733C214.199 219.461 213.823 219.073 213.551 218.569C213.279 218.057 213.143 217.457 213.143 216.769C213.143 216.081 213.279 215.485 213.551 214.981C213.823 214.469 214.199 214.081 214.679 213.817C215.167 213.545 215.723 213.409 216.347 213.409C216.987 213.409 217.539 213.545 218.003 213.817C218.475 214.081 218.831 214.437 219.071 214.885C219.319 215.333 219.443 215.821 219.443 216.349C219.443 216.573 219.427 216.777 219.395 216.961H213.971C213.979 217.513 214.091 217.977 214.307 218.353C214.531 218.721 214.819 218.993 215.171 219.169C215.523 219.345 215.903 219.433 216.311 219.433ZM216.347 214.093C215.923 214.093 215.535 214.181 215.183 214.357C214.831 214.533 214.543 214.805 214.319 215.173C214.103 215.533 213.987 215.985 213.971 216.529H218.603C218.635 215.993 218.547 215.541 218.339 215.173C218.131 214.805 217.851 214.533 217.499 214.357C217.147 214.181 216.763 214.093 216.347 214.093ZM223.715 213.409C224.379 213.409 224.943 213.581 225.407 213.925C225.879 214.269 226.199 214.725 226.367 215.293V211.165H227.207V220.045H226.367V218.245C226.199 218.813 225.879 219.269 225.407 219.613C224.943 219.957 224.379 220.129 223.715 220.129C223.123 220.129 222.591 219.993 222.119 219.721C221.655 219.449 221.291 219.061 221.027 218.557C220.771 218.045 220.643 217.449 220.643 216.769C220.643 216.081 220.771 215.485 221.027 214.981C221.291 214.469 221.655 214.081 222.119 213.817C222.583 213.545 223.115 213.409 223.715 213.409ZM223.931 214.153C223.195 214.153 222.603 214.389 222.155 214.861C221.715 215.325 221.495 215.961 221.495 216.769C221.495 217.577 221.715 218.217 222.155 218.689C222.603 219.153 223.195 219.385 223.931 219.385C224.395 219.385 224.811 219.277 225.179 219.061C225.555 218.845 225.847 218.541 226.055 218.149C226.271 217.749 226.379 217.289 226.379 216.769C226.379 216.249 226.271 215.793 226.055 215.401C225.847 215.001 225.555 214.693 225.179 214.477C224.811 214.261 224.395 214.153 223.931 214.153ZM58.5208 237.301V238.045H57.7408C57.1088 238.045 56.6368 237.897 56.3248 237.601C56.0128 237.297 55.8568 236.789 55.8568 236.077V232.225H54.8608V231.493H55.8568V229.837H56.7088V231.493H58.5088V232.225H56.7088V236.089C56.7088 236.553 56.7928 236.873 56.9608 237.049C57.1288 237.217 57.4248 237.301 57.8488 237.301H58.5208ZM62.8681 231.409C63.4921 231.409 64.0481 231.545 64.5361 231.817C65.0321 232.081 65.4201 232.469 65.7001 232.981C65.9801 233.485 66.1201 234.081 66.1201 234.769C66.1201 235.457 65.9801 236.053 65.7001 236.557C65.4201 237.061 65.0321 237.449 64.5361 237.721C64.0481 237.993 63.4921 238.129 62.8681 238.129C62.2441 238.129 61.6841 237.993 61.1881 237.721C60.6921 237.449 60.3001 237.061 60.0121 236.557C59.7321 236.045 59.5921 235.449 59.5921 234.769C59.5921 234.081 59.7321 233.485 60.0121 232.981C60.3001 232.469 60.6921 232.081 61.1881 231.817C61.6841 231.545 62.2441 231.409 62.8681 231.409ZM62.8681 232.141C62.4361 232.141 62.0361 232.237 61.6681 232.429C61.3001 232.621 61.0041 232.917 60.7801 233.317C60.5561 233.709 60.4441 234.193 60.4441 234.769C60.4441 235.345 60.5561 235.829 60.7801 236.221C61.0041 236.613 61.3001 236.905 61.6681 237.097C62.0361 237.289 62.4361 237.385 62.8681 237.385C63.2921 237.385 63.6841 237.289 64.0441 237.097C64.4121 236.905 64.7081 236.613 64.9321 236.221C65.1561 235.829 65.2681 235.345 65.2681 234.769C65.2681 234.193 65.1561 233.709 64.9321 233.317C64.7081 232.917 64.4121 232.621 64.0441 232.429C63.6841 232.237 63.2921 232.141 62.8681 232.141ZM71.1308 238.045L68.4788 235.045V238.045H67.6268V229.165H68.4788V234.373L71.0828 231.493H72.1268L69.1148 234.733L72.2108 238.045H71.1308ZM76.0609 237.433C76.6529 237.433 77.1489 237.285 77.5489 236.989C77.9489 236.693 78.1889 236.293 78.2689 235.789H79.1569C79.0369 236.485 78.7049 237.049 78.1609 237.481C77.6169 237.913 76.9289 238.129 76.0969 238.129C75.4729 238.129 74.9169 237.997 74.4289 237.733C73.9489 237.461 73.5729 237.073 73.3009 236.569C73.0289 236.057 72.8929 235.457 72.8929 234.769C72.8929 234.081 73.0289 233.485 73.3009 232.981C73.5729 232.469 73.9489 232.081 74.4289 231.817C74.9169 231.545 75.4729 231.409 76.0969 231.409C76.7369 231.409 77.2889 231.545 77.7529 231.817C78.2249 232.081 78.5809 232.437 78.8209 232.885C79.0689 233.333 79.1929 233.821 79.1929 234.349C79.1929 234.573 79.1769 234.777 79.1449 234.961H73.7209C73.7289 235.513 73.8409 235.977 74.0569 236.353C74.2809 236.721 74.5689 236.993 74.9209 237.169C75.2729 237.345 75.6529 237.433 76.0609 237.433ZM76.0969 232.093C75.6729 232.093 75.2849 232.181 74.9329 232.357C74.5809 232.533 74.2929 232.805 74.0689 233.173C73.8529 233.533 73.7369 233.985 73.7209 234.529H78.3529C78.3849 233.993 78.2969 233.541 78.0889 233.173C77.8809 232.805 77.6009 232.533 77.2489 232.357C76.8969 232.181 76.5129 232.093 76.0969 232.093ZM83.9809 231.373C84.7409 231.373 85.3569 231.617 85.8289 232.105C86.3089 232.585 86.5489 233.293 86.5489 234.229V238.045H85.7209V234.289C85.7209 233.577 85.5409 233.033 85.1809 232.657C84.8209 232.273 84.3289 232.081 83.7049 232.081C83.0489 232.081 82.5249 232.293 82.1329 232.717C81.7489 233.133 81.5569 233.749 81.5569 234.565V238.045H80.7049V231.493H81.5569V233.101C81.7249 232.541 82.0289 232.113 82.4689 231.817C82.9089 231.521 83.4129 231.373 83.9809 231.373ZM90.3021 231.409C91.0141 231.409 91.5861 231.597 92.0181 231.973C92.4501 232.349 92.7141 232.857 92.8101 233.497H92.0061C91.9581 233.073 91.7821 232.725 91.4781 232.453C91.1821 232.173 90.7821 232.033 90.2781 232.033C89.8461 232.033 89.5061 232.141 89.2581 232.357C89.0181 232.565 88.8981 232.845 88.8981 233.197C88.8981 233.461 88.9741 233.673 89.1261 233.833C89.2861 233.993 89.4821 234.117 89.7141 234.205C89.9461 234.285 90.2581 234.369 90.6501 234.457C91.1301 234.569 91.5141 234.685 91.8021 234.805C92.0981 234.917 92.3501 235.097 92.5581 235.345C92.7661 235.593 92.8701 235.929 92.8701 236.353C92.8701 236.873 92.6741 237.301 92.2821 237.637C91.8981 237.965 91.3861 238.129 90.7461 238.129C89.9941 238.129 89.3781 237.945 88.8981 237.577C88.4181 237.201 88.1341 236.689 88.0461 236.041H88.8621C88.9101 236.473 89.0981 236.825 89.4261 237.097C89.7541 237.369 90.1981 237.505 90.7581 237.505C91.1741 237.505 91.4981 237.397 91.7301 237.181C91.9621 236.965 92.0781 236.685 92.0781 236.341C92.0781 236.061 91.9981 235.837 91.8381 235.669C91.6781 235.501 91.4781 235.377 91.2381 235.297C91.0061 235.209 90.6861 235.117 90.2781 235.021C89.8061 234.909 89.4261 234.797 89.1381 234.685C88.8581 234.573 88.6181 234.401 88.4181 234.169C88.2181 233.929 88.1181 233.605 88.1181 233.197C88.1181 232.661 88.3141 232.229 88.7061 231.901C89.0981 231.573 89.6301 231.409 90.3021 231.409ZM101.025 231.409C101.625 231.409 102.153 231.545 102.609 231.817C103.073 232.081 103.433 232.469 103.689 232.981C103.953 233.485 104.085 234.081 104.085 234.769C104.085 235.449 103.953 236.045 103.689 236.557C103.433 237.061 103.073 237.449 102.609 237.721C102.145 237.993 101.617 238.129 101.025 238.129C100.353 238.129 99.7853 237.957 99.3213 237.613C98.8573 237.269 98.5373 236.813 98.3613 236.245V238.045H97.5213V229.165H98.3613V233.293C98.5373 232.725 98.8573 232.269 99.3213 231.925C99.7853 231.581 100.353 231.409 101.025 231.409ZM100.797 232.153C100.333 232.153 99.9133 232.261 99.5373 232.477C99.1693 232.693 98.8813 233.001 98.6733 233.401C98.4653 233.793 98.3613 234.249 98.3613 234.769C98.3613 235.289 98.4653 235.749 98.6733 236.149C98.8813 236.541 99.1693 236.845 99.5373 237.061C99.9133 237.277 100.333 237.385 100.797 237.385C101.541 237.385 102.133 237.153 102.573 236.689C103.013 236.217 103.233 235.577 103.233 234.769C103.233 233.961 103.013 233.325 102.573 232.861C102.133 232.389 101.541 232.153 100.797 232.153ZM108.452 237.433C109.044 237.433 109.54 237.285 109.94 236.989C110.34 236.693 110.58 236.293 110.66 235.789H111.548C111.428 236.485 111.096 237.049 110.552 237.481C110.008 237.913 109.32 238.129 108.488 238.129C107.864 238.129 107.308 237.997 106.82 237.733C106.34 237.461 105.964 237.073 105.692 236.569C105.42 236.057 105.284 235.457 105.284 234.769C105.284 234.081 105.42 233.485 105.692 232.981C105.964 232.469 106.34 232.081 106.82 231.817C107.308 231.545 107.864 231.409 108.488 231.409C109.128 231.409 109.68 231.545 110.144 231.817C110.616 232.081 110.972 232.437 111.212 232.885C111.46 233.333 111.584 233.821 111.584 234.349C111.584 234.573 111.568 234.777 111.536 234.961H106.112C106.12 235.513 106.232 235.977 106.448 236.353C106.672 236.721 106.96 236.993 107.312 237.169C107.664 237.345 108.044 237.433 108.452 237.433ZM108.488 232.093C108.064 232.093 107.676 232.181 107.324 232.357C106.972 232.533 106.684 232.805 106.46 233.173C106.244 233.533 106.128 233.985 106.112 234.529H110.744C110.776 233.993 110.688 233.541 110.48 233.173C110.272 232.805 109.992 232.533 109.64 232.357C109.288 232.181 108.904 232.093 108.488 232.093ZM112.904 229.549C112.904 229.373 112.96 229.233 113.072 229.129C113.192 229.025 113.344 228.973 113.528 228.973C113.712 228.973 113.86 229.025 113.972 229.129C114.084 229.233 114.14 229.373 114.14 229.549C114.14 229.717 114.084 229.853 113.972 229.957C113.86 230.061 113.712 230.113 113.528 230.113C113.344 230.113 113.192 230.061 113.072 229.957C112.96 229.853 112.904 229.717 112.904 229.549ZM113.948 231.493V238.045H113.096V231.493H113.948ZM119.043 231.373C119.803 231.373 120.419 231.617 120.891 232.105C121.371 232.585 121.611 233.293 121.611 234.229V238.045H120.783V234.289C120.783 233.577 120.603 233.033 120.243 232.657C119.883 232.273 119.391 232.081 118.767 232.081C118.111 232.081 117.587 232.293 117.195 232.717C116.811 233.133 116.619 233.749 116.619 234.565V238.045H115.767V231.493H116.619V233.101C116.787 232.541 117.091 232.113 117.531 231.817C117.971 231.521 118.475 231.373 119.043 231.373ZM126.145 231.409C126.809 231.409 127.373 231.581 127.837 231.925C128.309 232.269 128.633 232.725 128.809 233.293V231.493H129.637V238.201C129.637 238.809 129.509 239.341 129.253 239.797C128.997 240.261 128.641 240.617 128.185 240.865C127.729 241.121 127.209 241.249 126.625 241.249C125.769 241.249 125.065 241.041 124.513 240.625C123.969 240.217 123.613 239.661 123.445 238.957H124.285C124.429 239.437 124.693 239.817 125.077 240.097C125.469 240.377 125.969 240.517 126.577 240.517C126.993 240.517 127.369 240.425 127.705 240.241C128.049 240.065 128.317 239.801 128.509 239.449C128.709 239.097 128.809 238.681 128.809 238.201V236.245C128.633 236.813 128.309 237.269 127.837 237.613C127.373 237.957 126.809 238.129 126.145 238.129C125.553 238.129 125.021 237.993 124.549 237.721C124.085 237.449 123.721 237.061 123.457 236.557C123.201 236.045 123.073 235.449 123.073 234.769C123.073 234.081 123.201 233.485 123.457 232.981C123.721 232.469 124.085 232.081 124.549 231.817C125.013 231.545 125.545 231.409 126.145 231.409ZM126.361 232.153C125.625 232.153 125.033 232.389 124.585 232.861C124.145 233.325 123.925 233.961 123.925 234.769C123.925 235.577 124.145 236.217 124.585 236.689C125.033 237.153 125.625 237.385 126.361 237.385C126.825 237.385 127.241 237.277 127.609 237.061C127.985 236.845 128.277 236.541 128.485 236.149C128.701 235.749 128.809 235.289 128.809 234.769C128.809 234.249 128.701 233.793 128.485 233.401C128.277 233.001 127.985 232.693 127.609 232.477C127.241 232.261 126.825 232.153 126.361 232.153ZM137.336 231.409C138 231.409 138.564 231.581 139.028 231.925C139.5 232.269 139.824 232.725 140 233.293V231.493H140.828V238.045H140V236.245C139.824 236.813 139.5 237.269 139.028 237.613C138.564 237.957 138 238.129 137.336 238.129C136.744 238.129 136.212 237.993 135.74 237.721C135.276 237.449 134.912 237.061 134.648 236.557C134.392 236.045 134.264 235.449 134.264 234.769C134.264 234.081 134.392 233.485 134.648 232.981C134.912 232.469 135.276 232.081 135.74 231.817C136.204 231.545 136.736 231.409 137.336 231.409ZM137.552 232.153C136.816 232.153 136.224 232.389 135.776 232.861C135.336 233.325 135.116 233.961 135.116 234.769C135.116 235.577 135.336 236.217 135.776 236.689C136.224 237.153 136.816 237.385 137.552 237.385C138.016 237.385 138.432 237.277 138.8 237.061C139.176 236.845 139.468 236.541 139.676 236.149C139.892 235.749 140 235.289 140 234.769C140 234.249 139.892 233.793 139.676 233.401C139.468 233.001 139.176 232.693 138.8 232.477C138.432 232.261 138.016 232.153 137.552 232.153ZM145.542 231.409C146.374 231.409 147.062 231.629 147.606 232.069C148.158 232.509 148.494 233.093 148.614 233.821H147.738C147.65 233.301 147.406 232.893 147.006 232.597C146.606 232.293 146.114 232.141 145.53 232.141C145.106 232.141 144.714 232.237 144.354 232.429C144.002 232.621 143.718 232.917 143.502 233.317C143.294 233.709 143.19 234.193 143.19 234.769C143.19 235.345 143.294 235.833 143.502 236.233C143.718 236.625 144.002 236.917 144.354 237.109C144.714 237.301 145.106 237.397 145.53 237.397C146.114 237.397 146.606 237.249 147.006 236.953C147.406 236.649 147.65 236.237 147.738 235.717H148.614C148.494 236.445 148.158 237.029 147.606 237.469C147.062 237.909 146.374 238.129 145.542 238.129C144.918 238.129 144.362 237.997 143.874 237.733C143.394 237.461 143.018 237.073 142.746 236.569C142.474 236.057 142.338 235.457 142.338 234.769C142.338 234.081 142.474 233.485 142.746 232.981C143.018 232.469 143.394 232.081 143.874 231.817C144.362 231.545 144.918 231.409 145.542 231.409ZM153.019 231.409C153.851 231.409 154.539 231.629 155.083 232.069C155.635 232.509 155.971 233.093 156.091 233.821H155.215C155.127 233.301 154.883 232.893 154.483 232.597C154.083 232.293 153.591 232.141 153.007 232.141C152.583 232.141 152.191 232.237 151.831 232.429C151.479 232.621 151.195 232.917 150.979 233.317C150.771 233.709 150.667 234.193 150.667 234.769C150.667 235.345 150.771 235.833 150.979 236.233C151.195 236.625 151.479 236.917 151.831 237.109C152.191 237.301 152.583 237.397 153.007 237.397C153.591 237.397 154.083 237.249 154.483 236.953C154.883 236.649 155.127 236.237 155.215 235.717H156.091C155.971 236.445 155.635 237.029 155.083 237.469C154.539 237.909 153.851 238.129 153.019 238.129C152.395 238.129 151.839 237.997 151.351 237.733C150.871 237.461 150.495 237.073 150.223 236.569C149.951 236.057 149.815 235.457 149.815 234.769C149.815 234.081 149.951 233.485 150.223 232.981C150.495 232.469 150.871 232.081 151.351 231.817C151.839 231.545 152.395 231.409 153.019 231.409ZM160.459 237.433C161.051 237.433 161.547 237.285 161.947 236.989C162.347 236.693 162.587 236.293 162.667 235.789H163.555C163.435 236.485 163.103 237.049 162.559 237.481C162.015 237.913 161.327 238.129 160.495 238.129C159.871 238.129 159.315 237.997 158.827 237.733C158.347 237.461 157.971 237.073 157.699 236.569C157.427 236.057 157.291 235.457 157.291 234.769C157.291 234.081 157.427 233.485 157.699 232.981C157.971 232.469 158.347 232.081 158.827 231.817C159.315 231.545 159.871 231.409 160.495 231.409C161.135 231.409 161.687 231.545 162.151 231.817C162.623 232.081 162.979 232.437 163.219 232.885C163.467 233.333 163.591 233.821 163.591 234.349C163.591 234.573 163.575 234.777 163.543 234.961H158.119C158.127 235.513 158.239 235.977 158.455 236.353C158.679 236.721 158.967 236.993 159.319 237.169C159.671 237.345 160.051 237.433 160.459 237.433ZM160.495 232.093C160.071 232.093 159.683 232.181 159.331 232.357C158.979 232.533 158.691 232.805 158.467 233.173C158.251 233.533 158.135 233.985 158.119 234.529H162.751C162.783 233.993 162.695 233.541 162.487 233.173C162.279 232.805 161.999 232.533 161.647 232.357C161.295 232.181 160.911 232.093 160.495 232.093ZM168.607 231.409C169.207 231.409 169.735 231.545 170.191 231.817C170.655 232.081 171.015 232.469 171.271 232.981C171.535 233.485 171.667 234.081 171.667 234.769C171.667 235.449 171.535 236.045 171.271 236.557C171.015 237.061 170.655 237.449 170.191 237.721C169.727 237.993 169.199 238.129 168.607 238.129C167.935 238.129 167.367 237.957 166.903 237.613C166.439 237.269 166.119 236.813 165.943 236.245V241.141H165.103V231.493H165.943V233.293C166.119 232.725 166.439 232.269 166.903 231.925C167.367 231.581 167.935 231.409 168.607 231.409ZM168.379 232.153C167.915 232.153 167.495 232.261 167.119 232.477C166.751 232.693 166.463 233.001 166.255 233.401C166.047 233.793 165.943 234.249 165.943 234.769C165.943 235.289 166.047 235.749 166.255 236.149C166.463 236.541 166.751 236.845 167.119 237.061C167.495 237.277 167.915 237.385 168.379 237.385C169.123 237.385 169.715 237.153 170.155 236.689C170.595 236.217 170.815 235.577 170.815 234.769C170.815 233.961 170.595 233.325 170.155 232.861C169.715 232.389 169.123 232.153 168.379 232.153ZM176.154 237.301V238.045H175.374C174.742 238.045 174.27 237.897 173.958 237.601C173.646 237.297 173.49 236.789 173.49 236.077V232.225H172.494V231.493H173.49V229.837H174.342V231.493H176.142V232.225H174.342V236.089C174.342 236.553 174.426 236.873 174.594 237.049C174.762 237.217 175.058 237.301 175.482 237.301H176.154ZM180.393 237.433C180.985 237.433 181.481 237.285 181.881 236.989C182.281 236.693 182.521 236.293 182.601 235.789H183.489C183.369 236.485 183.037 237.049 182.493 237.481C181.949 237.913 181.261 238.129 180.429 238.129C179.805 238.129 179.249 237.997 178.761 237.733C178.281 237.461 177.905 237.073 177.633 236.569C177.361 236.057 177.225 235.457 177.225 234.769C177.225 234.081 177.361 233.485 177.633 232.981C177.905 232.469 178.281 232.081 178.761 231.817C179.249 231.545 179.805 231.409 180.429 231.409C181.069 231.409 181.621 231.545 182.085 231.817C182.557 232.081 182.913 232.437 183.153 232.885C183.401 233.333 183.525 233.821 183.525 234.349C183.525 234.573 183.509 234.777 183.477 234.961H178.053C178.061 235.513 178.173 235.977 178.389 236.353C178.613 236.721 178.901 236.993 179.253 237.169C179.605 237.345 179.985 237.433 180.393 237.433ZM180.429 232.093C180.005 232.093 179.617 232.181 179.265 232.357C178.913 232.533 178.625 232.805 178.401 233.173C178.185 233.533 178.069 233.985 178.053 234.529H182.685C182.717 233.993 182.629 233.541 182.421 233.173C182.213 232.805 181.933 232.533 181.581 232.357C181.229 232.181 180.845 232.093 180.429 232.093ZM187.797 231.409C188.461 231.409 189.025 231.581 189.489 231.925C189.961 232.269 190.281 232.725 190.449 233.293V229.165H191.289V238.045H190.449V236.245C190.281 236.813 189.961 237.269 189.489 237.613C189.025 237.957 188.461 238.129 187.797 238.129C187.205 238.129 186.673 237.993 186.201 237.721C185.737 237.449 185.373 237.061 185.109 236.557C184.853 236.045 184.725 235.449 184.725 234.769C184.725 234.081 184.853 233.485 185.109 232.981C185.373 232.469 185.737 232.081 186.201 231.817C186.665 231.545 187.197 231.409 187.797 231.409ZM188.013 232.153C187.277 232.153 186.685 232.389 186.237 232.861C185.797 233.325 185.577 233.961 185.577 234.769C185.577 235.577 185.797 236.217 186.237 236.689C186.685 237.153 187.277 237.385 188.013 237.385C188.477 237.385 188.893 237.277 189.261 237.061C189.637 236.845 189.929 236.541 190.137 236.149C190.353 235.749 190.461 235.289 190.461 234.769C190.461 234.249 190.353 233.793 190.137 233.401C189.929 233.001 189.637 232.693 189.261 232.477C188.893 232.261 188.477 232.153 188.013 232.153Z" fill="white"/>
<defs>
<linearGradient id="paint0_linear" x1="215.425" y1="176.807" x2="26.3255" y2="176.995" gradientUnits="userSpaceOnUse">
<stop stop-color="#FF168A"/>
<stop offset="0.315399" stop-color="#FABA33"/>
<stop offset="0.573227" stop-color="#E9E031"/>
<stop offset="0.826995" stop-color="#45F273"/>
<stop offset="1" stop-color="#30FFE9"/>
</linearGradient>
</defs>
</svg>
