<svg width="344" height="349" viewBox="0 0 344 349" fill="none" xmlns="http://www.w3.org/2000/svg">
<path fill-rule="evenodd" clip-rule="evenodd" d="M159.509 89.4468V109.203C159.509 111.491 157.654 113.347 155.365 113.347C153.076 113.347 151.221 111.491 151.221 109.203V89.4468C151.221 87.1581 153.076 85.3027 155.365 85.3027C157.654 85.3027 159.509 87.1581 159.509 89.4468ZM149.221 89.4468C149.221 86.0535 151.972 83.3027 155.365 83.3027C158.759 83.3027 161.509 86.0535 161.509 89.4468V109.203C161.509 112.596 158.759 115.347 155.365 115.347C151.972 115.347 149.221 112.596 149.221 109.203V89.4468ZM176.087 109.203V89.4468C176.087 87.1581 174.232 85.3027 171.943 85.3027C169.654 85.3027 167.799 87.1581 167.799 89.4468V109.203C167.799 111.491 169.654 113.347 171.943 113.347C174.232 113.347 176.087 111.491 176.087 109.203ZM171.943 83.3027C168.549 83.3027 165.799 86.0535 165.799 89.4468V109.203C165.799 112.596 168.549 115.347 171.943 115.347C175.336 115.347 178.087 112.596 178.087 109.203V89.4468C178.087 86.0535 175.336 83.3027 171.943 83.3027ZM192.664 89.4468V109.203C192.664 111.491 190.809 113.347 188.52 113.347C186.231 113.347 184.376 111.491 184.376 109.203V89.4468C184.376 87.1581 186.231 85.3027 188.52 85.3027C190.809 85.3027 192.664 87.1581 192.664 89.4468ZM182.376 89.4468C182.376 86.0535 185.127 83.3027 188.52 83.3027C191.913 83.3027 194.664 86.0535 194.664 89.4468V109.203C194.664 112.596 191.913 115.347 188.52 115.347C185.127 115.347 182.376 112.596 182.376 109.203V89.4468ZM218.598 67.3528H125.287C123.631 67.3528 122.287 68.6959 122.287 70.3527V76.3259C122.287 77.9827 123.631 79.3259 125.287 79.3259H218.598C220.255 79.3259 221.598 77.9827 221.598 76.3259V70.3528C221.598 68.6959 220.255 67.3528 218.598 67.3528ZM125.287 65.3527C122.526 65.3527 120.287 67.5913 120.287 70.3527V76.3259C120.287 79.0873 122.526 81.3259 125.287 81.3259H127.75L127.75 81.3263L138.181 118.54C138.423 119.403 139.21 120 140.106 120H203.708C204.603 120 205.389 119.405 205.632 118.543L216.131 81.3263L216.132 81.3259H218.598C221.359 81.3259 223.598 79.0873 223.598 76.3259V70.3528C223.598 67.5913 221.359 65.3527 218.598 65.3527H125.287ZM140.106 118L129.828 81.3263H214.053L203.708 118H140.106ZM144.525 46.7912H135.481L131.613 58.0921L155.183 58.0921L151.299 46.8117H146.663H144.517L144.525 46.7912ZM145.302 44.7912H135.481C134.626 44.7912 133.865 45.3347 133.588 46.1436L129.721 57.4445C129.277 58.7425 130.241 60.0921 131.613 60.0921L155.871 60.0921L157.316 60.0921L157.986 60.0921L159.429 60.0921L184.372 60.0921L185.899 60.0921L186.487 60.0921L188.013 60.0921L212.267 60.0921C213.64 60.0921 214.605 58.7396 214.158 57.4411L210.267 46.1401C209.989 45.333 209.23 44.7912 208.376 44.7912H198.578L194.851 35.2553C194.551 34.4883 193.812 33.9835 192.988 33.9835H185.361L185.316 33.8684L181.568 24.1637C181.271 23.3927 180.529 22.8843 179.703 22.8843H164.679C163.851 22.8843 163.109 23.3945 162.812 24.1675L159.088 33.8684L159.044 33.9835H150.87C150.045 33.9835 149.305 34.4901 149.006 35.2591L145.302 44.7912ZM168.008 35.8684H175.852L172.385 44.7912H171.496L168.008 35.8684ZM197.221 46.8117H192.558L188.697 58.0921L212.267 58.0921L208.376 46.7912H199.36L199.368 46.8117H197.221ZM192.565 44.7912H196.431L192.988 35.9835H177.953L174.531 44.7912H179.793C179.889 44.7912 179.985 44.7981 180.079 44.8117L192.279 44.8117C192.372 44.7981 192.468 44.7912 192.565 44.7912ZM190.444 46.8117L181.915 46.8117L185.799 58.0921L186.192 59.2356L186.584 58.0921L190.444 46.8117ZM183.683 58.0921L179.8 46.8117H173.746L172.286 46.8117L171.6 46.8117L170.138 46.8117H163.974L160.114 58.0921L183.683 58.0921ZM151.578 44.8117C151.484 44.7981 151.389 44.7912 151.292 44.7912H147.448L150.87 35.9835H165.905L169.348 44.7912H163.981C163.884 44.7912 163.789 44.7981 163.695 44.8117L151.578 44.8117ZM153.414 46.8117L157.298 58.0921L157.65 59.115L158 58.0921L161.86 46.8117L153.414 46.8117ZM164.679 24.8843H179.703L183.172 33.8684L161.231 33.8684L164.679 24.8843ZM140.178 18.4991C140.574 18.1146 141.217 18.1146 141.613 18.4991L148.7 25.3726C149.097 25.7571 149.097 26.3805 148.7 26.765C148.304 27.1495 147.661 27.1495 147.265 26.765L140.178 19.8916C139.781 19.5071 139.781 18.8836 140.178 18.4991ZM155.004 7.91466C154.722 7.44009 154.102 7.27412 153.62 7.54396C153.138 7.81379 152.977 8.41725 153.259 8.89181L158.263 17.2969C158.545 17.7714 159.165 17.9374 159.647 17.6676C160.128 17.3977 160.29 16.7943 160.008 16.3197L155.004 7.91466ZM172.453 3.73242C173.005 3.73242 173.453 4.18014 173.453 4.73242V14.4222C173.453 14.9744 173.005 15.4222 172.453 15.4222C171.901 15.4222 171.453 14.9744 171.453 14.4222V4.73242C171.453 4.18014 171.901 3.73242 172.453 3.73242ZM192.069 9.86897C192.351 9.39441 192.189 8.79095 191.708 8.52111C191.226 8.25128 190.606 8.41725 190.324 8.89181L185.32 17.2969C185.038 17.7714 185.199 18.3749 185.681 18.6447C186.163 18.9146 186.783 18.7486 187.065 18.274L192.069 9.86897ZM204.945 18.8524C205.342 19.2369 205.342 19.8603 204.945 20.2448L197.858 27.1183C197.462 27.5028 196.819 27.5028 196.423 27.1183C196.026 26.7338 196.026 26.1104 196.423 25.7258L203.51 18.8524C203.906 18.4679 204.549 18.4679 204.945 18.8524ZM137.69 17.4222C138.242 17.4222 138.69 16.9744 138.69 16.4222C138.69 15.8699 138.242 15.4222 137.69 15.4222C137.138 15.4222 136.69 15.8699 136.69 16.4222C136.69 16.9744 137.138 17.4222 137.69 17.4222ZM208.073 16.4221C208.073 16.9744 207.625 17.4221 207.073 17.4221C206.521 17.4221 206.073 16.9744 206.073 16.4221C206.073 15.8699 206.521 15.4221 207.073 15.4221C207.625 15.4221 208.073 15.8699 208.073 16.4221Z" fill="white"/>
<path d="M71.8427 159.958V169.75C71.8427 170.87 72.0907 171.726 72.5867 172.318C73.0987 172.91 73.8347 173.206 74.7947 173.206C75.7547 173.206 76.4827 172.91 76.9787 172.318C77.4907 171.726 77.7467 170.87 77.7467 169.75V159.958H81.8507V169.75C81.8507 171.35 81.5387 172.702 80.9148 173.806C80.2907 174.894 79.4347 175.718 78.3467 176.278C77.2747 176.822 76.0587 177.094 74.6987 177.094C73.3387 177.094 72.1387 176.822 71.0987 176.278C70.0587 175.734 69.2427 174.91 68.6507 173.806C68.0587 172.702 67.7627 171.35 67.7627 169.75V159.958H71.8427ZM93.0891 163.39C94.6251 163.39 95.8411 163.902 96.7371 164.926C97.6491 165.95 98.1051 167.358 98.1051 169.15V176.926H94.0011V169.63C94.0011 168.734 93.7611 168.038 93.2811 167.542C92.8171 167.03 92.1931 166.774 91.4091 166.774C90.5771 166.774 89.9131 167.038 89.4171 167.566C88.9371 168.094 88.6971 168.846 88.6971 169.822V176.926H84.5931V163.534H88.6971V165.982C89.0811 165.182 89.6491 164.55 90.4011 164.086C91.1691 163.622 92.0651 163.39 93.0891 163.39ZM105.9 163.366C106.924 163.366 107.804 163.598 108.54 164.062C109.276 164.526 109.812 165.158 110.148 165.958V159.166H114.252V176.926H110.148V174.502C109.812 175.302 109.276 175.934 108.54 176.398C107.804 176.862 106.924 177.094 105.9 177.094C104.796 177.094 103.804 176.822 102.924 176.278C102.06 175.718 101.372 174.918 100.86 173.878C100.364 172.838 100.116 171.622 100.116 170.23C100.116 168.822 100.364 167.606 100.86 166.582C101.372 165.542 102.06 164.75 102.924 164.206C103.804 163.646 104.796 163.366 105.9 163.366ZM107.22 166.966C106.34 166.966 105.628 167.254 105.084 167.83C104.556 168.406 104.292 169.206 104.292 170.23C104.292 171.254 104.556 172.054 105.084 172.63C105.628 173.206 106.34 173.494 107.22 173.494C108.084 173.494 108.788 173.198 109.332 172.606C109.892 172.014 110.172 171.222 110.172 170.23C110.172 169.222 109.892 168.43 109.332 167.854C108.788 167.262 108.084 166.966 107.22 166.966ZM129.798 169.87C129.798 170.206 129.758 170.574 129.678 170.974H120.389C120.437 171.982 120.693 172.71 121.157 173.158C121.621 173.59 122.213 173.806 122.933 173.806C123.541 173.806 124.045 173.654 124.445 173.35C124.845 173.046 125.109 172.654 125.237 172.174H129.582C129.405 173.118 129.021 173.966 128.429 174.718C127.837 175.454 127.085 176.038 126.173 176.47C125.261 176.886 124.245 177.094 123.125 177.094C121.813 177.094 120.645 176.822 119.621 176.278C118.613 175.718 117.821 174.918 117.245 173.878C116.669 172.838 116.381 171.622 116.381 170.23C116.381 168.822 116.661 167.606 117.221 166.582C117.797 165.542 118.597 164.75 119.621 164.206C120.645 163.646 121.813 163.366 123.125 163.366C124.453 163.366 125.621 163.638 126.629 164.182C127.637 164.726 128.413 165.494 128.957 166.486C129.517 167.462 129.798 168.59 129.798 169.87ZM125.645 169.246C125.661 168.366 125.421 167.71 124.925 167.278C124.445 166.83 123.845 166.606 123.125 166.606C122.373 166.606 121.749 166.83 121.253 167.278C120.757 167.726 120.477 168.382 120.413 169.246H125.645ZM136.041 166.054C136.553 165.238 137.209 164.59 138.009 164.11C138.825 163.63 139.705 163.39 140.649 163.39V167.782H139.473C138.385 167.782 137.537 168.014 136.929 168.478C136.337 168.942 136.041 169.726 136.041 170.83V176.926H131.937V163.534H136.041V166.054ZM146.471 159.166V176.926H142.367V159.166H146.471ZM152.4 163.534L155.616 171.742L158.616 163.534H163.152L154.8 183.31H150.288L153.432 176.422L147.816 163.534H152.4ZM164.131 159.766C164.131 159.142 164.355 158.63 164.803 158.23C165.251 157.814 165.843 157.606 166.579 157.606C167.315 157.606 167.907 157.814 168.355 158.23C168.803 158.63 169.027 159.142 169.027 159.766C169.027 160.374 168.803 160.886 168.355 161.302C167.907 161.702 167.315 161.902 166.579 161.902C165.843 161.902 165.251 161.702 164.803 161.302C164.355 160.886 164.131 160.374 164.131 159.766ZM168.619 163.534V176.926H164.515V163.534H168.619ZM179.948 163.39C181.484 163.39 182.7 163.902 183.596 164.926C184.508 165.95 184.964 167.358 184.964 169.15V176.926H180.86V169.63C180.86 168.734 180.62 168.038 180.14 167.542C179.676 167.03 179.052 166.774 178.268 166.774C177.436 166.774 176.772 167.038 176.276 167.566C175.796 168.094 175.556 168.846 175.556 169.822V176.926H171.452V163.534H175.556V165.982C175.94 165.182 176.508 164.55 177.26 164.086C178.028 163.622 178.924 163.39 179.948 163.39ZM192.759 163.366C193.783 163.366 194.663 163.598 195.399 164.062C196.135 164.526 196.679 165.158 197.031 165.958V163.534H201.111V176.854C201.111 178.102 200.871 179.222 200.391 180.214C199.911 181.222 199.175 182.022 198.183 182.614C197.191 183.206 195.959 183.502 194.487 183.502C192.471 183.502 190.855 183.022 189.639 182.062C188.439 181.118 187.719 179.83 187.479 178.198H191.535C191.663 178.742 191.951 179.166 192.399 179.47C192.863 179.774 193.463 179.926 194.199 179.926C195.047 179.926 195.727 179.678 196.239 179.182C196.767 178.702 197.031 177.926 197.031 176.854V174.502C196.679 175.302 196.135 175.934 195.399 176.398C194.663 176.862 193.783 177.094 192.759 177.094C191.655 177.094 190.663 176.822 189.783 176.278C188.919 175.718 188.231 174.918 187.719 173.878C187.223 172.838 186.975 171.622 186.975 170.23C186.975 168.822 187.223 167.606 187.719 166.582C188.231 165.542 188.919 164.75 189.783 164.206C190.663 163.646 191.655 163.366 192.759 163.366ZM194.079 166.966C193.199 166.966 192.487 167.254 191.943 167.83C191.415 168.406 191.151 169.206 191.151 170.23C191.151 171.254 191.415 172.054 191.943 172.63C192.487 173.206 193.199 173.494 194.079 173.494C194.943 173.494 195.647 173.198 196.191 172.606C196.751 172.014 197.031 171.222 197.031 170.23C197.031 169.222 196.751 168.43 196.191 167.854C195.647 167.262 194.943 166.966 194.079 166.966ZM214.934 172.918L217.838 163.534H222.206L217.454 176.926H212.366L207.614 163.534H211.982L214.934 172.918ZM228.994 163.366C230.018 163.366 230.898 163.598 231.634 164.062C232.37 164.526 232.914 165.158 233.266 165.958V163.534H237.346V176.926H233.266V174.502C232.914 175.302 232.37 175.934 231.634 176.398C230.898 176.862 230.018 177.094 228.994 177.094C227.89 177.094 226.898 176.822 226.018 176.278C225.154 175.718 224.466 174.918 223.954 173.878C223.458 172.838 223.21 171.622 223.21 170.23C223.21 168.822 223.458 167.606 223.954 166.582C224.466 165.542 225.154 164.75 226.018 164.206C226.898 163.646 227.89 163.366 228.994 163.366ZM230.314 166.966C229.434 166.966 228.722 167.254 228.178 167.83C227.65 168.406 227.386 169.206 227.386 170.23C227.386 171.254 227.65 172.054 228.178 172.63C228.722 173.206 229.434 173.494 230.314 173.494C231.178 173.494 231.882 173.198 232.426 172.606C232.986 172.014 233.266 171.222 233.266 170.23C233.266 169.222 232.986 168.43 232.426 167.854C231.882 167.262 231.178 166.966 230.314 166.966ZM244.275 159.166V176.926H240.171V159.166H244.275ZM260.429 163.534V176.926H256.301V174.502C255.917 175.286 255.341 175.91 254.573 176.374C253.821 176.838 252.941 177.07 251.933 177.07C250.397 177.07 249.173 176.558 248.261 175.534C247.365 174.51 246.917 173.102 246.917 171.31V163.534H250.997V170.806C250.997 171.718 251.229 172.43 251.693 172.942C252.173 173.438 252.813 173.686 253.613 173.686C254.445 173.686 255.101 173.422 255.581 172.894C256.061 172.366 256.301 171.614 256.301 170.638V163.534H260.429ZM275.977 169.87C275.977 170.206 275.937 170.574 275.857 170.974H266.569C266.617 171.982 266.873 172.71 267.337 173.158C267.801 173.59 268.393 173.806 269.113 173.806C269.721 173.806 270.225 173.654 270.625 173.35C271.025 173.046 271.289 172.654 271.417 172.174H275.761C275.585 173.118 275.201 173.966 274.609 174.718C274.017 175.454 273.265 176.038 272.353 176.47C271.441 176.886 270.425 177.094 269.305 177.094C267.993 177.094 266.825 176.822 265.801 176.278C264.793 175.718 264.001 174.918 263.425 173.878C262.849 172.838 262.561 171.622 262.561 170.23C262.561 168.822 262.841 167.606 263.401 166.582C263.977 165.542 264.777 164.75 265.801 164.206C266.825 163.646 267.993 163.366 269.305 163.366C270.633 163.366 271.801 163.638 272.809 164.182C273.817 164.726 274.593 165.494 275.137 166.486C275.697 167.462 275.977 168.59 275.977 169.87ZM271.825 169.246C271.841 168.366 271.601 167.71 271.105 167.278C270.625 166.83 270.025 166.606 269.305 166.606C268.553 166.606 267.929 166.83 267.433 167.278C266.937 167.726 266.657 168.382 266.593 169.246H271.825Z" fill="white"/>
<path d="M58.945 206.314C58.945 206.826 58.8223 207.312 58.577 207.77C58.3423 208.218 57.9743 208.586 57.473 208.874C56.9717 209.152 56.3477 209.29 55.601 209.29C54.8757 209.29 54.2303 209.157 53.665 208.89C53.0997 208.624 52.6463 208.261 52.305 207.802C51.9743 207.333 51.7823 206.81 51.729 206.234H52.913C52.9557 206.565 53.0783 206.896 53.281 207.226C53.4837 207.557 53.777 207.834 54.161 208.058C54.545 208.272 55.009 208.378 55.553 208.378C56.2677 208.378 56.8117 208.186 57.185 207.802C57.569 207.418 57.761 206.933 57.761 206.346C57.761 205.845 57.633 205.44 57.377 205.13C57.1317 204.81 56.8223 204.565 56.449 204.394C56.0863 204.224 55.585 204.037 54.945 203.834C54.241 203.61 53.6703 203.397 53.233 203.194C52.8063 202.981 52.4437 202.672 52.145 202.266C51.8463 201.861 51.697 201.322 51.697 200.65C51.697 199.797 51.9957 199.104 52.593 198.57C53.1903 198.037 54.0117 197.77 55.057 197.77C56.1237 197.77 56.9663 198.032 57.585 198.554C58.2143 199.077 58.5877 199.728 58.705 200.506H57.505C57.409 200.026 57.153 199.6 56.737 199.226C56.3317 198.853 55.7717 198.666 55.057 198.666C54.3957 198.666 53.8677 198.837 53.473 199.178C53.0783 199.52 52.881 199.994 52.881 200.602C52.881 201.082 53.0037 201.472 53.249 201.77C53.4943 202.069 53.793 202.298 54.145 202.458C54.5077 202.618 54.9983 202.8 55.617 203.002C56.3317 203.226 56.9077 203.445 57.345 203.658C57.793 203.872 58.1717 204.192 58.481 204.618C58.7903 205.045 58.945 205.61 58.945 206.314ZM61.3709 197.898L65.0029 207.866L68.6669 197.898H69.8989L65.7069 209.178H64.3149L60.1389 197.898H61.3709ZM77.5192 209.178L74.4312 204.474H72.6072V209.178H71.4712V197.898H74.9272C76.1966 197.898 77.1406 198.197 77.7592 198.794C78.3886 199.392 78.7032 200.197 78.7032 201.21C78.7032 202.149 78.4366 202.896 77.9032 203.45C77.3806 204.005 76.6179 204.336 75.6152 204.442L78.7992 209.178H77.5192ZM72.6072 203.626H74.8472C76.6606 203.626 77.5672 202.842 77.5672 201.274C77.5672 199.674 76.6606 198.874 74.8472 198.874H72.6072V203.626ZM81.2526 196.794C81.3486 197.317 81.3966 197.77 81.3966 198.154C81.3966 199.253 80.9113 199.802 79.9406 199.802V199.242C80.2073 199.242 80.3993 199.173 80.5166 199.034C80.634 198.896 80.6926 198.688 80.6926 198.41V198.01H79.9566V196.794H81.2526ZM85.8144 200.33C86.7637 200.33 87.5264 200.581 88.1024 201.082C88.6784 201.584 89.0304 202.261 89.1584 203.114H88.0864C88.0224 202.549 87.7877 202.085 87.3824 201.722C86.9877 201.349 86.4544 201.162 85.7824 201.162C85.2064 201.162 84.753 201.306 84.4224 201.594C84.1024 201.872 83.9424 202.245 83.9424 202.714C83.9424 203.066 84.0437 203.349 84.2464 203.562C84.4597 203.776 84.721 203.941 85.0304 204.058C85.3397 204.165 85.7557 204.277 86.2784 204.394C86.9184 204.544 87.4304 204.698 87.8144 204.858C88.209 205.008 88.545 205.248 88.8224 205.578C89.0997 205.909 89.2384 206.357 89.2384 206.922C89.2384 207.616 88.977 208.186 88.4544 208.634C87.9424 209.072 87.2597 209.29 86.4064 209.29C85.4037 209.29 84.5824 209.045 83.9424 208.554C83.3024 208.053 82.9237 207.37 82.8064 206.506H83.8944C83.9584 207.082 84.209 207.552 84.6464 207.914C85.0837 208.277 85.6757 208.458 86.4224 208.458C86.977 208.458 87.409 208.314 87.7184 208.026C88.0277 207.738 88.1824 207.365 88.1824 206.906C88.1824 206.533 88.0757 206.234 87.8624 206.01C87.649 205.786 87.3824 205.621 87.0624 205.514C86.753 205.397 86.3264 205.274 85.7824 205.146C85.153 204.997 84.6464 204.848 84.2624 204.698C83.889 204.549 83.569 204.32 83.3024 204.01C83.0357 203.69 82.9024 203.258 82.9024 202.714C82.9024 202 83.1637 201.424 83.6864 200.986C84.209 200.549 84.9184 200.33 85.8144 200.33ZM99.408 208.186V209.178H98.368C97.5253 209.178 96.896 208.981 96.48 208.586C96.064 208.181 95.856 207.504 95.856 206.554V201.418H94.528V200.442H95.856V198.234H96.992V200.442H99.392V201.418H96.992V206.57C96.992 207.189 97.104 207.616 97.328 207.85C97.552 208.074 97.9467 208.186 98.512 208.186H99.408ZM105.204 200.33C106.036 200.33 106.778 200.512 107.428 200.874C108.09 201.226 108.607 201.744 108.98 202.426C109.354 203.098 109.54 203.893 109.54 204.81C109.54 205.728 109.354 206.522 108.98 207.194C108.607 207.866 108.09 208.384 107.428 208.746C106.778 209.109 106.036 209.29 105.204 209.29C104.372 209.29 103.626 209.109 102.964 208.746C102.303 208.384 101.78 207.866 101.396 207.194C101.023 206.512 100.836 205.717 100.836 204.81C100.836 203.893 101.023 203.098 101.396 202.426C101.78 201.744 102.303 201.226 102.964 200.874C103.626 200.512 104.372 200.33 105.204 200.33ZM105.204 201.306C104.628 201.306 104.095 201.434 103.604 201.69C103.114 201.946 102.719 202.341 102.42 202.874C102.122 203.397 101.972 204.042 101.972 204.81C101.972 205.578 102.122 206.224 102.42 206.746C102.719 207.269 103.114 207.658 103.604 207.914C104.095 208.17 104.628 208.298 105.204 208.298C105.77 208.298 106.292 208.17 106.772 207.914C107.263 207.658 107.658 207.269 107.956 206.746C108.255 206.224 108.404 205.578 108.404 204.81C108.404 204.042 108.255 203.397 107.956 202.874C107.658 202.341 107.263 201.946 106.772 201.69C106.292 201.434 105.77 201.306 105.204 201.306ZM116.221 209.178L112.685 205.178V209.178H111.549V197.338H112.685V204.282L116.157 200.442H117.549L113.533 204.762L117.661 209.178H116.221ZM122.795 208.362C123.584 208.362 124.246 208.165 124.779 207.77C125.312 207.376 125.632 206.842 125.739 206.17H126.923C126.763 207.098 126.32 207.85 125.595 208.426C124.87 209.002 123.952 209.29 122.843 209.29C122.011 209.29 121.27 209.114 120.619 208.762C119.979 208.4 119.478 207.882 119.115 207.21C118.752 206.528 118.571 205.728 118.571 204.81C118.571 203.893 118.752 203.098 119.115 202.426C119.478 201.744 119.979 201.226 120.619 200.874C121.27 200.512 122.011 200.33 122.843 200.33C123.696 200.33 124.432 200.512 125.051 200.874C125.68 201.226 126.155 201.701 126.475 202.298C126.806 202.896 126.971 203.546 126.971 204.25C126.971 204.549 126.95 204.821 126.907 205.066H119.675C119.686 205.802 119.835 206.421 120.123 206.922C120.422 207.413 120.806 207.776 121.275 208.01C121.744 208.245 122.251 208.362 122.795 208.362ZM122.843 201.242C122.278 201.242 121.76 201.36 121.291 201.594C120.822 201.829 120.438 202.192 120.139 202.682C119.851 203.162 119.696 203.765 119.675 204.49H125.851C125.894 203.776 125.776 203.173 125.499 202.682C125.222 202.192 124.848 201.829 124.379 201.594C123.91 201.36 123.398 201.242 122.843 201.242ZM133.355 200.282C134.368 200.282 135.19 200.608 135.819 201.258C136.459 201.898 136.779 202.842 136.779 204.09V209.178H135.675V204.17C135.675 203.221 135.435 202.496 134.955 201.994C134.475 201.482 133.819 201.226 132.987 201.226C132.112 201.226 131.414 201.509 130.891 202.074C130.379 202.629 130.123 203.45 130.123 204.538V209.178H128.987V200.442H130.123V202.586C130.347 201.84 130.752 201.269 131.339 200.874C131.926 200.48 132.598 200.282 133.355 200.282ZM147.971 200.33C148.771 200.33 149.475 200.512 150.083 200.874C150.702 201.226 151.182 201.744 151.523 202.426C151.875 203.098 152.051 203.893 152.051 204.81C152.051 205.717 151.875 206.512 151.523 207.194C151.182 207.866 150.702 208.384 150.083 208.746C149.465 209.109 148.761 209.29 147.971 209.29C147.075 209.29 146.318 209.061 145.699 208.602C145.081 208.144 144.654 207.536 144.419 206.778V209.178H143.299V197.338H144.419V202.842C144.654 202.085 145.081 201.477 145.699 201.018C146.318 200.56 147.075 200.33 147.971 200.33ZM147.667 201.322C147.049 201.322 146.489 201.466 145.987 201.754C145.497 202.042 145.113 202.453 144.835 202.986C144.558 203.509 144.419 204.117 144.419 204.81C144.419 205.504 144.558 206.117 144.835 206.65C145.113 207.173 145.497 207.578 145.987 207.866C146.489 208.154 147.049 208.298 147.667 208.298C148.659 208.298 149.449 207.989 150.035 207.37C150.622 206.741 150.915 205.888 150.915 204.81C150.915 203.733 150.622 202.885 150.035 202.266C149.449 201.637 148.659 201.322 147.667 201.322ZM157.745 200.33C158.63 200.33 159.382 200.56 160.001 201.018C160.63 201.477 161.062 202.085 161.297 202.842V200.442H162.401V209.178H161.297V206.778C161.062 207.536 160.63 208.144 160.001 208.602C159.382 209.061 158.63 209.29 157.745 209.29C156.956 209.29 156.246 209.109 155.617 208.746C154.998 208.384 154.513 207.866 154.161 207.194C153.82 206.512 153.649 205.717 153.649 204.81C153.649 203.893 153.82 203.098 154.161 202.426C154.513 201.744 154.998 201.226 155.617 200.874C156.236 200.512 156.945 200.33 157.745 200.33ZM158.033 201.322C157.052 201.322 156.262 201.637 155.665 202.266C155.078 202.885 154.785 203.733 154.785 204.81C154.785 205.888 155.078 206.741 155.665 207.37C156.262 207.989 157.052 208.298 158.033 208.298C158.652 208.298 159.206 208.154 159.697 207.866C160.198 207.578 160.588 207.173 160.865 206.65C161.153 206.117 161.297 205.504 161.297 204.81C161.297 204.117 161.153 203.509 160.865 202.986C160.588 202.453 160.198 202.042 159.697 201.754C159.206 201.466 158.652 201.322 158.033 201.322ZM167.471 200.33C168.42 200.33 169.183 200.581 169.759 201.082C170.335 201.584 170.687 202.261 170.815 203.114H169.743C169.679 202.549 169.444 202.085 169.039 201.722C168.644 201.349 168.111 201.162 167.439 201.162C166.863 201.162 166.409 201.306 166.079 201.594C165.759 201.872 165.599 202.245 165.599 202.714C165.599 203.066 165.7 203.349 165.903 203.562C166.116 203.776 166.377 203.941 166.687 204.058C166.996 204.165 167.412 204.277 167.935 204.394C168.575 204.544 169.087 204.698 169.471 204.858C169.865 205.008 170.201 205.248 170.479 205.578C170.756 205.909 170.895 206.357 170.895 206.922C170.895 207.616 170.633 208.186 170.111 208.634C169.599 209.072 168.916 209.29 168.063 209.29C167.06 209.29 166.239 209.045 165.599 208.554C164.959 208.053 164.58 207.37 164.463 206.506H165.551C165.615 207.082 165.865 207.552 166.303 207.914C166.74 208.277 167.332 208.458 168.079 208.458C168.633 208.458 169.065 208.314 169.375 208.026C169.684 207.738 169.839 207.365 169.839 206.906C169.839 206.533 169.732 206.234 169.519 206.01C169.305 205.786 169.039 205.621 168.719 205.514C168.409 205.397 167.983 205.274 167.439 205.146C166.809 204.997 166.303 204.848 165.919 204.698C165.545 204.549 165.225 204.32 164.959 204.01C164.692 203.69 164.559 203.258 164.559 202.714C164.559 202 164.82 201.424 165.343 200.986C165.865 200.549 166.575 200.33 167.471 200.33ZM177.612 209.178L174.076 205.178V209.178H172.94V197.338H174.076V204.282L177.548 200.442H178.94L174.924 204.762L179.052 209.178H177.612ZM184.185 208.362C184.975 208.362 185.636 208.165 186.169 207.77C186.703 207.376 187.023 206.842 187.129 206.17H188.313C188.153 207.098 187.711 207.85 186.985 208.426C186.26 209.002 185.343 209.29 184.233 209.29C183.401 209.29 182.66 209.114 182.009 208.762C181.369 208.4 180.868 207.882 180.505 207.21C180.143 206.528 179.961 205.728 179.961 204.81C179.961 203.893 180.143 203.098 180.505 202.426C180.868 201.744 181.369 201.226 182.009 200.874C182.66 200.512 183.401 200.33 184.233 200.33C185.087 200.33 185.823 200.512 186.441 200.874C187.071 201.226 187.545 201.701 187.865 202.298C188.196 202.896 188.361 203.546 188.361 204.25C188.361 204.549 188.34 204.821 188.297 205.066H181.065C181.076 205.802 181.225 206.421 181.513 206.922C181.812 207.413 182.196 207.776 182.665 208.01C183.135 208.245 183.641 208.362 184.185 208.362ZM184.233 201.242C183.668 201.242 183.151 201.36 182.681 201.594C182.212 201.829 181.828 202.192 181.529 202.682C181.241 203.162 181.087 203.765 181.065 204.49H187.241C187.284 203.776 187.167 203.173 186.889 202.682C186.612 202.192 186.239 201.829 185.769 201.594C185.3 201.36 184.788 201.242 184.233 201.242ZM194.345 208.186V209.178H193.305C192.463 209.178 191.833 208.981 191.417 208.586C191.001 208.181 190.793 207.504 190.793 206.554V201.418H189.465V200.442H190.793V198.234H191.929V200.442H194.329V201.418H191.929V206.57C191.929 207.189 192.041 207.616 192.265 207.85C192.489 208.074 192.884 208.186 193.449 208.186H194.345ZM200.09 197.85C200.09 197.616 200.165 197.429 200.314 197.29C200.474 197.152 200.677 197.082 200.922 197.082C201.168 197.082 201.365 197.152 201.514 197.29C201.664 197.429 201.738 197.616 201.738 197.85C201.738 198.074 201.664 198.256 201.514 198.394C201.365 198.533 201.168 198.602 200.922 198.602C200.677 198.602 200.474 198.533 200.314 198.394C200.165 198.256 200.09 198.074 200.09 197.85ZM201.482 200.442V209.178H200.346V200.442H201.482ZM206.549 200.33C207.498 200.33 208.261 200.581 208.837 201.082C209.413 201.584 209.765 202.261 209.893 203.114H208.821C208.757 202.549 208.522 202.085 208.117 201.722C207.722 201.349 207.189 201.162 206.517 201.162C205.941 201.162 205.487 201.306 205.157 201.594C204.837 201.872 204.677 202.245 204.677 202.714C204.677 203.066 204.778 203.349 204.981 203.562C205.194 203.776 205.455 203.941 205.765 204.058C206.074 204.165 206.49 204.277 207.013 204.394C207.653 204.544 208.165 204.698 208.549 204.858C208.943 205.008 209.279 205.248 209.557 205.578C209.834 205.909 209.973 206.357 209.973 206.922C209.973 207.616 209.711 208.186 209.189 208.634C208.677 209.072 207.994 209.29 207.141 209.29C206.138 209.29 205.317 209.045 204.677 208.554C204.037 208.053 203.658 207.37 203.541 206.506H204.629C204.693 207.082 204.943 207.552 205.381 207.914C205.818 208.277 206.41 208.458 207.157 208.458C207.711 208.458 208.143 208.314 208.453 208.026C208.762 207.738 208.917 207.365 208.917 206.906C208.917 206.533 208.81 206.234 208.597 206.01C208.383 205.786 208.117 205.621 207.797 205.514C207.487 205.397 207.061 205.274 206.517 205.146C205.887 204.997 205.381 204.848 204.997 204.698C204.623 204.549 204.303 204.32 204.037 204.01C203.77 203.69 203.637 203.258 203.637 202.714C203.637 202 203.898 201.424 204.421 200.986C204.943 200.549 205.653 200.33 206.549 200.33ZM215.918 197.85C215.918 197.616 215.993 197.429 216.142 197.29C216.302 197.152 216.505 197.082 216.75 197.082C216.996 197.082 217.193 197.152 217.342 197.29C217.492 197.429 217.566 197.616 217.566 197.85C217.566 198.074 217.492 198.256 217.342 198.394C217.193 198.533 216.996 198.602 216.75 198.602C216.505 198.602 216.302 198.533 216.142 198.394C215.993 198.256 215.918 198.074 215.918 197.85ZM217.31 200.442V209.178H216.174V200.442H217.31ZM224.105 200.282C225.118 200.282 225.94 200.608 226.569 201.258C227.209 201.898 227.529 202.842 227.529 204.09V209.178H226.425V204.17C226.425 203.221 226.185 202.496 225.705 201.994C225.225 201.482 224.569 201.226 223.737 201.226C222.862 201.226 222.164 201.509 221.641 202.074C221.129 202.629 220.873 203.45 220.873 204.538V209.178H219.737V200.442H220.873V202.586C221.097 201.84 221.502 201.269 222.089 200.874C222.676 200.48 223.348 200.282 224.105 200.282ZM234.261 200.282C235.274 200.282 236.096 200.608 236.725 201.258C237.365 201.898 237.685 202.842 237.685 204.09V209.178H236.581V204.17C236.581 203.221 236.341 202.496 235.861 201.994C235.381 201.482 234.725 201.226 233.893 201.226C233.018 201.226 232.32 201.509 231.797 202.074C231.285 202.629 231.029 203.45 231.029 204.538V209.178H229.893V197.338H231.029V202.586C231.253 201.84 231.658 201.269 232.245 200.874C232.832 200.48 233.504 200.282 234.261 200.282ZM243.857 208.362C244.647 208.362 245.308 208.165 245.841 207.77C246.375 207.376 246.695 206.842 246.801 206.17H247.985C247.825 207.098 247.383 207.85 246.657 208.426C245.932 209.002 245.015 209.29 243.905 209.29C243.073 209.29 242.332 209.114 241.681 208.762C241.041 208.4 240.54 207.882 240.177 207.21C239.815 206.528 239.633 205.728 239.633 204.81C239.633 203.893 239.815 203.098 240.177 202.426C240.54 201.744 241.041 201.226 241.681 200.874C242.332 200.512 243.073 200.33 243.905 200.33C244.759 200.33 245.495 200.512 246.113 200.874C246.743 201.226 247.217 201.701 247.537 202.298C247.868 202.896 248.033 203.546 248.033 204.25C248.033 204.549 248.012 204.821 247.969 205.066H240.737C240.748 205.802 240.897 206.421 241.185 206.922C241.484 207.413 241.868 207.776 242.337 208.01C242.807 208.245 243.313 208.362 243.857 208.362ZM243.905 201.242C243.34 201.242 242.823 201.36 242.353 201.594C241.884 201.829 241.5 202.192 241.201 202.682C240.913 203.162 240.759 203.765 240.737 204.49H246.913C246.956 203.776 246.839 203.173 246.561 202.682C246.284 202.192 245.911 201.829 245.441 201.594C244.972 201.36 244.46 201.242 243.905 201.242ZM251.185 202.25C251.441 201.621 251.852 201.136 252.417 200.794C252.983 200.453 253.671 200.282 254.481 200.282V201.498H254.113C253.271 201.498 252.572 201.728 252.017 202.186C251.463 202.634 251.185 203.37 251.185 204.394V209.178H250.049V200.442H251.185V202.25ZM259.779 208.362C260.569 208.362 261.23 208.165 261.763 207.77C262.297 207.376 262.617 206.842 262.723 206.17H263.907C263.747 207.098 263.305 207.85 262.579 208.426C261.854 209.002 260.937 209.29 259.827 209.29C258.995 209.29 258.254 209.114 257.603 208.762C256.963 208.4 256.462 207.882 256.099 207.21C255.737 206.528 255.555 205.728 255.555 204.81C255.555 203.893 255.737 203.098 256.099 202.426C256.462 201.744 256.963 201.226 257.603 200.874C258.254 200.512 258.995 200.33 259.827 200.33C260.681 200.33 261.417 200.512 262.035 200.874C262.665 201.226 263.139 201.701 263.459 202.298C263.79 202.896 263.955 203.546 263.955 204.25C263.955 204.549 263.934 204.821 263.891 205.066H256.659C256.67 205.802 256.819 206.421 257.107 206.922C257.406 207.413 257.79 207.776 258.259 208.01C258.729 208.245 259.235 208.362 259.779 208.362ZM259.827 201.242C259.262 201.242 258.745 201.36 258.275 201.594C257.806 201.829 257.422 202.192 257.123 202.682C256.835 203.162 256.681 203.765 256.659 204.49H262.835C262.878 203.776 262.761 203.173 262.483 202.682C262.206 202.192 261.833 201.829 261.363 201.594C260.894 201.36 260.382 201.242 259.827 201.242ZM270.339 200.282C271.353 200.282 272.174 200.608 272.803 201.258C273.443 201.898 273.763 202.842 273.763 204.09V209.178H272.659V204.17C272.659 203.221 272.419 202.496 271.939 201.994C271.459 201.482 270.803 201.226 269.971 201.226C269.097 201.226 268.398 201.509 267.875 202.074C267.363 202.629 267.107 203.45 267.107 204.538V209.178H265.971V200.442H267.107V202.586C267.331 201.84 267.737 201.269 268.323 200.874C268.91 200.48 269.582 200.282 270.339 200.282ZM280.095 208.186V209.178H279.055C278.213 209.178 277.583 208.981 277.167 208.586C276.751 208.181 276.543 207.504 276.543 206.554V201.418H275.215V200.442H276.543V198.234H277.679V200.442H280.079V201.418H277.679V206.57C277.679 207.189 277.791 207.616 278.015 207.85C278.239 208.074 278.634 208.186 279.199 208.186H280.095ZM283.076 197.338V209.178H281.94V197.338H283.076ZM285.742 200.442L288.782 207.722L291.582 200.442H292.83L287.694 213.306H286.414L288.174 209.082L284.494 200.442H285.742ZM54.8392 224.282C55.8526 224.282 56.6739 224.608 57.3032 225.258C57.9432 225.898 58.2632 226.842 58.2632 228.09V233.178H57.1592V228.17C57.1592 227.221 56.9192 226.496 56.4392 225.994C55.9592 225.482 55.3032 225.226 54.4712 225.226C53.5966 225.226 52.8979 225.509 52.3752 226.074C51.8632 226.629 51.6072 227.45 51.6072 228.538V233.178H50.4712V224.442H51.6072V226.586C51.8312 225.84 52.2366 225.269 52.8232 224.874C53.4099 224.48 54.0819 224.282 54.8392 224.282ZM64.5795 224.33C65.4115 224.33 66.1528 224.512 66.8035 224.874C67.4648 225.226 67.9822 225.744 68.3555 226.426C68.7288 227.098 68.9155 227.893 68.9155 228.81C68.9155 229.728 68.7288 230.522 68.3555 231.194C67.9822 231.866 67.4648 232.384 66.8035 232.746C66.1528 233.109 65.4115 233.29 64.5795 233.29C63.7475 233.29 63.0008 233.109 62.3395 232.746C61.6782 232.384 61.1555 231.866 60.7715 231.194C60.3982 230.512 60.2115 229.717 60.2115 228.81C60.2115 227.893 60.3982 227.098 60.7715 226.426C61.1555 225.744 61.6782 225.226 62.3395 224.874C63.0008 224.512 63.7475 224.33 64.5795 224.33ZM64.5795 225.306C64.0035 225.306 63.4702 225.434 62.9795 225.69C62.4888 225.946 62.0942 226.341 61.7955 226.874C61.4968 227.397 61.3475 228.042 61.3475 228.81C61.3475 229.578 61.4968 230.224 61.7955 230.746C62.0942 231.269 62.4888 231.658 62.9795 231.914C63.4702 232.17 64.0035 232.298 64.5795 232.298C65.1448 232.298 65.6675 232.17 66.1475 231.914C66.6382 231.658 67.0328 231.269 67.3315 230.746C67.6302 230.224 67.7795 229.578 67.7795 228.81C67.7795 228.042 67.6302 227.397 67.3315 226.874C67.0328 226.341 66.6382 225.946 66.1475 225.69C65.6675 225.434 65.1448 225.306 64.5795 225.306ZM75.2924 224.282C76.3057 224.282 77.127 224.608 77.7564 225.258C78.3964 225.898 78.7164 226.842 78.7164 228.09V233.178H77.6124V228.17C77.6124 227.221 77.3724 226.496 76.8924 225.994C76.4124 225.482 75.7564 225.226 74.9244 225.226C74.0497 225.226 73.351 225.509 72.8284 226.074C72.3164 226.629 72.0604 227.45 72.0604 228.538V233.178H70.9244V224.442H72.0604V226.586C72.2844 225.84 72.6897 225.269 73.2764 224.874C73.863 224.48 74.535 224.282 75.2924 224.282ZM85.7686 226.778V227.722H79.5286V226.778H85.7686ZM88.4496 221.85C88.4496 221.616 88.5243 221.429 88.6736 221.29C88.8336 221.152 89.0363 221.082 89.2816 221.082C89.527 221.082 89.7243 221.152 89.8736 221.29C90.023 221.429 90.0976 221.616 90.0976 221.85C90.0976 222.074 90.023 222.256 89.8736 222.394C89.7243 222.533 89.527 222.602 89.2816 222.602C89.0363 222.602 88.8336 222.533 88.6736 222.394C88.5243 222.256 88.4496 222.074 88.4496 221.85ZM89.8416 224.442V233.178H88.7056V224.442H89.8416ZM96.6361 224.282C97.6495 224.282 98.4708 224.608 99.1001 225.258C99.7401 225.898 100.06 226.842 100.06 228.09V233.178H98.9561V228.17C98.9561 227.221 98.7161 226.496 98.2361 225.994C97.7561 225.482 97.1001 225.226 96.2681 225.226C95.3935 225.226 94.6948 225.509 94.1721 226.074C93.6601 226.629 93.4041 227.45 93.4041 228.538V233.178H92.2681V224.442H93.4041V226.586C93.6281 225.84 94.0335 225.269 94.6201 224.874C95.2068 224.48 95.8788 224.282 96.6361 224.282ZM106.104 222.122C105.294 222.112 104.723 222.261 104.392 222.57C104.072 222.869 103.912 223.376 103.912 224.09V224.442H106.104V225.434H103.912V233.178H102.792V225.434H101.496V224.442H102.792V224.01C102.792 223.029 103.059 222.293 103.592 221.802C104.126 221.312 104.963 221.088 106.104 221.13V222.122ZM108.92 221.338V233.178H107.784V221.338H108.92ZM115.026 224.33C115.912 224.33 116.664 224.56 117.282 225.018C117.912 225.477 118.344 226.085 118.578 226.842V224.442H119.682V233.178H118.578V230.778C118.344 231.536 117.912 232.144 117.282 232.602C116.664 233.061 115.912 233.29 115.026 233.29C114.237 233.29 113.528 233.109 112.898 232.746C112.28 232.384 111.794 231.866 111.442 231.194C111.101 230.512 110.93 229.717 110.93 228.81C110.93 227.893 111.101 227.098 111.442 226.426C111.794 225.744 112.28 225.226 112.898 224.874C113.517 224.512 114.226 224.33 115.026 224.33ZM115.314 225.322C114.333 225.322 113.544 225.637 112.946 226.266C112.36 226.885 112.066 227.733 112.066 228.81C112.066 229.888 112.36 230.741 112.946 231.37C113.544 231.989 114.333 232.298 115.314 232.298C115.933 232.298 116.488 232.154 116.978 231.866C117.48 231.578 117.869 231.173 118.146 230.65C118.434 230.117 118.578 229.504 118.578 228.81C118.578 228.117 118.434 227.509 118.146 226.986C117.869 226.453 117.48 226.042 116.978 225.754C116.488 225.466 115.933 225.322 115.314 225.322ZM126.08 232.186V233.178H125.04C124.197 233.178 123.568 232.981 123.152 232.586C122.736 232.181 122.528 231.504 122.528 230.554V225.418H121.2V224.442H122.528V222.234H123.664V224.442H126.064V225.418H123.664V230.57C123.664 231.189 123.776 231.616 124 231.85C124.224 232.074 124.619 232.186 125.184 232.186H126.08ZM127.668 221.85C127.668 221.616 127.743 221.429 127.892 221.29C128.052 221.152 128.255 221.082 128.5 221.082C128.746 221.082 128.943 221.152 129.092 221.29C129.242 221.429 129.316 221.616 129.316 221.85C129.316 222.074 129.242 222.256 129.092 222.394C128.943 222.533 128.746 222.602 128.5 222.602C128.255 222.602 128.052 222.533 127.892 222.394C127.743 222.256 127.668 222.074 127.668 221.85ZM129.06 224.442V233.178H127.924V224.442H129.06ZM135.439 224.33C136.271 224.33 137.012 224.512 137.663 224.874C138.324 225.226 138.842 225.744 139.215 226.426C139.588 227.098 139.775 227.893 139.775 228.81C139.775 229.728 139.588 230.522 139.215 231.194C138.842 231.866 138.324 232.384 137.663 232.746C137.012 233.109 136.271 233.29 135.439 233.29C134.607 233.29 133.86 233.109 133.199 232.746C132.538 232.384 132.015 231.866 131.631 231.194C131.258 230.512 131.071 229.717 131.071 228.81C131.071 227.893 131.258 227.098 131.631 226.426C132.015 225.744 132.538 225.226 133.199 224.874C133.86 224.512 134.607 224.33 135.439 224.33ZM135.439 225.306C134.863 225.306 134.33 225.434 133.839 225.69C133.348 225.946 132.954 226.341 132.655 226.874C132.356 227.397 132.207 228.042 132.207 228.81C132.207 229.578 132.356 230.224 132.655 230.746C132.954 231.269 133.348 231.658 133.839 231.914C134.33 232.17 134.863 232.298 135.439 232.298C136.004 232.298 136.527 232.17 137.007 231.914C137.498 231.658 137.892 231.269 138.191 230.746C138.49 230.224 138.639 229.578 138.639 228.81C138.639 228.042 138.49 227.397 138.191 226.874C137.892 226.341 137.498 225.946 137.007 225.69C136.527 225.434 136.004 225.306 135.439 225.306ZM146.152 224.282C147.165 224.282 147.986 224.608 148.616 225.258C149.256 225.898 149.576 226.842 149.576 228.09V233.178H148.472V228.17C148.472 227.221 148.232 226.496 147.752 225.994C147.272 225.482 146.616 225.226 145.784 225.226C144.909 225.226 144.21 225.509 143.688 226.074C143.176 226.629 142.92 227.45 142.92 228.538V233.178H141.784V224.442H142.92V226.586C143.144 225.84 143.549 225.269 144.136 224.874C144.722 224.48 145.394 224.282 146.152 224.282ZM155.62 224.33C156.505 224.33 157.257 224.56 157.876 225.018C158.505 225.477 158.937 226.085 159.172 226.842V224.442H160.276V233.178H159.172V230.778C158.937 231.536 158.505 232.144 157.876 232.602C157.257 233.061 156.505 233.29 155.62 233.29C154.831 233.29 154.121 233.109 153.492 232.746C152.873 232.384 152.388 231.866 152.036 231.194C151.695 230.512 151.524 229.717 151.524 228.81C151.524 227.893 151.695 227.098 152.036 226.426C152.388 225.744 152.873 225.226 153.492 224.874C154.111 224.512 154.82 224.33 155.62 224.33ZM155.908 225.322C154.927 225.322 154.137 225.637 153.54 226.266C152.953 226.885 152.66 227.733 152.66 228.81C152.66 229.888 152.953 230.741 153.54 231.37C154.137 231.989 154.927 232.298 155.908 232.298C156.527 232.298 157.081 232.154 157.572 231.866C158.073 231.578 158.463 231.173 158.74 230.65C159.028 230.117 159.172 229.504 159.172 228.81C159.172 228.117 159.028 227.509 158.74 226.986C158.463 226.453 158.073 226.042 157.572 225.754C157.081 225.466 156.527 225.322 155.908 225.322ZM163.842 226.25C164.098 225.621 164.508 225.136 165.074 224.794C165.639 224.453 166.327 224.282 167.138 224.282V225.498H166.77C165.927 225.498 165.228 225.728 164.674 226.186C164.119 226.634 163.842 227.37 163.842 228.394V233.178H162.706V224.442H163.842V226.25ZM168.867 224.442L171.907 231.722L174.707 224.442H175.955L170.819 237.306H169.539L171.299 233.082L167.619 224.442H168.867ZM178.001 232.282C178.108 232.645 178.161 233.008 178.161 233.37C178.161 233.882 178.039 234.288 177.793 234.586C177.548 234.896 177.18 235.05 176.689 235.05V234.522C176.945 234.522 177.132 234.448 177.249 234.298C177.367 234.16 177.425 233.941 177.425 233.642V233.514H176.705V232.282H178.001ZM187.761 224.33C188.646 224.33 189.398 224.56 190.017 225.018C190.646 225.477 191.078 226.085 191.313 226.842V224.442H192.417V233.178H191.313V230.778C191.078 231.536 190.646 232.144 190.017 232.602C189.398 233.061 188.646 233.29 187.761 233.29C186.971 233.29 186.262 233.109 185.633 232.746C185.014 232.384 184.529 231.866 184.177 231.194C183.835 230.512 183.665 229.717 183.665 228.81C183.665 227.893 183.835 227.098 184.177 226.426C184.529 225.744 185.014 225.226 185.633 224.874C186.251 224.512 186.961 224.33 187.761 224.33ZM188.049 225.322C187.067 225.322 186.278 225.637 185.681 226.266C185.094 226.885 184.801 227.733 184.801 228.81C184.801 229.888 185.094 230.741 185.681 231.37C186.278 231.989 187.067 232.298 188.049 232.298C188.667 232.298 189.222 232.154 189.713 231.866C190.214 231.578 190.603 231.173 190.881 230.65C191.169 230.117 191.313 229.504 191.313 228.81C191.313 228.117 191.169 227.509 190.881 226.986C190.603 226.453 190.214 226.042 189.713 225.754C189.222 225.466 188.667 225.322 188.049 225.322ZM197.486 224.33C198.436 224.33 199.198 224.581 199.774 225.082C200.35 225.584 200.702 226.261 200.83 227.114H199.758C199.694 226.549 199.46 226.085 199.054 225.722C198.66 225.349 198.126 225.162 197.454 225.162C196.878 225.162 196.425 225.306 196.094 225.594C195.774 225.872 195.614 226.245 195.614 226.714C195.614 227.066 195.716 227.349 195.918 227.562C196.132 227.776 196.393 227.941 196.702 228.058C197.012 228.165 197.428 228.277 197.95 228.394C198.59 228.544 199.102 228.698 199.486 228.858C199.881 229.008 200.217 229.248 200.494 229.578C200.772 229.909 200.91 230.357 200.91 230.922C200.91 231.616 200.649 232.186 200.126 232.634C199.614 233.072 198.932 233.29 198.078 233.29C197.076 233.29 196.254 233.045 195.614 232.554C194.974 232.053 194.596 231.37 194.478 230.506H195.566C195.63 231.082 195.881 231.552 196.318 231.914C196.756 232.277 197.348 232.458 198.094 232.458C198.649 232.458 199.081 232.314 199.39 232.026C199.7 231.738 199.854 231.365 199.854 230.906C199.854 230.533 199.748 230.234 199.534 230.01C199.321 229.786 199.054 229.621 198.734 229.514C198.425 229.397 197.998 229.274 197.454 229.146C196.825 228.997 196.318 228.848 195.934 228.698C195.561 228.549 195.241 228.32 194.974 228.01C194.708 227.69 194.574 227.258 194.574 226.714C194.574 226 194.836 225.424 195.358 224.986C195.881 224.549 196.59 224.33 197.486 224.33ZM211.064 224.33C211.896 224.33 212.637 224.512 213.288 224.874C213.949 225.226 214.467 225.744 214.84 226.426C215.213 227.098 215.4 227.893 215.4 228.81C215.4 229.728 215.213 230.522 214.84 231.194C214.467 231.866 213.949 232.384 213.288 232.746C212.637 233.109 211.896 233.29 211.064 233.29C210.232 233.29 209.485 233.109 208.824 232.746C208.163 232.384 207.64 231.866 207.256 231.194C206.883 230.512 206.696 229.717 206.696 228.81C206.696 227.893 206.883 227.098 207.256 226.426C207.64 225.744 208.163 225.226 208.824 224.874C209.485 224.512 210.232 224.33 211.064 224.33ZM211.064 225.306C210.488 225.306 209.955 225.434 209.464 225.69C208.973 225.946 208.579 226.341 208.28 226.874C207.981 227.397 207.832 228.042 207.832 228.81C207.832 229.578 207.981 230.224 208.28 230.746C208.579 231.269 208.973 231.658 209.464 231.914C209.955 232.17 210.488 232.298 211.064 232.298C211.629 232.298 212.152 232.17 212.632 231.914C213.123 231.658 213.517 231.269 213.816 230.746C214.115 230.224 214.264 229.578 214.264 228.81C214.264 228.042 214.115 227.397 213.816 226.874C213.517 226.341 213.123 225.946 212.632 225.69C212.152 225.434 211.629 225.306 211.064 225.306ZM221.777 224.282C222.79 224.282 223.611 224.608 224.241 225.258C224.881 225.898 225.201 226.842 225.201 228.09V233.178H224.097V228.17C224.097 227.221 223.857 226.496 223.377 225.994C222.897 225.482 222.241 225.226 221.409 225.226C220.534 225.226 219.835 225.509 219.313 226.074C218.801 226.629 218.545 227.45 218.545 228.538V233.178H217.409V224.442H218.545V226.586C218.769 225.84 219.174 225.269 219.761 224.874C220.347 224.48 221.019 224.282 221.777 224.282ZM228.701 221.338V233.178H227.565V221.338H228.701ZM231.367 224.442L234.407 231.722L237.207 224.442H238.455L233.319 237.306H232.039L233.799 233.082L230.119 224.442H231.367ZM248.002 232.186V233.178H246.962C246.119 233.178 245.49 232.981 245.074 232.586C244.658 232.181 244.45 231.504 244.45 230.554V225.418H243.122V224.442H244.45V222.234H245.586V224.442H247.986V225.418H245.586V230.57C245.586 231.189 245.698 231.616 245.922 231.85C246.146 232.074 246.54 232.186 247.106 232.186H248.002ZM253.798 224.33C254.63 224.33 255.372 224.512 256.022 224.874C256.684 225.226 257.201 225.744 257.574 226.426C257.948 227.098 258.134 227.893 258.134 228.81C258.134 229.728 257.948 230.522 257.574 231.194C257.201 231.866 256.684 232.384 256.022 232.746C255.372 233.109 254.63 233.29 253.798 233.29C252.966 233.29 252.22 233.109 251.558 232.746C250.897 232.384 250.374 231.866 249.99 231.194C249.617 230.512 249.43 229.717 249.43 228.81C249.43 227.893 249.617 227.098 249.99 226.426C250.374 225.744 250.897 225.226 251.558 224.874C252.22 224.512 252.966 224.33 253.798 224.33ZM253.798 225.306C253.222 225.306 252.689 225.434 252.198 225.69C251.708 225.946 251.313 226.341 251.014 226.874C250.716 227.397 250.566 228.042 250.566 228.81C250.566 229.578 250.716 230.224 251.014 230.746C251.313 231.269 251.708 231.658 252.198 231.914C252.689 232.17 253.222 232.298 253.798 232.298C254.364 232.298 254.886 232.17 255.366 231.914C255.857 231.658 256.252 231.269 256.55 230.746C256.849 230.224 256.998 229.578 256.998 228.81C256.998 228.042 256.849 227.397 256.55 226.874C256.252 226.341 255.857 225.946 255.366 225.69C254.886 225.434 254.364 225.306 253.798 225.306ZM264.815 233.178L261.279 229.178V233.178H260.143V221.338H261.279V228.282L264.751 224.442H266.143L262.127 228.762L266.255 233.178H264.815ZM271.389 232.362C272.178 232.362 272.839 232.165 273.373 231.77C273.906 231.376 274.226 230.842 274.333 230.17H275.517C275.357 231.098 274.914 231.85 274.189 232.426C273.463 233.002 272.546 233.29 271.437 233.29C270.605 233.29 269.863 233.114 269.213 232.762C268.573 232.4 268.071 231.882 267.709 231.21C267.346 230.528 267.165 229.728 267.165 228.81C267.165 227.893 267.346 227.098 267.709 226.426C268.071 225.744 268.573 225.226 269.213 224.874C269.863 224.512 270.605 224.33 271.437 224.33C272.29 224.33 273.026 224.512 273.645 224.874C274.274 225.226 274.749 225.701 275.069 226.298C275.399 226.896 275.565 227.546 275.565 228.25C275.565 228.549 275.543 228.821 275.501 229.066H268.269C268.279 229.802 268.429 230.421 268.717 230.922C269.015 231.413 269.399 231.776 269.869 232.01C270.338 232.245 270.845 232.362 271.389 232.362ZM271.437 225.242C270.871 225.242 270.354 225.36 269.885 225.594C269.415 225.829 269.031 226.192 268.733 226.682C268.445 227.162 268.29 227.765 268.269 228.49H274.445C274.487 227.776 274.37 227.173 274.093 226.682C273.815 226.192 273.442 225.829 272.973 225.594C272.503 225.36 271.991 225.242 271.437 225.242ZM281.949 224.282C282.962 224.282 283.783 224.608 284.413 225.258C285.053 225.898 285.373 226.842 285.373 228.09V233.178H284.269V228.17C284.269 227.221 284.029 226.496 283.549 225.994C283.069 225.482 282.413 225.226 281.581 225.226C280.706 225.226 280.007 225.509 279.485 226.074C278.973 226.629 278.717 227.45 278.717 228.538V233.178H277.581V224.442H278.717V226.586C278.941 225.84 279.346 225.269 279.933 224.874C280.519 224.48 281.191 224.282 281.949 224.282ZM290.377 224.33C291.326 224.33 292.089 224.581 292.665 225.082C293.241 225.584 293.593 226.261 293.721 227.114H292.649C292.585 226.549 292.35 226.085 291.945 225.722C291.55 225.349 291.017 225.162 290.345 225.162C289.769 225.162 289.316 225.306 288.985 225.594C288.665 225.872 288.505 226.245 288.505 226.714C288.505 227.066 288.606 227.349 288.809 227.562C289.022 227.776 289.284 227.941 289.593 228.058C289.902 228.165 290.318 228.277 290.841 228.394C291.481 228.544 291.993 228.698 292.377 228.858C292.772 229.008 293.108 229.248 293.385 229.578C293.662 229.909 293.801 230.357 293.801 230.922C293.801 231.616 293.54 232.186 293.017 232.634C292.505 233.072 291.822 233.29 290.969 233.29C289.966 233.29 289.145 233.045 288.505 232.554C287.865 232.053 287.486 231.37 287.369 230.506H288.457C288.521 231.082 288.772 231.552 289.209 231.914C289.646 232.277 290.238 232.458 290.985 232.458C291.54 232.458 291.972 232.314 292.281 232.026C292.59 231.738 292.745 231.365 292.745 230.906C292.745 230.533 292.638 230.234 292.425 230.01C292.212 229.786 291.945 229.621 291.625 229.514C291.316 229.397 290.889 229.274 290.345 229.146C289.716 228.997 289.209 228.848 288.825 228.698C288.452 228.549 288.132 228.32 287.865 228.01C287.598 227.69 287.465 227.258 287.465 226.714C287.465 226 287.726 225.424 288.249 224.986C288.772 224.549 289.481 224.33 290.377 224.33ZM69.3689 256.186V257.178H68.3289C67.4863 257.178 66.8569 256.981 66.4409 256.586C66.0249 256.181 65.8169 255.504 65.8169 254.554V249.418H64.4889V248.442H65.8169V246.234H66.9529V248.442H69.3529V249.418H66.9529V254.57C66.9529 255.189 67.0649 255.616 67.2889 255.85C67.5129 256.074 67.9076 256.186 68.4729 256.186H69.3689ZM75.5814 248.282C76.5948 248.282 77.4161 248.608 78.0454 249.258C78.6854 249.898 79.0054 250.842 79.0054 252.09V257.178H77.9014V252.17C77.9014 251.221 77.6614 250.496 77.1814 249.994C76.7014 249.482 76.0454 249.226 75.2134 249.226C74.3388 249.226 73.6401 249.509 73.1174 250.074C72.6054 250.629 72.3494 251.45 72.3494 252.538V257.178H71.2134V245.338H72.3494V250.586C72.5734 249.84 72.9788 249.269 73.5654 248.874C74.1521 248.48 74.8241 248.282 75.5814 248.282ZM85.0497 248.33C85.935 248.33 86.687 248.56 87.3057 249.018C87.935 249.477 88.367 250.085 88.6017 250.842V248.442H89.7057V257.178H88.6017V254.778C88.367 255.536 87.935 256.144 87.3057 256.602C86.687 257.061 85.935 257.29 85.0497 257.29C84.2604 257.29 83.551 257.109 82.9217 256.746C82.303 256.384 81.8177 255.866 81.4657 255.194C81.1244 254.512 80.9537 253.717 80.9537 252.81C80.9537 251.893 81.1244 251.098 81.4657 250.426C81.8177 249.744 82.303 249.226 82.9217 248.874C83.5404 248.512 84.2497 248.33 85.0497 248.33ZM85.3377 249.322C84.3564 249.322 83.567 249.637 82.9697 250.266C82.383 250.885 82.0897 251.733 82.0897 252.81C82.0897 253.888 82.383 254.741 82.9697 255.37C83.567 255.989 84.3564 256.298 85.3377 256.298C85.9564 256.298 86.511 256.154 87.0017 255.866C87.503 255.578 87.8924 255.173 88.1697 254.65C88.4577 254.117 88.6017 253.504 88.6017 252.81C88.6017 252.117 88.4577 251.509 88.1697 250.986C87.8924 250.453 87.503 250.042 87.0017 249.754C86.511 249.466 85.9564 249.322 85.3377 249.322ZM96.1033 256.186V257.178H95.0633C94.2206 257.178 93.5913 256.981 93.1753 256.586C92.7593 256.181 92.5513 255.504 92.5513 254.554V249.418H91.2233V248.442H92.5513V246.234H93.6873V248.442H96.0873V249.418H93.6873V254.57C93.6873 255.189 93.7993 255.616 94.0233 255.85C94.2473 256.074 94.642 256.186 95.2073 256.186H96.1033ZM106.472 248.282C107.485 248.282 108.307 248.608 108.936 249.258C109.576 249.898 109.896 250.842 109.896 252.09V257.178H108.792V252.17C108.792 251.221 108.552 250.496 108.072 249.994C107.592 249.482 106.936 249.226 106.104 249.226C105.229 249.226 104.531 249.509 104.008 250.074C103.496 250.629 103.24 251.45 103.24 252.538V257.178H102.104V245.338H103.24V250.586C103.464 249.84 103.869 249.269 104.456 248.874C105.043 248.48 105.715 248.282 106.472 248.282ZM115.94 248.33C116.826 248.33 117.578 248.56 118.196 249.018C118.826 249.477 119.258 250.085 119.492 250.842V248.442H120.596V257.178H119.492V254.778C119.258 255.536 118.826 256.144 118.196 256.602C117.578 257.061 116.826 257.29 115.94 257.29C115.151 257.29 114.442 257.109 113.812 256.746C113.194 256.384 112.708 255.866 112.356 255.194C112.015 254.512 111.844 253.717 111.844 252.81C111.844 251.893 112.015 251.098 112.356 250.426C112.708 249.744 113.194 249.226 113.812 248.874C114.431 248.512 115.14 248.33 115.94 248.33ZM116.228 249.322C115.247 249.322 114.458 249.637 113.86 250.266C113.274 250.885 112.98 251.733 112.98 252.81C112.98 253.888 113.274 254.741 113.86 255.37C114.458 255.989 115.247 256.298 116.228 256.298C116.847 256.298 117.402 256.154 117.892 255.866C118.394 255.578 118.783 255.173 119.06 254.65C119.348 254.117 119.492 253.504 119.492 252.81C119.492 252.117 119.348 251.509 119.06 250.986C118.783 250.453 118.394 250.042 117.892 249.754C117.402 249.466 116.847 249.322 116.228 249.322ZM126.258 255.914L129.186 248.442H130.402L126.882 257.178H125.602L122.082 248.442H123.298L126.258 255.914ZM135.693 256.362C136.483 256.362 137.144 256.165 137.677 255.77C138.211 255.376 138.531 254.842 138.637 254.17H139.821C139.661 255.098 139.219 255.85 138.493 256.426C137.768 257.002 136.851 257.29 135.741 257.29C134.909 257.29 134.168 257.114 133.517 256.762C132.877 256.4 132.376 255.882 132.013 255.21C131.651 254.528 131.469 253.728 131.469 252.81C131.469 251.893 131.651 251.098 132.013 250.426C132.376 249.744 132.877 249.226 133.517 248.874C134.168 248.512 134.909 248.33 135.741 248.33C136.595 248.33 137.331 248.512 137.949 248.874C138.579 249.226 139.053 249.701 139.373 250.298C139.704 250.896 139.869 251.546 139.869 252.25C139.869 252.549 139.848 252.821 139.805 253.066H132.573C132.584 253.802 132.733 254.421 133.021 254.922C133.32 255.413 133.704 255.776 134.173 256.01C134.643 256.245 135.149 256.362 135.693 256.362ZM135.741 249.242C135.176 249.242 134.659 249.36 134.189 249.594C133.72 249.829 133.336 250.192 133.037 250.682C132.749 251.162 132.595 251.765 132.573 252.49H138.749C138.792 251.776 138.675 251.173 138.397 250.682C138.12 250.192 137.747 249.829 137.277 249.594C136.808 249.36 136.296 249.242 135.741 249.242ZM149.722 248.33C150.607 248.33 151.359 248.56 151.978 249.018C152.607 249.477 153.039 250.085 153.274 250.842V248.442H154.378V257.178H153.274V254.778C153.039 255.536 152.607 256.144 151.978 256.602C151.359 257.061 150.607 257.29 149.722 257.29C148.932 257.29 148.223 257.109 147.594 256.746C146.975 256.384 146.49 255.866 146.138 255.194C145.796 254.512 145.626 253.717 145.626 252.81C145.626 251.893 145.796 251.098 146.138 250.426C146.49 249.744 146.975 249.226 147.594 248.874C148.212 248.512 148.922 248.33 149.722 248.33ZM150.01 249.322C149.028 249.322 148.239 249.637 147.642 250.266C147.055 250.885 146.762 251.733 146.762 252.81C146.762 253.888 147.055 254.741 147.642 255.37C148.239 255.989 149.028 256.298 150.01 256.298C150.628 256.298 151.183 256.154 151.674 255.866C152.175 255.578 152.564 255.173 152.842 254.65C153.13 254.117 153.274 253.504 153.274 252.81C153.274 252.117 153.13 251.509 152.842 250.986C152.564 250.453 152.175 250.042 151.674 249.754C151.183 249.466 150.628 249.322 150.01 249.322ZM162.099 250.25C162.355 249.621 162.766 249.136 163.331 248.794C163.897 248.453 164.585 248.282 165.395 248.282V249.498H165.027C164.185 249.498 163.486 249.728 162.931 250.186C162.377 250.634 162.099 251.37 162.099 252.394V257.178H160.963V248.442H162.099V250.25ZM170.693 256.362C171.483 256.362 172.144 256.165 172.677 255.77C173.211 255.376 173.531 254.842 173.637 254.17H174.821C174.661 255.098 174.219 255.85 173.493 256.426C172.768 257.002 171.851 257.29 170.741 257.29C169.909 257.29 169.168 257.114 168.517 256.762C167.877 256.4 167.376 255.882 167.013 255.21C166.651 254.528 166.469 253.728 166.469 252.81C166.469 251.893 166.651 251.098 167.013 250.426C167.376 249.744 167.877 249.226 168.517 248.874C169.168 248.512 169.909 248.33 170.741 248.33C171.595 248.33 172.331 248.512 172.949 248.874C173.579 249.226 174.053 249.701 174.373 250.298C174.704 250.896 174.869 251.546 174.869 252.25C174.869 252.549 174.848 252.821 174.805 253.066H167.573C167.584 253.802 167.733 254.421 168.021 254.922C168.32 255.413 168.704 255.776 169.173 256.01C169.643 256.245 170.149 256.362 170.693 256.362ZM170.741 249.242C170.176 249.242 169.659 249.36 169.189 249.594C168.72 249.829 168.336 250.192 168.037 250.682C167.749 251.162 167.595 251.765 167.573 252.49H173.749C173.792 251.776 173.675 251.173 173.397 250.682C173.12 250.192 172.747 249.829 172.277 249.594C171.808 249.36 171.296 249.242 170.741 249.242ZM178.021 245.338V257.178H176.885V245.338H178.021ZM184.128 248.33C185.013 248.33 185.765 248.56 186.384 249.018C187.013 249.477 187.445 250.085 187.68 250.842V248.442H188.784V257.178H187.68V254.778C187.445 255.536 187.013 256.144 186.384 256.602C185.765 257.061 185.013 257.29 184.128 257.29C183.338 257.29 182.629 257.109 182 256.746C181.381 256.384 180.896 255.866 180.544 255.194C180.202 254.512 180.032 253.717 180.032 252.81C180.032 251.893 180.202 251.098 180.544 250.426C180.896 249.744 181.381 249.226 182 248.874C182.618 248.512 183.328 248.33 184.128 248.33ZM184.416 249.322C183.434 249.322 182.645 249.637 182.048 250.266C181.461 250.885 181.168 251.733 181.168 252.81C181.168 253.888 181.461 254.741 182.048 255.37C182.645 255.989 183.434 256.298 184.416 256.298C185.034 256.298 185.589 256.154 186.08 255.866C186.581 255.578 186.97 255.173 187.248 254.65C187.536 254.117 187.68 253.504 187.68 252.81C187.68 252.117 187.536 251.509 187.248 250.986C186.97 250.453 186.581 250.042 186.08 249.754C185.589 249.466 185.034 249.322 184.416 249.322ZM195.181 256.186V257.178H194.141C193.299 257.178 192.669 256.981 192.253 256.586C191.837 256.181 191.629 255.504 191.629 254.554V249.418H190.301V248.442H191.629V246.234H192.765V248.442H195.165V249.418H192.765V254.57C192.765 255.189 192.877 255.616 193.101 255.85C193.325 256.074 193.72 256.186 194.285 256.186H195.181ZM196.77 245.85C196.77 245.616 196.845 245.429 196.994 245.29C197.154 245.152 197.357 245.082 197.602 245.082C197.847 245.082 198.045 245.152 198.194 245.29C198.343 245.429 198.418 245.616 198.418 245.85C198.418 246.074 198.343 246.256 198.194 246.394C198.045 246.533 197.847 246.602 197.602 246.602C197.357 246.602 197.154 246.533 196.994 246.394C196.845 246.256 196.77 246.074 196.77 245.85ZM198.162 248.442V257.178H197.026V248.442H198.162ZM204.54 248.33C205.372 248.33 206.114 248.512 206.764 248.874C207.426 249.226 207.943 249.744 208.316 250.426C208.69 251.098 208.876 251.893 208.876 252.81C208.876 253.728 208.69 254.522 208.316 255.194C207.943 255.866 207.426 256.384 206.764 256.746C206.114 257.109 205.372 257.29 204.54 257.29C203.708 257.29 202.962 257.109 202.3 256.746C201.639 256.384 201.116 255.866 200.732 255.194C200.359 254.512 200.172 253.717 200.172 252.81C200.172 251.893 200.359 251.098 200.732 250.426C201.116 249.744 201.639 249.226 202.3 248.874C202.962 248.512 203.708 248.33 204.54 248.33ZM204.54 249.306C203.964 249.306 203.431 249.434 202.94 249.69C202.45 249.946 202.055 250.341 201.756 250.874C201.458 251.397 201.308 252.042 201.308 252.81C201.308 253.578 201.458 254.224 201.756 254.746C202.055 255.269 202.45 255.658 202.94 255.914C203.431 256.17 203.964 256.298 204.54 256.298C205.106 256.298 205.628 256.17 206.108 255.914C206.599 255.658 206.994 255.269 207.292 254.746C207.591 254.224 207.74 253.578 207.74 252.81C207.74 252.042 207.591 251.397 207.292 250.874C206.994 250.341 206.599 249.946 206.108 249.69C205.628 249.434 205.106 249.306 204.54 249.306ZM215.253 248.282C216.267 248.282 217.088 248.608 217.717 249.258C218.357 249.898 218.677 250.842 218.677 252.09V257.178H217.573V252.17C217.573 251.221 217.333 250.496 216.853 249.994C216.373 249.482 215.717 249.226 214.885 249.226C214.011 249.226 213.312 249.509 212.789 250.074C212.277 250.629 212.021 251.45 212.021 252.538V257.178H210.885V248.442H212.021V250.586C212.245 249.84 212.651 249.269 213.237 248.874C213.824 248.48 214.496 248.282 215.253 248.282ZM229.166 256.186V257.178H228.126C227.283 257.178 226.654 256.981 226.238 256.586C225.822 256.181 225.614 255.504 225.614 254.554V249.418H224.286V248.442H225.614V246.234H226.75V248.442H229.15V249.418H226.75V254.57C226.75 255.189 226.862 255.616 227.086 255.85C227.31 256.074 227.704 256.186 228.27 256.186H229.166ZM234.962 248.33C235.794 248.33 236.536 248.512 237.186 248.874C237.848 249.226 238.365 249.744 238.738 250.426C239.112 251.098 239.298 251.893 239.298 252.81C239.298 253.728 239.112 254.522 238.738 255.194C238.365 255.866 237.848 256.384 237.186 256.746C236.536 257.109 235.794 257.29 234.962 257.29C234.13 257.29 233.384 257.109 232.722 256.746C232.061 256.384 231.538 255.866 231.154 255.194C230.781 254.512 230.594 253.717 230.594 252.81C230.594 251.893 230.781 251.098 231.154 250.426C231.538 249.744 232.061 249.226 232.722 248.874C233.384 248.512 234.13 248.33 234.962 248.33ZM234.962 249.306C234.386 249.306 233.853 249.434 233.362 249.69C232.872 249.946 232.477 250.341 232.178 250.874C231.88 251.397 231.73 252.042 231.73 252.81C231.73 253.578 231.88 254.224 232.178 254.746C232.477 255.269 232.872 255.658 233.362 255.914C233.853 256.17 234.386 256.298 234.962 256.298C235.528 256.298 236.05 256.17 236.53 255.914C237.021 255.658 237.416 255.269 237.714 254.746C238.013 254.224 238.162 253.578 238.162 252.81C238.162 252.042 238.013 251.397 237.714 250.874C237.416 250.341 237.021 249.946 236.53 249.69C236.05 249.434 235.528 249.306 234.962 249.306ZM249.431 256.186V257.178H248.391C247.549 257.178 246.919 256.981 246.503 256.586C246.087 256.181 245.879 255.504 245.879 254.554V249.418H244.551V248.442H245.879V246.234H247.015V248.442H249.415V249.418H247.015V254.57C247.015 255.189 247.127 255.616 247.351 255.85C247.575 256.074 247.97 256.186 248.535 256.186H249.431ZM255.644 248.282C256.657 248.282 257.479 248.608 258.108 249.258C258.748 249.898 259.068 250.842 259.068 252.09V257.178H257.964V252.17C257.964 251.221 257.724 250.496 257.244 249.994C256.764 249.482 256.108 249.226 255.276 249.226C254.401 249.226 253.703 249.509 253.18 250.074C252.668 250.629 252.412 251.45 252.412 252.538V257.178H251.276V245.338H252.412V250.586C252.636 249.84 253.041 249.269 253.628 248.874C254.215 248.48 254.887 248.282 255.644 248.282ZM265.24 256.362C266.03 256.362 266.691 256.165 267.224 255.77C267.758 255.376 268.078 254.842 268.184 254.17H269.368C269.208 255.098 268.766 255.85 268.04 256.426C267.315 257.002 266.398 257.29 265.288 257.29C264.456 257.29 263.715 257.114 263.064 256.762C262.424 256.4 261.923 255.882 261.56 255.21C261.198 254.528 261.016 253.728 261.016 252.81C261.016 251.893 261.198 251.098 261.56 250.426C261.923 249.744 262.424 249.226 263.064 248.874C263.715 248.512 264.456 248.33 265.288 248.33C266.142 248.33 266.878 248.512 267.496 248.874C268.126 249.226 268.6 249.701 268.92 250.298C269.251 250.896 269.416 251.546 269.416 252.25C269.416 252.549 269.395 252.821 269.352 253.066H262.12C262.131 253.802 262.28 254.421 262.568 254.922C262.867 255.413 263.251 255.776 263.72 256.01C264.19 256.245 264.696 256.362 265.24 256.362ZM265.288 249.242C264.723 249.242 264.206 249.36 263.736 249.594C263.267 249.829 262.883 250.192 262.584 250.682C262.296 251.162 262.142 251.765 262.12 252.49H268.296C268.339 251.776 268.222 251.173 267.944 250.682C267.667 250.192 267.294 249.829 266.824 249.594C266.355 249.36 265.843 249.242 265.288 249.242ZM271.176 245.85C271.176 245.616 271.251 245.429 271.4 245.29C271.56 245.152 271.763 245.082 272.008 245.082C272.254 245.082 272.451 245.152 272.6 245.29C272.75 245.429 272.824 245.616 272.824 245.85C272.824 246.074 272.75 246.256 272.6 246.394C272.451 246.533 272.254 246.602 272.008 246.602C271.763 246.602 271.56 246.533 271.4 246.394C271.251 246.256 271.176 246.074 271.176 245.85ZM272.568 248.442V257.178H271.432V248.442H272.568ZM276.131 250.25C276.387 249.621 276.797 249.136 277.363 248.794C277.928 248.453 278.616 248.282 279.427 248.282V249.498H279.059C278.216 249.498 277.517 249.728 276.963 250.186C276.408 250.634 276.131 251.37 276.131 252.394V257.178H274.995V248.442H276.131V250.25ZM58.8822 272.442V281.178H57.7622V279.018C57.5382 279.776 57.1329 280.352 56.5462 280.746C55.9596 281.141 55.2876 281.338 54.5302 281.338C53.5062 281.338 52.6742 281.018 52.0342 280.378C51.4049 279.728 51.0902 278.778 51.0902 277.53V272.442H52.2102V277.434C52.2102 278.394 52.4502 279.13 52.9302 279.642C53.4102 280.144 54.0662 280.394 54.8982 280.394C55.7729 280.394 56.4662 280.117 56.9782 279.562C57.5009 278.997 57.7622 278.17 57.7622 277.082V272.442H58.8822ZM65.6986 272.282C66.712 272.282 67.5333 272.608 68.1626 273.258C68.8026 273.898 69.1226 274.842 69.1226 276.09V281.178H68.0186V276.17C68.0186 275.221 67.7786 274.496 67.2986 273.994C66.8186 273.482 66.1626 273.226 65.3306 273.226C64.456 273.226 63.7573 273.509 63.2346 274.074C62.7226 274.629 62.4666 275.45 62.4666 276.538V281.178H61.3306V272.442H62.4666V274.586C62.6906 273.84 63.096 273.269 63.6826 272.874C64.2693 272.48 64.9413 272.282 65.6986 272.282ZM75.1669 272.33C76.0522 272.33 76.8042 272.56 77.4229 273.018C78.0522 273.477 78.4789 274.085 78.7029 274.842V269.338H79.8229V281.178H78.7029V278.778C78.4789 279.536 78.0522 280.144 77.4229 280.602C76.8042 281.061 76.0522 281.29 75.1669 281.29C74.3775 281.29 73.6682 281.109 73.0389 280.746C72.4202 280.384 71.9349 279.866 71.5829 279.194C71.2415 278.512 71.0709 277.717 71.0709 276.81C71.0709 275.893 71.2415 275.098 71.5829 274.426C71.9349 273.744 72.4202 273.226 73.0389 272.874C73.6575 272.512 74.3669 272.33 75.1669 272.33ZM75.4549 273.322C74.4735 273.322 73.6842 273.637 73.0869 274.266C72.5002 274.885 72.2069 275.733 72.2069 276.81C72.2069 277.888 72.5002 278.741 73.0869 279.37C73.6842 279.989 74.4735 280.298 75.4549 280.298C76.0735 280.298 76.6282 280.154 77.1189 279.866C77.6202 279.578 78.0095 279.173 78.2869 278.65C78.5749 278.117 78.7189 277.504 78.7189 276.81C78.7189 276.117 78.5749 275.509 78.2869 274.986C78.0095 274.453 77.6202 274.042 77.1189 273.754C76.6282 273.466 76.0735 273.322 75.4549 273.322ZM86.0605 280.362C86.8498 280.362 87.5112 280.165 88.0445 279.77C88.5778 279.376 88.8978 278.842 89.0045 278.17H90.1885C90.0285 279.098 89.5858 279.85 88.8605 280.426C88.1352 281.002 87.2178 281.29 86.1085 281.29C85.2765 281.29 84.5352 281.114 83.8845 280.762C83.2445 280.4 82.7432 279.882 82.3805 279.21C82.0178 278.528 81.8365 277.728 81.8365 276.81C81.8365 275.893 82.0178 275.098 82.3805 274.426C82.7432 273.744 83.2445 273.226 83.8845 272.874C84.5352 272.512 85.2765 272.33 86.1085 272.33C86.9618 272.33 87.6978 272.512 88.3165 272.874C88.9458 273.226 89.4205 273.701 89.7405 274.298C90.0712 274.896 90.2365 275.546 90.2365 276.25C90.2365 276.549 90.2152 276.821 90.1725 277.066H82.9405C82.9512 277.802 83.1005 278.421 83.3885 278.922C83.6872 279.413 84.0712 279.776 84.5405 280.01C85.0098 280.245 85.5165 280.362 86.0605 280.362ZM86.1085 273.242C85.5432 273.242 85.0258 273.36 84.5565 273.594C84.0872 273.829 83.7032 274.192 83.4045 274.682C83.1165 275.162 82.9618 275.765 82.9405 276.49H89.1165C89.1592 275.776 89.0418 275.173 88.7645 274.682C88.4872 274.192 88.1138 273.829 87.6445 273.594C87.1752 273.36 86.6632 273.242 86.1085 273.242ZM93.3885 274.25C93.6445 273.621 94.0552 273.136 94.6205 272.794C95.1858 272.453 95.8738 272.282 96.6845 272.282V273.498H96.3165C95.4738 273.498 94.7752 273.728 94.2205 274.186C93.6658 274.634 93.3885 275.37 93.3885 276.394V281.178H92.2525V272.442H93.3885V274.25ZM99.3104 269.338V281.178H98.1744V269.338H99.3104ZM101.977 272.442L105.017 279.722L107.817 272.442H109.065L103.929 285.306H102.649L104.409 281.082L100.729 272.442H101.977ZM110.231 269.85C110.231 269.616 110.306 269.429 110.455 269.29C110.615 269.152 110.818 269.082 111.063 269.082C111.308 269.082 111.506 269.152 111.655 269.29C111.804 269.429 111.879 269.616 111.879 269.85C111.879 270.074 111.804 270.256 111.655 270.394C111.506 270.533 111.308 270.602 111.063 270.602C110.818 270.602 110.615 270.533 110.455 270.394C110.306 270.256 110.231 270.074 110.231 269.85ZM111.623 272.442V281.178H110.487V272.442H111.623ZM118.417 272.282C119.431 272.282 120.252 272.608 120.881 273.258C121.521 273.898 121.841 274.842 121.841 276.09V281.178H120.737V276.17C120.737 275.221 120.497 274.496 120.017 273.994C119.537 273.482 118.881 273.226 118.049 273.226C117.175 273.226 116.476 273.509 115.953 274.074C115.441 274.629 115.185 275.45 115.185 276.538V281.178H114.049V272.442H115.185V274.586C115.409 273.84 115.815 273.269 116.401 272.874C116.988 272.48 117.66 272.282 118.417 272.282ZM127.886 272.33C128.771 272.33 129.523 272.56 130.142 273.018C130.771 273.477 131.203 274.085 131.438 274.842V272.442H132.542V281.386C132.542 282.197 132.371 282.906 132.03 283.514C131.688 284.133 131.214 284.608 130.606 284.938C129.998 285.28 129.304 285.45 128.526 285.45C127.384 285.45 126.446 285.173 125.71 284.618C124.984 284.074 124.51 283.333 124.286 282.394H125.406C125.598 283.034 125.95 283.541 126.462 283.914C126.984 284.288 127.651 284.474 128.462 284.474C129.016 284.474 129.518 284.352 129.966 284.106C130.424 283.872 130.782 283.52 131.038 283.05C131.304 282.581 131.438 282.026 131.438 281.386V278.778C131.203 279.536 130.771 280.144 130.142 280.602C129.523 281.061 128.771 281.29 127.886 281.29C127.096 281.29 126.387 281.109 125.758 280.746C125.139 280.384 124.654 279.866 124.302 279.194C123.96 278.512 123.79 277.717 123.79 276.81C123.79 275.893 123.96 275.098 124.302 274.426C124.654 273.744 125.139 273.226 125.758 272.874C126.376 272.512 127.086 272.33 127.886 272.33ZM128.174 273.322C127.192 273.322 126.403 273.637 125.806 274.266C125.219 274.885 124.926 275.733 124.926 276.81C124.926 277.888 125.219 278.741 125.806 279.37C126.403 279.989 127.192 280.298 128.174 280.298C128.792 280.298 129.347 280.154 129.838 279.866C130.339 279.578 130.728 279.173 131.006 278.65C131.294 278.117 131.438 277.504 131.438 276.81C131.438 276.117 131.294 275.509 131.006 274.986C130.728 274.453 130.339 274.042 129.838 273.754C129.347 273.466 128.792 273.322 128.174 273.322ZM142.807 272.33C143.693 272.33 144.445 272.56 145.063 273.018C145.693 273.477 146.125 274.085 146.359 274.842V272.442H147.463V281.178H146.359V278.778C146.125 279.536 145.693 280.144 145.063 280.602C144.445 281.061 143.693 281.29 142.807 281.29C142.018 281.29 141.309 281.109 140.679 280.746C140.061 280.384 139.575 279.866 139.223 279.194C138.882 278.512 138.711 277.717 138.711 276.81C138.711 275.893 138.882 275.098 139.223 274.426C139.575 273.744 140.061 273.226 140.679 272.874C141.298 272.512 142.007 272.33 142.807 272.33ZM143.095 273.322C142.114 273.322 141.325 273.637 140.727 274.266C140.141 274.885 139.847 275.733 139.847 276.81C139.847 277.888 140.141 278.741 140.727 279.37C141.325 279.989 142.114 280.298 143.095 280.298C143.714 280.298 144.269 280.154 144.759 279.866C145.261 279.578 145.65 279.173 145.927 278.65C146.215 278.117 146.359 277.504 146.359 276.81C146.359 276.117 146.215 275.509 145.927 274.986C145.65 274.453 145.261 274.042 144.759 273.754C144.269 273.466 143.714 273.322 143.095 273.322ZM152.533 272.33C153.482 272.33 154.245 272.581 154.821 273.082C155.397 273.584 155.749 274.261 155.877 275.114H154.805C154.741 274.549 154.506 274.085 154.101 273.722C153.706 273.349 153.173 273.162 152.501 273.162C151.925 273.162 151.472 273.306 151.141 273.594C150.821 273.872 150.661 274.245 150.661 274.714C150.661 275.066 150.762 275.349 150.965 275.562C151.178 275.776 151.44 275.941 151.749 276.058C152.058 276.165 152.474 276.277 152.997 276.394C153.637 276.544 154.149 276.698 154.533 276.858C154.928 277.008 155.264 277.248 155.541 277.578C155.818 277.909 155.957 278.357 155.957 278.922C155.957 279.616 155.696 280.186 155.173 280.634C154.661 281.072 153.978 281.29 153.125 281.29C152.122 281.29 151.301 281.045 150.661 280.554C150.021 280.053 149.642 279.37 149.525 278.506H150.613C150.677 279.082 150.928 279.552 151.365 279.914C151.802 280.277 152.394 280.458 153.141 280.458C153.696 280.458 154.128 280.314 154.437 280.026C154.746 279.738 154.901 279.365 154.901 278.906C154.901 278.533 154.794 278.234 154.581 278.01C154.368 277.786 154.101 277.621 153.781 277.514C153.472 277.397 153.045 277.274 152.501 277.146C151.872 276.997 151.365 276.848 150.981 276.698C150.608 276.549 150.288 276.32 150.021 276.01C149.754 275.69 149.621 275.258 149.621 274.714C149.621 274 149.882 273.424 150.405 272.986C150.928 272.549 151.637 272.33 152.533 272.33ZM160.642 272.33C161.592 272.33 162.354 272.581 162.93 273.082C163.506 273.584 163.858 274.261 163.986 275.114H162.914C162.85 274.549 162.616 274.085 162.21 273.722C161.816 273.349 161.282 273.162 160.61 273.162C160.034 273.162 159.581 273.306 159.25 273.594C158.93 273.872 158.77 274.245 158.77 274.714C158.77 275.066 158.872 275.349 159.074 275.562C159.288 275.776 159.549 275.941 159.858 276.058C160.168 276.165 160.584 276.277 161.106 276.394C161.746 276.544 162.258 276.698 162.642 276.858C163.037 277.008 163.373 277.248 163.65 277.578C163.928 277.909 164.066 278.357 164.066 278.922C164.066 279.616 163.805 280.186 163.282 280.634C162.77 281.072 162.088 281.29 161.234 281.29C160.232 281.29 159.41 281.045 158.77 280.554C158.13 280.053 157.752 279.37 157.634 278.506H158.722C158.786 279.082 159.037 279.552 159.474 279.914C159.912 280.277 160.504 280.458 161.25 280.458C161.805 280.458 162.237 280.314 162.546 280.026C162.856 279.738 163.01 279.365 163.01 278.906C163.01 278.533 162.904 278.234 162.69 278.01C162.477 277.786 162.21 277.621 161.89 277.514C161.581 277.397 161.154 277.274 160.61 277.146C159.981 276.997 159.474 276.848 159.09 276.698C158.717 276.549 158.397 276.32 158.13 276.01C157.864 275.69 157.73 275.258 157.73 274.714C157.73 274 157.992 273.424 158.514 272.986C159.037 272.549 159.746 272.33 160.642 272.33ZM169.92 280.362C170.709 280.362 171.371 280.165 171.904 279.77C172.437 279.376 172.757 278.842 172.864 278.17H174.048C173.888 279.098 173.445 279.85 172.72 280.426C171.995 281.002 171.077 281.29 169.968 281.29C169.136 281.29 168.395 281.114 167.744 280.762C167.104 280.4 166.603 279.882 166.24 279.21C165.877 278.528 165.696 277.728 165.696 276.81C165.696 275.893 165.877 275.098 166.24 274.426C166.603 273.744 167.104 273.226 167.744 272.874C168.395 272.512 169.136 272.33 169.968 272.33C170.821 272.33 171.557 272.512 172.176 272.874C172.805 273.226 173.28 273.701 173.6 274.298C173.931 274.896 174.096 275.546 174.096 276.25C174.096 276.549 174.075 276.821 174.032 277.066H166.8C166.811 277.802 166.96 278.421 167.248 278.922C167.547 279.413 167.931 279.776 168.4 280.01C168.869 280.245 169.376 280.362 169.92 280.362ZM169.968 273.242C169.403 273.242 168.885 273.36 168.416 273.594C167.947 273.829 167.563 274.192 167.264 274.682C166.976 275.162 166.821 275.765 166.8 276.49H172.976C173.019 275.776 172.901 275.173 172.624 274.682C172.347 274.192 171.973 273.829 171.504 273.594C171.035 273.36 170.523 273.242 169.968 273.242ZM180.08 280.186V281.178H179.04C178.197 281.178 177.568 280.981 177.152 280.586C176.736 280.181 176.528 279.504 176.528 278.554V273.418H175.2V272.442H176.528V270.234H177.664V272.442H180.064V273.418H177.664V278.57C177.664 279.189 177.776 279.616 178 279.85C178.224 280.074 178.619 280.186 179.184 280.186H180.08ZM189.761 272.33C190.646 272.33 191.398 272.56 192.017 273.018C192.646 273.477 193.078 274.085 193.313 274.842V272.442H194.417V281.178H193.313V278.778C193.078 279.536 192.646 280.144 192.017 280.602C191.398 281.061 190.646 281.29 189.761 281.29C188.971 281.29 188.262 281.109 187.633 280.746C187.014 280.384 186.529 279.866 186.177 279.194C185.835 278.512 185.665 277.717 185.665 276.81C185.665 275.893 185.835 275.098 186.177 274.426C186.529 273.744 187.014 273.226 187.633 272.874C188.251 272.512 188.961 272.33 189.761 272.33ZM190.049 273.322C189.067 273.322 188.278 273.637 187.681 274.266C187.094 274.885 186.801 275.733 186.801 276.81C186.801 277.888 187.094 278.741 187.681 279.37C188.278 279.989 189.067 280.298 190.049 280.298C190.667 280.298 191.222 280.154 191.713 279.866C192.214 279.578 192.603 279.173 192.881 278.65C193.169 278.117 193.313 277.504 193.313 276.81C193.313 276.117 193.169 275.509 192.881 274.986C192.603 274.453 192.214 274.042 191.713 273.754C191.222 273.466 190.667 273.322 190.049 273.322ZM197.982 274.25C198.238 273.621 198.649 273.136 199.214 272.794C199.78 272.453 200.468 272.282 201.278 272.282V273.498H200.91C200.068 273.498 199.369 273.728 198.814 274.186C198.26 274.634 197.982 275.37 197.982 276.394V281.178H196.846V272.442H197.982V274.25ZM206.576 280.362C207.365 280.362 208.027 280.165 208.56 279.77C209.093 279.376 209.413 278.842 209.52 278.17H210.704C210.544 279.098 210.101 279.85 209.376 280.426C208.651 281.002 207.733 281.29 206.624 281.29C205.792 281.29 205.051 281.114 204.4 280.762C203.76 280.4 203.259 279.882 202.896 279.21C202.533 278.528 202.352 277.728 202.352 276.81C202.352 275.893 202.533 275.098 202.896 274.426C203.259 273.744 203.76 273.226 204.4 272.874C205.051 272.512 205.792 272.33 206.624 272.33C207.477 272.33 208.213 272.512 208.832 272.874C209.461 273.226 209.936 273.701 210.256 274.298C210.587 274.896 210.752 275.546 210.752 276.25C210.752 276.549 210.731 276.821 210.688 277.066H203.456C203.467 277.802 203.616 278.421 203.904 278.922C204.203 279.413 204.587 279.776 205.056 280.01C205.525 280.245 206.032 280.362 206.576 280.362ZM206.624 273.242C206.059 273.242 205.541 273.36 205.072 273.594C204.603 273.829 204.219 274.192 203.92 274.682C203.632 275.162 203.477 275.765 203.456 276.49H209.632C209.675 275.776 209.557 275.173 209.28 274.682C209.003 274.192 208.629 273.829 208.16 273.594C207.691 273.36 207.179 273.242 206.624 273.242ZM220.604 272.33C221.49 272.33 222.242 272.56 222.86 273.018C223.49 273.477 223.922 274.085 224.156 274.842V272.442H225.26V281.178H224.156V278.778C223.922 279.536 223.49 280.144 222.86 280.602C222.242 281.061 221.49 281.29 220.604 281.29C219.815 281.29 219.106 281.109 218.476 280.746C217.858 280.384 217.372 279.866 217.02 279.194C216.679 278.512 216.508 277.717 216.508 276.81C216.508 275.893 216.679 275.098 217.02 274.426C217.372 273.744 217.858 273.226 218.476 272.874C219.095 272.512 219.804 272.33 220.604 272.33ZM220.892 273.322C219.911 273.322 219.122 273.637 218.524 274.266C217.938 274.885 217.644 275.733 217.644 276.81C217.644 277.888 217.938 278.741 218.524 279.37C219.122 279.989 219.911 280.298 220.892 280.298C221.511 280.298 222.066 280.154 222.556 279.866C223.058 279.578 223.447 279.173 223.724 278.65C224.012 278.117 224.156 277.504 224.156 276.81C224.156 276.117 224.012 275.509 223.724 274.986C223.447 274.453 223.058 274.042 222.556 273.754C222.066 273.466 221.511 273.322 220.892 273.322ZM231.546 272.33C232.655 272.33 233.573 272.624 234.298 273.21C235.034 273.797 235.482 274.576 235.642 275.546H234.474C234.357 274.853 234.031 274.309 233.498 273.914C232.965 273.509 232.309 273.306 231.53 273.306C230.965 273.306 230.442 273.434 229.962 273.69C229.493 273.946 229.114 274.341 228.826 274.874C228.549 275.397 228.41 276.042 228.41 276.81C228.41 277.578 228.549 278.229 228.826 278.762C229.114 279.285 229.493 279.674 229.962 279.93C230.442 280.186 230.965 280.314 231.53 280.314C232.309 280.314 232.965 280.117 233.498 279.722C234.031 279.317 234.357 278.768 234.474 278.074H235.642C235.482 279.045 235.034 279.824 234.298 280.41C233.573 280.997 232.655 281.29 231.546 281.29C230.714 281.29 229.973 281.114 229.322 280.762C228.682 280.4 228.181 279.882 227.818 279.21C227.455 278.528 227.274 277.728 227.274 276.81C227.274 275.893 227.455 275.098 227.818 274.426C228.181 273.744 228.682 273.226 229.322 272.874C229.973 272.512 230.714 272.33 231.546 272.33ZM241.515 272.33C242.624 272.33 243.541 272.624 244.267 273.21C245.003 273.797 245.451 274.576 245.611 275.546H244.443C244.325 274.853 244 274.309 243.467 273.914C242.933 273.509 242.277 273.306 241.499 273.306C240.933 273.306 240.411 273.434 239.931 273.69C239.461 273.946 239.083 274.341 238.795 274.874C238.517 275.397 238.379 276.042 238.379 276.81C238.379 277.578 238.517 278.229 238.795 278.762C239.083 279.285 239.461 279.674 239.931 279.93C240.411 280.186 240.933 280.314 241.499 280.314C242.277 280.314 242.933 280.117 243.467 279.722C244 279.317 244.325 278.768 244.443 278.074H245.611C245.451 279.045 245.003 279.824 244.267 280.41C243.541 280.997 242.624 281.29 241.515 281.29C240.683 281.29 239.941 281.114 239.291 280.762C238.651 280.4 238.149 279.882 237.787 279.21C237.424 278.528 237.243 277.728 237.243 276.81C237.243 275.893 237.424 275.098 237.787 274.426C238.149 273.744 238.651 273.226 239.291 272.874C239.941 272.512 240.683 272.33 241.515 272.33ZM251.435 280.362C252.225 280.362 252.886 280.165 253.419 279.77C253.953 279.376 254.273 278.842 254.379 278.17H255.563C255.403 279.098 254.961 279.85 254.235 280.426C253.51 281.002 252.593 281.29 251.483 281.29C250.651 281.29 249.91 281.114 249.259 280.762C248.619 280.4 248.118 279.882 247.755 279.21C247.393 278.528 247.211 277.728 247.211 276.81C247.211 275.893 247.393 275.098 247.755 274.426C248.118 273.744 248.619 273.226 249.259 272.874C249.91 272.512 250.651 272.33 251.483 272.33C252.337 272.33 253.073 272.512 253.691 272.874C254.321 273.226 254.795 273.701 255.115 274.298C255.446 274.896 255.611 275.546 255.611 276.25C255.611 276.549 255.59 276.821 255.547 277.066H248.315C248.326 277.802 248.475 278.421 248.763 278.922C249.062 279.413 249.446 279.776 249.915 280.01C250.385 280.245 250.891 280.362 251.435 280.362ZM251.483 273.242C250.918 273.242 250.401 273.36 249.931 273.594C249.462 273.829 249.078 274.192 248.779 274.682C248.491 275.162 248.337 275.765 248.315 276.49H254.491C254.534 275.776 254.417 275.173 254.139 274.682C253.862 274.192 253.489 273.829 253.019 273.594C252.55 273.36 252.038 273.242 251.483 273.242ZM262.299 272.33C263.099 272.33 263.803 272.512 264.411 272.874C265.03 273.226 265.51 273.744 265.851 274.426C266.203 275.098 266.379 275.893 266.379 276.81C266.379 277.717 266.203 278.512 265.851 279.194C265.51 279.866 265.03 280.384 264.411 280.746C263.793 281.109 263.089 281.29 262.299 281.29C261.403 281.29 260.646 281.061 260.027 280.602C259.409 280.144 258.982 279.536 258.747 278.778V285.306H257.627V272.442H258.747V274.842C258.982 274.085 259.409 273.477 260.027 273.018C260.646 272.56 261.403 272.33 262.299 272.33ZM261.995 273.322C261.377 273.322 260.817 273.466 260.315 273.754C259.825 274.042 259.441 274.453 259.163 274.986C258.886 275.509 258.747 276.117 258.747 276.81C258.747 277.504 258.886 278.117 259.163 278.65C259.441 279.173 259.825 279.578 260.315 279.866C260.817 280.154 261.377 280.298 261.995 280.298C262.987 280.298 263.777 279.989 264.363 279.37C264.95 278.741 265.243 277.888 265.243 276.81C265.243 275.733 264.95 274.885 264.363 274.266C263.777 273.637 262.987 273.322 261.995 273.322ZM272.361 280.186V281.178H271.321C270.478 281.178 269.849 280.981 269.433 280.586C269.017 280.181 268.809 279.504 268.809 278.554V273.418H267.481V272.442H268.809V270.234H269.945V272.442H272.345V273.418H269.945V278.57C269.945 279.189 270.057 279.616 270.281 279.85C270.505 280.074 270.9 280.186 271.465 280.186H272.361ZM278.014 280.362C278.803 280.362 279.464 280.165 279.998 279.77C280.531 279.376 280.851 278.842 280.958 278.17H282.142C281.982 279.098 281.539 279.85 280.814 280.426C280.088 281.002 279.171 281.29 278.062 281.29C277.23 281.29 276.488 281.114 275.838 280.762C275.198 280.4 274.696 279.882 274.334 279.21C273.971 278.528 273.79 277.728 273.79 276.81C273.79 275.893 273.971 275.098 274.334 274.426C274.696 273.744 275.198 273.226 275.838 272.874C276.488 272.512 277.23 272.33 278.062 272.33C278.915 272.33 279.651 272.512 280.27 272.874C280.899 273.226 281.374 273.701 281.694 274.298C282.024 274.896 282.19 275.546 282.19 276.25C282.19 276.549 282.168 276.821 282.126 277.066H274.894C274.904 277.802 275.054 278.421 275.342 278.922C275.64 279.413 276.024 279.776 276.494 280.01C276.963 280.245 277.47 280.362 278.014 280.362ZM278.062 273.242C277.496 273.242 276.979 273.36 276.51 273.594C276.04 273.829 275.656 274.192 275.358 274.682C275.07 275.162 274.915 275.765 274.894 276.49H281.07C281.112 275.776 280.995 275.173 280.718 274.682C280.44 274.192 280.067 273.829 279.598 273.594C279.128 273.36 278.616 273.242 278.062 273.242ZM287.886 272.33C288.771 272.33 289.523 272.56 290.142 273.018C290.771 273.477 291.198 274.085 291.422 274.842V269.338H292.542V281.178H291.422V278.778C291.198 279.536 290.771 280.144 290.142 280.602C289.523 281.061 288.771 281.29 287.886 281.29C287.096 281.29 286.387 281.109 285.758 280.746C285.139 280.384 284.654 279.866 284.302 279.194C283.96 278.512 283.79 277.717 283.79 276.81C283.79 275.893 283.96 275.098 284.302 274.426C284.654 273.744 285.139 273.226 285.758 272.874C286.376 272.512 287.086 272.33 287.886 272.33ZM288.174 273.322C287.192 273.322 286.403 273.637 285.806 274.266C285.219 274.885 284.926 275.733 284.926 276.81C284.926 277.888 285.219 278.741 285.806 279.37C286.403 279.989 287.192 280.298 288.174 280.298C288.792 280.298 289.347 280.154 289.838 279.866C290.339 279.578 290.728 279.173 291.006 278.65C291.294 278.117 291.438 277.504 291.438 276.81C291.438 276.117 291.294 275.509 291.006 274.986C290.728 274.453 290.339 274.042 289.838 273.754C289.347 273.466 288.792 273.322 288.174 273.322Z" fill="white"/>
<g filter="url(#filter0_f)">
<path d="M51.9427 87.4791L51.9427 94.9791L51.9427 87.4791ZM314.443 117.479V296.872H329.443V117.479H314.443ZM291.943 319.372H51.9428V334.372H291.943V319.372ZM29.4427 296.872V117.479H14.4427V296.872H29.4427ZM51.9427 94.9791L94.3538 94.9791V79.9791L51.9427 79.9791L51.9427 94.9791ZM249.652 94.9792H291.943V79.9792H249.652V94.9792ZM51.9428 319.372C39.5163 319.372 29.4427 309.299 29.4427 296.872H14.4427C14.4427 317.583 31.2321 334.372 51.9428 334.372V319.372ZM314.443 296.872C314.443 309.299 304.369 319.372 291.943 319.372V334.372C312.653 334.372 329.443 317.583 329.443 296.872H314.443ZM329.443 117.479C329.443 96.7685 312.653 79.9792 291.943 79.9792V94.9792C304.369 94.9792 314.443 105.053 314.443 117.479H329.443ZM29.4427 117.479C29.4427 105.053 39.5163 94.9791 51.9427 94.9791L51.9427 79.9791C31.2321 79.9791 14.4427 96.7685 14.4427 117.479H29.4427Z" fill="url(#paint0_linear)"/>
</g>
<g filter="url(#filter1_f)">
<ellipse cx="94.3078" cy="87.4791" rx="3.125" ry="3.08358" fill="#48F272"/>
</g>
<g filter="url(#filter2_f)">
<ellipse cx="249.771" cy="87.4791" rx="3.125" ry="3.08358" fill="#FD6461"/>
</g>
<g filter="url(#filter3_f)">
<path d="M51.9427 86.2456L51.9427 89.2456L51.9427 86.2456ZM318.943 116.246V295.639H324.943V116.246H318.943ZM291.943 322.639H51.9428V328.639H291.943V322.639ZM24.9427 295.639V116.246H18.9427V295.639H24.9427ZM51.9427 89.2456L94.3538 89.2456V83.2456L51.9427 83.2456L51.9427 89.2456ZM249.652 89.2456H291.943V83.2456H249.652V89.2456ZM51.9428 322.639C37.0311 322.639 24.9427 310.551 24.9427 295.639H18.9427C18.9427 313.864 33.7174 328.639 51.9428 328.639V322.639ZM318.943 295.639C318.943 310.551 306.854 322.639 291.943 322.639V328.639C310.168 328.639 324.943 313.864 324.943 295.639H318.943ZM324.943 116.246C324.943 98.0202 310.168 83.2456 291.943 83.2456V89.2456C306.854 89.2456 318.943 101.334 318.943 116.246H324.943ZM24.9427 116.246C24.9427 101.334 37.0311 89.2456 51.9427 89.2456L51.9427 83.2456C33.7173 83.2456 18.9427 98.0203 18.9427 116.246H24.9427Z" fill="url(#paint1_linear)"/>
</g>
<g filter="url(#filter4_f)">
<ellipse cx="94.3686" cy="86.2457" rx="1.875" ry="1.85015" fill="#48F272"/>
</g>
<g filter="url(#filter5_f)">
<ellipse cx="249.643" cy="86.2457" rx="1.875" ry="1.85015" fill="#FD6461"/>
</g>
<path d="M51.9427 86.2457V87.2457V86.2457ZM320.943 116.246V295.639H322.943V116.246H320.943ZM291.943 324.639H51.9428V326.639H291.943V324.639ZM22.9427 295.639V116.246H20.9427V295.639H22.9427ZM51.9427 87.2457L94.3538 87.2457V85.2457L51.9427 85.2457V87.2457ZM249.652 87.2458H291.943V85.2458H249.652V87.2458ZM51.9428 324.639C35.9265 324.639 22.9427 311.655 22.9427 295.639H20.9427C20.9427 312.76 34.8219 326.639 51.9428 326.639V324.639ZM320.943 295.639C320.943 311.655 307.959 324.639 291.943 324.639V326.639C309.064 326.639 322.943 312.76 322.943 295.639H320.943ZM322.943 116.246C322.943 99.1249 309.064 85.2458 291.943 85.2458V87.2458C307.959 87.2458 320.943 100.229 320.943 116.246H322.943ZM22.9427 116.246C22.9427 100.23 35.9265 87.2457 51.9427 87.2457V85.2457C34.8219 85.2457 20.9427 99.1249 20.9427 116.246H22.9427Z" fill="white"/>
<circle cx="94.3686" cy="86.2457" r="1" fill="white"/>
<ellipse cx="249.771" cy="86.2458" rx="1" ry="0.986747" fill="white"/>
<defs>
<filter id="filter0_f" x="0.442749" y="65.9791" width="343" height="282.393" filterUnits="userSpaceOnUse" color-interpolation-filters="sRGB">
<feFlood flood-opacity="0" result="BackgroundImageFix"/>
<feBlend mode="normal" in="SourceGraphic" in2="BackgroundImageFix" result="shape"/>
<feGaussianBlur stdDeviation="7" result="effect1_foregroundBlur"/>
</filter>
<filter id="filter1_f" x="80.1828" y="73.3955" width="28.25" height="28.1672" filterUnits="userSpaceOnUse" color-interpolation-filters="sRGB">
<feFlood flood-opacity="0" result="BackgroundImageFix"/>
<feBlend mode="normal" in="SourceGraphic" in2="BackgroundImageFix" result="shape"/>
<feGaussianBlur stdDeviation="5.5" result="effect1_foregroundBlur"/>
</filter>
<filter id="filter2_f" x="235.646" y="73.3955" width="28.25" height="28.1672" filterUnits="userSpaceOnUse" color-interpolation-filters="sRGB">
<feFlood flood-opacity="0" result="BackgroundImageFix"/>
<feBlend mode="normal" in="SourceGraphic" in2="BackgroundImageFix" result="shape"/>
<feGaussianBlur stdDeviation="5.5" result="effect1_foregroundBlur"/>
</filter>
<filter id="filter3_f" x="12.9427" y="77.2456" width="318" height="257.393" filterUnits="userSpaceOnUse" color-interpolation-filters="sRGB">
<feFlood flood-opacity="0" result="BackgroundImageFix"/>
<feBlend mode="normal" in="SourceGraphic" in2="BackgroundImageFix" result="shape"/>
<feGaussianBlur stdDeviation="3" result="effect1_foregroundBlur"/>
</filter>
<filter id="filter4_f" x="88.4936" y="80.3955" width="11.75" height="11.7003" filterUnits="userSpaceOnUse" color-interpolation-filters="sRGB">
<feFlood flood-opacity="0" result="BackgroundImageFix"/>
<feBlend mode="normal" in="SourceGraphic" in2="BackgroundImageFix" result="shape"/>
<feGaussianBlur stdDeviation="2" result="effect1_foregroundBlur"/>
</filter>
<filter id="filter5_f" x="243.768" y="80.3955" width="11.75" height="11.7003" filterUnits="userSpaceOnUse" color-interpolation-filters="sRGB">
<feFlood flood-opacity="0" result="BackgroundImageFix"/>
<feBlend mode="normal" in="SourceGraphic" in2="BackgroundImageFix" result="shape"/>
<feGaussianBlur stdDeviation="2" result="effect1_foregroundBlur"/>
</filter>
<linearGradient id="paint0_linear" x1="286.954" y1="203.474" x2="50.5797" y2="203.713" gradientUnits="userSpaceOnUse">
<stop stop-color="#FF1640"/>
<stop offset="0.315399" stop-color="#FABA33"/>
<stop offset="0.573227" stop-color="#E9E031"/>
<stop offset="0.826995" stop-color="#45F273"/>
<stop offset="1" stop-color="#30FFE9"/>
</linearGradient>
<linearGradient id="paint1_linear" x1="286.954" y1="202.24" x2="50.5797" y2="202.479" gradientUnits="userSpaceOnUse">
<stop stop-color="#FF1640"/>
<stop offset="0.315399" stop-color="#FABA33"/>
<stop offset="0.573227" stop-color="#E9E031"/>
<stop offset="0.826995" stop-color="#45F273"/>
<stop offset="1" stop-color="#30FFE9"/>
</linearGradient>
</defs>
</svg>
