<svg width="344" height="349" viewBox="0 0 344 349" fill="none" xmlns="http://www.w3.org/2000/svg">
<path fill-rule="evenodd" clip-rule="evenodd" d="M159.509 89.4468V109.203C159.509 111.491 157.654 113.347 155.365 113.347C153.076 113.347 151.221 111.491 151.221 109.203V89.4468C151.221 87.1581 153.076 85.3027 155.365 85.3027C157.654 85.3027 159.509 87.1581 159.509 89.4468ZM149.221 89.4468C149.221 86.0535 151.972 83.3027 155.365 83.3027C158.759 83.3027 161.509 86.0535 161.509 89.4468V109.203C161.509 112.596 158.759 115.347 155.365 115.347C151.972 115.347 149.221 112.596 149.221 109.203V89.4468ZM176.087 109.203V89.4468C176.087 87.1581 174.232 85.3027 171.943 85.3027C169.654 85.3027 167.799 87.1581 167.799 89.4468V109.203C167.799 111.491 169.654 113.347 171.943 113.347C174.232 113.347 176.087 111.491 176.087 109.203ZM171.943 83.3027C168.549 83.3027 165.799 86.0535 165.799 89.4468V109.203C165.799 112.596 168.549 115.347 171.943 115.347C175.336 115.347 178.087 112.596 178.087 109.203V89.4468C178.087 86.0535 175.336 83.3027 171.943 83.3027ZM192.664 89.4468V109.203C192.664 111.491 190.809 113.347 188.52 113.347C186.231 113.347 184.376 111.491 184.376 109.203V89.4468C184.376 87.1581 186.231 85.3027 188.52 85.3027C190.809 85.3027 192.664 87.1581 192.664 89.4468ZM182.376 89.4468C182.376 86.0535 185.127 83.3027 188.52 83.3027C191.913 83.3027 194.664 86.0535 194.664 89.4468V109.203C194.664 112.596 191.913 115.347 188.52 115.347C185.127 115.347 182.376 112.596 182.376 109.203V89.4468ZM218.598 67.3528H125.287C123.631 67.3528 122.287 68.6959 122.287 70.3527V76.3259C122.287 77.9827 123.631 79.3259 125.287 79.3259H218.598C220.255 79.3259 221.598 77.9827 221.598 76.3259V70.3528C221.598 68.6959 220.255 67.3528 218.598 67.3528ZM125.287 65.3527C122.526 65.3527 120.287 67.5913 120.287 70.3527V76.3259C120.287 79.0873 122.526 81.3259 125.287 81.3259H127.75V81.3263L138.181 118.54C138.423 119.403 139.21 120 140.106 120H203.708C204.603 120 205.389 119.405 205.632 118.543L216.131 81.3263L216.132 81.3259H218.598C221.359 81.3259 223.598 79.0873 223.598 76.3259V70.3528C223.598 67.5913 221.359 65.3527 218.598 65.3527H125.287ZM140.106 118L129.828 81.3263H214.053L203.708 118H140.106ZM144.525 46.7912H135.481L131.613 58.0921H155.183L151.299 46.8117H146.663H144.517L144.525 46.7912ZM145.302 44.7912H135.481C134.626 44.7912 133.865 45.3347 133.588 46.1436L129.721 57.4445C129.277 58.7425 130.241 60.0921 131.613 60.0921H155.871H157.316H157.986H159.429H184.372H185.899H186.487H188.013H212.267C213.64 60.0921 214.605 58.7396 214.158 57.4411L210.267 46.1401C209.989 45.333 209.23 44.7912 208.376 44.7912H198.578L194.851 35.2553C194.551 34.4883 193.812 33.9835 192.988 33.9835H185.361L185.316 33.8684L181.568 24.1637C181.271 23.3927 180.529 22.8843 179.703 22.8843H164.679C163.851 22.8843 163.109 23.3945 162.812 24.1675L159.088 33.8684L159.044 33.9835H150.87C150.045 33.9835 149.305 34.4901 149.006 35.2591L145.302 44.7912ZM168.008 35.8684H175.852L172.385 44.7912H171.496L168.008 35.8684ZM197.221 46.8117H192.558L188.697 58.0921H212.267L208.376 46.7912H199.36L199.368 46.8117H197.221ZM192.565 44.7912H196.431L192.988 35.9835H177.953L174.531 44.7912H179.793C179.889 44.7912 179.985 44.7981 180.079 44.8117H192.279C192.372 44.7981 192.468 44.7912 192.565 44.7912ZM190.444 46.8117H181.915L185.799 58.0921L186.192 59.2356L186.584 58.0921L190.444 46.8117ZM183.683 58.0921L179.8 46.8117H173.746H172.286H171.6H170.138H163.974L160.114 58.0921H183.683ZM151.578 44.8117C151.484 44.7981 151.389 44.7912 151.292 44.7912H147.448L150.87 35.9835H165.905L169.348 44.7912H163.981C163.884 44.7912 163.789 44.7981 163.695 44.8117H151.578ZM153.414 46.8117L157.298 58.0921L157.65 59.115L158 58.0921L161.86 46.8117H153.414ZM164.679 24.8843H179.703L183.172 33.8684H161.231L164.679 24.8843ZM140.178 18.4991C140.574 18.1146 141.217 18.1146 141.613 18.4991L148.7 25.3726C149.097 25.7571 149.097 26.3805 148.7 26.765C148.304 27.1495 147.661 27.1495 147.265 26.765L140.178 19.8916C139.781 19.5071 139.781 18.8836 140.178 18.4991ZM155.004 7.91466C154.722 7.44009 154.102 7.27412 153.62 7.54396C153.138 7.81379 152.977 8.41725 153.259 8.89181L158.263 17.2969C158.545 17.7714 159.165 17.9374 159.647 17.6676C160.128 17.3977 160.29 16.7943 160.008 16.3197L155.004 7.91466ZM172.453 3.73242C173.005 3.73242 173.453 4.18014 173.453 4.73242V14.4222C173.453 14.9744 173.005 15.4222 172.453 15.4222C171.901 15.4222 171.453 14.9744 171.453 14.4222V4.73242C171.453 4.18014 171.901 3.73242 172.453 3.73242ZM192.069 9.86897C192.351 9.39441 192.189 8.79095 191.708 8.52111C191.226 8.25128 190.606 8.41725 190.324 8.89181L185.32 17.2969C185.038 17.7714 185.199 18.3749 185.681 18.6447C186.163 18.9146 186.783 18.7486 187.065 18.274L192.069 9.86897ZM204.945 18.8524C205.342 19.2369 205.342 19.8603 204.945 20.2448L197.858 27.1183C197.462 27.5028 196.819 27.5028 196.423 27.1183C196.026 26.7338 196.026 26.1104 196.423 25.7258L203.51 18.8524C203.906 18.4679 204.549 18.4679 204.945 18.8524ZM137.69 17.4222C138.242 17.4222 138.69 16.9744 138.69 16.4222C138.69 15.8699 138.242 15.4222 137.69 15.4222C137.138 15.4222 136.69 15.8699 136.69 16.4222C136.69 16.9744 137.138 17.4222 137.69 17.4222ZM208.073 16.4221C208.073 16.9744 207.625 17.4221 207.073 17.4221C206.521 17.4221 206.073 16.9744 206.073 16.4221C206.073 15.8699 206.521 15.4221 207.073 15.4221C207.625 15.4221 208.073 15.8699 208.073 16.4221Z" fill="white"/>
<path d="M70.7148 159.982V170.038C70.7148 171.542 71.0428 172.662 71.6988 173.398C72.3708 174.134 73.3068 174.502 74.5068 174.502C75.6908 174.502 76.6108 174.134 77.2668 173.398C77.9388 172.662 78.2748 171.542 78.2748 170.038V159.982H81.0109V170.038C81.0109 172.358 80.4108 174.118 79.2108 175.318C78.0108 176.502 76.4268 177.094 74.4588 177.094C72.5068 177.094 70.9388 176.502 69.7548 175.318C68.5708 174.118 67.9788 172.358 67.9788 170.038V159.982H70.7148ZM91.5924 163.486C93.1284 163.486 94.3604 163.982 95.2884 164.974C96.2164 165.966 96.6804 167.382 96.6804 169.222V176.926H93.9444V169.51C93.9444 168.326 93.6404 167.414 93.0324 166.774C92.4244 166.118 91.5924 165.79 90.5364 165.79C89.4484 165.79 88.5764 166.142 87.9204 166.846C87.2644 167.534 86.9364 168.55 86.9364 169.894V176.926H84.2004V163.702H86.9364V166.606C87.2884 165.614 87.8804 164.846 88.7124 164.302C89.5444 163.758 90.5044 163.486 91.5924 163.486ZM105.184 163.534C106.384 163.534 107.408 163.83 108.256 164.422C109.104 165.014 109.696 165.798 110.032 166.774V159.166H112.792V176.926H110.032V173.854C109.696 174.83 109.104 175.614 108.256 176.206C107.408 176.798 106.384 177.094 105.184 177.094C104.032 177.094 103 176.822 102.088 176.278C101.192 175.734 100.488 174.95 99.9761 173.926C99.4641 172.902 99.2081 171.694 99.2081 170.302C99.2081 168.926 99.4641 167.726 99.9761 166.702C100.488 165.678 101.192 164.894 102.088 164.35C103 163.806 104.032 163.534 105.184 163.534ZM106.024 165.934C104.808 165.934 103.832 166.326 103.096 167.11C102.376 167.878 102.016 168.942 102.016 170.302C102.016 171.662 102.376 172.734 103.096 173.518C103.832 174.286 104.808 174.67 106.024 174.67C106.792 174.67 107.48 174.494 108.088 174.142C108.696 173.774 109.176 173.262 109.528 172.606C109.88 171.95 110.056 171.182 110.056 170.302C110.056 169.438 109.88 168.678 109.528 168.022C109.176 167.35 108.696 166.838 108.088 166.486C107.48 166.118 106.792 165.934 106.024 165.934ZM128.363 169.678C128.363 170.126 128.331 170.518 128.267 170.854H118.091C118.139 172.214 118.515 173.222 119.219 173.878C119.923 174.534 120.795 174.862 121.835 174.862C122.747 174.862 123.515 174.63 124.139 174.166C124.779 173.702 125.171 173.086 125.315 172.318H128.243C128.067 173.246 127.699 174.07 127.139 174.79C126.579 175.51 125.851 176.078 124.955 176.494C124.059 176.894 123.059 177.094 121.955 177.094C120.675 177.094 119.539 176.822 118.547 176.278C117.571 175.734 116.803 174.95 116.243 173.926C115.683 172.902 115.403 171.694 115.403 170.302C115.403 168.926 115.683 167.726 116.243 166.702C116.803 165.678 117.571 164.894 118.547 164.35C119.539 163.806 120.675 163.534 121.955 163.534C123.251 163.534 124.379 163.806 125.339 164.35C126.315 164.878 127.059 165.614 127.571 166.558C128.099 167.486 128.363 168.526 128.363 169.678ZM125.603 169.606C125.635 168.742 125.483 168.022 125.147 167.446C124.827 166.854 124.379 166.422 123.803 166.15C123.243 165.862 122.627 165.718 121.955 165.718C120.883 165.718 119.987 166.046 119.267 166.702C118.547 167.358 118.155 168.326 118.091 169.606H125.603ZM133.741 166.294C134.189 165.43 134.829 164.75 135.661 164.254C136.493 163.742 137.453 163.486 138.541 163.486V166.462H137.725C136.525 166.462 135.557 166.758 134.821 167.35C134.101 167.926 133.741 168.886 133.741 170.23V176.926H131.005V163.702H133.741V166.294ZM143.327 159.166V176.926H140.591V159.166H143.327ZM148.198 163.702L152.158 173.422L155.83 163.702H158.878L150.886 183.214H147.838L150.694 176.614L145.126 163.702H148.198ZM160.293 159.862C160.293 159.398 160.453 159.014 160.773 158.71C161.093 158.406 161.517 158.254 162.045 158.254C162.573 158.254 162.997 158.406 163.317 158.71C163.653 159.014 163.821 159.398 163.821 159.862C163.821 160.326 163.653 160.702 163.317 160.99C162.997 161.278 162.573 161.422 162.045 161.422C161.517 161.422 161.093 161.278 160.773 160.99C160.453 160.702 160.293 160.326 160.293 159.862ZM163.413 163.702V176.926H160.677V163.702H163.413ZM174.116 163.486C175.652 163.486 176.884 163.982 177.812 164.974C178.74 165.966 179.204 167.382 179.204 169.222V176.926H176.468V169.51C176.468 168.326 176.164 167.414 175.556 166.774C174.948 166.118 174.116 165.79 173.06 165.79C171.972 165.79 171.1 166.142 170.444 166.846C169.788 167.534 169.46 168.55 169.46 169.894V176.926H166.724V163.702H169.46V166.606C169.812 165.614 170.404 164.846 171.236 164.302C172.068 163.758 173.028 163.486 174.116 163.486ZM187.707 163.534C188.907 163.534 189.931 163.83 190.779 164.422C191.627 165.014 192.227 165.798 192.579 166.774V163.702H195.315V177.07C195.315 178.302 195.059 179.39 194.547 180.334C194.051 181.294 193.331 182.046 192.387 182.59C191.443 183.134 190.323 183.406 189.027 183.406C187.171 183.406 185.667 182.966 184.515 182.086C183.379 181.206 182.667 180.014 182.379 178.51H185.091C185.315 179.294 185.747 179.902 186.387 180.334C187.027 180.782 187.843 181.006 188.835 181.006C189.923 181.006 190.819 180.67 191.523 179.998C192.227 179.326 192.579 178.35 192.579 177.07V173.854C192.227 174.83 191.627 175.614 190.779 176.206C189.931 176.798 188.907 177.094 187.707 177.094C186.555 177.094 185.523 176.822 184.611 176.278C183.715 175.734 183.011 174.95 182.499 173.926C181.987 172.902 181.731 171.694 181.731 170.302C181.731 168.926 181.987 167.726 182.499 166.702C183.011 165.678 183.715 164.894 184.611 164.35C185.523 163.806 186.555 163.534 187.707 163.534ZM188.547 165.934C187.331 165.934 186.355 166.326 185.619 167.11C184.899 167.878 184.539 168.942 184.539 170.302C184.539 171.662 184.899 172.734 185.619 173.518C186.355 174.286 187.331 174.67 188.547 174.67C189.315 174.67 190.003 174.494 190.611 174.142C191.219 173.774 191.699 173.262 192.051 172.606C192.403 171.95 192.579 171.182 192.579 170.302C192.579 169.438 192.403 168.678 192.051 168.022C191.699 167.35 191.219 166.838 190.611 166.486C190.003 166.118 189.315 165.934 188.547 165.934ZM209.648 174.094L213.392 163.702H216.32L211.28 176.926H207.968L202.928 163.702H205.856L209.648 174.094ZM223.637 163.534C224.837 163.534 225.861 163.83 226.709 164.422C227.557 165.014 228.157 165.798 228.509 166.774V163.702H231.245V176.926H228.509V173.854C228.157 174.83 227.557 175.614 226.709 176.206C225.861 176.798 224.837 177.094 223.637 177.094C222.485 177.094 221.453 176.822 220.541 176.278C219.645 175.734 218.941 174.95 218.429 173.926C217.917 172.902 217.661 171.694 217.661 170.302C217.661 168.926 217.917 167.726 218.429 166.702C218.941 165.678 219.645 164.894 220.541 164.35C221.453 163.806 222.485 163.534 223.637 163.534ZM224.477 165.934C223.261 165.934 222.285 166.326 221.549 167.11C220.829 167.878 220.469 168.942 220.469 170.302C220.469 171.662 220.829 172.734 221.549 173.518C222.285 174.286 223.261 174.67 224.477 174.67C225.245 174.67 225.933 174.494 226.541 174.142C227.149 173.774 227.629 173.262 227.981 172.606C228.333 171.95 228.509 171.182 228.509 170.302C228.509 169.438 228.333 168.678 227.981 168.022C227.629 167.35 227.149 166.838 226.541 166.486C225.933 166.118 225.245 165.934 224.477 165.934ZM237.264 159.166V176.926H234.528V159.166H237.264ZM252.767 163.702V176.926H250.007V174.046C249.671 175.022 249.087 175.782 248.255 176.326C247.423 176.854 246.455 177.118 245.351 177.118C243.815 177.118 242.583 176.622 241.655 175.63C240.727 174.638 240.263 173.222 240.263 171.382V163.702H242.999V171.094C242.999 172.294 243.303 173.222 243.911 173.878C244.519 174.518 245.351 174.838 246.407 174.838C247.495 174.838 248.367 174.486 249.023 173.782C249.679 173.078 250.007 172.054 250.007 170.71V163.702H252.767ZM268.332 169.678C268.332 170.126 268.3 170.518 268.236 170.854H258.06C258.108 172.214 258.484 173.222 259.188 173.878C259.892 174.534 260.764 174.862 261.804 174.862C262.716 174.862 263.484 174.63 264.108 174.166C264.748 173.702 265.14 173.086 265.284 172.318H268.212C268.036 173.246 267.668 174.07 267.108 174.79C266.548 175.51 265.82 176.078 264.924 176.494C264.028 176.894 263.028 177.094 261.924 177.094C260.644 177.094 259.508 176.822 258.516 176.278C257.54 175.734 256.772 174.95 256.212 173.926C255.652 172.902 255.372 171.694 255.372 170.302C255.372 168.926 255.652 167.726 256.212 166.702C256.772 165.678 257.54 164.894 258.516 164.35C259.508 163.806 260.644 163.534 261.924 163.534C263.22 163.534 264.348 163.806 265.308 164.35C266.284 164.878 267.028 165.614 267.54 166.558C268.068 167.486 268.332 168.526 268.332 169.678ZM265.572 169.606C265.604 168.742 265.452 168.022 265.116 167.446C264.796 166.854 264.348 166.422 263.772 166.15C263.212 165.862 262.596 165.718 261.924 165.718C260.852 165.718 259.956 166.046 259.236 166.702C258.516 167.358 258.124 168.326 258.06 169.606H265.572Z" fill="white"/>
<g filter="url(#filter0_f)">
<path d="M51.9427 87.4791V94.9791V87.4791ZM314.443 117.479V296.872H329.443V117.479H314.443ZM291.943 319.372H51.9428V334.372H291.943V319.372ZM29.4427 296.872V117.479H14.4427V296.872H29.4427ZM51.9427 94.9791H94.3538V79.9791H51.9427V94.9791ZM249.652 94.9792H291.943V79.9792H249.652V94.9792ZM51.9428 319.372C39.5163 319.372 29.4427 309.299 29.4427 296.872H14.4427C14.4427 317.583 31.2321 334.372 51.9428 334.372V319.372ZM314.443 296.872C314.443 309.299 304.369 319.372 291.943 319.372V334.372C312.653 334.372 329.443 317.583 329.443 296.872H314.443ZM329.443 117.479C329.443 96.7685 312.653 79.9792 291.943 79.9792V94.9792C304.369 94.9792 314.443 105.053 314.443 117.479H329.443ZM29.4427 117.479C29.4427 105.053 39.5163 94.9791 51.9427 94.9791V79.9791C31.2321 79.9791 14.4427 96.7685 14.4427 117.479H29.4427Z" fill="url(#paint0_linear)"/>
</g>
<g filter="url(#filter1_f)">
<path d="M94.3079 90.5627C96.0338 90.5627 97.4329 89.1821 97.4329 87.4791C97.4329 85.7761 96.0338 84.3955 94.3079 84.3955C92.582 84.3955 91.1829 85.7761 91.1829 87.4791C91.1829 89.1821 92.582 90.5627 94.3079 90.5627Z" fill="#48F272"/>
</g>
<g filter="url(#filter2_f)">
<path d="M249.771 90.5627C251.497 90.5627 252.896 89.1821 252.896 87.4791C252.896 85.7761 251.497 84.3955 249.771 84.3955C248.045 84.3955 246.646 85.7761 246.646 87.4791C246.646 89.1821 248.045 90.5627 249.771 90.5627Z" fill="#FD6461"/>
</g>
<g filter="url(#filter3_f)">
<path d="M51.9427 86.2456V89.2456V86.2456ZM318.943 116.246V295.639H324.943V116.246H318.943ZM291.943 322.639H51.9428V328.639H291.943V322.639ZM24.9427 295.639V116.246H18.9427V295.639H24.9427ZM51.9427 89.2456H94.3539V83.2456H51.9427V89.2456ZM249.652 89.2456H291.943V83.2456H249.652V89.2456ZM51.9428 322.639C37.0311 322.639 24.9427 310.551 24.9427 295.639H18.9427C18.9427 313.864 33.7174 328.639 51.9428 328.639V322.639ZM318.943 295.639C318.943 310.551 306.854 322.639 291.943 322.639V328.639C310.168 328.639 324.943 313.864 324.943 295.639H318.943ZM324.943 116.246C324.943 98.0202 310.168 83.2456 291.943 83.2456V89.2456C306.854 89.2456 318.943 101.334 318.943 116.246H324.943ZM24.9427 116.246C24.9427 101.334 37.0311 89.2456 51.9427 89.2456V83.2456C33.7173 83.2456 18.9427 98.0203 18.9427 116.246H24.9427Z" fill="url(#paint1_linear)"/>
</g>
<g filter="url(#filter4_f)">
<path d="M94.3687 88.0958C95.4042 88.0958 96.2437 87.2675 96.2437 86.2457C96.2437 85.2238 95.4042 84.3955 94.3687 84.3955C93.3331 84.3955 92.4937 85.2238 92.4937 86.2457C92.4937 87.2675 93.3331 88.0958 94.3687 88.0958Z" fill="#48F272"/>
</g>
<g filter="url(#filter5_f)">
<path d="M249.643 88.0958C250.679 88.0958 251.518 87.2675 251.518 86.2457C251.518 85.2238 250.679 84.3955 249.643 84.3955C248.608 84.3955 247.768 85.2238 247.768 86.2457C247.768 87.2675 248.608 88.0958 249.643 88.0958Z" fill="#FD6461"/>
</g>
<path d="M51.9427 86.2457V87.2457V86.2457ZM320.943 116.246V295.639H322.943V116.246H320.943ZM291.943 324.639H51.9428V326.639H291.943V324.639ZM22.9427 295.639V116.246H20.9427V295.639H22.9427ZM51.9427 87.2457H94.3539V85.2457H51.9427V87.2457ZM249.652 87.2458H291.943V85.2458H249.652V87.2458ZM51.9428 324.639C35.9265 324.639 22.9427 311.655 22.9427 295.639H20.9427C20.9427 312.76 34.8219 326.639 51.9428 326.639V324.639ZM320.943 295.639C320.943 311.655 307.959 324.639 291.943 324.639V326.639C309.064 326.639 322.943 312.76 322.943 295.639H320.943ZM322.943 116.246C322.943 99.1249 309.064 85.2458 291.943 85.2458V87.2458C307.959 87.2458 320.943 100.229 320.943 116.246H322.943ZM22.9427 116.246C22.9427 100.23 35.9265 87.2457 51.9427 87.2457V85.2457C34.8219 85.2457 20.9427 99.1249 20.9427 116.246H22.9427Z" fill="white"/>
<path d="M94.3687 87.2457C94.9209 87.2457 95.3687 86.798 95.3687 86.2457C95.3687 85.6934 94.9209 85.2457 94.3687 85.2457C93.8164 85.2457 93.3687 85.6934 93.3687 86.2457C93.3687 86.798 93.8164 87.2457 94.3687 87.2457Z" fill="white"/>
<path d="M249.771 87.2325C250.323 87.2325 250.771 86.7907 250.771 86.2458C250.771 85.7008 250.323 85.259 249.771 85.259C249.219 85.259 248.771 85.7008 248.771 86.2458C248.771 86.7907 249.219 87.2325 249.771 87.2325Z" fill="white"/>
<path d="M79.5191 198.117V199.103H76.2211V210H75.0311V199.103H71.7161V198.117H79.5191ZM85.8181 200.548C86.5208 200.548 87.1498 200.695 87.7051 200.99C88.2718 201.285 88.7138 201.738 89.0311 202.35C89.3598 202.951 89.5241 203.687 89.5241 204.56V210H88.3511V204.696C88.3511 203.687 88.0961 202.917 87.5861 202.384C87.0874 201.851 86.4018 201.585 85.5291 201.585C84.6338 201.585 83.9198 201.868 83.3871 202.435C82.8544 203.002 82.5881 203.835 82.5881 204.934V210H81.3981V197.42H82.5881V202.299C82.8828 201.744 83.3134 201.313 83.8801 201.007C84.4581 200.701 85.1041 200.548 85.8181 200.548ZM100.554 204.883C100.554 205.291 100.543 205.603 100.52 205.818H92.8189C92.8529 206.521 93.0229 207.121 93.3289 207.62C93.6349 208.119 94.0372 208.498 94.5359 208.759C95.0346 209.008 95.5786 209.133 96.1679 209.133C96.9386 209.133 97.5846 208.946 98.1059 208.572C98.6386 208.198 98.9899 207.694 99.1599 207.059H100.418C100.191 207.966 99.7039 208.708 98.9559 209.286C98.2192 209.853 97.2899 210.136 96.1679 210.136C95.2952 210.136 94.5132 209.943 93.8219 209.558C93.1306 209.161 92.5866 208.606 92.1899 207.892C91.8046 207.167 91.6119 206.322 91.6119 205.359C91.6119 204.396 91.8046 203.551 92.1899 202.826C92.5752 202.101 93.1136 201.545 93.8049 201.16C94.4962 200.775 95.2839 200.582 96.1679 200.582C97.0519 200.582 97.8226 200.775 98.4799 201.16C99.1486 201.545 99.6586 202.067 100.01 202.724C100.373 203.37 100.554 204.09 100.554 204.883ZM99.3469 204.849C99.3582 204.158 99.2166 203.568 98.9219 203.081C98.6386 202.594 98.2476 202.225 97.7489 201.976C97.2502 201.727 96.7062 201.602 96.1169 201.602C95.2329 201.602 94.4792 201.885 93.8559 202.452C93.2326 203.019 92.8869 203.818 92.8189 204.849H99.3469ZM111 210.119C110.218 210.119 109.527 209.983 108.926 209.711C108.337 209.439 107.872 209.059 107.532 208.572C107.192 208.085 107.011 207.541 106.988 206.94H108.246C108.303 207.518 108.558 208.028 109.011 208.47C109.464 208.901 110.127 209.116 111 209.116C111.805 209.116 112.439 208.912 112.904 208.504C113.38 208.085 113.618 207.558 113.618 206.923C113.618 206.413 113.488 206.005 113.227 205.699C112.966 205.382 112.643 205.149 112.258 205.002C111.873 204.843 111.34 204.673 110.66 204.492C109.867 204.277 109.238 204.067 108.773 203.863C108.308 203.659 107.912 203.342 107.583 202.911C107.254 202.48 107.09 201.897 107.09 201.16C107.09 200.548 107.249 200.004 107.566 199.528C107.883 199.041 108.331 198.661 108.909 198.389C109.487 198.117 110.15 197.981 110.898 197.981C111.997 197.981 112.881 198.253 113.55 198.797C114.23 199.33 114.621 200.021 114.723 200.871H113.431C113.352 200.384 113.085 199.953 112.632 199.579C112.179 199.194 111.567 199.001 110.796 199.001C110.082 199.001 109.487 199.194 109.011 199.579C108.535 199.953 108.297 200.469 108.297 201.126C108.297 201.625 108.427 202.027 108.688 202.333C108.949 202.639 109.272 202.871 109.657 203.03C110.054 203.189 110.586 203.359 111.255 203.54C112.026 203.755 112.649 203.971 113.125 204.186C113.601 204.39 114.003 204.707 114.332 205.138C114.661 205.569 114.825 206.147 114.825 206.872C114.825 207.427 114.678 207.954 114.383 208.453C114.088 208.952 113.652 209.354 113.074 209.66C112.496 209.966 111.805 210.119 111 210.119ZM122.463 210.119C121.363 210.119 120.366 209.864 119.471 209.354C118.575 208.833 117.867 208.113 117.346 207.195C116.836 206.266 116.581 205.217 116.581 204.05C116.581 202.883 116.836 201.84 117.346 200.922C117.867 199.993 118.575 199.273 119.471 198.763C120.366 198.242 121.363 197.981 122.463 197.981C123.573 197.981 124.576 198.242 125.472 198.763C126.367 199.273 127.07 199.993 127.58 200.922C128.09 201.84 128.345 202.883 128.345 204.05C128.345 205.217 128.09 206.266 127.58 207.195C127.07 208.113 126.367 208.833 125.472 209.354C124.576 209.864 123.573 210.119 122.463 210.119ZM122.463 209.082C123.347 209.082 124.14 208.878 124.843 208.47C125.545 208.062 126.101 207.478 126.509 206.719C126.917 205.948 127.121 205.059 127.121 204.05C127.121 203.041 126.917 202.157 126.509 201.398C126.101 200.639 125.545 200.055 124.843 199.647C124.14 199.239 123.347 199.035 122.463 199.035C121.579 199.035 120.785 199.239 120.083 199.647C119.38 200.055 118.825 200.639 118.417 201.398C118.009 202.157 117.805 203.041 117.805 204.05C117.805 205.059 118.009 205.948 118.417 206.719C118.825 207.478 119.38 208.062 120.083 208.47C120.785 208.878 121.579 209.082 122.463 209.082ZM139.94 198.117L135.435 210H134.075L129.57 198.117H130.862L134.755 208.708L138.682 198.117H139.94ZM147.94 201.721V207.484C147.94 208.051 148.048 208.442 148.263 208.657C148.479 208.872 148.858 208.98 149.402 208.98H150.49V210H149.215C148.377 210 147.753 209.807 147.345 209.422C146.937 209.025 146.733 208.379 146.733 207.484V201.721H145.441V200.718H146.733V198.389H147.94V200.718H150.49V201.721H147.94ZM156.516 210.136C155.643 210.136 154.855 209.943 154.153 209.558C153.461 209.161 152.912 208.606 152.504 207.892C152.107 207.167 151.909 206.322 151.909 205.359C151.909 204.396 152.113 203.557 152.521 202.843C152.929 202.118 153.484 201.562 154.187 201.177C154.889 200.78 155.677 200.582 156.55 200.582C157.422 200.582 158.21 200.78 158.913 201.177C159.627 201.562 160.182 202.118 160.579 202.843C160.987 203.557 161.191 204.396 161.191 205.359C161.191 206.311 160.987 207.15 160.579 207.875C160.171 208.6 159.61 209.161 158.896 209.558C158.182 209.943 157.388 210.136 156.516 210.136ZM156.516 209.099C157.128 209.099 157.694 208.963 158.216 208.691C158.737 208.408 159.156 207.988 159.474 207.433C159.802 206.866 159.967 206.175 159.967 205.359C159.967 204.543 159.808 203.857 159.491 203.302C159.173 202.735 158.754 202.316 158.233 202.044C157.711 201.761 157.145 201.619 156.533 201.619C155.921 201.619 155.354 201.761 154.833 202.044C154.311 202.316 153.892 202.735 153.575 203.302C153.269 203.857 153.116 204.543 153.116 205.359C153.116 206.175 153.269 206.866 153.575 207.433C153.892 207.988 154.306 208.408 154.816 208.691C155.337 208.963 155.904 209.099 156.516 209.099ZM168.375 210L164.55 205.835V210H163.36V197.42H164.55V204.866L168.29 200.718H169.956L165.553 205.342L169.99 210H168.375ZM179.926 204.883C179.926 205.291 179.915 205.603 179.892 205.818H172.191C172.225 206.521 172.395 207.121 172.701 207.62C173.007 208.119 173.409 208.498 173.908 208.759C174.407 209.008 174.951 209.133 175.54 209.133C176.311 209.133 176.957 208.946 177.478 208.572C178.011 208.198 178.362 207.694 178.532 207.059H179.79C179.563 207.966 179.076 208.708 178.328 209.286C177.591 209.853 176.662 210.136 175.54 210.136C174.667 210.136 173.885 209.943 173.194 209.558C172.503 209.161 171.959 208.606 171.562 207.892C171.177 207.167 170.984 206.322 170.984 205.359C170.984 204.396 171.177 203.551 171.562 202.826C171.947 202.101 172.486 201.545 173.177 201.16C173.868 200.775 174.656 200.582 175.54 200.582C176.424 200.582 177.195 200.775 177.852 201.16C178.521 201.545 179.031 202.067 179.382 202.724C179.745 203.37 179.926 204.09 179.926 204.883ZM178.719 204.849C178.73 204.158 178.589 203.568 178.294 203.081C178.011 202.594 177.62 202.225 177.121 201.976C176.622 201.727 176.078 201.602 175.489 201.602C174.605 201.602 173.851 201.885 173.228 202.452C172.605 203.019 172.259 203.818 172.191 204.849H178.719ZM186.455 200.548C187.566 200.548 188.472 200.894 189.175 201.585C189.878 202.265 190.229 203.257 190.229 204.56V210H189.056V204.696C189.056 203.687 188.801 202.917 188.291 202.384C187.792 201.851 187.107 201.585 186.234 201.585C185.339 201.585 184.625 201.868 184.092 202.435C183.559 203.002 183.293 203.835 183.293 204.934V210H182.103V200.718H183.293V202.299C183.588 201.732 184.013 201.302 184.568 201.007C185.123 200.701 185.752 200.548 186.455 200.548ZM198.699 202.775C199.005 202.129 199.475 201.602 200.11 201.194C200.756 200.786 201.515 200.582 202.388 200.582C203.238 200.582 203.997 200.78 204.666 201.177C205.335 201.562 205.856 202.118 206.23 202.843C206.615 203.557 206.808 204.39 206.808 205.342C206.808 206.294 206.615 207.133 206.23 207.858C205.856 208.583 205.329 209.144 204.649 209.541C203.98 209.938 203.227 210.136 202.388 210.136C201.504 210.136 200.739 209.938 200.093 209.541C199.458 209.133 198.994 208.606 198.699 207.96V210H197.526V197.42H198.699V202.775ZM205.601 205.342C205.601 204.571 205.448 203.908 205.142 203.353C204.847 202.786 204.439 202.356 203.918 202.061C203.397 201.766 202.807 201.619 202.15 201.619C201.515 201.619 200.932 201.772 200.399 202.078C199.878 202.384 199.464 202.82 199.158 203.387C198.852 203.954 198.699 204.611 198.699 205.359C198.699 206.107 198.852 206.764 199.158 207.331C199.464 207.898 199.878 208.334 200.399 208.64C200.932 208.946 201.515 209.099 202.15 209.099C202.807 209.099 203.397 208.952 203.918 208.657C204.439 208.351 204.847 207.915 205.142 207.348C205.448 206.77 205.601 206.101 205.601 205.342ZM208.454 205.342C208.454 204.39 208.641 203.557 209.015 202.843C209.4 202.118 209.927 201.562 210.596 201.177C211.276 200.78 212.041 200.582 212.891 200.582C213.775 200.582 214.534 200.786 215.169 201.194C215.815 201.602 216.279 202.123 216.563 202.758V200.718H217.753V210H216.563V207.943C216.268 208.578 215.798 209.105 215.152 209.524C214.517 209.932 213.758 210.136 212.874 210.136C212.035 210.136 211.276 209.938 210.596 209.541C209.927 209.144 209.4 208.583 209.015 207.858C208.641 207.133 208.454 206.294 208.454 205.342ZM216.563 205.359C216.563 204.611 216.41 203.954 216.104 203.387C215.798 202.82 215.378 202.384 214.846 202.078C214.324 201.772 213.746 201.619 213.112 201.619C212.454 201.619 211.865 201.766 211.344 202.061C210.822 202.356 210.409 202.786 210.103 203.353C209.808 203.908 209.661 204.571 209.661 205.342C209.661 206.101 209.808 206.77 210.103 207.348C210.409 207.915 210.822 208.351 211.344 208.657C211.865 208.952 212.454 209.099 213.112 209.099C213.746 209.099 214.324 208.946 214.846 208.64C215.378 208.334 215.798 207.898 216.104 207.331C216.41 206.764 216.563 206.107 216.563 205.359ZM223.665 210.136C222.6 210.136 221.727 209.892 221.047 209.405C220.379 208.906 220.005 208.232 219.925 207.382H221.149C221.206 207.903 221.45 208.328 221.88 208.657C222.322 208.974 222.912 209.133 223.648 209.133C224.294 209.133 224.799 208.98 225.161 208.674C225.535 208.368 225.722 207.988 225.722 207.535C225.722 207.218 225.62 206.957 225.416 206.753C225.212 206.549 224.952 206.39 224.634 206.277C224.328 206.152 223.909 206.022 223.376 205.886C222.685 205.705 222.124 205.523 221.693 205.342C221.263 205.161 220.894 204.894 220.588 204.543C220.294 204.18 220.146 203.699 220.146 203.098C220.146 202.645 220.282 202.225 220.554 201.84C220.826 201.455 221.212 201.149 221.71 200.922C222.209 200.695 222.776 200.582 223.41 200.582C224.408 200.582 225.212 200.837 225.824 201.347C226.436 201.846 226.765 202.537 226.81 203.421H225.62C225.586 202.877 225.371 202.441 224.974 202.112C224.589 201.772 224.056 201.602 223.376 201.602C222.776 201.602 222.288 201.744 221.914 202.027C221.54 202.31 221.353 202.662 221.353 203.081C221.353 203.444 221.461 203.744 221.676 203.982C221.903 204.209 222.181 204.39 222.509 204.526C222.838 204.651 223.28 204.792 223.835 204.951C224.504 205.132 225.037 205.308 225.433 205.478C225.83 205.648 226.17 205.897 226.453 206.226C226.737 206.555 226.884 206.991 226.895 207.535C226.895 208.034 226.759 208.481 226.487 208.878C226.215 209.263 225.836 209.569 225.348 209.796C224.861 210.023 224.3 210.136 223.665 210.136ZM234.15 210L230.325 205.835V210H229.135V197.42H230.325V204.866L234.065 200.718H235.731L231.328 205.342L235.765 210H234.15ZM245.701 204.883C245.701 205.291 245.69 205.603 245.667 205.818H237.966C238 206.521 238.17 207.121 238.476 207.62C238.782 208.119 239.185 208.498 239.683 208.759C240.182 209.008 240.726 209.133 241.315 209.133C242.086 209.133 242.732 208.946 243.253 208.572C243.786 208.198 244.137 207.694 244.307 207.059H245.565C245.339 207.966 244.851 208.708 244.103 209.286C243.367 209.853 242.437 210.136 241.315 210.136C240.443 210.136 239.661 209.943 238.969 209.558C238.278 209.161 237.734 208.606 237.337 207.892C236.952 207.167 236.759 206.322 236.759 205.359C236.759 204.396 236.952 203.551 237.337 202.826C237.723 202.101 238.261 201.545 238.952 201.16C239.644 200.775 240.431 200.582 241.315 200.582C242.199 200.582 242.97 200.775 243.627 201.16C244.296 201.545 244.806 202.067 245.157 202.724C245.52 203.37 245.701 204.09 245.701 204.883ZM244.494 204.849C244.506 204.158 244.364 203.568 244.069 203.081C243.786 202.594 243.395 202.225 242.896 201.976C242.398 201.727 241.854 201.602 241.264 201.602C240.38 201.602 239.627 201.885 239.003 202.452C238.38 203.019 238.034 203.818 237.966 204.849H244.494ZM249.426 201.721V207.484C249.426 208.051 249.533 208.442 249.749 208.657C249.964 208.872 250.344 208.98 250.888 208.98H251.976V210H250.701C249.862 210 249.239 209.807 248.831 209.422C248.423 209.025 248.219 208.379 248.219 207.484V201.721H246.927V200.718H248.219V198.389H249.426V200.718H251.976V201.721H249.426ZM259.198 198.967C258.96 198.967 258.756 198.882 258.586 198.712C258.416 198.542 258.331 198.332 258.331 198.083C258.331 197.834 258.416 197.63 258.586 197.471C258.756 197.301 258.96 197.216 259.198 197.216C259.436 197.216 259.64 197.301 259.81 197.471C259.98 197.63 260.065 197.834 260.065 198.083C260.065 198.332 259.98 198.542 259.81 198.712C259.64 198.882 259.436 198.967 259.198 198.967ZM259.793 200.718V210H258.603V200.718H259.793ZM265.684 210.136C264.619 210.136 263.746 209.892 263.066 209.405C262.397 208.906 262.023 208.232 261.944 207.382H263.168C263.225 207.903 263.468 208.328 263.899 208.657C264.341 208.974 264.93 209.133 265.667 209.133C266.313 209.133 266.817 208.98 267.18 208.674C267.554 208.368 267.741 207.988 267.741 207.535C267.741 207.218 267.639 206.957 267.435 206.753C267.231 206.549 266.97 206.39 266.653 206.277C266.347 206.152 265.928 206.022 265.395 205.886C264.704 205.705 264.143 205.523 263.712 205.342C263.281 205.161 262.913 204.894 262.607 204.543C262.312 204.18 262.165 203.699 262.165 203.098C262.165 202.645 262.301 202.225 262.573 201.84C262.845 201.455 263.23 201.149 263.729 200.922C264.228 200.695 264.794 200.582 265.429 200.582C266.426 200.582 267.231 200.837 267.843 201.347C268.455 201.846 268.784 202.537 268.829 203.421H267.639C267.605 202.877 267.39 202.441 266.993 202.112C266.608 201.772 266.075 201.602 265.395 201.602C264.794 201.602 264.307 201.744 263.933 202.027C263.559 202.31 263.372 202.662 263.372 203.081C263.372 203.444 263.48 203.744 263.695 203.982C263.922 204.209 264.199 204.39 264.528 204.526C264.857 204.651 265.299 204.792 265.854 204.951C266.523 205.132 267.055 205.308 267.452 205.478C267.849 205.648 268.189 205.897 268.472 206.226C268.755 206.555 268.903 206.991 268.914 207.535C268.914 208.034 268.778 208.481 268.506 208.878C268.234 209.263 267.854 209.569 267.367 209.796C266.88 210.023 266.319 210.136 265.684 210.136ZM59.6806 224.967C59.4426 224.967 59.2386 224.882 59.0686 224.712C58.8986 224.542 58.8136 224.332 58.8136 224.083C58.8136 223.834 58.8986 223.63 59.0686 223.471C59.2386 223.301 59.4426 223.216 59.6806 223.216C59.9186 223.216 60.1226 223.301 60.2926 223.471C60.4626 223.63 60.5476 223.834 60.5476 224.083C60.5476 224.332 60.4626 224.542 60.2926 224.712C60.1226 224.882 59.9186 224.967 59.6806 224.967ZM60.2756 226.718V236H59.0856V226.718H60.2756ZM67.3224 226.548C68.433 226.548 69.3397 226.894 70.0424 227.585C70.745 228.265 71.0964 229.257 71.0964 230.56V236H69.9234V230.696C69.9234 229.687 69.6684 228.917 69.1584 228.384C68.6597 227.851 67.974 227.585 67.1014 227.585C66.206 227.585 65.492 227.868 64.9594 228.435C64.4267 229.002 64.1604 229.835 64.1604 230.934V236H62.9704V226.718H64.1604V228.299C64.455 227.732 64.88 227.302 65.4354 227.007C65.9907 226.701 66.6197 226.548 67.3224 226.548ZM78.1482 226.548C78.8508 226.548 79.4798 226.695 80.0352 226.99C80.6018 227.285 81.0438 227.738 81.3612 228.35C81.6898 228.951 81.8542 229.687 81.8542 230.56V236H80.6812V230.696C80.6812 229.687 80.4262 228.917 79.9162 228.384C79.4175 227.851 78.7318 227.585 77.8592 227.585C76.9638 227.585 76.2498 227.868 75.7172 228.435C75.1845 229.002 74.9182 229.835 74.9182 230.934V236H73.7282V223.42H74.9182V228.299C75.2128 227.744 75.6435 227.313 76.2102 227.007C76.7882 226.701 77.4342 226.548 78.1482 226.548ZM92.884 230.883C92.884 231.291 92.8726 231.603 92.85 231.818H85.149C85.183 232.521 85.353 233.121 85.659 233.62C85.965 234.119 86.3673 234.498 86.866 234.759C87.3646 235.008 87.9086 235.133 88.498 235.133C89.2686 235.133 89.9146 234.946 90.436 234.572C90.9686 234.198 91.32 233.694 91.49 233.059H92.748C92.5213 233.966 92.034 234.708 91.286 235.286C90.5493 235.853 89.62 236.136 88.498 236.136C87.6253 236.136 86.8433 235.943 86.152 235.558C85.4606 235.161 84.9166 234.606 84.52 233.892C84.1346 233.167 83.942 232.322 83.942 231.359C83.942 230.396 84.1346 229.551 84.52 228.826C84.9053 228.101 85.4436 227.545 86.135 227.16C86.8263 226.775 87.614 226.582 88.498 226.582C89.382 226.582 90.1526 226.775 90.81 227.16C91.4786 227.545 91.9886 228.067 92.34 228.724C92.7026 229.37 92.884 230.09 92.884 230.883ZM91.677 230.849C91.6883 230.158 91.5466 229.568 91.252 229.081C90.9686 228.594 90.5776 228.225 90.079 227.976C89.5803 227.727 89.0363 227.602 88.447 227.602C87.563 227.602 86.8093 227.885 86.186 228.452C85.5626 229.019 85.217 229.818 85.149 230.849H91.677ZM96.2512 228.367C96.5118 227.789 96.9085 227.341 97.4412 227.024C97.9852 226.707 98.6482 226.548 99.4302 226.548V227.789H99.1072C98.2458 227.789 97.5545 228.021 97.0332 228.486C96.5118 228.951 96.2512 229.727 96.2512 230.815V236H95.0612V226.718H96.2512V228.367ZM109.618 230.883C109.618 231.291 109.607 231.603 109.584 231.818H101.883C101.917 232.521 102.087 233.121 102.393 233.62C102.699 234.119 103.102 234.498 103.6 234.759C104.099 235.008 104.643 235.133 105.232 235.133C106.003 235.133 106.649 234.946 107.17 234.572C107.703 234.198 108.054 233.694 108.224 233.059H109.482C109.256 233.966 108.768 234.708 108.02 235.286C107.284 235.853 106.354 236.136 105.232 236.136C104.36 236.136 103.578 235.943 102.886 235.558C102.195 235.161 101.651 234.606 101.254 233.892C100.869 233.167 100.676 232.322 100.676 231.359C100.676 230.396 100.869 229.551 101.254 228.826C101.64 228.101 102.178 227.545 102.869 227.16C103.561 226.775 104.348 226.582 105.232 226.582C106.116 226.582 106.887 226.775 107.544 227.16C108.213 227.545 108.723 228.067 109.074 228.724C109.437 229.37 109.618 230.09 109.618 230.883ZM108.411 230.849C108.423 230.158 108.281 229.568 107.986 229.081C107.703 228.594 107.312 228.225 106.813 227.976C106.315 227.727 105.771 227.602 105.181 227.602C104.297 227.602 103.544 227.885 102.92 228.452C102.297 229.019 101.951 229.818 101.883 230.849H108.411ZM116.148 226.548C117.258 226.548 118.165 226.894 118.868 227.585C119.57 228.265 119.922 229.257 119.922 230.56V236H118.749V230.696C118.749 229.687 118.494 228.917 117.984 228.384C117.485 227.851 116.799 227.585 115.927 227.585C115.031 227.585 114.317 227.868 113.785 228.435C113.252 229.002 112.986 229.835 112.986 230.934V236H111.796V226.718H112.986V228.299C113.28 227.732 113.705 227.302 114.261 227.007C114.816 226.701 115.445 226.548 116.148 226.548ZM124.1 227.721V233.484C124.1 234.051 124.208 234.442 124.423 234.657C124.639 234.872 125.018 234.98 125.562 234.98H126.65V236H125.375C124.537 236 123.913 235.807 123.505 235.422C123.097 235.025 122.893 234.379 122.893 233.484V227.721H121.601V226.718H122.893V224.389H124.1V226.718H126.65V227.721H124.1ZM129.803 223.42V236H128.613V223.42H129.803ZM140.148 226.718L134.64 240.369H133.399L135.201 235.949L131.393 226.718H132.702L135.864 234.64L138.924 226.718H140.148ZM150.778 226.548C151.889 226.548 152.796 226.894 153.498 227.585C154.201 228.265 154.552 229.257 154.552 230.56V236H153.379V230.696C153.379 229.687 153.124 228.917 152.614 228.384C152.116 227.851 151.43 227.585 150.557 227.585C149.662 227.585 148.948 227.868 148.415 228.435C147.883 229.002 147.616 229.835 147.616 230.934V236H146.426V226.718H147.616V228.299C147.911 227.732 148.336 227.302 148.891 227.007C149.447 226.701 150.076 226.548 150.778 226.548ZM161.247 236.136C160.375 236.136 159.587 235.943 158.884 235.558C158.193 235.161 157.643 234.606 157.235 233.892C156.839 233.167 156.64 232.322 156.64 231.359C156.64 230.396 156.844 229.557 157.252 228.843C157.66 228.118 158.216 227.562 158.918 227.177C159.621 226.78 160.409 226.582 161.281 226.582C162.154 226.582 162.942 226.78 163.644 227.177C164.358 227.562 164.914 228.118 165.31 228.843C165.718 229.557 165.922 230.396 165.922 231.359C165.922 232.311 165.718 233.15 165.31 233.875C164.902 234.6 164.341 235.161 163.627 235.558C162.913 235.943 162.12 236.136 161.247 236.136ZM161.247 235.099C161.859 235.099 162.426 234.963 162.947 234.691C163.469 234.408 163.888 233.988 164.205 233.433C164.534 232.866 164.698 232.175 164.698 231.359C164.698 230.543 164.54 229.857 164.222 229.302C163.905 228.735 163.486 228.316 162.964 228.044C162.443 227.761 161.876 227.619 161.264 227.619C160.652 227.619 160.086 227.761 159.564 228.044C159.043 228.316 158.624 228.735 158.306 229.302C158 229.857 157.847 230.543 157.847 231.359C157.847 232.175 158 232.866 158.306 233.433C158.624 233.988 159.037 234.408 159.547 234.691C160.069 234.963 160.635 235.099 161.247 235.099ZM172.443 226.548C173.554 226.548 174.461 226.894 175.163 227.585C175.866 228.265 176.217 229.257 176.217 230.56V236H175.044V230.696C175.044 229.687 174.789 228.917 174.279 228.384C173.781 227.851 173.095 227.585 172.222 227.585C171.327 227.585 170.613 227.868 170.08 228.435C169.548 229.002 169.281 229.835 169.281 230.934V236H168.091V226.718H169.281V228.299C169.576 227.732 170.001 227.302 170.556 227.007C171.112 226.701 171.741 226.548 172.443 226.548ZM184.612 229.2V230.203H177.999V229.2H184.612ZM188.26 224.967C188.022 224.967 187.818 224.882 187.648 224.712C187.478 224.542 187.393 224.332 187.393 224.083C187.393 223.834 187.478 223.63 187.648 223.471C187.818 223.301 188.022 223.216 188.26 223.216C188.498 223.216 188.702 223.301 188.872 223.471C189.042 223.63 189.127 223.834 189.127 224.083C189.127 224.332 189.042 224.542 188.872 224.712C188.702 224.882 188.498 224.967 188.26 224.967ZM188.855 226.718V236H187.665V226.718H188.855ZM195.901 226.548C197.012 226.548 197.919 226.894 198.621 227.585C199.324 228.265 199.675 229.257 199.675 230.56V236H198.502V230.696C198.502 229.687 198.247 228.917 197.737 228.384C197.239 227.851 196.553 227.585 195.68 227.585C194.785 227.585 194.071 227.868 193.538 228.435C193.006 229.002 192.739 229.835 192.739 230.934V236H191.549V226.718H192.739V228.299C193.034 227.732 193.459 227.302 194.014 227.007C194.57 226.701 195.199 226.548 195.901 226.548ZM205.962 227.721H203.803V236H202.613V227.721H201.321V226.718H202.613V226.072C202.613 225.063 202.868 224.321 203.378 223.845C203.9 223.369 204.738 223.131 205.894 223.131V224.151C205.124 224.151 204.58 224.298 204.262 224.593C203.956 224.888 203.803 225.381 203.803 226.072V226.718H205.962V227.721ZM209.026 223.42V236H207.836V223.42H209.026ZM211.176 231.342C211.176 230.39 211.363 229.557 211.737 228.843C212.123 228.118 212.65 227.562 213.318 227.177C213.998 226.78 214.763 226.582 215.613 226.582C216.497 226.582 217.257 226.786 217.891 227.194C218.537 227.602 219.002 228.123 219.285 228.758V226.718H220.475V236H219.285V233.943C218.991 234.578 218.52 235.105 217.874 235.524C217.24 235.932 216.48 236.136 215.596 236.136C214.758 236.136 213.998 235.938 213.318 235.541C212.65 235.144 212.123 234.583 211.737 233.858C211.363 233.133 211.176 232.294 211.176 231.342ZM219.285 231.359C219.285 230.611 219.132 229.954 218.826 229.387C218.52 228.82 218.101 228.384 217.568 228.078C217.047 227.772 216.469 227.619 215.834 227.619C215.177 227.619 214.588 227.766 214.066 228.061C213.545 228.356 213.131 228.786 212.825 229.353C212.531 229.908 212.383 230.571 212.383 231.342C212.383 232.101 212.531 232.77 212.825 233.348C213.131 233.915 213.545 234.351 214.066 234.657C214.588 234.952 215.177 235.099 215.834 235.099C216.469 235.099 217.047 234.946 217.568 234.64C218.101 234.334 218.52 233.898 218.826 233.331C219.132 232.764 219.285 232.107 219.285 231.359ZM224.739 227.721V233.484C224.739 234.051 224.847 234.442 225.062 234.657C225.277 234.872 225.657 234.98 226.201 234.98H227.289V236H226.014C225.175 236 224.552 235.807 224.144 235.422C223.736 235.025 223.532 234.379 223.532 233.484V227.721H222.24V226.718H223.532V224.389H224.739V226.718H227.289V227.721H224.739ZM229.847 224.967C229.609 224.967 229.405 224.882 229.235 224.712C229.065 224.542 228.98 224.332 228.98 224.083C228.98 223.834 229.065 223.63 229.235 223.471C229.405 223.301 229.609 223.216 229.847 223.216C230.085 223.216 230.289 223.301 230.459 223.471C230.629 223.63 230.714 223.834 230.714 224.083C230.714 224.332 230.629 224.542 230.459 224.712C230.289 224.882 230.085 224.967 229.847 224.967ZM230.442 226.718V236H229.252V226.718H230.442ZM237.199 236.136C236.327 236.136 235.539 235.943 234.836 235.558C234.145 235.161 233.595 234.606 233.187 233.892C232.791 233.167 232.592 232.322 232.592 231.359C232.592 230.396 232.796 229.557 233.204 228.843C233.612 228.118 234.168 227.562 234.87 227.177C235.573 226.78 236.361 226.582 237.233 226.582C238.106 226.582 238.894 226.78 239.596 227.177C240.31 227.562 240.866 228.118 241.262 228.843C241.67 229.557 241.874 230.396 241.874 231.359C241.874 232.311 241.67 233.15 241.262 233.875C240.854 234.6 240.293 235.161 239.579 235.558C238.865 235.943 238.072 236.136 237.199 236.136ZM237.199 235.099C237.811 235.099 238.378 234.963 238.899 234.691C239.421 234.408 239.84 233.988 240.157 233.433C240.486 232.866 240.65 232.175 240.65 231.359C240.65 230.543 240.492 229.857 240.174 229.302C239.857 228.735 239.438 228.316 238.916 228.044C238.395 227.761 237.828 227.619 237.216 227.619C236.604 227.619 236.038 227.761 235.516 228.044C234.995 228.316 234.576 228.735 234.258 229.302C233.952 229.857 233.799 230.543 233.799 231.359C233.799 232.175 233.952 232.866 234.258 233.433C234.576 233.988 234.989 234.408 235.499 234.691C236.021 234.963 236.587 235.099 237.199 235.099ZM248.396 226.548C249.506 226.548 250.413 226.894 251.116 227.585C251.818 228.265 252.17 229.257 252.17 230.56V236H250.997V230.696C250.997 229.687 250.742 228.917 250.232 228.384C249.733 227.851 249.047 227.585 248.175 227.585C247.279 227.585 246.565 227.868 246.033 228.435C245.5 229.002 245.234 229.835 245.234 230.934V236H244.044V226.718H245.234V228.299C245.528 227.732 245.953 227.302 246.509 227.007C247.064 226.701 247.693 226.548 248.396 226.548ZM254.257 231.342C254.257 230.39 254.444 229.557 254.818 228.843C255.204 228.118 255.731 227.562 256.399 227.177C257.079 226.78 257.844 226.582 258.694 226.582C259.578 226.582 260.338 226.786 260.972 227.194C261.618 227.602 262.083 228.123 262.366 228.758V226.718H263.556V236H262.366V233.943C262.072 234.578 261.601 235.105 260.955 235.524C260.321 235.932 259.561 236.136 258.677 236.136C257.839 236.136 257.079 235.938 256.399 235.541C255.731 235.144 255.204 234.583 254.818 233.858C254.444 233.133 254.257 232.294 254.257 231.342ZM262.366 231.359C262.366 230.611 262.213 229.954 261.907 229.387C261.601 228.82 261.182 228.384 260.649 228.078C260.128 227.772 259.55 227.619 258.915 227.619C258.258 227.619 257.669 227.766 257.147 228.061C256.626 228.356 256.212 228.786 255.906 229.353C255.612 229.908 255.464 230.571 255.464 231.342C255.464 232.101 255.612 232.77 255.906 233.348C256.212 233.915 256.626 234.351 257.147 234.657C257.669 234.952 258.258 235.099 258.915 235.099C259.55 235.099 260.128 234.946 260.649 234.64C261.182 234.334 261.601 233.898 261.907 233.331C262.213 232.764 262.366 232.107 262.366 231.359ZM267.463 228.367C267.724 227.789 268.12 227.341 268.653 227.024C269.197 226.707 269.86 226.548 270.642 226.548V227.789H270.319C269.458 227.789 268.766 228.021 268.245 228.486C267.724 228.951 267.463 229.727 267.463 230.815V236H266.273V226.718H267.463V228.367ZM280.082 226.718L274.574 240.369H273.333L275.135 235.949L271.327 226.718H272.636L275.798 234.64L278.858 226.718H280.082ZM282.784 234.028L281.016 238.482H280.2L281.458 234.028H282.784ZM77.9654 257.342C77.9654 256.39 78.1524 255.557 78.5264 254.843C78.9117 254.118 79.4387 253.562 80.1074 253.177C80.7874 252.78 81.5524 252.582 82.4024 252.582C83.2864 252.582 84.0457 252.786 84.6804 253.194C85.3264 253.602 85.7911 254.123 86.0744 254.758V252.718H87.2644V262H86.0744V259.943C85.7797 260.578 85.3094 261.105 84.6634 261.524C84.0287 261.932 83.2694 262.136 82.3854 262.136C81.5467 262.136 80.7874 261.938 80.1074 261.541C79.4387 261.144 78.9117 260.583 78.5264 259.858C78.1524 259.133 77.9654 258.294 77.9654 257.342ZM86.0744 257.359C86.0744 256.611 85.9214 255.954 85.6154 255.387C85.3094 254.82 84.8901 254.384 84.3574 254.078C83.8361 253.772 83.2581 253.619 82.6234 253.619C81.9661 253.619 81.3767 253.766 80.8554 254.061C80.3341 254.356 79.9204 254.786 79.6144 255.353C79.3197 255.908 79.1724 256.571 79.1724 257.342C79.1724 258.101 79.3197 258.77 79.6144 259.348C79.9204 259.915 80.3341 260.351 80.8554 260.657C81.3767 260.952 81.9661 261.099 82.6234 261.099C83.2581 261.099 83.8361 260.946 84.3574 260.64C84.8901 260.334 85.3094 259.898 85.6154 259.331C85.9214 258.764 86.0744 258.107 86.0744 257.359ZM93.1771 262.136C92.1118 262.136 91.2391 261.892 90.5591 261.405C89.8904 260.906 89.5164 260.232 89.4371 259.382H90.6611C90.7178 259.903 90.9614 260.328 91.3921 260.657C91.8341 260.974 92.4234 261.133 93.1601 261.133C93.8061 261.133 94.3104 260.98 94.6731 260.674C95.0471 260.368 95.2341 259.988 95.2341 259.535C95.2341 259.218 95.1321 258.957 94.9281 258.753C94.7241 258.549 94.4634 258.39 94.1461 258.277C93.8401 258.152 93.4208 258.022 92.8881 257.886C92.1968 257.705 91.6358 257.523 91.2051 257.342C90.7744 257.161 90.4061 256.894 90.1001 256.543C89.8054 256.18 89.6581 255.699 89.6581 255.098C89.6581 254.645 89.7941 254.225 90.0661 253.84C90.3381 253.455 90.7234 253.149 91.2221 252.922C91.7208 252.695 92.2874 252.582 92.9221 252.582C93.9194 252.582 94.7241 252.837 95.3361 253.347C95.9481 253.846 96.2768 254.537 96.3221 255.421H95.1321C95.0981 254.877 94.8828 254.441 94.4861 254.112C94.1008 253.772 93.5681 253.602 92.8881 253.602C92.2874 253.602 91.8001 253.744 91.4261 254.027C91.0521 254.31 90.8651 254.662 90.8651 255.081C90.8651 255.444 90.9728 255.744 91.1881 255.982C91.4148 256.209 91.6924 256.39 92.0211 256.526C92.3498 256.651 92.7918 256.792 93.3471 256.951C94.0158 257.132 94.5484 257.308 94.9451 257.478C95.3418 257.648 95.6818 257.897 95.9651 258.226C96.2484 258.555 96.3958 258.991 96.4071 259.535C96.4071 260.034 96.2711 260.481 95.9991 260.878C95.7271 261.263 95.3474 261.569 94.8601 261.796C94.3728 262.023 93.8118 262.136 93.1771 262.136ZM107.375 262.136C106.502 262.136 105.715 261.943 105.012 261.558C104.321 261.161 103.771 260.606 103.363 259.892C102.966 259.167 102.768 258.322 102.768 257.359C102.768 256.396 102.972 255.557 103.38 254.843C103.788 254.118 104.343 253.562 105.046 253.177C105.749 252.78 106.536 252.582 107.409 252.582C108.282 252.582 109.069 252.78 109.772 253.177C110.486 253.562 111.041 254.118 111.438 254.843C111.846 255.557 112.05 256.396 112.05 257.359C112.05 258.311 111.846 259.15 111.438 259.875C111.03 260.6 110.469 261.161 109.755 261.558C109.041 261.943 108.248 262.136 107.375 262.136ZM107.375 261.099C107.987 261.099 108.554 260.963 109.075 260.691C109.596 260.408 110.016 259.988 110.333 259.433C110.662 258.866 110.826 258.175 110.826 257.359C110.826 256.543 110.667 255.857 110.35 255.302C110.033 254.735 109.613 254.316 109.092 254.044C108.571 253.761 108.004 253.619 107.392 253.619C106.78 253.619 106.213 253.761 105.692 254.044C105.171 254.316 104.751 254.735 104.434 255.302C104.128 255.857 103.975 256.543 103.975 257.359C103.975 258.175 104.128 258.866 104.434 259.433C104.751 259.988 105.165 260.408 105.675 260.691C106.196 260.963 106.763 261.099 107.375 261.099ZM118.571 252.548C119.682 252.548 120.589 252.894 121.291 253.585C121.994 254.265 122.345 255.257 122.345 256.56V262H121.172V256.696C121.172 255.687 120.917 254.917 120.407 254.384C119.909 253.851 119.223 253.585 118.35 253.585C117.455 253.585 116.741 253.868 116.208 254.435C115.676 255.002 115.409 255.835 115.409 256.934V262H114.219V252.718H115.409V254.299C115.704 253.732 116.129 253.302 116.684 253.007C117.24 252.701 117.869 252.548 118.571 252.548ZM126.167 249.42V262H124.977V249.42H126.167ZM136.512 252.718L131.004 266.369H129.763L131.565 261.949L127.757 252.718H129.066L132.228 260.64L135.288 252.718H136.512ZM145.987 262.136C144.921 262.136 144.049 261.892 143.369 261.405C142.7 260.906 142.326 260.232 142.247 259.382H143.471C143.527 259.903 143.771 260.328 144.202 260.657C144.644 260.974 145.233 261.133 145.97 261.133C146.616 261.133 147.12 260.98 147.483 260.674C147.857 260.368 148.044 259.988 148.044 259.535C148.044 259.218 147.942 258.957 147.738 258.753C147.534 258.549 147.273 258.39 146.956 258.277C146.65 258.152 146.23 258.022 145.698 257.886C145.006 257.705 144.445 257.523 144.015 257.342C143.584 257.161 143.216 256.894 142.91 256.543C142.615 256.18 142.468 255.699 142.468 255.098C142.468 254.645 142.604 254.225 142.876 253.84C143.148 253.455 143.533 253.149 144.032 252.922C144.53 252.695 145.097 252.582 145.732 252.582C146.729 252.582 147.534 252.837 148.146 253.347C148.758 253.846 149.086 254.537 149.132 255.421H147.942C147.908 254.877 147.692 254.441 147.296 254.112C146.91 253.772 146.378 253.602 145.698 253.602C145.097 253.602 144.61 253.744 144.236 254.027C143.862 254.31 143.675 254.662 143.675 255.081C143.675 255.444 143.782 255.744 143.998 255.982C144.224 256.209 144.502 256.39 144.831 256.526C145.159 256.651 145.601 256.792 146.157 256.951C146.825 257.132 147.358 257.308 147.755 257.478C148.151 257.648 148.491 257.897 148.775 258.226C149.058 258.555 149.205 258.991 149.217 259.535C149.217 260.034 149.081 260.481 148.809 260.878C148.537 261.263 148.157 261.569 147.67 261.796C147.182 262.023 146.621 262.136 145.987 262.136ZM153.004 253.721V259.484C153.004 260.051 153.111 260.442 153.327 260.657C153.542 260.872 153.922 260.98 154.466 260.98H155.554V262H154.279C153.44 262 152.817 261.807 152.409 261.422C152.001 261.025 151.797 260.379 151.797 259.484V253.721H150.505V252.718H151.797V250.389H153.004V252.718H155.554V253.721H153.004ZM161.579 262.136C160.707 262.136 159.919 261.943 159.216 261.558C158.525 261.161 157.975 260.606 157.567 259.892C157.171 259.167 156.972 258.322 156.972 257.359C156.972 256.396 157.176 255.557 157.584 254.843C157.992 254.118 158.548 253.562 159.25 253.177C159.953 252.78 160.741 252.582 161.613 252.582C162.486 252.582 163.274 252.78 163.976 253.177C164.69 253.562 165.246 254.118 165.642 254.843C166.05 255.557 166.254 256.396 166.254 257.359C166.254 258.311 166.05 259.15 165.642 259.875C165.234 260.6 164.673 261.161 163.959 261.558C163.245 261.943 162.452 262.136 161.579 262.136ZM161.579 261.099C162.191 261.099 162.758 260.963 163.279 260.691C163.801 260.408 164.22 259.988 164.537 259.433C164.866 258.866 165.03 258.175 165.03 257.359C165.03 256.543 164.872 255.857 164.554 255.302C164.237 254.735 163.818 254.316 163.296 254.044C162.775 253.761 162.208 253.619 161.596 253.619C160.984 253.619 160.418 253.761 159.896 254.044C159.375 254.316 158.956 254.735 158.638 255.302C158.332 255.857 158.179 256.543 158.179 257.359C158.179 258.175 158.332 258.866 158.638 259.433C158.956 259.988 159.369 260.408 159.879 260.691C160.401 260.963 160.967 261.099 161.579 261.099ZM169.613 254.367C169.874 253.789 170.271 253.341 170.803 253.024C171.347 252.707 172.01 252.548 172.792 252.548V253.789H172.469C171.608 253.789 170.917 254.021 170.395 254.486C169.874 254.951 169.613 255.727 169.613 256.815V262H168.423V252.718H169.613V254.367ZM182.981 256.883C182.981 257.291 182.969 257.603 182.947 257.818H175.246C175.28 258.521 175.45 259.121 175.756 259.62C176.062 260.119 176.464 260.498 176.963 260.759C177.461 261.008 178.005 261.133 178.595 261.133C179.365 261.133 180.011 260.946 180.533 260.572C181.065 260.198 181.417 259.694 181.587 259.059H182.845C182.618 259.966 182.131 260.708 181.383 261.286C180.646 261.853 179.717 262.136 178.595 262.136C177.722 262.136 176.94 261.943 176.249 261.558C175.557 261.161 175.013 260.606 174.617 259.892C174.231 259.167 174.039 258.322 174.039 257.359C174.039 256.396 174.231 255.551 174.617 254.826C175.002 254.101 175.54 253.545 176.232 253.16C176.923 252.775 177.711 252.582 178.595 252.582C179.479 252.582 180.249 252.775 180.907 253.16C181.575 253.545 182.085 254.067 182.437 254.724C182.799 255.37 182.981 256.09 182.981 256.883ZM181.774 256.849C181.785 256.158 181.643 255.568 181.349 255.081C181.065 254.594 180.674 254.225 180.176 253.976C179.677 253.727 179.133 253.602 178.544 253.602C177.66 253.602 176.906 253.885 176.283 254.452C175.659 255.019 175.314 255.818 175.246 256.849H181.774ZM190.921 255.2V256.203H184.308V255.2H190.921ZM198.036 262.136C197.164 262.136 196.376 261.943 195.673 261.558C194.982 261.161 194.432 260.606 194.024 259.892C193.628 259.167 193.429 258.322 193.429 257.359C193.429 256.396 193.633 255.557 194.041 254.843C194.449 254.118 195.005 253.562 195.707 253.177C196.41 252.78 197.198 252.582 198.07 252.582C198.943 252.582 199.731 252.78 200.433 253.177C201.147 253.562 201.703 254.118 202.099 254.843C202.507 255.557 202.711 256.396 202.711 257.359C202.711 258.311 202.507 259.15 202.099 259.875C201.691 260.6 201.13 261.161 200.416 261.558C199.702 261.943 198.909 262.136 198.036 262.136ZM198.036 261.099C198.648 261.099 199.215 260.963 199.736 260.691C200.258 260.408 200.677 259.988 200.994 259.433C201.323 258.866 201.487 258.175 201.487 257.359C201.487 256.543 201.329 255.857 201.011 255.302C200.694 254.735 200.275 254.316 199.753 254.044C199.232 253.761 198.665 253.619 198.053 253.619C197.441 253.619 196.875 253.761 196.353 254.044C195.832 254.316 195.413 254.735 195.095 255.302C194.789 255.857 194.636 256.543 194.636 257.359C194.636 258.175 194.789 258.866 195.095 259.433C195.413 259.988 195.826 260.408 196.336 260.691C196.858 260.963 197.424 261.099 198.036 261.099ZM208.536 253.721H206.377V262H205.187V253.721H203.895V252.718H205.187V252.072C205.187 251.063 205.442 250.321 205.952 249.845C206.473 249.369 207.312 249.131 208.468 249.131V250.151C207.697 250.151 207.153 250.298 206.836 250.593C206.53 250.888 206.377 251.381 206.377 252.072V252.718H208.536V253.721ZM216.172 255.2V256.203H209.559V255.2H216.172ZM222.522 260.844L225.65 252.718H226.908L223.185 262H221.842L218.119 252.718H219.394L222.522 260.844ZM227.977 257.342C227.977 256.39 228.164 255.557 228.538 254.843C228.923 254.118 229.45 253.562 230.119 253.177C230.799 252.78 231.564 252.582 232.414 252.582C233.298 252.582 234.057 252.786 234.692 253.194C235.338 253.602 235.803 254.123 236.086 254.758V252.718H237.276V262H236.086V259.943C235.791 260.578 235.321 261.105 234.675 261.524C234.04 261.932 233.281 262.136 232.397 262.136C231.558 262.136 230.799 261.938 230.119 261.541C229.45 261.144 228.923 260.583 228.538 259.858C228.164 259.133 227.977 258.294 227.977 257.342ZM236.086 257.359C236.086 256.611 235.933 255.954 235.627 255.387C235.321 254.82 234.902 254.384 234.369 254.078C233.848 253.772 233.27 253.619 232.635 253.619C231.978 253.619 231.388 253.766 230.867 254.061C230.346 254.356 229.932 254.786 229.626 255.353C229.331 255.908 229.184 256.571 229.184 257.342C229.184 258.101 229.331 258.77 229.626 259.348C229.932 259.915 230.346 260.351 230.867 260.657C231.388 260.952 231.978 261.099 232.635 261.099C233.27 261.099 233.848 260.946 234.369 260.64C234.902 260.334 235.321 259.898 235.627 259.331C235.933 258.764 236.086 258.107 236.086 257.359ZM241.183 249.42V262H239.993V249.42H241.183ZM251.919 252.718V262H250.729V260.368C250.457 260.946 250.037 261.388 249.471 261.694C248.904 262 248.269 262.153 247.567 262.153C246.456 262.153 245.549 261.813 244.847 261.133C244.144 260.442 243.793 259.444 243.793 258.141V252.718H244.966V258.005C244.966 259.014 245.215 259.784 245.714 260.317C246.224 260.85 246.915 261.116 247.788 261.116C248.683 261.116 249.397 260.833 249.93 260.266C250.462 259.699 250.729 258.866 250.729 257.767V252.718H251.919ZM263.033 256.883C263.033 257.291 263.022 257.603 262.999 257.818H255.298C255.332 258.521 255.502 259.121 255.808 259.62C256.114 260.119 256.517 260.498 257.015 260.759C257.514 261.008 258.058 261.133 258.647 261.133C259.418 261.133 260.064 260.946 260.585 260.572C261.118 260.198 261.469 259.694 261.639 259.059H262.897C262.671 259.966 262.183 260.708 261.435 261.286C260.699 261.853 259.769 262.136 258.647 262.136C257.775 262.136 256.993 261.943 256.301 261.558C255.61 261.161 255.066 260.606 254.669 259.892C254.284 259.167 254.091 258.322 254.091 257.359C254.091 256.396 254.284 255.551 254.669 254.826C255.055 254.101 255.593 253.545 256.284 253.16C256.976 252.775 257.763 252.582 258.647 252.582C259.531 252.582 260.302 252.775 260.959 253.16C261.628 253.545 262.138 254.067 262.489 254.724C262.852 255.37 263.033 256.09 263.033 256.883ZM261.826 256.849C261.838 256.158 261.696 255.568 261.401 255.081C261.118 254.594 260.727 254.225 260.228 253.976C259.73 253.727 259.186 253.602 258.596 253.602C257.712 253.602 256.959 253.885 256.335 254.452C255.712 255.019 255.366 255.818 255.298 256.849H261.826ZM92.4669 283.342C92.4669 282.39 92.6539 281.557 93.0279 280.843C93.4132 280.118 93.9402 279.562 94.6089 279.177C95.2889 278.78 96.0539 278.582 96.9039 278.582C97.7879 278.582 98.5472 278.786 99.1819 279.194C99.8279 279.602 100.293 280.123 100.576 280.758V278.718H101.766V288H100.576V285.943C100.281 286.578 99.8109 287.105 99.1649 287.524C98.5302 287.932 97.7709 288.136 96.8869 288.136C96.0482 288.136 95.2889 287.938 94.6089 287.541C93.9402 287.144 93.4132 286.583 93.0279 285.858C92.6539 285.133 92.4669 284.294 92.4669 283.342ZM100.576 283.359C100.576 282.611 100.423 281.954 100.117 281.387C99.8109 280.82 99.3915 280.384 98.8589 280.078C98.3375 279.772 97.7595 279.619 97.1249 279.619C96.4675 279.619 95.8782 279.766 95.3569 280.061C94.8355 280.356 94.4219 280.786 94.1159 281.353C93.8212 281.908 93.6739 282.571 93.6739 283.342C93.6739 284.101 93.8212 284.77 94.1159 285.348C94.4219 285.915 94.8355 286.351 95.3569 286.657C95.8782 286.952 96.4675 287.099 97.1249 287.099C97.7595 287.099 98.3375 286.946 98.8589 286.64C99.3915 286.334 99.8109 285.898 100.117 285.331C100.423 284.764 100.576 284.107 100.576 283.359ZM107.679 288.136C106.613 288.136 105.741 287.892 105.061 287.405C104.392 286.906 104.018 286.232 103.939 285.382H105.163C105.219 285.903 105.463 286.328 105.894 286.657C106.336 286.974 106.925 287.133 107.662 287.133C108.308 287.133 108.812 286.98 109.175 286.674C109.549 286.368 109.736 285.988 109.736 285.535C109.736 285.218 109.634 284.957 109.43 284.753C109.226 284.549 108.965 284.39 108.648 284.277C108.342 284.152 107.922 284.022 107.39 283.886C106.698 283.705 106.137 283.523 105.707 283.342C105.276 283.161 104.908 282.894 104.602 282.543C104.307 282.18 104.16 281.699 104.16 281.098C104.16 280.645 104.296 280.225 104.568 279.84C104.84 279.455 105.225 279.149 105.724 278.922C106.222 278.695 106.789 278.582 107.424 278.582C108.421 278.582 109.226 278.837 109.838 279.347C110.45 279.846 110.778 280.537 110.824 281.421H109.634C109.6 280.877 109.384 280.441 108.988 280.112C108.602 279.772 108.07 279.602 107.39 279.602C106.789 279.602 106.302 279.744 105.928 280.027C105.554 280.31 105.367 280.662 105.367 281.081C105.367 281.444 105.474 281.744 105.69 281.982C105.916 282.209 106.194 282.39 106.523 282.526C106.851 282.651 107.293 282.792 107.849 282.951C108.517 283.132 109.05 283.308 109.447 283.478C109.843 283.648 110.183 283.897 110.467 284.226C110.75 284.555 110.897 284.991 110.909 285.535C110.909 286.034 110.773 286.481 110.501 286.878C110.229 287.263 109.849 287.569 109.362 287.796C108.874 288.023 108.313 288.136 107.679 288.136ZM116.345 288.136C115.279 288.136 114.407 287.892 113.727 287.405C113.058 286.906 112.684 286.232 112.605 285.382H113.829C113.885 285.903 114.129 286.328 114.56 286.657C115.002 286.974 115.591 287.133 116.328 287.133C116.974 287.133 117.478 286.98 117.841 286.674C118.215 286.368 118.402 285.988 118.402 285.535C118.402 285.218 118.3 284.957 118.096 284.753C117.892 284.549 117.631 284.39 117.314 284.277C117.008 284.152 116.588 284.022 116.056 283.886C115.364 283.705 114.803 283.523 114.373 283.342C113.942 283.161 113.574 282.894 113.268 282.543C112.973 282.18 112.826 281.699 112.826 281.098C112.826 280.645 112.962 280.225 113.234 279.84C113.506 279.455 113.891 279.149 114.39 278.922C114.888 278.695 115.455 278.582 116.09 278.582C117.087 278.582 117.892 278.837 118.504 279.347C119.116 279.846 119.444 280.537 119.49 281.421H118.3C118.266 280.877 118.05 280.441 117.654 280.112C117.268 279.772 116.736 279.602 116.056 279.602C115.455 279.602 114.968 279.744 114.594 280.027C114.22 280.31 114.033 280.662 114.033 281.081C114.033 281.444 114.14 281.744 114.356 281.982C114.582 282.209 114.86 282.39 115.189 282.526C115.517 282.651 115.959 282.792 116.515 282.951C117.183 283.132 117.716 283.308 118.113 283.478C118.509 283.648 118.849 283.897 119.133 284.226C119.416 284.555 119.563 284.991 119.575 285.535C119.575 286.034 119.439 286.481 119.167 286.878C118.895 287.263 118.515 287.569 118.028 287.796C117.54 288.023 116.979 288.136 116.345 288.136ZM130.213 282.883C130.213 283.291 130.201 283.603 130.179 283.818H122.478C122.512 284.521 122.682 285.121 122.988 285.62C123.294 286.119 123.696 286.498 124.195 286.759C124.693 287.008 125.237 287.133 125.827 287.133C126.597 287.133 127.243 286.946 127.765 286.572C128.297 286.198 128.649 285.694 128.819 285.059H130.077C129.85 285.966 129.363 286.708 128.615 287.286C127.878 287.853 126.949 288.136 125.827 288.136C124.954 288.136 124.172 287.943 123.481 287.558C122.789 287.161 122.245 286.606 121.849 285.892C121.463 285.167 121.271 284.322 121.271 283.359C121.271 282.396 121.463 281.551 121.849 280.826C122.234 280.101 122.772 279.545 123.464 279.16C124.155 278.775 124.943 278.582 125.827 278.582C126.711 278.582 127.481 278.775 128.139 279.16C128.807 279.545 129.317 280.067 129.669 280.724C130.031 281.37 130.213 282.09 130.213 282.883ZM129.006 282.849C129.017 282.158 128.875 281.568 128.581 281.081C128.297 280.594 127.906 280.225 127.408 279.976C126.909 279.727 126.365 279.602 125.776 279.602C124.892 279.602 124.138 279.885 123.515 280.452C122.891 281.019 122.546 281.818 122.478 282.849H129.006ZM133.937 279.721V285.484C133.937 286.051 134.044 286.442 134.26 286.657C134.475 286.872 134.855 286.98 135.399 286.98H136.487V288H135.212C134.373 288 133.75 287.807 133.342 287.422C132.934 287.025 132.73 286.379 132.73 285.484V279.721H131.438V278.718H132.73V276.389H133.937V278.718H136.487V279.721H133.937ZM141.645 288.136C140.58 288.136 139.707 287.892 139.027 287.405C138.359 286.906 137.985 286.232 137.905 285.382H139.129C139.186 285.903 139.43 286.328 139.86 286.657C140.302 286.974 140.892 287.133 141.628 287.133C142.274 287.133 142.779 286.98 143.141 286.674C143.515 286.368 143.702 285.988 143.702 285.535C143.702 285.218 143.6 284.957 143.396 284.753C143.192 284.549 142.932 284.39 142.614 284.277C142.308 284.152 141.889 284.022 141.356 283.886C140.665 283.705 140.104 283.523 139.673 283.342C139.243 283.161 138.874 282.894 138.568 282.543C138.274 282.18 138.126 281.699 138.126 281.098C138.126 280.645 138.262 280.225 138.534 279.84C138.806 279.455 139.192 279.149 139.69 278.922C140.189 278.695 140.756 278.582 141.39 278.582C142.388 278.582 143.192 278.837 143.804 279.347C144.416 279.846 144.745 280.537 144.79 281.421H143.6C143.566 280.877 143.351 280.441 142.954 280.112C142.569 279.772 142.036 279.602 141.356 279.602C140.756 279.602 140.268 279.744 139.894 280.027C139.52 280.31 139.333 280.662 139.333 281.081C139.333 281.444 139.441 281.744 139.656 281.982C139.883 282.209 140.161 282.39 140.489 282.526C140.818 282.651 141.26 282.792 141.815 282.951C142.484 283.132 143.017 283.308 143.413 283.478C143.81 283.648 144.15 283.897 144.433 284.226C144.717 284.555 144.864 284.991 144.875 285.535C144.875 286.034 144.739 286.481 144.467 286.878C144.195 287.263 143.816 287.569 143.328 287.796C142.841 288.023 142.28 288.136 141.645 288.136ZM151.236 283.342C151.236 282.39 151.423 281.557 151.797 280.843C152.183 280.118 152.71 279.562 153.378 279.177C154.058 278.78 154.823 278.582 155.673 278.582C156.557 278.582 157.317 278.786 157.951 279.194C158.597 279.602 159.062 280.123 159.345 280.758V278.718H160.535V288H159.345V285.943C159.051 286.578 158.58 287.105 157.934 287.524C157.3 287.932 156.54 288.136 155.656 288.136C154.818 288.136 154.058 287.938 153.378 287.541C152.71 287.144 152.183 286.583 151.797 285.858C151.423 285.133 151.236 284.294 151.236 283.342ZM159.345 283.359C159.345 282.611 159.192 281.954 158.886 281.387C158.58 280.82 158.161 280.384 157.628 280.078C157.107 279.772 156.529 279.619 155.894 279.619C155.237 279.619 154.648 279.766 154.126 280.061C153.605 280.356 153.191 280.786 152.885 281.353C152.591 281.908 152.443 282.571 152.443 283.342C152.443 284.101 152.591 284.77 152.885 285.348C153.191 285.915 153.605 286.351 154.126 286.657C154.648 286.952 155.237 287.099 155.894 287.099C156.529 287.099 157.107 286.946 157.628 286.64C158.161 286.334 158.58 285.898 158.886 285.331C159.192 284.764 159.345 284.107 159.345 283.359ZM164.442 280.367C164.703 279.789 165.099 279.341 165.632 279.024C166.176 278.707 166.839 278.548 167.621 278.548V279.789H167.298C166.437 279.789 165.745 280.021 165.224 280.486C164.703 280.951 164.442 281.727 164.442 282.815V288H163.252V278.718H164.442V280.367ZM177.809 282.883C177.809 283.291 177.798 283.603 177.775 283.818H170.074C170.108 284.521 170.278 285.121 170.584 285.62C170.89 286.119 171.293 286.498 171.791 286.759C172.29 287.008 172.834 287.133 173.423 287.133C174.194 287.133 174.84 286.946 175.361 286.572C175.894 286.198 176.245 285.694 176.415 285.059H177.673C177.447 285.966 176.959 286.708 176.211 287.286C175.475 287.853 174.545 288.136 173.423 288.136C172.551 288.136 171.769 287.943 171.077 287.558C170.386 287.161 169.842 286.606 169.445 285.892C169.06 285.167 168.867 284.322 168.867 283.359C168.867 282.396 169.06 281.551 169.445 280.826C169.831 280.101 170.369 279.545 171.06 279.16C171.752 278.775 172.539 278.582 173.423 278.582C174.307 278.582 175.078 278.775 175.735 279.16C176.404 279.545 176.914 280.067 177.265 280.724C177.628 281.37 177.809 282.09 177.809 282.883ZM176.602 282.849C176.614 282.158 176.472 281.568 176.177 281.081C175.894 280.594 175.503 280.225 175.004 279.976C174.506 279.727 173.962 279.602 173.372 279.602C172.488 279.602 171.735 279.885 171.111 280.452C170.488 281.019 170.142 281.818 170.074 282.849H176.602ZM184.108 283.342C184.108 282.39 184.295 281.557 184.669 280.843C185.054 280.118 185.581 279.562 186.25 279.177C186.93 278.78 187.695 278.582 188.545 278.582C189.429 278.582 190.188 278.786 190.823 279.194C191.469 279.602 191.933 280.123 192.217 280.758V278.718H193.407V288H192.217V285.943C191.922 286.578 191.452 287.105 190.806 287.524C190.171 287.932 189.412 288.136 188.528 288.136C187.689 288.136 186.93 287.938 186.25 287.541C185.581 287.144 185.054 286.583 184.669 285.858C184.295 285.133 184.108 284.294 184.108 283.342ZM192.217 283.359C192.217 282.611 192.064 281.954 191.758 281.387C191.452 280.82 191.032 280.384 190.5 280.078C189.978 279.772 189.4 279.619 188.766 279.619C188.108 279.619 187.519 279.766 186.998 280.061C186.476 280.356 186.063 280.786 185.757 281.353C185.462 281.908 185.315 282.571 185.315 283.342C185.315 284.101 185.462 284.77 185.757 285.348C186.063 285.915 186.476 286.351 186.998 286.657C187.519 286.952 188.108 287.099 188.766 287.099C189.4 287.099 189.978 286.946 190.5 286.64C191.032 286.334 191.452 285.898 191.758 285.331C192.064 284.764 192.217 284.107 192.217 283.359ZM197.313 275.42V288H196.123V275.42H197.313ZM201.198 275.42V288H200.008V275.42H201.198ZM207.956 288.136C207.083 288.136 206.295 287.943 205.593 287.558C204.901 287.161 204.352 286.606 203.944 285.892C203.547 285.167 203.349 284.322 203.349 283.359C203.349 282.396 203.553 281.557 203.961 280.843C204.369 280.118 204.924 279.562 205.627 279.177C206.329 278.78 207.117 278.582 207.99 278.582C208.862 278.582 209.65 278.78 210.353 279.177C211.067 279.562 211.622 280.118 212.019 280.843C212.427 281.557 212.631 282.396 212.631 283.359C212.631 284.311 212.427 285.15 212.019 285.875C211.611 286.6 211.05 287.161 210.336 287.558C209.622 287.943 208.828 288.136 207.956 288.136ZM207.956 287.099C208.568 287.099 209.134 286.963 209.656 286.691C210.177 286.408 210.596 285.988 210.914 285.433C211.242 284.866 211.407 284.175 211.407 283.359C211.407 282.543 211.248 281.857 210.931 281.302C210.613 280.735 210.194 280.316 209.673 280.044C209.151 279.761 208.585 279.619 207.973 279.619C207.361 279.619 206.794 279.761 206.273 280.044C205.751 280.316 205.332 280.735 205.015 281.302C204.709 281.857 204.556 282.543 204.556 283.359C204.556 284.175 204.709 284.866 205.015 285.433C205.332 285.988 205.746 286.408 206.256 286.691C206.777 286.963 207.344 287.099 207.956 287.099ZM227.04 278.718L224.133 288H222.943L220.376 280.214L217.809 288H216.602L213.695 278.718H214.902L217.214 286.793L219.815 278.718H221.005L223.572 286.81L225.867 278.718H227.04ZM237.06 282.883C237.06 283.291 237.049 283.603 237.026 283.818H229.325C229.359 284.521 229.529 285.121 229.835 285.62C230.141 286.119 230.544 286.498 231.042 286.759C231.541 287.008 232.085 287.133 232.674 287.133C233.445 287.133 234.091 286.946 234.612 286.572C235.145 286.198 235.496 285.694 235.666 285.059H236.924C236.698 285.966 236.21 286.708 235.462 287.286C234.726 287.853 233.796 288.136 232.674 288.136C231.802 288.136 231.02 287.943 230.328 287.558C229.637 287.161 229.093 286.606 228.696 285.892C228.311 285.167 228.118 284.322 228.118 283.359C228.118 282.396 228.311 281.551 228.696 280.826C229.082 280.101 229.62 279.545 230.311 279.16C231.003 278.775 231.79 278.582 232.674 278.582C233.558 278.582 234.329 278.775 234.986 279.16C235.655 279.545 236.165 280.067 236.516 280.724C236.879 281.37 237.06 282.09 237.06 282.883ZM235.853 282.849C235.865 282.158 235.723 281.568 235.428 281.081C235.145 280.594 234.754 280.225 234.255 279.976C233.757 279.727 233.213 279.602 232.623 279.602C231.739 279.602 230.986 279.885 230.362 280.452C229.739 281.019 229.393 281.818 229.325 282.849H235.853ZM238.693 283.342C238.693 282.39 238.886 281.557 239.271 280.843C239.657 280.118 240.184 279.562 240.852 279.177C241.532 278.78 242.297 278.582 243.147 278.582C243.963 278.582 244.7 278.78 245.357 279.177C246.015 279.574 246.496 280.089 246.802 280.724V275.42H247.992V288H246.802V285.926C246.519 286.572 246.054 287.105 245.408 287.524C244.762 287.932 244.003 288.136 243.13 288.136C242.28 288.136 241.515 287.938 240.835 287.541C240.167 287.144 239.64 286.583 239.254 285.858C238.88 285.133 238.693 284.294 238.693 283.342ZM246.802 283.359C246.802 282.611 246.649 281.954 246.343 281.387C246.037 280.82 245.618 280.384 245.085 280.078C244.564 279.772 243.986 279.619 243.351 279.619C242.694 279.619 242.105 279.766 241.583 280.061C241.062 280.356 240.648 280.786 240.342 281.353C240.048 281.908 239.9 282.571 239.9 283.342C239.9 284.101 240.048 284.77 240.342 285.348C240.648 285.915 241.062 286.351 241.583 286.657C242.105 286.952 242.694 287.099 243.351 287.099C243.986 287.099 244.564 286.946 245.085 286.64C245.618 286.334 246.037 285.898 246.343 285.331C246.649 284.764 246.802 284.107 246.802 283.359Z" fill="white"/>
<defs>
<filter id="filter0_f" x="0.442749" y="65.9791" width="343" height="282.393" filterUnits="userSpaceOnUse" color-interpolation-filters="sRGB">
<feFlood flood-opacity="0" result="BackgroundImageFix"/>
<feBlend mode="normal" in="SourceGraphic" in2="BackgroundImageFix" result="shape"/>
<feGaussianBlur stdDeviation="7" result="effect1_foregroundBlur"/>
</filter>
<filter id="filter1_f" x="80.1829" y="73.3955" width="28.25" height="28.1672" filterUnits="userSpaceOnUse" color-interpolation-filters="sRGB">
<feFlood flood-opacity="0" result="BackgroundImageFix"/>
<feBlend mode="normal" in="SourceGraphic" in2="BackgroundImageFix" result="shape"/>
<feGaussianBlur stdDeviation="5.5" result="effect1_foregroundBlur"/>
</filter>
<filter id="filter2_f" x="235.646" y="73.3955" width="28.25" height="28.1672" filterUnits="userSpaceOnUse" color-interpolation-filters="sRGB">
<feFlood flood-opacity="0" result="BackgroundImageFix"/>
<feBlend mode="normal" in="SourceGraphic" in2="BackgroundImageFix" result="shape"/>
<feGaussianBlur stdDeviation="5.5" result="effect1_foregroundBlur"/>
</filter>
<filter id="filter3_f" x="12.9427" y="77.2456" width="318" height="257.393" filterUnits="userSpaceOnUse" color-interpolation-filters="sRGB">
<feFlood flood-opacity="0" result="BackgroundImageFix"/>
<feBlend mode="normal" in="SourceGraphic" in2="BackgroundImageFix" result="shape"/>
<feGaussianBlur stdDeviation="3" result="effect1_foregroundBlur"/>
</filter>
<filter id="filter4_f" x="88.4937" y="80.3955" width="11.75" height="11.7003" filterUnits="userSpaceOnUse" color-interpolation-filters="sRGB">
<feFlood flood-opacity="0" result="BackgroundImageFix"/>
<feBlend mode="normal" in="SourceGraphic" in2="BackgroundImageFix" result="shape"/>
<feGaussianBlur stdDeviation="2" result="effect1_foregroundBlur"/>
</filter>
<filter id="filter5_f" x="243.768" y="80.3955" width="11.75" height="11.7003" filterUnits="userSpaceOnUse" color-interpolation-filters="sRGB">
<feFlood flood-opacity="0" result="BackgroundImageFix"/>
<feBlend mode="normal" in="SourceGraphic" in2="BackgroundImageFix" result="shape"/>
<feGaussianBlur stdDeviation="2" result="effect1_foregroundBlur"/>
</filter>
<linearGradient id="paint0_linear" x1="286.954" y1="203.474" x2="50.5798" y2="203.713" gradientUnits="userSpaceOnUse">
<stop stop-color="#FF1640"/>
<stop offset="0.315399" stop-color="#FABA33"/>
<stop offset="0.573227" stop-color="#E9E031"/>
<stop offset="0.826995" stop-color="#45F273"/>
<stop offset="1" stop-color="#30FFE9"/>
</linearGradient>
<linearGradient id="paint1_linear" x1="286.954" y1="202.24" x2="50.5797" y2="202.479" gradientUnits="userSpaceOnUse">
<stop stop-color="#FF1640"/>
<stop offset="0.315399" stop-color="#FABA33"/>
<stop offset="0.573227" stop-color="#E9E031"/>
<stop offset="0.826995" stop-color="#45F273"/>
<stop offset="1" stop-color="#30FFE9"/>
</linearGradient>
</defs>
</svg>
