<svg width="344" height="349" viewBox="0 0 344 349" fill="none" xmlns="http://www.w3.org/2000/svg">
<path fill-rule="evenodd" clip-rule="evenodd" d="M159.509 89.4468V109.203C159.509 111.491 157.654 113.347 155.365 113.347C153.076 113.347 151.221 111.491 151.221 109.203V89.4468C151.221 87.1581 153.076 85.3027 155.365 85.3027C157.654 85.3027 159.509 87.1581 159.509 89.4468ZM149.221 89.4468C149.221 86.0535 151.972 83.3027 155.365 83.3027C158.759 83.3027 161.509 86.0535 161.509 89.4468V109.203C161.509 112.596 158.759 115.347 155.365 115.347C151.972 115.347 149.221 112.596 149.221 109.203V89.4468ZM176.087 109.203V89.4468C176.087 87.1581 174.232 85.3027 171.943 85.3027C169.654 85.3027 167.799 87.1581 167.799 89.4468V109.203C167.799 111.491 169.654 113.347 171.943 113.347C174.232 113.347 176.087 111.491 176.087 109.203ZM171.943 83.3027C168.549 83.3027 165.799 86.0535 165.799 89.4468V109.203C165.799 112.596 168.549 115.347 171.943 115.347C175.336 115.347 178.087 112.596 178.087 109.203V89.4468C178.087 86.0535 175.336 83.3027 171.943 83.3027ZM192.664 89.4468V109.203C192.664 111.491 190.809 113.347 188.52 113.347C186.231 113.347 184.376 111.491 184.376 109.203V89.4468C184.376 87.1581 186.231 85.3027 188.52 85.3027C190.809 85.3027 192.664 87.1581 192.664 89.4468ZM182.376 89.4468C182.376 86.0535 185.127 83.3027 188.52 83.3027C191.913 83.3027 194.664 86.0535 194.664 89.4468V109.203C194.664 112.596 191.913 115.347 188.52 115.347C185.127 115.347 182.376 112.596 182.376 109.203V89.4468ZM218.598 67.3528H125.287C123.631 67.3528 122.287 68.6959 122.287 70.3527V76.3259C122.287 77.9827 123.631 79.3259 125.287 79.3259H218.598C220.255 79.3259 221.598 77.9827 221.598 76.3259V70.3528C221.598 68.6959 220.255 67.3528 218.598 67.3528ZM125.287 65.3527C122.526 65.3527 120.287 67.5913 120.287 70.3527V76.3259C120.287 79.0873 122.526 81.3259 125.287 81.3259H127.75L127.75 81.3263L138.181 118.54C138.423 119.403 139.21 120 140.106 120H203.708C204.603 120 205.389 119.405 205.632 118.543L216.131 81.3263L216.132 81.3259H218.598C221.359 81.3259 223.598 79.0873 223.598 76.3259V70.3528C223.598 67.5913 221.359 65.3527 218.598 65.3527H125.287ZM140.106 118L129.828 81.3263H214.053L203.708 118H140.106ZM144.525 46.7912H135.481L131.613 58.0921L155.183 58.0921L151.299 46.8117H146.663H144.517L144.525 46.7912ZM145.302 44.7912H135.481C134.626 44.7912 133.865 45.3347 133.588 46.1436L129.721 57.4445C129.277 58.7425 130.241 60.0921 131.613 60.0921L155.871 60.0921L157.316 60.0921L157.986 60.0921L159.429 60.0921L184.372 60.0921L185.899 60.0921L186.487 60.0921L188.013 60.0921L212.267 60.0921C213.64 60.0921 214.605 58.7396 214.158 57.4411L210.267 46.1401C209.989 45.333 209.23 44.7912 208.376 44.7912H198.578L194.851 35.2553C194.551 34.4883 193.812 33.9835 192.988 33.9835H185.361L185.316 33.8684L181.568 24.1637C181.271 23.3927 180.529 22.8843 179.703 22.8843H164.679C163.851 22.8843 163.109 23.3945 162.812 24.1675L159.088 33.8684L159.044 33.9835H150.87C150.045 33.9835 149.305 34.4901 149.006 35.2591L145.302 44.7912ZM168.008 35.8684H175.852L172.385 44.7912H171.496L168.008 35.8684ZM197.221 46.8117H192.558L188.697 58.0921L212.267 58.0921L208.376 46.7912H199.36L199.368 46.8117H197.221ZM192.565 44.7912H196.431L192.988 35.9835H177.953L174.531 44.7912H179.793C179.889 44.7912 179.985 44.7981 180.079 44.8117L192.279 44.8117C192.372 44.7981 192.468 44.7912 192.565 44.7912ZM190.444 46.8117L181.915 46.8117L185.799 58.0921L186.192 59.2356L186.584 58.0921L190.444 46.8117ZM183.683 58.0921L179.8 46.8117H173.746L172.286 46.8117L171.6 46.8117L170.138 46.8117H163.974L160.114 58.0921L183.683 58.0921ZM151.578 44.8117C151.484 44.7981 151.389 44.7912 151.292 44.7912H147.448L150.87 35.9835H165.905L169.348 44.7912H163.981C163.884 44.7912 163.789 44.7981 163.695 44.8117L151.578 44.8117ZM153.414 46.8117L157.298 58.0921L157.65 59.115L158 58.0921L161.86 46.8117L153.414 46.8117ZM164.679 24.8843H179.703L183.172 33.8684L161.231 33.8684L164.679 24.8843ZM140.178 18.4991C140.574 18.1146 141.217 18.1146 141.613 18.4991L148.7 25.3726C149.097 25.7571 149.097 26.3805 148.7 26.765C148.304 27.1495 147.661 27.1495 147.265 26.765L140.178 19.8916C139.781 19.5071 139.781 18.8836 140.178 18.4991ZM155.004 7.91466C154.722 7.44009 154.102 7.27412 153.62 7.54396C153.138 7.81379 152.977 8.41725 153.259 8.89181L158.263 17.2969C158.545 17.7714 159.165 17.9374 159.647 17.6676C160.128 17.3977 160.29 16.7943 160.008 16.3197L155.004 7.91466ZM172.453 3.73242C173.005 3.73242 173.453 4.18014 173.453 4.73242V14.4222C173.453 14.9744 173.005 15.4222 172.453 15.4222C171.901 15.4222 171.453 14.9744 171.453 14.4222V4.73242C171.453 4.18014 171.901 3.73242 172.453 3.73242ZM192.069 9.86897C192.351 9.39441 192.189 8.79095 191.708 8.52111C191.226 8.25128 190.606 8.41725 190.324 8.89181L185.32 17.2969C185.038 17.7714 185.199 18.3749 185.681 18.6447C186.163 18.9146 186.783 18.7486 187.065 18.274L192.069 9.86897ZM204.945 18.8524C205.342 19.2369 205.342 19.8603 204.945 20.2448L197.858 27.1183C197.462 27.5028 196.819 27.5028 196.423 27.1183C196.026 26.7338 196.026 26.1104 196.423 25.7258L203.51 18.8524C203.906 18.4679 204.549 18.4679 204.945 18.8524ZM137.69 17.4222C138.242 17.4222 138.69 16.9744 138.69 16.4222C138.69 15.8699 138.242 15.4222 137.69 15.4222C137.138 15.4222 136.69 15.8699 136.69 16.4222C136.69 16.9744 137.138 17.4222 137.69 17.4222ZM208.073 16.4221C208.073 16.9744 207.625 17.4221 207.073 17.4221C206.521 17.4221 206.073 16.9744 206.073 16.4221C206.073 15.8699 206.521 15.4221 207.073 15.4221C207.625 15.4221 208.073 15.8699 208.073 16.4221Z" fill="white"/>
<path d="M71.8427 159.958V169.75C71.8427 170.87 72.0907 171.726 72.5867 172.318C73.0987 172.91 73.8347 173.206 74.7947 173.206C75.7547 173.206 76.4827 172.91 76.9787 172.318C77.4907 171.726 77.7467 170.87 77.7467 169.75V159.958H81.8507V169.75C81.8507 171.35 81.5387 172.702 80.9148 173.806C80.2907 174.894 79.4347 175.718 78.3467 176.278C77.2747 176.822 76.0587 177.094 74.6987 177.094C73.3387 177.094 72.1387 176.822 71.0987 176.278C70.0587 175.734 69.2427 174.91 68.6507 173.806C68.0587 172.702 67.7627 171.35 67.7627 169.75V159.958H71.8427ZM93.0891 163.39C94.6251 163.39 95.8411 163.902 96.7371 164.926C97.6491 165.95 98.1051 167.358 98.1051 169.15V176.926H94.0011V169.63C94.0011 168.734 93.7611 168.038 93.2811 167.542C92.8171 167.03 92.1931 166.774 91.4091 166.774C90.5771 166.774 89.9131 167.038 89.4171 167.566C88.9371 168.094 88.6971 168.846 88.6971 169.822V176.926H84.5931V163.534H88.6971V165.982C89.0811 165.182 89.6491 164.55 90.4011 164.086C91.1691 163.622 92.0651 163.39 93.0891 163.39ZM105.9 163.366C106.924 163.366 107.804 163.598 108.54 164.062C109.276 164.526 109.812 165.158 110.148 165.958V159.166H114.252V176.926H110.148V174.502C109.812 175.302 109.276 175.934 108.54 176.398C107.804 176.862 106.924 177.094 105.9 177.094C104.796 177.094 103.804 176.822 102.924 176.278C102.06 175.718 101.372 174.918 100.86 173.878C100.364 172.838 100.116 171.622 100.116 170.23C100.116 168.822 100.364 167.606 100.86 166.582C101.372 165.542 102.06 164.75 102.924 164.206C103.804 163.646 104.796 163.366 105.9 163.366ZM107.22 166.966C106.34 166.966 105.628 167.254 105.084 167.83C104.556 168.406 104.292 169.206 104.292 170.23C104.292 171.254 104.556 172.054 105.084 172.63C105.628 173.206 106.34 173.494 107.22 173.494C108.084 173.494 108.788 173.198 109.332 172.606C109.892 172.014 110.172 171.222 110.172 170.23C110.172 169.222 109.892 168.43 109.332 167.854C108.788 167.262 108.084 166.966 107.22 166.966ZM129.798 169.87C129.798 170.206 129.758 170.574 129.678 170.974H120.389C120.437 171.982 120.693 172.71 121.157 173.158C121.621 173.59 122.213 173.806 122.933 173.806C123.541 173.806 124.045 173.654 124.445 173.35C124.845 173.046 125.109 172.654 125.237 172.174H129.582C129.405 173.118 129.021 173.966 128.429 174.718C127.837 175.454 127.085 176.038 126.173 176.47C125.261 176.886 124.245 177.094 123.125 177.094C121.813 177.094 120.645 176.822 119.621 176.278C118.613 175.718 117.821 174.918 117.245 173.878C116.669 172.838 116.381 171.622 116.381 170.23C116.381 168.822 116.661 167.606 117.221 166.582C117.797 165.542 118.597 164.75 119.621 164.206C120.645 163.646 121.813 163.366 123.125 163.366C124.453 163.366 125.621 163.638 126.629 164.182C127.637 164.726 128.413 165.494 128.957 166.486C129.517 167.462 129.798 168.59 129.798 169.87ZM125.645 169.246C125.661 168.366 125.421 167.71 124.925 167.278C124.445 166.83 123.845 166.606 123.125 166.606C122.373 166.606 121.749 166.83 121.253 167.278C120.757 167.726 120.477 168.382 120.413 169.246H125.645ZM136.041 166.054C136.553 165.238 137.209 164.59 138.009 164.11C138.825 163.63 139.705 163.39 140.649 163.39V167.782H139.473C138.385 167.782 137.537 168.014 136.929 168.478C136.337 168.942 136.041 169.726 136.041 170.83V176.926H131.937V163.534H136.041V166.054ZM146.471 159.166V176.926H142.367V159.166H146.471ZM152.4 163.534L155.616 171.742L158.616 163.534H163.152L154.8 183.31H150.288L153.432 176.422L147.816 163.534H152.4ZM164.131 159.766C164.131 159.142 164.355 158.63 164.803 158.23C165.251 157.814 165.843 157.606 166.579 157.606C167.315 157.606 167.907 157.814 168.355 158.23C168.803 158.63 169.027 159.142 169.027 159.766C169.027 160.374 168.803 160.886 168.355 161.302C167.907 161.702 167.315 161.902 166.579 161.902C165.843 161.902 165.251 161.702 164.803 161.302C164.355 160.886 164.131 160.374 164.131 159.766ZM168.619 163.534V176.926H164.515V163.534H168.619ZM179.948 163.39C181.484 163.39 182.7 163.902 183.596 164.926C184.508 165.95 184.964 167.358 184.964 169.15V176.926H180.86V169.63C180.86 168.734 180.62 168.038 180.14 167.542C179.676 167.03 179.052 166.774 178.268 166.774C177.436 166.774 176.772 167.038 176.276 167.566C175.796 168.094 175.556 168.846 175.556 169.822V176.926H171.452V163.534H175.556V165.982C175.94 165.182 176.508 164.55 177.26 164.086C178.028 163.622 178.924 163.39 179.948 163.39ZM192.759 163.366C193.783 163.366 194.663 163.598 195.399 164.062C196.135 164.526 196.679 165.158 197.031 165.958V163.534H201.111V176.854C201.111 178.102 200.871 179.222 200.391 180.214C199.911 181.222 199.175 182.022 198.183 182.614C197.191 183.206 195.959 183.502 194.487 183.502C192.471 183.502 190.855 183.022 189.639 182.062C188.439 181.118 187.719 179.83 187.479 178.198H191.535C191.663 178.742 191.951 179.166 192.399 179.47C192.863 179.774 193.463 179.926 194.199 179.926C195.047 179.926 195.727 179.678 196.239 179.182C196.767 178.702 197.031 177.926 197.031 176.854V174.502C196.679 175.302 196.135 175.934 195.399 176.398C194.663 176.862 193.783 177.094 192.759 177.094C191.655 177.094 190.663 176.822 189.783 176.278C188.919 175.718 188.231 174.918 187.719 173.878C187.223 172.838 186.975 171.622 186.975 170.23C186.975 168.822 187.223 167.606 187.719 166.582C188.231 165.542 188.919 164.75 189.783 164.206C190.663 163.646 191.655 163.366 192.759 163.366ZM194.079 166.966C193.199 166.966 192.487 167.254 191.943 167.83C191.415 168.406 191.151 169.206 191.151 170.23C191.151 171.254 191.415 172.054 191.943 172.63C192.487 173.206 193.199 173.494 194.079 173.494C194.943 173.494 195.647 173.198 196.191 172.606C196.751 172.014 197.031 171.222 197.031 170.23C197.031 169.222 196.751 168.43 196.191 167.854C195.647 167.262 194.943 166.966 194.079 166.966ZM214.934 172.918L217.838 163.534H222.206L217.454 176.926H212.366L207.614 163.534H211.982L214.934 172.918ZM228.994 163.366C230.018 163.366 230.898 163.598 231.634 164.062C232.37 164.526 232.914 165.158 233.266 165.958V163.534H237.346V176.926H233.266V174.502C232.914 175.302 232.37 175.934 231.634 176.398C230.898 176.862 230.018 177.094 228.994 177.094C227.89 177.094 226.898 176.822 226.018 176.278C225.154 175.718 224.466 174.918 223.954 173.878C223.458 172.838 223.21 171.622 223.21 170.23C223.21 168.822 223.458 167.606 223.954 166.582C224.466 165.542 225.154 164.75 226.018 164.206C226.898 163.646 227.89 163.366 228.994 163.366ZM230.314 166.966C229.434 166.966 228.722 167.254 228.178 167.83C227.65 168.406 227.386 169.206 227.386 170.23C227.386 171.254 227.65 172.054 228.178 172.63C228.722 173.206 229.434 173.494 230.314 173.494C231.178 173.494 231.882 173.198 232.426 172.606C232.986 172.014 233.266 171.222 233.266 170.23C233.266 169.222 232.986 168.43 232.426 167.854C231.882 167.262 231.178 166.966 230.314 166.966ZM244.275 159.166V176.926H240.171V159.166H244.275ZM260.429 163.534V176.926H256.301V174.502C255.917 175.286 255.341 175.91 254.573 176.374C253.821 176.838 252.941 177.07 251.933 177.07C250.397 177.07 249.173 176.558 248.261 175.534C247.365 174.51 246.917 173.102 246.917 171.31V163.534H250.997V170.806C250.997 171.718 251.229 172.43 251.693 172.942C252.173 173.438 252.813 173.686 253.613 173.686C254.445 173.686 255.101 173.422 255.581 172.894C256.061 172.366 256.301 171.614 256.301 170.638V163.534H260.429ZM275.977 169.87C275.977 170.206 275.937 170.574 275.857 170.974H266.569C266.617 171.982 266.873 172.71 267.337 173.158C267.801 173.59 268.393 173.806 269.113 173.806C269.721 173.806 270.225 173.654 270.625 173.35C271.025 173.046 271.289 172.654 271.417 172.174H275.761C275.585 173.118 275.201 173.966 274.609 174.718C274.017 175.454 273.265 176.038 272.353 176.47C271.441 176.886 270.425 177.094 269.305 177.094C267.993 177.094 266.825 176.822 265.801 176.278C264.793 175.718 264.001 174.918 263.425 173.878C262.849 172.838 262.561 171.622 262.561 170.23C262.561 168.822 262.841 167.606 263.401 166.582C263.977 165.542 264.777 164.75 265.801 164.206C266.825 163.646 267.993 163.366 269.305 163.366C270.633 163.366 271.801 163.638 272.809 164.182C273.817 164.726 274.593 165.494 275.137 166.486C275.697 167.462 275.977 168.59 275.977 169.87ZM271.825 169.246C271.841 168.366 271.601 167.71 271.105 167.278C270.625 166.83 270.025 166.606 269.305 166.606C268.553 166.606 267.929 166.83 267.433 167.278C266.937 167.726 266.657 168.382 266.593 169.246H271.825Z" fill="white"/>
<path d="M58.945 206.314C58.945 206.826 58.8223 207.312 58.577 207.77C58.3423 208.218 57.9743 208.586 57.473 208.874C56.9717 209.152 56.3477 209.29 55.601 209.29C54.8757 209.29 54.2303 209.157 53.665 208.89C53.0997 208.624 52.6463 208.261 52.305 207.802C51.9743 207.333 51.7823 206.81 51.729 206.234H52.913C52.9557 206.565 53.0783 206.896 53.281 207.226C53.4837 207.557 53.777 207.834 54.161 208.058C54.545 208.272 55.009 208.378 55.553 208.378C56.2677 208.378 56.8117 208.186 57.185 207.802C57.569 207.418 57.761 206.933 57.761 206.346C57.761 205.845 57.633 205.44 57.377 205.13C57.1317 204.81 56.8223 204.565 56.449 204.394C56.0863 204.224 55.585 204.037 54.945 203.834C54.241 203.61 53.6703 203.397 53.233 203.194C52.8063 202.981 52.4437 202.672 52.145 202.266C51.8463 201.861 51.697 201.322 51.697 200.65C51.697 199.797 51.9957 199.104 52.593 198.57C53.1903 198.037 54.0117 197.77 55.057 197.77C56.1237 197.77 56.9663 198.032 57.585 198.554C58.2143 199.077 58.5877 199.728 58.705 200.506H57.505C57.409 200.026 57.153 199.6 56.737 199.226C56.3317 198.853 55.7717 198.666 55.057 198.666C54.3957 198.666 53.8677 198.837 53.473 199.178C53.0783 199.52 52.881 199.994 52.881 200.602C52.881 201.082 53.0037 201.472 53.249 201.77C53.4943 202.069 53.793 202.298 54.145 202.458C54.5077 202.618 54.9983 202.8 55.617 203.002C56.3317 203.226 56.9077 203.445 57.345 203.658C57.793 203.872 58.1717 204.192 58.481 204.618C58.7903 205.045 58.945 205.61 58.945 206.314ZM61.3709 197.898L65.0029 207.866L68.6669 197.898H69.8989L65.7069 209.178H64.3149L60.1389 197.898H61.3709ZM77.5192 209.178L74.4312 204.474H72.6072V209.178H71.4712V197.898H74.9272C76.1966 197.898 77.1406 198.197 77.7592 198.794C78.3886 199.392 78.7032 200.197 78.7032 201.21C78.7032 202.149 78.4366 202.896 77.9032 203.45C77.3806 204.005 76.6179 204.336 75.6152 204.442L78.7992 209.178H77.5192ZM72.6072 203.626H74.8472C76.6606 203.626 77.5672 202.842 77.5672 201.274C77.5672 199.674 76.6606 198.874 74.8472 198.874H72.6072V203.626ZM81.2526 196.794C81.3486 197.317 81.3966 197.77 81.3966 198.154C81.3966 199.253 80.9113 199.802 79.9406 199.802V199.242C80.2073 199.242 80.3993 199.173 80.5166 199.034C80.634 198.896 80.6926 198.688 80.6926 198.41V198.01H79.9566V196.794H81.2526ZM85.8144 200.33C86.7637 200.33 87.5264 200.581 88.1024 201.082C88.6784 201.584 89.0304 202.261 89.1584 203.114H88.0864C88.0224 202.549 87.7877 202.085 87.3824 201.722C86.9877 201.349 86.4544 201.162 85.7824 201.162C85.2064 201.162 84.753 201.306 84.4224 201.594C84.1024 201.872 83.9424 202.245 83.9424 202.714C83.9424 203.066 84.0437 203.349 84.2464 203.562C84.4597 203.776 84.721 203.941 85.0304 204.058C85.3397 204.165 85.7557 204.277 86.2784 204.394C86.9184 204.544 87.4304 204.698 87.8144 204.858C88.209 205.008 88.545 205.248 88.8224 205.578C89.0997 205.909 89.2384 206.357 89.2384 206.922C89.2384 207.616 88.977 208.186 88.4544 208.634C87.9424 209.072 87.2597 209.29 86.4064 209.29C85.4037 209.29 84.5824 209.045 83.9424 208.554C83.3024 208.053 82.9237 207.37 82.8064 206.506H83.8944C83.9584 207.082 84.209 207.552 84.6464 207.914C85.0837 208.277 85.6757 208.458 86.4224 208.458C86.977 208.458 87.409 208.314 87.7184 208.026C88.0277 207.738 88.1824 207.365 88.1824 206.906C88.1824 206.533 88.0757 206.234 87.8624 206.01C87.649 205.786 87.3824 205.621 87.0624 205.514C86.753 205.397 86.3264 205.274 85.7824 205.146C85.153 204.997 84.6464 204.848 84.2624 204.698C83.889 204.549 83.569 204.32 83.3024 204.01C83.0357 203.69 82.9024 203.258 82.9024 202.714C82.9024 202 83.1637 201.424 83.6864 200.986C84.209 200.549 84.9184 200.33 85.8144 200.33ZM99.408 208.186V209.178H98.368C97.5253 209.178 96.896 208.981 96.48 208.586C96.064 208.181 95.856 207.504 95.856 206.554V201.418H94.528V200.442H95.856V198.234H96.992V200.442H99.392V201.418H96.992V206.57C96.992 207.189 97.104 207.616 97.328 207.85C97.552 208.074 97.9467 208.186 98.512 208.186H99.408ZM105.204 200.33C106.036 200.33 106.778 200.512 107.428 200.874C108.09 201.226 108.607 201.744 108.98 202.426C109.354 203.098 109.54 203.893 109.54 204.81C109.54 205.728 109.354 206.522 108.98 207.194C108.607 207.866 108.09 208.384 107.428 208.746C106.778 209.109 106.036 209.29 105.204 209.29C104.372 209.29 103.626 209.109 102.964 208.746C102.303 208.384 101.78 207.866 101.396 207.194C101.023 206.512 100.836 205.717 100.836 204.81C100.836 203.893 101.023 203.098 101.396 202.426C101.78 201.744 102.303 201.226 102.964 200.874C103.626 200.512 104.372 200.33 105.204 200.33ZM105.204 201.306C104.628 201.306 104.095 201.434 103.604 201.69C103.114 201.946 102.719 202.341 102.42 202.874C102.122 203.397 101.972 204.042 101.972 204.81C101.972 205.578 102.122 206.224 102.42 206.746C102.719 207.269 103.114 207.658 103.604 207.914C104.095 208.17 104.628 208.298 105.204 208.298C105.77 208.298 106.292 208.17 106.772 207.914C107.263 207.658 107.658 207.269 107.956 206.746C108.255 206.224 108.404 205.578 108.404 204.81C108.404 204.042 108.255 203.397 107.956 202.874C107.658 202.341 107.263 201.946 106.772 201.69C106.292 201.434 105.77 201.306 105.204 201.306ZM116.221 209.178L112.685 205.178V209.178H111.549V197.338H112.685V204.282L116.157 200.442H117.549L113.533 204.762L117.661 209.178H116.221ZM122.795 208.362C123.584 208.362 124.246 208.165 124.779 207.77C125.312 207.376 125.632 206.842 125.739 206.17H126.923C126.763 207.098 126.32 207.85 125.595 208.426C124.87 209.002 123.952 209.29 122.843 209.29C122.011 209.29 121.27 209.114 120.619 208.762C119.979 208.4 119.478 207.882 119.115 207.21C118.752 206.528 118.571 205.728 118.571 204.81C118.571 203.893 118.752 203.098 119.115 202.426C119.478 201.744 119.979 201.226 120.619 200.874C121.27 200.512 122.011 200.33 122.843 200.33C123.696 200.33 124.432 200.512 125.051 200.874C125.68 201.226 126.155 201.701 126.475 202.298C126.806 202.896 126.971 203.546 126.971 204.25C126.971 204.549 126.95 204.821 126.907 205.066H119.675C119.686 205.802 119.835 206.421 120.123 206.922C120.422 207.413 120.806 207.776 121.275 208.01C121.744 208.245 122.251 208.362 122.795 208.362ZM122.843 201.242C122.278 201.242 121.76 201.36 121.291 201.594C120.822 201.829 120.438 202.192 120.139 202.682C119.851 203.162 119.696 203.765 119.675 204.49H125.851C125.894 203.776 125.776 203.173 125.499 202.682C125.222 202.192 124.848 201.829 124.379 201.594C123.91 201.36 123.398 201.242 122.843 201.242ZM133.355 200.282C134.368 200.282 135.19 200.608 135.819 201.258C136.459 201.898 136.779 202.842 136.779 204.09V209.178H135.675V204.17C135.675 203.221 135.435 202.496 134.955 201.994C134.475 201.482 133.819 201.226 132.987 201.226C132.112 201.226 131.414 201.509 130.891 202.074C130.379 202.629 130.123 203.45 130.123 204.538V209.178H128.987V200.442H130.123V202.586C130.347 201.84 130.752 201.269 131.339 200.874C131.926 200.48 132.598 200.282 133.355 200.282ZM147.971 200.33C148.771 200.33 149.475 200.512 150.083 200.874C150.702 201.226 151.182 201.744 151.523 202.426C151.875 203.098 152.051 203.893 152.051 204.81C152.051 205.717 151.875 206.512 151.523 207.194C151.182 207.866 150.702 208.384 150.083 208.746C149.465 209.109 148.761 209.29 147.971 209.29C147.075 209.29 146.318 209.061 145.699 208.602C145.081 208.144 144.654 207.536 144.419 206.778V209.178H143.299V197.338H144.419V202.842C144.654 202.085 145.081 201.477 145.699 201.018C146.318 200.56 147.075 200.33 147.971 200.33ZM147.667 201.322C147.049 201.322 146.489 201.466 145.987 201.754C145.497 202.042 145.113 202.453 144.835 202.986C144.558 203.509 144.419 204.117 144.419 204.81C144.419 205.504 144.558 206.117 144.835 206.65C145.113 207.173 145.497 207.578 145.987 207.866C146.489 208.154 147.049 208.298 147.667 208.298C148.659 208.298 149.449 207.989 150.035 207.37C150.622 206.741 150.915 205.888 150.915 204.81C150.915 203.733 150.622 202.885 150.035 202.266C149.449 201.637 148.659 201.322 147.667 201.322ZM157.745 200.33C158.63 200.33 159.382 200.56 160.001 201.018C160.63 201.477 161.062 202.085 161.297 202.842V200.442H162.401V209.178H161.297V206.778C161.062 207.536 160.63 208.144 160.001 208.602C159.382 209.061 158.63 209.29 157.745 209.29C156.956 209.29 156.246 209.109 155.617 208.746C154.998 208.384 154.513 207.866 154.161 207.194C153.82 206.512 153.649 205.717 153.649 204.81C153.649 203.893 153.82 203.098 154.161 202.426C154.513 201.744 154.998 201.226 155.617 200.874C156.236 200.512 156.945 200.33 157.745 200.33ZM158.033 201.322C157.052 201.322 156.262 201.637 155.665 202.266C155.078 202.885 154.785 203.733 154.785 204.81C154.785 205.888 155.078 206.741 155.665 207.37C156.262 207.989 157.052 208.298 158.033 208.298C158.652 208.298 159.206 208.154 159.697 207.866C160.198 207.578 160.588 207.173 160.865 206.65C161.153 206.117 161.297 205.504 161.297 204.81C161.297 204.117 161.153 203.509 160.865 202.986C160.588 202.453 160.198 202.042 159.697 201.754C159.206 201.466 158.652 201.322 158.033 201.322ZM167.471 200.33C168.42 200.33 169.183 200.581 169.759 201.082C170.335 201.584 170.687 202.261 170.815 203.114H169.743C169.679 202.549 169.444 202.085 169.039 201.722C168.644 201.349 168.111 201.162 167.439 201.162C166.863 201.162 166.409 201.306 166.079 201.594C165.759 201.872 165.599 202.245 165.599 202.714C165.599 203.066 165.7 203.349 165.903 203.562C166.116 203.776 166.377 203.941 166.687 204.058C166.996 204.165 167.412 204.277 167.935 204.394C168.575 204.544 169.087 204.698 169.471 204.858C169.865 205.008 170.201 205.248 170.479 205.578C170.756 205.909 170.895 206.357 170.895 206.922C170.895 207.616 170.633 208.186 170.111 208.634C169.599 209.072 168.916 209.29 168.063 209.29C167.06 209.29 166.239 209.045 165.599 208.554C164.959 208.053 164.58 207.37 164.463 206.506H165.551C165.615 207.082 165.865 207.552 166.303 207.914C166.74 208.277 167.332 208.458 168.079 208.458C168.633 208.458 169.065 208.314 169.375 208.026C169.684 207.738 169.839 207.365 169.839 206.906C169.839 206.533 169.732 206.234 169.519 206.01C169.305 205.786 169.039 205.621 168.719 205.514C168.409 205.397 167.983 205.274 167.439 205.146C166.809 204.997 166.303 204.848 165.919 204.698C165.545 204.549 165.225 204.32 164.959 204.01C164.692 203.69 164.559 203.258 164.559 202.714C164.559 202 164.82 201.424 165.343 200.986C165.865 200.549 166.575 200.33 167.471 200.33ZM177.612 209.178L174.076 205.178V209.178H172.94V197.338H174.076V204.282L177.548 200.442H178.94L174.924 204.762L179.052 209.178H177.612ZM184.185 208.362C184.975 208.362 185.636 208.165 186.169 207.77C186.703 207.376 187.023 206.842 187.129 206.17H188.313C188.153 207.098 187.711 207.85 186.985 208.426C186.26 209.002 185.343 209.29 184.233 209.29C183.401 209.29 182.66 209.114 182.009 208.762C181.369 208.4 180.868 207.882 180.505 207.21C180.143 206.528 179.961 205.728 179.961 204.81C179.961 203.893 180.143 203.098 180.505 202.426C180.868 201.744 181.369 201.226 182.009 200.874C182.66 200.512 183.401 200.33 184.233 200.33C185.087 200.33 185.823 200.512 186.441 200.874C187.071 201.226 187.545 201.701 187.865 202.298C188.196 202.896 188.361 203.546 188.361 204.25C188.361 204.549 188.34 204.821 188.297 205.066H181.065C181.076 205.802 181.225 206.421 181.513 206.922C181.812 207.413 182.196 207.776 182.665 208.01C183.135 208.245 183.641 208.362 184.185 208.362ZM184.233 201.242C183.668 201.242 183.151 201.36 182.681 201.594C182.212 201.829 181.828 202.192 181.529 202.682C181.241 203.162 181.087 203.765 181.065 204.49H187.241C187.284 203.776 187.167 203.173 186.889 202.682C186.612 202.192 186.239 201.829 185.769 201.594C185.3 201.36 184.788 201.242 184.233 201.242ZM194.345 208.186V209.178H193.305C192.463 209.178 191.833 208.981 191.417 208.586C191.001 208.181 190.793 207.504 190.793 206.554V201.418H189.465V200.442H190.793V198.234H191.929V200.442H194.329V201.418H191.929V206.57C191.929 207.189 192.041 207.616 192.265 207.85C192.489 208.074 192.884 208.186 193.449 208.186H194.345ZM200.09 197.85C200.09 197.616 200.165 197.429 200.314 197.29C200.474 197.152 200.677 197.082 200.922 197.082C201.168 197.082 201.365 197.152 201.514 197.29C201.664 197.429 201.738 197.616 201.738 197.85C201.738 198.074 201.664 198.256 201.514 198.394C201.365 198.533 201.168 198.602 200.922 198.602C200.677 198.602 200.474 198.533 200.314 198.394C200.165 198.256 200.09 198.074 200.09 197.85ZM201.482 200.442V209.178H200.346V200.442H201.482ZM206.549 200.33C207.498 200.33 208.261 200.581 208.837 201.082C209.413 201.584 209.765 202.261 209.893 203.114H208.821C208.757 202.549 208.522 202.085 208.117 201.722C207.722 201.349 207.189 201.162 206.517 201.162C205.941 201.162 205.487 201.306 205.157 201.594C204.837 201.872 204.677 202.245 204.677 202.714C204.677 203.066 204.778 203.349 204.981 203.562C205.194 203.776 205.455 203.941 205.765 204.058C206.074 204.165 206.49 204.277 207.013 204.394C207.653 204.544 208.165 204.698 208.549 204.858C208.943 205.008 209.279 205.248 209.557 205.578C209.834 205.909 209.973 206.357 209.973 206.922C209.973 207.616 209.711 208.186 209.189 208.634C208.677 209.072 207.994 209.29 207.141 209.29C206.138 209.29 205.317 209.045 204.677 208.554C204.037 208.053 203.658 207.37 203.541 206.506H204.629C204.693 207.082 204.943 207.552 205.381 207.914C205.818 208.277 206.41 208.458 207.157 208.458C207.711 208.458 208.143 208.314 208.453 208.026C208.762 207.738 208.917 207.365 208.917 206.906C208.917 206.533 208.81 206.234 208.597 206.01C208.383 205.786 208.117 205.621 207.797 205.514C207.487 205.397 207.061 205.274 206.517 205.146C205.887 204.997 205.381 204.848 204.997 204.698C204.623 204.549 204.303 204.32 204.037 204.01C203.77 203.69 203.637 203.258 203.637 202.714C203.637 202 203.898 201.424 204.421 200.986C204.943 200.549 205.653 200.33 206.549 200.33ZM215.918 197.85C215.918 197.616 215.993 197.429 216.142 197.29C216.302 197.152 216.505 197.082 216.75 197.082C216.996 197.082 217.193 197.152 217.342 197.29C217.492 197.429 217.566 197.616 217.566 197.85C217.566 198.074 217.492 198.256 217.342 198.394C217.193 198.533 216.996 198.602 216.75 198.602C216.505 198.602 216.302 198.533 216.142 198.394C215.993 198.256 215.918 198.074 215.918 197.85ZM217.31 200.442V209.178H216.174V200.442H217.31ZM224.105 200.282C225.118 200.282 225.94 200.608 226.569 201.258C227.209 201.898 227.529 202.842 227.529 204.09V209.178H226.425V204.17C226.425 203.221 226.185 202.496 225.705 201.994C225.225 201.482 224.569 201.226 223.737 201.226C222.862 201.226 222.164 201.509 221.641 202.074C221.129 202.629 220.873 203.45 220.873 204.538V209.178H219.737V200.442H220.873V202.586C221.097 201.84 221.502 201.269 222.089 200.874C222.676 200.48 223.348 200.282 224.105 200.282ZM234.261 200.282C235.274 200.282 236.096 200.608 236.725 201.258C237.365 201.898 237.685 202.842 237.685 204.09V209.178H236.581V204.17C236.581 203.221 236.341 202.496 235.861 201.994C235.381 201.482 234.725 201.226 233.893 201.226C233.018 201.226 232.32 201.509 231.797 202.074C231.285 202.629 231.029 203.45 231.029 204.538V209.178H229.893V197.338H231.029V202.586C231.253 201.84 231.658 201.269 232.245 200.874C232.832 200.48 233.504 200.282 234.261 200.282ZM243.857 208.362C244.647 208.362 245.308 208.165 245.841 207.77C246.375 207.376 246.695 206.842 246.801 206.17H247.985C247.825 207.098 247.383 207.85 246.657 208.426C245.932 209.002 245.015 209.29 243.905 209.29C243.073 209.29 242.332 209.114 241.681 208.762C241.041 208.4 240.54 207.882 240.177 207.21C239.815 206.528 239.633 205.728 239.633 204.81C239.633 203.893 239.815 203.098 240.177 202.426C240.54 201.744 241.041 201.226 241.681 200.874C242.332 200.512 243.073 200.33 243.905 200.33C244.759 200.33 245.495 200.512 246.113 200.874C246.743 201.226 247.217 201.701 247.537 202.298C247.868 202.896 248.033 203.546 248.033 204.25C248.033 204.549 248.012 204.821 247.969 205.066H240.737C240.748 205.802 240.897 206.421 241.185 206.922C241.484 207.413 241.868 207.776 242.337 208.01C242.807 208.245 243.313 208.362 243.857 208.362ZM243.905 201.242C243.34 201.242 242.823 201.36 242.353 201.594C241.884 201.829 241.5 202.192 241.201 202.682C240.913 203.162 240.759 203.765 240.737 204.49H246.913C246.956 203.776 246.839 203.173 246.561 202.682C246.284 202.192 245.911 201.829 245.441 201.594C244.972 201.36 244.46 201.242 243.905 201.242ZM251.185 202.25C251.441 201.621 251.852 201.136 252.417 200.794C252.983 200.453 253.671 200.282 254.481 200.282V201.498H254.113C253.271 201.498 252.572 201.728 252.017 202.186C251.463 202.634 251.185 203.37 251.185 204.394V209.178H250.049V200.442H251.185V202.25ZM259.779 208.362C260.569 208.362 261.23 208.165 261.763 207.77C262.297 207.376 262.617 206.842 262.723 206.17H263.907C263.747 207.098 263.305 207.85 262.579 208.426C261.854 209.002 260.937 209.29 259.827 209.29C258.995 209.29 258.254 209.114 257.603 208.762C256.963 208.4 256.462 207.882 256.099 207.21C255.737 206.528 255.555 205.728 255.555 204.81C255.555 203.893 255.737 203.098 256.099 202.426C256.462 201.744 256.963 201.226 257.603 200.874C258.254 200.512 258.995 200.33 259.827 200.33C260.681 200.33 261.417 200.512 262.035 200.874C262.665 201.226 263.139 201.701 263.459 202.298C263.79 202.896 263.955 203.546 263.955 204.25C263.955 204.549 263.934 204.821 263.891 205.066H256.659C256.67 205.802 256.819 206.421 257.107 206.922C257.406 207.413 257.79 207.776 258.259 208.01C258.729 208.245 259.235 208.362 259.779 208.362ZM259.827 201.242C259.262 201.242 258.745 201.36 258.275 201.594C257.806 201.829 257.422 202.192 257.123 202.682C256.835 203.162 256.681 203.765 256.659 204.49H262.835C262.878 203.776 262.761 203.173 262.483 202.682C262.206 202.192 261.833 201.829 261.363 201.594C260.894 201.36 260.382 201.242 259.827 201.242ZM270.339 200.282C271.353 200.282 272.174 200.608 272.803 201.258C273.443 201.898 273.763 202.842 273.763 204.09V209.178H272.659V204.17C272.659 203.221 272.419 202.496 271.939 201.994C271.459 201.482 270.803 201.226 269.971 201.226C269.097 201.226 268.398 201.509 267.875 202.074C267.363 202.629 267.107 203.45 267.107 204.538V209.178H265.971V200.442H267.107V202.586C267.331 201.84 267.737 201.269 268.323 200.874C268.91 200.48 269.582 200.282 270.339 200.282ZM280.095 208.186V209.178H279.055C278.213 209.178 277.583 208.981 277.167 208.586C276.751 208.181 276.543 207.504 276.543 206.554V201.418H275.215V200.442H276.543V198.234H277.679V200.442H280.079V201.418H277.679V206.57C277.679 207.189 277.791 207.616 278.015 207.85C278.239 208.074 278.634 208.186 279.199 208.186H280.095ZM283.076 197.338V209.178H281.94V197.338H283.076ZM285.742 200.442L288.782 207.722L291.582 200.442H292.83L287.694 213.306H286.414L288.174 209.082L284.494 200.442H285.742ZM48.7299 224.282C49.7432 224.282 50.5645 224.608 51.1939 225.258C51.8339 225.898 52.1539 226.842 52.1539 228.09V233.178H51.0499V228.17C51.0499 227.221 50.8099 226.496 50.3299 225.994C49.8499 225.482 49.1939 225.226 48.3619 225.226C47.4872 225.226 46.7885 225.509 46.2659 226.074C45.7539 226.629 45.4979 227.45 45.4979 228.538V233.178H44.3619V224.442H45.4979V226.586C45.7219 225.84 46.1272 225.269 46.7139 224.874C47.3005 224.48 47.9725 224.282 48.7299 224.282ZM58.4701 224.33C59.3021 224.33 60.0435 224.512 60.6941 224.874C61.3555 225.226 61.8728 225.744 62.2461 226.426C62.6195 227.098 62.8061 227.893 62.8061 228.81C62.8061 229.728 62.6195 230.522 62.2461 231.194C61.8728 231.866 61.3555 232.384 60.6941 232.746C60.0435 233.109 59.3021 233.29 58.4701 233.29C57.6381 233.29 56.8915 233.109 56.2301 232.746C55.5688 232.384 55.0461 231.866 54.6621 231.194C54.2888 230.512 54.1021 229.717 54.1021 228.81C54.1021 227.893 54.2888 227.098 54.6621 226.426C55.0461 225.744 55.5688 225.226 56.2301 224.874C56.8915 224.512 57.6381 224.33 58.4701 224.33ZM58.4701 225.306C57.8941 225.306 57.3608 225.434 56.8701 225.69C56.3795 225.946 55.9848 226.341 55.6861 226.874C55.3875 227.397 55.2381 228.042 55.2381 228.81C55.2381 229.578 55.3875 230.224 55.6861 230.746C55.9848 231.269 56.3795 231.658 56.8701 231.914C57.3608 232.17 57.8941 232.298 58.4701 232.298C59.0355 232.298 59.5581 232.17 60.0381 231.914C60.5288 231.658 60.9235 231.269 61.2221 230.746C61.5208 230.224 61.6701 229.578 61.6701 228.81C61.6701 228.042 61.5208 227.397 61.2221 226.874C60.9235 226.341 60.5288 225.946 60.0381 225.69C59.5581 225.434 59.0355 225.306 58.4701 225.306ZM69.183 224.282C70.1963 224.282 71.0177 224.608 71.647 225.258C72.287 225.898 72.607 226.842 72.607 228.09V233.178H71.503V228.17C71.503 227.221 71.263 226.496 70.783 225.994C70.303 225.482 69.647 225.226 68.815 225.226C67.9403 225.226 67.2417 225.509 66.719 226.074C66.207 226.629 65.951 227.45 65.951 228.538V233.178H64.815V224.442H65.951V226.586C66.175 225.84 66.5803 225.269 67.167 224.874C67.7537 224.48 68.4257 224.282 69.183 224.282ZM79.6592 226.778V227.722H73.4192V226.778H79.6592ZM82.3402 221.85C82.3402 221.616 82.4149 221.429 82.5642 221.29C82.7242 221.152 82.9269 221.082 83.1722 221.082C83.4176 221.082 83.6149 221.152 83.7642 221.29C83.9136 221.429 83.9882 221.616 83.9882 221.85C83.9882 222.074 83.9136 222.256 83.7642 222.394C83.6149 222.533 83.4176 222.602 83.1722 222.602C82.9269 222.602 82.7242 222.533 82.5642 222.394C82.4149 222.256 82.3402 222.074 82.3402 221.85ZM83.7322 224.442V233.178H82.5962V224.442H83.7322ZM90.5267 224.282C91.5401 224.282 92.3614 224.608 92.9907 225.258C93.6307 225.898 93.9507 226.842 93.9507 228.09V233.178H92.8467V228.17C92.8467 227.221 92.6067 226.496 92.1267 225.994C91.6467 225.482 90.9907 225.226 90.1587 225.226C89.2841 225.226 88.5854 225.509 88.0627 226.074C87.5507 226.629 87.2947 227.45 87.2947 228.538V233.178H86.1587V224.442H87.2947V226.586C87.5187 225.84 87.9241 225.269 88.5107 224.874C89.0974 224.48 89.7694 224.282 90.5267 224.282ZM99.995 222.122C99.1843 222.112 98.6137 222.261 98.283 222.57C97.963 222.869 97.803 223.376 97.803 224.09V224.442H99.995V225.434H97.803V233.178H96.683V225.434H95.387V224.442H96.683V224.01C96.683 223.029 96.9497 222.293 97.483 221.802C98.0163 221.312 98.8537 221.088 99.995 221.13V222.122ZM102.81 221.338V233.178H101.674V221.338H102.81ZM108.917 224.33C109.802 224.33 110.554 224.56 111.173 225.018C111.802 225.477 112.234 226.085 112.469 226.842V224.442H113.573V233.178H112.469V230.778C112.234 231.536 111.802 232.144 111.173 232.602C110.554 233.061 109.802 233.29 108.917 233.29C108.128 233.29 107.418 233.109 106.789 232.746C106.17 232.384 105.685 231.866 105.333 231.194C104.992 230.512 104.821 229.717 104.821 228.81C104.821 227.893 104.992 227.098 105.333 226.426C105.685 225.744 106.17 225.226 106.789 224.874C107.408 224.512 108.117 224.33 108.917 224.33ZM109.205 225.322C108.224 225.322 107.434 225.637 106.837 226.266C106.25 226.885 105.957 227.733 105.957 228.81C105.957 229.888 106.25 230.741 106.837 231.37C107.434 231.989 108.224 232.298 109.205 232.298C109.824 232.298 110.378 232.154 110.869 231.866C111.37 231.578 111.76 231.173 112.037 230.65C112.325 230.117 112.469 229.504 112.469 228.81C112.469 228.117 112.325 227.509 112.037 226.986C111.76 226.453 111.37 226.042 110.869 225.754C110.378 225.466 109.824 225.322 109.205 225.322ZM119.97 232.186V233.178H118.93C118.088 233.178 117.458 232.981 117.042 232.586C116.626 232.181 116.418 231.504 116.418 230.554V225.418H115.09V224.442H116.418V222.234H117.554V224.442H119.954V225.418H117.554V230.57C117.554 231.189 117.666 231.616 117.89 231.85C118.114 232.074 118.509 232.186 119.074 232.186H119.97ZM125.767 224.33C126.599 224.33 127.34 224.512 127.991 224.874C128.652 225.226 129.17 225.744 129.543 226.426C129.916 227.098 130.103 227.893 130.103 228.81C130.103 229.728 129.916 230.522 129.543 231.194C129.17 231.866 128.652 232.384 127.991 232.746C127.34 233.109 126.599 233.29 125.767 233.29C124.935 233.29 124.188 233.109 123.527 232.746C122.866 232.384 122.343 231.866 121.959 231.194C121.586 230.512 121.399 229.717 121.399 228.81C121.399 227.893 121.586 227.098 121.959 226.426C122.343 225.744 122.866 225.226 123.527 224.874C124.188 224.512 124.935 224.33 125.767 224.33ZM125.767 225.306C125.191 225.306 124.658 225.434 124.167 225.69C123.676 225.946 123.282 226.341 122.983 226.874C122.684 227.397 122.535 228.042 122.535 228.81C122.535 229.578 122.684 230.224 122.983 230.746C123.282 231.269 123.676 231.658 124.167 231.914C124.658 232.17 125.191 232.298 125.767 232.298C126.332 232.298 126.855 232.17 127.335 231.914C127.826 231.658 128.22 231.269 128.519 230.746C128.818 230.224 128.967 229.578 128.967 228.81C128.967 228.042 128.818 227.397 128.519 226.874C128.22 226.341 127.826 225.946 127.335 225.69C126.855 225.434 126.332 225.306 125.767 225.306ZM133.248 226.25C133.504 225.621 133.915 225.136 134.48 224.794C135.045 224.453 135.733 224.282 136.544 224.282V225.498H136.176C135.333 225.498 134.635 225.728 134.08 226.186C133.525 226.634 133.248 227.37 133.248 228.394V233.178H132.112V224.442H133.248V226.25ZM138.274 224.442L141.314 231.722L144.114 224.442H145.362L140.226 237.306H138.946L140.706 233.082L137.026 224.442H138.274ZM147.408 232.282C147.514 232.645 147.568 233.008 147.568 233.37C147.568 233.882 147.445 234.288 147.2 234.586C146.954 234.896 146.586 235.05 146.096 235.05V234.522C146.352 234.522 146.538 234.448 146.656 234.298C146.773 234.16 146.832 233.941 146.832 233.642V233.514H146.112V232.282H147.408ZM157.167 224.33C158.052 224.33 158.804 224.56 159.423 225.018C160.052 225.477 160.484 226.085 160.719 226.842V224.442H161.823V233.178H160.719V230.778C160.484 231.536 160.052 232.144 159.423 232.602C158.804 233.061 158.052 233.29 157.167 233.29C156.378 233.29 155.668 233.109 155.039 232.746C154.42 232.384 153.935 231.866 153.583 231.194C153.242 230.512 153.071 229.717 153.071 228.81C153.071 227.893 153.242 227.098 153.583 226.426C153.935 225.744 154.42 225.226 155.039 224.874C155.658 224.512 156.367 224.33 157.167 224.33ZM157.455 225.322C156.474 225.322 155.684 225.637 155.087 226.266C154.5 226.885 154.207 227.733 154.207 228.81C154.207 229.888 154.5 230.741 155.087 231.37C155.684 231.989 156.474 232.298 157.455 232.298C158.074 232.298 158.628 232.154 159.119 231.866C159.62 231.578 160.01 231.173 160.287 230.65C160.575 230.117 160.719 229.504 160.719 228.81C160.719 228.117 160.575 227.509 160.287 226.986C160.01 226.453 159.62 226.042 159.119 225.754C158.628 225.466 158.074 225.322 157.455 225.322ZM166.892 224.33C167.842 224.33 168.604 224.581 169.18 225.082C169.756 225.584 170.108 226.261 170.236 227.114H169.164C169.1 226.549 168.866 226.085 168.46 225.722C168.066 225.349 167.532 225.162 166.86 225.162C166.284 225.162 165.831 225.306 165.5 225.594C165.18 225.872 165.02 226.245 165.02 226.714C165.02 227.066 165.122 227.349 165.324 227.562C165.538 227.776 165.799 227.941 166.108 228.058C166.418 228.165 166.834 228.277 167.356 228.394C167.996 228.544 168.508 228.698 168.892 228.858C169.287 229.008 169.623 229.248 169.9 229.578C170.178 229.909 170.316 230.357 170.316 230.922C170.316 231.616 170.055 232.186 169.532 232.634C169.02 233.072 168.338 233.29 167.484 233.29C166.482 233.29 165.66 233.045 165.02 232.554C164.38 232.053 164.002 231.37 163.884 230.506H164.972C165.036 231.082 165.287 231.552 165.724 231.914C166.162 232.277 166.754 232.458 167.5 232.458C168.055 232.458 168.487 232.314 168.796 232.026C169.106 231.738 169.26 231.365 169.26 230.906C169.26 230.533 169.154 230.234 168.94 230.01C168.727 229.786 168.46 229.621 168.14 229.514C167.831 229.397 167.404 229.274 166.86 229.146C166.231 228.997 165.724 228.848 165.34 228.698C164.967 228.549 164.647 228.32 164.38 228.01C164.114 227.69 163.98 227.258 163.98 226.714C163.98 226 164.242 225.424 164.764 224.986C165.287 224.549 165.996 224.33 166.892 224.33ZM180.47 224.33C181.302 224.33 182.043 224.512 182.694 224.874C183.355 225.226 183.873 225.744 184.246 226.426C184.619 227.098 184.806 227.893 184.806 228.81C184.806 229.728 184.619 230.522 184.246 231.194C183.873 231.866 183.355 232.384 182.694 232.746C182.043 233.109 181.302 233.29 180.47 233.29C179.638 233.29 178.891 233.109 178.23 232.746C177.569 232.384 177.046 231.866 176.662 231.194C176.289 230.512 176.102 229.717 176.102 228.81C176.102 227.893 176.289 227.098 176.662 226.426C177.046 225.744 177.569 225.226 178.23 224.874C178.891 224.512 179.638 224.33 180.47 224.33ZM180.47 225.306C179.894 225.306 179.361 225.434 178.87 225.69C178.379 225.946 177.985 226.341 177.686 226.874C177.387 227.397 177.238 228.042 177.238 228.81C177.238 229.578 177.387 230.224 177.686 230.746C177.985 231.269 178.379 231.658 178.87 231.914C179.361 232.17 179.894 232.298 180.47 232.298C181.035 232.298 181.558 232.17 182.038 231.914C182.529 231.658 182.923 231.269 183.222 230.746C183.521 230.224 183.67 229.578 183.67 228.81C183.67 228.042 183.521 227.397 183.222 226.874C182.923 226.341 182.529 225.946 182.038 225.69C181.558 225.434 181.035 225.306 180.47 225.306ZM191.183 224.282C192.196 224.282 193.018 224.608 193.647 225.258C194.287 225.898 194.607 226.842 194.607 228.09V233.178H193.503V228.17C193.503 227.221 193.263 226.496 192.783 225.994C192.303 225.482 191.647 225.226 190.815 225.226C189.94 225.226 189.242 225.509 188.719 226.074C188.207 226.629 187.951 227.45 187.951 228.538V233.178H186.815V224.442H187.951V226.586C188.175 225.84 188.58 225.269 189.167 224.874C189.754 224.48 190.426 224.282 191.183 224.282ZM198.107 221.338V233.178H196.971V221.338H198.107ZM200.774 224.442L203.814 231.722L206.614 224.442H207.862L202.726 237.306H201.446L203.206 233.082L199.526 224.442H200.774ZM217.408 232.186V233.178H216.368C215.525 233.178 214.896 232.981 214.48 232.586C214.064 232.181 213.856 231.504 213.856 230.554V225.418H212.528V224.442H213.856V222.234H214.992V224.442H217.392V225.418H214.992V230.57C214.992 231.189 215.104 231.616 215.328 231.85C215.552 232.074 215.947 232.186 216.512 232.186H217.408ZM223.204 224.33C224.036 224.33 224.778 224.512 225.428 224.874C226.09 225.226 226.607 225.744 226.98 226.426C227.354 227.098 227.54 227.893 227.54 228.81C227.54 229.728 227.354 230.522 226.98 231.194C226.607 231.866 226.09 232.384 225.428 232.746C224.778 233.109 224.036 233.29 223.204 233.29C222.372 233.29 221.626 233.109 220.964 232.746C220.303 232.384 219.78 231.866 219.396 231.194C219.023 230.512 218.836 229.717 218.836 228.81C218.836 227.893 219.023 227.098 219.396 226.426C219.78 225.744 220.303 225.226 220.964 224.874C221.626 224.512 222.372 224.33 223.204 224.33ZM223.204 225.306C222.628 225.306 222.095 225.434 221.604 225.69C221.114 225.946 220.719 226.341 220.42 226.874C220.122 227.397 219.972 228.042 219.972 228.81C219.972 229.578 220.122 230.224 220.42 230.746C220.719 231.269 221.114 231.658 221.604 231.914C222.095 232.17 222.628 232.298 223.204 232.298C223.77 232.298 224.292 232.17 224.772 231.914C225.263 231.658 225.658 231.269 225.956 230.746C226.255 230.224 226.404 229.578 226.404 228.81C226.404 228.042 226.255 227.397 225.956 226.874C225.658 226.341 225.263 225.946 224.772 225.69C224.292 225.434 223.77 225.306 223.204 225.306ZM234.221 233.178L230.685 229.178V233.178H229.549V221.338H230.685V228.282L234.157 224.442H235.549L231.533 228.762L235.661 233.178H234.221ZM240.795 232.362C241.584 232.362 242.246 232.165 242.779 231.77C243.312 231.376 243.632 230.842 243.739 230.17H244.923C244.763 231.098 244.32 231.85 243.595 232.426C242.87 233.002 241.952 233.29 240.843 233.29C240.011 233.29 239.27 233.114 238.619 232.762C237.979 232.4 237.478 231.882 237.115 231.21C236.752 230.528 236.571 229.728 236.571 228.81C236.571 227.893 236.752 227.098 237.115 226.426C237.478 225.744 237.979 225.226 238.619 224.874C239.27 224.512 240.011 224.33 240.843 224.33C241.696 224.33 242.432 224.512 243.051 224.874C243.68 225.226 244.155 225.701 244.475 226.298C244.806 226.896 244.971 227.546 244.971 228.25C244.971 228.549 244.95 228.821 244.907 229.066H237.675C237.686 229.802 237.835 230.421 238.123 230.922C238.422 231.413 238.806 231.776 239.275 232.01C239.744 232.245 240.251 232.362 240.795 232.362ZM240.843 225.242C240.278 225.242 239.76 225.36 239.291 225.594C238.822 225.829 238.438 226.192 238.139 226.682C237.851 227.162 237.696 227.765 237.675 228.49H243.851C243.894 227.776 243.776 227.173 243.499 226.682C243.222 226.192 242.848 225.829 242.379 225.594C241.91 225.36 241.398 225.242 240.843 225.242ZM251.355 224.282C252.368 224.282 253.19 224.608 253.819 225.258C254.459 225.898 254.779 226.842 254.779 228.09V233.178H253.675V228.17C253.675 227.221 253.435 226.496 252.955 225.994C252.475 225.482 251.819 225.226 250.987 225.226C250.112 225.226 249.414 225.509 248.891 226.074C248.379 226.629 248.123 227.45 248.123 228.538V233.178H246.987V224.442H248.123V226.586C248.347 225.84 248.752 225.269 249.339 224.874C249.926 224.48 250.598 224.282 251.355 224.282ZM259.783 224.33C260.732 224.33 261.495 224.581 262.071 225.082C262.647 225.584 262.999 226.261 263.127 227.114H262.055C261.991 226.549 261.756 226.085 261.351 225.722C260.956 225.349 260.423 225.162 259.751 225.162C259.175 225.162 258.722 225.306 258.391 225.594C258.071 225.872 257.911 226.245 257.911 226.714C257.911 227.066 258.012 227.349 258.215 227.562C258.428 227.776 258.69 227.941 258.999 228.058C259.308 228.165 259.724 228.277 260.247 228.394C260.887 228.544 261.399 228.698 261.783 228.858C262.178 229.008 262.514 229.248 262.791 229.578C263.068 229.909 263.207 230.357 263.207 230.922C263.207 231.616 262.946 232.186 262.423 232.634C261.911 233.072 261.228 233.29 260.375 233.29C259.372 233.29 258.551 233.045 257.911 232.554C257.271 232.053 256.892 231.37 256.775 230.506H257.863C257.927 231.082 258.178 231.552 258.615 231.914C259.052 232.277 259.644 232.458 260.391 232.458C260.946 232.458 261.378 232.314 261.687 232.026C261.996 231.738 262.151 231.365 262.151 230.906C262.151 230.533 262.044 230.234 261.831 230.01C261.618 229.786 261.351 229.621 261.031 229.514C260.722 229.397 260.295 229.274 259.751 229.146C259.122 228.997 258.615 228.848 258.231 228.698C257.858 228.549 257.538 228.32 257.271 228.01C257.004 227.69 256.871 227.258 256.871 226.714C256.871 226 257.132 225.424 257.655 224.986C258.178 224.549 258.887 224.33 259.783 224.33ZM273.377 232.186V233.178H272.337C271.494 233.178 270.865 232.981 270.449 232.586C270.033 232.181 269.825 231.504 269.825 230.554V225.418H268.497V224.442H269.825V222.234H270.961V224.442H273.361V225.418H270.961V230.57C270.961 231.189 271.073 231.616 271.297 231.85C271.521 232.074 271.915 232.186 272.481 232.186H273.377ZM279.589 224.282C280.603 224.282 281.424 224.608 282.053 225.258C282.693 225.898 283.013 226.842 283.013 228.09V233.178H281.909V228.17C281.909 227.221 281.669 226.496 281.189 225.994C280.709 225.482 280.053 225.226 279.221 225.226C278.347 225.226 277.648 225.509 277.125 226.074C276.613 226.629 276.357 227.45 276.357 228.538V233.178H275.221V221.338H276.357V226.586C276.581 225.84 276.987 225.269 277.573 224.874C278.16 224.48 278.832 224.282 279.589 224.282ZM289.057 224.33C289.943 224.33 290.695 224.56 291.313 225.018C291.943 225.477 292.375 226.085 292.609 226.842V224.442H293.713V233.178H292.609V230.778C292.375 231.536 291.943 232.144 291.313 232.602C290.695 233.061 289.943 233.29 289.057 233.29C288.268 233.29 287.559 233.109 286.929 232.746C286.311 232.384 285.825 231.866 285.473 231.194C285.132 230.512 284.961 229.717 284.961 228.81C284.961 227.893 285.132 227.098 285.473 226.426C285.825 225.744 286.311 225.226 286.929 224.874C287.548 224.512 288.257 224.33 289.057 224.33ZM289.345 225.322C288.364 225.322 287.575 225.637 286.977 226.266C286.391 226.885 286.097 227.733 286.097 228.81C286.097 229.888 286.391 230.741 286.977 231.37C287.575 231.989 288.364 232.298 289.345 232.298C289.964 232.298 290.519 232.154 291.009 231.866C291.511 231.578 291.9 231.173 292.177 230.65C292.465 230.117 292.609 229.504 292.609 228.81C292.609 228.117 292.465 227.509 292.177 226.986C291.9 226.453 291.511 226.042 291.009 225.754C290.519 225.466 289.964 225.322 289.345 225.322ZM300.111 232.186V233.178H299.071C298.228 233.178 297.599 232.981 297.183 232.586C296.767 232.181 296.559 231.504 296.559 230.554V225.418H295.231V224.442H296.559V222.234H297.695V224.442H300.095V225.418H297.695V230.57C297.695 231.189 297.807 231.616 298.031 231.85C298.255 232.074 298.65 232.186 299.215 232.186H300.111ZM88.1205 248.282C89.1338 248.282 89.9552 248.608 90.5845 249.258C91.2245 249.898 91.5445 250.842 91.5445 252.09V257.178H90.4405V252.17C90.4405 251.221 90.2005 250.496 89.7205 249.994C89.2405 249.482 88.5845 249.226 87.7525 249.226C86.8778 249.226 86.1792 249.509 85.6565 250.074C85.1445 250.629 84.8885 251.45 84.8885 252.538V257.178H83.7525V245.338H84.8885V250.586C85.1125 249.84 85.5178 249.269 86.1045 248.874C86.6912 248.48 87.3632 248.282 88.1205 248.282ZM97.5887 248.33C98.4741 248.33 99.2261 248.56 99.8447 249.018C100.474 249.477 100.906 250.085 101.141 250.842V248.442H102.245V257.178H101.141V254.778C100.906 255.536 100.474 256.144 99.8447 256.602C99.2261 257.061 98.4741 257.29 97.5887 257.29C96.7994 257.29 96.0901 257.109 95.4607 256.746C94.8421 256.384 94.3567 255.866 94.0047 255.194C93.6634 254.512 93.4927 253.717 93.4927 252.81C93.4927 251.893 93.6634 251.098 94.0047 250.426C94.3567 249.744 94.8421 249.226 95.4607 248.874C96.0794 248.512 96.7887 248.33 97.5887 248.33ZM97.8767 249.322C96.8954 249.322 96.1061 249.637 95.5087 250.266C94.9221 250.885 94.6287 251.733 94.6287 252.81C94.6287 253.888 94.9221 254.741 95.5087 255.37C96.1061 255.989 96.8954 256.298 97.8767 256.298C98.4954 256.298 99.0501 256.154 99.5407 255.866C100.042 255.578 100.431 255.173 100.709 254.65C100.997 254.117 101.141 253.504 101.141 252.81C101.141 252.117 100.997 251.509 100.709 250.986C100.431 250.453 100.042 250.042 99.5407 249.754C99.0501 249.466 98.4954 249.322 97.8767 249.322ZM107.906 255.914L110.834 248.442H112.05L108.53 257.178H107.25L103.73 248.442H104.946L107.906 255.914ZM117.342 256.362C118.131 256.362 118.792 256.165 119.326 255.77C119.859 255.376 120.179 254.842 120.286 254.17H121.47C121.31 255.098 120.867 255.85 120.142 256.426C119.416 257.002 118.499 257.29 117.39 257.29C116.558 257.29 115.816 257.114 115.166 256.762C114.526 256.4 114.024 255.882 113.662 255.21C113.299 254.528 113.118 253.728 113.118 252.81C113.118 251.893 113.299 251.098 113.662 250.426C114.024 249.744 114.526 249.226 115.166 248.874C115.816 248.512 116.558 248.33 117.39 248.33C118.243 248.33 118.979 248.512 119.598 248.874C120.227 249.226 120.702 249.701 121.022 250.298C121.352 250.896 121.518 251.546 121.518 252.25C121.518 252.549 121.496 252.821 121.454 253.066H114.222C114.232 253.802 114.382 254.421 114.67 254.922C114.968 255.413 115.352 255.776 115.822 256.01C116.291 256.245 116.798 256.362 117.342 256.362ZM117.39 249.242C116.824 249.242 116.307 249.36 115.838 249.594C115.368 249.829 114.984 250.192 114.686 250.682C114.398 251.162 114.243 251.765 114.222 252.49H120.398C120.44 251.776 120.323 251.173 120.046 250.682C119.768 250.192 119.395 249.829 118.926 249.594C118.456 249.36 117.944 249.242 117.39 249.242ZM131.37 248.33C132.255 248.33 133.007 248.56 133.626 249.018C134.255 249.477 134.687 250.085 134.922 250.842V248.442H136.026V257.178H134.922V254.778C134.687 255.536 134.255 256.144 133.626 256.602C133.007 257.061 132.255 257.29 131.37 257.29C130.581 257.29 129.871 257.109 129.242 256.746C128.623 256.384 128.138 255.866 127.786 255.194C127.445 254.512 127.274 253.717 127.274 252.81C127.274 251.893 127.445 251.098 127.786 250.426C128.138 249.744 128.623 249.226 129.242 248.874C129.861 248.512 130.57 248.33 131.37 248.33ZM131.658 249.322C130.677 249.322 129.887 249.637 129.29 250.266C128.703 250.885 128.41 251.733 128.41 252.81C128.41 253.888 128.703 254.741 129.29 255.37C129.887 255.989 130.677 256.298 131.658 256.298C132.277 256.298 132.831 256.154 133.322 255.866C133.823 255.578 134.213 255.173 134.49 254.65C134.778 254.117 134.922 253.504 134.922 252.81C134.922 252.117 134.778 251.509 134.49 250.986C134.213 250.453 133.823 250.042 133.322 249.754C132.831 249.466 132.277 249.322 131.658 249.322ZM143.748 250.25C144.004 249.621 144.415 249.136 144.98 248.794C145.545 248.453 146.233 248.282 147.044 248.282V249.498H146.676C145.833 249.498 145.135 249.728 144.58 250.186C144.025 250.634 143.748 251.37 143.748 252.394V257.178H142.612V248.442H143.748V250.25ZM152.342 256.362C153.131 256.362 153.792 256.165 154.326 255.77C154.859 255.376 155.179 254.842 155.286 254.17H156.47C156.31 255.098 155.867 255.85 155.142 256.426C154.416 257.002 153.499 257.29 152.39 257.29C151.558 257.29 150.816 257.114 150.166 256.762C149.526 256.4 149.024 255.882 148.662 255.21C148.299 254.528 148.118 253.728 148.118 252.81C148.118 251.893 148.299 251.098 148.662 250.426C149.024 249.744 149.526 249.226 150.166 248.874C150.816 248.512 151.558 248.33 152.39 248.33C153.243 248.33 153.979 248.512 154.598 248.874C155.227 249.226 155.702 249.701 156.022 250.298C156.352 250.896 156.518 251.546 156.518 252.25C156.518 252.549 156.496 252.821 156.454 253.066H149.222C149.232 253.802 149.382 254.421 149.67 254.922C149.968 255.413 150.352 255.776 150.822 256.01C151.291 256.245 151.798 256.362 152.342 256.362ZM152.39 249.242C151.824 249.242 151.307 249.36 150.838 249.594C150.368 249.829 149.984 250.192 149.686 250.682C149.398 251.162 149.243 251.765 149.222 252.49H155.398C155.44 251.776 155.323 251.173 155.046 250.682C154.768 250.192 154.395 249.829 153.926 249.594C153.456 249.36 152.944 249.242 152.39 249.242ZM159.67 245.338V257.178H158.534V245.338H159.67ZM165.776 248.33C166.662 248.33 167.414 248.56 168.032 249.018C168.662 249.477 169.094 250.085 169.328 250.842V248.442H170.432V257.178H169.328V254.778C169.094 255.536 168.662 256.144 168.032 256.602C167.414 257.061 166.662 257.29 165.776 257.29C164.987 257.29 164.278 257.109 163.648 256.746C163.03 256.384 162.544 255.866 162.192 255.194C161.851 254.512 161.68 253.717 161.68 252.81C161.68 251.893 161.851 251.098 162.192 250.426C162.544 249.744 163.03 249.226 163.648 248.874C164.267 248.512 164.976 248.33 165.776 248.33ZM166.064 249.322C165.083 249.322 164.294 249.637 163.696 250.266C163.11 250.885 162.816 251.733 162.816 252.81C162.816 253.888 163.11 254.741 163.696 255.37C164.294 255.989 165.083 256.298 166.064 256.298C166.683 256.298 167.238 256.154 167.728 255.866C168.23 255.578 168.619 255.173 168.896 254.65C169.184 254.117 169.328 253.504 169.328 252.81C169.328 252.117 169.184 251.509 168.896 250.986C168.619 250.453 168.23 250.042 167.728 249.754C167.238 249.466 166.683 249.322 166.064 249.322ZM176.83 256.186V257.178H175.79C174.947 257.178 174.318 256.981 173.902 256.586C173.486 256.181 173.278 255.504 173.278 254.554V249.418H171.95V248.442H173.278V246.234H174.414V248.442H176.814V249.418H174.414V254.57C174.414 255.189 174.526 255.616 174.75 255.85C174.974 256.074 175.369 256.186 175.934 256.186H176.83ZM178.418 245.85C178.418 245.616 178.493 245.429 178.642 245.29C178.802 245.152 179.005 245.082 179.25 245.082C179.496 245.082 179.693 245.152 179.842 245.29C179.992 245.429 180.066 245.616 180.066 245.85C180.066 246.074 179.992 246.256 179.842 246.394C179.693 246.533 179.496 246.602 179.25 246.602C179.005 246.602 178.802 246.533 178.642 246.394C178.493 246.256 178.418 246.074 178.418 245.85ZM179.81 248.442V257.178H178.674V248.442H179.81ZM186.189 248.33C187.021 248.33 187.762 248.512 188.413 248.874C189.074 249.226 189.592 249.744 189.965 250.426C190.338 251.098 190.525 251.893 190.525 252.81C190.525 253.728 190.338 254.522 189.965 255.194C189.592 255.866 189.074 256.384 188.413 256.746C187.762 257.109 187.021 257.29 186.189 257.29C185.357 257.29 184.61 257.109 183.949 256.746C183.288 256.384 182.765 255.866 182.381 255.194C182.008 254.512 181.821 253.717 181.821 252.81C181.821 251.893 182.008 251.098 182.381 250.426C182.765 249.744 183.288 249.226 183.949 248.874C184.61 248.512 185.357 248.33 186.189 248.33ZM186.189 249.306C185.613 249.306 185.08 249.434 184.589 249.69C184.098 249.946 183.704 250.341 183.405 250.874C183.106 251.397 182.957 252.042 182.957 252.81C182.957 253.578 183.106 254.224 183.405 254.746C183.704 255.269 184.098 255.658 184.589 255.914C185.08 256.17 185.613 256.298 186.189 256.298C186.754 256.298 187.277 256.17 187.757 255.914C188.248 255.658 188.642 255.269 188.941 254.746C189.24 254.224 189.389 253.578 189.389 252.81C189.389 252.042 189.24 251.397 188.941 250.874C188.642 250.341 188.248 249.946 187.757 249.69C187.277 249.434 186.754 249.306 186.189 249.306ZM196.902 248.282C197.915 248.282 198.736 248.608 199.366 249.258C200.006 249.898 200.326 250.842 200.326 252.09V257.178H199.222V252.17C199.222 251.221 198.982 250.496 198.502 249.994C198.022 249.482 197.366 249.226 196.534 249.226C195.659 249.226 194.96 249.509 194.438 250.074C193.926 250.629 193.67 251.45 193.67 252.538V257.178H192.534V248.442H193.67V250.586C193.894 249.84 194.299 249.269 194.886 248.874C195.472 248.48 196.144 248.282 196.902 248.282ZM210.814 256.186V257.178H209.774C208.932 257.178 208.302 256.981 207.886 256.586C207.47 256.181 207.262 255.504 207.262 254.554V249.418H205.934V248.442H207.262V246.234H208.398V248.442H210.798V249.418H208.398V254.57C208.398 255.189 208.51 255.616 208.734 255.85C208.958 256.074 209.353 256.186 209.918 256.186H210.814ZM216.611 248.33C217.443 248.33 218.184 248.512 218.835 248.874C219.496 249.226 220.013 249.744 220.387 250.426C220.76 251.098 220.947 251.893 220.947 252.81C220.947 253.728 220.76 254.522 220.387 255.194C220.013 255.866 219.496 256.384 218.835 256.746C218.184 257.109 217.443 257.29 216.611 257.29C215.779 257.29 215.032 257.109 214.371 256.746C213.709 256.384 213.187 255.866 212.803 255.194C212.429 254.512 212.243 253.717 212.243 252.81C212.243 251.893 212.429 251.098 212.803 250.426C213.187 249.744 213.709 249.226 214.371 248.874C215.032 248.512 215.779 248.33 216.611 248.33ZM216.611 249.306C216.035 249.306 215.501 249.434 215.011 249.69C214.52 249.946 214.125 250.341 213.827 250.874C213.528 251.397 213.379 252.042 213.379 252.81C213.379 253.578 213.528 254.224 213.827 254.746C214.125 255.269 214.52 255.658 215.011 255.914C215.501 256.17 216.035 256.298 216.611 256.298C217.176 256.298 217.699 256.17 218.179 255.914C218.669 255.658 219.064 255.269 219.363 254.746C219.661 254.224 219.811 253.578 219.811 252.81C219.811 252.042 219.661 251.397 219.363 250.874C219.064 250.341 218.669 249.946 218.179 249.69C217.699 249.434 217.176 249.306 216.611 249.306ZM231.08 256.186V257.178H230.04C229.197 257.178 228.568 256.981 228.152 256.586C227.736 256.181 227.528 255.504 227.528 254.554V249.418H226.2V248.442H227.528V246.234H228.664V248.442H231.064V249.418H228.664V254.57C228.664 255.189 228.776 255.616 229 255.85C229.224 256.074 229.619 256.186 230.184 256.186H231.08ZM237.292 248.282C238.306 248.282 239.127 248.608 239.756 249.258C240.396 249.898 240.716 250.842 240.716 252.09V257.178H239.612V252.17C239.612 251.221 239.372 250.496 238.892 249.994C238.412 249.482 237.756 249.226 236.924 249.226C236.05 249.226 235.351 249.509 234.828 250.074C234.316 250.629 234.06 251.45 234.06 252.538V257.178H232.924V245.338H234.06V250.586C234.284 249.84 234.69 249.269 235.276 248.874C235.863 248.48 236.535 248.282 237.292 248.282ZM246.889 256.362C247.678 256.362 248.339 256.165 248.873 255.77C249.406 255.376 249.726 254.842 249.833 254.17H251.017C250.857 255.098 250.414 255.85 249.689 256.426C248.963 257.002 248.046 257.29 246.937 257.29C246.105 257.29 245.363 257.114 244.713 256.762C244.073 256.4 243.571 255.882 243.209 255.21C242.846 254.528 242.665 253.728 242.665 252.81C242.665 251.893 242.846 251.098 243.209 250.426C243.571 249.744 244.073 249.226 244.713 248.874C245.363 248.512 246.105 248.33 246.937 248.33C247.79 248.33 248.526 248.512 249.145 248.874C249.774 249.226 250.249 249.701 250.569 250.298C250.899 250.896 251.065 251.546 251.065 252.25C251.065 252.549 251.043 252.821 251.001 253.066H243.769C243.779 253.802 243.929 254.421 244.217 254.922C244.515 255.413 244.899 255.776 245.369 256.01C245.838 256.245 246.345 256.362 246.889 256.362ZM246.937 249.242C246.371 249.242 245.854 249.36 245.385 249.594C244.915 249.829 244.531 250.192 244.233 250.682C243.945 251.162 243.79 251.765 243.769 252.49H249.945C249.987 251.776 249.87 251.173 249.593 250.682C249.315 250.192 248.942 249.829 248.473 249.594C248.003 249.36 247.491 249.242 246.937 249.242ZM252.825 245.85C252.825 245.616 252.899 245.429 253.049 245.29C253.209 245.152 253.411 245.082 253.657 245.082C253.902 245.082 254.099 245.152 254.249 245.29C254.398 245.429 254.473 245.616 254.473 245.85C254.473 246.074 254.398 246.256 254.249 246.394C254.099 246.533 253.902 246.602 253.657 246.602C253.411 246.602 253.209 246.533 253.049 246.394C252.899 246.256 252.825 246.074 252.825 245.85ZM254.217 248.442V257.178H253.081V248.442H254.217ZM257.779 250.25C258.035 249.621 258.446 249.136 259.011 248.794C259.576 248.453 260.264 248.282 261.075 248.282V249.498H260.707C259.864 249.498 259.166 249.728 258.611 250.186C258.056 250.634 257.779 251.37 257.779 252.394V257.178H256.643V248.442H257.779V250.25ZM58.8822 272.442V281.178H57.7622V279.018C57.5382 279.776 57.1329 280.352 56.5462 280.746C55.9596 281.141 55.2876 281.338 54.5302 281.338C53.5062 281.338 52.6742 281.018 52.0342 280.378C51.4049 279.728 51.0902 278.778 51.0902 277.53V272.442H52.2102V277.434C52.2102 278.394 52.4502 279.13 52.9302 279.642C53.4102 280.144 54.0662 280.394 54.8982 280.394C55.7729 280.394 56.4662 280.117 56.9782 279.562C57.5009 278.997 57.7622 278.17 57.7622 277.082V272.442H58.8822ZM65.6986 272.282C66.712 272.282 67.5333 272.608 68.1626 273.258C68.8026 273.898 69.1226 274.842 69.1226 276.09V281.178H68.0186V276.17C68.0186 275.221 67.7786 274.496 67.2986 273.994C66.8186 273.482 66.1626 273.226 65.3306 273.226C64.456 273.226 63.7573 273.509 63.2346 274.074C62.7226 274.629 62.4666 275.45 62.4666 276.538V281.178H61.3306V272.442H62.4666V274.586C62.6906 273.84 63.096 273.269 63.6826 272.874C64.2693 272.48 64.9413 272.282 65.6986 272.282ZM75.1669 272.33C76.0522 272.33 76.8042 272.56 77.4229 273.018C78.0522 273.477 78.4789 274.085 78.7029 274.842V269.338H79.8229V281.178H78.7029V278.778C78.4789 279.536 78.0522 280.144 77.4229 280.602C76.8042 281.061 76.0522 281.29 75.1669 281.29C74.3775 281.29 73.6682 281.109 73.0389 280.746C72.4202 280.384 71.9349 279.866 71.5829 279.194C71.2415 278.512 71.0709 277.717 71.0709 276.81C71.0709 275.893 71.2415 275.098 71.5829 274.426C71.9349 273.744 72.4202 273.226 73.0389 272.874C73.6575 272.512 74.3669 272.33 75.1669 272.33ZM75.4549 273.322C74.4735 273.322 73.6842 273.637 73.0869 274.266C72.5002 274.885 72.2069 275.733 72.2069 276.81C72.2069 277.888 72.5002 278.741 73.0869 279.37C73.6842 279.989 74.4735 280.298 75.4549 280.298C76.0735 280.298 76.6282 280.154 77.1189 279.866C77.6202 279.578 78.0095 279.173 78.2869 278.65C78.5749 278.117 78.7189 277.504 78.7189 276.81C78.7189 276.117 78.5749 275.509 78.2869 274.986C78.0095 274.453 77.6202 274.042 77.1189 273.754C76.6282 273.466 76.0735 273.322 75.4549 273.322ZM86.0605 280.362C86.8498 280.362 87.5112 280.165 88.0445 279.77C88.5778 279.376 88.8978 278.842 89.0045 278.17H90.1885C90.0285 279.098 89.5858 279.85 88.8605 280.426C88.1352 281.002 87.2178 281.29 86.1085 281.29C85.2765 281.29 84.5352 281.114 83.8845 280.762C83.2445 280.4 82.7432 279.882 82.3805 279.21C82.0178 278.528 81.8365 277.728 81.8365 276.81C81.8365 275.893 82.0178 275.098 82.3805 274.426C82.7432 273.744 83.2445 273.226 83.8845 272.874C84.5352 272.512 85.2765 272.33 86.1085 272.33C86.9618 272.33 87.6978 272.512 88.3165 272.874C88.9458 273.226 89.4205 273.701 89.7405 274.298C90.0712 274.896 90.2365 275.546 90.2365 276.25C90.2365 276.549 90.2152 276.821 90.1725 277.066H82.9405C82.9512 277.802 83.1005 278.421 83.3885 278.922C83.6872 279.413 84.0712 279.776 84.5405 280.01C85.0098 280.245 85.5165 280.362 86.0605 280.362ZM86.1085 273.242C85.5432 273.242 85.0258 273.36 84.5565 273.594C84.0872 273.829 83.7032 274.192 83.4045 274.682C83.1165 275.162 82.9618 275.765 82.9405 276.49H89.1165C89.1592 275.776 89.0418 275.173 88.7645 274.682C88.4872 274.192 88.1138 273.829 87.6445 273.594C87.1752 273.36 86.6632 273.242 86.1085 273.242ZM93.3885 274.25C93.6445 273.621 94.0552 273.136 94.6205 272.794C95.1858 272.453 95.8738 272.282 96.6845 272.282V273.498H96.3165C95.4738 273.498 94.7752 273.728 94.2205 274.186C93.6658 274.634 93.3885 275.37 93.3885 276.394V281.178H92.2525V272.442H93.3885V274.25ZM99.3104 269.338V281.178H98.1744V269.338H99.3104ZM101.977 272.442L105.017 279.722L107.817 272.442H109.065L103.929 285.306H102.649L104.409 281.082L100.729 272.442H101.977ZM110.231 269.85C110.231 269.616 110.306 269.429 110.455 269.29C110.615 269.152 110.818 269.082 111.063 269.082C111.308 269.082 111.506 269.152 111.655 269.29C111.804 269.429 111.879 269.616 111.879 269.85C111.879 270.074 111.804 270.256 111.655 270.394C111.506 270.533 111.308 270.602 111.063 270.602C110.818 270.602 110.615 270.533 110.455 270.394C110.306 270.256 110.231 270.074 110.231 269.85ZM111.623 272.442V281.178H110.487V272.442H111.623ZM118.417 272.282C119.431 272.282 120.252 272.608 120.881 273.258C121.521 273.898 121.841 274.842 121.841 276.09V281.178H120.737V276.17C120.737 275.221 120.497 274.496 120.017 273.994C119.537 273.482 118.881 273.226 118.049 273.226C117.175 273.226 116.476 273.509 115.953 274.074C115.441 274.629 115.185 275.45 115.185 276.538V281.178H114.049V272.442H115.185V274.586C115.409 273.84 115.815 273.269 116.401 272.874C116.988 272.48 117.66 272.282 118.417 272.282ZM127.886 272.33C128.771 272.33 129.523 272.56 130.142 273.018C130.771 273.477 131.203 274.085 131.438 274.842V272.442H132.542V281.386C132.542 282.197 132.371 282.906 132.03 283.514C131.688 284.133 131.214 284.608 130.606 284.938C129.998 285.28 129.304 285.45 128.526 285.45C127.384 285.45 126.446 285.173 125.71 284.618C124.984 284.074 124.51 283.333 124.286 282.394H125.406C125.598 283.034 125.95 283.541 126.462 283.914C126.984 284.288 127.651 284.474 128.462 284.474C129.016 284.474 129.518 284.352 129.966 284.106C130.424 283.872 130.782 283.52 131.038 283.05C131.304 282.581 131.438 282.026 131.438 281.386V278.778C131.203 279.536 130.771 280.144 130.142 280.602C129.523 281.061 128.771 281.29 127.886 281.29C127.096 281.29 126.387 281.109 125.758 280.746C125.139 280.384 124.654 279.866 124.302 279.194C123.96 278.512 123.79 277.717 123.79 276.81C123.79 275.893 123.96 275.098 124.302 274.426C124.654 273.744 125.139 273.226 125.758 272.874C126.376 272.512 127.086 272.33 127.886 272.33ZM128.174 273.322C127.192 273.322 126.403 273.637 125.806 274.266C125.219 274.885 124.926 275.733 124.926 276.81C124.926 277.888 125.219 278.741 125.806 279.37C126.403 279.989 127.192 280.298 128.174 280.298C128.792 280.298 129.347 280.154 129.838 279.866C130.339 279.578 130.728 279.173 131.006 278.65C131.294 278.117 131.438 277.504 131.438 276.81C131.438 276.117 131.294 275.509 131.006 274.986C130.728 274.453 130.339 274.042 129.838 273.754C129.347 273.466 128.792 273.322 128.174 273.322ZM142.807 272.33C143.693 272.33 144.445 272.56 145.063 273.018C145.693 273.477 146.125 274.085 146.359 274.842V272.442H147.463V281.178H146.359V278.778C146.125 279.536 145.693 280.144 145.063 280.602C144.445 281.061 143.693 281.29 142.807 281.29C142.018 281.29 141.309 281.109 140.679 280.746C140.061 280.384 139.575 279.866 139.223 279.194C138.882 278.512 138.711 277.717 138.711 276.81C138.711 275.893 138.882 275.098 139.223 274.426C139.575 273.744 140.061 273.226 140.679 272.874C141.298 272.512 142.007 272.33 142.807 272.33ZM143.095 273.322C142.114 273.322 141.325 273.637 140.727 274.266C140.141 274.885 139.847 275.733 139.847 276.81C139.847 277.888 140.141 278.741 140.727 279.37C141.325 279.989 142.114 280.298 143.095 280.298C143.714 280.298 144.269 280.154 144.759 279.866C145.261 279.578 145.65 279.173 145.927 278.65C146.215 278.117 146.359 277.504 146.359 276.81C146.359 276.117 146.215 275.509 145.927 274.986C145.65 274.453 145.261 274.042 144.759 273.754C144.269 273.466 143.714 273.322 143.095 273.322ZM152.533 272.33C153.482 272.33 154.245 272.581 154.821 273.082C155.397 273.584 155.749 274.261 155.877 275.114H154.805C154.741 274.549 154.506 274.085 154.101 273.722C153.706 273.349 153.173 273.162 152.501 273.162C151.925 273.162 151.472 273.306 151.141 273.594C150.821 273.872 150.661 274.245 150.661 274.714C150.661 275.066 150.762 275.349 150.965 275.562C151.178 275.776 151.44 275.941 151.749 276.058C152.058 276.165 152.474 276.277 152.997 276.394C153.637 276.544 154.149 276.698 154.533 276.858C154.928 277.008 155.264 277.248 155.541 277.578C155.818 277.909 155.957 278.357 155.957 278.922C155.957 279.616 155.696 280.186 155.173 280.634C154.661 281.072 153.978 281.29 153.125 281.29C152.122 281.29 151.301 281.045 150.661 280.554C150.021 280.053 149.642 279.37 149.525 278.506H150.613C150.677 279.082 150.928 279.552 151.365 279.914C151.802 280.277 152.394 280.458 153.141 280.458C153.696 280.458 154.128 280.314 154.437 280.026C154.746 279.738 154.901 279.365 154.901 278.906C154.901 278.533 154.794 278.234 154.581 278.01C154.368 277.786 154.101 277.621 153.781 277.514C153.472 277.397 153.045 277.274 152.501 277.146C151.872 276.997 151.365 276.848 150.981 276.698C150.608 276.549 150.288 276.32 150.021 276.01C149.754 275.69 149.621 275.258 149.621 274.714C149.621 274 149.882 273.424 150.405 272.986C150.928 272.549 151.637 272.33 152.533 272.33ZM160.642 272.33C161.592 272.33 162.354 272.581 162.93 273.082C163.506 273.584 163.858 274.261 163.986 275.114H162.914C162.85 274.549 162.616 274.085 162.21 273.722C161.816 273.349 161.282 273.162 160.61 273.162C160.034 273.162 159.581 273.306 159.25 273.594C158.93 273.872 158.77 274.245 158.77 274.714C158.77 275.066 158.872 275.349 159.074 275.562C159.288 275.776 159.549 275.941 159.858 276.058C160.168 276.165 160.584 276.277 161.106 276.394C161.746 276.544 162.258 276.698 162.642 276.858C163.037 277.008 163.373 277.248 163.65 277.578C163.928 277.909 164.066 278.357 164.066 278.922C164.066 279.616 163.805 280.186 163.282 280.634C162.77 281.072 162.088 281.29 161.234 281.29C160.232 281.29 159.41 281.045 158.77 280.554C158.13 280.053 157.752 279.37 157.634 278.506H158.722C158.786 279.082 159.037 279.552 159.474 279.914C159.912 280.277 160.504 280.458 161.25 280.458C161.805 280.458 162.237 280.314 162.546 280.026C162.856 279.738 163.01 279.365 163.01 278.906C163.01 278.533 162.904 278.234 162.69 278.01C162.477 277.786 162.21 277.621 161.89 277.514C161.581 277.397 161.154 277.274 160.61 277.146C159.981 276.997 159.474 276.848 159.09 276.698C158.717 276.549 158.397 276.32 158.13 276.01C157.864 275.69 157.73 275.258 157.73 274.714C157.73 274 157.992 273.424 158.514 272.986C159.037 272.549 159.746 272.33 160.642 272.33ZM169.92 280.362C170.709 280.362 171.371 280.165 171.904 279.77C172.437 279.376 172.757 278.842 172.864 278.17H174.048C173.888 279.098 173.445 279.85 172.72 280.426C171.995 281.002 171.077 281.29 169.968 281.29C169.136 281.29 168.395 281.114 167.744 280.762C167.104 280.4 166.603 279.882 166.24 279.21C165.877 278.528 165.696 277.728 165.696 276.81C165.696 275.893 165.877 275.098 166.24 274.426C166.603 273.744 167.104 273.226 167.744 272.874C168.395 272.512 169.136 272.33 169.968 272.33C170.821 272.33 171.557 272.512 172.176 272.874C172.805 273.226 173.28 273.701 173.6 274.298C173.931 274.896 174.096 275.546 174.096 276.25C174.096 276.549 174.075 276.821 174.032 277.066H166.8C166.811 277.802 166.96 278.421 167.248 278.922C167.547 279.413 167.931 279.776 168.4 280.01C168.869 280.245 169.376 280.362 169.92 280.362ZM169.968 273.242C169.403 273.242 168.885 273.36 168.416 273.594C167.947 273.829 167.563 274.192 167.264 274.682C166.976 275.162 166.821 275.765 166.8 276.49H172.976C173.019 275.776 172.901 275.173 172.624 274.682C172.347 274.192 171.973 273.829 171.504 273.594C171.035 273.36 170.523 273.242 169.968 273.242ZM180.08 280.186V281.178H179.04C178.197 281.178 177.568 280.981 177.152 280.586C176.736 280.181 176.528 279.504 176.528 278.554V273.418H175.2V272.442H176.528V270.234H177.664V272.442H180.064V273.418H177.664V278.57C177.664 279.189 177.776 279.616 178 279.85C178.224 280.074 178.619 280.186 179.184 280.186H180.08ZM189.761 272.33C190.646 272.33 191.398 272.56 192.017 273.018C192.646 273.477 193.078 274.085 193.313 274.842V272.442H194.417V281.178H193.313V278.778C193.078 279.536 192.646 280.144 192.017 280.602C191.398 281.061 190.646 281.29 189.761 281.29C188.971 281.29 188.262 281.109 187.633 280.746C187.014 280.384 186.529 279.866 186.177 279.194C185.835 278.512 185.665 277.717 185.665 276.81C185.665 275.893 185.835 275.098 186.177 274.426C186.529 273.744 187.014 273.226 187.633 272.874C188.251 272.512 188.961 272.33 189.761 272.33ZM190.049 273.322C189.067 273.322 188.278 273.637 187.681 274.266C187.094 274.885 186.801 275.733 186.801 276.81C186.801 277.888 187.094 278.741 187.681 279.37C188.278 279.989 189.067 280.298 190.049 280.298C190.667 280.298 191.222 280.154 191.713 279.866C192.214 279.578 192.603 279.173 192.881 278.65C193.169 278.117 193.313 277.504 193.313 276.81C193.313 276.117 193.169 275.509 192.881 274.986C192.603 274.453 192.214 274.042 191.713 273.754C191.222 273.466 190.667 273.322 190.049 273.322ZM197.982 274.25C198.238 273.621 198.649 273.136 199.214 272.794C199.78 272.453 200.468 272.282 201.278 272.282V273.498H200.91C200.068 273.498 199.369 273.728 198.814 274.186C198.26 274.634 197.982 275.37 197.982 276.394V281.178H196.846V272.442H197.982V274.25ZM206.576 280.362C207.365 280.362 208.027 280.165 208.56 279.77C209.093 279.376 209.413 278.842 209.52 278.17H210.704C210.544 279.098 210.101 279.85 209.376 280.426C208.651 281.002 207.733 281.29 206.624 281.29C205.792 281.29 205.051 281.114 204.4 280.762C203.76 280.4 203.259 279.882 202.896 279.21C202.533 278.528 202.352 277.728 202.352 276.81C202.352 275.893 202.533 275.098 202.896 274.426C203.259 273.744 203.76 273.226 204.4 272.874C205.051 272.512 205.792 272.33 206.624 272.33C207.477 272.33 208.213 272.512 208.832 272.874C209.461 273.226 209.936 273.701 210.256 274.298C210.587 274.896 210.752 275.546 210.752 276.25C210.752 276.549 210.731 276.821 210.688 277.066H203.456C203.467 277.802 203.616 278.421 203.904 278.922C204.203 279.413 204.587 279.776 205.056 280.01C205.525 280.245 206.032 280.362 206.576 280.362ZM206.624 273.242C206.059 273.242 205.541 273.36 205.072 273.594C204.603 273.829 204.219 274.192 203.92 274.682C203.632 275.162 203.477 275.765 203.456 276.49H209.632C209.675 275.776 209.557 275.173 209.28 274.682C209.003 274.192 208.629 273.829 208.16 273.594C207.691 273.36 207.179 273.242 206.624 273.242ZM220.604 272.33C221.49 272.33 222.242 272.56 222.86 273.018C223.49 273.477 223.922 274.085 224.156 274.842V272.442H225.26V281.178H224.156V278.778C223.922 279.536 223.49 280.144 222.86 280.602C222.242 281.061 221.49 281.29 220.604 281.29C219.815 281.29 219.106 281.109 218.476 280.746C217.858 280.384 217.372 279.866 217.02 279.194C216.679 278.512 216.508 277.717 216.508 276.81C216.508 275.893 216.679 275.098 217.02 274.426C217.372 273.744 217.858 273.226 218.476 272.874C219.095 272.512 219.804 272.33 220.604 272.33ZM220.892 273.322C219.911 273.322 219.122 273.637 218.524 274.266C217.938 274.885 217.644 275.733 217.644 276.81C217.644 277.888 217.938 278.741 218.524 279.37C219.122 279.989 219.911 280.298 220.892 280.298C221.511 280.298 222.066 280.154 222.556 279.866C223.058 279.578 223.447 279.173 223.724 278.65C224.012 278.117 224.156 277.504 224.156 276.81C224.156 276.117 224.012 275.509 223.724 274.986C223.447 274.453 223.058 274.042 222.556 273.754C222.066 273.466 221.511 273.322 220.892 273.322ZM231.546 272.33C232.655 272.33 233.573 272.624 234.298 273.21C235.034 273.797 235.482 274.576 235.642 275.546H234.474C234.357 274.853 234.031 274.309 233.498 273.914C232.965 273.509 232.309 273.306 231.53 273.306C230.965 273.306 230.442 273.434 229.962 273.69C229.493 273.946 229.114 274.341 228.826 274.874C228.549 275.397 228.41 276.042 228.41 276.81C228.41 277.578 228.549 278.229 228.826 278.762C229.114 279.285 229.493 279.674 229.962 279.93C230.442 280.186 230.965 280.314 231.53 280.314C232.309 280.314 232.965 280.117 233.498 279.722C234.031 279.317 234.357 278.768 234.474 278.074H235.642C235.482 279.045 235.034 279.824 234.298 280.41C233.573 280.997 232.655 281.29 231.546 281.29C230.714 281.29 229.973 281.114 229.322 280.762C228.682 280.4 228.181 279.882 227.818 279.21C227.455 278.528 227.274 277.728 227.274 276.81C227.274 275.893 227.455 275.098 227.818 274.426C228.181 273.744 228.682 273.226 229.322 272.874C229.973 272.512 230.714 272.33 231.546 272.33ZM241.515 272.33C242.624 272.33 243.541 272.624 244.267 273.21C245.003 273.797 245.451 274.576 245.611 275.546H244.443C244.325 274.853 244 274.309 243.467 273.914C242.933 273.509 242.277 273.306 241.499 273.306C240.933 273.306 240.411 273.434 239.931 273.69C239.461 273.946 239.083 274.341 238.795 274.874C238.517 275.397 238.379 276.042 238.379 276.81C238.379 277.578 238.517 278.229 238.795 278.762C239.083 279.285 239.461 279.674 239.931 279.93C240.411 280.186 240.933 280.314 241.499 280.314C242.277 280.314 242.933 280.117 243.467 279.722C244 279.317 244.325 278.768 244.443 278.074H245.611C245.451 279.045 245.003 279.824 244.267 280.41C243.541 280.997 242.624 281.29 241.515 281.29C240.683 281.29 239.941 281.114 239.291 280.762C238.651 280.4 238.149 279.882 237.787 279.21C237.424 278.528 237.243 277.728 237.243 276.81C237.243 275.893 237.424 275.098 237.787 274.426C238.149 273.744 238.651 273.226 239.291 272.874C239.941 272.512 240.683 272.33 241.515 272.33ZM251.435 280.362C252.225 280.362 252.886 280.165 253.419 279.77C253.953 279.376 254.273 278.842 254.379 278.17H255.563C255.403 279.098 254.961 279.85 254.235 280.426C253.51 281.002 252.593 281.29 251.483 281.29C250.651 281.29 249.91 281.114 249.259 280.762C248.619 280.4 248.118 279.882 247.755 279.21C247.393 278.528 247.211 277.728 247.211 276.81C247.211 275.893 247.393 275.098 247.755 274.426C248.118 273.744 248.619 273.226 249.259 272.874C249.91 272.512 250.651 272.33 251.483 272.33C252.337 272.33 253.073 272.512 253.691 272.874C254.321 273.226 254.795 273.701 255.115 274.298C255.446 274.896 255.611 275.546 255.611 276.25C255.611 276.549 255.59 276.821 255.547 277.066H248.315C248.326 277.802 248.475 278.421 248.763 278.922C249.062 279.413 249.446 279.776 249.915 280.01C250.385 280.245 250.891 280.362 251.435 280.362ZM251.483 273.242C250.918 273.242 250.401 273.36 249.931 273.594C249.462 273.829 249.078 274.192 248.779 274.682C248.491 275.162 248.337 275.765 248.315 276.49H254.491C254.534 275.776 254.417 275.173 254.139 274.682C253.862 274.192 253.489 273.829 253.019 273.594C252.55 273.36 252.038 273.242 251.483 273.242ZM262.299 272.33C263.099 272.33 263.803 272.512 264.411 272.874C265.03 273.226 265.51 273.744 265.851 274.426C266.203 275.098 266.379 275.893 266.379 276.81C266.379 277.717 266.203 278.512 265.851 279.194C265.51 279.866 265.03 280.384 264.411 280.746C263.793 281.109 263.089 281.29 262.299 281.29C261.403 281.29 260.646 281.061 260.027 280.602C259.409 280.144 258.982 279.536 258.747 278.778V285.306H257.627V272.442H258.747V274.842C258.982 274.085 259.409 273.477 260.027 273.018C260.646 272.56 261.403 272.33 262.299 272.33ZM261.995 273.322C261.377 273.322 260.817 273.466 260.315 273.754C259.825 274.042 259.441 274.453 259.163 274.986C258.886 275.509 258.747 276.117 258.747 276.81C258.747 277.504 258.886 278.117 259.163 278.65C259.441 279.173 259.825 279.578 260.315 279.866C260.817 280.154 261.377 280.298 261.995 280.298C262.987 280.298 263.777 279.989 264.363 279.37C264.95 278.741 265.243 277.888 265.243 276.81C265.243 275.733 264.95 274.885 264.363 274.266C263.777 273.637 262.987 273.322 261.995 273.322ZM272.361 280.186V281.178H271.321C270.478 281.178 269.849 280.981 269.433 280.586C269.017 280.181 268.809 279.504 268.809 278.554V273.418H267.481V272.442H268.809V270.234H269.945V272.442H272.345V273.418H269.945V278.57C269.945 279.189 270.057 279.616 270.281 279.85C270.505 280.074 270.9 280.186 271.465 280.186H272.361ZM278.014 280.362C278.803 280.362 279.464 280.165 279.998 279.77C280.531 279.376 280.851 278.842 280.958 278.17H282.142C281.982 279.098 281.539 279.85 280.814 280.426C280.088 281.002 279.171 281.29 278.062 281.29C277.23 281.29 276.488 281.114 275.838 280.762C275.198 280.4 274.696 279.882 274.334 279.21C273.971 278.528 273.79 277.728 273.79 276.81C273.79 275.893 273.971 275.098 274.334 274.426C274.696 273.744 275.198 273.226 275.838 272.874C276.488 272.512 277.23 272.33 278.062 272.33C278.915 272.33 279.651 272.512 280.27 272.874C280.899 273.226 281.374 273.701 281.694 274.298C282.024 274.896 282.19 275.546 282.19 276.25C282.19 276.549 282.168 276.821 282.126 277.066H274.894C274.904 277.802 275.054 278.421 275.342 278.922C275.64 279.413 276.024 279.776 276.494 280.01C276.963 280.245 277.47 280.362 278.014 280.362ZM278.062 273.242C277.496 273.242 276.979 273.36 276.51 273.594C276.04 273.829 275.656 274.192 275.358 274.682C275.07 275.162 274.915 275.765 274.894 276.49H281.07C281.112 275.776 280.995 275.173 280.718 274.682C280.44 274.192 280.067 273.829 279.598 273.594C279.128 273.36 278.616 273.242 278.062 273.242ZM287.886 272.33C288.771 272.33 289.523 272.56 290.142 273.018C290.771 273.477 291.198 274.085 291.422 274.842V269.338H292.542V281.178H291.422V278.778C291.198 279.536 290.771 280.144 290.142 280.602C289.523 281.061 288.771 281.29 287.886 281.29C287.096 281.29 286.387 281.109 285.758 280.746C285.139 280.384 284.654 279.866 284.302 279.194C283.96 278.512 283.79 277.717 283.79 276.81C283.79 275.893 283.96 275.098 284.302 274.426C284.654 273.744 285.139 273.226 285.758 272.874C286.376 272.512 287.086 272.33 287.886 272.33ZM288.174 273.322C287.192 273.322 286.403 273.637 285.806 274.266C285.219 274.885 284.926 275.733 284.926 276.81C284.926 277.888 285.219 278.741 285.806 279.37C286.403 279.989 287.192 280.298 288.174 280.298C288.792 280.298 289.347 280.154 289.838 279.866C290.339 279.578 290.728 279.173 291.006 278.65C291.294 278.117 291.438 277.504 291.438 276.81C291.438 276.117 291.294 275.509 291.006 274.986C290.728 274.453 290.339 274.042 289.838 273.754C289.347 273.466 288.792 273.322 288.174 273.322Z" fill="white"/>
<g filter="url(#filter0_f)">
<path d="M51.9427 87.4791L51.9427 94.9791L51.9427 87.4791ZM314.443 117.479V296.872H329.443V117.479H314.443ZM291.943 319.372H51.9428V334.372H291.943V319.372ZM29.4427 296.872V117.479H14.4427V296.872H29.4427ZM51.9427 94.9791L94.3538 94.9791L94.3538 79.9791L51.9427 79.9791L51.9427 94.9791ZM249.652 94.9792H291.943V79.9792H249.652V94.9792ZM51.9428 319.372C39.5163 319.372 29.4427 309.299 29.4427 296.872H14.4427C14.4427 317.583 31.2321 334.372 51.9428 334.372V319.372ZM314.443 296.872C314.443 309.299 304.369 319.372 291.943 319.372V334.372C312.653 334.372 329.443 317.583 329.443 296.872H314.443ZM329.443 117.479C329.443 96.7685 312.653 79.9792 291.943 79.9792V94.9792C304.369 94.9792 314.443 105.053 314.443 117.479H329.443ZM29.4427 117.479C29.4427 105.053 39.5163 94.9791 51.9427 94.9791L51.9427 79.9791C31.2321 79.9791 14.4427 96.7685 14.4427 117.479H29.4427Z" fill="url(#paint0_linear)"/>
</g>
<g filter="url(#filter1_f)">
<ellipse cx="94.3078" cy="87.4791" rx="3.125" ry="3.08358" fill="#48F272"/>
</g>
<g filter="url(#filter2_f)">
<ellipse cx="249.771" cy="87.4791" rx="3.125" ry="3.08358" fill="#FD6461"/>
</g>
<g filter="url(#filter3_f)">
<path d="M51.9427 86.2456L51.9427 89.2456L51.9427 86.2456ZM318.943 116.246V295.639H324.943V116.246H318.943ZM291.943 322.639H51.9428V328.639H291.943V322.639ZM24.9427 295.639V116.246H18.9427V295.639H24.9427ZM51.9427 89.2456L94.3538 89.2456L94.3538 83.2456L51.9427 83.2456L51.9427 89.2456ZM249.652 89.2456H291.943V83.2456H249.652V89.2456ZM51.9428 322.639C37.0311 322.639 24.9427 310.551 24.9427 295.639H18.9427C18.9427 313.864 33.7174 328.639 51.9428 328.639V322.639ZM318.943 295.639C318.943 310.551 306.854 322.639 291.943 322.639V328.639C310.168 328.639 324.943 313.864 324.943 295.639H318.943ZM324.943 116.246C324.943 98.0202 310.168 83.2456 291.943 83.2456V89.2456C306.854 89.2456 318.943 101.334 318.943 116.246H324.943ZM24.9427 116.246C24.9427 101.334 37.0311 89.2456 51.9427 89.2456L51.9427 83.2456C33.7173 83.2456 18.9427 98.0203 18.9427 116.246H24.9427Z" fill="url(#paint1_linear)"/>
</g>
<g filter="url(#filter4_f)">
<ellipse cx="94.3686" cy="86.2457" rx="1.875" ry="1.85015" fill="#48F272"/>
</g>
<g filter="url(#filter5_f)">
<ellipse cx="249.643" cy="86.2457" rx="1.875" ry="1.85015" fill="#FD6461"/>
</g>
<path d="M51.9427 86.2457V87.2457V86.2457ZM320.943 116.246V295.639H322.943V116.246H320.943ZM291.943 324.639H51.9428V326.639H291.943V324.639ZM22.9427 295.639V116.246H20.9427V295.639H22.9427ZM51.9427 87.2457L94.3538 87.2457V85.2457L51.9427 85.2457V87.2457ZM249.652 87.2458H291.943V85.2458H249.652V87.2458ZM51.9428 324.639C35.9265 324.639 22.9427 311.655 22.9427 295.639H20.9427C20.9427 312.76 34.8219 326.639 51.9428 326.639V324.639ZM320.943 295.639C320.943 311.655 307.959 324.639 291.943 324.639V326.639C309.064 326.639 322.943 312.76 322.943 295.639H320.943ZM322.943 116.246C322.943 99.1249 309.064 85.2458 291.943 85.2458V87.2458C307.959 87.2458 320.943 100.229 320.943 116.246H322.943ZM22.9427 116.246C22.9427 100.23 35.9265 87.2457 51.9427 87.2457V85.2457C34.8219 85.2457 20.9427 99.1249 20.9427 116.246H22.9427Z" fill="white"/>
<circle cx="94.3686" cy="86.2457" r="1" fill="white"/>
<ellipse cx="249.771" cy="86.2458" rx="1" ry="0.986747" fill="white"/>
<defs>
<filter id="filter0_f" x="0.442749" y="65.9791" width="343" height="282.393" filterUnits="userSpaceOnUse" color-interpolation-filters="sRGB">
<feFlood flood-opacity="0" result="BackgroundImageFix"/>
<feBlend mode="normal" in="SourceGraphic" in2="BackgroundImageFix" result="shape"/>
<feGaussianBlur stdDeviation="7" result="effect1_foregroundBlur"/>
</filter>
<filter id="filter1_f" x="80.1828" y="73.3955" width="28.25" height="28.1672" filterUnits="userSpaceOnUse" color-interpolation-filters="sRGB">
<feFlood flood-opacity="0" result="BackgroundImageFix"/>
<feBlend mode="normal" in="SourceGraphic" in2="BackgroundImageFix" result="shape"/>
<feGaussianBlur stdDeviation="5.5" result="effect1_foregroundBlur"/>
</filter>
<filter id="filter2_f" x="235.646" y="73.3955" width="28.25" height="28.1672" filterUnits="userSpaceOnUse" color-interpolation-filters="sRGB">
<feFlood flood-opacity="0" result="BackgroundImageFix"/>
<feBlend mode="normal" in="SourceGraphic" in2="BackgroundImageFix" result="shape"/>
<feGaussianBlur stdDeviation="5.5" result="effect1_foregroundBlur"/>
</filter>
<filter id="filter3_f" x="12.9427" y="77.2456" width="318" height="257.393" filterUnits="userSpaceOnUse" color-interpolation-filters="sRGB">
<feFlood flood-opacity="0" result="BackgroundImageFix"/>
<feBlend mode="normal" in="SourceGraphic" in2="BackgroundImageFix" result="shape"/>
<feGaussianBlur stdDeviation="3" result="effect1_foregroundBlur"/>
</filter>
<filter id="filter4_f" x="88.4936" y="80.3955" width="11.75" height="11.7003" filterUnits="userSpaceOnUse" color-interpolation-filters="sRGB">
<feFlood flood-opacity="0" result="BackgroundImageFix"/>
<feBlend mode="normal" in="SourceGraphic" in2="BackgroundImageFix" result="shape"/>
<feGaussianBlur stdDeviation="2" result="effect1_foregroundBlur"/>
</filter>
<filter id="filter5_f" x="243.768" y="80.3955" width="11.75" height="11.7003" filterUnits="userSpaceOnUse" color-interpolation-filters="sRGB">
<feFlood flood-opacity="0" result="BackgroundImageFix"/>
<feBlend mode="normal" in="SourceGraphic" in2="BackgroundImageFix" result="shape"/>
<feGaussianBlur stdDeviation="2" result="effect1_foregroundBlur"/>
</filter>
<linearGradient id="paint0_linear" x1="286.954" y1="203.474" x2="50.5797" y2="203.713" gradientUnits="userSpaceOnUse">
<stop stop-color="#FF1640"/>
<stop offset="0.315399" stop-color="#FABA33"/>
<stop offset="0.573227" stop-color="#E9E031"/>
<stop offset="0.826995" stop-color="#45F273"/>
<stop offset="1" stop-color="#30FFE9"/>
</linearGradient>
<linearGradient id="paint1_linear" x1="286.954" y1="202.24" x2="50.5797" y2="202.479" gradientUnits="userSpaceOnUse">
<stop stop-color="#FF1640"/>
<stop offset="0.315399" stop-color="#FABA33"/>
<stop offset="0.573227" stop-color="#E9E031"/>
<stop offset="0.826995" stop-color="#45F273"/>
<stop offset="1" stop-color="#30FFE9"/>
</linearGradient>
</defs>
</svg>
