<svg width="69" height="94" viewBox="0 0 69 94" fill="none" xmlns="http://www.w3.org/2000/svg">
<path d="M46.242 34.5248C46.242 31.8608 44.082 30.9488 41.442 29.8928L39.762 29.2208C37.986 28.5008 36.786 27.6128 36.786 25.9568C36.786 24.0848 38.298 23.0048 40.506 23.0048C42.57 23.0048 43.698 24.0368 44.394 25.3328C44.538 25.5728 44.682 25.7408 45.018 25.7408C45.354 25.7408 45.546 25.5008 45.546 25.2368C45.546 25.0688 45.498 24.8768 45.33 24.5648C44.658 23.3888 43.338 22.2608 41.466 21.9488V21.9248V20.3648C41.466 20.0768 41.226 19.8128 40.938 19.8128C40.626 19.8128 40.386 20.0768 40.386 20.3648V21.8768C37.698 21.9248 35.562 23.5568 35.562 25.9808C35.562 28.1168 37.194 29.3888 39.498 30.3008L41.37 31.0448C43.266 31.7888 45.018 32.4128 45.018 34.5248C45.018 36.8528 42.834 37.8608 40.674 37.8608C38.562 37.8608 36.954 36.8768 36.186 35.1968C36.066 34.9328 35.874 34.7648 35.562 34.7648C35.226 34.7648 35.01 35.0048 35.01 35.3648C35.01 35.4848 35.058 35.6288 35.13 35.7968C35.97 37.7888 38.154 38.9168 40.386 39.0128V40.5248C40.386 40.8128 40.626 41.0768 40.938 41.0768C41.226 41.0768 41.466 40.8128 41.466 40.5248V38.9648C43.938 38.6768 46.242 37.1408 46.242 34.5248Z" fill="white"/>
<circle cx="36.641" cy="5.40613" r="0.5" fill="#C4C4C4" stroke="white"/>
<mask id="path-3-inside-1" fill="white">
<path fill-rule="evenodd" clip-rule="evenodd" d="M7.57479 52.8467C7.74223 52.0025 10.1326 50.4392 12.801 50.4392C15.4888 50.4392 18.3934 52.2832 18.5581 53.1378C18.5737 53.1879 18.5939 53.2542 18.6174 53.3351C18.686 53.5714 18.7004 53.7489 18.6375 53.9868C18.6293 54.0179 18.6225 54.0456 18.6163 54.071L18.6163 54.071C18.5901 54.1787 18.5739 54.2452 18.4969 54.3579C18.403 54.4952 18.2431 54.5787 18.0867 54.6353C17.9031 54.7017 17.7568 54.7282 17.4734 54.7681C17.3528 54.785 17.2231 54.7792 17.0962 54.7736C17.0387 54.771 16.9818 54.7685 16.9266 54.7681C16.6902 54.7664 16.5662 54.7237 16.3561 54.6513L16.3094 54.6353C16.2378 54.6107 16.1849 54.584 16.1327 54.5576C16.075 54.5284 16.0183 54.4998 15.9383 54.4751C15.8255 54.4403 15.7511 54.4292 15.6336 54.4399C15.5273 54.4497 15.4511 54.4844 15.3625 54.5247L15.3625 54.5247C15.3393 54.5353 15.3154 54.5462 15.2898 54.5571C15.2115 54.5907 15.1528 54.608 15.0952 54.6204V56.0653C15.0952 56.3852 14.8448 56.6467 14.5293 56.6643V58.3201H17.4399C17.9389 56.5881 19.5356 55.3213 21.4282 55.3213C23.3208 55.3213 24.9175 56.5881 25.4165 58.3201H27.8037V60.8127H25.3566C24.7989 62.4464 23.2508 63.6213 21.4282 63.6213C19.6056 63.6213 18.0575 62.4464 17.4998 60.8127H14.5293V62.3277H14.8785C15.9831 62.3277 16.8785 63.2231 16.8785 64.3277V65.3549H17.3032C21.7215 65.3549 25.3032 68.9366 25.3032 73.3549V93.0834H0.605957V73.3549C0.605957 68.9366 4.18768 65.3549 8.60596 65.3549H8.927V64.3277C8.927 63.2231 9.82243 62.3277 10.927 62.3277H11.2764V60.8127H9.15579V60.9368C9.15579 61.2862 8.8726 61.5693 8.52327 61.5693C8.17394 61.5693 7.89075 61.2862 7.89075 60.9368V60.8127H7.72507C7.50416 60.8127 7.32507 60.6336 7.32507 60.4127V60.1009H7.10117C6.88026 60.1009 6.70117 59.9218 6.70117 59.7009V59.4319C6.70117 59.211 6.88026 59.0319 7.10117 59.0319H7.32507V58.7201C7.32507 58.4992 7.50416 58.3201 7.72507 58.3201H7.89075V58.196C7.89075 57.8467 8.17394 57.5635 8.52327 57.5635C8.8726 57.5635 9.15579 57.8467 9.15579 58.196V58.3201H11.2764V56.6604C10.9814 56.6226 10.7534 56.3705 10.7534 56.0653V54.632C10.6818 54.607 10.6421 54.5922 10.6052 54.5784L10.6052 54.5784L10.6051 54.5784C10.5578 54.5607 10.5149 54.5447 10.4148 54.5112C10.3641 54.4942 10.3221 54.474 10.2825 54.455L10.2825 54.455C10.2062 54.4184 10.1389 54.3862 10.0359 54.3892C9.92869 54.3923 9.88635 54.4215 9.83696 54.4556C9.79878 54.482 9.75638 54.5113 9.67655 54.5337C9.3761 54.6179 9.08678 54.6562 8.77487 54.6652C8.40917 54.6757 8.0907 54.643 7.77421 54.4595C7.72794 54.4326 7.68812 54.412 7.65315 54.3938C7.52377 54.3266 7.46077 54.2939 7.38348 54.1118C7.26106 53.8233 7.47729 53.1587 7.47729 53.1587L7.57479 52.8467Z"/>
</mask>
<path d="M7.57479 52.8467L8.52927 53.145L8.54525 53.0938L8.55568 53.0413L7.57479 52.8467ZM18.5581 53.1378L17.5761 53.327L17.5868 53.3824L17.6036 53.4362L18.5581 53.1378ZM18.6174 53.3351L19.5778 53.0563L19.5778 53.0563L18.6174 53.3351ZM18.6375 53.9868L17.6707 53.7312L17.6707 53.7313L18.6375 53.9868ZM18.6163 54.071L19.5608 54.3995L19.5766 54.3542L19.588 54.3076L18.6163 54.071ZM18.6163 54.071L17.6718 53.7425L17.6561 53.7879L17.6447 53.8345L18.6163 54.071ZM18.4969 54.3579L19.3224 54.9223L19.3224 54.9223L18.4969 54.3579ZM18.0867 54.6353L18.4268 55.5756L18.4268 55.5756L18.0867 54.6353ZM17.4734 54.7681L17.6126 55.7583L17.4734 54.7681ZM17.0962 54.7736L17.0516 55.7726L17.0516 55.7726L17.0962 54.7736ZM16.9266 54.7681L16.9335 53.7681H16.9335L16.9266 54.7681ZM16.3561 54.6513L16.6817 53.7058L16.6812 53.7056L16.3561 54.6513ZM16.3094 54.6353L16.6345 53.6896L16.6335 53.6892L16.3094 54.6353ZM16.1327 54.5576L16.5839 53.6652L16.5839 53.6652L16.1327 54.5576ZM15.9383 54.4751L15.6438 55.4308L15.9383 54.4751ZM15.6336 54.4399L15.7247 55.4358L15.7247 55.4358L15.6336 54.4399ZM15.3625 54.5247L14.9481 53.6146L14.9315 53.6222L14.9152 53.6303L15.3625 54.5247ZM15.3625 54.5247L15.7769 55.4348L15.7934 55.4273L15.8097 55.4192L15.3625 54.5247ZM15.2898 54.5571L15.6838 55.4763L15.2898 54.5571ZM15.0952 54.6204L14.8848 53.6428L14.0952 53.8128V54.6204H15.0952ZM14.5293 56.6643L14.4734 55.6659L13.5293 55.7187V56.6643H14.5293ZM14.5293 58.3201H13.5293V59.3201H14.5293V58.3201ZM17.4399 58.3201V59.3201H18.1925L18.4008 58.597L17.4399 58.3201ZM25.4165 58.3201L24.4556 58.597L24.6639 59.3201H25.4165V58.3201ZM27.8037 58.3201H28.8037V57.3201H27.8037V58.3201ZM27.8037 60.8127V61.8127H28.8037V60.8127H27.8037ZM25.3566 60.8127V59.8127H24.6413L24.4102 60.4896L25.3566 60.8127ZM17.4998 60.8127L18.4462 60.4896L18.2151 59.8127H17.4998V60.8127ZM14.5293 60.8127V59.8127H13.5293V60.8127H14.5293ZM14.5293 62.3277H13.5293V63.3277H14.5293V62.3277ZM16.8785 65.3549H15.8785V66.3549H16.8785V65.3549ZM25.3032 93.0834V94.0834H26.3032V93.0834H25.3032ZM0.605957 93.0834H-0.394043V94.0834H0.605957V93.0834ZM8.927 65.3549V66.3549H9.927V65.3549H8.927ZM11.2764 62.3277V63.3277H12.2764V62.3277H11.2764ZM11.2764 60.8127H12.2764V59.8127H11.2764V60.8127ZM9.15579 60.8127V59.8127H8.15579V60.8127H9.15579ZM7.89075 60.8127H8.89075V59.8127H7.89075V60.8127ZM7.32507 60.1009H8.32507V59.1009H7.32507V60.1009ZM7.32507 59.0319V60.0319H8.32507V59.0319H7.32507ZM7.89075 58.3201V59.3201H8.89075V58.3201H7.89075ZM9.15579 58.3201H8.15579V59.3201H9.15579V58.3201ZM11.2764 58.3201V59.3201H12.2764V58.3201H11.2764ZM11.2764 56.6604H12.2764V55.7804L11.4035 55.6685L11.2764 56.6604ZM10.7534 54.632H11.7534V53.9212L11.0821 53.6875L10.7534 54.632ZM10.6052 54.5784L10.2338 55.5069L10.2445 55.5111L10.2552 55.5152L10.6052 54.5784ZM10.6052 54.5784L10.9765 53.6499L10.9665 53.6459L10.9563 53.6421L10.6052 54.5784ZM10.6051 54.5784L10.9563 53.6421L10.9551 53.6416L10.6051 54.5784ZM10.4148 54.5112L10.0971 55.4593L10.0971 55.4593L10.4148 54.5112ZM10.2825 54.455L9.83526 55.3494L9.84265 55.3531L9.8501 55.3567L10.2825 54.455ZM10.2825 54.455L10.7297 53.5606L10.7223 53.5569L10.7148 53.5533L10.2825 54.455ZM10.0359 54.3892L10.0071 53.3896L10.0359 54.3892ZM9.83696 54.4556L9.26852 53.6329L9.26852 53.6329L9.83696 54.4556ZM9.67655 54.5337L9.40657 53.5708L9.40657 53.5708L9.67655 54.5337ZM8.77487 54.6652L8.80367 55.6647L8.77487 54.6652ZM7.77421 54.4595L7.27262 55.3246L7.27263 55.3246L7.77421 54.4595ZM7.65315 54.3938L7.19237 55.2813L7.19238 55.2813L7.65315 54.3938ZM7.38348 54.1118L6.46295 54.5025L6.46295 54.5025L7.38348 54.1118ZM7.47729 53.1587L8.4283 53.4681L8.43177 53.457L7.47729 53.1587ZM8.55568 53.0413C8.53323 53.1544 8.51225 53.081 8.76257 52.8515C8.97471 52.657 9.29649 52.4299 9.71232 52.2131C10.5458 51.7786 11.653 51.4392 12.801 51.4392V49.4392C11.2806 49.4392 9.85838 49.8815 8.78775 50.4396C8.2515 50.7192 7.77752 51.0412 7.41098 51.3773C7.08263 51.6783 6.70006 52.1169 6.59389 52.6522L8.55568 53.0413ZM12.801 51.4392C13.9368 51.4392 15.1743 51.8361 16.1613 52.3536C16.65 52.61 17.0446 52.879 17.3114 53.1107C17.4452 53.2269 17.5303 53.3194 17.5774 53.3814C17.6342 53.4562 17.5969 53.4349 17.5761 53.327L19.54 52.9486C19.4781 52.6271 19.314 52.3612 19.17 52.1716C19.0162 51.9692 18.8263 51.7774 18.6227 51.6006C18.2146 51.2462 17.6841 50.894 17.0901 50.5824C15.9116 49.9644 14.3529 49.4392 12.801 49.4392V51.4392ZM17.6036 53.4362C17.6174 53.4801 17.6356 53.5399 17.6571 53.6139L19.5778 53.0563C19.5523 52.9685 19.5301 52.8956 19.5125 52.8394L17.6036 53.4362ZM17.6571 53.6139C17.6782 53.6867 17.6778 53.7061 17.6776 53.7018C17.6775 53.6997 17.6777 53.698 17.6776 53.6992C17.6774 53.7011 17.6761 53.7108 17.6707 53.7312L19.6043 54.2424C19.7234 53.7919 19.685 53.4257 19.5778 53.0563L17.6571 53.6139ZM17.6707 53.7313C17.6596 53.7731 17.6508 53.8096 17.6447 53.8345L19.588 54.3076C19.5943 54.2817 19.5989 54.2628 19.6043 54.2424L17.6707 53.7313ZM17.6718 53.7425L17.6718 53.7425L19.5608 54.3996L19.5608 54.3995L17.6718 53.7425ZM17.6447 53.8345C17.6413 53.8487 17.639 53.8578 17.637 53.8659C17.6351 53.8736 17.6341 53.8772 17.6337 53.8785C17.6332 53.8804 17.636 53.8702 17.6421 53.8542C17.6486 53.8371 17.6561 53.821 17.6634 53.8075C17.6701 53.7949 17.674 53.7897 17.6713 53.7936L19.3224 54.9223C19.502 54.6596 19.5525 54.4532 19.588 54.3076L17.6447 53.8345ZM17.6713 53.7936C17.7205 53.7216 17.7697 53.6887 17.7804 53.6819C17.7904 53.6755 17.7832 53.6816 17.7466 53.6949L18.4268 55.5756C18.6374 55.4995 19.0464 55.3261 19.3224 54.9223L17.6713 53.7936ZM17.7466 53.6949C17.666 53.724 17.6061 53.7396 17.3342 53.7778L17.6126 55.7583C17.9076 55.7169 18.1402 55.6793 18.4268 55.5756L17.7466 53.6949ZM17.3342 53.7778C17.3361 53.7775 17.3237 53.7793 17.2877 53.7793C17.2501 53.7793 17.2081 53.7776 17.1409 53.7746L17.0516 55.7726C17.1588 55.7774 17.3839 55.7905 17.6126 55.7583L17.3342 53.7778ZM17.1409 53.7746C17.087 53.7722 17.0109 53.7686 16.9335 53.7681L16.9196 55.768C16.9527 55.7683 16.9904 55.7698 17.0516 55.7726L17.1409 53.7746ZM16.9335 53.7681C16.8811 53.7677 16.8642 53.7636 16.8553 53.7616C16.8297 53.7557 16.798 53.7459 16.6817 53.7058L16.0304 55.5968C16.2588 55.6755 16.5118 55.7652 16.9196 55.768L16.9335 53.7681ZM16.6812 53.7056L16.6345 53.6896L15.9842 55.5809L16.0309 55.597L16.6812 53.7056ZM16.6335 53.6892C16.6328 53.689 16.6319 53.6887 16.6277 53.6868C16.6206 53.6836 16.6121 53.6794 16.5839 53.6652L15.6815 55.45C15.735 55.4771 15.8421 55.5322 15.9852 55.5813L16.6335 53.6892ZM16.5839 53.6652C16.5234 53.6346 16.4009 53.5712 16.2327 53.5194L15.6438 55.4308C15.6433 55.4306 15.642 55.4302 15.6404 55.4296C15.6388 55.429 15.6382 55.4287 15.6391 55.4291C15.6402 55.4296 15.6433 55.431 15.6501 55.4343C15.6577 55.438 15.6661 55.4423 15.6815 55.45L16.5839 53.6652ZM16.2327 53.5194C16.0194 53.4537 15.8129 53.4194 15.5424 53.4441L15.7247 55.4358C15.729 55.4354 15.7237 55.436 15.7119 55.436C15.6992 55.436 15.6835 55.4352 15.6664 55.4331C15.6322 55.4289 15.6165 55.4223 15.6438 55.4308L16.2327 53.5194ZM15.5424 53.4441C15.248 53.471 15.0314 53.5767 14.9481 53.6146L15.7769 55.4348C15.7884 55.4296 15.7966 55.4258 15.8043 55.4224C15.8117 55.4191 15.8165 55.417 15.8199 55.4155C15.8268 55.4126 15.8246 55.4138 15.8168 55.4164C15.8083 55.4194 15.7947 55.4236 15.7772 55.4275C15.7596 55.4314 15.7418 55.4342 15.7247 55.4358L15.5424 53.4441ZM14.9152 53.6303L14.9152 53.6303L15.8097 55.4192L15.8097 55.4192L14.9152 53.6303ZM14.948 53.6147C14.9238 53.6257 14.9096 53.6321 14.8959 53.638L15.6838 55.4763C15.7211 55.4603 15.7549 55.4448 15.7769 55.4348L14.948 53.6147ZM14.8959 53.638C14.883 53.6435 14.8791 53.6446 14.8815 53.6438C14.8824 53.6435 14.8837 53.6431 14.885 53.6428C14.8862 53.6425 14.8864 53.6425 14.8848 53.6428L15.3057 55.598C15.4257 55.5722 15.5458 55.5354 15.6838 55.4763L14.8959 53.638ZM14.0952 54.6204V56.0653H16.0952V54.6204H14.0952ZM14.0952 56.0653C14.0952 55.8516 14.2622 55.6777 14.4734 55.6659L14.5851 57.6628C15.4274 57.6157 16.0952 56.9188 16.0952 56.0653H14.0952ZM13.5293 56.6643V58.3201H15.5293V56.6643H13.5293ZM14.5293 59.3201H17.4399V57.3201H14.5293V59.3201ZM18.4008 58.597C18.7798 57.2817 19.9931 56.3213 21.4282 56.3213V54.3213C19.0781 54.3213 17.0981 55.8945 16.479 58.0433L18.4008 58.597ZM21.4282 56.3213C22.8633 56.3213 24.0766 57.2817 24.4556 58.597L26.3774 58.0433C25.7583 55.8945 23.7783 54.3213 21.4282 54.3213V56.3213ZM25.4165 59.3201H27.8037V57.3201H25.4165V59.3201ZM26.8037 58.3201V60.8127H28.8037V58.3201H26.8037ZM27.8037 59.8127H25.3566V61.8127H27.8037V59.8127ZM24.4102 60.4896C23.9865 61.7309 22.81 62.6213 21.4282 62.6213V64.6213C23.6915 64.6213 25.6113 63.1619 26.303 61.1358L24.4102 60.4896ZM21.4282 62.6213C20.0464 62.6213 18.8699 61.7309 18.4462 60.4896L16.5534 61.1358C17.2451 63.1619 19.1649 64.6213 21.4282 64.6213V62.6213ZM17.4998 59.8127H14.5293V61.8127H17.4998V59.8127ZM13.5293 60.8127V62.3277H15.5293V60.8127H13.5293ZM14.5293 63.3277H14.8785V61.3277H14.5293V63.3277ZM14.8785 63.3277C15.4308 63.3277 15.8785 63.7754 15.8785 64.3277H17.8785C17.8785 62.6708 16.5354 61.3277 14.8785 61.3277V63.3277ZM15.8785 64.3277V65.3549H17.8785V64.3277H15.8785ZM16.8785 66.3549H17.3032V64.3549H16.8785V66.3549ZM17.3032 66.3549C21.1692 66.3549 24.3032 69.4889 24.3032 73.3549H26.3032C26.3032 68.3844 22.2738 64.3549 17.3032 64.3549V66.3549ZM24.3032 73.3549V93.0834H26.3032V73.3549H24.3032ZM25.3032 92.0834H0.605957V94.0834H25.3032V92.0834ZM1.60596 93.0834V73.3549H-0.394043V93.0834H1.60596ZM1.60596 73.3549C1.60596 69.4889 4.73996 66.3549 8.60596 66.3549V64.3549C3.63539 64.3549 -0.394043 68.3844 -0.394043 73.3549H1.60596ZM8.60596 66.3549H8.927V64.3549H8.60596V66.3549ZM9.927 65.3549V64.3277H7.927V65.3549H9.927ZM9.927 64.3277C9.927 63.7754 10.3747 63.3277 10.927 63.3277V61.3277C9.27015 61.3277 7.927 62.6708 7.927 64.3277H9.927ZM10.927 63.3277H11.2764V61.3277H10.927V63.3277ZM12.2764 62.3277V60.8127H10.2764V62.3277H12.2764ZM11.2764 59.8127H9.15579V61.8127H11.2764V59.8127ZM8.15579 60.8127V60.9368H10.1558V60.8127H8.15579ZM8.15579 60.9368C8.15579 60.7339 8.32031 60.5693 8.52327 60.5693V62.5693C9.42488 62.5693 10.1558 61.8384 10.1558 60.9368H8.15579ZM8.52327 60.5693C8.72622 60.5693 8.89075 60.7339 8.89075 60.9368H6.89075C6.89075 61.8384 7.62165 62.5693 8.52327 62.5693V60.5693ZM8.89075 60.9368V60.8127H6.89075V60.9368H8.89075ZM7.89075 59.8127H7.72507V61.8127H7.89075V59.8127ZM7.72507 59.8127C8.05645 59.8127 8.32507 60.0813 8.32507 60.4127H6.32507C6.32507 61.1859 6.95187 61.8127 7.72507 61.8127V59.8127ZM8.32507 60.4127V60.1009H6.32507V60.4127H8.32507ZM7.32507 59.1009H7.10117V61.1009H7.32507V59.1009ZM7.10117 59.1009C7.43254 59.1009 7.70117 59.3695 7.70117 59.7009H5.70117C5.70117 60.4741 6.32797 61.1009 7.10117 61.1009V59.1009ZM7.70117 59.7009V59.4319H5.70117V59.7009H7.70117ZM7.70117 59.4319C7.70117 59.7633 7.43254 60.0319 7.10117 60.0319V58.0319C6.32797 58.0319 5.70117 58.6587 5.70117 59.4319H7.70117ZM7.10117 60.0319H7.32507V58.0319H7.10117V60.0319ZM8.32507 59.0319V58.7201H6.32507V59.0319H8.32507ZM8.32507 58.7201C8.32507 59.0515 8.05644 59.3201 7.72507 59.3201V57.3201C6.95188 57.3201 6.32507 57.9469 6.32507 58.7201H8.32507ZM7.72507 59.3201H7.89075V57.3201H7.72507V59.3201ZM8.89075 58.3201V58.196H6.89075V58.3201H8.89075ZM8.89075 58.196C8.89075 58.399 8.72622 58.5635 8.52327 58.5635V56.5635C7.62165 56.5635 6.89075 57.2944 6.89075 58.196H8.89075ZM8.52327 58.5635C8.32031 58.5635 8.15579 58.399 8.15579 58.196H10.1558C10.1558 57.2944 9.42488 56.5635 8.52327 56.5635V58.5635ZM8.15579 58.196V58.3201H10.1558V58.196H8.15579ZM9.15579 59.3201H11.2764V57.3201H9.15579V59.3201ZM12.2764 58.3201V56.6604H10.2764V58.3201H12.2764ZM11.4035 55.6685C11.6012 55.6938 11.7534 55.861 11.7534 56.0653H9.75342C9.75342 56.8801 10.3616 57.5513 11.1492 57.6523L11.4035 55.6685ZM11.7534 56.0653V54.632H9.75342V56.0653H11.7534ZM11.0821 53.6875C11.0206 53.6661 10.9888 53.6542 10.9551 53.6416L10.2552 55.5152C10.2954 55.5302 10.3429 55.5479 10.4247 55.5764L11.0821 53.6875ZM10.9766 53.6499L10.9765 53.6499L10.2338 55.5069L10.2338 55.5069L10.9766 53.6499ZM10.9563 53.6421L10.9563 53.6421L10.254 55.5147L10.254 55.5147L10.9563 53.6421ZM10.9551 53.6416C10.9005 53.6212 10.8464 53.6011 10.7325 53.563L10.0971 55.4593C10.1835 55.4883 10.2152 55.5002 10.2552 55.5152L10.9551 53.6416ZM10.7325 53.563C10.7415 53.566 10.7466 53.5682 10.7453 53.5677C10.7444 53.5673 10.7419 53.5662 10.7369 53.5638C10.7314 53.5612 10.7254 53.5584 10.7148 53.5533L9.8501 55.3567C9.887 55.3744 9.98037 55.4202 10.0971 55.4593L10.7325 53.563ZM10.7297 53.5606L10.7297 53.5606L9.83525 55.3494L9.83526 55.3494L10.7297 53.5606ZM10.7148 53.5533C10.6332 53.5142 10.3731 53.379 10.0071 53.3896L10.0648 55.3887C10.0344 55.3896 10.0003 55.388 9.96418 55.3828C9.92803 55.3775 9.89643 55.3697 9.87085 55.3617C9.84638 55.3541 9.83026 55.3471 9.82688 55.3457C9.82602 55.3453 9.82804 55.3461 9.85008 55.3567L10.7148 53.5533ZM10.0071 53.3896C9.8628 53.3937 9.70621 53.4177 9.546 53.4812C9.39585 53.5408 9.28608 53.6208 9.26852 53.6329L10.4054 55.2784C10.4372 55.2564 10.3733 55.3047 10.2835 55.3403C10.1836 55.3799 10.1018 55.3877 10.0648 55.3887L10.0071 53.3896ZM9.26852 53.6329C9.24779 53.6472 9.27166 53.6297 9.30455 53.6123C9.3425 53.5923 9.3783 53.5788 9.40657 53.5708L9.94653 55.4966C10.1862 55.4293 10.337 55.3256 10.4054 55.2784L9.26852 53.6329ZM9.40657 53.5708C9.19659 53.6297 8.98972 53.6586 8.74606 53.6656L8.80367 55.6647C9.18383 55.6538 9.5556 55.6062 9.94653 55.4966L9.40657 53.5708ZM8.74606 53.6656C8.45824 53.6739 8.35832 53.6422 8.27579 53.5944L7.27263 55.3246C7.82308 55.6437 8.36011 55.6775 8.80367 55.6647L8.74606 53.6656ZM8.27579 53.5944C8.20727 53.5546 8.14889 53.5245 8.11392 53.5063L7.19238 55.2813C7.22735 55.2995 7.24861 55.3107 7.27262 55.3246L8.27579 53.5944ZM8.11393 53.5063C8.07405 53.4856 8.07741 53.4869 8.08609 53.4921C8.10254 53.5021 8.14155 53.5274 8.18601 53.5695C8.28297 53.6612 8.31434 53.7455 8.30402 53.7212L6.46295 54.5025C6.52992 54.6603 6.63143 54.852 6.81155 55.0224C6.97345 55.1755 7.1546 55.2617 7.19237 55.2813L8.11393 53.5063ZM8.30402 53.7212C8.35725 53.8466 8.34453 53.9221 8.34605 53.8709C8.34695 53.8405 8.35282 53.7872 8.3666 53.7153C8.37969 53.647 8.39608 53.5815 8.40968 53.532C8.41631 53.5079 8.42184 53.4891 8.42533 53.4776C8.42706 53.4719 8.42826 53.4681 8.42879 53.4664C8.42906 53.4655 8.42915 53.4652 8.42907 53.4655C8.42902 53.4656 8.42893 53.4659 8.42879 53.4663C8.42873 53.4666 8.42864 53.4668 8.42855 53.4671C8.4285 53.4672 8.42845 53.4674 8.4284 53.4676C8.42838 53.4676 8.42833 53.4678 8.42832 53.4678C8.42828 53.4679 8.42823 53.4681 7.47729 53.1587C6.52635 52.8493 6.52631 52.8495 6.52626 52.8496C6.52625 52.8496 6.5262 52.8498 6.52617 52.8499C6.5261 52.8501 6.52603 52.8503 6.52596 52.8505C6.52581 52.851 6.52565 52.8515 6.52548 52.852C6.52514 52.8531 6.52474 52.8543 6.52429 52.8557C6.52339 52.8585 6.52229 52.862 6.521 52.8661C6.51843 52.8743 6.51509 52.885 6.51115 52.898C6.5033 52.924 6.49289 52.9594 6.48116 53.0021C6.45805 53.0862 6.42803 53.2049 6.40235 53.3389C6.37739 53.4691 6.35214 53.6361 6.34693 53.8115C6.34234 53.966 6.34851 54.2328 6.46295 54.5025L8.30402 53.7212ZM8.43177 53.457L8.52927 53.145L6.62031 52.5484L6.52281 52.8604L8.43177 53.457Z" fill="white" mask="url(#path-3-inside-1)"/>
<mask id="path-5-inside-2" fill="white">
<path fill-rule="evenodd" clip-rule="evenodd" d="M40.5669 57.7669C55.1524 57.7669 68.5929 45.0398 68.5929 29.3401C68.5929 13.6405 55.1524 0.913391 40.5669 0.913391C25.9813 0.913391 13.2206 13.6405 13.2206 29.3401C13.2206 41.376 20.7203 51.6647 30.7925 55.8114C30.77 55.8766 30.7512 55.9331 30.7512 55.9331C30.7471 55.9719 30.6448 56.2026 30.6262 56.2222C30.6045 56.2451 30.5918 56.2649 30.5784 56.2859L30.578 56.2866C30.5684 56.3018 30.5582 56.3176 30.5442 56.3354C30.5284 56.3534 30.5023 56.3922 30.4753 56.4321C30.4452 56.4768 30.4141 56.5229 30.3958 56.5425C30.3793 56.5605 30.3625 56.5796 30.3452 56.5991C30.2643 56.6902 30.1742 56.7918 30.0793 56.855C30.0542 56.8705 30.0308 56.8922 30.0072 56.9139L30.0068 56.9143C29.9798 56.9391 29.9528 56.964 29.9231 56.98C29.8877 56.9991 29.85 57.0309 29.8135 57.0618C29.7879 57.0835 29.7628 57.1046 29.7395 57.1206C29.7151 57.1373 29.6884 57.1445 29.6614 57.1517C29.639 57.1577 29.6166 57.1638 29.595 57.1753C29.5715 57.1879 29.5444 57.1924 29.5166 57.1945C29.5044 57.1954 29.492 57.1958 29.4798 57.1963C29.4645 57.1968 29.4494 57.1973 29.4348 57.1987C29.3999 57.2021 29.3594 57.1929 29.3215 57.1843L29.3202 57.184C29.3058 57.1808 29.2917 57.1776 29.2786 57.1753C29.183 57.1584 29.1379 57.0542 29.1379 57.0542C29.1379 57.0542 29.1011 57.0123 29.0668 56.9645C29.0334 56.8698 29.0021 56.7792 28.9741 56.6937L28.9732 56.6824C28.9698 56.6395 28.9661 56.5942 28.9543 56.5425C28.9307 56.4382 28.917 56.3798 28.8879 56.2769C28.8821 56.2559 28.8771 56.237 28.8723 56.2193L28.8701 56.211C28.8628 56.1839 28.8562 56.1592 28.8477 56.1329L28.8475 56.1227L28.838 56.1047C28.8333 56.0913 28.8278 56.0772 28.8215 56.062C28.7943 55.9958 28.7771 55.9589 28.7395 55.8979C28.7008 55.8353 28.6763 55.8011 28.6262 55.7471L28.6252 55.746C28.6204 55.7409 28.6159 55.7361 28.6113 55.7314C28.4917 55.5704 28.38 55.4879 28.2487 55.4645C28.2349 55.4564 28.2203 55.4498 28.2004 55.446C28.1767 55.4414 28.1609 55.4428 28.1399 55.4447L28.1394 55.4447L28.125 55.446C28.0907 55.4486 28.053 55.4595 28.0164 55.4737C27.7406 55.5356 27.4651 55.7845 27.3138 56.3989C27.1461 57.081 27.1421 58.2406 27.1421 59.2682C27.1421 61.3893 27.7208 63.1088 28.3434 63.1088H28.3561H28.3566C28.4154 63.1089 28.5007 63.1091 28.5872 63.0871L28.6028 63.0894L28.8489 63.0347L28.9309 62.898L28.9778 62.7418L29.0012 62.5621C29.0012 62.5621 28.9833 62.3724 29.0286 62.2652C29.035 62.2497 29.0416 62.2385 29.0482 62.2272L29.049 62.2259C29.0551 62.2155 29.0613 62.205 29.0676 62.191C29.0779 62.1685 29.0833 62.1498 29.0886 62.1312C29.0942 62.112 29.0999 62.0929 29.1106 62.0699L29.1206 62.0481L29.1207 62.048C29.1349 62.0162 29.1469 61.9896 29.1692 61.9683C29.1965 61.9423 29.2629 61.8707 29.2629 61.8707C29.2723 61.855 29.3632 61.7912 29.4075 61.7613C29.4191 61.7534 29.4285 61.7467 29.4368 61.7406C29.4486 61.732 29.458 61.7245 29.4679 61.7167C29.4776 61.709 29.4878 61.7009 29.5012 61.691L29.5911 61.6246L29.7551 61.5386L29.8372 61.4957C29.8372 61.4957 29.9508 61.4238 30.0325 61.4019C30.0802 61.389 30.1575 61.3824 30.1575 61.3824C30.1575 61.3824 30.199 61.3541 30.25 61.3255C30.2832 61.3068 30.3204 61.288 30.3528 61.2769C30.3956 61.2622 30.4276 61.2574 30.4637 61.252C30.4822 61.2492 30.5019 61.2463 30.5247 61.2418C30.5483 61.237 30.5681 61.2336 30.5869 61.2303L30.5882 61.2301C30.6187 61.2247 30.6469 61.2198 30.6848 61.2105C30.7422 61.1964 30.7837 61.1812 30.8274 61.1652L30.8301 61.1642C30.8615 61.1526 30.8941 61.1406 30.9348 61.1285C31.0077 61.1066 31.0674 61.0938 31.1258 61.0814C31.1953 61.0665 31.2629 61.052 31.3489 61.023C31.4361 60.9936 31.4955 60.9674 31.5634 60.9374L31.5641 60.9371C31.597 60.9227 31.632 60.9073 31.6731 60.8902C31.7437 60.8608 31.8055 60.8362 31.8636 60.813L31.8638 60.813C32.0025 60.7578 32.1197 60.7111 32.2825 60.6285C32.3461 60.5961 32.3938 60.5687 32.4421 60.5408C32.4858 60.5157 32.53 60.4903 32.5872 60.4605C32.6236 60.4415 32.6538 60.4272 32.6829 60.4133C32.698 60.4061 32.7129 60.3991 32.7283 60.3915C32.7521 60.3799 32.777 60.3671 32.8059 60.3511C32.9316 60.2815 33.0164 60.2134 33.1046 60.1427C33.1741 60.0869 33.2457 60.0295 33.3411 59.9683C33.3975 59.9321 33.4803 59.869 33.5605 59.8078C33.6276 59.7566 33.693 59.7068 33.7395 59.6753C33.9044 59.5636 34.0401 59.448 34.1891 59.321L34.1918 59.3188L34.2317 59.2847C34.3593 59.1761 34.4702 59.0705 34.5848 58.9612L34.595 58.9515C34.6457 58.9034 34.6971 58.8544 34.7512 58.8042C35.095 58.4849 35.5364 58.0034 35.5364 58.0034L35.9465 57.5229C35.9465 57.5229 36.006 57.4538 36.0827 57.364C37.5494 57.6289 39.0483 57.7669 40.5669 57.7669Z"/>
</mask>
<path d="M30.7925 55.8114L31.7376 56.1382L32.046 55.2461L31.1732 54.8867L30.7925 55.8114ZM30.7512 55.9331L29.8023 55.6177L29.7683 55.7198L29.7569 55.8268L30.7512 55.9331ZM30.6262 56.2222L31.3513 56.9108L31.3523 56.9098L30.6262 56.2222ZM30.5784 56.2859L31.4206 56.8252L31.4215 56.8236L30.5784 56.2859ZM30.578 56.2866L29.7359 55.7473L29.7336 55.7508L30.578 56.2866ZM30.5442 56.3354L31.2958 56.995L31.3139 56.9745L31.3308 56.9529L30.5442 56.3354ZM30.4753 56.4321L29.6472 55.8715L29.6461 55.8732L30.4753 56.4321ZM30.3958 56.5425L29.6662 55.8585L29.6608 55.8643L29.6555 55.8701L30.3958 56.5425ZM30.3452 56.5991L31.0932 57.2627L31.0932 57.2627L30.3452 56.5991ZM30.0793 56.855L30.6056 57.7053L30.6198 57.6965L30.6337 57.6873L30.0793 56.855ZM30.0072 56.9139L29.3292 56.1788L29.3249 56.1828L30.0072 56.9139ZM30.0068 56.9143L30.6843 57.6498L30.6891 57.6453L30.0068 56.9143ZM29.9231 56.98L29.4487 56.0996L29.4483 56.0999L29.9231 56.98ZM29.8135 57.0618L30.4591 57.8255L30.4591 57.8254L29.8135 57.0618ZM29.7395 57.1206L30.3032 57.9466L30.3044 57.9457L29.7395 57.1206ZM29.6614 57.1517L29.92 58.1177L29.9214 58.1173L29.6614 57.1517ZM29.595 57.1753L29.124 56.2931L29.1222 56.2941L29.595 57.1753ZM29.5166 57.1945L29.5897 58.1918L29.591 58.1917L29.5166 57.1945ZM29.4798 57.1963L29.5142 58.1957H29.5143L29.4798 57.1963ZM29.4348 57.1987L29.3376 56.2035L29.3374 56.2035L29.4348 57.1987ZM29.3215 57.1843L29.5433 56.2092L29.5385 56.2081L29.3215 57.1843ZM29.3202 57.184L29.0999 58.1595L29.1033 58.1602L29.3202 57.184ZM29.2786 57.1753L29.105 58.1601L29.1056 58.1602L29.2786 57.1753ZM29.1379 57.0542L30.0559 56.6576L29.9931 56.5122L29.8885 56.3934L29.1379 57.0542ZM29.0668 56.9645L28.1234 57.2963L28.1708 57.431L28.254 57.5471L29.0668 56.9645ZM28.9741 56.6937L27.9774 56.7742L27.9869 56.892L28.0236 57.0044L28.9741 56.6937ZM28.9732 56.6824L27.9764 56.7625L27.9765 56.7629L28.9732 56.6824ZM28.9543 56.5425L27.9792 56.764L27.9793 56.7646L28.9543 56.5425ZM28.8879 56.2769L27.9247 56.5457L27.9256 56.5486L28.8879 56.2769ZM28.8723 56.2193L27.9064 56.4783L27.9066 56.479L28.8723 56.2193ZM28.8701 56.211L27.9042 56.4699L27.9042 56.47L28.8701 56.211ZM28.8477 56.1329L27.8477 56.1448L27.8496 56.2971L27.8966 56.4419L28.8477 56.1329ZM28.8475 56.1227L29.8475 56.1107L29.8446 55.8689L29.7315 55.6552L28.8475 56.1227ZM28.838 56.1047L27.896 56.4402L27.9202 56.5083L27.954 56.5722L28.838 56.1047ZM28.8215 56.062L29.7469 55.6829L29.7464 55.6818L28.8215 56.062ZM28.7395 55.8979L29.5907 55.3731L29.5904 55.3727L28.7395 55.8979ZM28.6262 55.7471L29.3598 55.0675L29.3577 55.0652L28.6262 55.7471ZM28.6252 55.746L29.3566 55.0641L29.3564 55.0638L28.6252 55.746ZM28.6113 55.7314L27.8087 56.3279L27.8488 56.3818L27.8956 56.4298L28.6113 55.7314ZM28.2487 55.4645L27.7415 56.3263L27.8964 56.4175L28.0734 56.449L28.2487 55.4645ZM28.2004 55.446L28.0101 56.4277L28.0107 56.4278L28.2004 55.446ZM28.1399 55.4447L28.0512 54.4486L28.0439 54.4493L28.1399 55.4447ZM28.1394 55.4447L28.228 56.4408L28.2353 56.4401L28.1394 55.4447ZM28.125 55.446L28.2013 56.4431L28.2136 56.442L28.125 55.446ZM28.0164 55.4737L28.2353 56.4494L28.3085 56.433L28.3784 56.4059L28.0164 55.4737ZM27.3138 56.3989L26.3428 56.1599L26.3428 56.1601L27.3138 56.3989ZM28.3566 63.1088L28.3587 62.1088H28.3566V63.1088ZM28.5872 63.0871L28.734 62.0979L28.535 62.0684L28.3401 62.1181L28.5872 63.0871ZM28.6028 63.0894L28.456 64.0786L28.639 64.1058L28.8197 64.0656L28.6028 63.0894ZM28.8489 63.0347L29.0658 64.0109L29.4853 63.9177L29.7064 63.5492L28.8489 63.0347ZM28.9309 62.898L29.7884 63.4125L29.8528 63.3052L29.8887 63.1854L28.9309 62.898ZM28.9778 62.7418L29.9356 63.0291L29.9589 62.9515L29.9694 62.8711L28.9778 62.7418ZM29.0012 62.5621L29.9928 62.6914L30.0074 62.5799L29.9968 62.4679L29.0012 62.5621ZM29.0286 62.2652L29.9498 62.6542L29.9511 62.651L29.0286 62.2652ZM29.0482 62.2272L29.9118 62.7314L29.9124 62.7303L29.0482 62.2272ZM29.049 62.2259L28.187 61.7189L28.1847 61.7228L29.049 62.2259ZM29.0676 62.191L28.1575 61.7766L28.1571 61.7775L29.0676 62.191ZM29.0886 62.1312L28.129 61.85L28.1278 61.8539L29.0886 62.1312ZM29.1106 62.0699L30.0167 62.4929L30.0193 62.4873L29.1106 62.0699ZM29.1206 62.0481L30.0293 62.4655L30.0341 62.4551L30.0387 62.4445L29.1206 62.0481ZM29.1207 62.048L28.2085 61.6382L28.2055 61.6449L28.2026 61.6515L29.1207 62.048ZM29.1692 61.9683L28.4793 61.2445L28.4791 61.2446L29.1692 61.9683ZM29.2629 61.8707L29.9961 62.5507L30.0665 62.4748L30.1198 62.3861L29.2629 61.8707ZM29.4075 61.7613L29.9669 62.5902L29.9692 62.5886L29.4075 61.7613ZM29.4368 61.7406L28.8455 60.9341L28.8444 60.9349L29.4368 61.7406ZM29.4679 61.7167L28.8481 60.9319L28.8479 60.9321L29.4679 61.7167ZM29.5012 61.691L28.9068 60.8868L28.9048 60.8883L29.5012 61.691ZM29.5911 61.6246L29.1271 60.7387L29.0587 60.7745L28.9967 60.8204L29.5911 61.6246ZM29.8372 61.4957L30.3012 62.3815L30.3371 62.3627L30.3715 62.341L29.8372 61.4957ZM30.0325 61.4019L30.2916 62.3678L30.293 62.3674L30.0325 61.4019ZM30.1575 61.3824L30.2433 62.3787L30.5045 62.3562L30.7211 62.2084L30.1575 61.3824ZM30.25 61.3255L30.7385 62.1981L30.7403 62.1971L30.25 61.3255ZM30.3528 61.2769L30.6776 62.2227L30.6778 62.2226L30.3528 61.2769ZM30.4637 61.252L30.6117 62.241L30.4637 61.252ZM30.5247 61.2418L30.7199 62.2225L30.7217 62.2221L30.5247 61.2418ZM30.5869 61.2303L30.4172 60.2448L30.4142 60.2453L30.5869 61.2303ZM30.5882 61.2301L30.7579 62.2156L30.761 62.215L30.5882 61.2301ZM30.6848 61.2105L30.9223 62.1819L30.9235 62.1816L30.6848 61.2105ZM30.8274 61.1652L30.4839 60.226L30.4826 60.2265L30.8274 61.1652ZM30.8301 61.1642L31.1735 62.1033L31.1752 62.1027L30.8301 61.1642ZM30.9348 61.1285L31.2211 62.0866L31.2224 62.0862L30.9348 61.1285ZM31.1258 61.0814L30.9168 60.1034L30.9167 60.1035L31.1258 61.0814ZM31.3489 61.023L31.0291 60.0755L31.0288 60.0756L31.3489 61.023ZM31.5634 60.9374L31.1658 60.0199L31.1599 60.0225L31.5634 60.9374ZM31.5641 60.9371L31.9617 61.8547L31.966 61.8528L31.5641 60.9371ZM31.6731 60.8902L32.0567 61.8137L32.0573 61.8135L31.6731 60.8902ZM31.8636 60.813L32.2336 61.7422L32.246 61.7371L31.8636 60.813ZM31.8638 60.813L31.494 59.8838L31.4815 59.889L31.8638 60.813ZM32.2825 60.6285L32.7353 61.5201L32.7358 61.5198L32.2825 60.6285ZM32.4421 60.5408L32.9409 61.4076L32.941 61.4075L32.4421 60.5408ZM32.5872 60.4605L33.0491 61.3474L33.0492 61.3474L32.5872 60.4605ZM32.6829 60.4133L32.2536 59.5102L32.2536 59.5102L32.6829 60.4133ZM32.7283 60.3915L32.2884 59.4935L32.2879 59.4937L32.7283 60.3915ZM32.8059 60.3511L33.2897 61.2263L33.2909 61.2257L32.8059 60.3511ZM33.1046 60.1427L33.7302 60.9229L33.7302 60.9229L33.1046 60.1427ZM33.3411 59.9683L33.8813 60.8098L33.8816 60.8096L33.3411 59.9683ZM33.5605 59.8078L34.1668 60.6031L34.1668 60.6031L33.5605 59.8078ZM33.7395 59.6753L34.3001 60.5034L34.3003 60.5032L33.7395 59.6753ZM34.1891 59.321L33.5413 58.5592L33.5406 58.5598L34.1891 59.321ZM34.1918 59.3188L34.8396 60.0806L34.8415 60.0789L34.1918 59.3188ZM34.2317 59.2847L33.5835 58.5232L33.582 58.5245L34.2317 59.2847ZM34.5848 58.9612L33.8957 58.2367L33.8949 58.2374L34.5848 58.9612ZM34.595 58.9515L35.2842 59.6761L35.2843 59.676L34.595 58.9515ZM34.7512 58.8042L35.4315 59.5372L35.4318 59.5368L34.7512 58.8042ZM35.5364 58.0034L36.2735 58.6792L36.2854 58.6662L36.2969 58.6527L35.5364 58.0034ZM35.9465 57.5229L35.1884 56.8709L35.186 56.8737L35.9465 57.5229ZM36.0827 57.364L36.2605 56.3799L35.6952 56.2778L35.3223 56.7146L36.0827 57.364ZM67.5929 29.3401C67.5929 44.4804 54.6073 56.7669 40.5669 56.7669V58.7669C55.6976 58.7669 69.5929 45.5992 69.5929 29.3401H67.5929ZM40.5669 1.91339C54.6073 1.91339 67.5929 14.1999 67.5929 29.3401H69.5929C69.5929 13.081 55.6976 -0.0866089 40.5669 -0.0866089V1.91339ZM14.2206 29.3401C14.2206 14.1683 26.5577 1.91339 40.5669 1.91339V-0.0866089C25.4049 -0.0866089 12.2206 13.1126 12.2206 29.3401H14.2206ZM31.1732 54.8867C21.4632 50.8891 14.2206 40.9572 14.2206 29.3401H12.2206C12.2206 41.7947 19.9775 52.4404 30.4118 56.7361L31.1732 54.8867ZM30.7512 55.9331C31.7002 56.2485 31.7002 56.2485 31.7002 56.2485C31.7002 56.2485 31.7002 56.2485 31.7002 56.2485C31.7002 56.2485 31.7002 56.2486 31.7002 56.2486C31.7002 56.2486 31.7002 56.2486 31.7002 56.2486C31.7002 56.2486 31.7002 56.2486 31.7002 56.2486C31.7002 56.2485 31.7002 56.2484 31.7003 56.2483C31.7003 56.248 31.7005 56.2475 31.7007 56.2468C31.7012 56.2455 31.7019 56.2433 31.7029 56.2405C31.7047 56.2349 31.7075 56.2265 31.711 56.2163C31.718 56.1956 31.7274 56.1677 31.7376 56.1382L29.8474 55.4847C29.8351 55.5203 29.8239 55.5533 29.8159 55.5771C29.8118 55.5891 29.8085 55.599 29.8062 55.606C29.805 55.6095 29.8041 55.6123 29.8034 55.6143C29.8031 55.6153 29.8028 55.616 29.8026 55.6166C29.8025 55.6169 29.8024 55.6171 29.8024 55.6173C29.8024 55.6174 29.8023 55.6175 29.8023 55.6175C29.8023 55.6176 29.8023 55.6176 29.8023 55.6176C29.8023 55.6176 29.8023 55.6177 29.8023 55.6177C29.8023 55.6177 29.8023 55.6177 29.8023 55.6177C29.8023 55.6177 29.8023 55.6177 30.7512 55.9331ZM31.3523 56.9098C31.4223 56.8358 31.4657 56.7664 31.4738 56.7538C31.4905 56.7275 31.5034 56.7048 31.5112 56.6908C31.5272 56.662 31.541 56.6347 31.5507 56.6148C31.5711 56.5733 31.592 56.5275 31.6103 56.4855C31.6286 56.4438 31.6489 56.3954 31.6667 56.3488C31.6753 56.3262 31.6867 56.2954 31.6975 56.2616C31.7006 56.2522 31.733 56.1569 31.7456 56.0394L29.7569 55.8268C29.7641 55.7593 29.7769 55.709 29.7807 55.694C29.7862 55.6726 29.7911 55.657 29.7933 55.6501C29.7977 55.6364 29.8002 55.6302 29.7984 55.635C29.7953 55.6432 29.7881 55.6609 29.7779 55.6841C29.7678 55.7072 29.7594 55.7251 29.7553 55.7336C29.7528 55.7387 29.7555 55.7329 29.7623 55.7206C29.7655 55.7148 29.7743 55.6991 29.7875 55.6785C29.7942 55.6679 29.8053 55.651 29.8201 55.6307C29.833 55.613 29.8603 55.5766 29.9001 55.5345L31.3523 56.9098ZM31.4215 56.8236C31.4302 56.8101 31.4216 56.824 31.4094 56.8408C31.3941 56.862 31.3746 56.8863 31.3513 56.9108L29.9011 55.5335C29.8075 55.6321 29.7509 55.7237 29.7353 55.7482L31.4215 56.8236ZM31.4201 56.8258L31.4206 56.8252L29.7363 55.7466L29.7359 55.7473L31.4201 56.8258ZM31.3308 56.9529C31.378 56.8927 31.4108 56.8405 31.4224 56.8223L29.7336 55.7508C29.7259 55.763 29.7384 55.7424 29.7576 55.718L31.3308 56.9529ZM31.3035 56.9926C31.3108 56.9818 31.3163 56.9736 31.3217 56.9657C31.327 56.958 31.3305 56.9529 31.3327 56.9497C31.3338 56.9482 31.3342 56.9476 31.3341 56.9478C31.3339 56.948 31.3328 56.9496 31.3308 56.9522C31.3289 56.9547 31.3253 56.9595 31.3202 56.9659C31.3176 56.9692 31.3143 56.9733 31.3104 56.978C31.3065 56.9827 31.3016 56.9884 31.2958 56.995L29.7926 55.6759C29.7236 55.7545 29.6504 55.8668 29.6472 55.8715L31.3035 56.9926ZM31.1253 57.2264C31.2139 57.1319 31.303 56.9933 31.3046 56.9909L29.6461 55.8732C29.6383 55.8847 29.6322 55.8938 29.6264 55.9023C29.6207 55.9107 29.617 55.916 29.6147 55.9193C29.6136 55.9208 29.6133 55.9212 29.6137 55.9207C29.614 55.9202 29.6157 55.918 29.6184 55.9145C29.6209 55.9111 29.6258 55.9048 29.6327 55.8965C29.6362 55.8923 29.6407 55.887 29.646 55.8809C29.6513 55.8748 29.6581 55.8672 29.6662 55.8585L31.1253 57.2264ZM31.0932 57.2627C31.1113 57.2423 31.1242 57.2278 31.136 57.2149L29.6555 55.8701C29.6345 55.8933 29.6136 55.9168 29.5971 55.9355L31.0932 57.2627ZM30.6337 57.6873C30.8578 57.538 31.0363 57.3269 31.0932 57.2627L29.5971 55.9355C29.5762 55.9591 29.5601 55.9772 29.5444 55.9943C29.5291 56.0111 29.5177 56.0231 29.5088 56.032C29.4999 56.0409 29.4963 56.044 29.4973 56.0431C29.4981 56.0425 29.5075 56.0344 29.525 56.0227L30.6337 57.6873ZM30.6852 57.649C30.6917 57.6429 30.6935 57.6413 30.6946 57.6403C30.6953 57.6396 30.6923 57.6424 30.6869 57.647C30.6774 57.655 30.6488 57.6786 30.6056 57.7053L29.5531 56.0047C29.4316 56.0799 29.3369 56.1717 29.3292 56.1788L30.6852 57.649ZM30.6891 57.6453L30.6895 57.6449L29.3249 56.1828L29.3245 56.1832L30.6891 57.6453ZM30.3974 57.8603C30.5585 57.7735 30.679 57.6547 30.6843 57.6498L29.3293 56.1788C29.3118 56.1948 29.3199 56.1869 29.3327 56.1765C29.3472 56.1647 29.3875 56.1326 29.4487 56.0996L30.3974 57.8603ZM30.4591 57.8254C30.469 57.8171 30.474 57.8129 30.4784 57.8093C30.4824 57.806 30.4823 57.8061 30.4797 57.8081C30.4771 57.8101 30.4692 57.8161 30.4571 57.8244C30.4452 57.8324 30.4251 57.8454 30.3979 57.8601L29.4483 56.0999C29.3022 56.1787 29.1796 56.2882 29.1678 56.2982L30.4591 57.8254ZM30.3044 57.9457C30.3781 57.8953 30.4445 57.8378 30.4591 57.8255L29.1679 56.2981C29.1611 56.3039 29.1568 56.3075 29.1529 56.3107C29.1492 56.3138 29.1476 56.3151 29.1473 56.3154C29.147 56.3156 29.1492 56.3139 29.1532 56.3108C29.1572 56.3078 29.1645 56.3024 29.1746 56.2955L30.3044 57.9457ZM29.9214 58.1173C29.9268 58.1159 30.1176 58.0732 30.3032 57.9466L29.1758 56.2946C29.2498 56.2441 29.3164 56.2157 29.3581 56.2005C29.3929 56.1878 29.4218 56.1806 29.4014 56.1861L29.9214 58.1173ZM30.0659 58.0574C30.0137 58.0853 29.9696 58.1016 29.9439 58.1102C29.9221 58.1174 29.9048 58.1218 29.92 58.1177L29.4027 56.1858C29.394 56.1881 29.2621 56.2194 29.124 56.2931L30.0659 58.0574ZM29.591 58.1917C29.6627 58.1864 29.858 58.169 30.0677 58.0565L29.1222 56.2941C29.2075 56.2484 29.284 56.2254 29.3373 56.2134C29.3891 56.2017 29.4283 56.1983 29.4422 56.1973L29.591 58.1917ZM29.5143 58.1957C29.523 58.1954 29.5549 58.1944 29.5897 58.1918L29.4435 56.1972C29.4469 56.1969 29.4496 56.1968 29.4513 56.1967C29.4531 56.1966 29.4541 56.1965 29.4542 56.1965C29.4542 56.1965 29.4537 56.1966 29.4521 56.1966C29.4504 56.1967 29.4486 56.1967 29.4452 56.1969L29.5143 58.1957ZM29.5321 58.194C29.5183 58.1953 29.5088 58.1958 29.5067 58.1959C29.5054 58.196 29.5051 58.196 29.5065 58.1959C29.5081 58.1959 29.51 58.1958 29.5142 58.1957L29.4453 56.1969C29.4364 56.1972 29.389 56.1984 29.3376 56.2035L29.5321 58.194ZM29.0998 58.1594C29.1123 58.1623 29.167 58.1752 29.2275 58.1844C29.2875 58.1937 29.3983 58.2071 29.5323 58.194L29.3374 56.2035C29.4365 56.1938 29.5095 56.2043 29.5311 56.2076C29.5531 56.211 29.5686 56.215 29.5433 56.2092L29.0998 58.1594ZM29.1033 58.1602L29.1046 58.1605L29.5385 56.2081L29.5371 56.2078L29.1033 58.1602ZM29.1056 58.1602C29.1005 58.1593 29.0965 58.1586 29.0941 58.1581C29.0916 58.1576 29.0901 58.1573 29.0898 58.1572C29.0896 58.1572 29.0902 58.1573 29.092 58.1577C29.0939 58.1581 29.0961 58.1586 29.0999 58.1595L29.5405 56.2086C29.5311 56.2065 29.4928 56.1976 29.4515 56.1904L29.1056 58.1602ZM29.1379 57.0542C28.22 57.4508 28.2201 57.4512 28.2202 57.4515C28.2203 57.4516 28.2204 57.4519 28.2205 57.4521C28.2207 57.4526 28.2209 57.453 28.2211 57.4534C28.2215 57.4543 28.2219 57.4552 28.2223 57.4561C28.223 57.4579 28.2239 57.4597 28.2247 57.4616C28.2264 57.4654 28.2281 57.4693 28.23 57.4734C28.2338 57.4816 28.238 57.4905 28.2427 57.5001C28.2521 57.5191 28.2636 57.5413 28.2775 57.5657C28.3045 57.613 28.3446 57.6763 28.4006 57.7443C28.5016 57.8669 28.7293 58.0939 29.105 58.1601L29.4521 56.1905C29.7322 56.2398 29.8896 56.4063 29.9442 56.4725C29.977 56.5124 29.9999 56.5486 30.0154 56.5758C30.0236 56.5902 30.0309 56.6041 30.0374 56.6173C30.0407 56.624 30.0438 56.6307 30.0469 56.6373C30.0484 56.6407 30.05 56.644 30.0515 56.6474C30.0522 56.6491 30.0529 56.6508 30.0537 56.6525C30.0541 56.6533 30.0544 56.6542 30.0548 56.655C30.055 56.6554 30.0552 56.6559 30.0554 56.6563C30.0555 56.6565 30.0556 56.6568 30.0556 56.6569C30.0558 56.6572 30.0559 56.6576 29.1379 57.0542ZM28.254 57.5471C28.2881 57.5946 28.3205 57.6352 28.3423 57.6618C28.3538 57.6758 28.3637 57.6876 28.3713 57.6964C28.3751 57.7009 28.3784 57.7048 28.3811 57.7079C28.3825 57.7094 28.3837 57.7108 28.3847 57.712C28.3853 57.7126 28.3857 57.7131 28.3862 57.7136C28.3864 57.7139 28.3866 57.7141 28.3868 57.7144C28.3869 57.7145 28.387 57.7146 28.3871 57.7147C28.3872 57.7148 28.3872 57.7148 28.3873 57.7149C28.3873 57.7149 28.3873 57.7149 28.3873 57.7149C28.3874 57.715 28.3874 57.715 29.1379 57.0542C29.8885 56.3934 29.8885 56.3934 29.8885 56.3935C29.8886 56.3935 29.8886 56.3935 29.8886 56.3935C29.8887 56.3936 29.8887 56.3936 29.8887 56.3937C29.8888 56.3938 29.8889 56.3939 29.889 56.394C29.8892 56.3942 29.8893 56.3943 29.8895 56.3945C29.8898 56.3949 29.8901 56.3952 29.8903 56.3954C29.8908 56.396 29.8912 56.3964 29.8914 56.3968C29.892 56.3974 29.8921 56.3976 29.892 56.3974C29.8916 56.3969 29.8902 56.3952 29.8881 56.3928C29.886 56.3902 29.8839 56.3875 29.882 56.3851C29.8799 56.3825 29.8792 56.3814 29.8795 56.3819L28.254 57.5471ZM28.0236 57.0044C28.0551 57.1007 28.0894 57.1996 28.1234 57.2963L30.0101 56.6326C29.9775 56.5399 29.949 56.4577 29.9246 56.3829L28.0236 57.0044ZM27.9765 56.7629L27.9774 56.7742L29.9709 56.6132L29.97 56.6019L27.9765 56.7629ZM27.9793 56.7646C27.976 56.75 27.9746 56.7394 27.9742 56.7364C27.9741 56.7352 27.9742 56.7361 27.9746 56.7404C27.975 56.7453 27.9755 56.7509 27.9764 56.7625L29.97 56.6024C29.9668 56.562 29.9591 56.4507 29.9294 56.3204L27.9793 56.7646ZM27.9256 56.5486C27.9477 56.627 27.957 56.6662 27.9792 56.764L29.9295 56.321C29.9044 56.2103 29.8863 56.1325 29.8503 56.0051L27.9256 56.5486ZM27.9066 56.479C27.9104 56.493 27.9172 56.5187 27.9247 56.5457L29.8511 56.0081C29.8469 55.993 29.8438 55.981 29.838 55.9596L27.9066 56.479ZM27.9042 56.47L27.9064 56.4783L29.8382 55.9603L29.836 55.952L27.9042 56.47ZM27.8966 56.4419C27.8958 56.4395 27.8959 56.4394 27.897 56.4435C27.8976 56.4457 27.8985 56.4487 27.8997 56.4531C27.9009 56.4578 27.9023 56.4628 27.9042 56.4699L29.836 55.9522C29.8296 55.9284 29.8166 55.8789 29.7987 55.8239L27.8966 56.4419ZM27.8476 56.1347L27.8477 56.1448L29.8476 56.1209L29.8475 56.1107L27.8476 56.1347ZM27.954 56.5722L27.9635 56.5902L29.7315 55.6552L29.722 55.6372L27.954 56.5722ZM27.8962 56.4411L27.896 56.4402L29.78 55.7692C29.7685 55.7367 29.7569 55.7074 29.7469 55.6829L27.8962 56.4411ZM27.8883 56.4228C27.892 56.4288 27.8929 56.4304 27.8921 56.4291C27.8912 56.4274 27.8895 56.4243 27.8878 56.4209C27.8862 56.4176 27.8858 56.4165 27.887 56.4193C27.8885 56.4227 27.8913 56.4292 27.8966 56.4422L29.7464 55.6818C29.7055 55.5821 29.6648 55.4934 29.5907 55.3731L27.8883 56.4228ZM27.8927 56.4268C27.8973 56.4318 27.8977 56.4323 27.8956 56.4299C27.8931 56.4269 27.8894 56.4224 27.8853 56.4168C27.8772 56.4061 27.8756 56.4022 27.8886 56.4232L29.5904 55.3727C29.5249 55.2665 29.4623 55.1781 29.3598 55.0675L27.8927 56.4268ZM27.8938 56.4279L27.8948 56.429L29.3577 55.0652L29.3566 55.0641L27.8938 56.4279ZM27.8956 56.4298C27.8927 56.4268 27.8909 56.4249 27.8908 56.4248C27.8907 56.4247 27.8909 56.4248 27.8914 56.4254C27.8921 56.4261 27.8928 56.4269 27.894 56.4282L29.3564 55.0638C29.353 55.0603 29.3408 55.047 29.327 55.033L27.8956 56.4298ZM28.0734 56.449C27.9765 56.4318 27.896 56.3917 27.8412 56.3514C27.7956 56.3178 27.786 56.2973 27.8087 56.3279L29.4139 55.1348C29.2186 54.8721 28.9089 54.5663 28.4239 54.4799L28.0734 56.449ZM28.0107 56.4278C27.9597 56.418 27.9078 56.403 27.8564 56.3825C27.8058 56.3623 27.7666 56.3411 27.7415 56.3263L28.7558 54.6026C28.666 54.5498 28.5447 54.494 28.3902 54.4641L28.0107 56.4278ZM28.2285 56.4407C28.2468 56.4391 28.212 56.4428 28.1702 56.4429C28.1169 56.4429 28.0627 56.4379 28.0101 56.4277L28.3908 54.4643C28.2188 54.4309 28.0821 54.4458 28.0512 54.4486L28.2285 56.4407ZM28.2353 56.4401L28.2358 56.44L28.0439 54.4493L28.0435 54.4493L28.2353 56.4401ZM28.2136 56.442L28.228 56.4408L28.0508 54.4486L28.0364 54.4499L28.2136 56.442ZM28.3784 56.4059C28.3699 56.4092 28.3521 56.4157 28.3264 56.4225C28.3017 56.429 28.2586 56.4387 28.2013 56.4431L28.0487 54.4489C27.8757 54.4621 27.7344 54.5104 27.6544 54.5415L28.3784 56.4059ZM28.2849 56.6379C28.3359 56.4307 28.3886 56.3669 28.3868 56.3691C28.3844 56.372 28.3697 56.3885 28.3395 56.4072C28.3091 56.4261 28.2732 56.4409 28.2353 56.4494L27.7974 54.498C27.0096 54.6748 26.5438 55.3435 26.3428 56.1599L28.2849 56.6379ZM28.1421 59.2682C28.1421 58.185 28.1532 57.1732 28.2849 56.6377L26.3428 56.1601C26.139 56.9888 26.1421 58.2962 26.1421 59.2682H28.1421ZM28.3434 62.1088C28.6716 62.1088 28.7788 62.3245 28.7009 62.2176C28.6465 62.143 28.5558 61.9731 28.4617 61.679C28.2772 61.1027 28.1421 60.2488 28.1421 59.2682H26.1421C26.1421 60.4088 26.2964 61.4751 26.5569 62.2888C26.6853 62.6898 26.856 63.0823 27.0852 63.3964C27.2908 63.6783 27.7038 64.1088 28.3434 64.1088V62.1088ZM28.3561 62.1088H28.3434V64.1088H28.3561V62.1088ZM28.3566 62.1088H28.3561V64.1088H28.3566V62.1088ZM28.3401 62.1181C28.3568 62.1138 28.3699 62.1116 28.3783 62.1103C28.3868 62.1091 28.3922 62.1087 28.3935 62.1086C28.3947 62.1085 28.3933 62.1086 28.3877 62.1087C28.3849 62.1088 28.3814 62.1088 28.3766 62.1088C28.3715 62.1089 28.3664 62.1088 28.3587 62.1088L28.3545 64.1088C28.4061 64.1089 28.6099 64.1133 28.8342 64.0561L28.3401 62.1181ZM28.7496 62.1003L28.734 62.0979L28.4403 64.0763L28.456 64.0786L28.7496 62.1003ZM28.6319 62.0585L28.3859 62.1132L28.8197 64.0656L29.0658 64.0109L28.6319 62.0585ZM28.0734 62.3835L27.9914 62.5202L29.7064 63.5492L29.7884 63.4125L28.0734 62.3835ZM28.02 62.4544L27.9731 62.6107L29.8887 63.1854L29.9356 63.0291L28.02 62.4544ZM28.0096 62.4327L27.9862 62.6124L29.9694 62.8711L29.9928 62.6914L28.0096 62.4327ZM28.1073 61.8762C28.0058 62.1167 27.9996 62.3548 27.9981 62.4345C27.997 62.4934 27.9985 62.5443 28.0004 62.5808C28.0013 62.5995 28.0024 62.6154 28.0033 62.6281C28.0038 62.6344 28.0042 62.64 28.0046 62.6447C28.0048 62.647 28.005 62.6492 28.0052 62.6511C28.0053 62.6521 28.0054 62.653 28.0054 62.6539C28.0055 62.6543 28.0055 62.6547 28.0056 62.6551C28.0056 62.6553 28.0056 62.6555 28.0056 62.6557C28.0056 62.6558 28.0056 62.6559 28.0056 62.656C28.0057 62.6561 28.0057 62.6563 29.0012 62.5621C29.9968 62.4679 29.9968 62.468 29.9968 62.4681C29.9968 62.4682 29.9968 62.4683 29.9968 62.4684C29.9968 62.4686 29.9969 62.4688 29.9969 62.469C29.9969 62.4693 29.9969 62.4697 29.997 62.47C29.997 62.4707 29.9971 62.4713 29.9971 62.4719C29.9973 62.4731 29.9974 62.4742 29.9974 62.4752C29.9976 62.477 29.9977 62.4784 29.9978 62.4794C29.9979 62.4812 29.9979 62.4815 29.9979 62.4807C29.9978 62.4783 29.9977 62.4751 29.9977 62.4732C29.9978 62.4696 29.9979 62.4787 29.9952 62.498C29.9933 62.5111 29.9845 62.572 29.9498 62.6542L28.1073 61.8762ZM28.1846 61.723C28.1772 61.7357 28.1404 61.7971 28.106 61.8794L29.9511 62.651C29.9296 62.7024 29.906 62.7412 29.9118 62.7314L28.1846 61.723ZM28.1847 61.7228L28.184 61.7241L29.9124 62.7303L29.9132 62.729L28.1847 61.7228ZM28.1571 61.7775C28.1749 61.7383 28.1933 61.7082 28.187 61.7189L29.9109 62.7329C29.9168 62.7229 29.9476 62.6716 29.9781 62.6045L28.1571 61.7775ZM28.1278 61.8539C28.1226 61.8721 28.1343 61.8275 28.1575 61.7766L29.9777 62.6053C30.0214 62.5094 30.0439 62.4275 30.0494 62.4084L28.1278 61.8539ZM28.2045 61.6469C28.1586 61.7451 28.1352 61.8289 28.129 61.85L30.0483 62.4123C30.0517 62.4005 30.0485 62.412 30.0435 62.4266C30.0373 62.4446 30.0286 62.4676 30.0167 62.4929L28.2045 61.6469ZM28.2119 61.6307L28.2019 61.6524L30.0193 62.4873L30.0293 62.4655L28.2119 61.6307ZM28.2026 61.6515L28.2025 61.6517L30.0387 62.4445L30.0387 62.4444L28.2026 61.6515ZM28.4791 61.2446C28.3788 61.3402 28.3139 61.4373 28.2728 61.5096C28.2373 61.5719 28.2112 61.6321 28.2085 61.6382L30.0329 62.4577C30.0443 62.4321 30.0314 62.4631 30.011 62.4989C29.985 62.5445 29.9373 62.6177 29.8593 62.692L28.4791 61.2446ZM29.2629 61.8707C28.5298 61.1906 28.5298 61.1906 28.5298 61.1906C28.5298 61.1906 28.5298 61.1906 28.5298 61.1906C28.5298 61.1906 28.5298 61.1906 28.5298 61.1906C28.5298 61.1906 28.5298 61.1905 28.5298 61.1905C28.5299 61.1905 28.5299 61.1905 28.5298 61.1905C28.5298 61.1906 28.5297 61.1907 28.5295 61.1909C28.5292 61.1912 28.5287 61.1918 28.528 61.1925C28.5265 61.1941 28.5243 61.1965 28.5215 61.1995C28.5158 61.2056 28.5082 61.2137 28.5 61.2224C28.4766 61.2471 28.471 61.2523 28.4793 61.2445L29.8591 62.6922C29.8947 62.6583 29.936 62.6147 29.9527 62.597C29.9645 62.5845 29.9751 62.5732 29.9828 62.565C29.9866 62.5609 29.9898 62.5575 29.9921 62.555C29.9932 62.5538 29.9941 62.5528 29.9948 62.5521C29.9952 62.5517 29.9954 62.5514 29.9957 62.5512C29.9958 62.5511 29.9959 62.551 29.9959 62.5509C29.996 62.5509 29.996 62.5508 29.996 62.5508C29.996 62.5508 29.9961 62.5508 29.9961 62.5507C29.9961 62.5507 29.9961 62.5507 29.9961 62.5507C29.9961 62.5507 29.9961 62.5507 29.2629 61.8707ZM28.848 60.9324C28.818 60.9527 28.7726 60.9841 28.7294 61.016C28.7088 61.0311 28.679 61.0535 28.6485 61.0785C28.6339 61.0905 28.6089 61.1114 28.5809 61.1381C28.575 61.1437 28.4833 61.2267 28.406 61.3552L30.1198 62.3861C30.0949 62.4277 30.0713 62.4599 30.0549 62.4811C30.0378 62.5032 30.0225 62.521 30.011 62.5338C29.9887 62.5588 29.9698 62.5772 29.9592 62.5873C29.9381 62.6074 29.9221 62.6206 29.9181 62.6239C29.9086 62.6316 29.906 62.6333 29.9149 62.6267C29.9304 62.6152 29.9526 62.5998 29.9669 62.5902L28.848 60.9324ZM28.8444 60.9349C28.8444 60.9349 28.8444 60.9349 28.8444 60.9349C28.8444 60.9349 28.8444 60.9349 28.8445 60.9349C28.8445 60.9348 28.8446 60.9348 28.8447 60.9347C28.8449 60.9345 28.8452 60.9344 28.8454 60.9342C28.8459 60.9338 28.8461 60.9337 28.8458 60.934L29.9692 62.5886C29.9922 62.573 30.0118 62.559 30.0292 62.5463L28.8444 60.9349ZM28.8479 60.9321C28.8377 60.9401 28.8411 60.9373 28.8455 60.9341L30.028 62.5471C30.056 62.5266 30.0783 62.5089 30.0879 62.5012L28.8479 60.9321ZM28.9048 60.8883C28.8784 60.9079 28.8581 60.924 28.8481 60.9319L30.0878 62.5014C30.0972 62.4939 30.0972 62.494 30.0977 62.4936L28.9048 60.8883ZM28.9967 60.8204L28.9068 60.8868L30.0956 62.4952L30.1855 62.4287L28.9967 60.8204ZM29.2911 60.6528L29.1271 60.7387L30.0551 62.5104L30.2191 62.4245L29.2911 60.6528ZM29.3732 60.6098L29.2911 60.6528L30.2191 62.4245L30.3012 62.3815L29.3732 60.6098ZM29.7733 60.4361C29.6153 60.4785 29.4821 60.5487 29.4318 60.5756C29.3969 60.5943 29.3673 60.6114 29.346 60.624C29.3352 60.6305 29.326 60.6361 29.3187 60.6405C29.3151 60.6427 29.312 60.6447 29.3093 60.6463C29.308 60.6472 29.3068 60.6479 29.3057 60.6486C29.3052 60.6489 29.3046 60.6492 29.3042 60.6495C29.3039 60.6497 29.3037 60.6498 29.3035 60.65C29.3034 60.65 29.3033 60.6501 29.3032 60.6502C29.3031 60.6502 29.303 60.6503 29.303 60.6503C29.3029 60.6503 29.3028 60.6504 29.8372 61.4957C30.3715 62.341 30.3714 62.341 30.3713 62.341C30.3713 62.3411 30.3712 62.3411 30.3712 62.3411C30.3711 62.3412 30.371 62.3413 30.3709 62.3413C30.3707 62.3414 30.3705 62.3416 30.3703 62.3417C30.3699 62.3419 30.3696 62.3421 30.3693 62.3423C30.3686 62.3427 30.3681 62.3431 30.3676 62.3434C30.3667 62.344 30.366 62.3444 30.3657 62.3446C30.365 62.345 30.3653 62.3448 30.3664 62.3442C30.369 62.3426 30.3728 62.3404 30.3766 62.3384C30.4035 62.3239 30.368 62.3473 30.2916 62.3678L29.7733 60.4361ZM30.1575 61.3824C30.0717 60.3861 30.0716 60.3861 30.0716 60.3861C30.0716 60.3861 30.0715 60.3861 30.0715 60.3861C30.0714 60.3861 30.0713 60.3861 30.0712 60.3861C30.0711 60.3861 30.0709 60.3861 30.0707 60.3862C30.0704 60.3862 30.0701 60.3862 30.0697 60.3862C30.0689 60.3863 30.0681 60.3864 30.0671 60.3865C30.0653 60.3866 30.0631 60.3868 30.0606 60.3871C30.0556 60.3875 30.0493 60.3882 30.042 60.3889C30.0275 60.3904 30.0075 60.3926 29.9845 60.3956C29.951 60.3999 29.8642 60.4116 29.772 60.4364L30.293 62.3674C30.2485 62.3794 30.2241 62.3813 30.2412 62.379C30.2435 62.3788 30.2458 62.3785 30.2474 62.3783C30.248 62.3783 30.2481 62.3783 30.2475 62.3783C30.2472 62.3783 30.2467 62.3784 30.246 62.3785C30.2457 62.3785 30.2453 62.3785 30.2448 62.3786C30.2446 62.3786 30.2443 62.3786 30.2441 62.3786C30.2439 62.3786 30.2438 62.3787 30.2437 62.3787C30.2436 62.3787 30.2435 62.3787 30.2435 62.3787C30.2434 62.3787 30.2434 62.3787 30.2434 62.3787C30.2433 62.3787 30.2433 62.3787 30.1575 61.3824ZM29.7615 60.4529C29.7152 60.4789 29.6755 60.5034 29.6481 60.5207C29.634 60.5297 29.6221 60.5375 29.613 60.5435C29.6085 60.5465 29.6045 60.5491 29.6013 60.5513C29.5997 60.5524 29.5983 60.5533 29.597 60.5542C29.5964 60.5546 29.5958 60.555 29.5953 60.5554C29.595 60.5555 29.5948 60.5557 29.5945 60.5559C29.5944 60.556 29.5943 60.5561 29.5942 60.5561C29.5941 60.5562 29.5941 60.5562 29.594 60.5562C29.594 60.5563 29.5939 60.5563 29.5939 60.5563C29.5939 60.5563 29.5938 60.5564 30.1575 61.3824C30.7211 62.2084 30.7211 62.2084 30.721 62.2085C30.721 62.2085 30.721 62.2085 30.7209 62.2085C30.7209 62.2086 30.7208 62.2086 30.7208 62.2086C30.7207 62.2087 30.7206 62.2088 30.7205 62.2088C30.7203 62.209 30.7201 62.2091 30.7199 62.2092C30.7195 62.2095 30.7192 62.2097 30.7189 62.2099C30.7182 62.2104 30.7178 62.2107 30.7174 62.2109C30.7166 62.2114 30.7164 62.2116 30.7165 62.2115C30.7168 62.2114 30.7184 62.2103 30.7211 62.2086C30.7272 62.2047 30.7338 62.2007 30.7385 62.1981L29.7615 60.4529ZM30.028 60.3311C29.9093 60.3719 29.8096 60.4259 29.7597 60.4539L30.7403 62.1971C30.7435 62.1953 30.7417 62.1964 30.7354 62.1995C30.7319 62.2011 30.7257 62.204 30.717 62.2077C30.7085 62.2113 30.6951 62.2167 30.6776 62.2227L30.028 60.3311ZM30.3156 60.263C30.2744 60.2692 30.1639 60.2844 30.0277 60.3312L30.6778 62.2226C30.6678 62.226 30.6569 62.2294 30.6452 62.2326C30.6335 62.2358 30.6229 62.2382 30.6142 62.2401C30.6058 62.2418 30.6002 62.2427 30.5994 62.2429C30.5991 62.2429 30.5997 62.2428 30.6019 62.2425C30.6042 62.2421 30.6069 62.2417 30.6117 62.241L30.3156 60.263ZM30.3294 60.261C30.3329 60.2603 30.335 60.2601 30.3156 60.263L30.6117 62.241C30.6295 62.2383 30.6708 62.2323 30.7199 62.2225L30.3294 60.261ZM30.4142 60.2453C30.3978 60.2482 30.3656 60.2537 30.3276 60.2614L30.7217 62.2221C30.7311 62.2203 30.7384 62.219 30.7596 62.2153L30.4142 60.2453ZM30.4186 60.2446L30.4172 60.2448L30.7566 62.2158L30.7579 62.2156L30.4186 60.2446ZM30.4473 60.2391C30.4449 60.2397 30.4435 60.24 30.4412 60.2405C30.437 60.2413 30.4321 60.2422 30.4155 60.2451L30.761 62.215C30.7929 62.2094 30.8495 62.1997 30.9223 62.1819L30.4473 60.2391ZM30.4826 60.2265C30.4712 60.2307 30.4646 60.2331 30.4586 60.2352C30.4532 60.2372 30.4503 60.2381 30.4488 60.2386C30.4471 60.2392 30.4471 60.2392 30.4462 60.2394L30.9235 62.1816C31.0391 62.1532 31.1255 62.121 31.1722 62.1038L30.4826 60.2265ZM30.4866 60.225L30.4839 60.226L31.1708 62.1043L31.1735 62.1033L30.4866 60.225ZM30.6485 60.1703C30.575 60.1923 30.5165 60.214 30.485 60.2256L31.1752 62.1027C31.2065 62.0912 31.2132 62.089 31.2211 62.0866L30.6485 60.1703ZM30.9167 60.1035C30.8581 60.116 30.763 60.136 30.6473 60.1707L31.2224 62.0862C31.2525 62.0772 31.2767 62.0717 31.3348 62.0593L30.9167 60.1035ZM31.0288 60.0756C31.0024 60.0845 30.9844 60.089 30.9168 60.1034L31.3348 62.0593C31.4062 62.044 31.5234 62.0196 31.6689 61.9704L31.0288 60.0756ZM31.1599 60.0225C31.1241 60.0382 31.1048 60.0467 31.0856 60.0545C31.0689 60.0613 31.0516 60.0679 31.0291 60.0755L31.6687 61.9705C31.8017 61.9256 31.8962 61.8836 31.9669 61.8524L31.1599 60.0225ZM31.1665 60.0196L31.1658 60.0199L31.961 61.855L31.9617 61.8547L31.1665 60.0196ZM31.2895 59.9667C31.2376 59.9882 31.1936 60.0076 31.1622 60.0214L31.966 61.8528C32.0005 61.8377 32.0263 61.8263 32.0567 61.8137L31.2895 59.9667ZM31.4938 59.884C31.4358 59.9071 31.3674 59.9343 31.2889 59.9669L32.0573 61.8135C32.1199 61.7874 32.1753 61.7653 32.2335 61.7421L31.4938 59.884ZM31.4815 59.889L31.4813 59.889L32.246 61.7371L32.2462 61.737L31.4815 59.889ZM31.8297 59.7369C31.7105 59.7974 31.6297 59.8299 31.494 59.8839L32.2336 61.7421C32.3754 61.6857 32.5289 61.6249 32.7353 61.5201L31.8297 59.7369ZM31.9433 59.6741C31.8957 59.7016 31.8676 59.7176 31.8291 59.7371L32.7358 61.5198C32.8246 61.4746 32.8919 61.4358 32.9409 61.4076L31.9433 59.6741ZM32.1252 59.5736C32.0476 59.614 31.9872 59.6489 31.9433 59.6742L32.941 61.4075C32.9843 61.3826 33.0124 61.3665 33.0491 61.3474L32.1252 59.5736ZM32.2536 59.5102C32.2245 59.524 32.1795 59.5453 32.1252 59.5736L33.0492 61.3474C33.0677 61.3377 33.0831 61.3303 33.1122 61.3165L32.2536 59.5102ZM32.2879 59.4937C32.279 59.4981 32.2695 59.5026 32.2536 59.5102L33.1122 61.3165C33.1266 61.3097 33.1469 61.3 33.1686 61.2894L32.2879 59.4937ZM32.3221 59.4759C32.3098 59.4828 32.2997 59.4879 32.2884 59.4935L33.1681 61.2896C33.2044 61.2718 33.2442 61.2515 33.2897 61.2263L32.3221 59.4759ZM32.479 59.3625C32.3931 59.4314 32.3657 59.4518 32.3209 59.4766L33.2909 61.2257C33.4974 61.1111 33.6397 60.9954 33.7302 60.9229L32.479 59.3625ZM32.8008 59.1268C32.6566 59.2194 32.5486 59.3067 32.479 59.3625L33.7302 60.9229C33.7997 60.8671 33.8349 60.8396 33.8813 60.8098L32.8008 59.1268ZM32.9542 59.0126C32.9128 59.0441 32.878 59.0706 32.847 59.0936C32.8134 59.1185 32.8 59.1273 32.8005 59.127L33.8816 60.8096C33.9802 60.7463 34.1015 60.6528 34.1668 60.6031L32.9542 59.0126ZM33.1789 58.8472C33.1034 58.8983 33.0115 58.9689 32.9542 59.0126L34.1668 60.6031C34.2438 60.5443 34.2826 60.5153 34.3001 60.5034L33.1789 58.8472ZM33.5406 58.5598C33.3871 58.6906 33.2913 58.7711 33.1787 58.8473L34.3003 60.5032C34.5176 60.3561 34.6932 60.2053 34.8376 60.0822L33.5406 58.5598ZM33.544 58.557L33.5413 58.5592L34.8369 60.0828L34.8396 60.0806L33.544 58.557ZM33.582 58.5245L33.542 58.5586L34.8415 60.0789L34.8814 60.0448L33.582 58.5245ZM33.8949 58.2374C33.7786 58.3482 33.6867 58.4353 33.5835 58.5232L34.8799 60.0462C35.0318 59.9169 35.1618 59.7928 35.2748 59.6851L33.8949 58.2374ZM33.9058 58.227L33.8957 58.2367L35.274 59.6858L35.2842 59.6761L33.9058 58.227ZM34.071 58.0712C34.0116 58.1263 33.9557 58.1795 33.9057 58.2271L35.2843 59.676C35.3356 59.6272 35.3826 59.5825 35.4315 59.5372L34.071 58.0712ZM35.5364 58.0034C34.7993 57.3276 34.7993 57.3276 34.7993 57.3276C34.7993 57.3276 34.7993 57.3276 34.7993 57.3276C34.7994 57.3276 34.7994 57.3275 34.7994 57.3275C34.7994 57.3275 34.7993 57.3276 34.7993 57.3276C34.7992 57.3278 34.7989 57.328 34.7986 57.3283C34.798 57.329 34.7969 57.3302 34.7955 57.3317C34.7926 57.3349 34.7882 57.3397 34.7823 57.3461C34.7705 57.3588 34.753 57.3777 34.7308 57.4016C34.6862 57.4493 34.6233 57.5163 34.5501 57.5928C34.4007 57.749 34.2206 57.9323 34.0706 58.0716L35.4318 59.5368C35.6256 59.3568 35.8381 59.1397 35.9953 58.9753C36.0755 58.8915 36.1443 58.8182 36.1933 58.7657C36.2178 58.7394 36.2375 58.7182 36.2512 58.7034C36.258 58.696 36.2634 58.6902 36.2672 58.6861C36.269 58.684 36.2705 58.6824 36.2716 58.6813C36.2721 58.6807 36.2725 58.6802 36.2728 58.6799C36.273 58.6797 36.2731 58.6796 36.2732 58.6795C36.2733 58.6794 36.2733 58.6794 36.2734 58.6793C36.2734 58.6793 36.2734 58.6793 36.2734 58.6793C36.2734 58.6792 36.2735 58.6792 35.5364 58.0034ZM35.186 56.8737L34.7758 57.3542L36.2969 58.6527L36.7071 58.1722L35.186 56.8737ZM35.3223 56.7146C35.2845 56.7588 35.2509 56.798 35.2268 56.8261C35.2148 56.8402 35.2051 56.8514 35.1985 56.8591C35.1952 56.863 35.1926 56.866 35.1909 56.8679C35.19 56.8689 35.1894 56.8697 35.189 56.8702C35.1888 56.8704 35.1886 56.8706 35.1885 56.8707C35.1885 56.8708 35.1884 56.8708 35.1884 56.8708C35.1884 56.8708 35.1884 56.8709 35.1884 56.8709C35.1884 56.8709 35.1884 56.8709 35.1884 56.8709H35.1884C35.1884 56.8709 35.1884 56.8709 35.9465 57.5229C36.7047 58.175 36.7047 58.175 36.7047 58.175C36.7047 58.175 36.7047 58.175 36.7047 58.175C36.7047 58.175 36.7047 58.175 36.7047 58.175C36.7047 58.175 36.7047 58.175 36.7047 58.175C36.7048 58.1749 36.7048 58.1749 36.7049 58.1748C36.705 58.1746 36.7052 58.1744 36.7055 58.1741C36.7059 58.1736 36.7067 58.1727 36.7076 58.1717C36.7094 58.1695 36.7121 58.1664 36.7156 58.1624C36.7225 58.1543 36.7325 58.1426 36.7449 58.1282C36.7697 58.0993 36.8043 58.0589 36.8432 58.0133L35.3223 56.7146ZM40.5669 56.7669C39.1089 56.7669 37.6696 56.6344 36.2605 56.3799L35.905 58.348C37.4293 58.6234 38.9876 58.7669 40.5669 58.7669V56.7669Z" fill="white" mask="url(#path-5-inside-2)"/>
<path d="M64.7059 28.2336C65.073 28.2336 65.3716 27.9359 65.3616 27.5689C65.2772 24.4819 64.6055 21.4387 63.3816 18.6097C62.07 15.5779 60.1531 12.8586 57.7535 10.6257C55.3538 8.39281 52.5241 6.69538 49.4452 5.64191C46.58 4.66156 43.5576 4.25894 40.546 4.45393C40.1732 4.47807 39.8997 4.80845 39.9334 5.18055C39.9673 5.55462 40.2988 5.82879 40.6737 5.80527C43.4994 5.62804 46.3343 6.00857 49.0226 6.92838C51.9262 7.92186 54.5947 9.52262 56.8578 11.6284C59.1208 13.7341 60.9285 16.2985 62.1654 19.1578C63.3146 21.8141 63.9475 24.6706 64.0316 27.5689C64.0422 27.9359 64.3388 28.2336 64.7059 28.2336Z" fill="white"/>
<rect x="23.5498" y="57.7816" width="1.02009" height="3.10265" rx="0.510044" transform="rotate(60 23.5498 57.7816)" fill="white"/>
</svg>
